<?xml version="1.0" encoding="UTF-8"?>
<svg version="1.1" viewBox="0 0 1622 2048" width="4417" height="5574" xmlns="http://www.w3.org/2000/svg">
<path transform="translate(0)" d="m0 0h1622v2048h-1622z" fill="#FDFDFD"/>
<path transform="translate(0)" d="m0 0h1622v2048h-1622zm1477 51-57 18-26 9-42 16-43 19-25 12-23 12-22 13-21 13-16 11-14 10-16 13-10 8-8 8-8 7-8 8-9 11-10 12-11 16-10 18-7 19-1 4-5-2-25-14-46-23-23-13-16-10-14-11-11-9-14-12-37-37-9-11-10-11-6-8-6-1-4 4 1 11 8 30 10 27 8 18-21-12-20-8-18-5-16-3-9-1h-38l-21 3-23 6-25 10-21 11-14 10-3 2v4l10-1 12-2h27l20 3 19 5 9 3-23 2-17 4-20 8-15 9-7 6 1 3 8-1 21-4 18-2h39l23 3 23 5-14-1h-28l-24 3-25 6-20 7-20 9-11 6-3-10-8-16-8-14-12-16-12-14-14-14-8-7-16-13-18-13-15-10-20-12-22-12-24-12-30-13-36-14-37-13-40-12-48-12-21-4-2 1-15 39-12 36-10 34-9 38-6 33-4 30-2 23-1 24v22l1 24 4 37 5 28 8 32 11 32 11 25 10 20 12 20 11 16 12 16 9 10 7 8 19 19 11 9 17 13 12 8h2l-5 17-8 21-10 19-9 12-9 8-12 6-11 3-7 1h-52l-1 2 9 19 12 16 14 14 14 10 19 9 11 3-1 1-18 2h-27l-22-3-23-6-20-8-9-4h-4l1 7 7 16 8 13 10 13 11 12 8 7 17 13 15 9 16 8 16 6 4 1-23-2-29-5-39-9-4 1 1 4 9 11 10 11 7 8 24 24 8 7 11 10 11 9 17 14 19 14 18 13 21 14 19 12 22 13 22 12 23 12 27 13 40 17 30 11 36 12 42 12 43 10 15 3h4l-9 16-9 24-7 25-7 34-4 25-3 29-2 34-11 11-7 8-11 13-12 16-12 18-11 19-12 24-9 24-7 23-5 26-2 19-1 28-21-7-25-12-16-10-14-11-12-11-13-13-13-17-12-20-8-16-7-16-12-36-9-26-11-26-12-23-9-14-12-16-12-13-10-10-14-11-18-11-15-7-24-8-24-5-16-2-15-1h-24l-26 2-19 4-19 7-17 9-14 10-13 12-9 10-9 13-9 17-7 21-3 15v30l3 16 6 16 8 16 10 14 10 10 11 7 12 5 9 2h24l16-4 12-6 9-8 5-8 2-8v-8l-3-12-5-8-6-5-4-2h-11l-6 3-5 5-4 8v3l-6-5-3-6-1-9 3-8 8-7 8-4 8-2h17l13 5 11 7 13 13 10 15 12 25 9 27 9 38 6 20 7 20 11 25 13 25 14 22 13 17 9 11 12 13 15 15 11 9 13 10 15 10 21 12 23 11 27 10 17 5h4v2l-4 2-13 10-16 16-11 15-9 16-6 16-3 14v28l5 16 6 12 9 12 9 9 13 9 16 8 16 6 22 5 21 3 15 1h40l28-2 38-5 33-6 39-9 41-11 2-1 3 14 6 11 9 10 12 9 15 7 18 5 19 3h43l23-3 18-5 17-8 13-10 7-8 8-13 5-14 2 3 5 13 7 11 9 10 10 7 16 8 16 5 16 3 25 2 28-1 21-3 20-6 17-9 12-11 7-9 5-13 1-4v-12l40 9 32 6 38 5 29 2h32l26-2 23-4 21-6 18-8 16-10 12-11 8-10 8-16 4-16v-27l-3-14-6-16-10-18-11-14-12-13-13-11-15-10-19-10-16-6-17-4-16-2h-20l-22 3-21 6-9 4 12-19 11-21 9-23 6-21 4-21 1-8v-45l-3-24-5-25-7-24-10-25-8-16-8-14-12-17-9-11-9-10-15-15-3-30-6-37-8-35-8-27-11-33-13-32-12-26-8-16v-2l36-12 33-13 27-12 17-8 19-10 25-14 22-14 22-15 19-14 22-18 14-12 16-15 31-31 7-8 12-14 13-17 12-16 12-19 12-21 10-21 4-10-1-5-6 2-25 11-30 10-15 3 16-8 12-7 14-11 13-12 9-11 7-10 9-16 6-17 3-13v-7l-7 1-25 12-19 7-25 6-15 2h-5l11-6 11-9 10-10 7-10 8-15 6-18 3-17v-9l-3-1-28 10-24 8-10 2h-21l-10-4-10-8-8-10-12-19-15-28-1-3 4-2 10-11 9-11 10-13 12-16 18-27 14-24 14-27 13-30 11-31 9-32 7-34 4-29 2-22 1-21v-26l-2-34-4-33-6-32-10-40-12-36-8-21-11-24-5-9z" fill="#FEFEFE"/>
<path transform="translate(1477,51)" d="m0 0 4 1 13 27 12 31 10 31 11 44 6 35 3 26 2 34v26l-2 34-4 32-6 31-8 31-11 33-12 29-14 29-13 23-12 19-14 20-20 26-12 14-8 9h-2l8 16 9 17 14 21 8 9 9 6 8 3h21l17-4 45-16 3 1v9l-3 17-6 18-9 17-9 11-10 10-13 9-6 3 14-1 24-5 21-7 24-11 8-4h5v7l-4 17-8 19-10 16-8 10-12 13-11 9-14 10-19 10h3l19-5 25-9 24-11 3 1-1 7-11 24-9 17-15 24-13 18-11 14-12 14-9 10-7 8-34 34-8 7-10 9-14 11-12 10-18 13-19 13-22 14-28 16-15 8-23 11-32 14-40 15-22 7 2 6 8 16 11 24 13 33 12 36 9 33 7 34 4 26 3 30 22 22 11 14 10 14 10 17 8 16 10 25 7 24 5 25 3 24v45l-4 25-6 22-8 21-11 23-12 19-2 3 15-6 21-5 16-2h20l21 3 18 5 18 8 16 9 12 9 14 12 11 12 10 14 9 16 7 19 2 11v27l-4 16-8 16-9 11-7 7-15 10-16 8-13 5-25 6-23 3-16 1h-32l-38-3-35-5-45-9-21-5v12l-4 13-7 11-10 10-11 7-13 6-17 5-21 3-28 1-25-2-20-4-15-5-15-8-11-9-7-8-8-14-4-12-2 3-6 15-10 14-10 9-14 8-15 6-18 4-17 2h-43l-19-3-18-5-16-8-11-8-7-7-8-14-3-14-16 5-52 13-35 7-33 5-28 3-17 1h-40l-23-2-23-4-21-6-18-8-14-9-12-11-8-10-6-10-6-17-1-4v-28l4-17 7-17 9-15 11-14 16-16 13-10h2v-2l-7-1-23-7-27-11-20-10-23-14-16-12-11-9-12-11-15-15-9-11-12-15-12-18-9-15-14-27-11-27-9-28-7-29-6-23-7-19-12-25-10-14-12-12-11-7-13-5h-17l-13 4-8 6-4 5-2 6 1 9 5 8 4 3 1-6 5-8 6-4 3-1h11l8 5 5 6 4 11 1 5v8l-3 10-7 9-8 6-10 5-16 4h-24l-15-4-13-7-12-11-9-11-9-16-6-15-4-15-1-7v-30l4-19 7-19 9-17 10-13 9-10 12-11 15-10 15-8 19-7 19-4 26-2h24l24 2 23 4 21 6 20 8 15 8 14 10 13 11 14 14 11 14 9 13 12 21 10 21 10 26 15 46 8 19 8 16 9 16 10 14 11 13 17 17 14 11 15 10 23 12 21 8 7 2 1-28 3-25 5-24 11-33 8-18 11-22 13-21 13-18 13-16 18-20 4-4 2-34 4-36 6-34 7-29 7-23 9-21 6-10-9-1-41-9-41-11-38-12-33-12-34-14-33-15-28-14-39-22-24-15-18-12-20-14-21-16-14-11-13-11-14-12-17-16-21-21-7-8-11-13-3-4 1-4 12 2 30 7 29 5 23 2-18-6-16-8-14-8-16-12-10-9-7-6-7-8-10-13-9-16-6-15v-4l6 1 19 8 18 6 25 5 10 1h27l18-2 1-1-16-5-17-9-13-10-14-14-11-16-8-17 1-2h52l15-3 12-5 9-7 8-9 8-13 9-19 9-26 1-5-5-2-17-12-14-11-15-14-16-16-9-11-11-14-16-24-12-21-13-27-10-26-8-25-7-29-5-31-3-30-1-24v-22l2-36 3-27 6-37 9-40 10-36 12-36 11-30 6-15 3-1 37 8 38 10 45 14 41 15 34 14 26 12 24 12 24 14 19 12 18 13 16 13 10 9 8 7 12 12 9 11 11 15 12 21 7 17v2l19-10 23-9 20-6 20-4 18-2h28l14 1-23-5-23-3h-39l-24 3-19 4-5-1 2-4 8-6 14-8 18-7 17-4 23-2-23-7-16-3-9-1h-27l-17 3h-5v-4l17-12 25-13 24-9 25-6 16-2h38l20 3 20 5 18 7 16 8 10 6-10-23-9-25-8-32v-6l4-4 6 1 9 11 13 15 11 12 32 32 11 9 13 11 18 13 24 14 33 17 28 14 22 13h2l6-18 8-16 9-15 11-14 11-13 11-12 17-16 17-14 16-12 22-15 23-14 22-13 41-21 41-18 28-11 38-14 37-12zm-1 5-51 19-41 16-35 15-40 19-31 16-23 13-20 12-22 15-19 14-16 13-14 12-15 14-12 12-9 11-10 12-11 17-8 14-4 10v3l19 12 17 12 13 10 12 11 6 7-25-15-25-14-28-15-23-13-25-15-24-15-23-14-17-11-16-12-10-8-13-11-12-11-8-7-8-8-8-7-13-13-3-4-2 1 6 25 10 30 9 20 12 23 12 19 8 10-5-4-13-17-10-15-10-17-23-10-25-8-22-5-22-3h-41l-21 3-25 6-26 9-11 5 3 1 11-1h15l24 3 24 6 21 8 10 5 1 4-1 2-10-1-14-2h-23l-19 3-21 7 4 1 15-3 20-2h20l21 2 25 5 20 6 21 9 23 12 16 11 9 7 1 3-9-3-25-10-24-7-22-4-26-2-24 1-26 4-23 6-22 8-20 9-25 13-26 16-3 1 17-17 17-13 7-5-8-16-10-16-11-14-12-14-17-17-11-9-13-11-18-13-18-12-20-12-22-12-17-9-33-15-34-14-35-13-36-12-39-12-32-8-4 9-13 40-10 36-10 42-7 40-4 33-2 23-1 27v15l1 27 4 37 6 33 7 27 11 33 10 23 9 19 12 21 16 24 13 17 12 14 9 10 23 23 11 9 7 5h2l16-52 11-35 2-9-14-10-14-14-11-14-12-15-14-21-9-15-12-22-11-25-10-28-8-30-5-27-3-28v-51l3-29 5-29 7-28 12-36 11-24 1-4v3l-10 28-8 27-7 34-4 32-1 15v40l2 25 4 27 6 27 7 24 9 25 11 24 11 21 13 21 13 18 18 22 13 15 9 13h2l13-29 12-22 13-20 13-18 11-13 9-10 11-12 9-9 8-7 15-13 16-12 18-12 15-9 19-10v3l-5 2-16 11-17 13-13 11-8 7-13 12-12 12-7 8-13 15-15 20-15 23-10 18-9 17-12 29-12 39-13 47-9 30-10 29-8 18-8 14-8 10-10 9-10 6-15 5-7 1h-20l-21-4-12-4-3 1 9 10 16 16 15 11 16 9 15 6 16 4 16 1 22-8 17-7-11 10-15 10-16 8-13 5-22 5-8 1h-32l-19-3-17-5-15-6-13-6 2 4 24 28 9 9 8 7 17 13 13 8 16 8 15 6 21 6h9l15-4 12-5 3-1-8 7-16 8-13 4-19 3h-25l-22-3-23-6-20-7-4-1 6 7 13 12 7 7 8 7 10 9 11 9 13 11 17 13 18 14 19 13 30 20 21 13 28 16 23 12 17 9 33 15 28 12 40 15 37 12 36 10 33 8 40 8 47 7 40 4 33 2h76l44-3 36-4 39-6 35-7 48-12 39-12 32-11 37-15 33-15 28-14 23-13 17-10 22-14 19-13 18-13 14-11 11-9 13-11 14-12 9-9 8-7 16-16 7-8 13-14 9-11 11-13 14-19 12-17 15-22v-2l-5 2-16 8-19 7-23 5-17 2h-34l-22-3-11-3 25 2h15l21-7 21-10 18-12 10-8 12-11 9-10 12-16 12-20 5-9v-2l-4 2-12 9-16 8-13 5-15 4-14 2h-28l-19-3-17-5-21-10-9-6-1-3 17 5 19 5 20 3 11-3 16-8 13-10 8-8 11-15 10-19 8-22v-4l-6 2-29 13-18 6-9 2h-21l-13-5-11-8-7-7-11-15-11-19-14-26-19-38-11-23-10-20-13-23-16-26-12-17-12-16-11-13-7-8-11-12-14-14-11-9-12-10-24-16-16-9 9 3 17 8 18 11 19 14 15 13 15 14 10 10 7 8 12 14 9 12 12 17 12 19 8 13 4-5 8-12 12-17 13-18 14-21 11-19 11-21 11-26 12-36 6-26 4-23 3-29v-48l-3-30-5-29-8-32-12-35-3-8 9 19 10 26 8 26 6 26 4 26 2 22v48l-3 29-5 28-8 30-9 25-10 23-12 24-10 17-16 24-9 12-12 14-10 10-11 9 8 16 12 23 19 38 1 3 4-2 10-11 22-28 14-20 10-15 15-26 14-27 13-31 10-28 8-28 7-33 5-35 2-24v-63l-3-33-5-33-6-29-8-31-12-36-10-25-4-9z"/>
<path transform="translate(1172,1163)" d="m0 0h2l11 22 13 30 13 35 10 32 10 40 6 31 4 31 2 25v48l-3 32-5 29-11 51-15 63-22 86-18 71-9 41-3 23v15h2l3-17 2 1 4 20 5 13 6 10 8 11 5 11 2 10v10l-3 12-6 11-11 11-14 8-14 5-7 2h-5l7-15 3-11v-23l-4-15-5-12-4-5 2 6 5 12 3 16v11l-3 15-6 12-8 10-3 2-12 1h-23l-16-2-7-10-5-10-3-12v-23l4-15h-2l-3 11-2 10v18l4 16 6 12-1 2-21-5-16-7-9-6-11-11-7-12-5-15-2-9-1-9v-25l2-23 6-37 5-27 11-127 7-68 8-64 8-53 7-39 10-12 12-17 11-19 12-25 9-27 5-25 1-9v-35l-2-13v37l-4 27-6 22-8 21-11 22-16 24-13 16-11 12-18 18-11 9-12 10-20 14-6 4-4-1-13-11-9-11-9-14-8-17-5-20-1-7v-35l-5 16-2 12v24l3 15v7l-3 15-7-6-9-10-11-15-10-19-5-16-2-17 5-15 6-11 2-5-5 3-7 12-5 15-2 11v27l4 26 7 28 12 37 14 39 12 37 19 65 17 62 19 70 7 31 7 45 1 9v35l-3 17-4 12-5 10-8 10-11 9-16 8-18 5-9 1 8-17 3-13v-19l-5-20h-2l4 13 1 7v14l-3 14-5 12-7 9-6 2-16 1h-17l-14-1-8-9-7-14-3-12v-18l3-14 6-15 1-2-4 4-6 12-4 14-1 8v12l3 14 9 18-14-3-13-5-11-6-12-11-6-9-4-10-1-6v-10l3-12 6-12 9-12 6-13 3-11 2-19 2 1 4 19 3 1-2-16-5-17-13-33-32-76-17-43-15-41-12-36-9-29-10-38-9-41-6-39-3-28-1-16v-55l3-36 4-29 7-34 10-37 10-35 13 1 42 6 42 4 36 2h66l55-3 42-4 44-6 45-8 39-9 34-9z" fill="#FEFEFE"/>
<path transform="translate(178,1274)" d="m0 0h35l24 2 21 4 24 8 21 10 12 8 14 11 17 17 13 17 8 13 9 16 9 19 10 26 17 52 9 20 10 19 12 18 11 14 12 13 13 12 17 12 18 10 20 8 20 5 12 2 4 28 6 25 8 23 11 24 11 20 14 21 5 7-2 1-18-6-17-4-19-2h-13l-19 2-21 5-20 8-11 6-8-1-26-8-25-10-22-11-18-11-17-12-11-9-10-9-21-21-9-11-15-20-13-21-14-27-10-23-11-33-11-47-9-27-11-23-8-12-8-10-6-7-12-9-14-7-9-2h-16l-14 4-13 7-7 9-3 10 1 11 4 10 5 6 9 4 7-2 7-14 5-3 7 1 5 5 3 9v11l-4 8-8 7-12 5-9 2h-23l-14-4-10-6-7-6-10-13-11-21-5-15-2-12v-24l4-20 6-16 9-17 9-12 11-12 12-10 13-8 17-8 17-5 17-3z" fill="#FEFEFE"/>
<path transform="translate(1175,585)" d="m0 0h28l21 3 22 6 21 9 19 11 13 10 12 11 10 10 10 13 12 19 9 19 9 27 4 21 1 10v32l-3 22-6 24-10 25-11 20-10 14-11 13-14 14-17 13-19 11-19 8-20 6-16 3-10 1h-23l-21-3-19-5-15-6-16-8-11-7-12-9-12-11-12-12-12-16-8-13-8-15-9-24-5-22-2-14v-36l3-23 5-21 6-18 12-25 10-15 9-11 11-12 7-7 14-11 14-9 15-8 22-8 17-4z"/>
<path transform="translate(599,614)" d="m0 0h36l22 4 17 5 18 8 16 9 12 9 13 11 11 11 11 14 10 15 9 17 9 24 5 21 3 19 1 11v27l-3 22-5 20-7 19-8 16-7 12-10 14-11 12-5 6-8 7-14 11-16 10-21 10-19 6-22 4-21 1-23-2-25-6-20-8-19-10-17-12-13-12-10-10-13-17-11-18-10-21-8-25-4-20-2-25 1-25 4-24 6-20 9-21 8-15 12-17 12-14 10-10 14-11 14-9 17-9 22-8 23-5z"/>
<path transform="translate(663,1384)" d="m0 0h2l1 32 3 36 6 39 7 34 8 32 12 40 16 47 18 47 14 33 19 43 16 35 11 26 2 16-1 17-4 15-7 14-10 13-6 13-2 9-1 9-52 13-43 9-38 6-27 3h-6l1-2h2l2-4 5-8 4-14 1-8v-16l-2-14-5-15-6-12-9-11-8-7-16-8v3l4 1 11 7 9 9 8 13 5 13 3 14v27l-3 12-5 9-4 5-10 6-3 1h-37l-21-2-3-15-4-17-2-16v-22l3-18 5-16 7-16 10-16 12-14 11-10 4-3h2v-2l-8 4-11 9-13 13-10 14-9 17-5 15-4 20-1 12v11l2 19 5 22 2 7-11-1-20-5-17-6-3-9-7-28-2-18 1-19 5-21 7-16 8-14 11-13 11-11 11-8 1-2-12 7-13 11-7 7-10 13-10 19-6 20-2 14v23l3 19 5 16 2 6-12-7-12-11-9-10-8-16-3-11-1-9v-9l2-15 5-16 8-16 8-12 9-11 14-14 16-12 17-10 20-8 16-4 13-2h34l22 4 21 7 9 5 12 14 22 22 22 18 5 2-2-5-11-9-27-27-9-11-12-15-14-21-11-19-8-16-7-16-10-30-5-24-2-17v-43l4-27 7-28 9-25 9-20 13-25 13-21 14-20 11-14z" fill="#FEFEFE"/>
<path transform="translate(1254,1406)" d="m0 0 6 5 9 11 10 13 12 19 12 23 9 23 7 23 5 23 3 22 1 12v37l-3 23-6 24-7 20-9 20-11 20-10 15-12 16-11 13-11 12-13 13-8 7h-2v4l7-3 17-13 13-12 16-16 9-11 5-4 21-7 21-4 9-1h25l19 3 20 6 18 8 15 9 13 10 13 12 10 12 9 14 8 17 5 19 1 6v14l-3 15-6 14-8 11-6 7-12 9-5 3h-2l3-9 4-13 2-12v-29l-3-17-5-15-9-17-9-12-8-9-11-9-14-9-2-1 5 5 12 11 9 9 11 15 8 16 5 15 3 16v27l-5 26-4 17-14 6-21 6-9 2h-6l3-9 5-17 2-13v-28l-3-19-7-21-8-15-10-14-10-11-14-11-6-4-2 1 10 8 12 12 10 14 9 16 7 19 4 20v31l-6 37-1 5-2 1-22 2h-34l-10-5-5-4-6-10-3-9-1-6v-26l3-14 5-13 6-10 9-10 7-6 7-4h2v-2l-11 4-11 8-8 8-7 11-5 12-4 16-1 8v17l3 15 6 12 4 6h-12l-38-5-45-8-19-4-3-3-4-13-6-10-10-14-5-10-4-13-2-11-1-11v-9l3-14 20-69 19-70 16-64 14-61 10-50 4-36 1-17z" fill="#FEFEFE"/>
<path transform="translate(866,1439)" d="m0 0 3 4 6 11 11 14 12 12 12 9h5v-22l2 1 7 14 11 14 7 7 14 10 4 2 7-1 16-10 16-12 13-11 10-9 14-14 1 2-8 39-10 62-8 60-7 64-7 76-3 38-4 23-6 33h-1l-8-44-12-48-15-54-20-70-16-53-13-38-15-40-11-34-6-25z" fill="#FEFEFE"/>
<path transform="translate(1172,601)" d="m0 0h22l20 3 21 6 18 8 14 8 11 8 13 11 10 10 11 14 9 14 10 19 7 18 6 24 2 14v36l-3 20-5 19-8 21-11 21-10 14-12 14-9 9-17 13-17 10-19 8-22 6-14 2h-30l-18-3-20-6-18-8-15-9-12-9-10-9-7-6-7-8-2-4 5 2 10 7 16 8 15 6 19 5 15 2h28l20-3 20-6 18-8 15-9 13-10 12-11 9-11 8-11 9-16 8-19 5-19 2-14v-32l-3-19-6-20-11-23-8-12-8-10-9-10-11-10-16-11-12-7-20-8-19-5-13-2h-34l-17 2 2-2 24-8 15-3z" fill="#FEFEFE"/>
<path transform="translate(610,630)" d="m0 0h30l18 3 20 6 9 4-3 1-11-2-11-1h-19l-17 2-21 5-15 6-16 8-12 8-11 9-11 10-9 11-9 13-8 14-8 21-4 15-2 12-1 11v17l2 18 4 17 7 19 8 16 8 12 9 11 9 10 13 11 15 10 16 8 15 6 21 5 16 2h21l21-3 19-5 21-9 18-11 5-3-2 4-14 15-13 11-18 12-16 8-15 6-20 5-15 2h-23l-20-3-21-6-18-8-16-9-13-10-12-11-11-12-10-14-10-17-7-16-7-21-4-19-2-20v-19l3-24 5-20 8-21 12-23 11-15 12-14 14-13 17-12 21-11 24-8 14-3z" fill="#FEFEFE"/>
<path transform="translate(1202,655)" d="m0 0h14l13 4 8 6 6 7 4 10 1 6v11l-3 14-5 12-7 12-12 14-11 9-13 8-13 5-9 2h-18l-11-4-8-6-6-8-4-11-1-10 2-14 4-12 7-13 10-13 9-9 13-9 14-7z" fill="#FEFEFE"/>
<path transform="translate(698,684)" d="m0 0h19l11 4 8 6 6 8 4 12v17l-4 15-7 14-8 11-8 9-14 11-15 8-13 4-6 1h-13l-13-4-8-6-6-7-4-10-1-4v-16l4-15 8-16 10-13 9-9 14-10 15-7z" fill="#FEFEFE"/>
<path transform="translate(908,886)" d="m0 0h29l17 4 12 5 11 8 6 8 2 5v9l-4 8-8 8-10 6-18 6-12 2h-29l-20-4-16-7-10-8-5-7-1-3v-11l4-8 7-7 14-8 13-4z" fill="#FEFEFE"/>
<path transform="translate(909,878)" d="m0 0h29l26 3 24 5 36 12 18 8 15 8-3 1-36-13-25-7-25-5h-3l10 6 8 7 5 8 1 3v12l-5 10-8 8-14 8-20 6-17 2h-14l-21-3-15-5-13-7-8-7-6-10-1-11 3-9 9-10 6-4-7 1-20 6-20 8-23 12-16 11-4 2v-2l11-9 12-9 15-9 16-8 15-6 23-7 22-4zm-1 8-18 2-15 5-12 7-8 8-3 7v11l3 6 6 7 11 7 12 5 20 4h29l16-3 16-6 10-7 8-9 2-5v-9l-5-10-9-8-14-7-15-4-5-1z"/>
<path transform="translate(1246,813)" d="m0 0h12l8 3 8 7 4 7 1 4v12l-4 9-5 6-10 5-4 1h-8l-9-3-9-8-4-8-1-11 3-10 6-8z" fill="#FEFEFE"/>
<path transform="translate(1423,160)" d="m0 0h2v2l-24 8-26 11-24 12-20 12-16 11-13 10-14 12-15 14-7 8-11 13-12 17-11 19-11 22-12 30-1 2 15-8 16-5 10-2 11-1h14l18 2 16 4 8 3v1l-12-1-10-1h-37l-21 3-19 5-11 3 1-12 5-19 8-20 11-21 10-15 10-13 10-11 7-8 12-12 11-9 15-12 20-13 21-12 23-11 26-10 23-7z"/>
<path transform="translate(771,320)" d="m0 0h30l22 2 27 5 29 8 26 10 25 12 20 11 19 13 13 10 13 11 7 7h-3l-27-18-20-12-24-13-24-11-29-11-25-7-23-5-21-3-11-1h-37l-26 3-23 5-20 6-8 3-3-1 13-6 19-7 23-6 25-4z"/>
<path transform="translate(327,194)" d="m0 0 16 1 30 5 30 8 27 10 25 12 17 10 17 12 13 11 21 21 12 16 8 13 8 16 6 15 4 16 1 11-10-3-19-5-19-3-13-1h-16l-23 2-10 1 4-3 17-5 15-2h22l19 3 16 5 14 7-8-21-13-26-11-17-9-12-12-14-10-10-11-9-14-10-18-11-23-12-19-8-33-11-30-7-19-3z"/>
<path transform="translate(749,841)" d="m0 0 12 2 9 6 6 9 1 8-7 16-5 10-7 3h-14l-9-4-7-7-4-9v-13l4-9 4-5 8-5z" fill="#FEFEFE"/>
<path transform="translate(1152,498)" d="m0 0h18l12 3 13 7 13 13 8 13 4 12 1 9-7-6-13-13-13-9-12-6-12-3h-17l-18 4-15 5-11 4 2-5 14-14 14-8 10-4z"/>
<path transform="translate(608,529)" d="m0 0h12l14 3 12 5 11 7 13 13 2 5-30-10-17-3h-11l-14 3-14 7-12 9-13 12-5 6h-2l2-12 5-12 7-10 9-10 11-7 10-4z"/>
<path transform="translate(921,982)" d="m0 0h3l6 18 8 11 11 8 13 5 13 2 17-2 12-5 9-6-4-4-7-4v-1l9 1 7 4 6 7 1 2v6l-5-5-3-4h-3l-6 7-11 7-9 3-6 1h-13l-16-4-13-7-8-7-7-11-3-5-6 12-11 11-12 7-15 4h-17l-14-4-10-7-6-7-4 2-5 7-1-4 4-8 8-6 9-3h3v2l-12 7 5 5 13 6 7 2 13 1 16-3 12-6 10-9 6-8 4-11z"/>
<path transform="translate(849,1128)" d="m0 0 5 2 14 9 19 9 16 5 19 3h14l15-2 18-5 21-10 15-10 3-1-2 4-12 11-14 9-14 7-17 5-6 1h-29l-17-4-18-8-11-7-10-8-9-9z"/>
<path transform="translate(902,831)" d="m0 0h37l22 4 18 6 14 7-3 1-20-6-24-4-12-1h-26l-21 2-31 6-11 3-3-1 13-6 19-6 20-4z"/>
<path transform="translate(1231,399)" d="m0 0 14 1 25 7 26 10 19 9 18 11 11 9 10 9 9 10 1 3h-2l-7-8-10-9-14-10-21-12-23-10-30-10-23-7z"/>
<path transform="translate(528,404)" d="m0 0h8v2l-29 9-27 9-20 9-19 10-13 9-11 9-12 12v-3l7-8 12-12 15-11 16-9 23-11 22-8 22-6z"/>
<path transform="translate(1264,359)" d="m0 0h13l18 2 17 4 16 6 15 8 14 11-2 1-18-11-14-6-17-5-18-3-15-1h-15l-27 1 2-2 20-4z"/>
<path transform="translate(490,364)" d="m0 0h17l21 3 8 2v2l-17-1h-30l-24 3-21 6-14 6-16 10h-3l9-8 15-9 14-6 18-5 12-2z"/>
<path transform="translate(893,1077)" d="m0 0 6 2 12 5 16 2 13-2 13-5 3-2 3 1-9 8-12 5-4 1h-18l-12-5-8-6z"/>
</svg>
