<svg width="4000" height="3000" xmlns="http://www.w3.org/2000/svg" viewBox="0 0 4000 3000">
      <path d="M 1535.51,700.00 L 1493.46,706.77 L 1524.30,700.85 L 1546.73,700.00 L 1569.16,701.69 L 1574.77,709.31 L 1597.20,718.63 L 1616.82,711.85 L 1597.20,713.55 L 1594.39,713.55 L 1611.21,710.16 L 1633.64,718.63 L 1653.27,715.24 L 1675.70,714.39 L 1698.13,716.09 L 1717.76,716.93 L 1740.19,719.47 L 1765.42,722.86 L 1787.85,731.32 L 1813.08,733.02 L 1835.51,733.86 L 1857.94,739.79 L 1883.18,744.87 L 1905.61,747.41 L 1930.84,749.10 L 1953.27,752.49 L 1975.70,759.26 L 1998.13,769.42 L 2045.79,778.74 L 2065.42,783.81 L 2082.24,789.74 L 2082.24,799.05 M 2093.46,807.52 L 2115.89,822.76 M 2163.55,878.64 L 2166.36,881.18 L 2167.91,882.12 L 2169.16,882.87 L 2171.03,883.43 L 2172.59,883.90 L 2174.14,884.37 L 2177.57,887.95 M 2143.93,902.34 L 2138.32,902.34 M 2166.36,909.11 L 2171.96,909.96 L 2174.77,909.96 L 2175.08,910.99 L 2176.95,912.12 M 2163.55,937.05 L 2163.55,939.59 L 2160.75,942.13 L 2159.50,942.51 L 2157.94,942.98 M 2141.12,958.22 L 2141.12,962.45 L 2138.32,964.99 L 2137.07,965.37 L 2135.51,965.84 L 2133.96,967.72 L 2132.71,969.22 M 2110.28,990.39 L 2110.28,997.16 M 2118.69,1006.47 L 2117.45,1007.23 L 2115.89,1008.17 L 2113.08,1010.71 L 2107.48,1012.40 L 2101.87,1014.94 M 2118.69,1022.56 L 2121.50,1029.33 L 2127.10,1041.19 L 2121.50,1047.96 L 2110.28,1054.73 L 2099.07,1062.35 L 2085.05,1069.12 L 2068.22,1082.67 L 2054.21,1089.44 L 2051.40,1096.22 L 2037.38,1103.83 L 2028.97,1109.76 M 2034.58,1107.22 L 2042.99,1099.60 L 2051.40,1092.83 L 2057.01,1086.06 L 2082.24,1065.74 L 2096.26,1058.96 L 2107.48,1053.04 L 2115.89,1046.26 L 2118.69,1039.49 L 2118.69,1025.95 L 2110.28,1017.48 L 2085.05,1026.79 M 2065.42,1033.57 L 2054.21,1040.34 L 2045.79,1046.26 L 2040.19,1053.04 L 2040.19,1060.66 L 2020.56,1064.04 L 2031.78,1064.89 M 2037.38,1061.50 L 2040.19,1053.88 L 2045.79,1046.26 L 2057.01,1039.49 L 2071.03,1035.26 L 2048.60,1044.57 M 2017.76,1058.12 L 2003.74,1057.27 M 2006.54,1058.96 L 2006.54,1065.74 L 2009.35,1071.66 L 2000.93,1078.44 L 1989.72,1091.98 L 1984.11,1105.53 L 1989.72,1112.30 L 2000.93,1119.07 L 1995.33,1126.69 L 1986.92,1132.62 L 1967.29,1139.39 L 1950.47,1146.17 L 1944.86,1152.09 L 1936.45,1158.86 L 1930.84,1165.64 L 1933.64,1172.41 L 1916.82,1179.18 L 1905.61,1185.96 L 1894.39,1191.88 L 1885.98,1198.66 L 1860.75,1205.43 L 1841.12,1212.20 L 1796.26,1225.75 L 1771.03,1232.52 L 1754.21,1239.29 L 1740.19,1246.07 L 1700.93,1252.84 M 1670.09,1251.99 L 1670.09,1254.53 L 1669.16,1255.10 L 1667.29,1256.23 M 1639.25,1259.61 L 1600.00,1266.38 M 1529.91,1263.84 L 1528.35,1264.31 L 1527.10,1264.69 L 1525.86,1265.07 L 1524.61,1265.44 L 1522.43,1266.67 L 1521.50,1267.23 L 1520.25,1267.61 L 1519.00,1267.98 M 1569.16,1239.29 L 1563.55,1232.52 L 1585.98,1225.75 L 1597.20,1218.97 L 1577.57,1228.29 L 1563.55,1224.90 M 1569.16,1222.36 L 1560.75,1229.13 L 1527.10,1235.06 L 1552.34,1231.67 L 1549.53,1238.45 L 1515.89,1244.37 M 1504.67,1232.52 L 1493.46,1238.45 L 1538.32,1229.98 L 1563.55,1226.59 L 1565.42,1225.46 L 1566.36,1224.90 L 1585.98,1233.37 M 1611.21,1221.51 L 1602.80,1217.28 M 1600.00,1218.13 L 1588.79,1224.90 L 1563.55,1231.67 L 1569.16,1238.45 M 1535.51,1237.60 L 1513.08,1241.83 L 1490.65,1238.45 L 1479.44,1235.91 L 1457.01,1233.37 L 1426.17,1230.83 L 1420.56,1227.44 L 1398.13,1226.59 L 1375.70,1233.37 L 1372.90,1235.91 L 1389.72,1229.13 L 1412.15,1223.21 M 1395.33,1231.67 L 1406.54,1224.90 L 1381.31,1231.67 L 1370.09,1238.45 M 1403.74,1233.37 L 1426.17,1231.67 L 1471.03,1231.67 M 1434.58,1233.37 L 1423.36,1240.14 M 1336.45,1230.83 L 1325.23,1227.44 M 1364.49,1217.28 L 1367.29,1217.28 M 1350.47,1213.05 L 1330.84,1219.82 L 1285.98,1229.13 L 1308.41,1225.75 L 1333.64,1224.05 L 1344.86,1219.82 L 1358.88,1225.75 L 1381.31,1226.59 L 1398.13,1235.06 L 1400.93,1238.45 L 1406.54,1235.91 L 1412.15,1240.14 L 1440.19,1242.68 L 1448.60,1240.14 L 1468.22,1238.45 L 1487.85,1243.53 L 1507.48,1245.22 M 1602.80,1238.45 L 1611.21,1237.60 L 1614.02,1229.13 L 1591.59,1228.29 L 1605.61,1218.97 M 1622.43,1212.20 L 1644.86,1218.97 M 1636.45,1221.51 L 1636.45,1218.97 L 1635.20,1218.60 L 1633.96,1218.22 M 1625.23,1212.20 L 1630.84,1224.05 L 1622.43,1230.83 L 1622.43,1237.60 L 1633.64,1239.29 L 1628.04,1240.14 M 1684.11,1220.67 L 1703.74,1222.36 M 1700.93,1218.97 L 1702.49,1219.44 L 1703.74,1219.82 L 1704.36,1220.86 L 1705.61,1221.23 L 1707.79,1222.27 L 1709.35,1223.21 L 1710.59,1223.58 L 1712.15,1224.05 L 1713.71,1224.52 L 1714.95,1224.90 M 1714.95,1219.82 L 1712.15,1213.89 L 1728.97,1207.12 L 1742.99,1205.43 L 1720.56,1212.20 M 1717.76,1212.20 L 1740.19,1213.05 L 1762.62,1202.04 L 1787.85,1195.27 M 1793.46,1191.04 L 1815.89,1190.19 M 1804.67,1191.88 L 1790.65,1198.66 M 1773.83,1194.42 L 1762.62,1191.04 L 1761.37,1190.28 L 1759.81,1189.34 M 1773.83,1189.34 L 1768.22,1196.12 L 1776.64,1198.66 L 1771.03,1205.43 L 1757.01,1213.05 M 1726.17,1213.05 L 1714.95,1213.05 M 1684.11,1209.66 L 1664.49,1216.43 L 1689.72,1210.51 L 1686.92,1221.51 M 1714.95,1217.28 L 1723.36,1210.51 L 1737.38,1203.74 M 1742.99,1193.58 L 1745.79,1193.58 L 1762.62,1194.42 M 1829.91,1191.04 L 1829.91,1184.26 L 1846.73,1177.49 L 1849.22,1175.98 L 1827.10,1184.26 M 1829.91,1191.04 L 1832.71,1183.42 L 1846.73,1176.64 M 1852.34,1169.02 L 1869.16,1168.18 L 1860.75,1178.34 L 1855.14,1170.72 L 1871.96,1163.94 M 1846.73,1158.86 L 1843.93,1152.09 L 1852.34,1145.32 L 1866.36,1140.24 L 1846.73,1152.09 M 1835.51,1152.94 L 1841.12,1147.01 L 1855.14,1140.24 M 1900.00,1145.32 L 1905.61,1143.63 L 1902.80,1150.40 M 1905.61,1150.40 L 1905.61,1142.78 M 1914.02,1142.78 L 1902.80,1149.55 L 1902.80,1156.32 L 1888.79,1162.25 L 1891.59,1154.63 M 1939.25,1153.78 L 1981.31,1125.85 L 2000.93,1116.53 L 2023.36,1113.15 L 2042.99,1099.60 M 2037.38,1088.60 L 2028.97,1082.67 L 2003.74,1084.36 M 2023.36,1082.67 L 2014.95,1088.60 L 2031.78,1086.06 M 2026.17,1077.59 L 2009.35,1080.13 L 2031.78,1077.59 L 2045.79,1085.21 L 2071.03,1075.90 L 2096.26,1062.35 M 2017.76,1058.96 L 2003.74,1057.27 L 2003.74,1064.89 L 2006.54,1072.51 L 1998.13,1079.28 L 1992.52,1086.90 L 1989.72,1092.83 L 1984.11,1099.60 L 1984.11,1106.37 L 1986.92,1113.15 L 1998.13,1119.92 L 1986.92,1127.54 L 1981.31,1133.47 L 1964.49,1140.24 L 1950.47,1147.01 L 1939.25,1160.56 L 1933.64,1166.48 L 1936.45,1173.26 L 1916.82,1179.18 L 1902.80,1185.96 L 1891.59,1192.73 L 1885.98,1198.66 L 1860.75,1205.43 L 1841.12,1213.05 L 1815.89,1219.82 L 1796.26,1226.59 L 1771.03,1233.37 L 1757.01,1240.14 L 1742.99,1246.07 M 1939.25,1240.14 L 1961.68,1256.23 M 1967.29,1225.75 L 1944.86,1213.89 M 1944.86,1222.36 L 1956.07,1229.13 L 1958.88,1235.91 L 1961.68,1245.22 L 1978.50,1254.53 L 2000.93,1270.62 M 1958.88,1232.52 L 1936.45,1224.05 M 1933.64,1224.05 L 1933.64,1230.83 L 1936.45,1237.60 L 1939.25,1243.53 L 1950.47,1249.45 L 1961.68,1263.00 L 1961.68,1269.77 L 1958.88,1277.39 L 1958.88,1297.71 L 1961.68,1303.64 L 1961.68,1310.41 L 1956.07,1318.03 L 1939.25,1324.80 L 1928.04,1331.57 L 1894.39,1345.12 L 1883.18,1352.74 L 1835.51,1373.06 L 1807.48,1386.60 L 1776.64,1399.30 L 1759.81,1406.92 L 1745.79,1413.70 L 1734.58,1421.31 L 1720.56,1428.09 L 1709.35,1434.86 L 1698.13,1440.79 L 1689.72,1447.56 L 1658.88,1458.57 L 1653.27,1466.19 L 1642.06,1472.96 L 1628.04,1479.73 L 1616.82,1486.50 L 1605.61,1494.12 L 1594.39,1500.90 L 1585.98,1507.67 L 1569.16,1515.29 L 1552.34,1522.06 L 1541.12,1528.83 L 1524.30,1535.61 L 1507.48,1543.23 L 1499.07,1550.00 L 1515.89,1538.99 L 1538.32,1527.14 L 1560.75,1516.14 L 1583.18,1503.44 L 1628.04,1476.34 L 1678.50,1452.64 L 1723.36,1427.24 L 1771.03,1401.84 L 1790.65,1392.53 L 1813.08,1379.83 L 1835.51,1368.82 L 1857.94,1360.36 L 1922.43,1329.88 L 1944.86,1320.57 L 1958.88,1322.26 L 1958.88,1329.03 L 1956.07,1335.81 L 1950.47,1342.58 L 1947.66,1350.20 L 1947.66,1357.82 L 1950.47,1364.59 L 1958.88,1371.36 L 1981.31,1378.14 L 1998.13,1384.06 M 1986.92,1398.46 L 2009.35,1394.22 L 2031.78,1384.91 L 2045.79,1378.14 L 2037.38,1384.91 L 2026.17,1391.68 L 1995.33,1398.46 L 1989.72,1405.23 M 2003.74,1384.91 L 1981.31,1378.98 L 1961.68,1367.98 M 2048.60,1372.21 L 2049.84,1371.83 L 2051.09,1371.46 L 2052.96,1371.83 L 2054.21,1372.21 L 2057.01,1372.21 M 2054.21,1372.21 L 2048.60,1378.98 L 2031.78,1385.76 L 2009.35,1393.38 L 1995.33,1400.15 L 1995.33,1406.92 L 2012.15,1405.23 L 2037.38,1398.46 L 2059.81,1382.37 L 2062.62,1378.98 L 2054.21,1385.76 L 2048.60,1392.53 L 2028.97,1400.15 L 2006.54,1406.92 M 1992.52,1432.32 L 1984.11,1439.09 L 1970.09,1446.71 L 1956.07,1453.49 L 1944.86,1459.41 L 1925.23,1466.19 L 1902.80,1472.96 L 1883.18,1480.58 L 1860.75,1488.20 L 1835.51,1494.97 L 1813.08,1501.74 L 1790.65,1509.36 L 1717.76,1528.83 L 1672.90,1542.38 L 1653.27,1547.46 L 1672.90,1540.69 L 1695.33,1533.91 L 1740.19,1518.68 L 1765.42,1512.75 L 1841.12,1492.43 L 1863.55,1485.66 L 1883.18,1478.88 L 1930.84,1466.19 L 1953.27,1455.18 L 1975.70,1445.02 L 1998.13,1435.71 L 1995.33,1441.63 L 1978.50,1448.41 L 1964.49,1455.18 L 1953.27,1461.95 L 1933.64,1469.57 L 1911.21,1476.34 L 1869.16,1490.74 L 1846.73,1496.66 L 1824.30,1503.44 L 1776.64,1516.14 L 1731.78,1529.68 L 1712.15,1536.45 L 1689.72,1543.23 L 1675.70,1546.61 L 1698.13,1538.99 L 1717.76,1533.07 L 1742.99,1526.29 L 1765.42,1519.52 L 1787.85,1514.44 L 1829.91,1500.05 L 1855.14,1493.28 L 1874.77,1486.50 L 1942.06,1466.19 L 1964.49,1454.33 L 1986.92,1443.33 M 2059.81,1336.65 L 2082.24,1338.35 L 2107.48,1334.96 M 2118.69,1323.11 L 2118.69,1329.88 L 2121.50,1336.65 L 2149.53,1337.50 L 2171.96,1340.04 M 2171.96,1335.81 L 2170.72,1335.05 L 2169.16,1334.11 L 2169.16,1332.42 L 2167.91,1332.04 L 2166.67,1331.67 L 2160.75,1329.88 M 2177.57,1323.11 L 2197.20,1329.88 M 2174.77,1342.58 L 2163.55,1334.96 L 2152.34,1328.19 L 2138.32,1321.41 M 2093.46,1318.03 L 2057.01,1324.80 L 2057.01,1331.57 L 2059.81,1339.19 L 2073.83,1335.81 L 2079.44,1334.11 L 2093.46,1340.04 M 1930.84,1191.04 L 1931.78,1189.91 L 1933.64,1187.65 L 1936.45,1184.26 L 1936.45,1182.57 M 1953.27,1178.34 L 1944.86,1184.26 L 1936.45,1191.04 L 1933.64,1197.81 L 1930.84,1203.74 L 1936.45,1210.51 L 1944.86,1217.28 L 1958.88,1224.05 L 1967.29,1230.83 L 1972.90,1237.60 L 1975.70,1243.53 L 1978.50,1250.30 L 1986.92,1257.07 L 1992.52,1263.84 L 2000.93,1270.62 L 2006.54,1277.39 L 2009.35,1284.16 L 2014.95,1290.94 L 2031.78,1304.48 L 2037.38,1310.41 L 2040.19,1317.18 L 2068.22,1322.26 L 2090.65,1318.87 L 2115.89,1318.87 L 2138.32,1319.72 L 2157.94,1323.11 L 2180.37,1326.49 L 2200.00,1334.11 M 1978.50,1250.30 L 1975.70,1243.53 L 1970.09,1236.75 L 1970.09,1229.98 L 1964.49,1223.21 L 1950.47,1216.43 L 1930.84,1202.89 L 1933.64,1196.96 L 1930.84,1190.19 L 1936.45,1183.42 L 1930.84,1173.26 L 1905.61,1180.88 M 1914.02,1192.73 L 1911.21,1199.50 L 1911.21,1206.27 L 1914.02,1212.20 L 1914.02,1218.97 L 1911.21,1224.90 L 1916.82,1231.67 L 1916.82,1237.60 L 1922.43,1243.53 L 1930.84,1250.30 L 1922.43,1257.07 L 1933.64,1270.62 L 1944.86,1285.86 L 1947.66,1292.63 L 1950.47,1300.25 M 1591.59,1183.42 L 1524.30,1185.96 L 1501.87,1187.65 L 1476.64,1188.50 L 1451.40,1187.65 L 1426.17,1187.65 L 1400.93,1185.96 L 1378.50,1183.42 L 1384.11,1185.11 L 1406.54,1182.57 L 1428.97,1183.42 L 1451.40,1185.11 L 1473.83,1185.11 L 1496.26,1184.26 L 1518.69,1182.57 L 1541.12,1182.57 L 1560.75,1179.18 L 1583.18,1172.41 L 1605.61,1169.02 L 1585.98,1171.56 L 1563.55,1178.34 M 1571.96,1176.64 L 1611.21,1169.87 M 1616.82,1158.86 L 1619.63,1158.86 L 1614.02,1158.02 M 1608.41,1154.63 L 1594.39,1156.32 M 1608.41,1151.25 L 1585.98,1152.09 L 1563.55,1150.40 L 1538.32,1152.09 L 1515.89,1151.25 L 1468.22,1152.94 L 1420.56,1151.25 L 1375.70,1152.94 M 1378.50,1158.86 L 1378.50,1160.56 L 1372.90,1162.25 L 1367.29,1163.10 M 1302.80,1167.33 L 1325.23,1163.10 L 1347.66,1163.10 L 1370.09,1161.40 L 1392.52,1158.86 L 1437.38,1157.17 L 1457.01,1157.17 L 1479.44,1158.86 L 1504.67,1157.17 L 1527.10,1157.17 L 1549.53,1155.48 L 1574.77,1154.63 L 1597.20,1154.63 L 1619.63,1158.86 L 1644.86,1158.86 L 1667.29,1159.71 L 1689.72,1162.25 L 1689.72,1160.56 L 1639.25,1153.78 L 1602.80,1147.01 M 1574.77,1142.78 L 1569.16,1141.93 L 1560.75,1141.09 L 1555.14,1141.09 M 1538.32,1138.55 L 1518.69,1141.09 L 1541.12,1138.55 L 1563.55,1139.39 L 1588.79,1142.78 L 1614.02,1145.32 L 1633.64,1149.55 L 1653.27,1152.94 L 1695.33,1158.02 M 1563.55,1129.23 L 1580.37,1126.69 L 1557.94,1125.00 M 1569.16,1122.46 L 1569.16,1129.23 L 1580.37,1124.15 M 1611.21,1105.53 L 1588.79,1101.29 L 1563.55,1100.45 L 1541.12,1101.29 L 1515.89,1104.68 L 1493.46,1109.76 L 1468.22,1108.07 L 1442.99,1102.99 L 1398.13,1097.91 L 1375.70,1097.91 M 1384.11,1097.06 L 1353.27,1102.99 L 1370.09,1109.76 L 1398.13,1116.53 M 1389.72,1116.53 L 1367.29,1112.30 L 1344.86,1104.68 M 1361.68,1097.06 L 1384.11,1094.52 L 1409.35,1093.68 L 1431.78,1096.22 L 1457.01,1101.29 M 1457.01,1109.76 L 1417.76,1102.14 M 1423.36,1094.52 L 1442.99,1102.14 L 1485.05,1105.53 L 1510.28,1102.14 L 1532.71,1097.06 L 1555.14,1095.37 L 1577.57,1095.37 L 1600.00,1096.22 M 1608.41,1099.60 L 1605.61,1099.60 L 1619.63,1092.83 L 1605.61,1108.91 L 1583.18,1113.15 L 1605.61,1107.22 L 1625.23,1100.45 L 1633.64,1093.68 M 1616.82,1090.29 L 1602.80,1097.91 L 1585.98,1100.45 L 1571.96,1107.22 L 1566.36,1108.91 M 1546.73,1095.37 L 1513.08,1102.14 M 1521.50,1101.29 L 1493.46,1108.07 M 1423.36,1140.24 L 1400.93,1144.47 L 1378.50,1147.86 L 1333.64,1158.02 L 1314.02,1159.71 L 1314.02,1167.33 L 1311.21,1160.56 L 1361.68,1154.63 L 1420.56,1141.93 M 1291.59,1198.66 L 1300.00,1206.27 M 1300.00,1203.74 L 1298.75,1202.61 L 1297.20,1201.20 M 1271.96,1208.81 L 1274.77,1201.20 L 1272.59,1197.24 L 1271.96,1196.12 L 1249.53,1194.42 L 1249.53,1192.73 L 1255.14,1199.50 L 1252.34,1206.27 L 1291.59,1205.43 L 1288.79,1212.20 L 1297.20,1207.12 L 1322.43,1205.43 M 1266.36,1209.66 L 1274.77,1202.89 L 1266.36,1195.27 M 1255.14,1196.12 L 1252.34,1196.12 L 1255.14,1202.89 M 1215.89,1191.04 L 1193.46,1180.88 M 1199.07,1182.57 L 1227.10,1196.12 M 1210.28,1201.20 L 1187.85,1193.58 M 1190.65,1192.73 L 1210.28,1199.50 L 1227.10,1207.12 L 1229.91,1211.35 L 1252.34,1214.74 L 1271.96,1218.13 L 1297.20,1218.97 L 1319.63,1212.20 L 1344.86,1211.35 L 1308.41,1216.43 L 1291.59,1224.05 L 1283.18,1225.75 L 1308.41,1221.51 L 1330.84,1218.97 L 1361.68,1225.75 L 1375.70,1230.83 L 1367.29,1237.60 L 1372.90,1229.98 M 1218.69,1196.12 L 1193.46,1182.57 L 1173.83,1174.10 L 1176.64,1180.88 L 1165.42,1187.65 M 1165.42,1191.88 L 1173.83,1199.50 L 1187.85,1191.88 L 1207.48,1199.50 M 1187.85,1202.04 L 1165.42,1200.35 M 1154.21,1202.04 L 1173.83,1208.81 L 1185.05,1217.28 L 1207.48,1223.21 L 1232.71,1228.29 L 1255.14,1238.45 L 1277.57,1246.07 L 1300.00,1250.30 L 1322.43,1256.23 L 1336.45,1256.23 L 1381.31,1263.00 L 1471.03,1266.38 L 1493.46,1268.08 L 1518.69,1267.23 L 1541.12,1264.69 L 1560.75,1264.69 L 1583.18,1263.84 L 1605.61,1264.69 L 1628.04,1262.15 L 1650.47,1260.46 L 1672.90,1256.23 L 1692.52,1256.23 L 1712.15,1250.30 L 1731.78,1246.07 L 1754.21,1234.21 L 1776.64,1229.98 L 1821.50,1214.74 L 1843.93,1207.97 L 1869.16,1201.20 L 1894.39,1190.19 L 1922.43,1191.04 L 1919.63,1197.81 L 1919.63,1204.58 L 1925.23,1219.82 L 1925.23,1240.14 L 1936.45,1253.69 L 1928.04,1260.46 L 1928.04,1267.23 L 1933.64,1272.31 L 1939.25,1278.24 L 1942.06,1285.01 L 1944.86,1290.94 L 1944.86,1298.56 M 1928.04,1128.39 L 1905.61,1127.54 M 1914.02,1122.46 L 1914.02,1129.23 L 1925.23,1125.85 L 1933.64,1132.62 L 1933.64,1138.55 M 1984.11,1114.84 L 1982.87,1114.46 L 1981.62,1114.09 L 1980.69,1112.58 L 1978.50,1110.61 L 1964.49,1108.07 L 1964.49,1104.68 L 1963.55,1105.25 L 1961.68,1106.37 M 1964.49,1094.52 L 1965.73,1094.15 L 1967.29,1093.68 L 1968.85,1092.73 L 1970.40,1091.79 L 1971.96,1090.85 L 1972.90,1090.29 L 1970.09,1085.21 L 1970.09,1081.82 L 1971.34,1081.45 L 1972.90,1080.98 L 1974.14,1080.22 L 1975.70,1079.28 M 1981.31,1031.03 L 1986.92,1031.03 M 1978.50,1026.79 L 1981.31,1024.25 L 1983.18,1023.69 L 1984.42,1023.31 L 1985.67,1022.94 L 1986.92,1022.56 L 1986.92,1020.87 L 1989.10,1020.21 M 1978.50,992.93 L 1958.88,986.16 M 1928.04,959.06 L 1922.43,952.29 L 1919.63,946.36 L 1916.82,939.59 L 1916.82,926.05 L 1908.41,918.43 L 1916.82,911.65 L 1897.20,904.88 M 1885.98,909.96 L 1871.96,916.73 M 1860.75,919.27 L 1838.32,921.81 L 1815.89,920.97 M 1866.36,917.58 L 1880.37,910.81 L 1849.53,909.11 L 1824.30,913.35 L 1801.87,911.65 L 1776.64,904.88 M 1759.81,906.57 L 1751.40,906.57 L 1742.99,901.49 L 1768.22,908.27 L 1793.46,909.96 L 1801.87,903.19 L 1821.50,898.95 L 1819.94,898.01 L 1818.69,897.26 L 1843.93,898.95 L 1866.36,898.11 L 1855.14,904.88 M 1852.34,904.03 L 1835.51,906.57 L 1834.89,907.61 L 1833.64,907.98 M 1846.73,915.89 L 1874.77,909.11 M 1911.21,914.19 L 1919.63,917.58 M 1919.63,914.19 L 1919.63,922.66 M 1916.82,910.81 L 1916.82,917.58 L 1925.23,923.51 L 1916.82,930.28 L 1922.43,937.05 L 1916.82,942.98 L 1928.04,956.52 L 1939.25,962.45 L 1939.25,969.22 L 1947.66,976.00 L 1947.66,983.62 L 1950.47,989.54 L 1972.90,997.16 L 1989.72,1017.48 L 1981.31,1024.25 L 1975.70,1031.03 L 1989.72,1037.80 L 1992.52,1044.57 L 1992.52,1051.34 L 1995.33,1057.27 L 1989.72,1063.20 L 1986.92,1069.97 L 1986.92,1075.90 L 1975.70,1082.67 L 1972.90,1088.60 L 1964.49,1097.91 L 1958.88,1105.53 L 1964.49,1113.15 L 1956.07,1119.07 L 1954.83,1119.83 L 1953.27,1120.77 M 1824.30,1020.87 L 1801.87,1020.87 L 1779.44,1016.63 L 1757.01,1014.94 M 1759.81,1014.09 L 1754.21,1020.87 M 1745.79,1025.95 L 1759.81,1019.17 L 1751.40,1023.41 L 1731.78,1027.64 L 1712.15,1026.79 L 1689.72,1020.02 L 1664.49,1017.48 L 1639.25,1020.87 L 1630.84,1025.95 L 1616.82,1024.25 L 1670.09,1016.63 M 1681.31,1017.48 L 1695.33,1024.25 M 1670.09,1032.72 L 1692.52,1032.72 L 1717.76,1031.87 L 1740.19,1032.72 L 1762.62,1031.03 M 1807.48,1021.71 L 1799.07,1020.87 L 1793.46,1020.02 L 1790.65,1020.02 L 1773.83,1017.48 L 1772.90,1016.92 L 1771.34,1015.97 L 1769.78,1015.03 L 1768.22,1014.09 M 1818.69,1010.71 L 1841.12,1017.48 L 1827.10,1025.10 L 1810.28,1031.87 L 1827.10,1026.79 L 1796.26,1026.79 L 1751.40,1029.33 L 1779.44,1028.49 L 1801.87,1025.95 M 1821.50,999.70 L 1799.07,995.47 L 1776.64,992.08 L 1754.21,991.24 L 1728.97,991.24 M 1714.95,990.39 L 1672.90,997.16 L 1636.45,1003.93 L 1638.63,1003.28 L 1703.74,991.24 L 1728.97,987.85 L 1754.21,986.16 L 1779.44,986.16 L 1804.67,985.31 L 1824.30,986.16 L 1843.93,982.77 L 1888.79,986.16 M 1900.00,981.92 L 1860.75,975.15 M 1815.89,980.23 L 1782.24,976.00 L 1759.81,981.08 L 1742.99,978.54 M 1754.21,975.15 L 1734.58,976.84 L 1712.15,981.08 L 1686.92,980.23 L 1661.68,981.08 L 1642.06,984.46 L 1640.81,984.84 L 1639.56,985.21 L 1638.01,983.80 L 1636.45,981.92 L 1614.02,993.77 L 1628.04,987.85 L 1636.45,981.08 M 1580.37,991.24 L 1557.94,984.46 M 1563.55,987.00 L 1571.96,994.62 L 1577.57,995.47 M 1591.59,993.77 L 1571.96,987.00 M 1622.43,1019.17 L 1644.86,1014.94 L 1670.09,1011.55 L 1692.52,1009.01 L 1737.38,1005.63 L 1759.81,1006.47 L 1785.05,1008.17 L 1807.48,1009.01 L 1827.10,1011.55 L 1849.53,1014.94 M 1815.89,1003.09 L 1793.46,1001.39 L 1773.83,998.01 L 1731.78,999.70 L 1709.35,998.85 M 1695.33,1008.17 L 1647.66,1014.94 L 1647.66,1021.71 M 1644.86,1024.25 L 1670.09,1025.95 L 1692.52,1028.49 M 1714.95,1012.40 L 1726.17,1011.55 M 1776.64,994.62 L 1782.24,995.47 L 1783.49,995.84 L 1785.05,996.31 L 1786.60,997.26 L 1787.85,998.01 L 1787.85,1000.55 L 1793.46,1002.24 L 1801.87,1003.09 M 1832.71,997.16 L 1793.46,990.39 M 1790.65,976.00 L 1796.26,976.00 L 1821.50,980.23 L 1829.91,977.69 M 1813.08,970.92 L 1838.32,981.92 L 1832.71,989.54 M 1905.61,981.92 L 1880.37,976.84 L 1857.94,973.46 L 1832.71,972.61 L 1807.48,970.92 L 1785.05,972.61 L 1762.62,970.92 M 1723.36,977.69 L 1712.15,976.00 M 1720.56,918.43 L 1698.13,912.50 L 1723.36,918.43 L 1745.79,920.97 L 1768.22,922.66 L 1790.65,920.97 L 1810.28,918.43 L 1835.51,916.73 L 1860.75,914.19 L 1883.18,909.11 L 1863.55,913.35 M 1799.07,916.73 L 1773.83,913.35 L 1737.38,912.50 L 1714.95,902.34 L 1692.52,889.64 M 1698.13,888.79 L 1714.95,902.34 L 1742.99,914.19 L 1765.42,924.35 L 1785.05,926.05 L 1807.48,925.20 L 1829.91,926.05 L 1852.34,926.05 L 1874.77,921.81 L 1897.20,912.50 L 1894.39,904.03 L 1897.20,910.81 L 1883.18,917.58 L 1857.94,925.20 M 1773.83,915.04 L 1768.22,914.19 L 1748.60,907.42 L 1745.79,900.65 L 1754.21,900.65 M 1748.60,898.95 L 1748.60,906.57 L 1762.62,912.50 L 1779.44,912.50 M 1742.99,911.65 L 1726.17,904.03 L 1717.76,897.26 L 1700.93,891.33 L 1689.72,893.87 M 1670.09,887.10 L 1669.78,886.07 L 1668.54,885.31 L 1667.29,884.56 L 1666.04,884.19 L 1664.49,883.72 L 1665.73,883.34 L 1666.98,882.96 L 1665.73,882.40 L 1664.49,882.02 M 1642.06,882.87 L 1636.45,875.25 L 1635.20,874.50 L 1633.96,873.74 M 1625.23,877.79 L 1636.45,875.25 L 1614.02,880.33 L 1555.14,880.33 L 1529.91,887.10 L 1507.48,890.49 L 1485.05,892.18 L 1462.62,893.03 L 1437.38,889.64 L 1412.15,890.49 L 1389.72,893.03 L 1367.29,888.79 L 1342.06,887.10 L 1330.84,882.87 L 1311.21,882.02 L 1288.79,880.33 L 1269.16,880.33 L 1246.73,878.64 L 1224.30,878.64 L 1201.87,880.33 L 1179.44,885.41 L 1157.01,887.95 L 1134.58,889.64 L 1114.95,888.79 L 1095.33,888.79 L 1075.70,895.57 L 1070.09,898.95 L 1058.88,907.42 M 1070.09,909.11 L 1071.03,910.24 L 1072.27,910.62 L 1073.21,910.99 L 1075.08,912.12 L 1075.70,913.35 L 1078.50,913.35 L 1072.90,914.19 M 1075.70,912.50 L 1081.31,914.19 L 1056.07,918.43 L 1033.64,929.43 M 1042.06,936.21 L 1042.06,937.90 L 1040.81,938.27 L 1039.56,938.65 M 1123.36,980.23 L 1092.52,987.00 L 1081.31,992.93 L 1075.70,999.70 L 1086.92,987.85 L 1109.35,982.77 L 1154.21,977.69 L 1179.44,977.69 L 1151.40,986.16 L 1131.78,983.62 M 1137.38,986.16 L 1182.24,981.08 L 1204.67,982.77 L 1224.30,982.77 L 1243.93,983.62 L 1266.36,982.77 L 1285.98,987.00 L 1305.61,988.70 L 1330.84,990.39 L 1350.47,994.62 M 1342.06,991.24 L 1364.49,998.01 L 1350.47,998.01 L 1367.29,1001.39 M 1378.50,994.62 L 1375.70,990.39 L 1353.27,989.54 M 1375.70,990.39 L 1384.11,998.01 M 1344.86,1019.17 L 1300.00,1014.09 L 1277.57,1012.40 L 1255.14,1011.55 L 1229.91,1011.55 L 1207.48,1014.94 L 1185.05,1016.63 L 1159.81,1020.02 L 1137.38,1022.56 L 1112.15,1027.64 M 1137.38,1030.18 L 1151.40,1035.26 L 1173.83,1033.57 L 1218.69,1036.95 L 1238.32,1037.80 L 1283.18,1037.80 M 1308.41,1021.71 L 1314.02,1022.56 L 1322.43,1023.41 L 1330.84,1023.41 L 1336.45,1024.25 L 1338.01,1024.72 L 1340.19,1025.38 L 1341.43,1025.76 M 1322.43,1020.87 L 1302.80,1018.33 L 1283.18,1025.95 L 1263.55,1031.03 L 1241.12,1030.18 L 1221.50,1024.25 M 1221.50,1027.64 L 1213.08,1020.87 M 1201.87,1019.17 L 1171.03,1025.95 L 1171.03,1032.72 L 1190.65,1034.41 M 1176.64,1036.11 L 1159.81,1030.18 L 1190.65,1023.41 L 1192.21,1022.94 L 1193.46,1022.56 L 1171.03,1025.95 L 1145.79,1031.03 M 1193.46,1014.94 L 1157.01,1014.94 L 1176.64,1008.17 L 1199.07,1005.63 L 1246.73,1003.93 L 1271.96,1003.93 L 1294.39,1006.47 L 1316.82,1007.32 L 1342.06,1012.40 L 1364.49,1019.17 M 1300.00,1019.17 L 1288.79,1025.10 M 1297.20,1016.63 L 1344.86,1023.41 L 1344.86,1030.18 L 1302.80,1031.03 L 1305.61,1028.49 L 1328.04,1031.87 M 1358.88,1018.33 L 1336.45,1011.55 L 1305.61,1004.78 M 1336.45,997.16 L 1314.02,997.16 L 1291.59,996.31 L 1269.16,997.16 L 1224.30,995.47 L 1201.87,995.47 L 1179.44,994.62 L 1157.01,995.47 L 1109.35,990.39 M 1117.76,990.39 L 1119.00,990.76 L 1120.25,991.14 L 1131.78,992.93 L 1148.60,994.62 M 1128.97,994.62 L 1106.54,993.77 L 1086.92,998.01 L 1109.35,993.77 M 1190.65,999.70 L 1148.60,1006.47 L 1142.99,1008.17 L 1162.62,1003.93 L 1207.48,1000.55 L 1229.91,999.70 M 1201.87,1003.93 L 1171.03,1010.71 L 1140.19,1020.02 L 1114.95,1026.79 L 1134.58,1031.87 L 1157.01,1038.65 M 985.98,1047.96 L 991.59,1054.73 M 924.30,1052.19 L 943.93,1063.20 L 963.55,1082.67 M 971.96,1090.29 L 985.98,1097.06 M 994.39,1097.06 L 983.18,1091.98 L 977.57,1091.14 L 971.96,1091.14 L 991.59,1093.68 M 1008.41,1087.75 L 1042.06,1104.68 L 1056.07,1116.53 M 1047.66,1100.45 L 1047.66,1097.91 L 1046.73,1097.34 L 1045.17,1096.40 L 1043.30,1095.27 L 1041.43,1094.15 L 1039.88,1093.20 L 1038.32,1092.26 L 1036.76,1091.32 M 988.79,1108.91 L 1011.21,1119.07 L 1042.06,1120.77 L 1064.49,1138.55 M 1084.11,1135.16 L 1085.36,1135.54 L 1086.92,1136.01 L 1088.47,1137.42 L 1089.72,1138.55 L 1092.52,1141.93 L 1093.46,1142.50 L 1095.33,1143.63 L 1098.13,1143.63 M 1103.74,1140.24 L 1100.93,1133.47 M 1100.93,1130.93 L 1106.54,1134.31 L 1103.74,1140.24 L 1103.74,1152.94 L 1120.56,1159.71 L 1109.35,1165.64 L 1110.59,1166.01 L 1112.15,1166.48 M 1134.58,1164.79 L 1112.15,1156.32 M 1131.78,1152.94 L 1134.58,1159.71 M 1140.19,1156.32 L 1157.01,1162.25 L 1173.83,1169.02 L 1168.22,1174.95 L 1159.81,1181.72 L 1158.57,1181.35 L 1157.01,1180.88 M 1134.58,1192.73 L 1148.60,1199.50 L 1145.79,1206.27 L 1176.64,1212.20 L 1190.65,1219.82 L 1238.32,1232.52 L 1252.34,1239.29 L 1271.96,1246.91 L 1302.80,1253.69 L 1322.43,1260.46 L 1353.27,1260.46 M 1123.36,1257.92 L 1100.93,1263.00 M 1117.76,1255.38 L 1123.36,1258.76 L 1114.95,1265.54 L 1114.95,1273.16 L 1117.76,1280.78 L 1114.95,1287.55 L 1112.15,1295.17 L 1112.15,1301.94 L 1109.35,1308.72 L 1114.95,1315.49 L 1120.56,1321.41 M 1053.27,1317.18 L 1075.70,1328.19 L 1100.93,1337.50 L 1145.79,1361.21 L 1168.22,1371.36 L 1187.85,1383.22 L 1210.28,1395.07 L 1229.91,1412.00 L 1274.77,1444.17 L 1297.20,1456.03 L 1319.63,1468.73 L 1342.06,1482.27 L 1361.68,1500.90 L 1384.11,1516.14 L 1409.35,1531.37 L 1431.78,1547.46 M 1128.97,1478.04 L 1106.54,1470.42 L 1086.92,1464.49 L 1064.49,1456.03 L 1025.23,1442.48 L 985.98,1427.24 L 963.55,1419.62 L 941.12,1409.46 L 918.69,1401.00 M 904.67,1394.22 L 913.08,1397.61 L 921.50,1405.23 L 938.32,1412.85 L 957.94,1420.47 L 980.37,1427.24 L 997.20,1434.86 L 1019.63,1442.48 L 1036.45,1449.25 L 1061.68,1456.03 L 1081.31,1462.80 L 1103.74,1469.57 L 1142.99,1483.12 M 1103.74,1467.88 L 1081.31,1461.11 L 1061.68,1454.33 L 1039.25,1447.56 L 1016.82,1439.94 L 994.39,1433.17 L 971.96,1425.55 L 946.73,1418.77 L 924.30,1411.16 L 901.87,1401.84 L 879.44,1396.76 L 854.21,1391.68 L 831.78,1378.14 M 820.56,1359.51 L 823.36,1366.28 L 826.17,1373.90 L 834.58,1381.52 L 845.79,1389.14 L 862.62,1395.92 L 893.46,1402.69 L 915.89,1408.62 L 932.71,1415.39 L 971.96,1428.93 L 994.39,1435.71 L 1014.02,1442.48 L 1030.84,1449.25 L 1050.47,1456.03 L 1072.90,1462.80 L 1092.52,1469.57 M 1137.38,1478.88 L 1112.15,1472.96 L 1089.72,1466.19 L 1070.09,1458.57 L 1028.04,1444.17 L 1011.21,1436.55 L 966.36,1421.31 L 913.08,1400.15 L 901.87,1393.38 M 744.86,1325.65 L 722.43,1334.11 L 714.02,1335.81 L 733.64,1329.03 L 739.25,1322.26 L 719.63,1326.49 L 700.00,1334.96 L 716.82,1328.19 L 744.86,1322.26 M 1047.66,1290.09 L 1044.86,1286.70 M 1056.07,1260.46 L 1061.68,1253.69 L 1086.92,1233.37 L 1109.35,1219.82 L 1114.95,1217.28 L 1089.72,1230.83 L 1067.29,1247.76 M 1053.27,1240.99 L 1061.68,1228.29 L 1050.47,1235.06 M 1053.27,1233.37 L 1067.29,1226.59 M 1084.11,1223.21 L 1081.31,1229.98 L 1070.09,1236.75 L 1056.07,1243.53 L 1053.27,1250.30 L 1047.66,1257.92 L 1047.66,1270.62 L 1058.88,1276.54 L 1081.31,1263.84 L 1100.93,1246.91 M 1117.76,1218.13 L 1120.56,1224.05 L 1120.56,1230.83 L 1117.76,1237.60 L 1095.33,1251.15 L 1078.50,1264.69 L 1067.29,1271.46 L 1056.07,1279.08 L 1053.27,1286.70 L 1044.86,1290.09 L 1050.47,1296.86 L 1047.66,1303.64 L 1053.27,1317.18 L 1070.09,1323.95 L 1084.11,1330.73 L 1100.93,1337.50 L 1114.95,1344.27 L 1123.36,1351.89 L 1137.38,1357.82 L 1154.21,1363.75 L 1165.42,1370.52 L 1179.44,1377.29 L 1190.65,1384.06 L 1204.67,1389.99 L 1221.50,1403.54 L 1227.10,1410.31 L 1238.32,1417.93 L 1246.73,1424.70 L 1260.75,1431.47 L 1277.57,1445.02 L 1288.79,1451.79 L 1302.80,1458.57 L 1316.82,1466.19 L 1333.64,1473.80 L 1347.66,1480.58 L 1364.49,1494.12 L 1370.09,1500.90 L 1381.31,1507.67 L 1386.92,1514.44 L 1398.13,1522.06 L 1403.74,1527.99 L 1414.95,1535.61 L 1420.56,1542.38 L 1428.97,1549.15 M 1168.22,1213.89 L 1148.60,1210.51 M 1162.62,1204.58 L 1140.19,1193.58 M 1126.17,1201.20 L 1131.78,1207.97 L 1131.78,1214.74 L 1137.38,1228.29 L 1137.38,1235.06 L 1131.78,1241.83 L 1120.56,1248.61 L 1106.54,1255.38 L 1103.74,1261.30 L 1117.76,1246.91 M 1058.88,1255.38 L 1064.49,1248.61 L 1072.90,1241.83 L 1084.11,1235.06 L 1092.52,1228.29 L 1100.93,1222.36 L 1114.95,1215.59 M 1103.74,1171.56 L 1081.31,1154.63 M 1134.58,1151.25 L 1157.01,1159.71 L 1171.03,1158.02 L 1171.03,1167.33 M 1148.60,1174.95 L 1137.38,1168.18 L 1137.38,1163.10 L 1123.36,1163.10 L 1120.56,1156.32 L 1114.95,1148.71 L 1112.15,1141.93 L 1114.95,1135.16 L 1106.54,1127.54 M 985.98,1055.58 L 983.18,1048.80 L 963.55,1051.34 L 943.93,1049.65 L 921.50,1038.65 M 918.69,1052.19 L 932.71,1058.12 L 943.93,1064.89 L 952.34,1071.66 L 963.55,1078.44 L 969.16,1085.21 L 980.37,1092.83 L 985.98,1100.45 L 994.39,1107.22 L 997.20,1113.99 L 1008.41,1119.92 M 910.28,1024.25 L 885.05,1007.32 M 876.64,970.92 L 876.64,967.53 M 873.83,970.92 L 873.83,979.38 M 862.62,953.98 L 873.83,956.52 L 871.03,963.30 L 859.81,970.07 L 862.62,976.84 L 876.64,983.62 L 882.24,990.39 L 882.24,1003.93 L 887.85,1011.55 L 901.87,1017.48 L 904.67,1024.25 L 915.89,1030.18 L 913.08,1036.95 L 915.89,1042.88 L 946.73,1055.58 L 974.77,1057.27 L 997.20,1070.82 M 871.03,953.14 L 873.83,960.76 L 862.62,967.53 L 862.62,974.30 L 871.03,981.08 L 882.24,987.00 L 885.05,993.77 L 882.24,1001.39 L 882.24,1007.32 L 896.26,1014.09 L 901.87,1020.87 L 915.89,1027.64 L 921.50,1041.19 L 932.71,1047.96 L 952.34,1054.73 L 974.77,1056.42 L 997.20,1064.04 L 1002.80,1071.66 L 1011.21,1078.44 L 1014.02,1086.06 L 1019.63,1091.98 L 1030.84,1098.75 L 1039.25,1104.68 L 1042.06,1111.45 L 1044.86,1117.38 L 1047.66,1124.15 L 1061.68,1130.93 L 1064.49,1137.70 L 1075.70,1151.25 L 1084.11,1157.17 L 1098.13,1163.94 L 1103.74,1170.72 L 1114.95,1177.49 L 1123.36,1197.81 L 1114.95,1204.58 L 1103.74,1212.20 L 1084.11,1219.82 L 1058.88,1225.75 L 1039.25,1232.52 L 1005.61,1246.07 L 985.98,1252.84 L 974.77,1259.61 L 946.73,1273.16 L 935.51,1279.93 L 915.89,1287.55 L 907.48,1293.48 L 913.08,1290.09 L 935.51,1277.39 L 957.94,1266.38 L 1002.80,1246.07 L 1022.43,1236.75 L 1044.86,1229.98 L 1064.49,1220.67 L 1086.92,1214.74 L 1109.35,1207.12 M 845.79,930.28 L 847.04,929.90 L 848.29,929.53 L 849.84,928.30 L 851.40,926.89 L 853.27,925.76 L 854.21,925.20 L 859.81,924.35 L 865.42,921.81 L 866.67,921.44 L 868.22,920.97 M 840.19,918.43 L 840.19,907.42 M 840.19,912.50 L 841.12,913.06 L 842.68,914.01 L 844.24,914.95 L 845.79,915.89 L 847.66,917.02 L 848.60,917.58 L 849.84,917.96 L 851.09,918.33 L 853.27,919.56 L 854.21,920.12 L 859.81,920.12 M 859.81,901.49 L 854.21,898.11 M 879.44,894.72 L 854.21,892.18 L 862.62,883.72 L 862.62,886.25 M 871.03,876.94 L 893.46,882.87 M 890.65,889.64 L 890.65,882.87 L 876.64,876.10 L 865.42,871.02 M 857.01,870.17 L 851.40,876.94 L 848.60,884.56 L 857.01,887.95 L 857.01,893.87 L 851.40,899.80 L 851.40,911.65 L 865.42,919.27 L 857.01,926.05 L 851.40,932.82 L 862.62,946.36 L 857.01,953.14 L 851.40,960.76 L 868.22,964.99 M 873.83,885.41 L 854.21,880.33 L 859.81,873.56 L 862.62,866.78 L 840.19,876.94 M 876.64,872.71 L 882.24,879.48 L 896.26,886.25 L 879.44,893.03 M 879.44,861.70 L 885.05,853.24 M 893.46,853.24 L 891.90,852.77 L 890.65,852.39 L 889.72,851.83 L 888.16,850.89 L 885.05,850.70 L 883.80,851.07 L 882.24,851.54 L 879.44,851.54 L 876.64,854.08 M 876.64,847.31 L 878.82,845.34 L 882.24,844.77 L 883.49,844.39 L 884.74,844.02 L 885.98,843.64 L 887.23,843.27 M 896.26,825.30 L 918.69,814.29 L 941.12,804.98 L 974.77,803.29 L 980.37,810.91 M 983.18,810.91 L 974.77,804.13 M 977.57,801.59 L 955.14,795.67 M 949.53,795.67 L 971.96,788.89 L 991.59,780.43 L 1011.21,775.35 M 1000.00,782.97 L 1022.43,784.66 L 1042.06,788.05 M 1019.63,787.20 L 1011.21,788.89 L 988.79,786.35 L 1005.61,788.89 L 1007.17,789.36 L 1008.41,789.74 L 1009.66,790.49 L 1010.90,791.25 L 1019.63,792.28 L 1028.04,792.28 L 1029.28,792.66 L 1030.53,793.03 M 1014.02,793.13 L 1008.41,792.28 M 1028.04,793.13 L 1008.41,785.51 M 1005.61,772.81 L 1016.82,766.04 M 1025.23,763.50 L 1047.66,766.04 L 1067.29,761.80 L 1066.36,760.67 L 1064.49,758.42 M 1061.68,755.88 L 1047.66,757.57 L 1044.86,764.34 L 1033.64,771.12 M 1050.47,755.88 L 1056.07,762.65 L 1039.25,769.42 L 1014.02,771.96 L 991.59,778.74 L 963.55,785.51 L 943.93,793.13 L 963.55,799.90 L 943.93,807.52 L 924.30,814.29 L 913.08,821.07 L 904.67,827.84 L 899.07,834.61 L 890.65,841.38 L 879.44,848.16 L 890.65,855.78 L 879.44,861.70 L 857.01,868.48 L 848.60,875.25 L 842.99,888.79 L 842.99,895.57 L 845.79,902.34 L 834.58,909.96 L 837.38,917.58 L 865.42,917.58 M 1092.52,891.33 L 1067.29,898.11 L 1075.70,904.88 L 1056.07,910.81 L 1056.07,918.43 L 1042.06,924.35 L 1036.45,931.13 L 1030.84,938.75 L 1036.45,944.67 L 1039.25,951.44 L 1028.04,978.54 L 1033.64,992.08 L 1033.64,999.70 L 1022.43,1013.25 L 1022.43,1026.79 L 1016.82,1033.57 L 1016.82,1061.50 L 1019.63,1067.43 L 1025.23,1074.20 L 1028.04,1080.98 L 1033.64,1086.90 L 1039.25,1093.68 L 1050.47,1100.45 L 1050.47,1107.22 L 1056.07,1114.84 L 1072.90,1122.46 L 1070.09,1129.23 L 1078.50,1136.01 L 1086.92,1141.93 M 1134.58,893.87 L 1131.78,893.03 L 1126.17,892.18 L 1123.99,890.86 L 1117.76,889.64 M 1182.24,894.72 L 1196.26,887.10 M 1232.71,882.02 L 1213.08,887.10 L 1221.50,882.87 L 1241.12,876.10 M 1215.89,876.10 L 1182.24,882.87 M 1319.63,878.64 L 1358.88,885.41 L 1370.09,892.18 M 1364.49,884.56 L 1386.92,884.56 L 1412.15,885.41 M 1395.33,884.56 L 1420.56,887.95 L 1428.97,891.33 L 1426.79,891.99 M 1457.01,897.26 L 1458.88,896.70 L 1471.03,896.41 L 1472.59,896.88 L 1473.83,897.26 M 1521.50,879.48 L 1499.07,883.72 L 1524.30,878.64 M 1532.71,885.41 L 1557.94,879.48 M 1600.00,872.71 L 1588.79,879.48 L 1580.37,883.72 L 1597.20,885.41 L 1630.84,885.41 L 1653.27,881.18 L 1678.50,886.25 L 1686.92,888.79 L 1689.72,895.57 L 1695.33,902.34 M 1787.85,899.80 L 1787.85,906.57 L 1810.28,912.50 M 1827.10,913.35 L 1860.75,906.57 L 1866.36,900.65 L 1846.73,907.42 L 1827.10,910.81 L 1810.28,905.73 L 1813.08,899.80 M 1978.50,908.27 L 1979.75,908.64 L 1981.31,909.11 M 2006.54,943.82 L 2004.36,944.48 M 1630.84,889.64 L 1622.43,882.87 L 1605.61,876.10 M 1922.43,820.22 M 1807.48,766.88 L 1785.05,761.80 M 1790.65,760.96 L 1796.26,762.65 L 1797.51,763.03 L 1799.07,763.50 L 1800.62,764.44 L 1802.49,765.57 L 1804.05,766.51 L 1804.98,766.98 L 1806.23,767.35 L 1807.48,767.73 M 1891.59,744.02 L 1942.06,750.80 L 1970.09,756.72 L 1998.13,770.27 L 2037.38,777.04 L 2065.42,784.66 L 2062.62,791.43 L 2071.03,799.05 L 2090.65,805.83 L 2113.08,819.37 L 2118.69,825.30 L 2132.71,832.07 L 2138.32,838.84 L 2141.12,845.62 L 2146.73,852.39 L 2149.53,858.32 L 2155.14,864.24 L 2163.55,871.02 L 2160.75,877.79 L 2174.77,884.56 L 2171.96,891.33 L 2166.36,898.95 L 2157.94,906.57 L 2166.36,913.35 L 2163.55,920.97 L 2160.75,927.74 L 2155.14,934.51 L 2146.73,941.28 L 2146.73,948.06 L 2143.93,954.83 L 2138.32,961.60 L 2129.91,968.38 L 2118.69,980.23 L 2121.50,987.00 L 2127.10,993.77 L 2121.50,1001.39 L 2118.69,1008.17 L 2110.28,1014.09 L 2093.46,1021.71 L 2082.24,1035.26 L 2079.44,1042.03 M 1863.55,740.64 L 1841.12,733.02 M 1785.05,731.32 L 1768.22,724.55 L 1734.58,717.78 M 1656.07,711.85 L 1650.47,712.70 L 1642.06,713.55 L 1642.06,715.24 L 1640.81,715.62 L 1639.56,715.99 M 1566.36,716.93 L 1566.36,718.63 L 1569.16,726.25 M 1574.77,719.47 L 1573.52,719.10 L 1571.96,718.63 L 1560.75,719.47 L 1560.75,713.55 M 1532.71,712.70 L 1555.14,710.16 L 1574.77,705.93 M 1566.36,701.69 L 1588.79,708.47 L 1594.39,715.24 M 1532.71,704.23 L 1529.91,707.62 L 1510.28,705.08 M 1485.05,704.23 L 1459.81,705.93 L 1414.95,707.62 L 1389.72,713.55 L 1367.29,715.24 L 1342.06,721.17 L 1316.82,720.32 L 1294.39,722.01 L 1271.96,722.86 L 1252.34,724.55 L 1221.50,724.55 L 1199.07,725.40 L 1179.44,731.32 L 1137.38,733.02 L 1114.95,740.64 L 1095.33,749.10 L 1072.90,754.18 L 1028.04,760.96 L 1002.80,766.88 L 994.39,771.12 L 1011.21,764.34 L 1042.06,757.57 L 1064.49,750.80 L 1072.90,747.41 L 1092.52,749.10 L 1134.58,734.71 L 1162.62,731.32 M 1196.26,725.40 L 1199.07,731.32 L 1221.50,732.17 L 1243.93,731.32 L 1241.12,731.32 M 1243.93,725.40 L 1241.12,732.17 L 1271.96,730.48 M 1285.98,723.71 L 1277.57,727.94 L 1294.39,728.78 L 1314.02,727.94 L 1319.63,727.09 M 1412.15,705.93 L 1431.78,705.08 M 1414.95,706.77 L 1389.72,713.55 L 1347.66,720.32 L 1330.84,720.32 M 1134.58,743.18 L 1128.97,742.33 L 1131.78,746.56 M 1114.95,779.58 L 1106.54,779.58 M 1215.89,806.67 L 1218.69,806.67 L 1219.63,807.80 L 1221.50,810.06" fill="none" stroke="black" stroke-width="2" stroke-linecap="round" stroke-linejoin="round"/>
    </svg>