<svg width="4000" height="3000" xmlns="http://www.w3.org/2000/svg" viewBox="0 0 4000 3000">
      <path d="M 600.00,2400.00 L 600.00,2387.32 L 612.33,2387.32 L 617.82,2381.69 L 623.30,2376.06 L 628.78,2370.42 L 650.71,2347.89 L 656.19,2342.25 L 661.67,2336.62 L 735.68,2277.46 L 748.02,2267.61 L 772.69,2247.89 L 887.81,2169.01 L 904.26,2157.75 L 920.70,2146.48 L 978.27,2104.23 L 997.45,2090.14 L 1055.02,2047.89 L 1074.20,2033.80 L 1093.39,2019.72 L 1181.11,1957.75 L 1203.03,1942.25 L 1290.75,1880.28 L 1308.57,1866.20 L 1326.38,1852.11 L 1540.19,1683.10 L 1558.00,1669.01 L 1593.64,1640.85 L 1611.45,1626.76 L 1669.02,1584.51 L 1688.20,1570.42 L 1745.77,1528.17 L 1764.95,1514.08 L 1784.14,1500.00 L 1825.26,1474.65 L 1845.81,1461.97 L 1928.05,1411.27 L 1948.60,1398.59 L 1969.16,1385.92 L 2178.85,1246.48 L 2413.22,1107.04 L 2659.91,942.25 L 2881.94,815.49 L 2901.13,804.23 L 3054.63,714.08 L 3084.78,702.82 L 3099.85,697.18 L 3145.08,680.28 L 3160.16,674.65 L 3175.23,669.01 L 3190.31,663.38 L 3202.64,659.15 L 3214.98,654.93 L 3227.31,650.70 L 3239.65,646.48 L 3251.98,642.25 L 3264.32,638.03 L 3276.65,633.80 L 3288.99,629.58 L 3301.32,625.35 L 3306.80,622.54 L 3312.29,619.72 L 3323.25,614.08 L 3328.73,611.27 L 3334.21,608.45 L 3339.70,605.63 L 3345.18,602.82 L 3350.66,600.00 L 3400.00,600.00" fill="none" stroke="black" stroke-width="2" stroke-linecap="round" stroke-linejoin="round"/>
    </svg>