<svg width="4000" height="3000" xmlns="http://www.w3.org/2000/svg" viewBox="0 0 4000 3000">
      <path d="M 1914.85,600.00 L 3400.00,600.00 L 3400.00,2400.00 L 1914.85,2400.00 L 1914.85,600.00 L 3400.00,600.00 L 3400.00,2400.00 L 1914.85,2400.00 L 1914.85,600.00 M 3267.23,644.82 L 3215.04,660.64 L 3152.78,682.62 L 3090.52,709.86 L 3030.09,743.26 L 2987.97,773.14 L 2948.59,810.06 L 2913.80,867.19 L 2843.30,836.43 L 2794.77,806.54 L 2738.00,755.57 L 2730.67,807.42 L 2676.65,785.45 L 2618.97,781.93 L 2555.79,798.63 L 2601.57,826.76 L 2541.14,849.61 L 2614.39,851.37 L 2554.87,871.58 L 2509.09,849.61 L 2474.30,810.94 L 2422.11,773.14 L 2361.67,741.50 L 2301.24,717.77 L 2230.74,695.80 L 2167.56,681.74 L 2141.01,748.54 L 2123.61,811.82 L 2114.45,867.19 L 2111.71,927.83 L 2116.29,981.45 L 2128.19,1034.18 L 2148.33,1084.28 L 2178.55,1133.50 L 2221.58,1180.08 L 2255.46,1221.39 L 2230.74,1267.09 L 2147.42,1282.91 L 2178.55,1327.73 L 2117.20,1334.77 L 2139.18,1384.86 L 2190.45,1417.38 L 2125.44,1409.47 L 2168.48,1461.33 L 2211.51,1496.48 L 2264.62,1532.52 L 2322.30,1565.04 L 2368.08,1587.01 L 2432.18,1611.62 L 2503.60,1632.71 L 2556.70,1644.14 L 2537.48,1701.27 L 2527.40,1753.12 L 2522.83,1808.50 L 2485.28,1850.68 L 2453.24,1904.30 L 2434.01,1968.46 L 2389.14,1993.07 L 2338.78,1953.52 L 2308.57,1906.93 L 2282.93,1838.38 L 2253.63,1783.01 L 2209.68,1739.06 L 2157.49,1716.21 L 2107.13,1709.18 L 2043.95,1714.45 L 1998.17,1737.30 L 1961.54,1783.01 L 1952.39,1841.02 L 1977.11,1895.51 L 2037.54,1916.60 L 2077.83,1886.72 L 2029.30,1862.99 L 2080.58,1841.02 L 2122.69,1893.75 L 2139.18,1950.88 L 2161.15,2008.01 L 2197.78,2064.26 L 2240.81,2106.45 L 2285.68,2134.57 L 2347.02,2157.42 L 2310.40,2196.97 L 2293.92,2262.01 L 2320.47,2305.08 L 2381.82,2329.69 L 2451.41,2333.20 L 2511.84,2327.05 L 2577.76,2313.87 L 2633.62,2334.08 L 2692.22,2355.18 L 2752.65,2352.54 L 2803.01,2325.29 L 2859.78,2347.27 L 2911.97,2356.05 L 2975.15,2347.27 L 3012.69,2310.35 L 3079.53,2309.47 L 3140.88,2315.62 L 3193.98,2313.87 L 3250.75,2298.05 L 3291.04,2256.74 L 3291.96,2206.64 L 3256.25,2153.03 L 3213.21,2125.78 L 3150.03,2115.23 L 3137.21,2052.83 L 3141.79,1987.79 L 3128.06,1923.63 L 3104.25,1875.29 L 3063.05,1828.71 L 3054.81,1769.82 L 3040.16,1715.33 L 3018.18,1658.20 L 3032.83,1608.98 L 3087.77,1587.01 L 3143.62,1558.89 L 3201.31,1521.09 L 3248.92,1481.54 L 3294.70,1434.96 L 3328.58,1389.26 L 3352.39,1343.55 L 3295.62,1359.38 L 3340.48,1318.95 L 3363.37,1269.73 L 3293.79,1286.43 L 3324.00,1228.42 L 3267.23,1222.27 L 3211.38,1186.23 L 3226.95,1126.46 L 3267.23,1067.58 L 3291.96,1017.48 L 3310.27,962.11 L 3320.34,906.74 L 3323.09,846.09 L 3317.59,787.21 L 3302.94,723.93 L 3284.63,673.83 M 1914.85,600.00 L 1941.40,651.86 L 1960.63,717.77 L 1968.87,771.39 L 1970.70,824.12 L 1965.21,882.13 L 1952.39,936.62 L 1931.33,991.11 L 1906.61,1036.82 L 1864.49,1093.95 L 1872.73,1161.62 L 1930.41,1173.93 L 1949.64,1224.02 L 2006.41,1218.75 L 1990.84,1270.61 L 1949.64,1307.52 L 2000.00,1295.21 L 1967.04,1358.50 L 1934.07,1398.93 L 1888.29,1444.63 L 1848.01,1477.15 L 1793.98,1512.30 L 1733.55,1543.07 L 1667.63,1568.55 L 1678.61,1644.14 L 1697.84,1704.79 L 1707.91,1757.52 L 1730.80,1803.22 L 1766.51,1856.84 L 1786.66,1921.88 L 1789.40,1982.52 L 1772.92,2042.29 L 1815.96,2070.41 L 1868.15,2084.47 L 1916.68,2121.39 L 1942.32,2174.12 L 1931.33,2225.98 L 1888.29,2257.62 L 1832.44,2269.92 L 1753.70,2268.16 L 1680.44,2255.86 L 1641.99,2291.89 L 1585.22,2310.35 L 1518.38,2305.96 L 1474.43,2279.59 L 1424.98,2299.80 L 1339.83,2310.35 L 1291.30,2296.29 L 1250.10,2262.89 L 1170.44,2280.47 L 1114.58,2287.50 L 1062.39,2288.38 L 1001.05,2277.83 L 953.43,2244.43 L 941.53,2192.58 L 969.91,2137.21 L 927.80,2087.11 L 882.01,2056.35 L 838.06,2010.64 L 806.02,1957.91 L 787.70,1909.57 L 769.39,1847.17 L 738.26,1802.34 L 681.49,1800.59 L 724.53,1830.47 L 685.15,1871.78 L 626.55,1852.44 L 600.92,1802.34 L 610.07,1736.43 L 646.70,1691.60 L 708.96,1666.11 L 776.72,1666.11 L 835.32,1681.93 L 886.59,1719.73 L 915.89,1761.91 L 947.94,1843.65 L 970.83,1888.48 L 1005.62,1927.15 L 1053.24,1956.15 L 1087.12,1897.27 L 1114.58,1833.11 L 1150.29,1784.77 L 1172.27,1733.79 L 1181.43,1672.27 L 1202.49,1608.11 L 1124.66,1580.86 L 1059.65,1559.77 L 998.30,1534.28 L 936.95,1502.64 L 880.18,1466.60 L 823.41,1422.66 L 782.21,1383.11 L 835.32,1376.95 L 788.62,1340.92 L 752.91,1289.94 L 815.17,1304.00 L 865.53,1303.12 L 811.51,1268.85 L 856.38,1235.45 L 898.50,1188.87 L 874.69,1139.65 L 838.06,1103.61 L 802.35,1051.76 L 781.29,1005.18 L 762.98,930.47 L 759.32,863.67 L 763.90,808.30 L 777.63,740.62 L 797.78,677.34 L 849.97,643.95 L 925.96,665.04 L 994.64,690.53 L 1040.42,711.62 L 1096.27,745.90 L 1138.39,781.93 L 1167.69,823.24 L 1230.87,817.97 L 1291.30,812.70 L 1226.29,806.54 L 1173.19,777.54 L 1229.04,744.14 L 1301.37,737.11 L 1354.48,750.29 L 1353.56,692.29 L 1422.24,745.90 L 1482.67,787.21 L 1538.52,814.45 L 1581.56,782.81 L 1627.34,734.47 L 1677.70,698.44 L 1756.44,656.25 L 1819.62,630.76 L 1888.29,607.91 L 1829.69,635.16 L 1761.02,665.04 L 1711.58,690.53 L 1655.72,726.56 L 1614.52,760.84 L 1576.06,806.54 L 1609.94,860.16 L 1555.00,837.30 L 1511.05,812.70 L 1468.02,787.21 L 1416.74,750.29 L 1371.88,709.86 L 1390.19,773.14 L 1419.49,818.85 L 1384.70,772.27 L 1320.60,752.05 L 1262.92,749.41 L 1196.99,765.23 L 1257.42,777.54 L 1206.15,800.39 L 1260.17,796.88 L 1320.60,808.30 L 1375.54,836.43 L 1311.45,824.12 L 1241.86,826.76 L 1182.34,846.97 L 1135.64,872.46 L 1163.11,828.52 L 1117.33,774.90 L 1062.39,735.35 L 1008.37,706.35 L 947.02,680.86 L 882.01,658.89 L 817.00,641.31 L 792.28,716.02 L 776.72,788.09 L 770.31,861.04 L 774.89,930.47 L 786.79,983.20 L 806.02,1032.42 L 839.90,1088.67 L 892.09,1144.92 L 935.12,1080.76 L 901.24,1039.45 L 869.20,994.63 L 838.98,928.71 L 827.08,878.61 L 824.33,809.18 L 831.65,758.20 L 849.05,701.95 L 837.15,758.20 L 832.57,834.67 L 843.56,904.10 L 868.28,968.26 L 902.16,1021.00 L 938.78,1064.94 L 963.51,1020.12 L 997.38,975.29 L 1045.00,930.47 L 1089.86,901.46 L 1041.33,944.53 L 998.30,992.87 L 967.17,1043.85 L 945.19,1103.61 L 925.05,1171.29 L 901.24,1224.90 L 855.46,1252.15 L 804.19,1246.00 L 855.46,1286.43 L 918.64,1289.06 L 863.70,1316.31 L 809.68,1314.55 L 835.32,1360.25 L 882.93,1377.83 L 824.33,1385.74 L 859.12,1439.36 L 920.47,1480.66 L 965.34,1506.15 L 1032.18,1537.79 L 1094.44,1561.52 L 1161.28,1580.86 L 1228.12,1594.92 L 1307.78,1604.59 L 1407.59,1606.35 L 1480.84,1600.20 L 1548.59,1588.77 L 1628.25,1567.68 L 1691.43,1544.82 L 1747.29,1519.34 L 1804.05,1486.82 L 1850.75,1454.30 L 1893.79,1418.26 L 1934.07,1378.71 L 1976.19,1325.98 L 1916.68,1325.98 L 1865.40,1323.34 L 1930.41,1307.52 L 1975.28,1271.48 L 1908.44,1256.54 L 1856.25,1240.72 L 1908.44,1241.60 L 1952.39,1205.57 L 1892.87,1186.23 L 1844.34,1138.77 L 1814.13,1082.52 L 1783.00,1024.51 L 1746.37,972.66 L 1707.00,931.35 L 1663.96,900.59 L 1720.73,935.74 L 1761.02,976.17 L 1791.24,1018.36 L 1832.44,984.08 L 1865.40,930.47 L 1886.46,875.98 L 1898.36,807.42 L 1895.62,738.87 L 1883.71,685.25 L 1900.20,732.71 L 1905.69,817.09 L 1898.36,867.19 L 1882.80,915.53 L 1853.50,971.78 L 1819.62,1015.72 L 1818.71,1066.70 L 1869.98,1066.70 L 1905.69,1013.09 L 1930.41,962.11 L 1946.89,912.89 L 1957.88,853.12 L 1959.71,776.66 L 1952.39,718.65 L 1939.57,665.92 L 1919.42,612.30 L 1950.56,676.46 L 1968.87,739.75 L 1978.02,794.24 L 1979.86,858.40 L 1972.53,912.01 L 1948.72,1012.21 L 1912.10,1150.20 L 1901.11,1206.45 L 1928.58,1253.03 L 1916.68,1310.16 L 1885.55,1267.09 L 1870.90,1324.22 L 1815.04,1316.31 L 1811.38,1263.57 L 1814.13,1322.46 L 1761.02,1298.73 L 1747.29,1237.21 L 1754.61,1184.47 L 1769.26,1049.12 L 1775.67,989.36 L 1783.00,933.11 L 1796.73,852.25 L 1826.95,810.06 L 1850.75,742.38 L 1849.84,692.29 L 1846.17,748.54 L 1823.28,805.66 L 1786.66,851.37 L 1730.80,896.19 L 1685.94,852.25 L 1680.44,797.75 L 1676.78,856.64 L 1635.58,817.97 L 1638.33,883.01 L 1662.13,949.80 L 1690.52,1039.45 L 1723.48,1155.47 L 1736.30,1222.27 L 1734.47,1275.88 L 1694.18,1318.95 L 1674.95,1263.57 L 1670.37,1316.31 L 1615.43,1325.98 L 1601.70,1267.09 L 1605.36,1324.22 L 1559.58,1302.25 L 1557.75,1250.39 L 1576.06,1202.05 L 1536.69,1095.70 L 1507.39,1021.88 L 1488.16,964.75 L 1470.77,895.31 L 1462.52,836.43 L 1461.61,774.02 L 1468.02,716.89 L 1483.58,654.49 L 1543.10,629.88 L 1614.52,635.16 L 1674.95,635.16 L 1725.31,632.52 L 1804.05,623.73 L 1880.97,608.79 L 1946.89,600.00 L 2010.07,612.30 L 2053.11,637.79 L 2087.90,679.10 L 2113.54,732.71 L 2137.34,796.00 L 2167.56,840.82 L 2206.02,873.34 L 2259.12,893.55 L 2279.27,941.89 L 2306.74,1000.78 L 2243.56,1017.48 L 2195.95,1034.18 L 2141.92,1017.48 L 2089.73,987.60 L 2051.28,953.32 L 2017.40,907.62 L 1985.35,834.67 L 1967.04,769.63 L 1936.82,723.93 L 1877.31,711.62 L 1873.64,761.72 L 1815.96,761.72 L 1799.48,698.44 L 1825.11,641.31 L 1873.64,607.91 L 1940.48,600.00 L 1999.08,615.82 L 2048.53,652.73 L 2076.91,697.56 L 2089.73,748.54 L 2081.49,817.09 L 2053.11,868.95 L 2014.65,904.10 L 1961.54,926.07 L 1897.45,926.95 L 1841.60,904.10 L 1797.65,861.91 L 1774.75,816.21 L 1768.35,752.93 L 1781.16,698.44 L 1809.55,653.61 L 1851.67,619.34 L 1901.11,601.76 L 1967.95,603.52 L 2014.65,622.85 L 2057.68,662.40 L 2083.32,711.62 L 2091.56,780.18 L 2077.83,833.79 L 2044.87,881.25 L 1986.27,919.92 L 1929.50,929.59 L 1867.23,915.53 L 1822.37,885.64 L 1791.24,846.09 L 1771.09,788.09 L 1773.84,723.05 L 1794.90,673.83 L 1838.85,628.12 L 1887.38,605.27 L 1920.34,659.77 L 1932.24,723.93 L 1950.56,787.21 L 1981.69,869.82 L 2011.90,936.62 L 2036.63,990.23 L 2027.47,1044.73 L 1962.46,1094.82 L 1888.29,1108.01 L 1869.98,1052.64 L 1829.69,1006.05 L 1863.57,1046.48 L 1858.99,1100.98 L 1809.55,1111.52 L 1782.08,1067.58 L 1795.81,1004.30 L 1829.69,966.50 L 1784.83,1014.84 L 1775.67,1065.82 L 1729.89,1032.42 L 1758.27,976.17 L 1726.23,1025.39 L 1731.72,1088.67 L 1693.26,1045.61 L 1706.08,988.48 L 1749.12,945.41 L 1797.65,926.07 L 1860.82,927.83 L 1919.42,970.02 L 1888.29,928.71 L 1858.08,879.49 L 1837.93,817.97 L 1836.10,765.23 L 1854.41,694.92 L 1886.46,636.91 L 1937.74,625.49 L 1967.95,682.62 L 1981.69,742.38 L 1979.86,805.66 L 1959.71,861.91 L 1929.50,906.74 L 1890.12,946.29 L 1936.82,911.13 L 1988.10,888.28 L 2054.94,895.31 L 2108.96,929.59 L 2138.26,984.08 L 2123.61,1036.82 L 2106.21,983.20 L 2077.83,936.62 L 2098.89,982.32 L 2097.06,1042.97 L 2053.11,1070.21 L 2056.77,1011.33 L 2040.29,962.99 L 2003.66,927.83 L 2039.37,972.66 L 2049.44,1034.18 L 1989.93,1073.73 L 1967.04,1021.00 L 1994.51,974.41 L 1960.63,1021.00 L 1971.62,1071.97 L 1884.63,1060.55 L 1846.17,1021.88 L 1837.93,962.11 L 1856.25,901.46 L 1873.64,839.94 L 1888.29,783.69 L 1901.11,730.08 L 1913.93,654.49 L 1914.85,600.00 L 1955.13,643.95 L 2000.92,666.80 L 2048.53,636.91 L 2054.94,707.23 L 2047.61,759.96 L 2041.20,816.21 L 2034.79,883.01 L 2028.38,936.62 L 2003.66,884.77 L 1971.62,775.78 L 1945.06,695.80 L 1921.26,630.76 L 1972.53,607.91 L 2023.81,638.67 L 2060.43,688.77 L 2074.17,737.99 L 2066.84,803.91 L 2040.29,853.12 L 1989.93,893.55 L 1939.57,907.62 L 1877.31,899.71 L 1826.95,868.95 L 1885.55,879.49 L 1947.81,871.58 L 2000.92,838.18 L 2032.05,788.09 L 2038.46,730.96 L 2020.14,676.46 L 1972.53,629.88 L 1913.93,610.55 L 1977.11,607.91 L 1910.27,615.82 L 1860.82,643.07 L 1826.95,685.25 L 1813.21,737.11 L 1825.11,799.51 L 1856.25,842.58 L 1910.27,873.34 L 1963.37,879.49 L 2019.23,864.55 L 1968.87,901.46 L 1915.76,907.62 L 1861.74,892.68 L 1814.13,855.76 L 1783.00,796.00 L 1777.50,745.02 L 1792.15,687.89 L 1824.20,642.19 L 1871.81,610.55 L 1927.67,600.00 L 1954.22,650.98 L 1922.17,692.29 L 1873.64,705.47 L 1848.01,658.89 L 1887.38,609.67 L 1942.32,603.52 L 1955.13,654.49 L 1921.26,694.04 L 1866.32,701.95 L 1852.58,650.98 L 1890.12,608.79 L 1941.40,600.00 L 1985.35,626.37 L 1937.74,660.64 L 1878.22,650.98 L 1898.36,601.76 L 1965.21,602.64 L 2020.14,617.58 L 1968.87,610.55 L 1963.37,665.04 L 1897.45,669.43 L 1858.08,634.28 L 1795.81,647.46 L 1841.60,616.70 L 1896.53,601.76 L 1862.66,642.19 L 1910.27,667.68 L 1966.12,659.77 L 1945.06,607.91 L 1908.44,644.82 L 1848.92,629.00 L 1804.05,658.01 L 1761.02,699.32 L 1729.89,750.29 L 1778.42,764.36 L 1726.23,778.42 L 1739.05,717.77 L 1772.92,676.46 L 1826.03,636.04 L 1890.12,607.03 L 1942.32,600.00 L 2013.73,613.18 L 2060.43,632.52 L 2108.04,662.40 L 2058.60,640.43 L 2010.07,621.09 L 1946.89,607.91 L 1879.14,609.67 L 1829.69,621.09 L 1880.05,604.39 L 1956.97,605.27 L 2009.16,621.09 L 2063.18,650.98 L 2105.30,693.16 L 2129.10,745.90 L 2074.17,745.02 L 2127.27,752.05 L 2097.97,695.80 L 2059.52,656.25 L 2009.16,627.25 L 1961.54,610.55 L 1923.09,647.46 L 1966.12,620.21 L 1910.27,617.58 L 1971.62,624.61 L 1920.34,617.58 L 1871.81,644.82 L 1905.69,601.76 L 1952.39,636.91 L 2003.66,623.73 L 1944.15,641.31 L 1889.21,641.31 L 1837.93,635.16 L 1894.70,630.76 L 1949.64,617.58 L 2008.24,622.85 L 2057.68,600.88 L 2006.41,631.64 L 1942.32,621.97 L 1998.17,614.94 L 1944.15,606.15 L 1872.73,613.18 L 1927.67,600.88 L 1991.76,623.73 L 2035.71,658.01 L 1987.18,626.37 L 1938.65,608.79 L 1870.90,617.58 L 1823.28,642.19 L 1869.06,613.18 L 1926.75,600.00 L 1987.18,617.58 L 1936.82,606.15 L 1884.63,606.15 L 1949.64,602.64 L 1891.96,607.91 L 1845.26,627.25 L 1893.79,602.64 L 1945.98,607.91" fill="none" stroke="black" stroke-width="2" stroke-linecap="round" stroke-linejoin="round"/>
    </svg>