<svg width="3000" height="2500" xmlns="http://www.w3.org/2000/svg" viewBox="0 0 3000 2500">
      <path d="M 716.07,1181.90 M 827.58,1146.64 L 828.74,1146.26 L 827.76,1146.58 M 2360.51,872.83 L 2351.80,862.20 L 2342.33,851.81 L 2332.09,841.67 L 2321.11,831.76 L 2309.38,822.08 L 2296.92,812.64 L 2283.74,803.44 L 2269.83,794.47 L 2255.22,785.73 L 2254.34,785.18 L 2230.21,771.51 L 2203.23,757.60 L 2173.55,743.57 L 2141.32,729.53 L 2106.70,715.60 L 2069.86,701.88 L 2030.96,688.49 L 1990.16,675.53 L 1947.63,663.11 L 1903.42,651.40 L 1857.87,640.53 L 1811.17,630.64 L 1763.51,621.88 L 1715.06,614.40 L 1666.02,608.32 L 1616.58,603.81 L 1566.92,600.98 L 1517.23,600.00 L 1513.42,600.00 L 1507.67,600.03 L 1503.81,600.07 L 1499.95,600.13 L 1498.03,600.11 L 1496.12,600.08 L 1492.28,600.04 L 1484.61,600.00 L 1482.68,600.00 L 1432.99,600.98 L 1383.33,603.81 L 1333.90,608.33 L 1284.86,614.40 L 1236.42,621.89 L 1188.76,630.64 L 1142.06,640.53 L 1096.52,651.40 L 1052.31,663.11 L 1009.79,675.52 L 969.00,688.48 L 930.11,701.87 L 893.28,715.58 L 858.67,729.51 L 826.45,743.55 L 796.78,757.58 L 769.81,771.51 L 745.72,785.20 L 744.81,785.71 L 730.20,794.47 L 716.28,803.44 L 703.08,812.65 L 690.62,822.09 L 678.89,831.76 L 667.90,841.67 L 657.67,851.82 L 648.20,862.21 L 639.49,872.83 L 631.52,883.74 L 624.38,894.93 L 618.09,906.36 L 612.68,918.00 L 608.19,929.84 L 604.65,941.84 L 602.08,953.97 L 600.52,966.21 L 600.00,978.54 L 600.64,992.27 L 602.61,1005.84 L 605.88,1019.20 L 610.39,1032.31 L 616.10,1045.12 L 622.96,1057.60 L 630.93,1069.69 L 639.97,1081.34 L 650.01,1092.53 L 715.98,1181.78 L 724.39,1192.01 L 733.55,1200.85 L 743.58,1208.56 L 754.35,1215.13 L 765.74,1220.54 L 777.64,1224.77 L 789.92,1227.82 L 802.47,1229.65 L 815.15,1230.26 L 819.75,1230.18 L 824.35,1229.93 L 828.95,1229.52 L 833.54,1228.94 L 838.13,1228.21 L 842.70,1227.31 L 847.25,1226.25 L 851.78,1225.03 L 856.27,1223.65 L 856.35,1224.96 L 856.44,1226.54 L 856.37,1224.65 L 856.52,1223.64 L 860.95,1222.17 L 864.70,1220.98 L 872.22,1218.67 L 883.51,1215.28 L 891.02,1212.95 L 890.33,1214.80 L 889.65,1216.66 L 888.97,1218.52 L 791.33,1413.02 L 779.78,1437.59 L 769.54,1462.61 L 760.64,1488.02 L 753.07,1513.78 L 746.85,1539.85 L 741.99,1566.18 L 738.51,1592.71 L 736.42,1619.42 L 735.71,1646.23 L 735.71,1697.35 L 736.22,1711.23 L 737.70,1724.85 L 740.13,1738.20 L 743.48,1751.23 L 747.70,1763.92 L 752.78,1776.24 L 758.67,1788.15 L 765.35,1799.64 L 772.79,1810.66 L 780.94,1821.19 L 789.78,1831.19 L 799.28,1840.65 L 809.41,1849.52 L 820.12,1857.77 L 831.40,1865.39 L 843.20,1872.33 L 855.49,1878.56 L 868.25,1884.07 L 881.44,1888.81 L 895.03,1892.75 L 908.98,1895.88 L 923.27,1898.15 L 937.86,1899.53 L 952.72,1900.00 L 2047.29,1900.00 L 2062.15,1899.53 L 2076.74,1898.14 L 2091.03,1895.88 L 2104.99,1892.75 L 2118.58,1888.80 L 2131.77,1884.06 L 2144.53,1878.56 L 2156.83,1872.32 L 2168.63,1865.38 L 2179.91,1857.76 L 2190.62,1849.51 L 2200.74,1840.63 L 2210.24,1831.18 L 2219.08,1821.17 L 2227.23,1810.65 L 2234.66,1799.62 L 2241.34,1788.14 L 2247.23,1776.23 L 2252.31,1763.91 L 2256.53,1751.22 L 2259.87,1738.19 L 2262.30,1724.85 L 2263.79,1711.22 L 2264.29,1697.35 L 2264.29,1646.23 L 2263.59,1619.42 L 2261.49,1592.71 L 2258.01,1566.18 L 2253.15,1539.85 L 2246.94,1513.78 L 2239.37,1488.02 L 2230.46,1462.61 L 2220.23,1437.59 L 2208.68,1413.02 L 2111.03,1218.52 L 2110.35,1216.66 L 2109.90,1215.41 L 2109.44,1214.17 L 2108.99,1212.92 L 2112.73,1214.10 L 2131.52,1219.79 L 2135.27,1220.96 L 2139.01,1222.15 L 2142.74,1223.38 L 2147.35,1224.83 L 2151.99,1226.11 L 2156.65,1227.21 L 2161.34,1228.14 L 2166.03,1228.90 L 2170.73,1229.48 L 2175.43,1229.90 L 2180.13,1230.15 L 2184.82,1230.23 L 2197.53,1229.63 L 2210.09,1227.80 L 2222.37,1224.75 L 2234.27,1220.51 L 2245.65,1215.10 L 2256.42,1208.53 L 2266.43,1200.82 L 2275.59,1191.99 L 2283.77,1182.07 L 2350.10,1092.45 L 2360.13,1081.27 L 2369.15,1069.61 L 2377.11,1057.52 L 2383.96,1045.05 L 2389.65,1032.23 L 2394.15,1019.13 L 2397.41,1005.78 L 2399.37,992.22 L 2400.00,978.51 L 2399.49,966.19 L 2397.93,953.95 L 2395.37,941.81 L 2391.82,929.82 L 2387.33,917.98 L 2381.92,906.34 L 2375.63,894.92 L 2368.48,883.74 L 2360.51,872.83 M 2184.82,1148.66 L 2183.44,1148.63 L 2182.06,1148.56 L 2180.67,1148.44 L 2179.29,1148.27 L 2177.90,1148.05 L 2176.51,1147.78 L 2175.12,1147.45 L 2173.74,1147.07 L 2172.37,1146.64 L 2149.81,1139.18 L 2127.18,1131.96 L 2104.48,1125.01 L 2081.71,1118.31 L 2058.87,1111.86 L 2035.97,1105.67 L 2013.01,1099.73 L 1989.99,1094.05 L 1966.91,1088.62 L 1964.37,1087.95 L 1961.93,1087.12 L 1959.60,1086.14 L 1957.38,1085.02 L 1955.27,1083.77 L 1953.30,1082.40 L 1951.45,1080.91 L 1949.74,1079.32 L 1948.17,1077.63 L 1946.75,1075.86 L 1945.49,1074.03 L 1944.39,1072.16 L 1943.46,1070.23 L 1942.69,1068.26 L 1942.09,1066.24 L 1941.66,1064.18 L 1941.40,1062.08 L 1941.31,1059.95 L 1941.57,1000.24 L 1941.56,998.01 L 1941.56,993.53 L 1941.54,989.05 L 1941.17,980.88 L 1940.09,972.73 L 1938.33,964.76 L 1935.92,957.01 L 1932.89,949.50 L 1929.27,942.26 L 1925.11,935.32 L 1920.42,928.71 L 1915.24,922.46 L 1910.14,917.10 L 1904.66,912.07 L 1898.82,907.36 L 1892.65,903.00 L 1886.15,898.98 L 1879.36,895.33 L 1872.30,892.05 L 1864.97,889.15 L 1857.41,886.64 L 1856.36,886.20 L 1855.30,885.79 L 1854.09,885.35 L 1852.11,884.68 L 1849.77,883.97 L 1848.26,883.56 L 1844.23,882.47 L 1840.50,881.51 L 1836.26,880.45 L 1831.52,879.29 L 1820.53,876.72 L 1814.30,875.31 L 1800.40,872.25 L 1776.34,867.28 L 1749.00,861.99 L 1718.91,856.63 L 1686.66,851.42 L 1652.78,846.62 L 1617.84,842.46 L 1582.40,839.17 L 1547.01,837.00 L 1512.23,836.19 L 1510.86,836.19 L 1506.78,836.22 L 1501.35,836.30 L 1500.00,836.33 L 1498.64,836.30 L 1493.22,836.22 L 1489.16,836.19 L 1487.80,836.19 L 1462.39,836.63 L 1436.59,837.83 L 1410.61,839.72 L 1384.67,842.18 L 1358.97,845.12 L 1333.75,848.45 L 1309.19,852.07 L 1285.53,855.88 L 1262.98,859.80 L 1252.20,861.76 L 1241.78,863.72 L 1231.76,865.66 L 1222.16,867.57 L 1213.02,869.43 L 1196.18,873.00 L 1188.56,874.67 L 1175.00,877.75 L 1163.86,880.41 L 1159.23,881.57 L 1157.15,882.10 L 1154.29,882.85 L 1152.56,883.32 L 1150.93,883.78 L 1149.36,884.25 L 1148.40,884.56 L 1147.44,884.88 L 1146.00,885.35 L 1145.04,885.66 L 1143.89,886.10 L 1142.76,886.56 L 1135.17,889.07 L 1127.81,891.97 L 1120.72,895.26 L 1113.91,898.92 L 1107.39,902.95 L 1101.20,907.32 L 1095.34,912.05 L 1089.84,917.10 L 1084.73,922.48 L 1079.56,928.74 L 1074.88,935.34 L 1070.72,942.28 L 1067.11,949.51 L 1064.09,957.02 L 1061.68,964.76 L 1059.92,972.72 L 1058.83,980.86 L 1058.46,989.16 L 1058.44,993.00 L 1058.44,994.98 L 1058.43,996.95 L 1058.71,1059.90 L 1058.62,1062.03 L 1058.35,1064.14 L 1057.91,1066.20 L 1057.31,1068.23 L 1056.54,1070.22 L 1055.60,1072.16 L 1054.51,1074.05 L 1053.25,1075.88 L 1051.83,1077.66 L 1050.25,1079.35 L 1048.53,1080.95 L 1046.68,1082.44 L 1044.70,1083.81 L 1042.60,1085.06 L 1040.38,1086.18 L 1038.05,1087.16 L 1035.62,1087.99 L 1033.09,1088.66 L 1010.03,1094.07 L 987.03,1099.74 L 964.09,1105.66 L 941.22,1111.85 L 918.40,1118.28 L 895.66,1124.97 L 872.99,1131.92 L 850.38,1139.11 L 827.83,1146.57 L 826.19,1147.08 L 824.80,1147.46 L 823.42,1147.79 L 822.03,1148.07 L 820.65,1148.29 L 819.27,1148.47 L 817.89,1148.59 L 816.52,1148.67 L 815.15,1148.69 L 811.43,1148.50 L 807.85,1147.97 L 804.43,1147.13 L 801.19,1145.98 L 798.16,1144.56 L 795.35,1142.86 L 792.80,1140.92 L 790.52,1138.74 L 788.54,1136.34 L 720.41,1044.23 L 719.68,1043.25 L 718.94,1042.27 L 718.12,1041.39 L 717.26,1040.54 L 710.17,1032.88 L 704.48,1025.77 L 699.69,1018.79 L 695.76,1011.91 L 692.64,1005.12 L 690.29,998.40 L 688.65,991.74 L 687.69,985.13 L 687.34,978.54 L 687.60,972.69 L 688.36,966.71 L 689.65,960.59 L 691.50,954.32 L 693.94,947.89 L 697.01,941.32 L 700.74,934.58 L 705.15,927.67 L 710.29,920.60 L 716.15,913.43 L 722.78,906.17 L 730.19,898.84 L 738.39,891.47 L 747.37,884.07 L 757.15,876.68 L 767.73,869.31 L 779.12,861.99 L 791.32,854.75 L 792.19,854.25 L 812.85,842.43 L 836.79,830.07 L 863.80,817.30 L 893.66,804.29 L 926.13,791.20 L 960.96,778.19 L 997.92,765.43 L 1036.77,753.07 L 1077.28,741.29 L 1119.29,730.14 L 1162.56,719.81 L 1206.88,710.44 L 1252.02,702.15 L 1297.79,695.08 L 1343.95,689.35 L 1390.30,685.10 L 1436.62,682.47 L 1482.68,681.57 L 1484.52,681.57 L 1491.89,681.61 L 1495.58,681.65 L 1497.42,681.68 L 1499.26,681.70 L 1500.74,681.70 L 1504.37,681.64 L 1508.03,681.60 L 1513.54,681.57 L 1517.23,681.57 L 1563.30,682.47 L 1609.62,685.11 L 1655.97,689.36 L 1702.14,695.09 L 1747.91,702.16 L 1793.07,710.45 L 1837.40,719.82 L 1880.68,730.15 L 1922.69,741.29 L 1963.21,753.08 L 2002.07,765.44 L 2039.04,778.21 L 2073.88,791.22 L 2106.35,804.31 L 2136.22,817.32 L 2163.24,830.08 L 2187.18,842.43 L 2207.79,854.22 L 2208.68,854.72 L 2220.88,861.98 L 2232.27,869.30 L 2242.85,876.67 L 2252.63,884.07 L 2261.62,891.47 L 2269.81,898.84 L 2277.23,906.17 L 2283.87,913.43 L 2289.74,920.60 L 2294.87,927.67 L 2299.29,934.58 L 2303.01,941.31 L 2306.08,947.89 L 2308.52,954.31 L 2310.37,960.58 L 2311.65,966.70 L 2312.40,972.67 L 2312.65,978.51 L 2312.31,985.11 L 2311.35,991.74 L 2309.72,998.40 L 2307.37,1005.12 L 2304.26,1011.91 L 2300.33,1018.79 L 2295.55,1025.77 L 2289.85,1032.87 L 2283.20,1040.11 L 2282.12,1041.19 L 2281.26,1042.05 L 2280.17,1043.49 L 2211.44,1136.34 L 2209.56,1138.62 L 2207.27,1140.83 L 2204.71,1142.80 L 2201.89,1144.51 L 2198.84,1145.95 L 2195.58,1147.10 L 2192.15,1147.95 L 2188.55,1148.47 L 2184.82,1148.66 M 823.06,1646.23 L 823.66,1623.39 L 825.44,1600.65 L 828.40,1578.05 L 832.54,1555.64 L 837.83,1533.44 L 844.27,1511.50 L 851.86,1489.86 L 860.58,1468.56 L 870.43,1447.64 L 970.06,1249.16 L 994.37,1183.07 L 1033.98,1172.70 L 1040.60,1171.04 L 1047.23,1169.43 L 1053.88,1167.88 L 1062.59,1165.56 L 1071.02,1162.69 L 1079.12,1159.28 L 1086.89,1155.35 L 1094.29,1150.94 L 1101.30,1146.07 L 1107.90,1140.75 L 1114.06,1135.02 L 1119.76,1128.90 L 1124.88,1122.53 L 1129.50,1115.82 L 1133.60,1108.78 L 1137.16,1101.44 L 1140.15,1093.84 L 1142.55,1085.99 L 1144.32,1077.94 L 1145.46,1069.71 L 1145.92,1061.32 L 1146.06,1059.20 L 1145.78,997.08 L 1145.79,995.13 L 1145.79,993.19 L 1145.81,989.31 L 1145.87,987.64 L 1146.08,986.04 L 1146.44,984.42 L 1146.95,982.79 L 1147.61,981.15 L 1148.44,979.50 L 1149.44,977.84 L 1150.62,976.19 L 1151.98,974.55 L 1153.49,972.96 L 1155.18,971.42 L 1157.04,969.95 L 1159.06,968.56 L 1161.25,967.27 L 1163.59,966.08 L 1166.09,965.02 L 1168.74,964.10 L 1171.54,963.32 L 1204.20,955.41 L 1213.25,953.05 L 1223.24,950.90 L 1234.11,948.63 L 1245.78,946.26 L 1258.19,943.84 L 1271.27,941.38 L 1284.95,938.91 L 1299.15,936.46 L 1313.81,934.06 L 1332.69,931.13 L 1352.03,928.38 L 1371.68,925.84 L 1391.49,923.56 L 1411.32,921.59 L 1431.01,919.97 L 1450.42,918.77 L 1469.40,918.01 L 1487.80,917.75 L 1489.06,917.76 L 1490.31,917.76 L 1494.05,917.79 L 1495.29,917.81 L 1496.52,917.82 L 1498.97,917.86 L 1500.93,917.88 L 1507.16,917.78 L 1509.68,917.76 L 1510.95,917.76 L 1512.22,917.75 L 1534.62,918.13 L 1557.81,919.23 L 1581.54,920.96 L 1605.55,923.25 L 1629.56,926.00 L 1653.33,929.12 L 1676.58,932.53 L 1699.06,936.15 L 1720.50,939.87 L 1740.03,943.49 L 1749.27,945.28 L 1766.57,948.75 L 1774.58,950.42 L 1782.12,952.03 L 1789.18,953.57 L 1795.73,955.03 L 1828.40,963.29 L 1831.20,964.07 L 1833.86,965.00 L 1836.36,966.06 L 1838.72,967.25 L 1840.91,968.55 L 1842.95,969.95 L 1844.82,971.42 L 1846.52,972.97 L 1848.05,974.57 L 1849.40,976.22 L 1850.57,977.86 L 1851.56,979.51 L 1852.39,981.16 L 1853.05,982.80 L 1853.56,984.42 L 1853.91,986.03 L 1854.12,987.62 L 1854.19,989.18 L 1854.20,991.52 L 1854.20,993.72 L 1854.21,995.93 L 1854.21,1002.56 L 1854.22,1004.76 L 1853.96,1059.23 L 1854.31,1068.50 L 1855.38,1076.91 L 1857.12,1085.14 L 1859.51,1093.15 L 1862.53,1100.91 L 1866.14,1108.40 L 1870.31,1115.58 L 1875.02,1122.42 L 1880.23,1128.90 L 1885.93,1135.02 L 1892.09,1140.75 L 1898.69,1146.06 L 1905.70,1150.93 L 1913.10,1155.34 L 1920.87,1159.26 L 1928.98,1162.67 L 1937.40,1165.54 L 1946.11,1167.85 L 1952.75,1169.41 L 1959.38,1171.02 L 1966.00,1172.68 L 1972.61,1174.37 L 2005.60,1183.07 L 2029.94,1249.13 L 2129.57,1447.64 L 2139.42,1468.56 L 2148.14,1489.86 L 2155.73,1511.50 L 2162.17,1533.43 L 2167.46,1555.63 L 2171.60,1578.05 L 2174.56,1600.65 L 2176.34,1623.39 L 2176.94,1646.23 L 2176.94,1697.34 L 2176.41,1708.39 L 2174.85,1719.15 L 2172.31,1729.56 L 2168.84,1739.61 L 2164.48,1749.24 L 2159.27,1758.43 L 2153.25,1767.13 L 2146.48,1775.32 L 2138.98,1782.95 L 2130.81,1789.95 L 2122.04,1796.29 L 2112.71,1801.91 L 2102.87,1806.78 L 2092.56,1810.85 L 2081.80,1814.10 L 2070.64,1816.47 L 2059.13,1817.92 L 2047.29,1818.42 L 952.72,1818.42 L 940.88,1817.92 L 929.37,1816.47 L 918.22,1814.10 L 907.47,1810.85 L 897.16,1806.78 L 887.32,1801.91 L 877.99,1796.29 L 869.23,1789.95 L 861.05,1782.95 L 853.55,1775.31 L 846.77,1767.12 L 840.75,1758.42 L 835.53,1749.23 L 831.17,1739.60 L 827.69,1729.56 L 825.16,1719.14 L 823.60,1708.39 L 823.06,1697.34 L 823.06,1646.23 M 856.33,1223.70 M 1226.67,1541.27 L 1363.35,1541.27 L 1363.35,1668.91 L 1226.67,1668.91 L 1226.67,1541.27 M 1226.67,1366.60 L 1363.35,1366.60 L 1363.35,1494.24 L 1226.67,1494.24 L 1226.67,1366.60 M 1226.67,1191.94 L 1363.35,1191.94 L 1363.35,1319.55 L 1226.67,1319.55 L 1226.67,1191.94 M 1431.68,1541.27 L 1568.36,1541.27 L 1568.36,1668.91 L 1431.68,1668.91 L 1431.68,1541.27 M 1431.68,1366.60 L 1568.36,1366.60 L 1568.36,1494.24 L 1431.68,1494.24 L 1431.68,1366.60 M 1431.68,1191.94 L 1568.36,1191.94 L 1568.36,1319.55 L 1431.68,1319.55 L 1431.68,1191.94 M 1636.71,1541.27 L 1773.36,1541.27 L 1773.36,1668.91 L 1636.71,1668.91 L 1636.71,1541.27 M 1636.71,1366.60 L 1773.36,1366.60 L 1773.36,1494.24 L 1636.71,1494.24 L 1636.71,1366.60 M 1636.71,1191.94 L 1773.36,1191.94 L 1773.36,1319.55 L 1636.71,1319.55 L 1636.71,1191.94" fill="none" stroke="black" stroke-width="2" stroke-linecap="round" stroke-linejoin="round"/>
    </svg>