<svg width="4000" height="3000" xmlns="http://www.w3.org/2000/svg" viewBox="0 0 4000 3000">
      <path d="M 2000.00,1212.54 L 1978.79,1208.62 L 1958.27,1204.22 L 1938.48,1199.35 L 1919.45,1194.03 L 1901.25,1188.28 L 1883.89,1182.11 L 1867.45,1175.55 L 1851.94,1168.62 L 1837.43,1161.32 L 1823.95,1153.69 L 1811.54,1145.73 L 1800.26,1137.47 L 1790.14,1128.91 L 1781.22,1120.09 L 1773.56,1111.02 L 1767.20,1101.71 L 1762.17,1092.19 L 1758.52,1082.47 L 1756.30,1072.56 L 1755.56,1062.50 L 1756.31,1052.44 L 1758.53,1042.55 L 1762.18,1032.83 L 1767.21,1023.31 L 1773.58,1014.01 L 1781.25,1004.94 L 1790.17,996.12 L 1800.30,987.58 L 1811.59,979.32 L 1824.00,971.36 L 1837.49,963.73 L 1852.01,956.43 L 1867.51,949.50 L 1883.96,942.94 L 1901.31,936.78 L 1919.51,931.03 L 1938.53,925.71 L 1958.31,920.83 L 1978.81,916.42 L 2000.00,912.50 L 1984.16,909.96 L 1967.99,907.69 L 1951.52,905.69 L 1934.76,903.99 L 1917.73,902.57 L 1900.44,901.46 L 1882.92,900.65 L 1865.17,900.16 L 1847.22,900.00 L 1822.63,900.31 L 1798.44,901.21 L 1774.69,902.70 L 1751.43,904.76 L 1728.69,907.36 L 1706.52,910.49 L 1684.97,914.13 L 1664.07,918.27 L 1643.88,922.88 L 1624.43,927.95 L 1605.78,933.45 L 1587.95,939.39 L 1571.00,945.72 L 1554.97,952.44 L 1539.91,959.53 L 1525.85,966.97 L 1512.84,974.75 L 1500.93,982.84 L 1490.15,991.22 L 1480.56,999.89 M 1138.33,1350.00 L 1122.02,1349.78 L 1105.99,1349.13 L 1090.30,1348.06 L 1074.97,1346.59 L 1060.05,1344.73 L 1045.56,1342.49 L 1031.55,1339.90 L 1018.04,1336.96 L 1005.08,1333.68 L 992.69,1330.09 L 980.93,1326.20 L 969.81,1322.01 L 959.37,1317.56 L 949.66,1312.84 L 940.70,1307.87 L 932.54,1302.68 L 925.20,1297.26 L 918.73,1291.64 L 913.15,1285.84 L 908.51,1279.85 L 904.84,1273.71 L 902.18,1267.42 L 900.55,1260.99 L 900.00,1254.45 L 900.49,1248.51 L 901.94,1242.63 L 904.33,1236.82 L 907.64,1231.10 L 911.84,1225.49 L 916.92,1220.00 L 922.85,1214.66 L 929.61,1209.47 L 937.17,1204.45 L 945.51,1199.63 L 954.62,1195.00 L 964.46,1190.61 L 975.02,1186.45 L 986.28,1182.54 L 998.21,1178.91 L 1010.78,1175.57 L 1023.98,1172.53 L 1037.79,1169.82 L 1052.18,1167.44 L 1067.13,1165.42 L 1082.61,1163.76 L 1098.61,1162.50 L 1104.60,1157.18 L 1111.32,1152.01 L 1118.76,1147.01 L 1126.88,1142.19 L 1135.66,1137.56 L 1145.07,1133.14 L 1155.08,1128.94 L 1165.66,1124.97 L 1176.80,1121.24 L 1188.45,1117.77 L 1200.60,1114.56 L 1213.21,1111.64 L 1226.27,1109.02 L 1239.73,1106.70 L 1253.58,1104.71 L 1267.79,1103.05 L 1282.33,1101.73 L 1297.17,1100.78 L 1312.28,1100.20 L 1327.64,1100.00 L 1344.74,1100.23 L 1361.53,1100.92 L 1377.96,1102.05 L 1394.01,1103.60 L 1409.64,1105.56 L 1424.80,1107.92 L 1439.46,1110.66 L 1453.59,1113.76 L 1467.14,1117.21 L 1480.07,1121.00 L 1492.36,1125.10 L 1503.95,1129.51 L 1514.82,1134.21 L 1524.93,1139.18 L 1534.23,1144.41 L 1542.70,1149.89 L 1550.28,1155.59 L 1556.96,1161.50 L 1562.68,1167.62 L 1567.41,1173.91 L 1571.11,1180.38 L 1573.75,1186.99 L 1575.28,1193.75 L 1585.64,1195.74 L 1595.66,1198.00 L 1605.32,1200.50 L 1614.61,1203.24 L 1623.49,1206.20 L 1631.95,1209.37 L 1639.97,1212.74 L 1647.53,1216.31 L 1654.60,1220.05 L 1661.16,1223.96 L 1667.21,1228.02 L 1672.70,1232.22 L 1677.62,1236.56 L 1681.96,1241.01 L 1685.69,1245.57 L 1688.78,1250.23 L 1691.23,1254.97 L 1693.00,1259.79 L 1694.08,1264.66 L 1694.44,1269.59 L 1693.99,1275.09 L 1692.63,1280.50 L 1690.41,1285.79 L 1687.35,1290.96 L 1683.48,1296.00 L 1678.84,1300.89 L 1673.44,1305.62 L 1667.33,1310.17 L 1660.52,1314.55 L 1653.06,1318.72 L 1644.97,1322.70 L 1636.27,1326.45 L 1627.01,1329.97 L 1617.20,1333.24 L 1606.88,1336.27 L 1596.08,1339.02 L 1584.82,1341.50 L 1573.14,1343.68 L 1561.07,1345.56 L 1548.63,1347.13 L 1535.86,1348.37 L 1522.78,1349.27 L 1509.43,1349.81 L 1495.83,1350.00 L 1138.33,1350.00" fill="none" stroke="black" stroke-width="2" stroke-linecap="round" stroke-linejoin="round"/>
    </svg>