<svg width="4000" height="3000" xmlns="http://www.w3.org/2000/svg" viewBox="0 0 4000 3000">
      <path d="M 700.00,700.00 L 913.84,700.00 L 1017.61,730.36 L 1099.37,821.43 L 1159.12,882.14 L 1240.88,942.86 L 1269.18,942.86 L 1297.48,973.21 L 1319.50,973.21 L 1344.65,1003.57 L 1372.96,1033.93 L 1442.14,1033.93 L 1479.87,1094.64 L 1501.89,1094.64 L 1523.90,1125.00 L 1549.06,1155.36 L 1580.50,1185.71 L 1618.24,1185.71 L 1659.12,1216.07 L 1696.86,1246.43 L 1728.30,1276.79 L 1756.60,1307.14 L 1781.76,1367.86 L 1797.48,1367.86 L 1810.06,1398.21 L 1822.64,1398.21 L 1835.22,1428.57 L 1986.16,1428.57 L 1995.60,1398.21 L 2083.65,1398.21 L 2089.94,1428.57 L 2124.53,1428.57 L 2133.96,1458.93 L 2177.99,1458.93 L 2184.28,1489.29 L 2187.42,1489.29 L 2190.57,1519.64 L 2193.71,1519.64 L 2196.86,1550.00 L 2200.00,1550.00" fill="none" stroke="black" stroke-width="2" stroke-linecap="round" stroke-linejoin="round"/>
    </svg>