<svg width="4000" height="3000" xmlns="http://www.w3.org/2000/svg" viewBox="0 0 4000 3000">
      <path d="M 600.00,600.00 L 872.57,600.00 L 1033.63,636.99 L 1194.69,698.63 L 1324.78,760.27 L 1417.70,809.59 L 1479.65,834.25 L 1535.40,871.23 L 1578.76,895.89 L 1653.10,920.55 L 1690.27,945.21 L 1721.24,957.53 L 1746.02,969.86 L 1764.60,982.19 L 1770.80,994.52 L 1776.99,994.52 L 1783.19,1006.85 L 1789.38,1006.85 L 1795.58,1019.18 L 1807.96,1019.18 L 1814.16,1031.51 L 1820.35,1031.51 M 1820.35,1043.84 L 1845.13,1043.84 L 1882.30,1068.49 L 1894.69,1068.49 L 1913.27,1093.15 L 1962.83,1117.81 L 1993.81,1142.47 L 2030.97,1167.12 L 2061.95,1191.78 L 2092.92,1228.77 L 2123.89,1253.42 L 2142.48,1265.75 L 2154.87,1278.08 L 2173.45,1290.41 L 2179.65,1302.74 L 2192.04,1315.07 L 2198.23,1327.40 L 2204.42,1327.40 L 2216.81,1339.73 L 2223.01,1352.05 L 2235.40,1352.05 L 2247.79,1364.38 L 2253.98,1376.71 L 2266.37,1376.71 L 2303.54,1413.70 L 2309.73,1426.03 L 2322.12,1438.36 L 2328.32,1450.68 L 2334.51,1450.68 L 2346.90,1475.34 L 2353.10,1475.34 L 2365.49,1500.00 L 2371.68,1500.00 L 2377.88,1512.33 L 2384.07,1512.33 L 2390.27,1524.66 L 2415.04,1549.32 L 2433.63,1561.64 L 2446.02,1573.97 L 2464.60,1598.63 L 2501.77,1635.62 L 2532.74,1684.93 L 2576.11,1734.25 L 2613.27,1783.56 L 2656.64,1832.88 L 2718.58,1894.52 L 2780.53,1968.49 L 2836.28,2030.14 L 2885.84,2091.78 L 2923.01,2141.10 L 2947.79,2165.75 L 2966.37,2178.08 L 2966.37,2190.41 L 2978.76,2215.07 L 2984.96,2215.07 L 2991.15,2227.40 L 3003.54,2227.40 L 3015.93,2239.73 L 3034.51,2252.05 L 3059.29,2276.71 L 3090.27,2289.04 L 3115.04,2313.70 L 3152.21,2338.36 L 3189.38,2350.68 L 3232.74,2375.34 L 3276.11,2387.67 L 3307.08,2387.67 L 3325.66,2400.00 L 3400.00,2400.00 L 3400.00,2350.68" fill="none" stroke="black" stroke-width="2" stroke-linecap="round" stroke-linejoin="round"/>
    </svg>