<svg width="4000" height="3000" xmlns="http://www.w3.org/2000/svg" viewBox="0 0 4000 3000">
      <path d="M 780.55,1405.71 M 954.01,1356.89 M 3338.57,977.76 L 3268.31,914.15 L 3174.79,857.17 L 2971.13,769.68 L 2696.31,687.39 L 2372.35,624.89 L 2026.81,600.00 L 1973.06,600.00 L 1627.53,624.89 L 1303.60,687.39 L 1028.85,769.65 L 826.67,856.44 L 731.69,914.16 L 661.43,977.77 L 616.05,1048.47 L 600.00,1124.13 L 620.37,1207.51 L 677.80,1281.96 L 729.60,1343.55 L 780.41,1405.53 L 848.85,1455.66 L 934.68,1472.67 L 998.64,1463.51 L 1052.69,1448.69 L 897.63,1725.72 L 833.01,1883.23 L 811.11,2048.63 L 811.11,2119.41 L 828.34,2208.11 L 876.26,2285.13 L 949.32,2345.86 L 1041.98,2385.68 L 1148.67,2400.00 L 2851.34,2400.00 L 2958.06,2385.68 L 3050.72,2345.85 L 3123.77,2285.11 L 3171.68,2208.09 L 3188.89,2119.41 L 3188.89,2048.63 L 3167.00,1883.23 L 3102.38,1725.72 L 2950.50,1456.42 L 3032.39,1470.29 L 3151.16,1455.62 L 3219.20,1405.94 L 3270.39,1343.57 L 3322.38,1281.86 L 3379.70,1207.40 L 3400.00,1124.10 L 3383.97,1048.44 L 3338.57,977.76 M 3065.27,1359.68 L 2887.13,1313.15 L 2726.30,1276.56 L 2686.49,1236.85 L 2686.88,1166.55 L 2675.86,1089.08 L 2645.93,1046.48 L 2555.97,996.89 L 2467.29,976.97 L 2264.27,944.71 L 2019.02,927.03 L 1800.54,937.28 L 1631.30,959.72 L 1560.60,971.78 L 1504.54,982.51 L 1454.55,993.58 L 1394.28,1016.62 L 1354.02,1046.52 L 1324.15,1089.09 L 1313.15,1138.84 L 1313.21,1200.04 L 1302.85,1261.38 L 1113.03,1313.12 L 954.44,1356.78 L 893.28,1342.63 L 840.78,1278.64 L 787.30,1215.09 L 746.38,1165.62 L 744.11,1086.17 L 771.56,1043.91 L 822.10,998.45 L 897.62,952.73 L 1081.57,873.80 L 1342.44,795.63 L 1649.76,736.32 L 1973.06,712.94 L 2026.81,712.94 L 2350.14,736.33 L 2657.52,795.63 L 2918.44,873.82 L 3101.01,951.99 L 3177.91,998.45 L 3228.48,1043.91 L 3255.92,1086.16 L 3253.64,1165.62 L 3218.31,1209.39 L 3159.21,1278.62 L 3106.68,1342.63 M 946.98,2048.63 L 965.61,1907.78 L 1020.67,1773.66 L 1175.65,1498.83 L 1213.46,1407.32 L 1306.03,1386.29 L 1363.21,1365.98 L 1408.52,1332.32 L 1438.02,1289.08 L 1449.21,1238.75 L 1448.99,1163.28 L 1471.32,1109.40 L 1539.87,1092.10 L 1614.06,1077.77 L 1710.38,1062.54 L 1846.64,1046.58 L 1981.02,1039.97 L 2182.89,1049.41 L 2342.99,1070.59 L 2408.18,1081.71 L 2460.02,1091.58 L 2510.85,1103.02 L 2550.96,1138.87 L 2550.90,1201.22 L 2561.47,1288.24 L 2591.48,1332.32 L 2636.78,1365.96 L 2693.96,1386.26 L 2786.48,1407.32 L 2824.35,1498.79 L 2979.33,1773.65 L 3034.39,1907.77 L 3053.02,2048.62 L 3053.02,2119.40 L 3037.19,2184.66 L 2993.97,2237.93 L 2929.87,2273.89 L 2851.34,2287.04 L 1148.67,2287.04 L 1070.18,2273.89 L 1006.08,2237.93 L 962.82,2184.65 L 946.99,2119.40 L 946.99,2048.63 M 998.73,1463.58 M 1574.82,1903.30 L 1787.44,1903.30 L 1787.44,2080.03 L 1574.82,2080.03 L 1574.82,1903.30 M 1574.82,1661.45 L 1787.44,1661.45 L 1787.44,1838.18 L 1574.82,1838.18 L 1574.82,1661.45 M 1574.82,1419.61 L 1787.44,1419.61 L 1787.44,1596.30 L 1574.82,1596.30 L 1574.82,1419.61 M 1893.72,1903.30 L 2106.33,1903.30 L 2106.33,2080.03 L 1893.72,2080.03 L 1893.72,1903.30 M 1893.72,1661.45 L 2106.33,1661.45 L 2106.33,1838.18 L 1893.72,1838.18 L 1893.72,1661.45 M 1893.72,1419.61 L 2106.33,1419.61 L 2106.33,1596.30 L 1893.72,1596.30 L 1893.72,1419.61 M 2212.66,1903.30 L 2425.23,1903.30 L 2425.23,2080.03 L 2212.66,2080.03 L 2212.66,1903.30 M 2212.66,1661.45 L 2425.23,1661.45 L 2425.23,1838.18 L 2212.66,1838.18 L 2212.66,1661.45 M 2212.66,1419.61 L 2425.23,1419.61 L 2425.23,1596.30 L 2212.66,1596.30 L 2212.66,1419.61" fill="none" stroke="black" stroke-width="2" stroke-linecap="round" stroke-linejoin="round"/>
    </svg>