<svg width="3000" height="2500" xmlns="http://www.w3.org/2000/svg" viewBox="0 0 3000 2500">
      <path d="M 2400.00,1502.91 L 2365.30,1491.58 L 2331.72,1478.85 L 2299.33,1464.78 L 2268.20,1449.41 L 2238.40,1432.80 L 2210.01,1414.99 L 2183.09,1396.04 L 2157.72,1376.01 L 2133.97,1354.94 L 2111.91,1332.88 L 2091.61,1309.89 L 2073.15,1286.01 L 2056.59,1261.31 L 2042.00,1235.82 L 2029.47,1209.61 L 2019.05,1182.72 L 2010.82,1155.21 L 2004.86,1127.12 L 2001.23,1098.52 L 2000.00,1069.44 L 2001.23,1040.39 L 2004.86,1011.80 L 2010.84,983.73 L 2019.07,956.23 L 2029.50,929.36 L 2042.05,903.16 L 2056.65,877.69 L 2073.22,853.00 L 2091.69,829.13 L 2112.00,806.15 L 2134.07,784.10 L 2157.83,763.03 L 2183.20,743.00 L 2210.11,724.06 L 2238.50,706.25 L 2268.29,689.64 L 2299.41,674.26 L 2331.78,660.18 L 2365.33,647.45 L 2400.00,636.11 L 2374.07,628.77 L 2347.62,622.21 L 2320.67,616.45 L 2293.24,611.51 L 2265.37,607.43 L 2237.09,604.21 L 2208.41,601.89 L 2179.37,600.48 L 2150.00,600.00 L 2109.77,600.88 L 2070.18,603.50 L 2031.32,607.81 L 1993.25,613.74 L 1956.04,621.26 L 1919.76,630.30 L 1884.49,640.82 L 1850.30,652.77 L 1817.26,666.09 L 1785.44,680.73 L 1754.90,696.65 L 1725.74,713.78 L 1698.00,732.08 L 1671.77,751.50 L 1647.12,771.98 L 1624.11,793.48 L 1602.83,815.94 L 1583.33,839.31 L 1565.70,863.54 L 1550.00,888.57 M 990.00,1900.00 L 963.30,1899.36 L 937.08,1897.48 L 911.40,1894.39 L 886.32,1890.14 L 861.90,1884.77 L 838.19,1878.31 L 815.26,1870.81 L 793.16,1862.31 L 771.95,1852.86 L 751.68,1842.49 L 732.42,1831.24 L 714.23,1819.15 L 697.15,1806.28 L 681.26,1792.65 L 666.61,1778.30 L 653.25,1763.29 L 641.24,1747.65 L 630.65,1731.42 L 621.53,1714.64 L 613.93,1697.35 L 607.92,1679.60 L 603.56,1661.43 L 600.90,1642.87 L 600.00,1623.97 L 600.80,1606.81 L 603.17,1589.82 L 607.09,1573.04 L 612.50,1556.52 L 619.38,1540.31 L 627.69,1524.46 L 637.39,1509.01 L 648.44,1494.02 L 660.82,1479.53 L 674.47,1465.58 L 689.37,1452.23 L 705.48,1439.53 L 722.77,1427.52 L 741.18,1416.24 L 760.70,1405.75 L 781.28,1396.09 L 802.88,1387.32 L 825.47,1379.47 L 849.02,1372.60 L 873.48,1366.76 L 898.82,1361.99 L 925.00,1358.33 L 934.79,1342.96 L 945.80,1328.04 L 957.97,1313.59 L 971.26,1299.67 L 985.62,1286.30 L 1001.02,1273.52 L 1017.40,1261.38 L 1034.72,1249.90 L 1052.94,1239.13 L 1072.01,1229.10 L 1091.89,1219.85 L 1112.53,1211.42 L 1133.89,1203.84 L 1155.93,1197.14 L 1178.59,1191.38 L 1201.84,1186.58 L 1225.63,1182.79 L 1249.91,1180.03 L 1274.64,1178.35 L 1299.78,1177.78 L 1327.76,1178.45 L 1355.22,1180.44 L 1382.12,1183.70 L 1408.38,1188.18 L 1433.95,1193.85 L 1458.76,1200.67 L 1482.76,1208.57 L 1505.87,1217.53 L 1528.04,1227.50 L 1549.21,1238.44 L 1569.31,1250.30 L 1588.29,1263.04 L 1606.07,1276.61 L 1622.61,1290.97 L 1637.83,1306.08 L 1651.69,1321.89 L 1664.10,1338.36 L 1675.02,1355.45 L 1684.38,1373.11 L 1692.12,1391.30 L 1698.18,1409.98 L 1702.49,1429.10 L 1705.00,1448.61 L 1721.95,1454.37 L 1738.35,1460.88 L 1754.16,1468.11 L 1769.36,1476.02 L 1783.89,1484.57 L 1797.74,1493.74 L 1810.86,1503.48 L 1823.22,1513.78 L 1834.80,1524.59 L 1845.54,1535.87 L 1855.43,1547.60 L 1864.42,1559.75 L 1872.48,1572.27 L 1879.57,1585.14 L 1885.67,1598.32 L 1890.74,1611.77 L 1894.74,1625.47 L 1897.64,1639.38 L 1899.40,1653.47 L 1900.00,1667.70 L 1899.25,1683.60 L 1897.03,1699.22 L 1893.40,1714.51 L 1888.39,1729.45 L 1882.06,1744.00 L 1874.46,1758.12 L 1865.63,1771.78 L 1855.63,1784.94 L 1844.49,1797.58 L 1832.28,1809.65 L 1819.04,1821.12 L 1804.81,1831.96 L 1789.65,1842.13 L 1773.60,1851.60 L 1756.71,1860.33 L 1739.03,1868.28 L 1720.61,1875.43 L 1701.50,1881.74 L 1681.75,1887.18 L 1661.40,1891.70 L 1640.50,1895.28 L 1619.10,1897.88 L 1597.25,1899.46 L 1575.00,1900.00 L 990.00,1900.00" fill="none" stroke="black" stroke-width="2" stroke-linecap="round" stroke-linejoin="round"/>
    </svg>