<svg width="4000" height="3000" xmlns="http://www.w3.org/2000/svg" viewBox="0 0 4000 3000">
      <path d="M 1493.55,1164.29 M 1487.36,1184.63 M 1402.19,1342.60 L 1408.04,1392.85 L 1416.29,1433.31 L 1418.34,1441.22 L 1420.50,1448.95 L 1422.77,1456.42 L 1425.13,1463.59 L 1427.59,1470.35 L 1430.12,1476.62 L 1432.71,1482.32 L 1435.36,1487.37 L 1438.05,1491.69 L 1440.78,1495.20 L 1443.52,1497.80 L 1446.28,1499.43 L 1449.04,1500.00 L 1450.11,1499.94 L 1453.72,1499.43 L 1456.48,1497.80 L 1459.23,1495.20 L 1461.95,1491.69 L 1464.64,1487.37 L 1467.29,1482.32 L 1469.89,1476.62 L 1472.42,1470.35 L 1474.87,1463.59 L 1477.23,1456.43 L 1479.50,1448.96 L 1481.66,1441.23 L 1483.71,1433.32 L 1490.57,1401.05 L 1491.90,1393.15 L 1493.56,1164.36 L 1493.09,1158.45 L 1492.58,1153.36 L 1492.02,1148.91 L 1491.43,1145.12 L 1490.79,1142.00 L 1490.13,1139.55 L 1489.45,1137.80 L 1488.75,1136.74 L 1487.79,1136.44 L 1487.03,1137.15 L 1486.52,1138.09 L 1486.01,1139.41 L 1485.09,1142.41 L 1483.83,1146.38 L 1483.88,1144.95 L 1483.93,1143.52 L 1487.77,774.36 L 1487.14,769.97 L 1486.49,765.97 L 1485.81,762.37 L 1485.10,759.19 L 1484.36,756.46 L 1483.61,754.18 L 1482.83,752.38 L 1482.04,751.07 L 1481.23,750.27 L 1419.60,750.00 L 1417.96,751.07 L 1417.16,752.38 L 1416.39,754.18 L 1415.63,756.46 L 1414.90,759.19 L 1414.19,762.37 L 1413.51,765.97 L 1412.85,769.97 L 1416.07,1143.52 L 1416.10,1144.60 L 1416.15,1146.03 L 1415.12,1143.09 L 1414.04,1139.52 L 1413.52,1138.15 L 1413.00,1137.17 L 1412.21,1136.45 L 1411.25,1136.75 L 1410.55,1137.81 L 1409.87,1139.57 L 1409.21,1142.01 L 1408.57,1145.14 L 1407.98,1148.93 L 1407.42,1153.37 L 1406.91,1158.46 L 1406.46,1164.19 L 1402.19,1342.60 M 1411.95,1183.47 L 1412.57,1184.38 L 1424.06,1218.10 L 1424.47,1219.54 L 1424.71,1220.90 L 1424.92,1222.55 L 1425.41,1229.85 L 1425.47,1275.55 L 1427.84,1322.68 L 1428.55,1327.51 L 1428.92,1329.62 L 1429.32,1331.51 L 1429.72,1333.18 L 1430.16,1334.70 L 1430.48,1335.91 L 1431.08,1337.59 L 1433.31,1342.93 L 1434.65,1345.80 L 1436.17,1348.85 L 1437.84,1351.95 L 1439.63,1354.95 L 1441.51,1357.72 L 1443.45,1360.12 L 1445.42,1362.02 L 1447.39,1363.27 L 1449.32,1363.74 L 1450.38,1363.72 L 1452.09,1363.48 L 1453.52,1362.79 L 1454.97,1361.70 L 1456.41,1360.28 L 1457.83,1358.58 L 1459.24,1356.66 L 1460.60,1354.57 L 1461.91,1352.37 L 1463.17,1350.12 L 1466.43,1343.51 L 1467.70,1340.62 L 1468.67,1338.22 L 1469.05,1337.25 L 1469.39,1336.28 L 1469.69,1335.29 L 1470.27,1333.23 L 1470.68,1331.55 L 1471.07,1329.66 L 1471.45,1327.55 L 1472.16,1322.70 L 1474.53,1275.48 L 1474.59,1229.87 L 1475.08,1222.53 L 1475.29,1220.88 L 1475.53,1219.51 L 1475.80,1218.47 L 1478.50,1211.69 L 1487.34,1184.67 L 1487.74,1183.68 L 1488.64,1184.35 L 1488.99,1185.83 L 1489.29,1187.93 L 1489.42,1189.19 L 1493.41,1245.11 L 1489.37,1353.03 L 1486.85,1367.27 L 1483.69,1382.14 L 1479.95,1397.20 L 1477.89,1404.56 L 1475.73,1411.69 L 1473.48,1418.49 L 1471.15,1424.92 L 1468.75,1430.88 L 1466.28,1436.28 L 1463.78,1441.07 L 1461.23,1445.15 L 1458.67,1448.45 L 1456.09,1450.90 L 1453.52,1452.42 L 1450.96,1452.94 L 1449.96,1452.86 L 1446.48,1452.42 L 1443.91,1450.90 L 1441.33,1448.45 L 1438.77,1445.14 L 1436.23,1441.06 L 1433.72,1436.28 L 1431.26,1430.87 L 1428.85,1424.92 L 1426.52,1418.49 L 1424.27,1411.68 L 1422.11,1404.55 L 1420.05,1397.19 L 1416.31,1382.13 L 1411.82,1360.13 L 1410.68,1353.34 L 1406.52,1245.72 L 1410.48,1190.57 L 1410.58,1189.26 L 1410.71,1187.99 L 1410.85,1186.85 L 1411.01,1185.86 L 1411.36,1184.36 L 1411.95,1183.47 M 1487.61,896.40 L 1478.09,1163.62 L 1474.78,1172.38 L 1474.30,1173.71 L 1473.83,1175.37 L 1473.38,1177.34 L 1472.95,1179.60 L 1472.54,1182.15 L 1472.15,1184.96 L 1469.67,1233.85 L 1469.58,1280.11 L 1469.48,1282.01 L 1469.16,1285.72 L 1468.94,1287.37 L 1468.69,1288.80 L 1468.40,1289.94 L 1466.43,1294.96 L 1465.38,1297.56 L 1462.71,1303.05 L 1461.16,1305.89 L 1459.30,1308.96 L 1458.22,1310.55 L 1457.13,1312.02 L 1456.03,1313.33 L 1454.93,1314.47 L 1453.83,1315.40 L 1452.75,1316.10 L 1451.70,1316.53 L 1450.68,1316.68 L 1449.67,1316.66 L 1448.08,1316.46 L 1446.79,1315.83 L 1445.47,1314.83 L 1444.14,1313.51 L 1442.80,1311.92 L 1441.48,1310.12 L 1440.19,1308.15 L 1438.94,1306.07 L 1437.75,1303.92 L 1435.19,1298.80 L 1433.93,1296.02 L 1433.57,1294.99 L 1431.76,1290.41 L 1431.45,1289.42 L 1431.18,1288.12 L 1430.84,1285.72 L 1430.66,1283.90 L 1430.52,1282.00 L 1430.42,1280.10 L 1427.85,1184.96 L 1427.46,1182.15 L 1427.05,1179.61 L 1426.62,1177.35 L 1426.17,1175.38 L 1425.70,1173.73 L 1425.22,1172.39 L 1421.91,1163.62 L 1414.50,817.53 L 1415.44,809.83 L 1415.96,806.59 L 1416.51,803.78 L 1417.08,801.43 L 1417.68,799.56 L 1418.30,798.19 L 1418.94,797.35 L 1480.40,797.06 L 1481.70,798.19 L 1482.32,799.56 L 1482.92,801.43 L 1483.49,803.78 L 1484.04,806.59 L 1484.56,809.83 L 1485.50,817.53 L 1487.61,896.40 M 1485.76,1140.17 M 1465.18,956.96 L 1457.59,956.96 L 1457.59,883.32 L 1465.18,883.32 L 1465.18,956.96 M 1465.18,1057.73 L 1457.59,1057.73 L 1457.59,984.09 L 1465.18,984.09 L 1465.18,1057.73 M 1465.18,1158.50 L 1457.59,1158.50 L 1457.59,1084.87 L 1465.18,1084.87 L 1465.18,1158.50 M 1453.80,956.96 L 1446.20,956.96 L 1446.20,883.32 L 1453.80,883.32 L 1453.80,956.96 M 1453.80,1057.73 L 1446.20,1057.73 L 1446.20,984.09 L 1453.80,984.09 L 1453.80,1057.73 M 1453.80,1158.50 L 1446.20,1158.50 L 1446.20,1084.87 L 1453.80,1084.87 L 1453.80,1158.50 M 1442.40,956.96 L 1434.81,956.96 L 1434.81,883.32 L 1442.40,883.32 L 1442.40,956.96 M 1442.40,1057.73 L 1434.81,1057.73 L 1434.81,984.09 L 1442.40,984.09 L 1442.40,1057.73 M 1442.40,1158.50 L 1434.81,1158.50 L 1434.81,1084.87 L 1442.40,1084.87 L 1442.40,1158.50" fill="none" stroke="black" stroke-width="2" stroke-linecap="round" stroke-linejoin="round"/>
    </svg>