<svg width="4000" height="3000" xmlns="http://www.w3.org/2000/svg" viewBox="0 0 4000 3000">
      <path d="M 1400.00,979.09 L 1401.93,985.63 L 1403.79,992.97 L 1405.59,1001.09 L 1407.32,1009.96 L 1408.98,1019.54 L 1410.56,1029.81 L 1412.05,1040.74 L 1413.46,1052.30 L 1414.78,1064.46 L 1416.00,1077.19 L 1417.13,1090.45 L 1418.16,1104.22 L 1419.08,1118.48 L 1419.89,1133.18 L 1420.59,1148.30 L 1421.16,1163.81 L 1421.62,1179.69 L 1421.95,1195.89 L 1422.15,1212.39 L 1422.22,1229.17 L 1422.15,1245.93 L 1421.95,1262.42 L 1421.62,1278.62 L 1421.16,1294.48 L 1420.58,1309.98 L 1419.89,1325.10 L 1419.08,1339.79 L 1418.15,1354.04 L 1417.13,1367.81 L 1416.00,1381.07 L 1414.77,1393.79 L 1413.45,1405.94 L 1412.04,1417.50 L 1410.55,1428.43 L 1408.97,1438.70 L 1407.32,1448.29 L 1405.59,1457.15 L 1403.79,1465.28 L 1401.93,1472.63 L 1400.00,1479.17 L 1401.44,1483.40 L 1402.91,1487.19 L 1404.41,1490.51 L 1405.93,1493.36 L 1407.48,1495.71 L 1409.05,1497.57 L 1410.64,1498.91 L 1412.26,1499.73 L 1413.89,1500.00 L 1416.12,1499.49 L 1418.32,1497.98 L 1420.48,1495.50 L 1422.60,1492.07 L 1424.66,1487.74 L 1426.68,1482.52 L 1428.64,1476.45 L 1430.54,1469.56 L 1432.37,1461.87 L 1434.14,1453.42 L 1435.84,1444.24 L 1437.46,1434.36 L 1439.00,1423.80 L 1440.46,1412.60 L 1441.83,1400.78 L 1443.10,1388.38 L 1444.29,1375.42 L 1445.37,1361.94 L 1446.35,1347.96 L 1447.22,1333.52 M 1478.33,750.00 L 1479.82,750.37 L 1481.27,751.45 L 1482.70,753.24 L 1484.09,755.69 L 1485.45,758.79 L 1486.77,762.51 L 1488.04,766.84 L 1489.27,771.74 L 1490.45,777.20 L 1491.57,783.18 L 1492.64,789.67 L 1493.65,796.64 L 1494.60,804.07 L 1495.49,811.94 L 1496.30,820.21 L 1497.04,828.87 L 1497.71,837.90 L 1498.30,847.26 L 1498.80,856.94 L 1499.23,866.91 L 1499.56,877.15 L 1499.80,887.64 L 1499.95,898.34 L 1500.00,909.25 L 1499.96,919.15 L 1499.82,928.95 L 1499.61,938.63 L 1499.31,948.16 L 1498.92,957.51 L 1498.46,966.66 L 1497.92,975.57 L 1497.31,984.22 L 1496.62,992.58 L 1495.86,1000.62 L 1495.03,1008.33 L 1494.14,1015.66 L 1493.18,1022.59 L 1492.16,1029.09 L 1491.07,1035.14 L 1489.93,1040.72 L 1488.73,1045.78 L 1487.47,1050.30 L 1486.17,1054.27 L 1484.81,1057.64 L 1483.40,1060.39 L 1481.94,1062.50 L 1481.40,1071.37 L 1480.79,1079.98 L 1480.11,1088.31 L 1479.37,1096.35 L 1478.58,1104.06 L 1477.72,1111.43 L 1476.81,1118.44 L 1475.85,1125.06 L 1474.84,1131.27 L 1473.78,1137.06 L 1472.67,1142.39 L 1471.53,1147.26 L 1470.34,1151.63 L 1469.12,1155.49 L 1467.86,1158.82 L 1466.56,1161.59 L 1465.24,1163.78 L 1463.89,1165.37 L 1462.52,1166.34 L 1461.12,1166.67 L 1459.57,1166.28 L 1458.04,1165.13 L 1456.55,1163.25 L 1455.09,1160.66 L 1453.67,1157.39 L 1452.29,1153.46 L 1450.96,1148.90 L 1449.67,1143.73 L 1448.44,1137.98 L 1447.27,1131.67 L 1446.15,1124.83 L 1445.10,1117.48 L 1444.11,1109.65 L 1443.19,1101.36 L 1442.34,1092.65 L 1441.57,1083.52 L 1440.88,1074.02 L 1440.28,1064.16 L 1439.76,1053.97 L 1439.33,1043.48 L 1438.99,1032.70 L 1438.75,1021.68 L 1438.61,1010.42 L 1437.67,1007.09 L 1436.76,1003.34 L 1435.88,999.17 L 1435.04,994.61 L 1434.23,989.67 L 1433.46,984.38 L 1432.73,978.76 L 1432.04,972.82 L 1431.40,966.58 L 1430.80,960.07 L 1430.25,953.30 L 1429.75,946.30 L 1429.31,939.07 L 1428.91,931.65 L 1428.57,924.05 L 1428.29,916.28 L 1428.07,908.38 L 1427.91,900.36 L 1427.81,892.23 L 1427.78,884.02 L 1427.82,874.85 L 1427.94,865.84 L 1428.14,857.01 L 1428.42,848.39 L 1428.77,840.00 L 1429.20,831.85 L 1429.69,823.97 L 1430.24,816.38 L 1430.86,809.09 L 1431.54,802.13 L 1432.28,795.51 L 1433.07,789.25 L 1433.91,783.39 L 1434.80,777.93 L 1435.74,772.89 L 1436.72,768.30 L 1437.74,764.17 L 1438.81,760.53 L 1439.90,757.40 L 1441.03,754.79 L 1442.19,752.72 L 1443.38,751.22 L 1444.60,750.31 L 1445.83,750.00 L 1478.33,750.00" fill="none" stroke="black" stroke-width="2" stroke-linecap="round" stroke-linejoin="round"/>
    </svg>