<svg width="4000" height="3000" xmlns="http://www.w3.org/2000/svg" viewBox="0 0 4000 3000">
      <path d="M 2200.00,1290.36 L 2171.08,1282.96 L 2143.10,1274.63 L 2116.11,1265.43 L 2090.17,1255.38 L 2065.33,1244.52 L 2041.67,1232.88 L 2019.24,1220.49 L 1998.10,1207.39 L 1978.31,1193.61 L 1959.93,1179.19 L 1943.01,1164.16 L 1927.62,1148.55 L 1913.82,1132.39 L 1901.67,1115.73 L 1891.22,1098.59 L 1882.54,1081.01 L 1875.69,1063.02 L 1870.71,1044.66 L 1867.69,1025.95 L 1866.67,1006.94 L 1867.69,987.95 L 1870.72,969.25 L 1875.70,950.90 L 1882.56,932.92 L 1891.25,915.35 L 1901.71,898.22 L 1913.87,881.57 L 1927.68,865.42 L 1943.08,849.82 L 1960.00,834.79 L 1978.39,820.37 L 1998.19,806.60 L 2019.33,793.50 L 2041.76,781.11 L 2065.42,769.47 L 2090.24,758.61 L 2116.17,748.56 L 2143.15,739.35 L 2171.11,731.02 L 2200.00,723.61 L 2178.39,718.81 L 2156.35,714.52 L 2133.89,710.75 L 2111.04,707.53 L 2087.81,704.86 L 2064.24,702.75 L 2040.34,701.23 L 2016.14,700.31 L 1991.67,700.00 L 1958.14,700.58 L 1925.15,702.29 L 1892.76,705.10 L 1861.04,708.98 L 1830.03,713.90 L 1799.80,719.81 L 1770.41,726.69 L 1741.92,734.50 L 1714.38,743.21 L 1687.86,752.79 L 1662.42,763.19 L 1638.11,774.39 L 1615.00,786.36 L 1593.14,799.06 L 1572.60,812.45 L 1553.43,826.51 L 1535.69,841.19 L 1519.44,856.47 L 1504.75,872.31 L 1491.67,888.68 M 1025.00,1550.00 L 1002.75,1549.58 L 980.90,1548.35 L 959.50,1546.33 L 938.60,1543.55 L 918.25,1540.04 L 898.50,1535.82 L 879.38,1530.92 L 860.97,1525.36 L 843.29,1519.18 L 826.40,1512.40 L 810.35,1505.04 L 795.19,1497.14 L 780.96,1488.72 L 767.72,1479.81 L 755.50,1470.43 L 744.37,1460.61 L 734.37,1450.38 L 725.54,1439.77 L 717.94,1428.80 L 711.61,1417.50 L 706.60,1405.89 L 702.97,1394.01 L 700.75,1381.88 L 700.00,1369.52 L 700.67,1358.30 L 702.65,1347.19 L 705.91,1336.22 L 710.42,1325.42 L 716.15,1314.82 L 723.07,1304.45 L 731.16,1294.35 L 740.37,1284.55 L 750.68,1275.08 L 762.06,1265.96 L 774.48,1257.23 L 787.90,1248.92 L 802.31,1241.07 L 817.65,1233.69 L 833.92,1226.84 L 851.06,1220.52 L 869.07,1214.79 L 887.89,1209.66 L 907.52,1205.16 L 927.90,1201.34 L 949.02,1198.22 L 970.83,1195.83 L 979.00,1185.78 L 988.17,1176.02 L 998.31,1166.58 L 1009.38,1157.47 L 1021.35,1148.73 L 1034.18,1140.38 L 1047.83,1132.44 L 1062.27,1124.94 L 1077.45,1117.89 L 1093.34,1111.34 L 1109.91,1105.29 L 1127.11,1099.77 L 1144.91,1094.82 L 1163.27,1090.44 L 1182.16,1086.67 L 1201.53,1083.54 L 1221.35,1081.05 L 1241.59,1079.25 L 1262.20,1078.15 L 1283.15,1077.78 L 1306.46,1078.22 L 1329.35,1079.52 L 1351.77,1081.65 L 1373.65,1084.58 L 1394.96,1088.29 L 1415.64,1092.74 L 1435.63,1097.91 L 1454.89,1103.77 L 1473.37,1110.29 L 1491.01,1117.44 L 1507.76,1125.20 L 1523.57,1133.52 L 1538.39,1142.40 L 1552.17,1151.79 L 1564.86,1161.67 L 1576.40,1172.01 L 1586.75,1182.78 L 1595.85,1193.95 L 1603.65,1205.50 L 1610.10,1217.39 L 1615.15,1229.60 L 1618.74,1242.10 L 1620.83,1254.86 L 1634.96,1258.63 L 1648.63,1262.89 L 1661.80,1267.61 L 1674.46,1272.78 L 1686.58,1278.37 L 1698.11,1284.37 L 1709.05,1290.74 L 1719.35,1297.47 L 1729.00,1304.54 L 1737.95,1311.92 L 1746.19,1319.59 L 1753.68,1327.53 L 1760.40,1335.72 L 1766.31,1344.13 L 1771.39,1352.75 L 1775.62,1361.54 L 1778.95,1370.50 L 1781.37,1379.60 L 1782.84,1388.81 L 1783.33,1398.11 L 1782.71,1408.51 L 1780.86,1418.72 L 1777.83,1428.72 L 1773.66,1438.49 L 1768.38,1448.00 L 1762.05,1457.23 L 1754.69,1466.16 L 1746.36,1474.77 L 1737.08,1483.03 L 1726.90,1490.92 L 1715.86,1498.43 L 1704.01,1505.51 L 1691.37,1512.16 L 1678.00,1518.35 L 1663.92,1524.06 L 1649.19,1529.26 L 1633.85,1533.94 L 1617.92,1538.06 L 1601.46,1541.62 L 1584.50,1544.57 L 1567.08,1546.91 L 1549.25,1548.61 L 1531.04,1549.65 L 1512.50,1550.00 L 1025.00,1550.00" fill="none" stroke="black" stroke-width="2" stroke-linecap="round" stroke-linejoin="round"/>
    </svg>