<svg width="4000" height="3000" xmlns="http://www.w3.org/2000/svg" viewBox="0 0 4000 3000">
      <path d="M 3400.00,1850.18 L 3250.48,1800.28 L 3116.85,1735.66 L 3001.70,1657.97 L 2907.62,1568.90 L 2837.22,1470.10 L 2793.07,1363.24 L 2777.78,1250.00 L 2793.09,1136.82 L 2837.28,1030.03 L 2907.74,931.28 L 3001.85,842.23 L 3117.01,764.56 L 3250.60,699.93 L 3400.00,650.00 L 3348.00,637.12 L 3294.65,626.05 L 3240.07,616.85 L 3184.33,609.57 L 3127.53,604.30 L 3069.76,601.09 L 3011.11,600.00 L 2835.06,609.82 L 2668.93,638.16 L 2515.32,683.37 L 2376.81,743.78 L 2255.99,817.73 L 2155.45,903.54 L 2077.78,999.56 M 1206.67,2400.00 L 1067.56,2389.91 L 939.87,2361.15 L 827.23,2316.04 L 733.28,2256.85 L 661.66,2185.89 L 616.02,2105.44 L 600.00,2017.81 L 612.09,1943.99 L 647.17,1873.85 L 703.47,1809.44 L 779.23,1752.80 L 872.68,1705.98 L 982.04,1671.03 L 1105.56,1650.00 L 1154.03,1590.86 L 1216.80,1537.54 L 1292.26,1491.22 L 1378.78,1453.11 L 1474.75,1424.40 L 1578.55,1406.30 L 1688.55,1400.00 L 1828.41,1409.80 L 1957.34,1437.77 L 2071.94,1481.75 L 2168.80,1539.62 L 2244.51,1609.21 L 2295.68,1688.39 L 2318.89,1775.00 L 2391.91,1800.51 L 2457.11,1833.77 L 2513.24,1873.70 L 2559.05,1919.21 L 2593.32,1969.21 L 2614.79,2022.62 L 2622.22,2078.35 L 2608.87,2152.10 L 2570.84,2219.80 L 2511.16,2279.52 L 2432.86,2329.34 L 2339.00,2367.31 L 2232.58,2391.50 L 2116.67,2400.00 L 1206.67,2400.00" fill="none" stroke="black" stroke-width="2" stroke-linecap="round" stroke-linejoin="round"/>
    </svg>