<svg width="4000" height="3000" xmlns="http://www.w3.org/2000/svg" viewBox="0 0 4000 3000">
      <path d="M 796.72,1080.47 M 889.65,1057.42 L 890.74,1057.14 L 889.65,1057.42 M 2167.09,878.39 L 2159.83,871.44 L 2151.94,864.65 L 2143.41,858.01 L 2134.26,851.53 L 2124.49,845.21 L 2114.10,839.04 L 2103.11,833.02 L 2091.53,827.15 L 2079.35,821.44 L 2058.50,812.14 L 2036.03,803.04 L 2011.29,793.87 L 1984.43,784.69 L 1955.58,775.59 L 1924.89,766.62 L 1892.47,757.86 L 1858.47,749.39 L 1823.02,741.27 L 1786.18,733.61 L 1748.23,726.50 L 1709.31,720.03 L 1669.59,714.31 L 1629.22,709.41 L 1588.35,705.44 L 1547.15,702.49 L 1505.77,700.64 L 1464.36,700.00 L 1461.19,700.00 L 1459.59,700.01 L 1457.99,700.01 L 1454.78,700.03 L 1453.18,700.05 L 1451.57,700.06 L 1449.95,700.09 L 1446.76,700.05 L 1438.77,700.00 L 1435.57,700.00 L 1394.16,700.64 L 1352.78,702.49 L 1311.58,705.44 L 1270.72,709.42 L 1230.35,714.31 L 1190.63,720.04 L 1151.72,726.50 L 1113.77,733.61 L 1076.93,741.27 L 1041.49,749.38 L 1007.50,757.85 L 975.09,766.60 L 944.40,775.57 L 915.56,784.68 L 888.71,793.86 L 863.98,803.04 L 841.51,812.14 L 821.43,821.09 L 808.50,827.16 L 796.90,833.02 L 785.90,839.04 L 775.51,845.21 L 765.74,851.54 L 756.59,858.02 L 748.06,864.65 L 740.17,871.44 L 732.91,878.39 L 726.27,885.53 L 720.32,892.84 L 715.07,900.31 L 710.57,907.93 L 706.83,915.66 L 703.87,923.51 L 701.73,931.44 L 700.43,939.45 L 700.00,947.50 L 700.53,956.48 L 702.18,965.36 L 704.90,974.09 L 708.66,982.66 L 713.41,991.04 L 719.13,999.20 L 725.78,1007.10 L 733.30,1014.72 L 741.68,1022.04 L 796.65,1080.39 L 803.66,1087.08 L 811.29,1092.86 L 819.65,1097.91 L 828.62,1102.20 L 838.12,1105.74 L 848.03,1108.51 L 858.27,1110.49 L 868.72,1111.69 L 879.29,1112.09 L 883.12,1112.04 L 886.96,1111.88 L 890.79,1111.61 L 894.62,1111.23 L 898.44,1110.75 L 902.25,1110.16 L 906.04,1109.47 L 909.81,1108.67 L 913.56,1107.77 L 913.64,1108.84 L 913.61,1107.80 L 917.46,1106.81 L 923.72,1105.26 L 936.26,1102.30 L 942.51,1100.77 L 941.95,1101.99 L 941.38,1103.20 L 940.81,1104.42 L 859.44,1231.59 L 849.82,1247.66 L 841.29,1264.01 L 833.86,1280.63 L 827.56,1297.47 L 822.38,1314.52 L 818.33,1331.73 L 815.43,1349.08 L 813.68,1366.54 L 813.09,1384.08 L 813.09,1417.50 L 813.51,1426.57 L 814.75,1435.48 L 816.78,1444.21 L 819.56,1452.73 L 823.08,1461.02 L 827.32,1469.08 L 832.23,1476.87 L 837.79,1484.38 L 843.99,1491.58 L 850.78,1498.47 L 858.15,1505.01 L 866.07,1511.19 L 874.50,1516.99 L 883.43,1522.39 L 892.83,1527.37 L 902.66,1531.91 L 912.91,1535.98 L 923.54,1539.58 L 934.54,1542.68 L 945.86,1545.26 L 957.49,1547.30 L 969.39,1548.79 L 981.55,1549.69 L 993.93,1550.00 L 1906.07,1550.00 L 1918.46,1549.69 L 1930.62,1548.79 L 1942.53,1547.30 L 1954.16,1545.26 L 1965.48,1542.68 L 1976.48,1539.58 L 1987.11,1535.98 L 1997.36,1531.90 L 2007.19,1527.36 L 2016.59,1522.38 L 2025.52,1516.98 L 2033.95,1511.18 L 2041.86,1505.00 L 2049.23,1498.46 L 2056.03,1491.58 L 2062.22,1484.37 L 2067.78,1476.86 L 2072.69,1469.07 L 2076.92,1461.02 L 2080.44,1452.72 L 2083.23,1444.20 L 2085.25,1435.48 L 2086.49,1426.57 L 2086.91,1417.50 L 2086.91,1384.08 L 2086.32,1366.54 L 2084.58,1349.08 L 2081.67,1331.73 L 2077.63,1314.52 L 2072.45,1297.47 L 2066.14,1280.63 L 2058.72,1264.01 L 2050.19,1247.66 L 2040.56,1231.59 L 1959.19,1104.42 L 1958.63,1103.20 L 1958.06,1101.98 L 1957.49,1100.76 L 1960.61,1101.53 L 1979.39,1106.01 L 1982.51,1106.79 L 1985.61,1107.60 L 1989.46,1108.55 L 1993.32,1109.38 L 1997.21,1110.10 L 2001.11,1110.71 L 2005.02,1111.20 L 2008.94,1111.59 L 2012.86,1111.86 L 2016.78,1112.02 L 2020.68,1112.08 L 2031.27,1111.68 L 2041.74,1110.48 L 2051.98,1108.49 L 2061.89,1105.72 L 2071.38,1102.18 L 2080.35,1097.88 L 2088.70,1092.84 L 2096.33,1087.07 L 2103.14,1080.58 L 2158.42,1021.99 L 2166.78,1014.68 L 2174.29,1007.05 L 2180.92,999.15 L 2186.63,990.99 L 2191.38,982.61 L 2195.13,974.05 L 2197.84,965.32 L 2199.48,956.45 L 2200.00,947.49 L 2199.57,939.43 L 2198.28,931.43 L 2196.14,923.49 L 2193.19,915.65 L 2189.44,907.91 L 2184.93,900.30 L 2179.69,892.83 L 2173.73,885.52 L 2167.09,878.39 M 2020.68,1058.74 L 2019.53,1058.72 L 2018.38,1058.68 L 2017.23,1058.60 L 2016.07,1058.49 L 2014.91,1058.34 L 2013.76,1058.16 L 2012.60,1057.95 L 2011.45,1057.70 L 2010.31,1057.42 L 1991.51,1052.54 L 1972.65,1047.82 L 1953.73,1043.27 L 1934.76,1038.89 L 1915.73,1034.68 L 1896.64,1030.63 L 1877.51,1026.75 L 1858.32,1023.03 L 1839.09,1019.48 L 1836.97,1019.04 L 1834.94,1018.50 L 1833.00,1017.86 L 1831.15,1017.13 L 1829.40,1016.31 L 1827.75,1015.41 L 1826.21,1014.44 L 1824.78,1013.40 L 1823.47,1012.30 L 1822.29,1011.14 L 1821.24,1009.95 L 1820.33,1008.72 L 1819.55,1007.46 L 1818.91,1006.17 L 1818.41,1004.85 L 1818.05,1003.50 L 1817.83,1002.13 L 1817.76,1000.74 L 1817.97,958.77 L 1817.96,957.31 L 1817.96,955.84 L 1817.95,954.38 L 1817.64,949.04 L 1816.74,943.71 L 1815.27,938.50 L 1813.26,933.43 L 1810.74,928.52 L 1807.73,923.79 L 1804.26,919.25 L 1800.35,914.93 L 1796.03,910.84 L 1791.78,907.34 L 1787.21,904.04 L 1782.35,900.97 L 1777.20,898.11 L 1771.79,895.49 L 1766.14,893.10 L 1760.25,890.96 L 1754.14,889.06 L 1747.84,887.42 L 1746.78,887.07 L 1744.19,886.34 L 1742.73,885.96 L 1741.48,885.68 L 1736.85,884.69 L 1733.75,884.06 L 1700.33,878.01 L 1680.29,874.76 L 1657.50,871.30 L 1632.43,867.79 L 1605.55,864.39 L 1577.32,861.25 L 1548.20,858.53 L 1518.66,856.38 L 1489.17,854.96 L 1460.19,854.43 L 1459.05,854.43 L 1457.92,854.44 L 1456.78,854.44 L 1453.39,854.47 L 1452.26,854.49 L 1451.13,854.50 L 1450.00,854.52 L 1448.87,854.50 L 1447.74,854.49 L 1446.61,854.47 L 1443.22,854.44 L 1442.09,854.44 L 1440.96,854.43 L 1439.84,854.43 L 1418.66,854.72 L 1397.16,855.51 L 1375.51,856.74 L 1353.89,858.35 L 1332.48,860.27 L 1311.46,862.45 L 1291.00,864.82 L 1271.28,867.31 L 1252.48,869.87 L 1174.27,882.51 L 1166.02,884.10 L 1162.67,884.78 L 1161.18,885.10 L 1159.78,885.40 L 1158.45,885.70 L 1156.60,886.16 L 1154.60,886.67 L 1153.45,887.00 L 1152.30,887.37 L 1145.97,889.01 L 1139.85,890.91 L 1133.93,893.06 L 1128.25,895.45 L 1122.83,898.08 L 1117.66,900.94 L 1112.78,904.03 L 1108.20,907.34 L 1103.94,910.86 L 1099.63,914.94 L 1095.73,919.26 L 1092.27,923.80 L 1089.26,928.53 L 1086.74,933.44 L 1084.73,938.50 L 1083.26,943.70 L 1082.36,949.03 L 1082.05,954.45 L 1082.03,956.96 L 1082.03,960.84 L 1082.02,962.13 L 1082.26,1000.70 L 1082.18,1002.10 L 1081.96,1003.47 L 1081.59,1004.83 L 1081.09,1006.15 L 1080.45,1007.45 L 1079.67,1008.72 L 1078.76,1009.95 L 1077.71,1011.15 L 1076.52,1012.32 L 1075.21,1013.42 L 1073.78,1014.47 L 1072.23,1015.44 L 1070.58,1016.34 L 1068.83,1017.16 L 1066.98,1017.89 L 1065.04,1018.53 L 1063.02,1019.07 L 1060.91,1019.51 L 1041.69,1023.04 L 1022.53,1026.75 L 1003.41,1030.63 L 984.35,1034.67 L 965.34,1038.88 L 946.38,1043.25 L 927.49,1047.79 L 908.65,1052.50 L 889.88,1057.37 L 888.49,1057.71 L 887.34,1057.95 L 886.18,1058.17 L 885.03,1058.35 L 883.87,1058.50 L 882.72,1058.61 L 881.58,1058.69 L 880.43,1058.74 L 879.29,1058.76 L 876.19,1058.63 L 873.21,1058.29 L 870.36,1057.74 L 867.66,1056.99 L 865.13,1056.06 L 862.80,1054.95 L 860.67,1053.68 L 858.77,1052.25 L 857.11,1050.69 L 800.34,990.46 L 799.58,989.66 L 797.89,988.18 L 791.81,983.03 L 787.06,978.39 L 783.07,973.82 L 779.80,969.32 L 777.20,964.88 L 775.24,960.49 L 773.88,956.14 L 773.07,951.81 L 772.79,947.51 L 773.00,943.68 L 773.63,939.77 L 774.70,935.77 L 776.25,931.67 L 778.28,927.47 L 780.84,923.17 L 783.95,918.76 L 787.63,914.25 L 791.91,909.62 L 796.79,904.93 L 802.32,900.19 L 808.49,895.40 L 815.32,890.58 L 822.81,885.74 L 830.96,880.91 L 839.77,876.09 L 849.27,871.30 L 859.44,866.57 L 877.38,858.51 L 897.32,850.43 L 919.84,842.08 L 944.72,833.57 L 971.77,825.01 L 1000.80,816.51 L 1031.60,808.16 L 1063.98,800.09 L 1097.74,792.38 L 1132.74,785.09 L 1168.80,778.34 L 1205.73,772.21 L 1243.35,766.79 L 1281.49,762.17 L 1319.96,758.42 L 1358.58,755.64 L 1397.18,753.92 L 1435.57,753.33 L 1437.10,753.33 L 1438.64,753.34 L 1440.17,753.34 L 1444.78,753.37 L 1446.32,753.39 L 1447.85,753.40 L 1449.38,753.42 L 1450.62,753.42 L 1453.64,753.38 L 1459.75,753.34 L 1461.28,753.34 L 1462.82,753.33 L 1464.36,753.33 L 1502.75,753.92 L 1541.35,755.65 L 1579.98,758.43 L 1618.45,762.17 L 1656.60,766.80 L 1694.23,772.22 L 1731.16,778.35 L 1767.23,785.10 L 1802.24,792.38 L 1836.01,800.09 L 1868.39,808.17 L 1899.20,816.52 L 1928.23,825.03 L 1955.29,833.59 L 1980.18,842.09 L 2002.70,850.44 L 2022.65,858.51 L 2039.83,866.22 L 2050.73,871.29 L 2060.23,876.08 L 2069.04,880.90 L 2077.19,885.74 L 2084.68,890.57 L 2091.51,895.40 L 2097.69,900.19 L 2103.22,904.93 L 2108.11,909.62 L 2112.39,914.25 L 2116.07,918.76 L 2119.18,923.17 L 2121.73,927.47 L 2123.77,931.66 L 2125.31,935.76 L 2126.38,939.76 L 2127.00,943.67 L 2127.21,947.49 L 2126.93,951.80 L 2126.13,956.13 L 2124.77,960.49 L 2122.81,964.89 L 2120.22,969.33 L 2116.94,973.82 L 2112.95,978.39 L 2108.21,983.03 L 2102.66,987.77 L 2101.05,989.03 L 2100.29,989.82 L 2042.86,1050.69 L 2041.30,1052.17 L 2039.39,1053.62 L 2037.26,1054.91 L 2034.91,1056.03 L 2032.37,1056.97 L 2029.65,1057.72 L 2026.79,1058.28 L 2023.79,1058.62 L 2020.68,1058.74 M 885.88,1384.07 L 886.38,1369.14 L 887.87,1354.27 L 890.34,1339.50 L 893.78,1324.84 L 898.19,1310.33 L 903.56,1295.98 L 909.88,1281.83 L 917.15,1267.91 L 925.36,1254.23 L 1008.38,1124.45 L 1028.64,1081.24 L 1067.17,1073.37 L 1078.23,1071.30 L 1085.50,1069.79 L 1092.51,1067.91 L 1099.27,1065.68 L 1105.74,1063.12 L 1111.91,1060.23 L 1117.75,1057.04 L 1123.25,1053.57 L 1128.39,1049.82 L 1133.13,1045.82 L 1137.40,1041.66 L 1141.25,1037.26 L 1144.67,1032.66 L 1147.63,1027.86 L 1150.12,1022.89 L 1152.12,1017.76 L 1153.60,1012.50 L 1154.55,1007.12 L 1154.93,1001.63 L 1155.05,1000.24 L 1154.81,963.45 L 1154.82,962.17 L 1154.82,958.36 L 1154.83,957.09 L 1154.83,955.82 L 1154.84,954.55 L 1154.89,953.45 L 1155.07,952.41 L 1155.37,951.35 L 1155.79,950.29 L 1156.34,949.21 L 1157.04,948.13 L 1157.87,947.05 L 1158.85,945.97 L 1159.98,944.90 L 1161.24,943.86 L 1162.65,942.85 L 1164.20,941.89 L 1165.89,940.98 L 1167.71,940.14 L 1169.66,939.36 L 1171.74,938.67 L 1173.95,938.06 L 1176.28,937.56 L 1203.50,932.38 L 1238.15,926.40 L 1259.39,923.21 L 1282.63,919.99 L 1294.84,918.42 L 1310.57,916.51 L 1326.69,914.71 L 1343.06,913.05 L 1359.58,911.56 L 1376.10,910.27 L 1392.51,909.21 L 1408.69,908.42 L 1424.50,907.93 L 1439.83,907.76 L 1440.88,907.76 L 1441.93,907.77 L 1442.97,907.77 L 1449.14,907.83 L 1450.77,907.85 L 1451.80,907.83 L 1452.84,907.82 L 1453.88,907.80 L 1457.02,907.77 L 1458.07,907.77 L 1459.13,907.76 L 1460.18,907.76 L 1478.85,908.01 L 1498.18,908.72 L 1517.95,909.86 L 1537.96,911.36 L 1557.97,913.15 L 1577.77,915.20 L 1597.15,917.43 L 1615.88,919.79 L 1633.75,922.22 L 1696.44,932.14 L 1723.67,937.54 L 1726.00,938.05 L 1728.21,938.65 L 1730.30,939.35 L 1732.26,940.13 L 1734.10,940.98 L 1735.79,941.89 L 1737.35,942.85 L 1738.77,943.87 L 1740.04,944.91 L 1741.16,945.99 L 1742.14,947.07 L 1742.97,948.14 L 1743.66,949.22 L 1744.21,950.29 L 1744.63,951.35 L 1744.93,952.40 L 1745.10,953.44 L 1745.16,954.46 L 1745.16,955.99 L 1745.17,957.43 L 1745.17,958.88 L 1745.18,960.32 L 1744.97,1000.26 L 1745.26,1006.33 L 1746.15,1011.83 L 1747.60,1017.20 L 1749.59,1022.44 L 1752.11,1027.52 L 1755.11,1032.41 L 1758.59,1037.11 L 1762.52,1041.58 L 1766.86,1045.82 L 1771.61,1049.82 L 1776.74,1053.57 L 1782.24,1057.04 L 1788.09,1060.23 L 1794.25,1063.11 L 1800.73,1065.67 L 1807.48,1067.90 L 1814.50,1069.78 L 1821.76,1071.29 L 1827.29,1072.30 L 1871.33,1081.24 L 1891.61,1124.43 L 1974.64,1254.23 L 1982.85,1267.90 L 1990.12,1281.83 L 1996.44,1295.98 L 2001.81,1310.32 L 2006.22,1324.84 L 2009.66,1339.49 L 2012.13,1354.27 L 2013.62,1369.14 L 2014.12,1384.07 L 2014.12,1417.49 L 2013.67,1424.72 L 2012.37,1431.75 L 2010.26,1438.56 L 2007.37,1445.13 L 2003.73,1451.43 L 1999.39,1457.43 L 1994.38,1463.13 L 1988.73,1468.48 L 1982.48,1473.47 L 1975.67,1478.05 L 1968.36,1482.19 L 1960.59,1485.86 L 1952.39,1489.05 L 1943.80,1491.71 L 1934.83,1493.83 L 1925.54,1495.38 L 1915.94,1496.33 L 1906.07,1496.66 L 993.93,1496.66 L 984.07,1496.33 L 974.48,1495.38 L 965.19,1493.83 L 956.23,1491.71 L 947.63,1489.05 L 939.43,1485.86 L 931.66,1482.19 L 924.35,1478.05 L 917.54,1473.47 L 911.29,1468.47 L 905.64,1463.12 L 900.62,1457.43 L 896.28,1451.42 L 892.64,1445.12 L 889.74,1438.56 L 887.63,1431.75 L 886.33,1424.72 L 885.89,1417.49 L 885.89,1384.07 M 913.61,1107.80 M 1222.23,1315.45 L 1336.13,1315.45 L 1336.13,1398.90 L 1222.23,1398.90 L 1222.23,1315.45 M 1222.23,1201.24 L 1336.13,1201.24 L 1336.13,1284.70 L 1222.23,1284.70 L 1222.23,1201.24 M 1222.23,1087.04 L 1336.13,1087.04 L 1336.13,1170.48 L 1222.23,1170.48 L 1222.23,1087.04 M 1393.06,1315.45 L 1506.96,1315.45 L 1506.96,1398.90 L 1393.06,1398.90 L 1393.06,1315.45 M 1393.06,1201.24 L 1506.96,1201.24 L 1506.96,1284.70 L 1393.06,1284.70 L 1393.06,1201.24 M 1393.06,1087.04 L 1506.96,1087.04 L 1506.96,1170.48 L 1393.06,1170.48 L 1393.06,1087.04 M 1563.93,1315.45 L 1677.80,1315.45 L 1677.80,1398.90 L 1563.93,1398.90 L 1563.93,1315.45 M 1563.93,1201.24 L 1677.80,1201.24 L 1677.80,1284.70 L 1563.93,1284.70 L 1563.93,1201.24 M 1563.93,1087.04 L 1677.80,1087.04 L 1677.80,1170.48 L 1563.93,1170.48 L 1563.93,1087.04" fill="none" stroke="black" stroke-width="2" stroke-linecap="round" stroke-linejoin="round"/>
    </svg>