<svg width="4000" height="3000" xmlns="http://www.w3.org/2000/svg" viewBox="0 0 4000 3000">
      <path d="M 709.62,1070.00 M 814.94,1041.52 L 816.44,1041.09 L 814.94,1041.52 M 2262.70,820.36 L 2220.04,783.26 L 2163.26,750.01 L 2039.61,698.98 L 1872.76,650.98 L 1676.07,614.52 L 1466.27,600.00 L 1458.15,600.02 L 1449.95,600.11 L 1441.81,600.03 L 1433.65,600.00 L 1223.86,614.52 L 1027.19,650.98 L 860.37,698.96 L 737.62,749.59 L 679.96,783.26 L 637.30,820.36 L 609.75,861.61 L 600.00,905.74 L 612.37,954.38 L 647.23,997.81 L 678.69,1033.74 L 709.53,1069.90 L 751.09,1099.14 L 803.20,1109.06 L 822.74,1107.71 L 842.03,1103.72 L 842.19,1106.05 L 842.09,1103.76 L 858.88,1099.24 L 874.85,1095.07 L 873.88,1097.32 L 872.92,1099.58 L 780.70,1256.67 L 741.47,1348.55 L 728.17,1445.04 L 728.17,1486.32 L 729.12,1502.09 L 731.88,1517.43 L 736.37,1532.28 L 742.51,1546.56 L 750.21,1560.22 L 759.38,1573.17 L 769.95,1585.36 L 781.82,1596.72 L 794.90,1607.17 L 809.12,1616.64 L 824.38,1625.08 L 840.60,1632.41 L 857.70,1638.55 L 875.59,1643.46 L 894.18,1647.04 L 913.38,1649.25 L 933.12,1650.00 L 1966.88,1650.00 L 1986.63,1649.25 L 2005.84,1647.04 L 2024.43,1643.45 L 2042.32,1638.55 L 2059.42,1632.40 L 2075.64,1625.07 L 2090.91,1616.64 L 2105.12,1607.16 L 2118.21,1596.71 L 2130.07,1585.35 L 2140.63,1573.16 L 2149.80,1560.21 L 2157.50,1546.55 L 2163.64,1532.27 L 2168.13,1517.42 L 2170.89,1502.08 L 2171.83,1486.32 L 2171.83,1445.04 L 2158.54,1348.55 L 2119.30,1256.67 L 2027.09,1099.58 L 2025.15,1095.05 L 2041.11,1099.22 L 2057.03,1103.50 L 2076.81,1107.67 L 2096.77,1109.04 L 2148.92,1099.11 L 2190.23,1070.13 L 2221.31,1033.75 L 2252.87,997.75 L 2287.68,954.32 L 2300.00,905.72 L 2290.27,861.59 L 2262.70,820.36 M 2096.77,1043.15 L 2090.89,1042.75 L 2085.01,1041.52 L 1988.61,1016.00 L 1890.97,994.66 L 1880.96,991.26 L 1873.27,985.78 L 1868.44,979.01 L 1866.79,971.50 L 1866.98,950.99 L 1867.04,930.49 L 1867.01,914.23 L 1860.34,885.30 L 1842.17,860.45 L 1817.80,843.07 L 1787.55,831.52 L 1786.46,831.13 L 1781.39,829.63 L 1778.13,828.84 L 1760.68,825.09 L 1733.71,819.90 L 1610.45,801.08 L 1461.55,790.77 L 1455.76,790.80 L 1450.00,790.88 L 1444.24,790.80 L 1438.48,790.77 L 1328.90,796.75 L 1226.15,809.84 L 1183.22,816.87 L 1149.18,823.13 L 1136.21,825.72 L 1126.19,827.85 L 1122.26,828.74 L 1118.84,829.59 L 1116.80,830.16 L 1114.76,830.72 L 1113.79,831.04 L 1112.61,831.45 L 1082.24,843.03 L 1057.80,860.47 L 1039.66,885.31 L 1032.99,914.32 L 1032.96,921.41 L 1033.02,950.02 L 1033.23,971.46 L 1031.56,978.99 L 1026.73,985.81 L 1019.02,991.29 L 1009.03,994.68 L 911.48,1015.99 L 815.20,1041.46 L 809.04,1042.77 L 803.20,1043.17 L 788.56,1040.44 L 778.06,1033.20 L 746.19,995.87 L 712.16,957.02 L 710.34,955.48 L 688.87,929.94 L 682.49,905.74 L 687.49,883.60 L 704.16,858.95 L 734.85,832.43 L 780.70,805.76 L 892.38,759.72 L 1050.77,714.12 L 1237.35,679.52 L 1433.65,665.88 L 1441.47,665.91 L 1449.30,665.99 L 1450.70,665.99 L 1458.45,665.91 L 1466.27,665.88 L 1662.59,679.53 L 1849.21,714.12 L 2007.63,759.73 L 2118.47,805.33 L 2165.16,832.43 L 2195.86,858.95 L 2212.52,883.59 L 2217.51,905.72 L 2211.14,929.95 L 2189.69,955.47 L 2187.86,957.04 L 2187.08,957.91 L 2186.31,958.78 L 2153.80,995.86 L 2121.91,1033.20 L 2111.48,1040.41 L 2096.77,1043.15 M 810.67,1445.03 L 821.98,1362.87 L 855.41,1284.63 L 949.50,1124.32 L 972.46,1070.94 L 1000.51,1064.63 L 1028.66,1058.67 L 1063.38,1046.82 L 1090.89,1027.19 L 1108.80,1001.96 L 1115.59,972.61 L 1115.73,970.89 L 1115.52,949.74 L 1115.48,914.36 L 1116.86,908.51 L 1121.31,902.52 L 1129.02,897.15 L 1139.78,893.45 L 1170.64,887.06 L 1215.68,878.70 L 1274.16,869.82 L 1356.89,860.50 L 1438.48,856.65 L 1443.79,856.67 L 1449.03,856.73 L 1450.88,856.75 L 1456.17,856.68 L 1461.54,856.65 L 1561.04,862.15 L 1658.25,874.51 L 1697.82,881.00 L 1729.30,886.76 L 1760.16,893.43 L 1770.96,897.14 L 1778.71,902.54 L 1783.14,908.52 L 1784.51,914.34 L 1784.54,930.49 L 1784.48,950.71 L 1784.29,970.91 L 1790.89,1001.47 L 1809.11,1027.19 L 1836.61,1046.81 L 1871.33,1058.65 L 1899.47,1064.61 L 1927.51,1070.94 L 1950.50,1124.30 L 2044.59,1284.63 L 2078.02,1362.87 L 2089.33,1445.03 L 2089.33,1486.32 L 2079.73,1524.38 L 2053.48,1555.46 L 2014.56,1576.43 L 1966.88,1584.11 L 933.12,1584.11 L 885.46,1576.43 L 846.55,1555.46 L 820.28,1524.38 L 810.67,1486.32 L 810.67,1445.03 M 842.09,1103.76 M 1191.86,1360.26 L 1320.94,1360.26 L 1320.94,1463.35 L 1191.86,1463.35 L 1191.86,1360.26 M 1191.86,1219.18 L 1320.94,1219.18 L 1320.94,1322.27 L 1191.86,1322.27 L 1191.86,1219.18 M 1191.86,1078.11 L 1320.94,1078.11 L 1320.94,1181.18 L 1191.86,1181.18 L 1191.86,1078.11 M 1385.47,1360.26 L 1514.56,1360.26 L 1514.56,1463.35 L 1385.47,1463.35 L 1385.47,1360.26 M 1385.47,1219.18 L 1514.56,1219.18 L 1514.56,1322.27 L 1385.47,1322.27 L 1385.47,1219.18 M 1385.47,1078.11 L 1514.56,1078.11 L 1514.56,1181.18 L 1385.47,1181.18 L 1385.47,1078.11 M 1579.12,1360.26 L 1708.18,1360.26 L 1708.18,1463.35 L 1579.12,1463.35 L 1579.12,1360.26 M 1579.12,1219.18 L 1708.18,1219.18 L 1708.18,1322.27 L 1579.12,1322.27 L 1579.12,1219.18 M 1579.12,1078.11 L 1708.18,1078.11 L 1708.18,1181.18 L 1579.12,1181.18 L 1579.12,1078.11" fill="none" stroke="black" stroke-width="2" stroke-linecap="round" stroke-linejoin="round"/>
    </svg>