<svg width="4000" height="3000" xmlns="http://www.w3.org/2000/svg" viewBox="0 0 4000 3000">
      <path d="M 1134.37,621.02 L 1123.47,676.20 L 1120.74,731.39 L 1126.19,791.82 L 1118.01,852.26 L 1112.56,920.58 L 1101.66,983.65 L 1090.75,1067.74 L 1085.30,1128.18 L 1082.57,1191.24 L 1074.39,1254.31 L 1068.94,1317.37 L 1058.03,1380.44 L 1049.85,1448.76 L 1041.67,1509.20 L 1030.77,1569.64 L 1019.86,1656.35 L 998.05,1716.79 L 940.80,1732.55 L 880.82,1750.95 L 815.38,1758.83 L 752.68,1766.72 L 684.52,1790.36 L 638.17,1816.64 L 717.23,1771.97 L 777.22,1766.72 L 845.37,1766.72 L 908.08,1774.60 L 970.79,1779.85 L 992.60,1829.78 L 1019.86,1871.82 L 1028.04,1929.64 L 1030.77,1995.33 L 1041.67,2058.39 L 1044.40,2005.84 L 1088.02,2032.12 L 1150.73,2047.88 L 1199.81,2008.47 L 1158.91,2042.63 L 1216.16,2018.98 L 1139.82,2082.04 L 1093.48,2134.60 L 1137.10,2258.10 L 1164.36,2321.17 L 1197.08,2381.61 L 1158.91,2308.03 L 1139.82,2260.73 L 1101.66,2226.57 M 1118.01,2218.69 L 1134.37,2294.89 L 1079.84,2268.61 L 1044.40,2334.31 M 992.60,2244.96 M 1038.95,2147.74 L 1085.30,2126.72 L 1126.19,2089.93 L 1188.90,2034.74 L 1139.82,2071.53 L 1101.66,2121.46 L 1077.12,2071.53 L 1085.30,2131.97 L 1079.84,2187.15 L 1107.11,2247.59 L 1131.65,2310.66 L 1137.10,2394.74 M 957.16,2386.86 M 916.26,2229.20 L 872.64,2179.27 M 867.19,2197.66 L 910.81,2271.24 L 850.83,2258.10 M 812.66,2268.61 L 769.04,2237.08 L 826.29,2273.87 L 861.73,2321.17 L 886.27,2389.49 M 785.39,2392.12 M 684.52,2289.64 L 640.90,2329.05 L 689.97,2281.75 M 616.36,2195.04 L 646.35,2150.36 M 668.16,2074.16 L 736.32,2042.63 L 788.12,2076.79 L 834.47,2113.58 L 872.64,2163.50 L 918.99,2226.57 L 962.61,2152.99 L 918.99,2110.95 L 872.64,2050.51 L 918.99,2097.81 L 965.34,2145.11 L 989.87,2205.55 M 1101.66,2074.16 M 962.61,2089.93 L 943.52,2037.37 L 875.37,1950.66 L 831.74,1913.87 L 788.12,1884.96 L 829.02,1916.50 L 875.37,1958.54 L 929.89,2040.00 L 962.61,2100.44 L 894.45,2042.63 L 848.10,1992.70 L 883.54,2034.74 L 829.02,2050.51 L 872.64,2079.42 L 916.26,2134.60 L 826.29,2110.95 L 769.04,2071.53 L 818.11,2058.39 L 867.19,2095.18 L 924.44,2155.62 M 777.22,2129.34 L 837.20,2171.39 L 883.54,2213.43 L 916.26,2276.50 L 940.80,2342.19 M 1325.22,2284.38 L 1393.38,2321.17 L 1439.73,2342.19 L 1423.37,2292.26 L 1483.35,2313.28 L 1535.15,2263.36 L 1556.96,2210.80 L 1611.49,2163.50 L 1570.59,2221.31 L 1627.85,2155.62 L 1589.68,2205.55 L 1529.70,2208.18 L 1581.50,2195.04 L 1565.14,2252.85 L 1578.77,2310.66 L 1551.51,2352.70 M 1671.47,2213.43 L 1633.30,2263.36 M 1674.20,2376.35 M 1826.87,2363.21 L 1878.68,2302.77 L 1829.60,2339.56 L 1878.68,2294.89 M 1810.52,2378.98 L 1813.24,2315.91 L 1821.42,2252.85 L 1832.33,2192.41 M 1799.61,2084.67 L 1747.81,2074.16 L 1813.24,2113.58 L 1780.53,2037.37 M 1706.91,2145.11 L 1657.84,2176.64 L 1638.75,2121.46 L 1641.48,2192.41 L 1622.40,2255.47 L 1595.13,2315.91 L 1630.57,2255.47 M 1736.90,2313.28 L 1728.72,2250.22 L 1709.64,2189.78 L 1690.56,2131.97 L 1704.19,2068.91 L 1715.09,2005.84 L 1682.38,1924.38 L 1655.11,1869.20 L 1595.13,1853.43 L 1559.69,1903.36 L 1526.97,1948.03 L 1486.08,2008.47 L 1456.09,2071.53 L 1442.45,2124.09 M 1387.93,2189.78 L 1439.73,2221.31 L 1513.34,2221.31 L 1584.23,2152.99 L 1627.85,2118.83 L 1592.41,2155.62 L 1548.78,2200.29 L 1548.78,2263.36 L 1559.69,2321.17 L 1496.98,2384.23 L 1483.35,2318.54 L 1488.80,2255.47 L 1518.79,2192.41 L 1543.33,2131.97 L 1562.41,2063.65 L 1513.34,2103.07 L 1518.79,2018.98 L 1559.69,1955.91 L 1597.86,1892.85 L 1633.30,1837.66 L 1611.49,1887.59 L 1611.49,1942.77 L 1608.76,1995.33 L 1589.68,2053.14 L 1606.04,2103.07 L 1589.68,2050.51 L 1567.87,1992.70 L 1589.68,1929.64 L 1616.94,1887.59 L 1657.84,1934.89 L 1698.73,1974.31 L 1690.56,2034.74 L 1685.10,2087.30 L 1674.20,2145.11 L 1614.22,2181.90 L 1584.23,2226.57 L 1526.97,2213.43 L 1532.42,2265.99 L 1540.60,2331.68 M 1516.07,2184.53 L 1540.60,2139.85 L 1502.43,2187.15 L 1524.25,2139.85 L 1584.23,2103.07 L 1537.88,2147.74 L 1505.16,2208.18 L 1477.90,2268.61 L 1483.35,2352.70 L 1466.99,2281.75 L 1420.64,2229.20 M 1516.07,2160.88 L 1480.62,2210.80 M 1556.96,2061.02 L 1567.87,1979.56 L 1614.22,1940.15 L 1627.85,1992.70 L 1685.10,2005.84 L 1666.02,2066.28 L 1638.75,2110.95 L 1559.69,2174.01 L 1505.16,2234.45 L 1488.80,2292.26 L 1494.26,2342.19 L 1407.01,2313.28 L 1363.39,2281.75 L 1404.28,2313.28 L 1377.02,2265.99 L 1333.40,2223.94 L 1387.93,2281.75 L 1431.55,2323.80 L 1390.65,2371.09 L 1349.76,2331.68 L 1390.65,2378.98 L 1423.37,2313.28 L 1377.02,2271.24 L 1341.58,2229.20 L 1303.41,2168.76 L 1357.94,2213.43 L 1398.83,2242.34 L 1379.75,2171.39 L 1396.11,2105.69 L 1374.29,2050.51 L 1325.22,2121.46 L 1278.87,2152.99 L 1265.24,2087.30 L 1246.15,2021.61 L 1213.44,1942.77 L 1191.63,1879.71 L 1164.36,1816.64 L 1142.55,1753.58 L 1128.92,1690.51 L 1153.46,1630.07 L 1139.82,1687.88 L 1180.72,1766.72 L 1213.44,1848.18 L 1232.52,1913.87 L 1257.06,1976.93 L 1287.05,2040.00 L 1284.32,1987.45 L 1237.97,2021.61 L 1213.44,1971.68 L 1191.63,1921.75 L 1237.97,1992.70 L 1262.51,2047.88 L 1273.42,2116.20 L 1317.04,2147.74 L 1371.57,2131.97 L 1379.75,2063.65 L 1355.21,2137.23 L 1352.48,2200.29 L 1409.74,2189.78 L 1428.82,2252.85 L 1458.81,2294.89 L 1466.99,2357.96 L 1390.65,2321.17 L 1434.27,2357.96 M 1360.66,2160.88 L 1347.03,2103.07 L 1322.49,2163.50 L 1352.48,2103.07 L 1379.75,2058.39 L 1396.11,2116.20 M 1529.70,2003.21 L 1576.05,1934.89 L 1622.40,1848.18 L 1644.21,1800.88 L 1696.01,1756.20 L 1739.63,1716.79 L 1769.62,1651.09 L 1802.34,1585.40 L 1832.33,1522.34 L 1845.96,1459.27 L 1865.04,1398.83 L 1862.32,1333.14 L 1821.42,1293.72 M 1851.41,1293.72 L 1867.77,1356.79 L 1865.04,1419.85 L 1843.23,1482.92 L 1824.15,1548.61 L 1794.16,1616.93 L 1758.71,1680.00 L 1720.55,1740.44 L 1676.92,1782.48 L 1619.67,1821.90 L 1679.65,1777.23 L 1720.55,1743.07 L 1807.79,1580.15 L 1826.87,1530.22 L 1859.59,1569.64 L 1845.96,1632.70 L 1794.16,1698.39 L 1826.87,1653.72 L 1755.99,1703.65 L 1810.52,1653.72 L 1856.86,1601.17 L 1903.21,1572.26 L 1965.92,1511.82 L 2012.27,1475.04 L 2058.62,1443.50 L 2167.67,1377.81 L 2214.02,1346.28 L 2178.58,1388.32 L 2224.93,1359.42 L 2287.63,1398.83 L 2246.74,1438.25 L 2208.57,1482.92 L 2115.87,1551.24 L 2025.90,1593.28 L 1949.56,1635.33 L 1878.68,1677.37 L 1935.93,1640.58 L 2004.09,1606.42 L 2047.71,1580.15 L 2110.42,1548.61 L 2170.40,1503.94 L 2233.11,1456.64 L 2276.73,1411.97 L 2224.93,1372.55 L 2284.91,1398.83 L 2317.62,1438.25 L 2374.88,1509.20 L 2418.50,1577.52 L 2462.12,1622.19 L 2530.28,1637.96 L 2595.72,1630.07 L 2644.79,1651.09 L 2620.25,1698.39 L 2603.89,1745.69 L 2603.89,1808.76 L 2576.63,1856.06 L 2620.25,1769.34 L 2603.89,1824.53 L 2579.36,1903.36 L 2612.07,1861.31 L 2661.15,1811.39 M 2685.69,1795.62 L 2685.69,1729.93 L 2734.76,1766.72 L 2732.04,1687.88 L 2718.40,1627.45 L 2699.32,1580.15 L 2652.97,1640.58 L 2609.35,1706.28 L 2584.81,1771.97 L 2614.80,1695.77 L 2658.42,1632.70 L 2680.23,1574.89 L 2609.35,1637.96 L 2554.82,1674.74 L 2511.20,1703.65 L 2500.29,1769.34 L 2513.92,1821.90 L 2541.19,1869.20 L 2592.99,1861.31 M 2519.38,1771.97 L 2516.65,1821.90 L 2500.29,1758.83 L 2459.40,1698.39 L 2415.77,1651.09 L 2372.15,1598.54 L 2325.80,1511.82 L 2358.52,1572.26 L 2385.78,1614.31 L 2423.95,1656.35 L 2483.93,1722.04 L 2522.10,1792.99 L 2541.19,1853.43 L 2554.82,1908.61 L 2535.74,1974.31 L 2475.75,2008.47 L 2516.65,1976.93 L 2554.82,2011.09 L 2568.45,2076.79 L 2533.01,2139.85 L 2601.17,2134.60 L 2543.91,2168.76 L 2505.74,2205.55 L 2546.64,2174.01 L 2554.82,2237.08 L 2546.64,2305.40 L 2541.19,2355.33 L 2598.44,2342.19 L 2644.79,2318.54 L 2571.18,2355.33 L 2533.01,2315.91 L 2549.37,2242.34 L 2492.11,2234.45 M 2478.48,2342.19 L 2432.13,2381.61 L 2410.32,2315.91 L 2388.51,2260.73 L 2374.88,2210.80 M 2306.72,2118.83 L 2279.45,2047.88 L 2271.28,1992.70 L 2235.83,1911.24 L 2263.10,1992.70 L 2306.72,2055.77 M 2224.93,2108.32 L 2173.13,2110.95 L 2211.30,2071.53 L 2159.49,2079.42 L 2137.68,2139.85 L 2192.21,2113.58 M 2102.24,2223.94 L 2129.50,2158.25 L 2121.32,2103.07 L 2132.23,2040.00 L 2126.78,1976.93 L 2132.23,2037.37 L 2118.60,2100.44 L 2178.58,2040.00 L 2151.31,2100.44 L 2121.32,2171.39 L 2088.61,2213.43 M 2069.52,2313.28 L 2115.87,2371.09 L 2178.58,2308.03 M 2110.42,2223.94 M 2053.16,2124.09 L 2077.70,2179.27 L 2091.33,2244.96 L 2050.44,2155.62 L 2004.09,2121.46 L 2020.45,2174.01 L 2044.99,2239.71 L 1985.00,2231.82 L 1993.18,2160.88 L 1949.56,2187.15 L 1963.19,2129.34 M 2061.34,2066.28 L 2017.72,2024.23 L 1974.10,1997.96 L 1963.19,1927.01 L 1971.37,1987.45 L 2028.63,2026.86 L 2066.80,2068.91 M 1968.65,1877.08 L 1944.11,1827.15 L 1968.65,1874.45 L 1995.91,1916.50 L 1916.85,1911.24 L 1930.48,1974.31 L 1935.93,2040.00 L 1933.20,2103.07 L 1933.20,2158.25 L 1922.30,2071.53 L 1914.12,2000.58 M 2015.00,1853.43 L 1993.18,1806.13 L 1949.56,1756.20 L 1903.21,1727.30 L 1960.47,1769.34 L 1993.18,1819.27 L 2023.17,1879.71 L 2047.71,1940.15 L 2064.07,2000.58 L 2083.15,2061.02 L 2094.06,2124.09 L 2134.96,2053.14 M 2050.44,1942.77 L 2025.90,1882.34 L 2001.36,1832.41 L 1955.01,1769.34 L 1908.67,1737.81 L 1952.29,1771.97 L 1993.18,1832.41 L 2023.17,1898.10 L 2044.99,1958.54 L 2066.80,2021.61 M 2126.78,1903.36 L 2208.57,1884.96 L 2252.19,1840.29 L 2222.20,1890.22 L 2257.64,1819.27 L 2205.84,1798.25 L 2274.00,1803.50 L 2323.08,1785.11 L 2374.88,1808.76 L 2402.14,1911.24 L 2415.77,1976.93 L 2437.59,2042.63 L 2448.49,2105.69 L 2456.67,2166.13 L 2464.85,2231.82 L 2470.30,2294.89 L 2473.03,2357.96 L 2524.83,2334.31 L 2497.57,2376.35 M 2606.62,2378.98 L 2677.51,2373.72 M 2691.14,2213.43 L 2652.97,2255.47 L 2691.14,2213.43 L 2753.85,2218.69 M 2800.19,2100.44 L 2876.53,2050.51 L 2917.43,1982.19 L 2961.05,1945.40 L 2892.89,1992.70 L 2865.63,2037.37 L 2852.00,2097.81 L 2838.36,2166.13 L 2890.17,2189.78 L 2939.24,2131.97 L 2950.15,2076.79 L 2928.33,2129.34 L 2961.05,2068.91 L 2985.59,2013.72 L 3031.94,2042.63 L 3097.37,2074.16 L 3160.08,2129.34 L 3203.70,2195.04 L 3271.86,2237.08 L 3342.75,2258.10 L 3386.37,2300.15 L 3334.57,2300.15 L 3301.85,2347.45 L 3334.57,2302.77 L 3383.64,2260.73 L 3318.21,2231.82 L 3277.31,2179.27 L 3209.15,2118.83 L 3299.12,2084.67 L 3342.75,2055.77 L 3389.09,2013.72 L 3356.38,2055.77 L 3307.30,2097.81 L 3345.47,2061.02 L 3361.83,2011.09 L 3320.93,2040.00 L 3258.23,2053.14 L 3310.03,2040.00 L 3350.93,1995.33 L 3296.40,2013.72 L 3228.24,2011.09 L 3168.26,2000.58 L 3108.28,2000.58 M 2982.86,2011.09 L 2971.96,2076.79 L 2958.33,2139.85 L 2944.69,2205.55 L 2931.06,2268.61 L 2980.14,2250.22 L 3023.76,2216.06 L 2931.06,2271.24 L 2982.86,2273.87 L 3026.48,2244.96 L 2982.86,2279.12 L 2928.33,2321.17 L 2860.18,2357.96 L 2819.28,2386.86 L 2884.71,2342.19 L 2928.33,2313.28 L 2974.68,2284.38 L 3001.95,2350.07 L 2941.97,2392.12 L 3010.13,2321.17 L 3051.02,2292.26 L 3094.64,2263.36 L 3045.57,2323.80 L 2988.32,2373.72 L 2936.51,2376.35 M 3097.37,2360.58 L 3053.75,2392.12 L 3089.19,2339.56 L 3045.57,2368.47 L 2996.49,2400.00 L 3053.75,2360.58 M 3089.19,2386.86 L 3165.53,2323.80 L 3200.97,2281.75 L 3149.17,2310.66 M 3184.62,2195.04 L 3140.99,2234.45 L 3108.28,2287.01 L 3045.57,2329.05 L 3100.10,2289.64 L 3113.73,2239.71 L 3053.75,2250.22 L 3078.29,2205.55 L 3121.91,2239.71 L 3078.29,2268.61 L 3018.31,2310.66 L 2944.69,2373.72 M 3056.48,2265.99 L 3001.95,2318.54 L 2941.97,2318.54 L 2909.25,2357.96 L 2955.60,2331.68 L 2911.98,2363.21 L 2871.08,2394.74 L 2928.33,2357.96 L 2961.05,2315.91 L 3015.58,2273.87 L 3070.11,2237.08 L 3001.95,2265.99 L 2939.24,2302.77 L 2881.99,2368.47 M 3067.38,2163.50 L 3059.20,2110.95 L 3124.63,2129.34 L 3151.90,2179.27 L 3146.45,2247.59 L 3198.25,2223.94 L 3168.26,2268.61 L 3233.69,2281.75 L 3293.67,2260.73 L 3263.68,2310.66 L 3301.85,2276.50 L 3258.23,2329.05 L 3222.78,2373.72 L 3263.68,2321.17 L 3222.78,2355.33 L 3187.34,2394.74 L 3239.14,2360.58 L 3304.58,2294.89 L 3252.78,2326.42 L 3209.15,2368.47 L 3318.21,2400.00 M 3239.14,2287.01 L 3198.25,2242.34 M 3225.51,2108.32 L 3293.67,2097.81 L 3266.41,2026.86 M 3214.61,2076.79 L 3260.95,2139.85 L 3310.03,2181.90 L 3263.68,2147.74 L 3225.51,2108.32 L 3200.97,2063.65 L 3187.34,2011.09 L 3132.81,1971.68 L 3181.89,2024.23 L 3195.52,2087.30 L 3225.51,2129.34 L 3269.13,2174.01 L 3340.02,2242.34 L 3280.04,2234.45 L 3214.61,2192.41 L 3181.89,2152.99 L 3124.63,2160.88 L 3056.48,2202.92 L 3015.58,2231.82 L 2928.33,2284.38 L 2881.99,2313.28 L 2838.36,2344.82 L 2792.02,2376.35 L 2841.09,2344.82 L 2939.24,2281.75 L 3007.40,2239.71 L 3067.38,2202.92 L 3132.81,2158.25 L 3151.90,2105.69 L 3072.83,2066.28 L 2993.77,2024.23 L 3034.66,2055.77 L 2996.49,2116.20 L 3045.57,2074.16 L 3113.73,2061.02 L 3176.44,2040.00 M 3220.06,1976.93 M 3211.88,1948.03 L 3149.17,1950.66 M 3217.33,2024.23 L 3252.78,2076.79 L 3315.48,2097.81 L 3361.83,2050.51 L 3391.82,2008.47 L 3345.47,1979.56 L 3299.12,2003.21 M 3299.12,1905.99 L 3255.50,1932.26 L 3329.11,1869.20 L 3389.09,1866.57 L 3370.01,1800.88 L 3353.65,1737.81 L 3348.20,1806.13 L 3296.40,1816.64 L 3334.57,1874.45 L 3329.11,1932.26 L 3386.37,1911.24 L 3394.55,1861.31 L 3331.84,1795.62 L 3326.39,1882.34 L 3329.11,1940.15 L 3304.58,1853.43 L 3239.14,1858.69 L 3149.17,1874.45 L 3083.74,1874.45 L 3102.82,1821.90 L 3086.47,1884.96 L 3102.82,1937.52 L 3173.71,1932.26 L 3241.87,1927.01 L 3250.05,1845.55 L 3192.79,1842.92 L 3151.90,1879.71 L 3127.36,1835.04 L 3190.07,1845.55 L 3127.36,1866.57 M 3102.82,1887.59 L 3127.36,1942.77 L 3072.83,1929.64 L 3010.13,1948.03 L 2991.04,1884.96 L 2955.60,1940.15 L 2903.80,1979.56 L 2947.42,1942.77 M 3001.95,1837.66 L 3048.30,1808.76 L 3072.83,1871.82 L 3075.56,1932.26 M 3083.74,1832.41 L 3127.36,1806.13 L 3195.52,1795.62 L 3258.23,1771.97 L 3299.12,1743.07 L 3350.93,1774.60 M 3198.25,1729.93 L 3089.19,1750.95 L 3023.76,1729.93 L 3111.00,1687.88 L 3176.44,1674.74 L 3239.14,1674.74 L 3310.03,1674.74 L 3334.57,1735.18 L 3293.67,1774.60 L 3353.65,1779.85 L 3386.37,1842.92 L 3386.37,1905.99 L 3386.37,1969.05 L 3364.56,2034.74 L 3315.48,2076.79 L 3353.65,2013.72 L 3312.76,2055.77 L 3274.59,2097.81 L 3277.31,2150.36 L 3334.57,2147.74 L 3389.09,2071.53 L 3361.83,2113.58 L 3329.11,2155.62 M 3274.59,1856.06 L 3217.33,1869.20 L 3124.63,1892.85 L 3059.20,1869.20 L 3105.55,1819.27 L 3132.81,1769.34 L 3089.19,1800.88 L 3149.17,1756.20 L 3214.61,1748.32 L 3184.62,1690.51 L 3157.35,1732.55 L 3192.79,1769.34 L 3255.50,1750.95 M 3233.69,1651.09 L 3230.96,1588.03 L 3247.32,1640.58 L 3206.43,1601.17 L 3165.53,1630.07 L 3138.27,1585.40 L 3105.55,1653.72 L 3100.10,1708.91 L 3146.45,1737.81 L 3108.28,1787.74 L 3059.20,1824.53 L 3040.12,1887.59 L 3064.65,1808.76 L 3023.76,1874.45 L 3048.30,1803.50 L 3048.30,1727.30 L 3031.94,1779.85 L 3001.95,1824.53 L 3004.67,1879.71 L 2966.50,1924.38 M 2892.89,1761.46 M 2849.27,1677.37 L 2808.37,1716.79 L 2860.18,1756.20 L 2868.35,1666.86 L 2824.73,1601.17 L 2781.11,1514.45 L 2813.83,1574.89 L 2849.27,1637.96 L 2865.63,1701.02 L 2881.99,1766.72 L 2887.44,1842.92 L 2887.44,1900.73 M 2770.20,1832.41 L 2729.31,1798.25 L 2707.50,1863.94 L 2710.22,1932.26 L 2702.04,1984.82 L 2707.50,1927.01 L 2696.59,1871.82 L 2680.23,1808.76 L 2628.43,1850.80 L 2682.96,1808.76 L 2633.89,1735.18 L 2642.06,1664.23 L 2601.17,1732.55 L 2650.24,1698.39 L 2691.14,1648.47 L 2740.21,1666.86 L 2742.94,1729.93 L 2762.03,1819.27 L 2772.93,1905.99 L 2778.38,1969.05 L 2778.38,2053.14 L 2786.56,2116.20 L 2783.84,2179.27 L 2781.11,2258.10 L 2786.56,2323.80 M 2704.77,2124.09 L 2682.96,2192.41 L 2639.34,2242.34 L 2691.14,2187.15 L 2726.58,2139.85 L 2756.57,2097.81 L 2715.68,2016.35 L 2696.59,2076.79 L 2661.15,2118.83 L 2614.80,2160.88 L 2573.90,2202.92 M 2508.47,1940.15 L 2464.85,1903.36 L 2418.50,1869.20 L 2478.48,1908.61 L 2415.77,1884.96 L 2429.41,1948.03 L 2445.76,2008.47 L 2459.40,2068.91 L 2470.30,2131.97 L 2478.48,2195.04 L 2475.75,2260.73 M 2729.31,1974.31 M 2762.03,1714.16 L 2718.40,1687.88 L 2685.69,1732.55 L 2677.51,1792.99 L 2612.07,1837.66 L 2587.54,1882.34 L 2590.26,1948.03 M 2516.65,1877.08 L 2459.40,1837.66 L 2393.96,1814.01 L 2399.42,1748.32 L 2383.06,1666.86 L 2413.05,1727.30 L 2358.52,1716.79 L 2377.60,1779.85 L 2396.69,1845.55 L 2453.94,1777.23 L 2497.57,1750.95 L 2451.22,1779.85 L 2423.95,1821.90 L 2478.48,1845.55 L 2527.56,1879.71 L 2565.73,1916.50 L 2560.27,1992.70 L 2573.90,2053.14 L 2568.45,2124.09 L 2571.18,2210.80 L 2622.98,2160.88 L 2666.60,2118.83 L 2710.22,2063.65 M 2832.91,1651.09 L 2794.74,1567.01 L 2772.93,1519.71 L 2802.92,1567.01 L 2832.91,1630.07 L 2862.90,1672.12 L 2963.78,1669.49 L 3037.39,1706.28 M 3165.53,1716.79 M 3236.42,1622.19 L 3274.59,1580.15 L 3304.58,1532.85 L 3269.13,1485.55 L 3198.25,1522.34 L 3244.60,1490.80 L 3258.23,1556.50 L 3274.59,1619.56 L 3200.97,1658.98 L 3190.07,1595.91 L 3130.09,1561.75 L 3072.83,1496.06 L 3026.48,1438.25 L 2961.05,1411.97 L 3004.67,1446.13 L 3034.66,1490.80 L 3045.57,1556.50 L 3059.20,1643.21 L 3113.73,1677.37 L 3138.27,1616.93 M 3078.29,1485.55 L 3034.66,1425.11 L 2980.14,1396.20 L 3037.39,1430.36 L 3072.83,1472.41 L 3105.55,1538.10 L 3151.90,1580.15 L 3181.89,1622.19 M 3320.93,1551.24 L 3320.93,1488.18 L 3263.68,1464.53 L 3269.13,1519.71 L 3274.59,1574.89 L 3293.67,1632.70 L 3331.84,1674.74 L 3356.38,1743.07 L 3337.29,1682.63 L 3296.40,1640.58 L 3310.03,1585.40 L 3301.85,1535.47 L 3301.85,1469.78 L 3296.40,1404.09 L 3329.11,1346.28 L 3394.55,1296.35 L 3378.19,1207.01 L 3334.57,1154.45 L 3380.92,1191.24 L 3340.02,1138.69 L 3348.20,1080.88 L 3361.83,1015.18 L 3370.01,960.00 L 3375.46,896.93 L 3380.92,844.38 L 3372.74,933.72 L 3364.56,999.42 L 3356.38,1062.48 L 3372.74,1133.43 L 3312.76,1122.92 L 3342.75,1188.61 L 3359.10,1251.68 L 3367.28,1314.74 L 3364.56,1377.81 L 3361.83,1438.25 L 3342.75,1496.06 M 3195.52,1385.69 L 3230.96,1333.14 L 3277.31,1254.31 L 3233.69,1209.64 L 3230.96,1157.08 L 3217.33,1214.89 L 3211.88,1275.33 L 3239.14,1341.02 L 3230.96,1446.13 L 3222.78,1496.06 L 3206.43,1561.75 L 3217.33,1627.45 L 3280.04,1669.49 L 3334.57,1703.65 L 3353.65,1766.72 L 3372.74,1892.85 L 3370.01,1955.91 L 3342.75,2013.72 M 3029.21,1490.80 L 2988.32,1438.25 L 3034.66,1406.72 L 3056.48,1459.27 L 3086.47,1501.31 L 3105.55,1585.40 L 3091.92,1669.49 M 2846.54,1535.47 M 2753.85,1480.29 L 2778.38,1430.36 L 2819.28,1341.02 L 2832.91,1393.58 L 2764.75,1398.83 L 2740.21,1446.13 M 2797.47,1320.00 L 2819.28,1259.56 L 2770.20,1217.52 L 2816.55,1254.31 L 2800.19,1320.00 M 2748.39,1259.56 L 2696.59,1246.42 L 2742.94,1270.07 L 2691.14,1233.28 L 2606.62,1180.73 L 2543.91,1162.34 L 2473.03,1164.96 L 2486.66,1220.15 M 2489.39,1172.85 L 2462.12,1222.77 M 2456.67,1220.15 L 2508.47,1262.19 L 2557.55,1238.54 L 2612.07,1225.40 L 2631.16,1275.33 L 2631.16,1338.39 L 2693.87,1351.53 L 2762.03,1362.04 L 2824.73,1306.86 L 2808.37,1367.30 L 2767.48,1451.39 L 2726.58,1511.82 L 2680.23,1556.50 L 2647.52,1595.91 L 2609.35,1635.33 L 2652.97,1588.03 L 2696.59,1627.45 L 2685.69,1690.51 L 2740.21,1766.72 L 2734.76,1703.65 L 2726.58,1637.96 L 2715.68,1574.89 L 2707.50,1632.70 L 2682.96,1695.77 M 2568.45,1627.45 L 2546.64,1561.75 L 2590.26,1590.66 L 2601.17,1509.20 L 2538.46,1501.31 L 2470.30,1469.78 L 2513.92,1501.31 L 2582.08,1511.82 L 2530.28,1482.92 L 2478.48,1477.66 M 2451.22,1548.61 L 2513.92,1572.26 L 2462.12,1556.50 L 2418.50,1519.71 L 2372.15,1545.99 L 2383.06,1601.17 L 2426.68,1648.47 L 2470.30,1693.14 L 2511.20,1735.18 M 2423.95,1614.31 L 2383.06,1580.15 L 2353.07,1527.59 L 2393.96,1564.38 L 2342.16,1601.17 M 2325.80,1551.24 L 2358.52,1614.31 M 2303.99,1745.69 M 2192.21,1687.88 L 2151.31,1635.33 L 2178.58,1680.00 L 2186.76,1743.07 L 2216.75,1803.50 L 2219.47,1866.57 L 2224.93,1932.26 L 2252.19,1995.33 L 2274.00,2055.77 L 2328.53,2108.32 M 1927.75,1861.31 L 1881.40,1792.99 L 1840.51,1745.69 L 1780.53,1722.04 L 1835.05,1753.58 L 1870.50,1792.99 L 1914.12,1850.80 L 1938.66,1916.50 L 1955.01,1979.56 L 1968.65,2034.74 L 1995.91,2097.81 L 1987.73,2160.88 L 2036.81,2208.18 L 2047.71,2268.61 L 2085.88,2331.68 L 2113.15,2373.72 M 1709.64,1971.68 L 1687.83,1924.38 L 1652.39,1879.71 L 1663.29,1942.77 L 1619.67,1969.05 L 1597.86,2034.74 L 1551.51,2076.79 L 1524.25,2139.85 L 1475.17,2200.29 M 1437.00,2037.37 L 1415.19,1979.56 L 1475.17,1927.01 M 1466.99,1908.61 L 1516.07,1879.71 L 1453.36,1921.75 L 1385.20,1971.68 L 1401.56,2021.61 L 1363.39,2068.91 L 1319.77,2126.72 L 1300.68,2174.01 L 1330.67,2276.50 L 1344.30,2342.19 L 1303.41,2231.82 L 1289.78,2168.76 L 1284.32,2105.69 L 1265.24,2042.63 L 1240.70,1979.56 L 1213.44,1911.24 L 1183.45,1848.18 L 1164.36,1792.99 L 1139.82,1737.81 L 1199.81,1800.88 L 1243.43,1861.31 L 1284.32,1911.24 L 1330.67,1963.80 L 1374.29,2005.84 L 1423.37,2055.77 L 1477.90,2003.21 L 1524.25,1942.77 L 1573.32,1890.22 L 1499.71,1916.50 L 1447.91,1958.54 L 1417.92,2011.09 L 1469.72,1979.56 L 1513.34,1942.77 L 1461.54,1990.07 L 1431.55,2058.39 L 1420.64,2118.83 M 1546.06,2024.23 L 1516.07,2079.42 L 1486.08,2124.09 L 1505.16,2071.53 L 1543.33,2008.47 M 1450.63,1942.77 L 1524.25,1900.73 L 1551.51,1853.43 L 1464.26,1840.29 L 1415.19,1821.90 L 1393.38,1771.97 L 1341.58,1756.20 L 1366.11,1711.53 L 1297.96,1711.53 L 1229.80,1637.96 L 1300.68,1729.93 L 1344.30,1777.23 L 1390.65,1827.15 L 1456.09,1850.80 L 1505.16,1816.64 M 1431.55,1756.20 L 1379.75,1774.60 M 1461.54,1701.02 L 1521.52,1695.77 L 1584.23,1724.67 L 1606.04,1785.11 M 1526.97,1711.53 L 1524.25,1761.46 L 1570.59,1787.74 M 1606.04,1882.34 L 1570.59,1948.03 L 1540.60,1990.07 L 1507.89,2050.51 L 1486.08,2121.46 L 1526.97,2082.04 L 1584.23,2087.30 L 1556.96,2145.11 L 1603.31,2116.20 M 1766.89,1979.56 L 1698.73,1892.85 L 1742.36,1932.26 L 1780.53,1995.33 L 1766.89,2055.77 L 1810.52,2095.18 M 1783.25,1984.82 L 1739.63,1924.38 L 1696.01,1866.57 M 1701.46,1779.85 L 1663.29,1829.78 L 1696.01,1890.22 L 1747.81,1953.28 L 1777.80,1995.33 L 1745.08,2061.02 L 1799.61,2105.69 M 1745.08,2318.54 L 1734.18,2252.85 L 1717.82,2192.41 L 1698.73,2131.97 L 1712.37,2047.88 L 1717.82,1984.82 L 1687.83,1924.38 L 1734.18,1869.20 L 1646.93,1842.92 L 1674.20,1905.99 L 1701.46,1966.42 L 1715.09,2021.61 L 1696.01,2084.67 L 1676.92,2152.99 L 1687.83,2205.55 L 1674.20,2273.87 L 1652.39,2329.05 L 1622.40,2394.74 L 1663.29,2297.52 L 1685.10,2250.22 L 1709.64,2300.15 L 1706.91,2363.21 M 1426.10,1942.77 L 1363.39,1982.19 L 1297.96,1911.24 L 1254.33,1856.06 L 1210.71,1800.88 L 1167.09,1716.79 L 1235.25,1732.55 M 1270.69,1569.64 L 1284.32,1519.71 L 1281.60,1456.64 L 1311.59,1411.97 L 1278.87,1454.01 L 1235.25,1496.06 L 1188.90,1538.10 L 1139.82,1493.43 M 1210.71,1404.09 L 1150.73,1419.85 L 1194.35,1388.32 L 1150.73,1425.11 L 1186.17,1380.44 L 1167.09,1440.88 L 1232.52,1451.39 M 1265.24,1464.53 L 1314.31,1448.76 L 1284.32,1498.69 L 1248.88,1559.12 L 1221.62,1614.31 L 1251.61,1682.63 L 1284.32,1727.30 L 1347.03,1782.48 L 1382.47,1824.53 L 1330.67,1790.36 L 1336.12,1858.69 L 1287.05,1848.18 L 1232.52,1811.39 L 1251.61,1879.71 L 1287.05,1924.38 L 1327.95,1966.42 L 1368.84,2008.47 L 1404.28,2050.51 L 1412.46,2116.20 L 1453.36,2158.25 L 1464.26,2221.31 L 1466.99,2284.38 M 1213.44,2000.58 L 1167.09,2042.63 M 1235.25,1932.26 L 1273.42,1966.42 L 1308.86,2032.12 L 1240.70,1927.01 L 1186.17,1869.20 L 1164.36,1819.27 L 1194.35,1882.34 L 1237.97,1987.45 L 1259.79,2050.51 L 1284.32,2113.58 L 1287.05,2176.64 M 1243.43,1934.89 L 1191.63,1863.94 L 1169.81,1814.01 L 1248.88,1842.92 L 1295.23,1882.34 L 1317.04,1829.78 L 1284.32,1790.36 L 1349.76,1745.69 M 1390.65,1611.68 L 1442.45,1619.56 L 1502.43,1616.93 L 1570.59,1632.70 L 1638.75,1664.23 L 1666.02,1614.31 L 1619.67,1582.77 L 1657.84,1627.45 L 1614.22,1661.61 L 1551.51,1661.61 L 1488.80,1651.09 L 1442.45,1672.12 L 1494.26,1656.35 L 1535.15,1685.26 L 1576.05,1719.42 M 1472.44,1769.34 M 1521.52,1614.31 L 1570.59,1624.82 L 1507.89,1606.42 L 1559.69,1603.80 L 1606.04,1551.24 L 1543.33,1561.75 L 1483.35,1577.52 L 1415.19,1593.28 L 1472.44,1598.54 L 1532.42,1590.66 L 1597.86,1606.42 L 1646.93,1658.98 L 1606.04,1693.14 M 1701.46,1743.07 L 1775.07,1685.26 L 1818.70,1624.82 L 1835.05,1561.75 L 1862.32,1501.31 L 1895.03,1435.62 L 1919.57,1388.32 L 1884.13,1443.50 L 1949.56,1427.74 L 1881.40,1482.92 L 1884.13,1545.99 L 1848.69,1590.66 L 1805.06,1653.72 M 1875.95,1561.75 L 1865.04,1509.20 L 1851.41,1456.64 L 1832.33,1406.72 L 1758.71,1388.32 L 1734.18,1443.50 L 1698.73,1393.58 L 1671.47,1348.91 L 1736.90,1356.79 L 1805.06,1356.79 L 1848.69,1396.20 L 1807.79,1438.25 L 1761.44,1396.20 L 1696.01,1375.18 L 1706.91,1427.74 L 1652.39,1422.48 L 1712.37,1398.83 L 1720.55,1448.76 L 1769.62,1461.90 L 1805.06,1406.72 L 1758.71,1375.18 L 1696.01,1364.67 L 1641.48,1380.44 L 1687.83,1314.74 L 1753.26,1306.86 L 1818.70,1320.00 L 1856.86,1362.04 L 1799.61,1356.79 M 1881.40,1393.58 L 1905.94,1348.91 L 1914.12,1401.46 L 1884.13,1443.50 L 1845.96,1506.57 L 1832.33,1569.64 L 1788.70,1632.70 L 1750.54,1666.86 L 1832.33,1729.93 L 1875.95,1693.14 L 1922.30,1664.23 L 1985.00,1627.45 L 2047.71,1590.66 L 2102.24,1561.75 L 2020.45,1603.80 L 1941.38,1645.84 L 1870.50,1687.88 L 1835.05,1732.55 L 1878.68,1774.60 L 1832.33,1729.93 L 1884.13,1774.60 L 1835.05,1735.18 L 1875.95,1690.51 L 1941.38,1645.84 L 2025.90,1601.17 L 2099.51,1553.87 M 2222.20,1593.28 L 2211.30,1656.35 L 2203.12,1714.16 L 2216.75,1771.97 L 2279.45,1814.01 L 2241.29,1858.69 L 2238.56,1924.38 L 2263.10,1990.07 L 2293.09,2053.14 L 2331.26,2113.58 L 2358.52,2174.01 L 2383.06,2239.71 L 2404.87,2305.40 L 2432.13,2368.47 M 2658.42,1538.10 M 2710.22,1398.83 L 2704.77,1464.53 L 2704.77,1517.08 L 2644.79,1446.13 L 2579.36,1430.36 L 2508.47,1409.34 L 2524.83,1461.90 L 2587.54,1477.66 L 2538.46,1454.01 L 2473.03,1446.13 L 2473.03,1511.82 L 2533.01,1530.22 L 2595.72,1524.96 L 2639.34,1456.64 L 2576.63,1451.39 L 2519.38,1422.48 M 2519.38,1404.09 L 2587.54,1414.60 L 2658.42,1427.74 L 2601.17,1404.09 L 2513.92,1393.58 L 2451.22,1390.95 L 2489.39,1448.76 L 2554.82,1427.74 L 2636.61,1443.50 L 2672.05,1406.72 L 2666.60,1338.39 L 2612.07,1388.32 L 2554.82,1343.65 L 2486.66,1356.79 L 2410.32,1367.30 L 2413.05,1432.99 L 2413.05,1485.55 L 2377.60,1438.25 L 2372.15,1380.44 L 2440.31,1343.65 L 2421.23,1398.83 L 2462.12,1438.25 L 2503.02,1475.04 L 2590.26,1493.43 L 2658.42,1459.27 L 2702.04,1430.36 M 2772.93,1314.74 L 2707.50,1306.86 L 2751.12,1348.91 M 2808.37,1377.81 L 2781.11,1440.88 L 2753.85,1503.94 L 2712.95,1545.99 L 2650.24,1588.03 L 2595.72,1630.07 L 2541.19,1674.74 L 2527.56,1735.18 L 2590.26,1653.72 L 2543.91,1711.53 L 2590.26,1674.74 L 2563.00,1719.42 M 2353.07,1469.78 L 2377.60,1514.45 L 2426.68,1588.03 L 2470.30,1627.45 M 2303.99,1787.74 L 2353.07,1740.44 L 2331.26,1677.37 L 2317.62,1614.31 L 2306.72,1551.24 L 2290.36,1488.18 M 2325.80,1480.29 L 2358.52,1567.01 L 2404.87,1627.45 L 2448.49,1669.49 L 2489.39,1711.53 L 2524.83,1756.20 L 2552.09,1819.27 M 2503.02,1475.04 L 2459.40,1435.62 L 2448.49,1372.55 L 2421.23,1417.23 L 2377.60,1362.04 L 2355.79,1435.62 L 2396.69,1496.06 L 2432.13,1564.38 L 2473.03,1598.54 M 2693.87,1475.04 L 2693.87,1419.85 L 2631.16,1390.95 L 2571.18,1364.67 L 2598.44,1314.74 L 2587.54,1367.30 L 2642.06,1354.16 L 2644.79,1304.23 L 2691.14,1275.33 L 2685.69,1222.77 L 2699.32,1280.58 L 2734.76,1243.80 L 2789.29,1251.68 L 2745.67,1220.15 L 2696.59,1207.01 L 2674.78,1270.07 M 2672.05,1259.56 M 2772.93,1201.75 L 2824.73,1243.80 L 2890.17,1280.58 L 2871.08,1369.93 M 2974.68,1435.62 L 3004.67,1477.66 L 3037.39,1564.38 L 3042.84,1627.45 L 3048.30,1685.26 L 3037.39,1745.69 M 3072.83,1372.55 L 3064.65,1301.61 M 3059.20,1291.09 L 3086.47,1204.38 L 3111.00,1249.05 L 3130.09,1196.50 L 3119.18,1254.31 L 3102.82,1164.96 L 3146.45,1122.92 L 3209.15,1122.92 L 3277.31,1115.04 L 3340.02,1125.55 M 3307.30,1133.43 L 3236.42,1122.92 L 3170.98,1141.31 L 3143.72,1196.50 L 3176.44,1372.55 L 3162.80,1435.62 L 3151.90,1501.31 M 3304.58,1193.87 L 3260.95,1157.08 L 3304.58,1185.99 L 3269.13,1115.04 L 3320.93,1138.69 L 3367.28,1196.50 L 3367.28,1254.31 L 3378.19,1320.00 M 3209.15,1175.47 L 3203.70,1238.54 L 3200.97,1296.35 L 3195.52,1356.79 L 3190.07,1419.85 L 3203.70,1477.66 L 3198.25,1532.85 L 3170.98,1574.89 M 3157.35,1222.77 L 3151.90,1159.71 L 3116.46,1217.52 L 3091.92,1280.58 L 3083.74,1343.65 L 3064.65,1409.34 L 3102.82,1369.93 L 3067.38,1414.60 M 2936.51,1207.01 L 2911.98,1159.71 L 2909.25,1238.54 L 2871.08,1285.84 L 2824.73,1348.91 L 2802.92,1411.97 L 2860.18,1380.44 L 2830.19,1440.88 L 2873.81,1401.46 L 2961.05,1422.48 L 3004.67,1461.90 L 3026.48,1509.20 M 2824.73,1238.54 L 2781.11,1199.12 L 2819.28,1241.17 L 2852.00,1280.58 L 2794.74,1233.28 L 2732.04,1196.50 L 2789.29,1262.19 L 2830.19,1296.35 L 2794.74,1341.02 L 2781.11,1288.47 L 2775.66,1233.28 L 2710.22,1220.15 L 2658.42,1254.31 L 2625.71,1214.89 L 2633.89,1283.21 L 2631.16,1348.91 L 2614.80,1414.60 L 2661.15,1443.50 M 2538.46,1301.61 L 2587.54,1277.96 L 2535.74,1309.49 M 2614.80,1207.01 L 2579.36,1159.71 L 2535.74,1133.43 L 2563.00,1178.10 L 2573.90,1238.54 L 2522.10,1293.72 M 2429.41,1228.03 L 2464.85,1275.33 L 2541.19,1267.45 L 2497.57,1293.72 L 2432.13,1270.07 M 2421.23,1267.45 L 2393.96,1314.74 L 2383.06,1380.44 L 2391.24,1443.50 L 2407.59,1498.69 L 2440.31,1540.73 L 2492.11,1553.87 L 2554.82,1580.15 M 2366.70,1364.67 M 2312.17,1288.47 L 2287.63,1243.80 L 2293.09,1301.61 L 2295.81,1246.42 L 2306.72,1196.50 L 2333.98,1249.05 M 2260.37,1259.56 L 2314.90,1298.98 L 2290.36,1254.31 L 2317.62,1212.26 L 2282.18,1254.31 L 2295.81,1335.77 L 2244.01,1383.07 L 2208.57,1435.62 M 2034.08,1411.97 L 2023.17,1461.90 L 1952.29,1524.96 L 1908.67,1564.38 L 1979.55,1527.59 L 2020.45,1493.43 L 1919.57,1577.52 L 1925.02,1517.08 M 1955.01,1390.95 L 1941.38,1335.77 L 1960.47,1280.58 L 2028.63,1288.47 M 1965.92,1414.60 L 1911.39,1446.13 L 1998.64,1388.32 L 1946.84,1443.50 L 1993.18,1409.34 L 1933.20,1380.44 L 1944.11,1325.26 L 1987.73,1277.96 M 1963.19,1159.71 L 1985.00,1241.17 L 2069.52,1243.80 M 1995.91,1167.59 L 1957.74,1133.43 M 1957.74,1128.18 L 1995.91,1167.59 M 1900.49,1070.36 L 1875.95,1115.04 L 1824.15,1078.25 L 1780.53,1036.20 L 1851.41,999.42 L 1802.34,957.37 L 1848.69,988.91 L 1900.49,1012.55 L 1897.76,1070.36 L 1957.74,1088.76 L 1922.30,1030.95 L 1881.40,1002.04 L 1938.66,970.51 M 1780.53,931.09 L 1720.55,912.70 L 1769.62,957.37 L 1720.55,941.61 L 1674.20,902.19 L 1715.09,954.74 L 1682.38,912.70 L 1611.49,910.07 L 1592.41,967.88 L 1565.14,912.70 L 1507.89,920.58 L 1442.45,936.35 L 1423.37,889.05 L 1412.46,833.87 L 1385.20,886.42 L 1412.46,928.47 M 1415.19,1004.67 L 1407.01,952.12 L 1344.30,960.00 L 1278.87,978.39 L 1240.70,1017.81 L 1221.62,1065.11 L 1191.63,1125.55 M 1093.48,1191.24 L 1079.84,1262.19 L 1071.67,1317.37 L 1060.76,1443.50 L 1055.31,1524.96 L 989.87,1540.73 L 959.88,1582.77 L 987.15,1535.47 L 1008.96,1598.54 L 951.70,1632.70 L 910.81,1687.88 L 957.16,1637.96 L 1000.78,1603.80 L 976.24,1661.61 L 935.35,1706.28 L 957.16,1761.46 M 1036.22,1672.12 L 1058.03,1624.82 M 957.16,1714.16 L 992.60,1653.72 L 943.52,1706.28 L 995.33,1669.49 L 927.17,1627.45 L 886.27,1677.37 L 929.89,1622.19 L 867.19,1632.70 L 815.38,1632.70 L 749.95,1682.63 L 706.33,1735.18 L 698.15,1790.36 L 763.58,1792.99 L 829.02,1816.64 L 894.45,1856.06 L 959.88,1961.17 M 1017.14,1869.20 L 1022.59,1814.01 L 1030.77,1879.71 L 1033.50,1945.40 L 1044.40,2008.47 L 1107.11,2050.51 M 1019.86,2281.75 L 1022.59,2216.06 L 1025.32,2155.62 L 1014.41,2092.55 L 992.60,2029.49 L 962.61,1945.40 L 935.35,1903.36 L 891.72,1861.31 L 820.84,1819.27 L 869.91,1832.41 L 921.71,1877.08 L 957.16,1929.64 L 987.15,1995.33 L 1008.96,2058.39 L 1022.59,2118.83 L 1036.22,2176.64 L 1030.77,2239.71 M 1003.51,2016.35 L 981.69,1961.17 L 940.80,1903.36 L 899.90,1863.94 L 853.55,1832.41 L 788.12,1814.01 L 725.41,1806.13 L 651.80,1824.53 L 610.91,1856.06 L 698.15,1808.76 L 640.90,1816.64 L 613.63,1771.97 L 613.63,1693.14 L 668.16,1695.77 M 689.97,1716.79 L 747.22,1666.86 L 755.40,1614.31 L 698.15,1651.09 L 741.77,1624.82 L 793.57,1569.64 L 831.74,1524.96 L 878.09,1475.04 L 837.20,1519.71 L 782.67,1543.36 L 829.02,1503.94 L 839.92,1448.76 L 872.64,1409.34 L 826.29,1475.04 L 782.67,1514.45 L 733.59,1556.50 L 676.34,1567.01 L 610.91,1593.28 L 638.17,1545.99 L 681.79,1498.69 L 665.43,1545.99 L 728.14,1501.31 L 673.61,1490.80 L 613.63,1532.85 L 649.07,1490.80 L 665.43,1438.25 L 651.80,1380.44 M 635.44,1377.81 L 621.81,1459.27 L 657.25,1388.32 L 695.42,1320.00 L 744.50,1296.35 M 703.60,1419.85 L 684.52,1480.29 L 643.62,1524.96 L 624.54,1582.77 L 616.36,1637.96 M 815.38,1698.39 L 878.09,1651.09 L 902.63,1601.17 L 842.65,1640.58 L 785.39,1680.00 L 842.65,1619.56 L 763.58,1656.35 M 905.36,1519.71 L 848.10,1559.12 L 897.18,1503.94 L 910.81,1440.88 L 875.37,1480.29 L 837.20,1522.34 L 779.94,1569.64 L 785.39,1632.70 L 747.22,1680.00 L 692.70,1743.07 L 657.25,1785.11 L 608.18,1798.25 M 733.59,1443.50 L 741.77,1390.95 L 714.51,1469.78 M 815.38,1380.44 L 853.55,1341.02 M 804.48,1451.39 L 774.49,1506.57 L 728.14,1553.87 L 706.33,1609.05 L 755.40,1559.12 L 790.85,1511.82 L 839.92,1454.01 L 869.91,1411.97 L 897.18,1364.67 L 861.73,1401.46 L 902.63,1359.42 L 837.20,1375.18 L 799.03,1432.99 L 769.04,1485.55 L 728.14,1535.47 L 679.07,1588.03 L 736.32,1530.22 L 785.39,1475.04 L 809.93,1427.74 M 859.01,1333.14 L 820.84,1377.81 L 869.91,1359.42 L 848.10,1417.23 L 807.21,1459.27 L 766.31,1514.45 L 725.41,1551.24 L 676.34,1611.68 L 668.16,1685.26 L 635.44,1727.30 M 1033.50,1701.02 L 1044.40,1632.70 M 1134.37,1685.26 L 1142.55,1743.07 L 1167.09,1803.50 L 1183.45,1887.59 L 1202.53,1953.28 L 1232.52,2016.35 L 1254.33,2079.42 L 1276.14,2137.23 L 1314.31,2179.27 L 1360.66,2216.06 M 1480.62,1905.99 M 1619.67,1871.82 L 1592.41,1932.26 L 1562.41,1974.31 L 1586.95,2058.39 M 1344.30,1924.38 L 1295.23,1895.47 L 1257.06,1840.29 L 1235.25,1777.23 L 1227.07,1716.79 L 1194.35,1653.72 L 1202.53,1564.38 L 1210.71,1632.70 L 1240.70,1701.02 L 1289.78,1769.34 M 1330.67,1601.17 L 1401.56,1561.75 L 1483.35,1559.12 L 1483.35,1506.57 L 1532.42,1490.80 L 1581.50,1522.34 L 1633.30,1509.20 L 1570.59,1472.41 L 1578.77,1522.34 L 1537.88,1567.01 L 1606.04,1588.03 L 1649.66,1622.19 M 1592.41,1427.74 L 1589.68,1364.67 L 1589.68,1419.85 L 1532.42,1443.50 L 1494.26,1480.29 L 1499.71,1545.99 M 1466.99,1393.58 L 1491.53,1333.14 L 1439.73,1333.14 L 1379.75,1330.51 L 1442.45,1309.49 L 1510.61,1320.00 L 1475.17,1280.58 L 1420.64,1277.96 L 1352.48,1317.37 L 1401.56,1291.09 L 1464.26,1280.58 L 1510.61,1314.74 L 1526.97,1380.44 L 1464.26,1419.85 L 1526.97,1375.18 L 1516.07,1293.72 L 1456.09,1296.35 L 1371.57,1325.26 L 1415.19,1354.16 L 1458.81,1388.32 M 1469.72,1330.51 L 1477.90,1277.96 L 1529.70,1304.23 L 1483.35,1259.56 M 1453.36,1193.87 L 1496.98,1164.96 M 1379.75,1209.64 L 1349.76,1146.57 L 1325.22,1204.38 L 1347.03,1277.96 L 1319.77,1320.00 L 1278.87,1364.67 L 1319.77,1325.26 L 1349.76,1372.55 M 1240.70,1335.77 L 1199.81,1298.98 L 1134.37,1330.51 L 1112.56,1377.81 L 1177.99,1343.65 L 1137.10,1398.83 L 1126.19,1461.90 L 1118.01,1406.72 L 1153.46,1343.65 L 1210.71,1351.53 L 1156.18,1359.42 L 1134.37,1425.11 L 1148.00,1485.55 L 1205.26,1480.29 L 1205.26,1417.23 L 1188.90,1327.88 L 1123.47,1369.93 L 1167.09,1327.88 L 1172.54,1383.07 L 1142.55,1443.50 L 1186.17,1482.92 M 1240.70,1338.39 L 1177.99,1291.09 L 1218.89,1333.14 L 1232.52,1398.83 L 1221.62,1464.53 L 1216.16,1524.96 M 1164.36,1314.74 L 1128.92,1356.79 L 1137.10,1304.23 L 1197.08,1298.98 L 1232.52,1359.42 L 1224.34,1425.11 L 1262.51,1377.81 L 1235.25,1443.50 L 1224.34,1511.82 L 1221.62,1572.26 L 1240.70,1656.35 L 1273.42,1698.39 L 1314.31,1740.44 L 1363.39,1779.85 L 1420.64,1819.27 L 1461.54,1850.80 L 1529.70,1861.31 L 1619.67,1835.04 L 1627.85,1903.36 L 1633.30,1963.80 L 1638.75,2024.23 L 1597.86,2055.77 M 1641.48,1556.50 L 1649.66,1454.01 L 1657.84,1388.32 M 1674.20,1401.46 L 1734.18,1388.32 L 1799.61,1432.99 L 1848.69,1333.14 M 1745.08,1209.64 L 1720.55,1256.93 L 1676.92,1309.49 L 1641.48,1388.32 L 1636.03,1451.39 L 1625.12,1517.08 L 1625.12,1582.77 L 1674.20,1619.56 L 1679.65,1682.63 M 1709.64,1264.82 L 1693.28,1217.52 L 1638.75,1193.87 L 1687.83,1159.71 L 1630.57,1151.82 L 1679.65,1141.31 L 1619.67,1149.20 M 1660.56,1122.92 L 1666.02,1183.36 L 1717.82,1185.99 L 1777.80,1230.66 L 1832.33,1256.93 L 1761.44,1246.42 L 1698.73,1243.80 L 1685.10,1193.87 L 1750.54,1209.64 L 1747.81,1096.64 L 1717.82,1054.60 M 1562.41,1067.74 L 1526.97,1120.29 L 1562.41,1164.96 L 1524.25,1117.66 L 1554.24,1072.99 L 1483.35,1117.66 L 1415.19,1159.71 L 1374.29,1188.61 L 1338.85,1228.03 L 1300.68,1270.07 L 1270.69,1330.51 L 1311.59,1262.19 L 1357.94,1214.89 L 1398.83,1178.10 L 1347.03,1249.05 L 1401.56,1222.77 L 1472.44,1217.52 L 1540.60,1243.80 L 1606.04,1262.19 L 1606.04,1196.50 L 1636.03,1254.31 L 1589.68,1312.12 M 1592.41,1212.26 L 1619.67,1270.07 M 1507.89,1225.40 L 1491.53,1162.34 L 1431.55,1207.01 L 1382.47,1241.17 L 1434.27,1238.54 L 1483.35,1251.68 L 1548.78,1280.58 L 1589.68,1312.12 L 1565.14,1362.04 M 1532.42,1159.71 L 1486.08,1125.55 L 1417.92,1146.57 L 1477.90,1122.92 M 1513.34,962.63 L 1535.15,902.19 L 1586.95,954.74 L 1619.67,902.19 L 1551.51,904.82 L 1483.35,907.45 L 1423.37,868.03 L 1426.10,923.21 L 1374.29,946.86 L 1379.75,886.42 L 1409.74,823.36 L 1409.74,768.18 M 1510.61,649.93 M 1625.12,718.25 L 1693.28,710.36 M 1747.81,628.91 L 1799.61,621.02 L 1832.33,673.58 M 1979.55,728.76 L 2001.36,778.69 L 2058.62,773.43 L 2110.42,810.22 M 2148.59,723.50 M 2129.50,873.28 L 2115.87,941.61 L 2083.15,994.16 M 2244.01,1012.55 L 2214.02,1078.25 L 2268.55,1023.07 L 2276.73,1099.27 L 2265.82,1162.34 L 2254.92,1275.33 L 2284.91,1335.77 M 2437.59,1280.58 L 2404.87,1238.54 L 2385.78,1178.10 L 2440.31,1138.69 L 2543.91,1183.36 L 2554.82,1233.28 L 2516.65,1277.96 L 2546.64,1212.26 L 2500.29,1167.59 L 2453.94,1188.61 L 2462.12,1246.42 M 2475.75,1128.18 L 2413.05,1146.57 L 2361.25,1157.08 L 2301.27,1143.94 L 2246.74,1151.82 L 2271.28,1107.15 L 2293.09,1051.97 L 2328.53,1009.93 M 2396.69,912.70 L 2440.31,875.91 L 2503.02,847.01 L 2557.55,831.24 L 2563.00,760.29 L 2546.64,812.85 L 2614.80,828.61 M 2666.60,865.40 L 2718.40,862.77 L 2702.04,804.96 L 2783.84,833.87 L 2789.29,768.18 L 2802.92,702.48 L 2816.55,642.04 L 2865.63,670.95 L 2887.44,723.50 L 2824.73,726.13 L 2789.29,762.92 L 2824.73,815.47 L 2835.64,875.91 L 2881.99,936.35 L 2925.61,978.39 L 2939.24,1033.58 L 2958.33,1094.01 L 2928.33,1159.71 L 2849.27,1146.57 L 2838.36,1207.01 L 2794.74,1167.59 L 2742.94,1146.57 L 2677.51,1162.34 L 2732.04,1146.57 L 2794.74,1170.22 L 2830.19,1230.66 L 2770.20,1185.99 L 2707.50,1185.99 M 2576.63,1143.94 L 2505.74,1122.92 L 2437.59,1125.55 L 2421.23,1172.85 L 2423.95,1238.54 M 2557.55,1362.04 L 2587.54,1291.09 L 2609.35,1220.15 L 2582.08,1164.96 L 2522.10,1122.92 L 2598.44,1120.29 L 2609.35,1185.99 L 2658.42,1220.15 L 2658.42,1288.47 L 2693.87,1330.51 M 2590.26,1133.43 M 2473.03,1046.72 M 2448.49,1004.67 L 2508.47,960.00 L 2511.20,1009.93 L 2470.30,1059.85 L 2429.41,1109.78 L 2483.93,1096.64 L 2549.37,1099.27 L 2612.07,1136.06 M 2688.41,1020.44 L 2753.85,991.53 L 2819.28,978.39 L 2819.28,1038.83 L 2862.90,1088.76 L 2873.81,1151.82 L 2862.90,1212.26 M 2797.47,1036.20 M 2881.99,920.58 L 2931.06,978.39 L 2895.62,933.72 L 2854.72,889.05 L 2871.08,828.61 L 2843.82,883.80 L 2849.27,810.22 L 2852.00,870.66 L 2879.26,915.33 L 2920.16,975.77 M 3037.39,868.03 L 3061.93,820.73 L 3040.12,868.03 L 3072.83,825.99 L 3064.65,776.06 L 3004.67,749.78 M 3034.66,636.79 L 2996.49,686.72 L 3026.48,642.04 M 2903.80,668.32 M 2819.28,731.39 L 2879.26,712.99 L 2832.91,615.77 L 2813.83,676.20 L 2802.92,736.64 L 2789.29,804.96 L 2800.19,868.03 M 2691.14,1009.93 L 2625.71,962.63 L 2560.27,960.00 M 2609.35,978.39 L 2661.15,994.16 L 2726.58,1009.93 L 2794.74,1030.95 L 2860.18,1078.25 L 2846.54,1146.57 M 3119.18,991.53 L 3132.81,928.47 L 3173.71,839.12 L 3198.25,781.31 L 3239.14,741.90 L 3252.78,670.95 L 3236.42,736.64 L 3203.70,802.34 L 3176.44,865.40 L 3143.72,925.84 L 3121.91,983.65 L 3111.00,1046.72 L 3102.82,1130.80 L 3083.74,1193.87 L 3059.20,1259.56 L 3031.94,1306.86 L 3015.58,1367.30 M 3271.86,1417.23 L 3282.77,1354.16 L 3288.22,1293.72 L 3288.22,1235.91 L 3269.13,1180.73 L 3225.51,1138.69 L 3290.94,1170.22 L 3323.66,1217.52 L 3334.57,1280.58 M 3391.82,1091.39 M 3391.82,928.47 L 3380.92,1012.55 L 3364.56,1072.99 M 3211.88,1023.07 L 3228.24,957.37 L 3244.60,875.91 L 3244.60,823.36 M 3233.69,670.95 L 3266.41,610.51 L 3244.60,673.58 M 3260.95,691.97 M 3301.85,694.60 L 3285.49,755.04 L 3266.41,820.73 L 3255.50,883.80 L 3244.60,944.23 L 3233.69,1007.30 L 3217.33,1072.99 M 3200.97,626.28 M 2751.12,607.88 L 2745.67,678.83 L 2734.76,739.27 M 2617.53,804.96 L 2582.08,765.55 L 2516.65,768.18 L 2511.20,828.61 L 2459.40,868.03 L 2413.05,910.07 L 2374.88,967.88 L 2361.25,1033.58 L 2342.16,1094.01 L 2331.26,1170.22 L 2339.44,1235.91 L 2333.98,1298.98 L 2325.80,1367.30 M 2271.28,1099.27 M 2391.24,1107.15 M 2459.40,996.79 L 2511.20,967.88 L 2456.67,973.14 L 2432.13,1030.95 L 2396.69,1091.39 L 2350.34,1151.82 L 2358.52,1212.26 L 2342.16,1272.70 L 2336.71,1338.39 L 2333.98,1401.46 L 2361.25,1461.90 L 2391.24,1509.20 L 2423.95,1551.24 L 2456.67,1593.28 L 2519.38,1619.56 L 2584.81,1619.56 L 2650.24,1582.77 L 2696.59,1556.50 L 2740.21,1511.82 L 2789.29,1559.12 L 2822.01,1622.19 L 2849.27,1666.86 L 2805.65,1724.67 L 2860.18,1761.46 L 2879.26,1827.15 L 2871.08,1890.22 L 2865.63,1974.31 L 2857.45,2034.74 L 2846.54,2087.30 L 2832.91,2152.99 L 2827.46,2213.43 L 2813.83,2276.50 L 2797.47,2323.80 M 1488.80,2213.43 L 1456.09,2171.39 L 1420.64,2108.32 L 1409.74,2045.26 L 1377.02,2003.21 L 1322.49,1945.40 L 1287.05,1900.73 L 1251.61,1858.69 L 1210.71,1798.25 L 1177.99,1735.18 L 1164.36,1674.74 L 1180.72,1611.68 L 1115.29,1632.70 L 1071.67,1677.37 L 1030.77,1711.53 L 1090.75,1664.23 L 1169.81,1598.54 L 1164.36,1527.59 L 1134.37,1485.55 L 1115.29,1422.48 L 1123.47,1359.42 L 1172.54,1293.72 M 1281.60,1062.48 L 1295.23,1004.67 M 1213.44,755.04 M 1218.89,699.85 L 1210.71,752.41 M 1183.45,747.15 M 1142.55,605.26 L 1145.28,670.95 L 1142.55,755.04 L 1134.37,820.73 L 1126.19,878.54 L 1112.56,962.63 L 1109.83,1025.69 L 1104.38,1088.76 L 1096.20,1149.20 M 842.65,1249.05 L 799.03,1298.98 L 815.38,1251.68 L 782.67,1304.23 L 820.84,1259.56 L 719.96,1275.33 L 659.98,1320.00 L 711.78,1288.47 L 662.71,1238.54 L 717.23,1183.36 L 714.51,1243.80 L 670.89,1293.72 L 711.78,1241.17 L 646.35,1317.37 L 692.70,1256.93 L 700.88,1193.87 L 741.77,1154.45 M 1333.40,960.00 L 1368.84,904.82 L 1379.75,844.38 L 1385.20,781.31 L 1390.65,710.36 L 1396.11,642.04 L 1407.01,694.60 L 1401.56,760.29 L 1426.10,691.97 M 1297.96,600.00 L 1287.05,663.07 L 1287.05,731.39 L 1278.87,799.71 L 1276.14,862.77 L 1265.24,923.21 L 1257.06,981.02 M 1270.69,602.63 L 1270.69,691.97 L 1267.96,757.66 L 1257.06,820.73 L 1251.61,883.80 L 1243.43,944.23 L 1240.70,1004.67 L 1218.89,1065.11 L 1197.08,1120.29 L 1188.90,1185.99 L 1180.72,1249.05 L 1139.82,1301.61 L 1112.56,1346.28 L 1088.02,1409.34 L 1118.01,1493.43 L 1153.46,1540.73 L 1145.28,1603.80 M 2284.91,965.26 M 2377.60,868.03 L 2399.42,818.10 L 2445.76,752.41 L 2464.85,799.71 L 2432.13,852.26 L 2483.93,828.61 L 2478.48,778.69 M 2432.13,768.18 L 2383.06,844.38 L 2358.52,907.45 L 2342.16,970.51 L 2323.08,1033.58 L 2317.62,1099.27 L 2279.45,1146.57 M 2391.24,936.35 M 2527.56,902.19 L 2541.19,965.26 L 2508.47,1004.67 M 2298.54,831.24 L 2323.08,757.66 L 2309.44,699.85 L 2279.45,607.88 L 2265.82,673.58 L 2254.92,739.27 L 2241.29,799.71 L 2233.11,862.77 L 2219.47,928.47 L 2205.84,988.91 L 2189.48,1051.97 L 2184.03,1109.78 L 2170.40,1170.22 L 2143.14,1272.70 L 2132.23,1338.39 M 2102.24,660.44 L 2167.67,702.48 L 2178.58,644.67 L 2184.03,710.36 L 2170.40,778.69 L 2156.77,844.38 L 2140.41,910.07 L 2129.50,973.14 L 2110.42,1054.60 L 2099.51,1117.66 L 2091.33,1172.85 L 2080.43,1230.66 L 2066.80,1296.35 L 2055.89,1362.04 L 2031.35,1414.60 M 2901.07,1199.12 L 2873.81,1280.58 L 2827.46,1341.02 L 2819.28,1414.60 L 2827.46,1359.42 L 2854.72,1317.37 L 2830.19,1390.95 L 2786.56,1430.36 L 2838.36,1406.72 L 2876.53,1359.42 L 2887.44,1293.72 L 2881.99,1238.54 L 2909.25,1175.47 L 2939.24,1112.41 L 2941.97,1038.83 L 2914.70,994.16 L 2879.26,938.98 L 2832.91,896.93 L 2802.92,852.26 L 2742.94,847.01 L 2699.32,873.28 L 2718.40,815.47 L 2707.50,752.41 L 2699.32,694.60 L 2696.59,631.53 L 2685.69,694.60 L 2696.59,752.41 M 2661.15,820.73 L 2663.88,694.60 L 2612.07,665.69 L 2609.35,613.14 L 2609.35,670.95 L 2625.71,731.39 M 2723.86,736.64 L 2732.04,649.93 M 2380.33,610.51 L 2366.70,676.20 L 2361.25,741.90 L 2347.61,804.96 L 2333.98,868.03 L 2325.80,925.84 L 2312.17,981.02 L 2290.36,1044.09 L 2263.10,1107.15 L 2241.29,1170.22 L 2219.47,1235.91 L 2203.12,1298.98 L 2186.76,1367.30 L 2126.78,1406.72 L 2066.80,1448.76" fill="none" stroke="black" stroke-width="2" stroke-linecap="round" stroke-linejoin="round"/>
    </svg>