<svg xmlns="http://www.w3.org/2000/svg" version="1.1"><polyline points="280.0,42.5,279.0,46.5" stroke="black" stroke-width="2" fill="none" />
<polyline points="274.5,44.0,277.0,48.5,277.0,52.5,277.0,56.5,278.0,60.5,278.5,64.0,278.0,68.0,278.5,71.5,279.5,75.0,279.0,79.0,279.0,82.5,279.5,86.5,279.5,91.0,280.0,95.0,280.5,99.0,281.0,103.5,281.5,107.5,282.0,111.5,281.5,115.5,281.5,120.0,281.5,124.0,281.5,128.0,282.5,132.0,282.5,136.0,282.5,140.0" stroke="black" stroke-width="2" fill="none" />
<polyline points="287.0,139.0,283.0,141.0,279.0,141.5,275.0,138.0,271.5,137.5,267.5,139.5,263.0,146.5,260.5,151.5,258.5,155.0,260.5,150.5,261.0,146.5,263.5,143.5,266.5,139.5" stroke="black" stroke-width="2" fill="none" />
<polyline points="263.0,142.5,259.0,149.0,255.0,154.5,251.5,157.5,247.5,160.5,243.5,161.0,239.5,160.5,235.5,164.0" stroke="black" stroke-width="2" fill="none" />
<polyline points="233.0,168.0,229.5,171.5,225.0,175.5,221.0,181.0,216.5,183.0,212.5,187.5" stroke="black" stroke-width="2" fill="none" />
<polyline points="214.0,191.0,213.5,195.0" stroke="black" stroke-width="2" fill="none" />
<polyline points="207.5,195.5,205.5,198.5,201.5,201.5,203.0,202.0,200.0,201.0,208.0,197.0,206.0,194.5,207.0,190.0,210.5,185.5,209.5,187.5,206.0,192.0" stroke="black" stroke-width="2" fill="none" />
<polyline points="191.5,197.0,187.5,198.0" stroke="black" stroke-width="2" fill="none" />
<polyline points="182.0,202.5,180.0,198.5,180.5,194.0,175.5,193.0" stroke="black" stroke-width="2" fill="none" />
<polyline points="169.5,187.5,172.0,191.5,172.5,195.5,173.0,200.0,172.5,204.0" stroke="black" stroke-width="2" fill="none" />
<polyline points="168.5,200.0,168.0,196.0,167.5,196.0" stroke="black" stroke-width="2" fill="none" />
<polyline points="165.0,189.0,169.5,187.5,177.5,194.0,178.5,198.0,176.5,202.0" stroke="black" stroke-width="2" fill="none" />
<polyline points="192.5,203.5,188.5,203.5,184.0,203.0,177.5,202.5,171.5,203.5,165.5,203.0,165.0,198.5,164.5,194.5,164.0,190.5,165.5,186.5" stroke="black" stroke-width="2" fill="none" />
<polyline points="157.5,208.5,153.5,209.0,150.0,207.0,146.5,209.0,142.5,209.5,138.0,208.5,133.5,210.0,129.5,210.0,125.0,210.0,121.0,205.5" stroke="black" stroke-width="2" fill="none" />
<polyline points="131.0,200.0,127.0,195.5" stroke="black" stroke-width="2" fill="none" />
<polyline points="127.0,193.5,131.0,195.0" stroke="black" stroke-width="2" fill="none" />
<polyline points="132.0,196.5,132.5,194.0,132.0,189.5,131.5,189.5" stroke="black" stroke-width="2" fill="none" />
<polyline points="135.5,189.0,136.5,193.0,136.0,197.0,138.0,201.0" stroke="black" stroke-width="2" fill="none" />
<polyline points="127.0,200.5,125.0,197.0,124.0,193.0,125.0,189.0,124.5,187.5" stroke="black" stroke-width="2" fill="none" />
<polyline points="125.5,189.5,126.0,193.5,129.5,199.0,134.0,203.0" stroke="black" stroke-width="2" fill="none" />
<polyline points="127.5,202.0,123.5,194.0" stroke="black" stroke-width="2" fill="none" />
<polyline points="123.0,184.0,119.0,179.0" stroke="black" stroke-width="2" fill="none" />
<polyline points="115.5,176.0,116.5,178.0,118.5,181.5,119.0,185.5,120.5,189.0,120.0,193.0,120.0,197.0,119.5,201.0,120.5,205.0" stroke="black" stroke-width="2" fill="none" />
<polyline points="95.0,209.0,91.0,207.5" stroke="black" stroke-width="2" fill="none" />
<polyline points="104.0,207.0,103.0,203.0,103.0,199.0,103.5,195.0,102.5,191.0,102.0,187.5,101.5,183.5,103.5,179.5,102.0,175.5,97.0,171.5,94.0,170.0,93.5,168.5,89.0,169.5" stroke="black" stroke-width="2" fill="none" />
<polyline points="89.5,171.5,93.5,171.0,100.0,174.5" stroke="black" stroke-width="2" fill="none" />
<polyline points="103.0,181.5,104.0,185.5,104.5,189.5,105.0,193.5,106.0,197.5,106.5,201.5,107.0,205.0" stroke="black" stroke-width="2" fill="none" />
<polyline points="96.5,203.5,95.5,200.0,95.0,196.0,95.0,192.0,95.0,188.0,94.0,184.5,91.5,183.5,88.0,185.5" stroke="black" stroke-width="2" fill="none" />
<polyline points="89.5,184.0,88.5,188.0,88.5,192.0,89.0,196.0,90.0,200.0,90.5,204.0,91.0,209.0,94.0,207.0" stroke="black" stroke-width="2" fill="none" />
<polyline points="86.0,226.5,90.0,229.0" stroke="black" stroke-width="2" fill="none" />
<polyline points="84.5,226.5,89.5,230.5,92.0,235.0,93.0,239.0,95.0,242.5,100.5,246.5,99.0,251.0,102.0,252.0,105.5,252.5,109.5,254.0,113.5,256.5" stroke="black" stroke-width="2" fill="none" />
<polyline points="110.5,254.0,116.0,258.0,118.5,262.0,118.5,266.0,117.5,270.0,121.0,268.5,125.0,268.0,129.0,267.5,133.0,267.0,136.5,267.0,140.5,266.5,144.5,269.5" stroke="black" stroke-width="2" fill="none" />
<polyline points="147.5,269.5,144.0,265.5" stroke="black" stroke-width="2" fill="none" />
<polyline points="152.0,270.0,148.5,273.5,152.5,272.0,155.0,269.5,158.5,268.5,162.5,268.0,166.5,268.0" stroke="black" stroke-width="2" fill="none" />
<polyline points="154.5,271.5,158.5,271.5,163.0,271.0,167.0,271.0,171.5,271.0,175.5,271.5,180.0,270.5" stroke="black" stroke-width="2" fill="none" />
<polyline points="182.5,266.5,181.0,270.5,184.5,271.0,189.0,271.0,193.0,270.0,199.5,267.0" stroke="black" stroke-width="2" fill="none" />
<polyline points="200.5,264.5,198.5,268.0,196.5,272.5,195.0,277.0,194.5,281.5" stroke="black" stroke-width="2" fill="none" />
<polyline points="197.5,277.0,201.5,268.5,205.5,268.0,209.5,270.0" stroke="black" stroke-width="2" fill="none" />
<polyline points="214.5,279.5,209.5,282.5,205.5,287.5" stroke="black" stroke-width="2" fill="none" />
<polyline points="203.5,292.5,207.5,299.0" stroke="black" stroke-width="2" fill="none" />
<polyline points="206.0,294.0,210.5,297.0,214.5,295.5,219.0,296.0" stroke="black" stroke-width="2" fill="none" />
<polyline points="206.5,298.5,204.0,294.5,202.5,290.5,202.0,286.0,203.0,282.5" stroke="black" stroke-width="2" fill="none" />
<polyline points="200.0,291.0,204.0,298.0,208.0,302.0,212.0,303.5,213.5,309.5,217.5,311.5" stroke="black" stroke-width="2" fill="none" />
<polyline points="207.0,307.5,203.0,303.5" stroke="black" stroke-width="2" fill="none" />
<polyline points="202.0,303.5,205.5,307.5,210.0,312.0,210.0,316.0,209.0,320.0,208.5,324.0" stroke="black" stroke-width="2" fill="none" />
<polyline points="201.5,314.5,205.5,322.0,209.5,330.0,213.5,337.0,217.5,343.5,221.5,349.5,225.0,355.5,228.5,360.5,232.0,366.0,236.0,371.5,240.0,376.5,244.0,381.5,248.5,386.0,253.0,390.0,257.0,394.0,260.5,397.5,264.5,401.5" stroke="black" stroke-width="2" fill="none" />
<polyline points="264.0,408.5,260.0,407.0,255.5,404.5,251.5,401.0,247.0,401.0" stroke="black" stroke-width="2" fill="none" />
<polyline points="252.5,400.0,252.0,404.0,260.0,405.5" stroke="black" stroke-width="2" fill="none" />
<polyline points="270.5,395.0,266.0,391.5,262.0,388.0,258.0,383.5,254.5,379.5,250.5,375.0,246.5,370.0" stroke="black" stroke-width="2" fill="none" />
<polyline points="246.5,369.5,249.0,373.5,252.5,377.0,256.0,381.0,259.5,385.0,263.5,389.0,268.0,393.0" stroke="black" stroke-width="2" fill="none" />
<polyline points="267.5,406.5,264.5,402.0,261.0,398.5,256.5,394.5,253.0,390.5,249.5,386.0,245.5,382.5,242.5,379.0,239.5,375.0,236.0,371.0,233.5,366.5,230.0,362.5,227.5,358.5,224.5,354.5,221.5,350.5,218.5,346.0,216.0,342.0,214.0,338.5,211.0,334.5,209.0,330.5,207.0,326.5,205.0,322.5,202.5,318.5,201.0,314.5,200.0,310.5,198.5,306.5,196.0,302.5,191.5,299.0,187.5,298.0" stroke="black" stroke-width="2" fill="none" />
<polyline points="195.5,300.0,199.5,305.0" stroke="black" stroke-width="2" fill="none" />
<polyline points="190.5,281.0,187.0,282.0,189.0,281.0" stroke="black" stroke-width="2" fill="none" />
<polyline points="194.5,267.0,190.5,265.0" stroke="black" stroke-width="2" fill="none" />
<polyline points="193.0,266.5,190.5,266.0,188.0,266.0,186.5,264.0,182.5,265.0" stroke="black" stroke-width="2" fill="none" />
<polyline points="197.5,265.0,195.5,268.5,197.5,265.0,201.5,264.5,207.5,266.5,211.5,265.0,215.5,261.0" stroke="black" stroke-width="2" fill="none" />
<polyline points="218.0,259.5,213.5,263.5,217.0,266.5,221.0,265.5" stroke="black" stroke-width="2" fill="none" />
<polyline points="214.5,280.0,209.0,284.0,207.5,288.0,207.0,292.0,208.0,296.5" stroke="black" stroke-width="2" fill="none" />
<polyline points="222.5,294.0,219.0,290.0,218.5,286.0,217.0,282.0" stroke="black" stroke-width="2" fill="none" />
<polyline points="237.5,261.0,241.5,259.0,245.5,257.5,249.0,256.5,253.0,255.5" stroke="black" stroke-width="2" fill="none" />
<polyline points="256.5,250.5,260.0,249.0,264.0,250.5,268.0,248.5,272.0,245.0,276.5,243.0,281.0,242.0,285.0,241.5,289.0,241.0,293.0,241.0,297.5,241.5,301.5,242.5,305.5,243.5,309.0,245.5,313.0,248.0,316.5,251.5,320.5,258.0,326.0,262.5" stroke="black" stroke-width="2" fill="none" />
<polyline points="327.0,266.0,325.0,267.5,329.0,266.5,333.0,268.0,337.5,273.0" stroke="black" stroke-width="2" fill="none" />
<polyline points="341.5,273.5,346.0,266.5,350.0,263.0,353.0,263.5,348.5,265.0,345.0,269.0,343.0,273.0,342.0,277.0" stroke="black" stroke-width="2" fill="none" />
<polyline points="341.0,279.0,345.5,280.0,349.5,281.0,353.5,278.5,354.5,276.5,351.5,280.5,357.0,281.5" stroke="black" stroke-width="2" fill="none" />
<polyline points="361.5,278.5,358.0,274.5" stroke="black" stroke-width="2" fill="none" />
<polyline points="361.0,277.0,357.0,273.5,352.0,272.0,352.0,275.5,352.0,271.5" stroke="black" stroke-width="2" fill="none" />
<polyline points="357.0,270.5,362.5,274.5" stroke="black" stroke-width="2" fill="none" />
<polyline points="365.5,281.5,369.5,283.5,374.0,281.5,378.0,280.5,382.0,279.5,382.0,279.0,371.5,283.0" stroke="black" stroke-width="2" fill="none" />
<polyline points="369.0,288.5,373.0,288.0,377.5,286.5,381.5,285.5" stroke="black" stroke-width="2" fill="none" />
<polyline points="386.5,285.0,389.5,284.5,388.5,288.5,387.0,292.5,385.0,297.0,382.0,301.0,377.5,305.0,380.5,302.5,384.5,297.5,388.5,288.5" stroke="black" stroke-width="2" fill="none" />
<polyline points="392.0,292.5,387.5,300.5,383.5,305.5,380.0,309.5,375.5,312.0,371.5,313.5,367.5,315.0,363.5,324.0,360.0,333.0,356.0,343.5,352.0,352.5,348.5,360.5,345.0,367.5,341.0,373.5" stroke="black" stroke-width="2" fill="none" />
<polyline points="345.0,370.0,345.5,373.5,345.5,377.5,345.5,381.5,345.0,385.0,344.5,389.0,345.0,392.5,344.5,396.5,345.0,400.5" stroke="black" stroke-width="2" fill="none" />
<polyline points="350.0,403.5,354.0,408.5,358.0,411.5,362.5,415.5,366.5,419.0" stroke="black" stroke-width="2" fill="none" />
<polyline points="371.5,425.0,375.0,419.0,379.0,417.5,382.5,417.5,386.5,420.5" stroke="black" stroke-width="2" fill="none" />
<polyline points="381.5,418.0,387.0,421.5,388.0,425.5,388.5,429.5,389.5,433.5,389.5,437.5,389.5,441.5,390.5,445.0,390.5,449.0,392.0,452.5,393.0,457.0,394.0,461.0,396.0,465.0,397.0,471.5,398.5,476.0,400.0,480.0,401.5,484.0,403.5,488.5,405.5,493.0,407.5,497.0" stroke="black" stroke-width="2" fill="none" />
<polyline points="407.0,494.5,403.0,485.0,399.0,476.5" stroke="black" stroke-width="2" fill="none" />
<polyline points="385.5,477.0,386.0,473.0,385.5,469.0,384.5,467.5" stroke="black" stroke-width="2" fill="none" />
<polyline points="367.0,491.5,363.0,493.5,358.5,489.5,354.0,485.5,350.5,480.5,346.5,477.0,342.5,474.0,338.0,471.0,334.0,467.5,330.5,464.0,326.5,460.0,322.5,456.0,318.0,453.0,314.5,449.5,310.0,446.5,306.0,445.0,302.0,445.0,298.0,447.0,294.0,452.5" stroke="black" stroke-width="2" fill="none" />
<polyline points="295.0,457.0,299.0,462.5,303.0,467.0,307.5,471.5,311.5,475.5,315.5,479.5,319.5,483.0,323.5,488.5" stroke="black" stroke-width="2" fill="none" />
<polyline points="333.0,492.0,334.0,491.5,333.5,496.0,332.5,499.5,336.0,504.5,340.5,507.0" stroke="black" stroke-width="2" fill="none" />
<polyline points="341.0,497.5,345.0,502.5,348.5,505.5,352.0,509.0,355.5,511.5,359.0,514.5" stroke="black" stroke-width="2" fill="none" />
<polyline points="372.5,516.5,376.5,519.5,381.0,524.5,385.5,528.0,389.0,533.0,393.0,536.5,397.0,540.0" stroke="black" stroke-width="2" fill="none" />
<polyline points="427.5,545.0,426.5,549.0,427.5,553.0,428.5,557.0,430.5,561.0,431.0,565.0,432.0,569.0,434.0,572.5,435.0,576.5,436.5,580.5" stroke="black" stroke-width="2" fill="none" />
<polyline points="439.0,575.0,443.0,574.5" stroke="black" stroke-width="2" fill="none" />
<polyline points="438.0,579.5,434.0,569.0" stroke="black" stroke-width="2" fill="none" />
<polyline points="440.0,558.5,443.5,559.0,447.5,563.0,452.0,563.0,456.0,564.0,460.0,568.5" stroke="black" stroke-width="2" fill="none" />
<polyline points="458.5,564.5,451.5,560.5" stroke="black" stroke-width="2" fill="none" />
<polyline points="441.5,541.0,446.0,543.5,450.0,545.5,454.0,546.5,458.5,546.0,463.0,545.5,467.0,545.0,471.5,546.5,475.5,547.0,479.5,548.0,483.5,551.0,487.5,553.5,491.5,556.5,495.0,558.5,499.0,558.5,502.5,558.5,506.5,559.0,510.0,560.5" stroke="black" stroke-width="2" fill="none" />
<polyline points="509.0,559.5,512.0,563.5,513.5,568.5" stroke="black" stroke-width="2" fill="none" />
<polyline points="497.0,560.0,489.5,556.0,484.0,552.0,478.5,548.0" stroke="black" stroke-width="2" fill="none" />
<polyline points="477.5,521.5,473.5,521.0,469.0,522.0,465.5,523.0,461.0,527.5,457.0,529.5,453.0,531.5,449.0,534.5,445.0,536.5,441.5,539.0" stroke="black" stroke-width="2" fill="none" />
<polyline points="440.0,544.0,436.0,544.0,432.0,544.5,428.0,544.5" stroke="black" stroke-width="2" fill="none" />
<polyline points="439.5,519.5,443.5,524.0,448.0,525.5,452.0,527.0,456.5,528.0" stroke="black" stroke-width="2" fill="none" />
<polyline points="458.5,521.0,454.5,523.0,450.5,520.0" stroke="black" stroke-width="2" fill="none" />
<polyline points="446.5,519.5,450.5,515.0,454.5,515.0" stroke="black" stroke-width="2" fill="none" />
<polyline points="452.0,513.0,448.0,517.0,454.5,522.0,460.0,521.0" stroke="black" stroke-width="2" fill="none" />
<polyline points="465.5,522.0,461.0,526.0,454.0,530.0,447.0,534.0,441.5,538.5,446.5,542.5" stroke="black" stroke-width="2" fill="none" />
<polyline points="452.5,526.5,442.5,522.5,441.0,518.5" stroke="black" stroke-width="2" fill="none" />
<polyline points="463.0,516.0,461.5,517.5,463.5,515.0,464.5,511.0,464.0,506.5" stroke="black" stroke-width="2" fill="none" />
<polyline points="482.5,515.5,480.5,519.5" stroke="black" stroke-width="2" fill="none" />
<polyline points="481.0,519.0,485.0,517.0,489.0,516.5,493.0,515.5,496.5,515.0,500.5,513.0,504.5,512.0,508.5,512.5,512.5,510.5" stroke="black" stroke-width="2" fill="none" />
<polyline points="513.0,460.0,511.0,456.0,509.5,451.5,509.0,447.0,509.5,443.0,510.0,439.0,511.0,435.0,512.5,431.0,513.0,423.5,508.5,422.0,504.5,421.0,500.5,419.5,496.5,418.5,492.5,417.5,488.5,416.5,484.5,415.0,481.0,413.5" stroke="black" stroke-width="2" fill="none" />
<polyline points="494.5,417.0,506.5,421.0" stroke="black" stroke-width="2" fill="none" />
<polyline points="473.5,437.5,470.0,435.0,465.5,433.5,461.5,431.5,458.0,430.0,454.0,428.0,450.0,428.0" stroke="black" stroke-width="2" fill="none" />
<polyline points="450.0,428.0,450.0,431.5,449.5,435.5" stroke="black" stroke-width="2" fill="none" />
<polyline points="452.0,428.0,460.5,432.0,470.0,436.0,476.5,440.0,477.0,444.0,477.5,448.0,478.0,451.5,479.0,455.5,479.0,459.0,480.0,463.0,480.0,467.0,480.0,471.0,479.0,475.5" stroke="black" stroke-width="2" fill="none" />
<polyline points="469.0,438.0,465.0,439.0,461.0,440.5,457.5,443.0,453.5,445.5,449.5,446.5,445.5,445.5,441.5,445.5,437.0,446.0,433.0,446.0,428.5,448.0,424.0,451.5,420.0,459.0" stroke="black" stroke-width="2" fill="none" />
<polyline points="415.5,464.5,419.5,466.5" stroke="black" stroke-width="2" fill="none" />
<polyline points="414.5,464.0,418.5,468.0,425.0,472.0" stroke="black" stroke-width="2" fill="none" />
<polyline points="431.0,445.0,425.0,449.5,423.0,453.5,421.0,457.5,420.0,461.5,419.0,466.0,422.0,470.5,426.0,472.5,429.5,473.5,433.5,474.5,437.5,475.5,442.0,476.5,445.5,477.0,449.5,477.5,453.5,478.0,458.0,478.0,462.0,478.0,467.0,478.0,471.0,477.0,475.5,476.5" stroke="black" stroke-width="2" fill="none" />
<polyline points="456.0,442.0,463.5,437.5" stroke="black" stroke-width="2" fill="none" />
<polyline points="446.0,424.0,442.0,426.0,438.0,427.5,434.0,428.0,429.5,427.5,425.5,425.5,421.5,428.0,417.0,428.5,412.5,429.5,408.5,430.0" stroke="black" stroke-width="2" fill="none" />
<polyline points="408.5,429.5,408.0,433.0,408.5,437.0,409.5,441.5" stroke="black" stroke-width="2" fill="none" />
<polyline points="394.0,437.5,390.0,436.5" stroke="black" stroke-width="2" fill="none" />
<polyline points="378.0,436.0,377.0,435.0,375.5,431.0,374.5,427.5,374.0,424.0" stroke="black" stroke-width="2" fill="none" />
<polyline points="377.0,418.5,372.5,423.0,371.0,427.0,369.5,430.5,369.0,434.0,369.0,438.0,369.5,441.5,370.5,445.5,370.0,449.0,370.0,453.0,370.0,457.0,370.0,461.0,370.5,465.5,370.5,469.5,370.5,474.0,371.0,478.0,371.0,482.0,371.0,486.0,369.0,489.5,366.0,493.5" stroke="black" stroke-width="2" fill="none" />
<polyline points="349.0,488.0,345.0,493.5,346.0,492.5,349.0,489.0,344.0,491.5,340.0,497.0" stroke="black" stroke-width="2" fill="none" />
<polyline points="335.5,498.5,339.5,491.5,343.5,486.5,341.0,489.0,338.5,493.5,336.5,497.5,335.5,504.0,340.5,507.5" stroke="black" stroke-width="2" fill="none" />
<polyline points="341.5,508.5,337.0,508.0,333.0,507.5,329.0,508.0,325.0,508.5,321.0,513.0" stroke="black" stroke-width="2" fill="none" />
<polyline points="321.0,517.5,325.5,523.5,329.5,522.0" stroke="black" stroke-width="2" fill="none" />
<polyline points="327.5,531.0,331.0,537.0,335.0,539.0,338.5,541.0,342.0,544.0,345.5,546.5,349.5,549.5" stroke="black" stroke-width="2" fill="none" />
<polyline points="360.5,544.5,364.5,548.0,368.5,555.0,372.5,559.0,376.5,563.5" stroke="black" stroke-width="2" fill="none" />
<polyline points="374.0,561.0,370.5,557.0,368.0,552.5,366.0,548.5,361.5,544.5" stroke="black" stroke-width="2" fill="none" />
<polyline points="350.5,553.5,347.0,549.5,343.0,546.0,339.0,544.0,335.0,541.5,331.0,540.0,327.0,540.5,323.0,547.0" stroke="black" stroke-width="2" fill="none" />
<polyline points="323.5,551.5,327.5,558.5,332.0,563.0,336.0,565.5,340.0,567.5,343.5,571.0,347.5,575.0,351.0,583.0,355.0,590.5,359.0,598.0,363.0,605.0,367.0,609.5,371.0,614.0,375.0,617.5,379.0,620.5,383.5,623.0" stroke="black" stroke-width="2" fill="none" />
<polyline points="391.5,637.5,395.0,641.5,399.5,646.0,406.5,650.0,408.5,654.0,408.5,657.5,411.0,659.5,412.5,657.5,416.5,658.0,421.0,658.0,425.5,659.5,429.0,655.5,435.5,653.5" stroke="black" stroke-width="2" fill="none" />
<polyline points="433.0,656.0,431.5,655.5,437.0,653.0,437.0,649.0" stroke="black" stroke-width="2" fill="none" />
<polyline points="423.5,666.5,430.0,671.5,427.0,673.0,427.0,677.0,426.0,681.0" stroke="black" stroke-width="2" fill="none" />
<polyline points="426.5,669.5,430.5,670.5,434.5,670.0,438.0,670.0,442.0,669.5,443.0,671.0,436.0,675.0,426.5,678.5,430.5,677.5,434.5,676.5,439.0,672.5,443.0,670.5" stroke="black" stroke-width="2" fill="none" />
<polyline points="426.0,655.5,421.5,656.0,417.0,656.0,413.0,655.5,407.5,654.5,403.0,652.0,399.0,650.0,395.0,646.5,391.0,643.0,386.5,642.5" stroke="black" stroke-width="2" fill="none" />
<polyline points="388.5,641.0,388.5,645.0,390.0,649.0,394.0,652.5,397.5,656.0,403.0,661.0,404.5,666.0,412.0,670.5,413.0,675.0,416.5,678.0" stroke="black" stroke-width="2" fill="none" />
<polyline points="410.0,677.0,406.5,675.0,402.0,673.0,398.0,670.5,394.0,667.5,390.5,661.5,386.5,658.0" stroke="black" stroke-width="2" fill="none" />
<polyline points="387.0,656.5,391.0,658.5,395.0,661.5,399.0,664.5,403.0,666.0,406.5,667.5,410.5,669.0,415.0,670.5,418.5,672.0" stroke="black" stroke-width="2" fill="none" />
<polyline points="418.5,670.5,420.0,675.0" stroke="black" stroke-width="2" fill="none" />
<polyline points="406.5,659.0,402.5,653.5,398.5,650.5,394.5,647.5" stroke="black" stroke-width="2" fill="none" />
<polyline points="395.0,648.5,400.0,652.5,404.0,656.5,405.5,660.5,405.0,661.0,408.5,662.5,412.5,663.0,416.5,663.5,420.5,665.0" stroke="black" stroke-width="2" fill="none" />
<polyline points="401.5,658.0,397.5,656.0,394.0,652.5,390.5,648.5" stroke="black" stroke-width="2" fill="none" />
<polyline points="391.0,646.0,394.5,644.0,394.5,648.0,402.0,650.5,406.5,655.0" stroke="black" stroke-width="2" fill="none" />
<polyline points="399.5,663.5,392.5,659.5,389.5,655.5" stroke="black" stroke-width="2" fill="none" />
<polyline points="387.0,654.5,389.0,658.0,392.5,662.5,396.5,667.0,401.5,671.5,410.0,675.5" stroke="black" stroke-width="2" fill="none" />
<polyline points="391.0,639.5,394.5,643.5,398.5,646.5,402.5,649.0,406.0,651.0,410.0,652.5,414.0,653.0,418.5,653.5,422.5,653.5,426.5,651.0,431.0,646.0,435.0,641.5,439.0,635.5,443.0,628.0" stroke="black" stroke-width="2" fill="none" />
<polyline points="448.0,608.5,449.0,612.0,449.0,618.0,448.5,623.5,449.5,627.5,446.5,632.0,444.5,636.0,446.5,636.5,442.0,641.0,442.5,645.5,438.5,649.5,441.0,649.5,437.5,654.0,437.0,649.5" stroke="black" stroke-width="2" fill="none" />
<polyline points="463.0,631.0,459.0,620.5,454.5,614.5,450.5,606.5" stroke="black" stroke-width="2" fill="none" />
<polyline points="453.0,604.5,457.0,605.0,460.5,605.5" stroke="black" stroke-width="2" fill="none" />
<polyline points="462.0,601.0,458.0,599.0,454.0,601.0,450.0,599.5" stroke="black" stroke-width="2" fill="none" />
<polyline points="458.5,599.5,462.0,604.0" stroke="black" stroke-width="2" fill="none" />
<polyline points="460.5,596.5,461.5,593.0,459.5,595.0" stroke="black" stroke-width="2" fill="none" />
<polyline points="461.0,591.5,462.0,595.5,463.5,599.5" stroke="black" stroke-width="2" fill="none" />
<polyline points="443.5,591.0,447.5,595.0,449.0,597.0,450.0,600.5,452.0,605.0,452.0,609.0,454.0,612.5,457.0,616.0,460.0,619.5,462.0,623.0,463.5,626.5,464.5,631.0,465.5,635.0,466.0,639.0,466.0,643.0,466.5,647.0,468.0,650.0,472.5,650.5,476.5,651.0,480.5,651.0,484.0,651.0,488.0,651.0,491.5,651.0,495.5,650.0,499.5,649.0,503.0,648.5,507.0,646.0,511.0,644.5,504.5,646.5" stroke="black" stroke-width="2" fill="none" />
<polyline points="442.5,589.0,444.0,593.0,445.0,597.0,445.5,601.5,446.5,605.5,446.0,609.5,446.0,613.5,446.0,618.0,445.5,622.0,444.5,626.5,442.5,630.5,440.5,634.5,437.5,638.0,434.5,642.0,431.0,646.5,428.0,650.5,429.0,654.5,428.5,657.5,425.5,661.5,424.5,667.5,424.5,672.0,425.0,675.5,425.0,679.5,425.5,683.5" stroke="black" stroke-width="2" fill="none" />
<polyline points="270.0,669.0,268.5,673.0,267.5,677.0,266.5,680.5" stroke="black" stroke-width="2" fill="none" />
<polyline points="274.0,628.5,275.5,624.5,277.0,620.5,277.5,616.5,276.5,619.5" stroke="black" stroke-width="2" fill="none" />
<polyline points="278.0,615.5,277.0,619.5,276.0,623.5,274.5,627.5" stroke="black" stroke-width="2" fill="none" />
<polyline points="326.0,540.5,323.5,544.5,322.0,548.0,323.0,552.0,324.5,556.0,327.5,559.5,331.0,564.0,337.5,568.0,342.5,572.0,346.5,576.5,349.0,580.0,350.5,584.5,352.5,588.5,355.0,592.0,356.5,596.0,358.5,600.0,361.0,604.0,364.5,607.5,368.5,611.5,372.0,615.5,377.5,619.5,383.0,623.0" stroke="black" stroke-width="2" fill="none" />
<polyline points="352.5,555.0,347.5,551.0,342.0,547.0,336.0,543.0,328.0,539.5" stroke="black" stroke-width="2" fill="none" />
<polyline points="349.5,549.5,343.5,545.5,337.0,541.5,329.0,537.5,326.0,533.5,324.5,529.0,324.5,525.0,321.5,520.5,320.0,516.5,320.5,512.0,325.0,508.0" stroke="black" stroke-width="2" fill="none" />
<polyline points="346.0,489.0,342.0,493.0,339.5,497.0,340.5,500.5,343.5,504.0,348.5,507.5,355.0,511.5,360.5,515.5" stroke="black" stroke-width="2" fill="none" />
<polyline points="373.0,517.0,377.5,521.0,381.5,524.5,385.5,528.5,388.5,532.5,393.5,537.0,398.0,541.0" stroke="black" stroke-width="2" fill="none" />
<polyline points="449.5,421.5,449.0,418.0,448.5,414.0,448.5,410.0,448.5,406.0,448.5,402.0,448.0,398.0,448.0,393.5,447.5,389.5,447.5,385.5,448.0,381.5,448.0,378.0,447.5,374.0,447.5,370.0,447.5,366.0,447.0,362.0,447.0,358.0,447.0,354.0,446.5,350.0,447.0,346.5,447.0,342.5,447.0,338.5,446.5,334.0,446.5,330.0,446.0,326.0,446.0,322.0,445.0,318.0,445.0,313.5,445.0,309.5,444.5,305.5,444.5,302.0,444.5,298.0,443.5,294.0,443.0,290.0,444.0,285.5,443.5,281.5,443.0,277.5,443.5,273.0,443.5,268.5,443.0,264.5,443.5,260.5,442.5,256.5,442.5,252.0,442.0,248.0,442.0,244.5,442.0,240.5,442.0,236.5,442.5,233.0,442.0,229.5,442.0,225.5,442.0,222.0,441.0,218.0,441.0,214.0,441.0,210.5,440.5,206.0,440.5,202.0,440.5,198.0,440.0,194.0,439.0,190.0,439.0,186.0,438.5,182.0,438.0,178.0,438.0,174.0,437.5,170.0,437.5,166.0,437.5,162.0,437.5,158.0,437.5,154.0,437.0,150.0,436.5,146.0,436.0,142.0,436.0,138.0,435.5,134.5,435.5,130.5,435.0,126.5,435.5,122.0,434.5,118.0,434.0,114.0,434.0,109.5,434.0,105.0,434.0,101.0,434.0,97.0,434.0,93.0,434.5,89.0,434.0,85.0,433.5,80.5,433.5,76.5,434.0,72.5,433.5,68.5,434.0,64.5,433.5,60.5,433.0,56.5,432.5,53.0,432.0,49.0,431.5,45.5,428.0,45.0,424.0,43.5,420.0,43.0,416.0,43.5,411.5,43.5,407.0,43.5,402.5,43.5,398.0,43.0,393.5,43.0,389.5,43.0,386.0,42.5,382.5,42.5,379.0,42.0,375.5,42.0,372.0,42.0,368.0,42.5,364.0,42.5,359.5,41.5,355.5,42.0,351.5,42.5,347.5,42.0,343.5,41.5,339.5,42.0,335.5,42.0,331.5,42.0,327.5,41.5,323.0,42.0,319.0,42.5,315.0,42.5,311.0,42.5,307.0,42.0,303.0,41.5,299.5,41.5,295.5,41.5,291.5,41.5,287.5,41.0,283.5,41.0,279.5,42.0,275.5,41.5" stroke="black" stroke-width="2" fill="none" />
<polyline points="307.0,61.0,307.0,65.0,307.0,69.0,307.5,72.5,307.0,76.0,307.0,79.5,307.5,83.5,307.5,87.0,308.0,91.0,308.0,95.0,308.0,99.0,308.0,103.0,308.5,107.0,308.5,111.5,309.0,115.5,309.5,119.5,310.0,123.5,309.5,127.5,309.5,131.5,309.5,135.5,310.0,139.0,311.5,141.0" stroke="black" stroke-width="2" fill="none" />
<polyline points="322.5,137.5,327.0,142.0,330.5,143.0,334.0,147.5" stroke="black" stroke-width="2" fill="none" />
<polyline points="339.5,144.0,344.0,148.5,349.0,153.0" stroke="black" stroke-width="2" fill="none" />
<polyline points="346.5,189.0,351.0,193.5,355.5,197.0,358.5,201.0,361.5,205.0,364.0,209.0,366.0,213.0,367.5,217.0,368.5,221.5,369.0,225.0,369.5,229.5,370.0,233.5,371.0,237.5,371.0,242.0,370.5,246.0,370.0,249.5" stroke="black" stroke-width="2" fill="none" />
<polyline points="367.0,250.0,365.0,246.0" stroke="black" stroke-width="2" fill="none" />
<polyline points="373.0,246.5,367.5,247.5,363.5,247.0,359.5,246.5,355.5,245.0,351.0,246.0,347.0,248.5,345.0,248.5,353.0,244.5" stroke="black" stroke-width="2" fill="none" />
<polyline points="356.5,257.0,348.0,261.0,344.0,265.0,342.0,269.5,340.5,273.5,339.0,280.0,343.0,287.0,346.5,291.0" stroke="black" stroke-width="2" fill="none" />
<polyline points="345.5,303.0,347.5,306.5" stroke="black" stroke-width="2" fill="none" />
<polyline points="337.5,313.0,333.5,314.5,336.5,313.5" stroke="black" stroke-width="2" fill="none" />
<polyline points="338.5,316.5,334.5,318.5" stroke="black" stroke-width="2" fill="none" />
<polyline points="322.5,308.5,318.5,307.0,314.5,306.5,310.5,307.5,307.0,308.0,302.5,304.5" stroke="black" stroke-width="2" fill="none" />
<polyline points="304.0,301.5,308.0,296.5,312.0,292.5,310.5,294.5,306.5,299.0,304.0,303.0,299.5,306.0,299.0,310.0,302.5,314.0" stroke="black" stroke-width="2" fill="none" />
<polyline points="300.0,309.5,304.0,312.5,308.5,314.0,312.5,315.5,317.0,316.0,320.5,316.5,324.5,317.5" stroke="black" stroke-width="2" fill="none" />
<polyline points="324.5,315.0,324.5,311.0,320.0,307.5" stroke="black" stroke-width="2" fill="none" />
<polyline points="302.5,306.0,298.5,305.5" stroke="black" stroke-width="2" fill="none" />
<polyline points="291.5,301.0,295.5,300.5,300.0,298.5,304.5,295.5,302.5,296.5" stroke="black" stroke-width="2" fill="none" />
<polyline points="306.0,284.0,305.0,282.0,301.5,278.0,307.0,276.5,306.0,278.5,302.0,278.5" stroke="black" stroke-width="2" fill="none" />
<polyline points="307.0,268.5,304.0,264.0,297.5,260.0,289.0,261.0" stroke="black" stroke-width="2" fill="none" />
<polyline points="293.0,261.0,290.5,265.0,291.0,268.0,295.0,268.0" stroke="black" stroke-width="2" fill="none" />
<polyline points="299.0,268.0,296.5,264.0" stroke="black" stroke-width="2" fill="none" />
<polyline points="307.0,257.5,311.0,260.0" stroke="black" stroke-width="2" fill="none" />
<polyline points="309.0,256.0,312.5,260.5,313.5,264.0" stroke="black" stroke-width="2" fill="none" />
<polyline points="307.5,270.5,303.5,265.0,299.0,263.0,295.0,261.0,290.5,259.5,286.5,258.0,282.5,258.5,279.0,258.5,275.5,259.0,271.5,260.0,275.5,258.5" stroke="black" stroke-width="2" fill="none" />
<polyline points="277.0,260.5,279.0,265.0" stroke="black" stroke-width="2" fill="none" />
<polyline points="274.0,261.0,278.0,263.0,282.0,266.5,286.5,267.0,290.5,265.0,293.5,261.5,297.0,263.5" stroke="black" stroke-width="2" fill="none" />
<polyline points="297.0,255.0,292.5,254.0,288.5,254.0" stroke="black" stroke-width="2" fill="none" />
<polyline points="289.0,244.5,298.0,248.5,304.5,247.5,308.5,249.5,312.5,251.5,316.5,257.0" stroke="black" stroke-width="2" fill="none" />
<polyline points="318.5,254.0,321.0,258.0,323.5,262.0,322.0,266.5,321.5,271.0,320.0,275.0,318.0,279.0,315.5,283.0,313.0,287.5,317.0,282.0" stroke="black" stroke-width="2" fill="none" />
<polyline points="331.0,267.5,335.0,271.5" stroke="black" stroke-width="2" fill="none" />
<polyline points="335.5,265.5,338.0,269.0,338.0,273.0,338.0,277.0,339.0,281.0,341.0,285.5,345.0,289.5" stroke="black" stroke-width="2" fill="none" />
<polyline points="344.5,270.5,348.0,270.5,352.0,270.5,356.0,271.5,360.5,274.0,365.0,277.5" stroke="black" stroke-width="2" fill="none" />
<polyline points="365.0,260.0,368.5,259.0,372.5,260.0,376.5,262.0,381.0,264.0,385.0,267.5,389.0,272.0" stroke="black" stroke-width="2" fill="none" />
<polyline points="377.0,262.5,384.5,266.5,388.5,270.5,390.5,274.5,392.0,278.5,392.0,282.5,391.0,286.5,389.0,291.0,387.0,295.0,384.5,300.0,381.5,304.5,376.0,308.5" stroke="black" stroke-width="2" fill="none" />
<polyline points="391.5,297.5,391.0,302.0,391.5,305.5,391.5,309.5,391.5,313.5,391.5,317.0,392.0,321.0,392.0,325.0,392.0,329.0,392.5,333.0,392.5,337.0,392.5,340.5,393.0,344.0,393.0,348.0,392.5,352.0,393.0,355.5,393.0,359.5,393.5,363.5,394.0,368.0,394.0,372.0,394.5,376.5,394.5,380.5,394.5,384.0,394.5,388.0,395.0,392.0,395.0,396.5,395.0,401.0,395.5,405.5,395.5,409.5,396.0,414.0,396.0,417.5,396.5,422.0,397.5,425.5" stroke="black" stroke-width="2" fill="none" />
<polyline points="341.5,401.0,337.5,398.5,333.5,396.5" stroke="black" stroke-width="2" fill="none" />
<polyline points="334.0,395.5,340.0,400.0" stroke="black" stroke-width="2" fill="none" />
<polyline points="335.0,389.0,331.0,395.5,327.0,399.5,323.0,404.0,319.0,406.5,315.0,409.5,317.0,407.0,324.0,403.0,328.0,399.0,332.0,395.0,334.5,391.0,337.0,387.5,339.0,384.0,339.5,380.0,339.5,376.0,341.0,372.0,343.5,368.0,345.5,364.0,348.0,360.0,350.0,355.5,351.5,351.5,353.5,347.0,355.0,342.5,357.0,338.5,358.0,334.5,359.5,330.5,361.0,327.0,363.0,323.5,364.5,320.0,366.5,316.0,371.0,312.5,379.0,308.5,383.5,304.5,387.0,301.0,390.0,297.0,391.5,293.0,392.5,289.0,394.0,285.0,396.0,281.5,393.5,278.0,392.0,273.5,390.0,269.5,385.5,265.0,378.0,261.5,374.5,256.5,373.0,252.5,374.0,248.5,376.5,244.5,377.0,240.0,375.5,235.5,376.5,231.5,380.0,227.5,382.0,224.5,378.0,230.0,374.5,232.5" stroke="black" stroke-width="2" fill="none" />
<polyline points="366.5,215.5,362.5,207.0,359.0,201.5,355.0,197.0,351.0,193.5,346.5,190.5,342.5,188.5,338.5,188.5,334.0,186.5,330.5,185.5,328.0,186.5,324.5,185.0,320.5,182.5,317.0,182.0" stroke="black" stroke-width="2" fill="none" />
<polyline points="319.5,182.0,325.5,182.5,334.5,187.0" stroke="black" stroke-width="2" fill="none" />
<polyline points="305.5,235.5,310.5,239.5,314.5,241.0" stroke="black" stroke-width="2" fill="none" />
<polyline points="313.5,251.0,310.0,248.5,306.0,246.5,302.0,245.0,298.0,244.0,294.0,243.5,289.5,243.0,285.5,243.0,281.5,243.5,277.0,244.5,273.0,247.0,269.0,251.5,265.0,259.5" stroke="black" stroke-width="2" fill="none" />
<polyline points="270.5,253.5,274.5,252.0,278.5,252.0,282.5,251.5,286.5,251.5,290.5,252.0,294.0,253.0,297.0,258.5" stroke="black" stroke-width="2" fill="none" />
<polyline points="298.5,249.5,294.5,248.0,290.5,246.5,286.0,246.0,282.0,246.5" stroke="black" stroke-width="2" fill="none" />
<polyline points="281.0,245.0,273.0,249.0,268.5,252.5,266.5,256.5,265.5,260.0" stroke="black" stroke-width="2" fill="none" />
<polyline points="263.5,268.0,263.5,272.0,264.5,276.0,266.5,280.5,268.5,285.0,271.0,289.0,275.0,293.0" stroke="black" stroke-width="2" fill="none" />
<polyline points="284.0,299.0,279.5,297.0,275.5,295.0,271.5,291.5,267.5,286.5,264.0,276.5" stroke="black" stroke-width="2" fill="none" />
<polyline points="265.0,275.5,269.0,285.5,272.5,290.5,276.5,294.0,281.0,295.5,285.0,296.5,289.0,297.0,293.5,297.0,297.5,296.0,301.5,294.5,305.5,291.5,304.5,291.5,298.5,295.5" stroke="black" stroke-width="2" fill="none" />
<polyline points="280.0,297.5,273.5,294.0,269.5,290.0,267.0,286.0,265.5,282.0,263.5,278.0,262.5,274.0,261.0,269.5" stroke="black" stroke-width="2" fill="none" />
<polyline points="253.0,254.0,253.0,251.0,249.0,251.0,245.0,251.5,241.5,252.5,237.0,255.0" stroke="black" stroke-width="2" fill="none" />
<polyline points="246.5,251.0,237.5,255.0,235.5,262.0,234.5,265.5,232.0,269.5" stroke="black" stroke-width="2" fill="none" />
<polyline points="258.5,252.5,259.5,248.5" stroke="black" stroke-width="2" fill="none" />
<polyline points="258.0,247.5,257.0,252.0,259.0,253.5" stroke="black" stroke-width="2" fill="none" />
<polyline points="271.5,245.5,278.0,242.0" stroke="black" stroke-width="2" fill="none" />
<polyline points="278.0,230.0,268.5,234.0,263.5,238.0,259.0,242.0,261.5,240.0,265.5,236.0,269.5,234.5,274.0,232.0,278.5,230.5,282.5,231.5,286.5,232.0,290.0,231.5,294.0,232.0,298.5,234.0,303.0,235.0,307.0,236.5,311.0,239.5,315.0,240.5" stroke="black" stroke-width="2" fill="none" />
<polyline points="304.0,247.0,311.0,251.0,315.0,255.0,317.0,259.0,318.5,263.5,318.0,268.0,317.5,272.0,316.0,276.0" stroke="black" stroke-width="2" fill="none" />
<polyline points="334.0,261.5,337.5,262.0,342.0,264.0" stroke="black" stroke-width="2" fill="none" />
<polyline points="342.0,265.0,336.0,261.0" stroke="black" stroke-width="2" fill="none" />
<polyline points="367.0,260.0,370.0,263.5,372.5,266.0,371.5,270.0,369.5,274.5,368.0,278.5,367.5,284.0,367.0,288.5,367.0,292.5,367.5,296.5,367.5,300.5,368.5,304.5,368.5,308.5,369.5,311.0,373.5,310.0,378.0,307.0,382.0,303.5,386.5,298.0,390.0,289.0" stroke="black" stroke-width="2" fill="none" />
<polyline points="340.5,347.5,336.5,342.5,332.5,339.5,328.0,339.0,324.0,338.5,320.0,337.0,316.0,336.5,312.5,337.5,308.5,338.0,305.0,339.0,301.0,339.5,297.5,340.5,293.5,341.0,289.5,342.0" stroke="black" stroke-width="2" fill="none" />
<polyline points="292.0,347.0,292.0,351.0,292.0,354.5" stroke="black" stroke-width="2" fill="none" />
<polyline points="294.0,348.5,296.5,352.5,300.5,356.5,304.5,360.5,307.0,364.5,309.0,368.5,312.0,372.0,316.0,375.5,320.0,376.5,324.0,378.0,328.0,378.5,332.0,376.5,336.0,377.0" stroke="black" stroke-width="2" fill="none" />
<polyline points="334.5,378.0,332.5,380.0,328.5,381.5,324.5,382.0" stroke="black" stroke-width="2" fill="none" />
<polyline points="330.0,378.5,332.5,374.5" stroke="black" stroke-width="2" fill="none" />
<polyline points="320.0,368.0,318.5,366.5,314.5,366.5" stroke="black" stroke-width="2" fill="none" />
<polyline points="307.5,359.0,303.5,355.0,299.5,350.0" stroke="black" stroke-width="2" fill="none" />
<polyline points="293.0,348.0,297.0,353.5,301.5,357.5,305.5,363.0,309.5,369.5,313.5,374.5" stroke="black" stroke-width="2" fill="none" />
<polyline points="341.5,355.0,338.0,350.0,334.5,349.0,330.5,348.5,326.5,349.0,322.5,348.5,318.0,348.5,314.5,347.5,310.0,347.0,306.0,345.5,302.0,344.5,298.5,344.0,294.5,345.0" stroke="black" stroke-width="2" fill="none" />
<polyline points="295.0,344.0,297.0,348.0,301.0,353.5,304.0,358.0,308.5,362.0,311.0,366.0,314.0,367.5,317.0,371.0" stroke="black" stroke-width="2" fill="none" />
<polyline points="348.5,360.0,347.5,364.5,348.0,368.5,349.0,372.5,349.0,376.5,349.0,381.0,349.0,385.0,349.0,389.0,349.0,393.0,349.0,397.5,349.5,401.5,350.5,405.0,353.5,409.0,358.5,413.0,363.0,417.0" stroke="black" stroke-width="2" fill="none" />
<polyline points="306.0,411.0,302.5,410.5,298.5,410.0,295.0,410.0,290.5,408.0" stroke="black" stroke-width="2" fill="none" />
<polyline points="300.5,444.0,296.0,448.0,295.0,452.0,295.0,456.0,297.5,460.5,301.5,465.0,304.5,469.0,307.5,473.0,311.5,477.0,315.0,481.0,318.5,485.0,322.0,489.0,325.0,493.0" stroke="black" stroke-width="2" fill="none" />
<polyline points="360.5,493.5,356.5,489.5,353.0,485.5,349.5,481.0,344.0,477.0,339.0,473.0,334.0,469.0,329.5,464.5,325.5,460.5,321.5,456.5,317.5,452.5,313.0,448.0,307.5,443.5" stroke="black" stroke-width="2" fill="none" />
<polyline points="249.0,403.0,250.5,397.5,250.5,393.5,250.0,390.0" stroke="black" stroke-width="2" fill="none" />
<polyline points="232.0,388.5,228.0,384.0,223.5,379.5,220.0,374.0" stroke="black" stroke-width="2" fill="none" />
<polyline points="219.0,373.0,222.0,377.0,225.5,380.5,229.5,384.5" stroke="black" stroke-width="2" fill="none" />
<polyline points="230.5,389.5,226.5,385.0,222.5,380.5,218.5,375.0" stroke="black" stroke-width="2" fill="none" />
<polyline points="218.0,374.0,219.5,378.0,223.0,382.0,227.0,386.0,230.5,389.5" stroke="black" stroke-width="2" fill="none" />
<polyline points="206.0,384.0,202.0,380.5,198.5,378.5,195.0,376.0" stroke="black" stroke-width="2" fill="none" />
<polyline points="194.0,377.0,199.5,381.0,204.5,385.0" stroke="black" stroke-width="2" fill="none" />
<polyline points="233.0,402.5,223.0,398.5,214.5,394.5,205.5,390.0,198.0,386.0,190.0,382.0,181.5,378.0,173.5,374.0,165.5,370.0,156.0,366.5,145.5,362.5" stroke="black" stroke-width="2" fill="none" />
<polyline points="130.5,359.0,121.0,355.0" stroke="black" stroke-width="2" fill="none" />
<polyline points="111.0,352.5,107.5,349.5" stroke="black" stroke-width="2" fill="none" />
<polyline points="105.5,346.5,109.0,345.0" stroke="black" stroke-width="2" fill="none" />
<polyline points="101.0,333.5,97.5,337.0,93.5,341.0" stroke="black" stroke-width="2" fill="none" />
<polyline points="92.0,347.0,84.0,349.0" stroke="black" stroke-width="2" fill="none" />
<polyline points="87.0,359.0,91.0,358.0,95.0,358.0,99.0,358.5,102.5,357.5" stroke="black" stroke-width="2" fill="none" />
<polyline points="83.0,341.0,79.0,338.5" stroke="black" stroke-width="2" fill="none" />
<polyline points="80.0,349.5,76.0,348.0,71.5,347.5,66.5,352.5,63.0,354.0,59.0,356.5,55.0,359.5,51.0,360.5,47.0,365.5" stroke="black" stroke-width="2" fill="none" />
<polyline points="52.5,359.5,48.5,363.5,47.0,367.5,46.0,372.0,46.0,376.0,48.0,376.5,52.0,375.0" stroke="black" stroke-width="2" fill="none" />
<polyline points="57.0,375.5,61.0,374.0,65.0,372.5,69.0,371.0,73.0,369.5,77.5,367.5,81.5,366.0,85.0,363.5,89.0,362.0,88.0,363.5,82.5,364.5,74.5,368.5" stroke="black" stroke-width="2" fill="none" />
<polyline points="59.5,354.5,67.0,350.5,70.5,347.0" stroke="black" stroke-width="2" fill="none" />
<polyline points="88.5,329.5,92.5,328.5,96.5,326.0,100.0,324.0,104.0,320.5" stroke="black" stroke-width="2" fill="none" />
<polyline points="108.5,317.0,113.0,319.5" stroke="black" stroke-width="2" fill="none" />
<polyline points="114.5,322.5,111.0,328.0,107.0,327.5" stroke="black" stroke-width="2" fill="none" />
<polyline points="104.0,329.0,103.0,333.0,100.0,334.5,96.5,338.5,94.0,342.0" stroke="black" stroke-width="2" fill="none" />
<polyline points="100.0,328.0,104.5,328.0,108.5,323.0" stroke="black" stroke-width="2" fill="none" />
<polyline points="103.0,313.5,106.5,312.0" stroke="black" stroke-width="2" fill="none" />
<polyline points="109.0,314.5,105.5,310.0,103.5,311.5,106.0,308.0" stroke="black" stroke-width="2" fill="none" />
<polyline points="111.5,308.0,111.0,312.0,108.0,315.0,113.0,319.0,114.5,323.0,112.0,326.5,111.5,331.5,111.5,335.0,111.0,338.5,110.0,342.0,104.0,346.0,110.0,349.5,110.5,353.5,112.5,355.5,117.0,354.5,120.0,352.5,124.0,355.0,128.5,357.5,132.5,359.0,137.0,359.5,141.0,361.0,144.5,362.0,148.5,363.0,152.5,364.0,156.0,365.5,160.0,367.0,163.5,369.0,167.5,371.0,171.5,373.0,176.0,375.0,180.0,376.0,184.0,378.0,188.0,380.0,192.0,382.5,195.5,385.0,199.5,387.0,203.5,389.5,207.5,391.0,211.5,393.0,216.0,394.0,220.0,396.5,224.0,398.0,228.0,400.0,231.5,401.5,235.5,403.5,240.0,404.5,244.0,405.0,248.5,405.0" stroke="black" stroke-width="2" fill="none" />
<polyline points="341.5,358.0,339.0,354.0,338.5,347.0,335.5,343.0,330.0,339.0" stroke="black" stroke-width="2" fill="none" />
<polyline points="315.5,280.0,311.5,287.5,307.5,294.0,303.0,295.0,299.0,296.5,299.0,296.0,308.0,292.0,312.0,285.5,314.5,281.5,316.0,277.5,318.0,274.0,319.0,270.0,319.0,265.5,320.0,261.5,318.5,257.5,315.5,253.5,311.0,249.0,303.0,245.0" stroke="black" stroke-width="2" fill="none" />
<polyline points="302.0,244.5,311.5,248.5,316.0,252.5,320.0,260.0,325.5,259.0,329.5,261.0,334.5,264.5,339.0,265.5,345.0,263.5,349.0,259.5,352.5,257.5,356.5,256.0,360.5,256.5,364.5,256.5,369.0,257.0,373.0,258.5,377.0,260.0,381.0,261.5,385.0,265.0,389.0,268.5,393.0,277.0" stroke="black" stroke-width="2" fill="none" />
<polyline points="254.0,226.5,250.0,231.5,246.0,234.0,242.0,239.5,238.0,247.5,238.0,249.0,238.5,245.0,240.0,241.5,242.5,237.5,245.5,233.0,250.5,229.0,253.5,225.0,254.5,221.0" stroke="black" stroke-width="2" fill="none" />
<polyline points="211.5,200.5,207.5,205.0,203.5,208.5,199.5,212.0,195.5,212.0,191.5,212.5,187.5,212.5,183.5,212.0,179.5,212.0,175.5,212.0,171.5,211.5,167.5,212.0,163.5,212.0,159.5,212.0,155.5,212.5,151.5,212.5,147.5,212.5,143.5,212.5,139.5,213.0,135.5,213.0,131.5,213.0,127.5,213.0,123.5,213.5,119.5,213.0,115.5,213.5,111.5,213.0,107.5,213.0,104.0,213.5,100.0,214.0,96.0,214.0,92.0,214.0,88.0,214.5,83.5,215.0,79.5,215.5,74.5,215.5,70.5,216.0,66.0,216.5,62.0,216.5,58.0,216.5,54.5,217.0,50.0,217.5" stroke="black" stroke-width="2" fill="none" />
<polyline points="52.5,216.0,52.5,220.0,53.0,224.0,53.0,228.0,53.5,232.0,54.0,236.0,54.5,240.0,54.5,244.0,54.5,248.0,54.5,252.0,55.0,256.0,55.0,260.0,55.5,263.5,55.5,267.5,55.5,271.0,61.5,275.0" stroke="black" stroke-width="2" fill="none" />
<polyline points="56.5,272.5,60.5,274.5,64.5,276.0,68.5,277.0,73.0,279.0,77.0,281.0,81.0,282.5,84.5,284.0,88.5,285.0,92.5,285.5,96.5,286.0,100.5,285.0,104.5,279.0,109.0,273.5,113.5,272.0,118.0,272.0" stroke="black" stroke-width="2" fill="none" />
<polyline points="113.0,271.5,108.5,271.5" stroke="black" stroke-width="2" fill="none" />
<polyline points="111.0,272.0,107.0,276.0,104.5,280.5,102.5,284.5" stroke="black" stroke-width="2" fill="none" />
<polyline points="120.0,309.0,119.5,312.5,118.0,316.5" stroke="black" stroke-width="2" fill="none" />
<polyline points="118.5,311.0,123.0,309.0,124.0,308.5,127.0,312.5" stroke="black" stroke-width="2" fill="none" />
<polyline points="108.0,340.5,106.0,336.0,108.5,330.0,104.5,326.0,107.5,322.0,102.5,316.5,98.0,313.0,94.0,310.0,90.5,307.0,87.0,304.5,83.0,300.5,79.0,298.0,75.5,295.0,72.0,292.0,68.0,290.0" stroke="black" stroke-width="2" fill="none" />
<polyline points="68.0,290.0,67.5,294.0,70.5,293.5,72.0,297.5,73.5,301.0,74.5,304.5,76.0,308.5,77.0,313.0,78.5,317.0,79.5,321.0,80.5,325.0,82.0,328.5,83.0,332.5,84.0,336.5,83.5,340.5" stroke="black" stroke-width="2" fill="none" />
<polyline points="72.0,296.5,65.0,292.5" stroke="black" stroke-width="2" fill="none" />
<polyline points="71.5,293.5,76.0,298.0,81.5,301.5,86.5,305.5,92.0,309.0,97.0,312.5,101.5,316.5,105.0,320.0,99.5,323.5" stroke="black" stroke-width="2" fill="none" />
<polyline points="95.5,342.0,93.5,345.5,89.5,348.0,85.5,348.0,83.0,349.0,82.0,345.5,80.5,341.5,79.0,337.0,78.5,333.5,77.5,329.5,76.5,325.0,75.5,321.5,73.5,317.5,72.0,313.0,70.5,309.0,69.0,304.5,68.5,300.0,66.5,296.0,63.5,292.0,63.0,287.5,62.5,283.5" stroke="black" stroke-width="2" fill="none" />
<polyline points="65.0,282.0,69.5,285.5,73.0,289.5,78.5,293.0,84.0,297.0,89.0,301.5,94.0,305.5,99.0,310.0,106.0,314.5,109.5,320.0,114.0,321.0" stroke="black" stroke-width="2" fill="none" />
<polyline points="85.0,284.5,75.0,280.5,67.5,276.5" stroke="black" stroke-width="2" fill="none" />
<polyline points="98.0,243.5,94.0,236.5" stroke="black" stroke-width="2" fill="none" />
<polyline points="64.5,209.5,60.5,209.0,56.0,210.0,52.0,207.0" stroke="black" stroke-width="2" fill="none" />
<polyline points="53.0,207.0,56.0,211.0,60.0,211.0,63.5,211.0,69.0,211.0,73.0,211.0,77.0,211.0,81.0,211.5" stroke="black" stroke-width="2" fill="none" />
<polyline points="89.0,181.5,93.0,181.5" stroke="black" stroke-width="2" fill="none" />
<polyline points="91.5,177.5,87.0,178.5" stroke="black" stroke-width="2" fill="none" />
<polyline points="83.5,172.0,79.5,174.5" stroke="black" stroke-width="2" fill="none" />
<polyline points="83.5,165.0,83.5,169.0,80.5,173.0,78.5,177.0,79.5,181.0,80.5,185.0,81.0,189.0,81.0,192.5,81.5,196.5,82.0,200.5,82.5,204.5,83.0,208.5,85.0,210.5,88.5,210.5,92.0,210.5,95.5,210.5,99.5,210.0,103.5,209.5,107.0,209.0,110.5,208.5,114.5,208.5,118.5,208.5" stroke="black" stroke-width="2" fill="none" />
<polyline points="138.5,207.0,139.0,203.0,138.0,198.5,137.5,194.5,136.5,190.5,136.0,186.5,132.0,183.0,130.0,179.0" stroke="black" stroke-width="2" fill="none" />
<polyline points="126.0,179.5,124.0,183.0,127.0,179.0,130.5,179.5,134.5,185.0" stroke="black" stroke-width="2" fill="none" />
<polyline points="152.5,140.5,156.5,138.5,161.0,139.5,165.5,135.0,163.5,137.5,164.0,144.0,168.5,143.5,172.5,144.5,177.0,144.0,181.0,143.5,185.0,143.5,189.0,143.5,193.0,143.5,197.0,143.5,201.0,142.0,204.5,141.5,208.5,141.5,212.5,141.5,216.5,141.0,220.5,141.0,224.5,141.0,228.5,141.0,232.5,141.0,236.5,140.5,240.5,141.0,245.0,141.0,249.0,140.5,251.5,142.0,252.0,146.0,252.0,150.0,252.5,154.5" stroke="black" stroke-width="2" fill="none" />
<polyline points="252.5,153.5,256.0,149.5,259.0,146.0,262.0,142.0" stroke="black" stroke-width="2" fill="none" />
<polyline points="272.5,138.0,276.0,142.0" stroke="black" stroke-width="2" fill="none" />
<polyline points="239.0,124.0,235.0,120.5,231.0,119.5,227.0,124.0" stroke="black" stroke-width="2" fill="none" />
<polyline points="229.0,123.0,230.0,127.5,235.0,127.5" stroke="black" stroke-width="2" fill="none" />
<polyline points="232.5,122.0,233.0,126.0,228.5,130.5,227.5,136.0,232.0,133.0,236.5,133.5,240.5,136.0" stroke="black" stroke-width="2" fill="none" />
<polyline points="240.5,136.0,236.5,137.0,233.0,137.0,229.0,137.0,225.0,137.0,220.5,137.5,216.5,137.5,212.5,138.5,208.5,139.0,209.0,134.5,209.5,130.5,211.5,126.5,217.5,126.5,213.0,127.5" stroke="black" stroke-width="2" fill="none" />
<polyline points="210.0,130.0,214.0,124.0,218.0,122.5,221.5,124.0,219.5,128.0,219.5,132.5,211.5,136.5,214.5,133.5,218.5,130.0,222.5,132.0,227.0,133.0,231.0,130.5,235.5,130.0,239.5,130.5,245.0,133.0" stroke="black" stroke-width="2" fill="none" />
<polyline points="244.5,136.0,243.0,132.5,240.5,128.5,238.5,124.5,233.5,120.5" stroke="black" stroke-width="2" fill="none" />
<polyline points="231.0,119.5,228.0,123.5,227.5,127.5" stroke="black" stroke-width="2" fill="none" />
<polyline points="224.0,134.0,218.0,130.0,217.5,126.0" stroke="black" stroke-width="2" fill="none" />
<polyline points="220.0,123.0,223.5,127.0" stroke="black" stroke-width="2" fill="none" />
<polyline points="222.5,136.5,218.5,135.0,215.0,136.5" stroke="black" stroke-width="2" fill="none" />
<polyline points="209.5,138.5,205.5,139.0,201.5,139.0,197.5,139.5,193.0,139.0" stroke="black" stroke-width="2" fill="none" />
<polyline points="185.5,139.0,185.0,134.0,191.0,130.0,191.0,126.0,191.5,121.5,191.0,119.0,187.0,119.5,183.0,120.0,179.0,123.0" stroke="black" stroke-width="2" fill="none" />
<polyline points="182.5,125.0,183.5,121.0" stroke="black" stroke-width="2" fill="none" />
<polyline points="178.5,125.5,176.5,121.5,173.0,117.5" stroke="black" stroke-width="2" fill="none" />
<polyline points="167.5,119.5,170.0,130.0,174.0,127.5,178.0,131.0,182.0,136.0,185.5,133.5,189.5,131.5" stroke="black" stroke-width="2" fill="none" />
<polyline points="176.0,136.5,172.5,136.0,168.5,136.5" stroke="black" stroke-width="2" fill="none" />
<polyline points="164.0,139.5,168.0,139.5,172.0,139.0,175.5,138.5,179.5,138.5,183.5,137.5" stroke="black" stroke-width="2" fill="none" />
<polyline points="180.5,136.0,178.0,132.0,174.0,128.5,171.5,127.5,169.0,123.5,167.0,119.0" stroke="black" stroke-width="2" fill="none" />
<polyline points="166.0,116.5,161.5,120.5,160.5,121.5,164.5,119.0,168.5,117.0,173.0,117.0,177.0,122.5,182.5,123.5" stroke="black" stroke-width="2" fill="none" />
<polyline points="155.0,139.0,153.0,143.0,153.0,147.0,153.5,151.0,154.5,155.0,155.0,159.0,155.0,163.0,156.0,167.0,156.5,171.0,156.5,174.5,157.5,178.5,158.0,182.5,157.5,187.0,158.0,191.0,158.5,195.5,159.5,199.5,159.5,204.0,159.5,208.0" stroke="black" stroke-width="2" fill="none" />
<polyline points="205.0,207.5,203.0,211.5,202.5,216.0,202.5,220.0,203.0,224.0,204.0,228.0,203.5,232.5,202.0,236.5,201.5,240.5,202.0,245.0,202.5,249.0,203.0,252.5,203.5,257.0,204.5,261.0,204.5,265.0,199.0,271.0,197.0,274.5,196.5,278.0,198.0,282.0,198.0,286.0,198.0,290.0,200.5,294.0,202.5,298.5,206.5,303.0,210.5,309.5" stroke="black" stroke-width="2" fill="none" />
<polyline points="215.5,179.0,216.5,175.0,215.0,177.0" stroke="black" stroke-width="2" fill="none" />
<polyline points="236.5,159.0,233.0,163.5,232.5,167.5,227.0,172.0,223.5,176.0,221.0,180.5,214.0,184.0,212.5,188.0,211.5,192.0,211.0,196.0,209.5,200.0,206.5,204.0,202.0,208.0,204.0,208.5" stroke="black" stroke-width="2" fill="none" />
<polyline points="95.0,164.0,90.5,163.0,86.0,163.5,82.0,164.0" stroke="black" stroke-width="2" fill="none" />
<polyline points="54.0,212.0,50.0,212.5,46.0,214.5" stroke="black" stroke-width="2" fill="none" />
<polyline points="44.0,215.5,44.5,219.5,45.5,223.5,45.5,227.5,46.0,231.5,46.0,235.5,46.5,239.5,47.0,243.5,47.5,247.5,47.5,251.5,48.0,255.5,48.5,259.0,49.0,263.0,49.5,267.0,50.5,271.0,51.5,275.5,53.5,278.5,57.0,282.0,61.0,282.0,65.5,282.5,69.5,286.0,73.5,290.5,78.0,293.0,82.0,296.0,86.0,298.5,89.5,302.0,94.0,304.5,97.5,307.5,101.5,310.0,106.0,306.5,110.0,306.0" stroke="black" stroke-width="2" fill="none" />
<polyline points="43.5,377.0,40.0,378.0,36.0,378.5,32.0,379.5,28.0,381.0,24.0,384.0,19.5,387.5,15.5,391.0,12.0,394.5,8.0,400.0,4.0,405.0,6.0,403.5,8.5,400.0,12.0,396.0,16.5,392.5,21.5,388.5,26.0,384.5,33.5,381.0" stroke="black" stroke-width="2" fill="none" />
<polyline points="53.5,279.0,52.5,278.0,53.0,272.5,52.0,268.5,51.5,265.0,50.5,261.0,50.5,257.5,50.0,253.5,49.0,249.0,48.5,245.0,48.5,241.0,48.0,236.5,47.5,232.5,47.5,228.5,47.5,224.5,47.0,220.5,46.0,216.5,47.5,212.5" stroke="black" stroke-width="2" fill="none" />
<polyline points="292.5,137.5,292.0,133.5,292.0,129.5,291.0,125.0,290.0,121.0,289.5,117.0,288.5,113.0,288.0,109.0,288.0,105.0,287.5,101.0,287.0,97.0,286.5,93.0" stroke="black" stroke-width="2" fill="none" />
<polyline points="284.0,83.0,285.0,87.0,285.5,90.5,285.5,94.5,286.0,98.5,286.0,102.5,286.5,106.5,286.5,110.0,286.5,114.0,287.0,118.0,287.0,122.0,287.5,126.0,287.5,130.0,288.0,134.0,288.5,138.5" stroke="black" stroke-width="2" fill="none" />
<polyline points="315.5,137.0,315.5,133.0,315.5,129.0,315.0,125.0,315.0,121.0,315.5,117.0,315.0,113.0,315.0,109.0,314.5,105.0,314.5,101.0,313.5,97.0,313.5,93.0" stroke="black" stroke-width="2" fill="none" />
<polyline points="317.5,80.0,318.0,84.0,317.5,87.5,318.0,91.0,318.5,94.5,318.5,98.5,318.5,102.5,319.5,106.5,320.0,110.5,320.0,114.5,320.5,118.0,321.0,122.5,321.0,126.0,321.0,130.0,321.5,134.0,322.5,138.0,329.0,142.0,333.5,146.0,340.0,144.5,343.5,147.0,347.5,150.0,351.5,155.5" stroke="black" stroke-width="2" fill="none" />
<polyline points="382.5,113.0,382.0,116.5,382.5,120.5,382.5,124.5,383.0,128.0,383.0,132.0,384.0,136.0,384.0,140.5,384.5,145.0,384.5,149.0,384.5,153.0,385.0,157.0,385.0,161.0,385.0,165.0,385.5,169.0,385.0,173.0,385.5,177.0,385.5,181.0,386.0,185.0,385.5,189.0,386.0,193.0,386.0,196.5,386.5,200.5,387.5,204.5,387.5,208.5,388.0,213.0,388.0,217.0,387.5,221.0,388.0,225.0,388.0,229.0,388.5,233.0,388.5,237.0,389.0,240.5,389.5,244.5,389.5,248.0,389.0,252.0,390.0,255.5,389.5,259.5,389.5,263.0" stroke="black" stroke-width="2" fill="none" />
<polyline points="383.0,191.0,381.5,187.5,381.5,183.5,380.5,179.0,380.5,175.0,381.0,171.0,381.0,166.5,380.5,162.5,381.0,158.5,381.0,154.5,381.0,150.5,380.0,146.5,380.5,142.5,380.5,138.5,381.0,135.0,380.5,131.0,380.5,126.0,380.5,122.0,380.5,118.0,379.5,114.5,379.5,110.5,380.0,106.5,380.0,102.5" stroke="black" stroke-width="2" fill="none" />
<polyline points="416.0,86.0,415.5,90.0,414.5,93.5,414.0,97.5,414.0,101.5,414.5,105.5,414.5,109.5,415.0,113.5,415.0,117.5,415.5,121.5,416.0,125.5,416.5,129.5,416.5,134.0,416.5,138.0,417.5,141.5,417.5,145.5,417.5,150.0,417.0,154.5,417.5,158.5,418.0,162.5,418.0,167.0,418.0,171.0,418.0,174.5,417.5,178.5,417.0,182.0,417.0,186.0,417.0,190.5,417.0,194.5,417.0,198.5,416.5,202.5,417.0,206.5,417.5,210.5" stroke="black" stroke-width="2" fill="none" />
<polyline points="305.5,140.5,306.0,136.0,306.5,132.0,306.5,128.5,307.0,124.0,307.0,120.0,307.0,116.0,307.0,112.0,307.5,108.0,307.0,104.5,306.5,101.0,306.5,97.5,306.5,93.5,306.0,90.0,306.0,85.5,306.0,81.5,305.5,78.0,305.5,74.0" stroke="black" stroke-width="2" fill="none" />
<polyline points="423.5,45.0,424.0,49.0,423.5,52.5,423.5,56.0,422.0,59.5,421.0,63.5,421.0,67.0,421.0,70.5,421.0,74.5,421.0,79.0,421.5,83.0,422.0,87.0,422.0,91.0,422.5,95.0,423.5,99.5,424.0,104.0,424.5,108.0,425.0,112.0,425.5,116.0,426.0,120.0,426.5,124.5,426.5,128.0,427.0,132.0,427.5,136.0,427.0,140.5,427.0,144.5,427.0,148.5,427.0,153.0,427.0,157.0,427.5,161.0,427.0,165.0,428.0,169.0,428.0,173.0,428.5,177.0,428.5,181.0,429.5,184.5,429.5,188.5,430.5,192.0,430.0,195.5,430.0,199.0,430.0,203.0,430.5,206.5,430.5,210.5,431.0,215.0,431.5,219.5,431.5,224.0,432.0,228.0,433.0,232.5,433.0,236.5,433.5,240.5,434.0,244.5,433.5,248.5,434.0,252.5,434.0,256.0,434.0,260.0,434.0,263.5,434.0,268.0,434.0,272.0,434.5,276.0,435.5,280.0,435.5,283.5,436.0,287.5,436.5,291.5,437.0,296.0,436.5,300.5,437.0,304.5,437.5,309.0,438.0,312.5,438.5,316.5,439.0,320.0,439.5,324.5,440.0,328.5,440.5,332.5,440.0,336.5,440.5,341.0,441.5,345.5,441.5,349.0,442.5,352.5,443.0,356.0,443.5,360.0,444.0,364.5,444.5,368.5,445.0,372.5,445.5,376.5,446.0,380.0,446.0,384.0,446.0,388.0,446.5,392.0,446.5,396.0,447.0,399.5,447.5,403.5,447.5,407.5,447.5,412.0,448.0,416.5,448.0,420.5,447.0,424.5" stroke="black" stroke-width="2" fill="none" />
</svg>