<svg width="4000" height="3000" xmlns="http://www.w3.org/2000/svg" viewBox="0 0 4000 3000">
      <path d="M 2142.78,600.00 L 2161.32,631.25 L 2205.83,656.25 L 2239.21,681.25 M 2287.42,631.25 L 2317.09,643.75 L 2343.05,659.38 M 2365.30,631.25 L 2394.97,631.25 L 2450.60,634.38 L 2476.56,656.25 L 2498.81,678.12 L 2532.19,703.12 L 2565.56,725.00 L 2595.23,750.00 M 2576.69,740.62 L 2517.35,690.62 L 2487.68,662.50 L 2458.01,631.25 L 2432.05,615.62 L 2402.38,612.50 L 2372.72,612.50 L 2343.05,615.62 L 2331.92,625.00 L 2302.25,612.50 L 2313.38,615.62 L 2350.46,640.62 L 2365.30,671.88 L 2409.80,696.88 L 2420.93,668.75 L 2450.60,671.88 M 2417.22,646.88 L 2383.84,643.75 M 2424.64,621.88 L 2465.43,646.88 L 2491.39,668.75 L 2517.35,693.75 L 2554.44,718.75 L 2576.69,743.75 M 2591.52,800.00 L 2606.36,825.00 L 2617.48,846.88 L 2636.03,875.00 L 2632.32,900.00 L 2639.74,928.12 L 2650.86,953.12 L 2654.57,978.12 L 2647.15,996.88 L 2647.15,1021.88 L 2643.44,1046.88 L 2647.15,1071.88 L 2647.15,1125.00 L 2643.44,1150.00 M 2658.28,1190.62 L 2647.15,1218.75 L 2628.61,1243.75 L 2617.48,1265.62 L 2613.77,1287.50 L 2636.03,1309.38 L 2643.44,1334.38 L 2647.15,1362.50 M 2680.53,1306.25 L 2684.24,1281.25 L 2684.24,1253.12 L 2673.11,1237.50 L 2647.15,1250.00 L 2658.28,1240.62 L 2624.90,1259.38 M 2621.19,1293.75 L 2624.90,1303.12 L 2639.74,1328.12 M 2558.15,1375.00 L 2513.64,1325.00 L 2491.39,1296.88 L 2461.72,1271.88 L 2439.47,1281.25 L 2465.43,1271.88 L 2491.39,1296.88 L 2524.77,1331.25 L 2554.44,1362.50 M 2561.85,1403.12 L 2532.19,1362.50 L 2502.52,1331.25 L 2472.85,1296.88 L 2483.97,1325.00 L 2506.23,1346.88 L 2528.48,1371.88 L 2547.02,1396.88 M 2417.22,1484.38 L 2443.18,1512.50 M 2406.09,1481.25 L 2428.34,1506.25 L 2446.89,1528.12 L 2454.30,1556.25 L 2435.76,1578.12 L 2439.47,1596.88 L 2417.22,1621.88 L 2406.09,1653.12 L 2398.68,1678.12 L 2387.55,1700.00 L 2372.72,1715.62 L 2383.84,1718.75 M 2383.84,1684.38 L 2413.51,1637.50 L 2439.47,1625.00 M 2487.68,1603.12 L 2487.68,1568.75 L 2483.97,1590.62 M 2517.35,1587.50 L 2506.23,1615.62 M 2561.85,1643.75 L 2572.98,1640.62 M 2528.48,1606.25 L 2535.89,1584.38 L 2532.19,1559.38 L 2528.48,1540.62 L 2521.06,1565.62 L 2517.35,1593.75 L 2506.23,1621.88 L 2509.93,1650.00 L 2524.77,1675.00 L 2558.15,1681.25 L 2576.69,1640.62 L 2572.98,1665.62 L 2554.44,1690.62 L 2543.31,1715.62 L 2506.23,1740.62 L 2491.39,1765.62 L 2469.14,1787.50 L 2443.18,1812.50 L 2424.64,1837.50 L 2391.26,1862.50 M 2372.72,1809.38 L 2357.88,1796.88 L 2361.59,1840.62 L 2346.75,1853.12 M 2320.79,1878.12 L 2331.92,1884.38 M 2361.59,1825.00 L 2361.59,1800.00 L 2309.67,1800.00 L 2328.21,1765.62 L 2305.96,1787.50 L 2302.25,1815.62 L 2302.25,1793.75 L 2313.38,1818.75 L 2305.96,1859.38 L 2320.79,1887.50 L 2309.67,1903.12 L 2287.42,1925.00 L 2250.33,1937.50 L 2235.50,1965.62 L 2209.54,1965.62 L 2179.87,1990.62 L 2183.58,2015.62 L 2172.45,2040.62 M 2179.87,1962.50 L 2146.49,1978.12 L 2113.11,1984.38 L 2053.77,1978.12 L 2024.11,1971.88 L 1998.15,1968.75 M 2090.86,1940.62 L 2124.24,1953.12 L 2187.28,1953.12 L 2220.66,1943.75 L 2242.91,1934.38 L 2272.58,1953.12 L 2302.25,1940.62 M 2235.50,1912.50 L 2242.91,1925.00 L 2268.87,1928.12 L 2313.38,1915.62 L 2343.05,1906.25 L 2376.42,1884.38 L 2402.38,1859.38 L 2432.05,1834.38 L 2458.01,1790.62 L 2483.97,1756.25 M 2458.01,1731.25 L 2454.30,1706.25 L 2443.18,1696.88 L 2443.18,1721.88 L 2469.14,1728.12 L 2498.81,1746.88 L 2524.77,1718.75 M 2480.26,1850.00 L 2472.85,1878.12 L 2469.14,1906.25 L 2469.14,1934.38 L 2461.72,1962.50 L 2432.05,2012.50 L 2409.80,2015.62 L 2446.89,1984.38 M 2417.22,2028.12 L 2432.05,1990.62 L 2450.60,1965.62 L 2461.72,1943.75 L 2469.14,1918.75 L 2472.85,1896.88 L 2469.14,1871.88 L 2498.81,1896.88 L 2509.93,1971.88 L 2517.35,1996.88 L 2521.06,2025.00 L 2528.48,2050.00 L 2528.48,2075.00 L 2532.19,2096.88 L 2532.19,2150.00 L 2524.77,2200.00 L 2524.77,2325.00 L 2528.48,2350.00 L 2524.77,2375.00 L 2528.48,2400.00 M 2458.01,2212.50 L 2450.60,2184.38 L 2461.72,2159.38 L 2461.72,2134.38 L 2469.14,2109.38 L 2480.26,2084.38 L 2487.68,2034.38 L 2491.39,2012.50 L 2495.10,1987.50 L 2487.68,1962.50 L 2487.68,1940.62 L 2483.97,1915.62 L 2480.26,1887.50 M 2528.48,1903.12 L 2561.85,1915.62 L 2591.52,1931.25 L 2624.90,1940.62 L 2684.24,1959.38 L 2743.58,1971.88 L 2832.58,2000.00 L 2862.25,2012.50 L 2891.92,2031.25 L 2917.88,2043.75 L 2947.55,2053.12 L 3036.56,2071.88 L 3062.52,2084.38 L 3092.19,2093.75 L 3121.85,2100.00 L 3155.23,2112.50 L 3188.61,2121.88 L 3218.28,2134.38 L 3251.66,2137.50 L 3281.32,2153.12 L 3310.99,2184.38 L 3340.66,2221.88 M 3259.07,2137.50 L 3292.45,2162.50 L 3314.70,2187.50 L 3333.25,2212.50 L 3344.37,2237.50 L 3355.50,2265.62 L 3359.21,2287.50 L 3366.62,2312.50 L 3377.75,2337.50 L 3388.87,2365.62 L 3400.00,2390.62 L 3385.17,2393.75 L 3374.04,2375.00 M 3192.32,2118.75 L 3051.39,2071.88 M 2873.38,2031.25 L 2814.04,2006.25 L 2732.45,1981.25 L 2658.28,1959.38 M 2636.03,1953.12 L 2580.40,1928.12 L 2528.48,1903.12 M 2502.52,1896.88 L 2506.23,1921.88 L 2506.23,1971.88 L 2498.81,1993.75 L 2495.10,2018.75 L 2487.68,2043.75 L 2483.97,2068.75 L 2469.14,2118.75 L 2458.01,2143.75 L 2450.60,2168.75 L 2454.30,2193.75 L 2454.30,2218.75 L 2476.56,2243.75 L 2506.23,2278.12 M 2450.60,2231.25 L 2420.93,2221.88 L 2406.09,2250.00 L 2369.01,2300.00 L 2339.34,2328.12 L 2317.09,2353.12 L 2287.42,2384.38 L 2280.00,2375.00 L 2309.67,2346.88 L 2339.34,2315.62 L 2369.01,2290.62 L 2391.26,2250.00 L 2380.13,2275.00 L 2357.88,2296.88 L 2331.92,2321.88 L 2309.67,2350.00 L 2287.42,2375.00 L 2272.58,2400.00 L 2305.96,2375.00 L 2335.63,2340.62 L 2365.30,2315.62 L 2394.97,2278.12 L 2420.93,2231.25 L 2469.14,2253.12 L 2502.52,2278.12 L 2517.35,2300.00 L 2517.35,2390.62 M 2309.67,2362.50 L 2328.21,2340.62 L 2354.17,2315.62 L 2383.84,2290.62 L 2398.68,2265.62 L 2413.51,2237.50 L 2380.13,2237.50 M 2424.64,2212.50 L 2469.14,2237.50 L 2498.81,2262.50 L 2509.93,2287.50 L 2509.93,2340.62 L 2506.23,2368.75 L 2506.23,2393.75 M 2428.34,2034.38 L 2439.47,2028.12 M 2235.50,1900.00 L 2209.54,1915.62 L 2224.37,1890.62 L 2235.50,1887.50 L 2205.83,1900.00 M 2254.04,1875.00 L 2213.25,1900.00 L 2216.95,1925.00 L 2209.54,1968.75 L 2239.21,1965.62 M 2172.45,1956.25 L 2176.16,1968.75 M 2198.41,1981.25 L 2172.45,1975.00 L 2172.45,1946.88 M 2131.66,1953.12 L 2120.53,1934.38 M 1987.02,1900.00 L 1975.89,1875.00 L 1961.06,1850.00 L 1990.73,1831.25 M 1968.48,1846.88 L 1983.31,1825.00 L 1949.93,1846.88 M 1757.09,1762.50 L 1745.96,1750.00 L 1742.25,1737.50 M 1749.67,1756.25 M 1712.58,1709.38 L 1705.17,1696.88 L 1701.46,1687.50 L 1697.75,1675.00 M 1675.50,1803.12 L 1645.83,1821.88 L 1616.16,1846.88 L 1590.20,1875.00 L 1560.53,1900.00 L 1501.19,1937.50 L 1471.52,1953.12 L 1441.85,1959.38 L 1412.19,1971.88 L 1382.52,1981.25 L 1356.56,1987.50 L 1326.89,1996.88 L 1237.88,2015.62 L 1208.21,2025.00 L 1174.83,2034.38 L 1145.17,2037.50 L 1119.21,2040.62 L 1089.54,2046.88 L 1063.58,2053.12 L 1033.91,2062.50 L 981.99,2081.25 L 922.65,2106.25 L 855.89,2131.25 L 822.52,2137.50 L 789.14,2146.88 L 729.80,2165.62 L 700.13,2171.88 L 670.46,2184.38 L 640.79,2234.38 M 700.13,2165.62 L 666.75,2190.62 L 644.50,2240.62 L 637.09,2265.62 L 633.38,2290.62 L 625.96,2315.62 L 614.83,2340.62 L 600.00,2390.62 M 611.13,2368.75 L 614.83,2359.38 L 622.25,2346.88 L 625.96,2337.50 L 633.38,2325.00 M 778.01,2143.75 L 863.31,2118.75 L 922.65,2093.75 L 985.70,2068.75 L 1070.99,2043.75 M 1160.00,2028.12 L 1182.25,2021.88 L 1215.63,2012.50 M 1619.87,1990.62 L 1619.87,1965.62 L 1623.58,1943.75 L 1630.99,1918.75 L 1638.41,1890.62 L 1649.54,1862.50 L 1660.66,1837.50 L 1664.37,1828.12 L 1634.70,1893.75 M 1660.66,1821.88 L 1649.54,1846.88 L 1645.83,1875.00 L 1623.58,1925.00 L 1623.58,1950.00 L 1619.87,1975.00 L 1619.87,1996.88 M 1849.80,2096.88 L 1879.47,2121.88 L 1909.14,2156.25 L 1938.81,2187.50 L 1968.48,2209.38 L 1994.44,2237.50 L 2027.81,2259.38 L 2061.19,2284.38 L 2090.86,2309.38 L 2079.74,2321.88 L 2046.36,2300.00 L 2020.40,2275.00 L 1987.02,2250.00 L 1957.35,2225.00 L 1931.39,2196.88 L 1905.43,2171.88 L 1875.76,2168.75 L 1846.09,2190.62 L 1820.13,2212.50 L 1794.17,2246.88 L 1764.50,2312.50 M 1890.60,2162.50 L 1957.35,2212.50 L 2046.36,2287.50 L 2076.03,2315.62 M 1879.47,2156.25 L 1834.97,2181.25 L 1805.30,2206.25 L 1783.05,2231.25 L 1760.79,2287.50 L 1749.67,2312.50 L 1742.25,2337.50 L 1734.83,2365.62 M 1857.22,2090.62 L 1886.89,2118.75 L 1905.43,2146.88 L 1927.68,2171.88 L 1957.35,2200.00 L 1979.60,2225.00 L 2038.94,2275.00 L 2072.32,2300.00 L 2098.28,2325.00 M 2380.13,1831.25 L 2372.72,1806.25 M 2339.34,1821.88 L 2335.63,1806.25 M 2324.50,1765.62 L 2313.38,1759.38 L 2305.96,1781.25 L 2305.96,1809.38 L 2317.09,1834.38 L 2343.05,1856.25 L 2354.17,1881.25 L 2335.63,1903.12 L 2309.67,1928.12 M 2346.75,1715.62 L 2343.05,1700.00 M 2291.13,1609.38 L 2276.29,1593.75 L 2261.46,1581.25 L 2235.50,1581.25 L 2205.83,1587.50 L 2176.16,1584.38 L 2142.78,1584.38 L 2131.66,1590.62 L 2179.87,1590.62 M 2198.41,1603.12 L 2198.41,1584.38 M 2224.37,1615.62 L 2235.50,1603.12 L 2224.37,1581.25 M 2179.87,1603.12 L 2157.62,1578.12 M 2124.24,1587.50 L 2120.53,1612.50 L 2109.40,1625.00 L 2105.70,1603.12 L 2101.99,1584.38 L 2072.32,1581.25 L 2042.65,1584.38 L 2009.27,1596.88 L 2012.98,1606.25 L 2012.98,1578.12 L 1975.89,1575.00 L 1987.02,1578.12 L 1979.60,1603.12 L 1987.02,1631.25 L 2020.40,1640.62 L 2050.07,1643.75 L 2079.74,1650.00 L 2109.40,1653.12 L 2139.07,1653.12 L 2168.74,1656.25 L 2198.41,1653.12 L 2231.79,1650.00 M 2294.83,1609.38 L 2294.83,1584.38 L 2346.75,1571.88 L 2376.42,1575.00 M 2365.30,1596.88 L 2372.72,1621.88 M 2313.38,1609.38 L 2309.67,1584.38 M 2283.71,1571.88 L 2276.29,1596.88 L 2261.46,1609.38 L 2261.46,1653.12 L 2291.13,1640.62 L 2320.79,1618.75 L 2354.17,1600.00 L 2369.01,1590.62 L 2331.92,1618.75 L 2294.83,1643.75 M 2446.89,1575.00 L 2458.01,1565.62 M 2287.42,1443.75 L 2283.71,1415.62 L 2276.29,1390.62 L 2280.00,1381.25 L 2272.58,1406.25 L 2276.29,1434.38 L 2220.66,1459.38 L 2231.79,1456.25 L 2261.46,1446.88 M 2194.70,1506.25 L 2165.03,1493.75 M 2101.99,1593.75 L 2116.82,1618.75 M 2068.61,1578.12 L 2042.65,1590.62 L 2035.23,1581.25 L 2057.48,1600.00 M 2016.69,1578.12 L 2009.27,1603.12 L 1983.31,1615.62 L 2012.98,1615.62 L 2050.07,1621.88 L 2079.74,1628.12 L 2109.40,1621.88 L 2153.91,1631.25 L 2187.28,1634.38 L 2216.95,1640.62 L 2250.33,1637.50 L 2276.29,1621.88 M 1961.06,1618.75 L 1894.30,1581.25 L 1927.68,1612.50 M 1998.15,1446.88 L 2009.27,1446.88 L 2038.94,1440.62 L 2068.61,1453.12 L 2098.28,1475.00 L 2127.95,1493.75 L 2157.62,1490.62 L 2187.28,1471.88 L 2161.32,1481.25 L 2202.12,1509.38 M 2094.57,1503.12 L 2072.32,1518.75 L 2098.28,1493.75 L 2087.15,1465.62 L 2042.65,1440.62 M 1983.31,1396.88 L 2016.69,1371.88 L 2046.36,1371.88 M 2016.69,1365.62 L 1987.02,1393.75 L 1983.31,1418.75 M 1942.52,1281.25 L 1912.85,1284.38 L 1883.18,1281.25 L 1853.51,1281.25 L 1820.13,1278.12 L 1790.46,1259.38 L 1760.79,1271.88 L 1731.13,1296.88 L 1701.46,1328.12 L 1671.79,1384.38 L 1656.95,1396.88 L 1645.83,1371.88 L 1645.83,1296.88 L 1653.25,1271.88 L 1653.25,1196.88 L 1664.37,1175.00 L 1664.37,1150.00 L 1668.08,1125.00 L 1668.08,1096.88 L 1675.50,1071.88 L 1682.91,1050.00 L 1675.50,1059.38 M 1679.21,1034.38 L 1664.37,1062.50 L 1656.95,1087.50 L 1660.66,1112.50 L 1660.66,1140.62 L 1664.37,1165.62 L 1664.37,1190.62 L 1656.95,1215.62 L 1656.95,1240.62 L 1653.25,1262.50 L 1653.25,1287.50 L 1645.83,1312.50 L 1645.83,1359.38 L 1664.37,1384.38 M 1638.41,1390.62 L 1627.28,1396.88 L 1616.16,1406.25 M 1623.58,1362.50 L 1593.91,1343.75 L 1608.74,1331.25 L 1634.70,1359.38 L 1649.54,1384.38 L 1605.03,1403.12 L 1634.70,1453.12 L 1660.66,1484.38 M 1642.12,1309.38 L 1649.54,1300.00 M 1682.91,1253.12 L 1712.58,1256.25 L 1745.96,1240.62 M 1760.79,1275.00 L 1727.42,1300.00 L 1701.46,1325.00 L 1679.21,1353.12 L 1671.79,1378.12 L 1686.62,1346.88 L 1716.29,1309.38 L 1745.96,1284.38 M 1775.63,1312.50 L 1745.96,1337.50 L 1716.29,1365.62 L 1694.04,1406.25 L 1705.17,1381.25 L 1727.42,1356.25 L 1760.79,1331.25 L 1797.88,1306.25 M 1816.42,1281.25 L 1805.30,1278.12 L 1790.46,1265.62 L 1723.71,1312.50 L 1697.75,1337.50 L 1682.91,1365.62 L 1671.79,1390.62 L 1668.08,1415.62 M 1616.16,1253.12 L 1608.74,1240.62 L 1582.78,1275.00 L 1601.32,1243.75 M 1571.66,1196.88 L 1590.20,1184.38 L 1597.62,1171.88 L 1579.07,1196.88 L 1586.49,1159.38 M 1771.92,1209.38 L 1801.59,1184.38 L 1831.26,1168.75 L 1860.93,1162.50 L 1894.30,1153.12 L 1953.64,1159.38 L 1979.60,1171.88 L 2009.27,1184.38 M 1987.02,1206.25 L 1957.35,1190.62 L 1927.68,1184.38 L 1898.01,1181.25 L 1864.64,1187.50 L 1834.97,1193.75 M 1849.80,1178.12 L 1831.26,1184.38 L 1890.60,1171.88 L 1920.26,1175.00 L 1949.93,1184.38 L 1983.31,1196.88 L 2012.98,1206.25 L 2042.65,1225.00 M 1975.89,1221.88 L 1964.77,1218.75 L 1953.64,1206.25 L 1942.52,1206.25 L 1927.68,1209.38 L 1916.56,1212.50 M 1957.35,1190.62 L 1975.89,1200.00 L 1987.02,1206.25 L 1998.15,1209.38 L 1998.15,1193.75 L 1935.10,1168.75 M 1964.77,1168.75 L 2016.69,1190.62 M 2016.69,1225.00 L 1983.31,1221.88 L 1953.64,1206.25 L 1923.97,1215.62 L 1890.60,1212.50 L 1864.64,1212.50 L 1834.97,1203.12 L 1801.59,1206.25 L 1775.63,1221.88 L 1745.96,1225.00 L 1705.17,1237.50 L 1679.21,1253.12 L 1731.13,1246.88 L 1771.92,1228.12 L 1771.92,1206.25 L 1805.30,1181.25 L 1868.34,1156.25 M 1853.51,1240.62 L 1827.55,1240.62 L 1794.17,1250.00 L 1753.38,1250.00 L 1723.71,1268.75 L 1694.04,1290.62 L 1668.08,1328.12 L 1679.21,1303.12 L 1708.87,1278.12 L 1749.67,1253.12 L 1805.30,1243.75 M 2216.95,1237.50 L 2216.95,1209.38 L 2228.08,1184.38 L 2216.95,1193.75 M 2231.79,1178.12 L 2216.95,1200.00 L 2213.25,1221.88 L 2224.37,1250.00 L 2246.62,1256.25 L 2268.87,1281.25 L 2335.63,1306.25 L 2339.34,1315.62 L 2309.67,1306.25 L 2280.00,1293.75 L 2250.33,1275.00 M 2283.71,1221.88 L 2242.91,1237.50 L 2276.29,1225.00 L 2302.25,1228.12 L 2276.29,1234.38 L 2328.21,1237.50 L 2376.42,1237.50 L 2417.22,1231.25 L 2424.64,1221.88 L 2394.97,1209.38 L 2369.01,1203.12 L 2339.34,1203.12 L 2309.67,1209.38 L 2320.79,1200.00 L 2313.38,1225.00 L 2343.05,1231.25 L 2383.84,1218.75 L 2398.68,1218.75 M 2409.80,1190.62 L 2458.01,1215.62 L 2450.60,1243.75 L 2480.26,1240.62 M 2513.64,1250.00 L 2480.26,1246.88 L 2450.60,1218.75 L 2420.93,1200.00 L 2361.59,1187.50 M 2417.22,1190.62 L 2458.01,1215.62 L 2483.97,1240.62 M 2650.86,1206.25 L 2680.53,1203.12 L 2699.07,1221.88 L 2702.78,1246.88 L 2687.95,1246.88 L 2695.36,1271.88 L 2695.36,1293.75 L 2687.95,1318.75 M 2661.99,1340.62 L 2654.57,1318.75 L 2650.86,1293.75 L 2643.44,1271.88 L 2661.99,1243.75 M 2580.40,1037.50 L 2591.52,1028.12 L 2595.23,1018.75 M 2595.23,984.38 L 2565.56,937.50 M 2636.03,865.62 L 2606.36,831.25 M 2580.40,818.75 L 2543.31,843.75 L 2561.85,815.62 L 2598.94,809.38 L 2610.07,834.38 L 2632.32,859.38 L 2628.61,887.50 L 2643.44,912.50 L 2650.86,962.50 L 2632.32,984.38 M 2550.73,846.88 L 2591.52,828.12 L 2561.85,840.62 L 2513.64,815.62 M 2506.23,793.75 L 2476.56,778.12 L 2446.89,759.38 L 2443.18,750.00 L 2487.68,778.12 L 2495.10,803.12 L 2517.35,828.12 L 2532.19,853.12 L 2550.73,881.25 L 2550.73,906.25 L 2561.85,934.38 L 2584.11,959.38 L 2602.65,981.25 L 2602.65,1006.25 L 2587.81,1034.38 L 2580.40,1071.88 L 2595.23,1100.00 L 2595.23,1125.00 L 2598.94,1150.00 L 2591.52,1171.88 L 2587.81,1196.88 L 2587.81,1243.75 L 2591.52,1268.75 L 2591.52,1293.75 L 2598.94,1321.88 L 2602.65,1346.88 L 2610.07,1371.88 L 2613.77,1387.50 L 2643.44,1381.25 M 2584.11,1046.88 L 2598.94,996.88 L 2591.52,971.88 L 2576.69,946.88 L 2561.85,918.75 L 2547.02,896.88 L 2543.31,875.00 L 2524.77,850.00 L 2513.64,825.00 L 2506.23,796.88 L 2461.72,768.75 L 2428.34,737.50 L 2387.55,728.12 M 2413.51,721.88 L 2472.85,746.88 L 2506.23,762.50 L 2535.89,771.88 L 2565.56,771.88 M 2476.56,756.25 L 2450.60,750.00 L 2420.93,734.38 M 2465.43,712.50 L 2502.52,737.50 L 2517.35,775.00 L 2535.89,784.38 L 2547.02,784.38 L 2561.85,790.62 L 2543.31,818.75 L 2572.98,793.75 L 2569.27,818.75 L 2532.19,862.50 M 2261.46,700.00 L 2209.54,650.00 L 2183.58,634.38 L 2183.58,615.62 L 2153.91,606.25 M 2120.53,618.75 L 2179.87,643.75 L 2209.54,665.62 M 2272.58,621.88 L 2317.09,646.88 L 2365.30,671.88 L 2398.68,668.75 L 2417.22,693.75 L 2424.64,712.50 L 2458.01,709.38 L 2491.39,718.75 L 2521.06,725.00 L 2547.02,743.75 L 2535.89,734.38 M 2424.64,684.38 L 2391.26,656.25 L 2339.34,621.88 M 2198.41,671.88 L 2168.74,646.88 L 2105.70,621.88 M 1875.76,609.38 L 1849.80,634.38 L 1812.72,659.38 L 1783.05,684.38 L 1745.96,706.25 L 1716.29,731.25 L 1701.46,756.25 L 1679.21,781.25 L 1664.37,806.25 L 1642.12,856.25 L 1612.45,1056.25 L 1616.16,1081.25 L 1605.03,1106.25 L 1605.03,1131.25 L 1582.78,1159.38 L 1564.24,1184.38 L 1564.24,1209.38 L 1560.53,1231.25 L 1560.53,1259.38 L 1564.24,1281.25 L 1571.66,1306.25 L 1579.07,1328.12 L 1582.78,1353.12 L 1590.20,1378.12 L 1597.62,1406.25 L 1608.74,1434.38 L 1627.28,1459.38 L 1656.95,1484.38 L 1660.66,1512.50 L 1668.08,1537.50 L 1668.08,1562.50 L 1675.50,1587.50 L 1675.50,1612.50 L 1686.62,1637.50 L 1694.04,1662.50 L 1701.46,1690.62 L 1720.00,1715.62 L 1712.58,1765.62 L 1697.75,1787.50 L 1668.08,1812.50 L 1630.99,1837.50 L 1579.07,1887.50 L 1541.99,1912.50 L 1501.19,1934.38 L 1441.85,1959.38 L 1360.26,1981.25 M 2235.50,1175.00 L 2246.62,1178.12 M 2298.54,1175.00 L 2231.79,1200.00 L 2265.17,1193.75 L 2294.83,1178.12 L 2354.17,1171.88 L 2387.55,1175.00 L 2413.51,1181.25 L 2443.18,1193.75 L 2472.85,1218.75 L 2502.52,1237.50 M 1605.03,1134.38 L 1605.03,1109.38 L 1616.16,1034.38 L 1623.58,1012.50 L 1627.28,990.62 L 1627.28,965.62 L 1630.99,940.62 L 1630.99,915.62 L 1638.41,890.62 L 1642.12,865.62 L 1649.54,840.62 L 1664.37,815.62 L 1675.50,790.62 L 1697.75,765.62 L 1716.29,740.62 L 1768.21,690.62 L 1801.59,665.62 L 1831.26,640.62 L 1868.34,618.75 L 1853.51,634.38 L 1823.84,653.12 L 1797.88,675.00 L 1768.21,696.88 L 1738.54,725.00 L 1705.17,753.12 L 1675.50,790.62 L 1645.83,840.62 M 1809.01,743.75 L 1775.63,768.75 L 1738.54,818.75 L 1723.71,843.75 L 1716.29,868.75 L 1686.62,918.75 L 1708.87,884.38 L 1738.54,828.12 L 1771.92,787.50 L 1801.59,762.50 L 1827.55,746.88 M 1827.55,693.75 L 1779.34,718.75 L 1742.25,734.38 L 1771.92,725.00 L 1797.88,712.50 L 1827.55,693.75" fill="none" stroke="black" stroke-width="2" stroke-linecap="round" stroke-linejoin="round"/>
    </svg>