<svg width="4000" height="3000" xmlns="http://www.w3.org/2000/svg" viewBox="0 0 4000 3000">
      <path d="M 2200.00,721.01 L 2195.56,717.65 L 2193.33,715.97 L 2188.89,712.61 L 2186.67,710.92 L 2184.44,709.24 L 2180.00,705.88 L 1980.00,705.88 L 1860.00,690.76 L 1760.00,690.76 L 1620.00,675.63 L 1500.00,660.50 L 1220.00,630.25 L 1120.00,615.13 L 660.00,615.13 L 657.78,613.45 L 655.56,611.76 L 653.33,610.08 L 646.67,605.04 L 644.44,603.36 L 640.00,600.00 L 600.00,600.00 L 600.00,630.25 L 620.00,630.25 L 620.00,660.50 L 640.00,660.50 L 640.00,2067.23 L 644.44,2077.31 L 646.67,2082.35 L 653.33,2097.48 L 655.56,2102.52 L 660.00,2112.61 L 660.00,2233.61 L 664.44,2243.70 L 666.67,2248.74 L 673.33,2263.87 L 675.56,2268.91 L 680.00,2278.99 L 680.00,2324.37 L 720.00,2324.37 L 724.44,2321.01 L 726.67,2319.33 L 733.33,2314.29 L 735.56,2312.61 L 737.78,2310.92 L 740.00,2309.24 L 760.00,2309.24 L 764.44,2305.88 L 766.67,2304.20 L 773.33,2299.16 L 775.56,2297.48 L 780.00,2294.12 L 800.00,2294.12 L 840.00,2278.99 L 1420.00,2278.99 L 1520.00,2294.12 L 1640.00,2294.12 L 1840.00,2324.37 L 1960.00,2324.37 L 2080.00,2339.50 L 2220.00,2354.62 L 2380.00,2354.62 L 2520.00,2369.75 L 2620.00,2369.75 L 2700.00,2384.87 L 3260.00,2384.87 L 3260.00,2400.00 L 3320.00,2400.00 L 3320.00,2052.10 L 3340.00,1946.22 L 3380.00,1840.34 L 3400.00,1749.58 L 3400.00,600.00 L 3400.00,615.13 L 3395.56,618.49 L 3393.33,620.17 L 3386.67,625.21 L 3384.44,626.89 L 3380.00,630.25 L 3300.00,630.25 L 3282.22,636.97 L 3277.78,638.66 L 3260.00,645.38 L 1820.00,645.38 L 1802.22,638.66 L 1797.78,636.97 L 1740.00,615.13" fill="none" stroke="black" stroke-width="2" stroke-linecap="round" stroke-linejoin="round"/>
    </svg>