<svg width="4000" height="3000" xmlns="http://www.w3.org/2000/svg" viewBox="0 0 4000 3000">
      <path d="M 614.07,1230.00 L 614.07,1217.14 L 600.00,1217.14 L 600.00,934.29 L 614.07,934.29 L 614.07,895.71 L 628.14,882.86 L 628.14,870.00 L 642.21,857.14 L 656.28,857.14 L 656.28,844.29 L 684.42,818.57 L 698.49,792.86 L 796.98,702.86 L 811.06,702.86 L 825.13,690.00 L 839.20,690.00 L 853.27,677.14 L 881.41,677.14 L 881.41,664.29 L 895.48,664.29 L 909.55,651.43 L 923.62,651.43 L 937.69,638.57 L 951.76,638.57 L 965.83,625.71 L 979.90,625.71 L 1008.04,612.86 L 1036.18,612.86 L 1050.25,600.00 L 1430.15,600.00 L 1444.22,612.86 L 1486.43,612.86 L 1500.50,625.71 L 1542.71,625.71 L 1556.78,638.57 L 1570.85,638.57 L 1584.92,651.43 L 1598.99,651.43 L 1627.14,664.29 L 1655.28,664.29 L 1711.56,677.14 L 1753.77,677.14 L 1795.98,690.00 L 1810.05,690.00 L 1838.19,702.86 L 1866.33,728.57 L 1866.33,741.43 L 1880.40,741.43 L 1894.47,767.14 L 1908.54,780.00 L 1908.54,792.86 L 1922.61,805.71 L 1922.61,818.57 L 1936.68,831.43 L 1936.68,882.86 L 1950.75,882.86 L 1950.75,1512.86 L 1936.68,1525.71 L 1936.68,1551.43 L 1922.61,1577.14 L 1922.61,1667.14 L 1908.54,1705.71 L 1908.54,1975.71 L 1922.61,2001.43 L 1936.68,2040.00 L 1950.75,2065.71 L 1950.75,2104.29 L 1964.82,2142.86 L 1978.89,2168.57 L 1978.89,2194.29 L 1992.96,2207.14 L 1992.96,2220.00 L 2007.04,2232.86 L 2007.04,2245.71 L 2021.11,2245.71 L 2035.18,2258.57 L 2035.18,2271.43 L 2049.25,2284.29 L 2063.32,2284.29 L 2105.53,2322.86 L 2119.60,2322.86 L 2133.67,2335.71 L 2161.81,2348.57 L 2175.88,2361.43 L 2189.95,2361.43 L 2204.02,2374.29 L 2218.09,2374.29 L 2232.16,2387.14 L 2260.30,2387.14 L 2274.37,2400.00 L 2471.36,2400.00 L 2485.43,2387.14 L 2499.50,2387.14 L 2499.50,2374.29 L 2527.64,2348.57 L 2527.64,2335.71 L 2541.71,2322.86 L 2541.71,2297.14 L 2555.78,2271.43 L 2555.78,2117.14 L 2569.85,2104.29 L 2569.85,2065.71 L 2583.92,2065.71 L 2583.92,2027.14 L 2597.99,2014.29 L 2597.99,2001.43 L 2612.06,1975.71 L 2612.06,1950.00 L 2626.13,1911.43 L 2640.20,1847.14 L 2654.27,1795.71 L 2654.27,1744.29 L 2668.34,1718.57 L 2668.34,1641.43 L 2682.41,1615.71 L 2682.41,1602.86 L 2696.48,1577.14 L 2696.48,1538.57 L 2710.55,1525.71 L 2710.55,1500.00 L 2724.62,1487.14 L 2724.62,1461.43 L 2752.76,1384.29 L 2766.83,1332.86 L 2794.97,1268.57 L 2837.19,1204.29 L 2865.33,1152.86 L 2893.47,1114.29 L 2935.68,1075.71 L 2963.82,1075.71 L 2963.82,1062.86 L 2991.96,1062.86 L 3020.10,1050.00 L 3034.17,1050.00 L 3062.31,1037.14 L 3090.45,1037.14 L 3118.59,1024.29 L 3400.00,1024.29" fill="none" stroke="black" stroke-width="2" stroke-linecap="round" stroke-linejoin="round"/>
    </svg>