<svg width="4000" height="3000" xmlns="http://www.w3.org/2000/svg" viewBox="0 0 4000 3000">
      <path d="M 2116.78,604.20 L 2111.29,615.41 M 2086.56,608.40 L 2100.29,621.01 L 2100.29,643.42 L 2105.79,654.63 L 2108.54,664.44 L 2105.79,675.64 L 2108.54,685.45 L 2114.03,695.25 L 2111.29,706.46 L 2111.29,716.26 L 2114.03,727.47 L 2114.03,740.08 L 2119.53,762.49 L 2122.28,775.10 L 2127.77,797.51 L 2125.02,808.72 L 2125.02,843.74 L 2130.52,854.94 L 2130.52,877.35 M 2155.25,874.55 L 2133.27,880.16 L 2111.29,881.56 L 2089.30,871.75 L 2070.07,870.35 L 2048.09,875.95 L 2023.36,895.56 L 2009.62,909.57 L 1998.63,919.38 L 2009.62,906.77 L 2012.37,895.56 L 2026.10,887.16 L 2042.59,875.95 M 2023.36,884.36 L 2001.37,902.57 L 1979.39,917.98 L 1960.16,926.38 L 1938.17,934.79 L 1916.19,936.19 L 1894.21,934.79 L 1872.23,944.59 M 1858.49,955.80 L 1839.25,965.60 L 1814.52,976.81 L 1792.54,992.22 L 1767.81,997.82 L 1745.83,1010.43 M 1754.07,1020.23 L 1751.32,1031.44 M 1718.35,1032.84 L 1707.36,1041.25 L 1685.38,1049.65 L 1692.71,1050.89 L 1677.13,1048.25 L 1721.10,1037.04 L 1710.11,1030.04 L 1715.60,1017.43 L 1734.84,1004.82 L 1732.40,1007.32 L 1729.34,1010.43 L 1710.11,1023.04 M 1630.42,1037.04 L 1608.44,1039.84 M 1578.21,1052.45 L 1567.22,1041.25 L 1569.97,1028.64 L 1542.49,1025.84 M 1509.52,1010.43 L 1523.26,1021.63 L 1526.01,1032.84 L 1528.75,1045.45 L 1526.01,1056.65 M 1504.02,1045.45 L 1501.28,1034.24 L 1498.53,1034.24 M 1484.79,1014.63 L 1509.52,1010.43 L 1553.48,1028.64 L 1558.98,1039.84 L 1547.99,1051.05 M 1635.92,1055.25 L 1613.94,1055.25 L 1589.21,1053.85 L 1553.48,1052.45 L 1520.51,1055.25 L 1487.54,1053.85 L 1484.79,1041.25 L 1479.29,1018.83 L 1487.54,1007.63 M 1443.57,1069.26 L 1421.59,1070.66 L 1402.36,1065.06 L 1383.12,1070.66 L 1361.14,1072.06 L 1336.41,1069.26 L 1311.68,1073.46 L 1264.97,1073.46 L 1242.98,1060.86 M 1297.94,1045.45 L 1275.96,1032.84 M 1275.96,1027.24 L 1297.94,1031.44 M 1303.43,1035.64 L 1304.05,1034.09 L 1305.57,1030.19 L 1306.18,1028.64 L 1303.43,1016.03 L 1300.69,1016.03 M 1322.67,1014.63 L 1328.16,1025.84 L 1325.42,1037.04 L 1336.41,1048.25 M 1275.96,1046.85 L 1264.97,1037.04 L 1259.47,1025.84 L 1264.97,1014.63 L 1263.13,1011.83 L 1262.22,1010.43 M 1267.71,1016.03 L 1270.46,1027.24 L 1289.70,1042.65 L 1314.43,1053.85 M 1278.70,1051.05 L 1256.72,1028.64 M 1253.97,1000.62 L 1231.99,986.61 M 1212.76,978.21 L 1218.25,983.81 L 1229.24,993.62 L 1231.99,1004.82 L 1240.24,1014.63 L 1237.49,1025.84 L 1237.49,1037.04 L 1234.74,1048.25 L 1240.24,1059.46 M 1100.10,1070.66 L 1078.12,1066.46 M 1149.56,1065.06 L 1144.06,1053.85 L 1144.06,1042.65 L 1146.81,1031.44 L 1141.32,1020.23 L 1138.57,1010.43 L 1135.82,999.22 L 1146.81,988.02 L 1138.57,976.81 L 1111.09,965.60 L 1094.60,961.40 L 1093.99,960.47 L 1092.77,958.60 L 1091.85,957.20 L 1067.12,960.00 M 1069.87,965.60 L 1091.85,964.20 L 1127.58,974.01 M 1144.06,993.62 L 1149.56,1004.82 L 1155.05,1027.24 L 1160.55,1038.44 L 1163.30,1049.65 L 1166.05,1059.46 M 1108.34,1055.25 L 1102.85,1045.45 L 1100.10,1034.24 L 1100.10,1011.83 L 1094.60,1002.02 L 1080.86,999.22 L 1061.63,1004.82 M 1069.87,1000.62 L 1064.38,1011.83 L 1064.38,1023.04 L 1067.12,1034.24 L 1072.62,1045.45 L 1075.37,1056.65 L 1078.12,1070.66 L 1094.60,1065.06 M 1050.64,1119.69 L 1072.62,1126.69 M 1042.39,1119.69 L 1069.87,1130.89 L 1083.61,1143.50 L 1089.11,1154.71 L 1100.10,1164.51 L 1130.32,1175.72 L 1122.08,1188.33 L 1138.57,1191.13 L 1157.80,1192.53 L 1179.78,1196.73 L 1201.77,1203.74 M 1185.28,1196.73 L 1215.51,1207.94 L 1229.24,1219.14 L 1229.24,1230.35 L 1223.75,1241.56 L 1242.98,1237.35 L 1308.93,1233.15 L 1328.16,1233.15 L 1350.15,1231.75 L 1372.13,1240.16 M 1388.62,1240.16 L 1369.38,1228.95 M 1413.35,1241.56 L 1394.11,1251.36 L 1416.09,1247.16 L 1429.83,1240.16 L 1449.07,1237.35 L 1471.05,1235.95 L 1493.03,1235.95 M 1427.09,1245.76 L 1449.07,1245.76 L 1473.80,1244.36 L 1520.51,1244.36 L 1542.49,1245.76 L 1567.22,1242.96 M 1580.96,1231.75 L 1572.72,1242.96 L 1591.95,1244.36 L 1616.68,1244.36 L 1638.67,1241.56 L 1674.39,1233.15 M 1679.88,1226.15 L 1668.89,1235.95 L 1657.90,1248.56 L 1649.66,1261.17 L 1646.91,1273.77 M 1663.40,1261.17 L 1685.38,1237.35 L 1707.36,1235.95 L 1729.34,1241.56 M 1756.82,1268.17 L 1729.34,1276.58 L 1707.36,1290.58 M 1696.37,1304.59 L 1718.35,1322.80 M 1710.11,1308.79 L 1734.84,1317.20 L 1756.82,1313.00 L 1781.55,1314.40 M 1712.86,1321.40 L 1699.12,1310.19 L 1690.87,1298.99 L 1688.13,1286.38 L 1693.62,1276.58 M 1677.13,1300.39 L 1699.12,1320.00 L 1721.10,1331.21 L 1743.08,1335.41 L 1751.32,1352.22 L 1773.31,1357.82 M 1715.60,1346.61 L 1693.62,1335.41 M 1688.13,1335.41 L 1707.36,1346.61 L 1732.09,1359.22 L 1732.09,1370.43 L 1726.59,1381.63 L 1723.85,1392.84 M 1685.38,1366.23 L 1707.36,1387.24 L 1729.34,1409.65 L 1751.32,1429.26 L 1773.31,1447.47 L 1795.29,1464.28 L 1814.52,1481.09 L 1833.76,1495.10 L 1852.99,1510.51 L 1874.98,1525.91 L 1918.94,1553.93 L 1943.67,1566.54 L 1968.40,1577.74 L 2031.60,1609.96 M 2028.85,1629.57 L 2006.87,1625.37 L 1982.14,1618.37 L 1960.16,1608.56 L 1935.43,1608.56 M 1965.65,1605.76 L 1962.90,1616.96 L 2006.87,1621.17 M 2064.57,1591.75 L 2039.84,1581.95 L 2017.86,1572.14 L 1954.66,1535.72 L 1932.68,1521.71 L 1932.68,1520.31 L 1946.42,1531.52 L 1965.65,1541.32 L 2004.12,1563.74 L 2026.10,1574.94 L 2050.83,1586.15 M 2048.09,1623.97 L 2031.60,1611.36 L 2012.37,1601.56 L 1987.63,1590.35 L 1968.40,1579.14 L 1949.17,1566.54 L 1927.18,1556.73 L 1910.70,1546.93 L 1894.21,1535.72 L 1874.98,1524.51 L 1861.24,1511.91 L 1842.00,1500.70 L 1828.26,1489.49 L 1795.29,1467.08 L 1778.80,1454.47 L 1765.06,1443.27 L 1754.07,1433.46 L 1737.59,1422.26 L 1704.61,1388.64 L 1690.87,1377.43 L 1682.63,1366.23 L 1677.13,1355.02 L 1668.89,1343.81 L 1655.15,1332.61 L 1630.42,1322.80 L 1608.44,1320.00 M 1652.40,1325.60 L 1674.39,1339.61 M 1624.93,1272.37 L 1605.69,1275.18 L 1616.68,1272.37 M 1646.91,1233.15 L 1624.93,1227.55 M 1638.67,1231.75 L 1624.93,1230.35 L 1611.19,1230.35 L 1602.94,1224.75 L 1580.96,1227.55 M 1663.40,1227.55 L 1652.40,1237.35 L 1663.40,1227.55 L 1685.38,1226.15 L 1718.35,1231.75 L 1740.33,1227.55 L 1762.32,1216.34 M 1776.05,1212.14 L 1751.32,1223.35 L 1770.56,1231.75 L 1792.54,1228.95 M 1756.82,1269.57 L 1726.59,1280.78 L 1718.35,1291.98 L 1715.60,1303.19 L 1721.10,1315.80 M 1800.79,1308.79 L 1781.55,1297.59 L 1778.80,1286.38 L 1770.56,1275.18 M 1883.22,1216.34 L 1905.20,1210.74 L 1927.18,1206.54 L 1946.42,1203.74 L 1968.40,1200.93 M 1987.63,1186.93 L 2006.87,1182.72 L 2028.85,1186.93 L 2050.83,1181.32 L 2072.82,1171.52 L 2097.55,1165.91 L 2122.28,1163.11 L 2166.24,1160.31 L 2188.22,1160.31 L 2212.95,1161.71 L 2256.92,1167.32 L 2276.15,1172.92 L 2298.14,1179.92 L 2317.37,1189.73 L 2339.35,1207.94 L 2369.58,1220.54 M 2375.07,1230.35 L 2364.08,1234.55 L 2386.06,1231.75 L 2408.05,1235.95 L 2432.78,1249.96 M 2454.76,1251.36 L 2479.49,1231.75 L 2501.47,1221.95 L 2517.96,1223.35 L 2493.23,1227.55 L 2473.99,1238.75 L 2463.00,1249.96 L 2457.51,1261.17 M 2452.01,1266.77 L 2476.74,1269.57 L 2498.72,1272.37 L 2520.71,1265.37 L 2526.20,1259.77 L 2509.72,1270.97 L 2539.94,1273.77 M 2564.67,1265.37 L 2545.44,1254.16 M 2561.92,1261.17 L 2539.94,1251.36 L 2512.46,1247.16 L 2512.46,1256.96 L 2512.46,1245.76 M 2539.94,1242.96 L 2570.17,1254.16 M 2586.65,1273.77 L 2608.64,1279.38 L 2633.37,1273.77 L 2677.33,1268.17 L 2677.33,1266.77 L 2619.63,1277.98 M 2605.89,1293.39 L 2627.87,1291.98 L 2652.60,1287.78 L 2674.58,1284.98 M 2702.06,1283.58 L 2718.55,1282.18 L 2713.05,1293.39 L 2704.81,1304.59 L 2693.82,1317.20 L 2677.33,1328.40 L 2652.60,1339.61 L 2669.09,1332.61 L 2691.07,1318.60 L 2713.05,1293.39 M 2732.29,1304.59 L 2707.56,1327.00 L 2685.57,1341.01 L 2666.34,1352.22 L 2641.61,1359.22 L 2597.64,1367.63 L 2575.66,1392.84 L 2534.45,1447.47 L 2512.46,1472.68 L 2493.23,1495.10 L 2473.99,1514.71 L 2452.01,1531.52 M 2473.99,1521.71 L 2476.74,1531.52 L 2476.74,1553.93 L 2473.99,1563.74 L 2471.25,1574.94 L 2473.99,1584.75 L 2471.25,1595.95 L 2473.99,1607.16 M 2501.47,1615.56 L 2523.45,1629.57 L 2545.44,1637.98 L 2592.15,1658.99 M 2619.63,1675.80 L 2638.86,1658.99 L 2660.84,1654.79 L 2680.08,1654.79 L 2702.06,1663.19 M 2674.58,1656.19 L 2704.81,1665.99 L 2710.30,1677.20 L 2713.05,1688.40 L 2718.55,1699.61 L 2718.55,1722.02 L 2724.04,1731.83 L 2724.04,1743.04 L 2732.29,1752.84 L 2737.78,1765.45 L 2743.28,1776.65 L 2754.27,1787.86 L 2759.76,1806.07 L 2768.01,1818.68 L 2784.49,1841.09 L 2806.48,1866.30 L 2817.47,1877.51 M 2814.72,1870.51 L 2792.74,1843.89 L 2770.76,1820.08 M 2696.57,1821.48 L 2699.31,1810.27 L 2696.57,1799.07 L 2691.07,1794.86 M 2594.90,1862.10 L 2572.91,1867.70 L 2523.45,1845.29 L 2504.22,1831.28 L 2482.24,1821.48 L 2460.26,1813.07 L 2435.53,1804.67 L 2413.54,1794.86 L 2350.34,1762.65 L 2325.61,1754.24 L 2306.38,1744.44 L 2281.65,1736.03 L 2259.67,1731.83 L 2237.68,1731.83 L 2215.70,1737.43 L 2193.72,1752.84 M 2199.21,1765.45 L 2221.20,1780.86 L 2243.18,1793.46 L 2311.87,1828.48 L 2333.86,1838.29 L 2355.84,1853.70 M 2408.05,1863.50 L 2409.27,1863.19 L 2411.10,1862.72 L 2412.32,1862.41 L 2413.54,1862.10 L 2410.79,1874.71 L 2405.30,1884.51 L 2424.53,1898.52 L 2449.26,1905.53 M 2452.01,1878.91 L 2473.99,1892.92 L 2493.23,1901.32 L 2512.46,1911.13 L 2531.70,1918.13 L 2550.93,1926.54 M 2625.12,1932.14 L 2647.11,1940.54 L 2671.84,1954.55 L 2696.57,1964.36 L 2715.80,1978.37 L 2759.76,1997.98 M 2927.38,2011.98 L 2921.88,2023.19 L 2932.88,2045.60 L 2943.87,2056.81 L 2946.61,2068.02 L 2952.11,2079.22 L 2963.10,2089.03 L 2968.60,2100.23 L 2976.84,2111.44 M 2990.58,2096.03 L 3012.56,2094.63 M 2985.08,2108.64 L 2963.10,2079.22 M 2996.07,2049.81 L 3015.31,2051.21 L 3037.29,2062.41 L 3062.02,2062.41 L 3084.00,2065.21 L 3105.99,2077.82 M 3097.74,2066.61 L 3059.27,2055.41 M 3004.32,2000.78 L 3029.05,2007.78 L 3051.03,2013.39 L 3073.01,2016.19 L 3144.46,2011.98 L 3169.19,2016.19 L 3191.17,2017.59 L 3213.15,2020.39 L 3235.13,2028.79 L 3257.11,2035.80 L 3279.10,2044.20 L 3298.33,2049.81 L 3339.55,2049.81 L 3361.53,2051.21 L 3380.77,2055.41 M 3375.27,2052.61 L 3391.76,2063.81 L 3400.00,2077.82 M 3309.32,2054.01 L 3268.11,2042.80 L 3207.65,2020.39 M 3202.16,1946.15 L 3180.18,1944.75 L 3155.45,1947.55 L 3136.21,1950.35 L 3111.48,1962.96 L 3067.52,1974.16 L 3045.53,1982.57 L 3023.55,1988.17 L 3004.32,1995.18 M 2996.07,2009.18 L 2974.09,2009.18 L 2952.11,2010.58 L 2930.13,2010.58 M 2993.33,1940.54 L 3015.31,1953.15 L 3040.04,1957.35 L 3062.02,1961.56 L 3086.75,1964.36 M 3097.74,1944.75 L 3075.76,1950.35 L 3053.78,1941.95 M 3031.80,1940.54 L 3053.78,1927.94 L 3075.76,1927.94 M 3062.02,1922.33 L 3040.04,1933.54 L 3075.76,1947.55 L 3105.99,1944.75 M 3136.21,1947.55 L 3111.48,1958.75 L 3034.54,1981.17 L 3004.32,1993.77 L 3031.80,2004.98 M 3064.77,1960.16 L 3009.81,1948.95 L 3001.57,1937.74 M 3122.47,1930.74 L 3121.56,1931.21 L 3120.64,1931.67 L 3117.89,1933.07 L 3114.23,1934.94 L 3125.22,1927.94 L 3130.72,1916.73 L 3127.97,1904.12 M 3229.64,1929.34 L 3218.65,1940.54 M 3221.39,1939.14 L 3243.38,1933.54 L 3265.36,1932.14 L 3287.34,1929.34 L 3306.58,1927.94 L 3328.56,1922.33 L 3350.54,1919.53 L 3372.52,1920.93 L 3394.50,1915.33 M 3397.25,1773.85 L 3386.26,1762.65 L 3378.02,1750.04 L 3375.27,1737.43 L 3380.77,1715.02 L 3386.26,1703.81 L 3394.50,1692.61 L 3397.25,1671.60 L 3372.52,1667.39 L 3350.54,1664.59 L 3328.56,1660.39 L 3262.61,1651.98 L 3240.63,1647.78 L 3221.39,1643.58 M 3295.58,1653.39 L 3361.53,1664.59 M 3180.18,1710.82 L 3160.94,1703.81 L 3136.21,1699.61 L 3114.23,1694.01 L 3095.00,1689.81 L 3073.01,1684.20 L 3051.03,1684.20 L 3051.03,1694.01 L 3048.28,1705.21 M 3062.02,1684.20 L 3108.73,1695.41 L 3160.94,1706.61 L 3196.66,1717.82 L 3202.16,1740.23 L 3204.91,1750.04 L 3210.40,1761.25 L 3210.40,1771.05 L 3215.90,1782.26 L 3215.90,1804.67 L 3210.40,1817.28 M 3155.45,1712.22 L 3133.46,1715.02 L 3111.48,1719.22 L 3092.25,1726.23 L 3070.26,1733.23 L 3048.28,1736.03 L 3026.30,1733.23 L 3004.32,1733.23 L 2979.59,1734.63 L 2957.61,1734.63 L 2932.88,1740.23 L 2908.15,1750.04 L 2886.16,1771.05 M 2861.43,1786.46 L 2883.42,1792.06 M 2855.94,1785.06 L 2877.92,1796.26 L 2913.64,1807.47 M 2946.61,1731.83 L 2913.64,1744.44 L 2891.66,1766.85 L 2886.16,1778.05 L 2880.67,1790.66 L 2897.15,1803.27 L 2919.14,1808.87 L 2938.37,1811.67 L 2982.34,1817.28 L 3007.07,1820.08 L 3026.30,1821.48 L 3070.26,1824.28 L 3144.46,1824.28 L 3166.44,1821.48 L 3191.17,1820.08 M 3084.00,1723.42 L 3125.22,1710.82 M 3029.05,1673.00 L 3007.07,1678.60 L 2985.08,1682.80 L 2963.10,1684.20 L 2938.37,1682.80 L 2916.39,1677.20 L 2894.41,1684.20 L 2869.68,1685.60 L 2844.95,1688.40 L 2822.96,1689.81 L 2822.96,1688.40 L 2820.22,1698.21 L 2822.96,1709.42 L 2828.46,1722.02 M 2743.28,1710.82 L 2721.30,1708.02 M 2655.35,1706.61 L 2651.07,1704.44 L 2649.85,1703.81 L 2641.61,1692.61 L 2636.11,1682.80 L 2633.37,1673.00 M 2649.85,1657.59 L 2625.12,1670.19 L 2616.88,1681.40 L 2608.64,1691.21 L 2605.89,1701.01 L 2605.89,1712.22 L 2608.64,1722.02 L 2614.13,1733.23 L 2611.38,1743.04 L 2611.38,1776.65 L 2614.13,1789.26 L 2614.13,1813.07 L 2616.88,1824.28 L 2616.88,1846.69 L 2605.89,1856.50 L 2589.40,1867.70 M 2495.98,1852.30 L 2473.99,1867.70 L 2478.27,1865.53 L 2479.49,1864.90 L 2495.98,1855.10 L 2468.50,1862.10 L 2446.52,1877.51 M 2421.79,1881.71 L 2443.77,1862.10 L 2465.75,1848.09 L 2452.01,1855.10 L 2438.27,1867.70 L 2427.28,1878.91 L 2421.79,1897.12 L 2449.26,1906.93 M 2454.76,1909.73 L 2408.05,1906.93 L 2364.08,1909.73 L 2342.10,1922.33 M 2342.10,1934.94 L 2366.83,1951.75 L 2388.81,1947.55 M 2377.82,1972.76 L 2397.06,1989.57 L 2419.04,1995.18 L 2438.27,2000.78 L 2457.51,2009.18 L 2476.74,2016.19 L 2498.72,2024.59 M 2559.18,2010.58 L 2581.16,2020.39 L 2603.14,2040.00 L 2625.12,2051.21 L 2647.11,2063.81 M 2633.37,2056.81 L 2614.13,2045.60 L 2600.39,2033.00 L 2589.40,2021.79 L 2564.67,2010.58 M 2504.22,2035.80 L 2484.99,2024.59 L 2463.00,2014.79 L 2441.02,2009.18 L 2419.04,2002.18 L 2397.06,1997.98 L 2375.07,1999.38 L 2353.09,2017.59 M 2355.84,2030.19 L 2377.82,2049.81 L 2402.55,2062.41 L 2424.53,2069.42 L 2446.52,2075.02 L 2487.73,2096.03 L 2506.97,2118.44 L 2550.93,2160.47 L 2572.91,2180.08 L 2616.88,2205.29 L 2638.86,2215.10 L 2660.84,2223.50 L 2685.57,2230.51 M 2729.54,2271.13 L 2748.77,2282.33 L 2773.50,2294.94 L 2811.97,2306.15 L 2822.96,2317.35 L 2822.96,2327.16 L 2836.70,2332.76 L 2842.20,2329.03 L 2843.11,2328.40 L 2844.95,2327.16 L 2866.93,2328.56 L 2891.66,2328.56 L 2916.39,2332.76 L 2935.62,2321.56 L 2971.34,2315.95 M 2957.61,2322.96 L 2955.77,2322.65 L 2951.19,2321.87 L 2949.36,2321.56 L 2979.59,2314.55 L 2979.59,2303.35 M 2905.40,2352.37 L 2941.12,2366.38 L 2924.63,2370.58 L 2924.63,2381.79 L 2919.14,2393.00 M 2921.88,2360.78 L 2943.87,2363.58 L 2965.85,2362.18 L 2985.08,2362.18 L 3007.07,2360.78 L 3012.56,2364.98 L 2974.09,2376.19 L 2921.88,2385.99 L 2965.85,2380.39 L 2990.58,2369.18 L 3012.56,2363.58 M 2919.14,2321.56 L 2894.41,2322.96 L 2869.68,2322.96 L 2847.69,2321.56 L 2817.47,2318.75 L 2792.74,2311.75 L 2770.76,2306.15 L 2726.79,2286.54 L 2702.06,2285.14 M 2713.05,2280.93 L 2713.05,2292.14 L 2721.30,2303.35 L 2743.28,2313.15 L 2762.51,2322.96 L 2792.74,2336.96 L 2800.98,2350.97 L 2842.20,2363.58 L 2847.69,2376.19 L 2866.93,2384.59 M 2831.21,2381.79 L 2811.97,2376.19 L 2787.24,2370.58 L 2765.26,2363.58 L 2743.28,2355.18 L 2724.04,2338.37 L 2702.06,2328.56 M 2704.81,2324.36 L 2726.79,2329.96 L 2770.76,2346.77 L 2792.74,2350.97 L 2811.97,2355.18 L 2833.95,2359.38 L 2858.68,2363.58 L 2877.92,2367.78 M 2877.92,2363.58 L 2886.16,2376.19 M 2811.97,2331.36 L 2789.99,2315.95 L 2746.03,2299.14 M 2748.77,2301.95 L 2776.25,2313.15 L 2798.23,2324.36 L 2806.48,2335.56 L 2805.56,2336.03 L 2804.65,2336.50 L 2803.73,2336.96 L 2822.96,2341.17 L 2866.93,2343.97 L 2888.91,2348.17 M 2784.49,2328.56 L 2762.51,2322.96 L 2743.28,2313.15 L 2724.04,2301.95 M 2726.79,2294.94 L 2746.03,2289.34 L 2746.03,2300.54 L 2787.24,2307.55 L 2811.97,2320.16 M 2773.50,2343.97 L 2735.03,2332.76 L 2718.55,2321.56 M 2704.81,2318.75 L 2715.80,2328.56 L 2735.03,2341.17 L 2757.02,2353.77 L 2784.49,2366.38 L 2831.21,2377.59 M 2726.79,2276.73 L 2746.03,2287.94 L 2768.01,2296.34 L 2789.99,2303.35 L 2809.22,2308.95 L 2831.21,2313.15 L 2877.92,2315.95 L 2899.90,2315.95 L 2921.88,2308.95 L 2968.60,2282.33 L 2990.58,2265.53 L 3012.56,2244.51 M 3040.04,2189.88 L 3045.53,2199.69 L 3045.53,2216.50 L 3042.79,2231.91 L 3048.28,2243.11 L 3031.80,2255.72 L 3020.80,2266.93 L 3031.80,2268.33 L 3007.07,2280.93 L 3009.81,2293.54 L 2987.83,2304.75 L 3001.57,2304.75 L 2982.34,2317.35 L 2979.59,2304.75 M 3122.47,2252.92 L 3100.49,2223.50 L 3075.76,2206.69 L 3053.78,2184.28 M 3067.52,2178.68 L 3108.73,2181.48 M 3116.98,2168.87 L 3095.00,2163.27 L 3073.01,2168.87 L 3051.03,2164.67 M 3097.74,2164.67 L 3116.98,2177.28 M 3108.73,2156.26 L 3114.23,2146.46 L 3103.24,2152.06 M 3111.48,2142.26 L 3116.98,2153.46 L 3125.22,2164.67 M 3015.31,2140.86 L 3037.29,2152.06 L 3038.21,2152.68 L 3039.12,2153.31 L 3040.96,2154.55 L 3041.87,2155.18 L 3044.62,2157.04 L 3045.53,2157.67 L 3051.03,2167.47 L 3062.02,2180.08 L 3062.02,2191.28 L 3073.01,2201.09 L 3105.99,2220.70 L 3116.98,2230.51 L 3125.22,2240.31 L 3130.72,2252.92 L 3136.21,2264.12 L 3138.96,2275.33 L 3138.96,2286.54 L 3141.71,2297.74 L 3149.95,2306.15 L 3196.66,2308.95 L 3279.10,2308.95 L 3323.06,2303.35 L 3342.30,2301.95 L 3364.28,2294.94 L 3386.26,2290.74 L 3350.54,2296.34 M 3009.81,2135.25 L 3018.06,2146.46 L 3023.55,2157.67 L 3026.30,2170.27 L 3031.80,2181.48 L 3029.05,2192.68 L 3029.05,2216.50 L 3026.30,2227.70 L 3020.80,2240.31 L 2998.82,2262.72 L 2982.34,2272.53 L 2965.85,2283.74 L 2946.61,2296.34 L 2930.13,2307.55 L 2935.62,2318.75 L 2935.01,2320.62 L 2932.88,2327.16 L 2916.39,2338.37 L 2910.89,2355.18 L 2910.89,2367.78 L 2913.64,2377.59 L 2913.64,2388.79 L 2916.39,2400.00 M 2061.83,2359.38 L 2053.58,2370.58 L 2048.09,2381.79 L 2042.59,2391.60 M 2083.81,2245.91 L 2100.29,2223.50 L 2103.04,2212.30 L 2097.55,2220.70 M 2105.79,2209.49 L 2094.80,2231.91 L 2086.56,2243.11 M 2369.58,1999.38 L 2355.84,2010.58 L 2347.60,2020.39 L 2353.09,2031.60 L 2361.33,2042.80 L 2377.82,2052.61 L 2397.06,2065.21 L 2432.78,2076.42 L 2460.26,2087.63 L 2482.24,2100.23 L 2495.98,2110.04 L 2504.22,2122.65 L 2515.21,2133.85 L 2528.95,2143.66 L 2537.19,2154.86 L 2548.18,2166.07 L 2561.92,2177.28 L 2603.14,2198.29 L 2622.37,2209.49 L 2652.60,2220.70 L 2682.83,2230.51 M 2515.21,2040.00 L 2487.73,2028.79 L 2457.51,2017.59 L 2424.53,2006.38 L 2380.57,1996.58 M 2498.72,2024.59 L 2465.75,2013.39 L 2430.03,2002.18 L 2386.06,1990.97 L 2369.58,1979.77 L 2361.33,1967.16 L 2361.33,1955.95 L 2344.85,1943.35 L 2336.60,1932.14 L 2339.35,1919.53 L 2364.08,1908.33 M 2479.49,1855.10 L 2457.51,1866.30 L 2443.77,1877.51 L 2449.26,1887.32 L 2465.75,1897.12 L 2493.23,1906.93 L 2528.95,1918.13 L 2559.18,1929.34 M 2627.87,1933.54 L 2674.58,1954.55 L 2696.57,1965.76 L 2713.05,1976.96 L 2765.26,2000.78 M 3048.28,1665.99 L 3045.53,1656.19 L 3042.79,1644.98 L 3042.79,1611.36 L 3040.04,1600.16 L 3040.04,1587.55 L 3037.29,1576.34 L 3037.29,1565.14 L 3040.04,1553.93 L 3040.04,1544.12 L 3037.29,1532.92 L 3037.29,1510.51 L 3034.54,1499.30 L 3034.54,1476.89 L 3031.80,1465.68 L 3034.54,1455.88 L 3034.54,1433.46 L 3031.80,1420.86 L 3031.80,1409.65 L 3029.05,1398.44 L 3029.05,1387.24 L 3023.55,1376.03 L 3023.55,1352.22 L 3020.80,1341.01 L 3020.80,1320.00 L 3015.31,1308.79 L 3012.56,1297.59 L 3018.06,1284.98 L 3012.56,1262.57 L 3015.31,1249.96 L 3015.31,1237.35 L 3012.56,1226.15 L 3015.31,1214.94 L 3009.81,1203.74 L 3009.81,1191.13 L 3007.07,1179.92 L 3007.07,1147.70 L 3009.81,1137.90 L 3007.07,1128.09 L 3007.07,1107.08 L 3001.57,1095.88 L 3001.57,1074.86 L 2998.82,1062.26 L 2998.82,1039.84 L 2996.07,1028.64 L 2990.58,1017.43 L 2990.58,1006.23 L 2985.08,983.81 L 2985.08,972.61 L 2982.34,961.40 L 2982.34,916.58 L 2974.09,882.96 L 2974.09,871.75 L 2971.34,861.95 L 2971.34,850.74 L 2968.60,839.53 L 2971.34,826.93 L 2965.85,815.72 L 2963.10,804.51 L 2963.10,745.68 L 2965.85,734.47 L 2963.10,723.27 L 2960.35,710.66 L 2960.35,699.46 L 2963.10,688.25 L 2960.35,677.04 L 2963.10,665.84 L 2957.61,643.42 L 2954.86,633.62 L 2952.11,622.41 L 2949.36,612.61 L 2930.13,611.21 L 2908.15,607.00 L 2886.16,605.60 L 2864.18,607.00 L 2789.99,607.00 L 2765.26,605.60 L 2718.55,605.60 L 2699.31,604.20 L 2680.08,604.20 L 2660.84,602.80 L 2622.37,602.80 L 2600.39,604.20 L 2578.41,604.20 L 2553.68,601.40 L 2509.72,604.20 L 2465.75,601.40 L 2443.77,602.80 L 2399.80,602.80 L 2377.82,601.40 L 2331.11,604.20 L 2287.14,604.20 L 2243.18,601.40 L 2179.98,601.40 L 2158.00,600.00 L 2136.02,600.00 L 2114.03,602.80 L 2092.05,601.40 M 2265.16,656.03 L 2265.16,678.44 L 2267.91,688.25 L 2265.16,698.05 L 2265.16,707.86 L 2267.91,719.07 L 2267.91,728.87 L 2270.66,740.08 L 2270.66,773.70 L 2273.41,784.90 L 2273.41,797.51 L 2281.65,831.13 L 2278.90,842.33 L 2278.90,864.75 L 2281.65,874.55 L 2282.56,875.18 L 2288.98,879.53 L 2289.89,880.16 M 2350.34,870.35 L 2375.07,882.96 L 2394.31,885.76 L 2413.54,898.37 M 2443.77,888.56 L 2468.50,901.17 L 2495.98,913.77 M 2482.24,1014.63 L 2506.97,1027.24 L 2531.70,1037.04 L 2564.67,1059.46 L 2578.41,1070.66 L 2589.40,1081.87 L 2597.64,1093.07 L 2603.14,1105.68 L 2605.89,1115.49 L 2608.64,1128.09 L 2611.38,1139.30 L 2616.88,1150.51 L 2616.88,1163.11 L 2614.13,1174.32 L 2611.38,1184.12 M 2594.90,1185.53 L 2583.91,1174.32 M 2627.87,1175.72 L 2597.64,1178.52 L 2553.68,1175.72 L 2531.70,1171.52 L 2506.97,1174.32 L 2484.99,1181.32 L 2473.99,1181.32 L 2517.96,1170.12 M 2537.19,1205.14 L 2490.48,1216.34 L 2468.50,1227.55 L 2457.51,1240.16 L 2449.26,1251.36 L 2441.02,1269.57 L 2463.00,1289.18 L 2482.24,1300.39 M 2476.74,1334.01 L 2487.73,1343.81 M 2432.78,1362.02 L 2410.79,1366.23 L 2427.28,1363.42 M 2438.27,1371.83 L 2416.29,1377.43 M 2350.34,1349.42 L 2328.36,1345.21 L 2306.38,1343.81 L 2284.40,1346.61 L 2265.16,1348.02 L 2240.43,1338.21 M 2248.68,1329.81 L 2270.66,1315.80 L 2292.64,1304.59 L 2291.72,1305.21 L 2290.81,1305.84 L 2284.40,1310.19 L 2262.41,1322.80 L 2248.68,1334.01 L 2223.95,1342.41 L 2221.20,1353.62 L 2240.43,1364.82 M 2226.69,1352.22 L 2248.68,1360.62 L 2273.41,1364.82 L 2295.39,1369.03 L 2320.12,1370.43 L 2339.35,1371.83 L 2361.33,1374.63 M 2361.33,1367.63 L 2361.33,1356.42 L 2336.60,1346.61 M 2240.43,1342.41 L 2218.45,1341.01 M 2179.98,1328.40 L 2201.96,1327.00 L 2226.69,1321.40 L 2251.42,1313.00 L 2240.43,1315.80 M 2259.67,1280.78 L 2258.45,1279.53 L 2254.17,1275.18 L 2234.94,1263.97 L 2265.16,1259.77 L 2259.67,1265.37 L 2237.68,1265.37 M 2265.16,1237.35 L 2248.68,1224.75 L 2212.95,1213.54 L 2166.24,1216.34 M 2188.22,1216.34 L 2174.48,1227.55 L 2175.71,1231.28 L 2176.32,1233.15 L 2177.23,1235.95 L 2199.21,1235.95 M 2221.20,1235.95 L 2207.46,1224.75 M 2265.16,1206.54 L 2287.14,1213.54 M 2276.15,1202.33 L 2295.39,1214.94 L 2300.88,1224.75 M 2267.91,1242.96 L 2245.93,1227.55 L 2221.20,1221.95 L 2199.21,1216.34 L 2174.48,1212.14 L 2152.50,1207.94 L 2130.52,1209.34 L 2111.29,1209.34 L 2092.05,1210.74 L 2070.07,1213.54 L 2092.05,1209.34 M 2100.29,1214.94 L 2111.29,1227.55 M 2083.81,1216.34 L 2105.79,1221.95 L 2127.77,1231.75 L 2152.50,1233.15 L 2174.48,1227.55 L 2190.97,1217.74 L 2210.21,1223.35 M 2210.21,1199.53 L 2185.48,1196.73 L 2163.49,1196.73 M 2166.24,1170.12 L 2215.70,1181.32 L 2251.42,1178.52 L 2295.39,1189.73 L 2317.37,1205.14 M 2328.36,1196.73 L 2355.84,1219.14 L 2347.60,1231.75 L 2344.85,1244.36 L 2336.60,1255.56 L 2325.61,1266.77 L 2311.87,1277.98 L 2298.14,1290.58 L 2320.12,1275.18 M 2397.06,1234.55 L 2419.04,1245.76 M 2421.79,1228.95 L 2435.53,1238.75 L 2435.53,1261.17 L 2441.02,1272.37 L 2452.01,1284.98 L 2473.99,1296.19 M 2471.25,1242.96 L 2512.46,1242.96 L 2534.45,1245.76 L 2559.18,1252.76 L 2583.91,1262.57 M 2583.91,1213.54 L 2603.14,1210.74 L 2625.12,1213.54 L 2647.11,1219.14 L 2671.84,1224.75 L 2693.82,1234.55 L 2715.80,1247.16 M 2649.85,1220.54 L 2691.07,1231.75 L 2713.05,1242.96 L 2724.04,1254.16 L 2732.29,1265.37 L 2732.29,1276.58 L 2726.79,1287.78 L 2715.80,1300.39 L 2691.07,1325.60 L 2674.58,1338.21 L 2644.36,1349.42 M 2729.54,1318.60 L 2726.79,1331.21 L 2729.54,1341.01 L 2729.54,1373.23 L 2732.29,1384.44 L 2732.29,1406.85 L 2735.03,1418.05 L 2735.03,1439.07 L 2737.78,1448.87 L 2737.78,1460.08 L 2735.03,1471.28 L 2737.78,1481.09 L 2737.78,1492.30 L 2740.53,1503.50 L 2743.28,1516.11 L 2743.28,1527.32 L 2746.03,1539.92 L 2746.03,1572.14 L 2748.77,1583.35 L 2748.77,1608.56 L 2751.52,1621.17 L 2751.52,1632.37 L 2754.27,1644.98 L 2754.27,1654.79 L 2757.02,1667.39 L 2762.51,1677.20 M 2454.76,1608.56 L 2432.78,1601.56 L 2410.79,1595.95 M 2413.54,1593.15 L 2446.52,1605.76 M 2419.04,1574.94 L 2397.06,1593.15 L 2375.07,1604.36 L 2353.09,1616.96 L 2331.11,1623.97 L 2309.13,1632.37 L 2320.12,1625.37 L 2358.59,1614.16 L 2402.55,1591.75 L 2416.29,1580.54 L 2430.03,1570.74 L 2441.02,1560.93 L 2443.77,1549.73 L 2443.77,1538.52 L 2452.01,1527.32 L 2465.75,1516.11 L 2476.74,1504.90 L 2490.48,1493.70 L 2501.47,1481.09 L 2509.72,1469.88 L 2520.71,1457.28 L 2528.95,1444.67 L 2539.94,1433.46 L 2545.44,1422.26 L 2553.68,1411.05 L 2561.92,1401.25 L 2572.91,1391.44 L 2581.16,1381.63 L 2592.15,1370.43 L 2616.88,1360.62 L 2660.84,1349.42 L 2685.57,1338.21 L 2704.81,1328.40 L 2721.30,1317.20 L 2729.54,1305.99 L 2735.03,1294.79 L 2743.28,1283.58 L 2754.27,1273.77 L 2740.53,1263.97 L 2732.29,1251.36 L 2721.30,1240.16 L 2696.57,1227.55 L 2655.35,1217.74 L 2636.11,1203.74 L 2627.87,1192.53 L 2633.37,1181.32 L 2647.11,1170.12 L 2649.85,1157.51 L 2641.61,1144.90 L 2647.11,1133.70 L 2666.34,1122.49 L 2677.33,1114.09 L 2655.35,1129.49 L 2636.11,1136.50 M 2592.15,1088.87 L 2570.17,1065.06 L 2550.93,1049.65 L 2528.95,1037.04 L 2506.97,1027.24 L 2482.24,1018.83 L 2460.26,1013.23 L 2438.27,1013.23 L 2413.54,1007.63 L 2394.31,1004.82 L 2380.57,1007.63 L 2361.33,1003.42 L 2339.35,996.42 L 2320.12,995.02 M 2333.86,995.02 L 2366.83,996.42 L 2416.29,1009.03 M 2256.92,1144.90 L 2284.40,1156.11 L 2306.38,1160.31 M 2300.88,1188.33 L 2281.65,1181.32 L 2259.67,1175.72 L 2237.68,1171.52 L 2215.70,1168.72 L 2168.99,1165.91 L 2147.01,1165.91 L 2125.02,1167.32 L 2100.29,1170.12 L 2078.31,1177.12 L 2056.33,1189.73 L 2034.35,1212.14 M 2064.57,1195.33 L 2086.56,1191.13 L 2108.54,1191.13 L 2130.52,1189.73 L 2152.50,1189.73 L 2174.48,1191.13 L 2193.72,1193.93 L 2210.21,1209.34 M 2218.45,1184.12 L 2174.48,1175.72 L 2149.75,1174.32 L 2127.77,1175.72 M 2122.28,1171.52 L 2078.31,1182.72 L 2053.58,1192.53 L 2042.59,1203.74 L 2037.10,1213.54 M 2026.10,1235.95 L 2026.10,1247.16 L 2031.60,1258.37 L 2053.58,1283.58 L 2067.32,1294.79 L 2089.30,1305.99 M 2138.76,1322.80 L 2114.03,1317.20 L 2092.05,1311.60 L 2070.07,1301.79 L 2048.09,1287.78 L 2028.85,1259.77 M 2034.35,1256.96 L 2056.33,1284.98 L 2075.56,1298.99 L 2097.55,1308.79 L 2122.28,1313.00 L 2144.26,1315.80 L 2166.24,1317.20 L 2190.97,1317.20 L 2212.95,1314.40 L 2234.94,1310.19 L 2256.92,1301.79 L 2251.42,1301.79 L 2218.45,1313.00 M 2116.78,1318.60 L 2081.06,1308.79 L 2059.08,1297.59 L 2045.34,1286.38 L 2037.10,1275.18 L 2026.10,1263.97 L 2020.61,1252.76 L 2012.37,1240.16 M 1968.40,1196.73 L 1968.40,1188.33 L 1946.42,1188.33 L 1924.44,1189.73 L 1905.20,1192.53 L 1880.47,1199.53 M 1932.68,1188.33 L 1883.22,1199.53 L 1866.73,1228.95 L 1852.99,1240.16 M 1998.63,1192.53 L 2004.12,1181.32 M 1995.88,1178.52 L 1990.38,1191.13 L 2001.37,1195.33 M 2070.07,1172.92 L 2105.79,1163.11 M 2105.79,1129.49 L 2053.58,1140.70 L 2026.10,1151.91 L 2001.37,1163.11 L 2015.11,1157.51 L 2037.10,1146.30 L 2059.08,1142.10 L 2083.81,1135.10 L 2108.54,1130.89 L 2130.52,1133.70 L 2152.50,1135.10 L 2171.74,1133.70 L 2193.72,1135.10 L 2218.45,1140.70 L 2243.18,1143.50 L 2265.16,1147.70 L 2287.14,1156.11 L 2309.13,1158.91 M 2248.68,1177.12 L 2287.14,1188.33 L 2309.13,1199.53 L 2320.12,1210.74 L 2328.36,1223.35 L 2325.61,1235.95 L 2322.87,1247.16 L 2314.62,1258.37 M 2413.54,1217.74 L 2432.78,1219.14 L 2457.51,1224.75 M 2457.51,1227.55 L 2424.53,1216.34 M 2594.90,1213.54 L 2611.38,1223.35 L 2625.12,1230.35 L 2619.63,1241.56 L 2608.64,1254.16 L 2600.39,1265.37 L 2597.64,1280.78 L 2594.90,1293.39 L 2594.90,1304.59 L 2597.64,1315.80 L 2597.64,1327.00 L 2603.14,1338.21 L 2603.14,1349.42 L 2608.64,1356.42 L 2630.62,1353.62 L 2655.35,1345.21 L 2677.33,1335.41 L 2702.06,1320.00 L 2721.30,1294.79 M 2449.26,1458.68 L 2427.28,1444.67 L 2405.30,1436.26 L 2358.59,1433.46 L 2336.60,1429.26 L 2314.62,1427.86 L 2295.39,1430.66 L 2273.41,1432.06 L 2254.17,1434.86 L 2232.19,1436.26 L 2212.95,1439.07 L 2190.97,1440.47 L 2168.99,1443.27 M 2182.73,1457.28 L 2182.73,1478.29 M 2193.72,1461.48 L 2207.46,1472.68 L 2251.42,1495.10 L 2265.16,1506.30 L 2276.15,1517.51 L 2292.64,1527.32 L 2314.62,1537.12 L 2336.60,1539.92 L 2358.59,1544.12 L 2380.57,1545.53 L 2402.55,1539.92 L 2424.53,1541.32 M 2416.29,1544.12 L 2405.30,1549.73 L 2383.32,1553.93 L 2361.33,1555.33 M 2391.56,1545.53 L 2405.30,1534.32 M 2336.60,1516.11 L 2335.69,1515.64 L 2334.77,1515.18 L 2329.28,1512.37 L 2328.36,1511.91 L 2306.38,1511.91 M 2267.91,1490.89 L 2245.93,1479.69 L 2223.95,1465.68 M 2188.22,1460.08 L 2210.21,1475.49 L 2234.94,1486.69 L 2256.92,1502.10 L 2278.90,1520.31 L 2300.88,1534.32 M 2454.76,1479.69 L 2435.53,1465.68 L 2416.29,1462.88 L 2394.31,1461.48 L 2372.33,1462.88 L 2350.34,1461.48 L 2325.61,1461.48 L 2306.38,1458.68 L 2281.65,1457.28 L 2259.67,1453.07 L 2237.68,1450.27 L 2218.45,1448.87 L 2196.47,1451.67 M 2199.21,1448.87 L 2210.21,1460.08 L 2232.19,1475.49 L 2248.68,1488.09 L 2273.41,1499.30 L 2287.14,1510.51 L 2303.63,1514.71 L 2320.12,1524.51 M 2493.23,1493.70 L 2487.73,1506.30 L 2490.48,1517.51 L 2495.98,1528.72 L 2495.98,1598.75 L 2498.72,1609.96 L 2504.22,1619.77 L 2520.71,1630.97 L 2548.18,1642.18 L 2572.91,1653.39 M 2259.67,1636.58 L 2218.45,1633.77 L 2199.21,1633.77 L 2174.48,1628.17 M 2229.44,1729.03 L 2204.71,1740.23 L 2199.21,1751.44 L 2199.21,1762.65 L 2212.95,1775.25 L 2234.94,1787.86 L 2267.91,1810.27 L 2289.89,1821.48 L 2347.60,1855.10 L 2364.08,1866.30 M 2559.18,1867.70 L 2537.19,1856.50 L 2517.96,1845.29 L 2498.72,1832.68 L 2468.50,1821.48 L 2413.54,1799.07 L 2298.14,1740.23 L 2267.91,1727.63 M 1946.42,1614.16 L 1954.66,1598.75 L 1954.66,1587.55 L 1951.91,1577.74 M 1852.99,1573.54 L 1831.01,1560.93 L 1806.28,1548.33 L 1787.05,1532.92 M 1781.55,1530.12 L 1798.04,1541.32 L 1839.25,1562.33 M 1844.75,1576.34 L 1800.79,1551.13 L 1778.80,1535.72 M 1776.05,1532.92 L 1784.30,1544.12 L 1803.53,1555.33 L 1844.75,1576.34 M 1710.11,1560.93 L 1688.13,1551.13 L 1668.89,1545.53 L 1649.66,1538.52 M 1644.16,1541.32 L 1674.39,1552.53 L 1701.86,1563.74 M 1858.49,1612.76 L 1803.53,1601.56 L 1756.82,1590.35 L 1707.36,1577.74 L 1666.14,1566.54 L 1622.18,1555.33 L 1487.54,1521.71 L 1377.63,1500.70 M 1295.19,1490.89 L 1242.98,1479.69 M 1188.03,1472.68 L 1168.79,1464.28 M 1157.80,1455.88 L 1177.04,1451.67 M 1133.07,1419.46 L 1091.85,1440.47 M 1083.61,1457.28 L 1039.65,1462.88 M 1056.13,1490.89 L 1078.12,1488.09 L 1100.10,1488.09 L 1122.08,1489.49 L 1141.32,1486.69 M 1034.15,1440.47 L 1012.17,1433.46 M 1017.66,1464.28 L 995.68,1460.08 L 970.95,1458.68 L 943.47,1472.68 L 924.24,1476.89 L 902.26,1483.89 L 880.27,1492.30 L 858.29,1495.10 L 836.31,1509.11 M 866.54,1492.30 L 844.55,1503.50 L 836.31,1514.71 L 830.81,1527.32 L 830.81,1538.52 L 841.81,1539.92 L 863.79,1535.72 M 891.27,1537.12 L 979.20,1520.31 L 1003.93,1514.71 L 1025.91,1510.51 L 1045.14,1503.50 L 1067.12,1499.30 L 1061.63,1503.50 L 1031.40,1506.30 L 987.44,1517.51 M 905.00,1478.29 L 946.22,1467.08 L 965.46,1457.28 M 1064.38,1408.25 L 1086.36,1405.45 L 1108.34,1398.44 L 1127.58,1392.84 L 1149.56,1383.04 M 1174.29,1373.23 L 1199.02,1380.23 M 1207.26,1388.64 L 1188.03,1404.05 L 1166.05,1402.65 M 1149.56,1406.85 L 1144.06,1418.05 L 1127.58,1422.26 L 1108.34,1433.46 L 1094.60,1443.27 M 1127.58,1404.05 L 1152.31,1404.05 L 1174.29,1390.04 M 1144.06,1363.42 L 1163.30,1359.22 M 1177.04,1366.23 L 1157.80,1353.62 L 1146.81,1357.82 L 1160.55,1348.02 M 1190.78,1348.02 L 1188.03,1359.22 L 1171.54,1367.63 L 1199.02,1378.83 L 1207.26,1390.04 L 1193.52,1399.84 L 1190.78,1413.85 L 1190.78,1423.66 L 1188.03,1433.46 L 1182.53,1443.27 L 1149.56,1454.47 L 1182.53,1464.28 L 1185.28,1475.49 L 1196.27,1481.09 L 1221.00,1478.29 L 1237.49,1472.68 L 1259.47,1479.69 L 1284.20,1486.69 L 1306.18,1490.89 L 1330.91,1492.30 L 1352.89,1496.50 L 1372.13,1499.30 L 1416.09,1504.90 L 1435.33,1509.11 L 1457.31,1513.31 L 1476.55,1518.91 L 1520.51,1530.12 L 1545.24,1535.72 L 1567.22,1538.52 L 1611.19,1549.73 L 1633.17,1556.73 L 1652.40,1563.74 L 1674.39,1569.34 L 1696.37,1576.34 L 1718.35,1580.54 L 1740.33,1586.15 L 1765.06,1588.95 L 1787.05,1595.95 L 1809.03,1600.16 L 1831.01,1605.76 L 1850.25,1609.96 L 1872.23,1615.56 L 1896.96,1618.37 L 1918.94,1619.77 L 1943.67,1619.77 M 2454.76,1488.09 L 2441.02,1476.89 L 2438.27,1457.28 L 2421.79,1446.07 L 2391.56,1434.86 M 2311.87,1269.57 L 2289.89,1290.58 L 2267.91,1308.79 L 2243.18,1311.60 L 2221.20,1315.80 L 2221.20,1314.40 L 2270.66,1303.19 L 2306.38,1273.77 L 2314.62,1262.57 L 2325.61,1252.76 L 2331.11,1241.56 L 2331.11,1228.95 L 2336.60,1217.74 L 2328.36,1206.54 L 2311.87,1195.33 L 2287.14,1182.72 L 2243.18,1171.52 M 2237.68,1170.12 L 2289.89,1181.32 L 2314.62,1192.53 L 2336.60,1213.54 L 2366.83,1210.74 L 2388.81,1216.34 L 2416.29,1226.15 L 2441.02,1228.95 L 2473.99,1223.35 L 2495.98,1212.14 L 2515.21,1206.54 L 2537.19,1202.33 L 2559.18,1203.74 L 2581.16,1203.74 L 2605.89,1205.14 L 2671.84,1217.74 L 2715.80,1237.35 L 2737.78,1261.17 M 1973.90,1119.69 L 1951.91,1133.70 L 1929.93,1140.70 L 1907.95,1156.11 L 1885.97,1178.52 L 1885.97,1182.72 L 1888.71,1171.52 L 1896.96,1161.71 L 1910.70,1150.51 L 1927.18,1137.90 L 1954.66,1126.69 L 1971.15,1115.49 L 1976.64,1104.28 M 1740.33,1046.85 L 1718.35,1059.46 L 1674.39,1079.07 L 1652.40,1079.07 L 1630.42,1080.47 L 1608.44,1080.47 L 1586.46,1079.07 L 1542.49,1079.07 L 1520.51,1077.67 L 1498.53,1079.07 L 1454.56,1079.07 L 1432.58,1080.47 L 1366.63,1080.47 L 1344.65,1081.87 L 1278.70,1081.87 L 1256.72,1083.27 L 1234.74,1081.87 L 1212.76,1083.27 L 1190.78,1081.87 L 1168.79,1081.87 L 1149.56,1083.27 L 1127.58,1084.67 L 1083.61,1084.67 L 1014.92,1088.87 L 987.44,1088.87 L 940.73,1091.67 L 896.76,1091.67 L 877.53,1093.07 L 852.80,1094.47 M 866.54,1090.27 L 866.54,1101.48 L 869.28,1112.68 L 869.28,1123.89 L 877.53,1157.51 L 877.53,1191.13 L 880.27,1202.33 L 880.27,1213.54 L 883.02,1223.35 L 883.02,1244.36 L 916.00,1255.56 M 888.52,1248.56 L 910.50,1254.16 L 932.48,1258.37 L 954.47,1261.17 L 979.20,1266.77 L 1001.18,1272.37 L 1023.16,1276.58 L 1042.39,1280.78 L 1064.38,1283.58 L 1108.34,1286.38 L 1130.32,1283.58 L 1152.31,1266.77 L 1177.04,1251.36 L 1201.77,1247.16 L 1226.50,1247.16 M 1199.02,1245.76 L 1174.29,1245.76 M 1188.03,1247.16 L 1166.05,1258.37 L 1152.31,1270.97 L 1141.32,1282.18 M 1237.49,1350.82 L 1234.74,1360.62 L 1226.50,1371.83 M 1229.24,1356.42 L 1253.97,1350.82 L 1255.20,1350.51 L 1256.42,1350.19 L 1257.64,1349.88 L 1258.86,1349.57 L 1275.96,1360.62 M 1171.54,1439.07 L 1160.55,1426.46 L 1174.29,1409.65 L 1152.31,1398.44 L 1168.79,1387.24 L 1141.32,1371.83 L 1116.58,1362.02 L 1094.60,1353.62 L 1075.37,1345.21 L 1056.13,1338.21 L 1034.15,1327.00 L 1012.17,1320.00 L 973.70,1303.19 L 951.72,1297.59 L 948.97,1308.79 L 965.46,1307.39 L 973.70,1318.60 L 981.94,1328.40 L 987.44,1338.21 L 995.68,1349.42 L 1001.18,1362.02 L 1009.42,1373.23 L 1020.41,1395.64 L 1028.66,1405.45 L 1039.65,1427.86 L 1036.90,1439.07 M 973.70,1315.80 L 935.23,1304.59 M 970.95,1307.39 L 995.68,1320.00 L 1025.91,1329.81 L 1053.39,1341.01 L 1083.61,1350.82 L 1111.09,1360.62 L 1135.82,1371.83 L 1155.05,1381.63 L 1124.83,1391.44 M 1102.85,1443.27 L 1091.85,1453.07 L 1069.87,1460.08 L 1047.89,1460.08 L 1034.15,1462.88 L 1028.66,1453.07 L 1020.41,1441.87 L 1012.17,1429.26 L 1009.42,1419.46 L 1003.93,1408.25 L 998.43,1395.64 L 992.93,1385.84 L 981.94,1374.63 L 973.70,1362.02 L 965.46,1350.82 L 957.21,1338.21 L 954.47,1325.60 L 943.47,1314.40 L 926.99,1303.19 L 924.24,1290.58 L 921.49,1279.38 M 935.23,1275.18 L 959.96,1284.98 L 979.20,1296.19 L 1009.42,1305.99 L 1039.65,1317.20 L 1067.12,1329.81 L 1094.60,1341.01 L 1122.08,1353.62 L 1160.55,1366.23 L 1179.78,1381.63 L 1204.51,1384.44 M 1045.14,1282.18 L 990.19,1270.97 L 948.97,1259.77 M 1116.58,1167.32 L 1094.60,1147.70 M 932.48,1072.06 L 910.50,1070.66 L 885.77,1073.46 L 863.79,1065.06 M 869.28,1065.06 L 885.77,1076.26 L 1001.18,1076.26 L 1023.16,1077.67 M 1067.12,993.62 L 1089.11,993.62 M 1080.86,982.41 L 1056.13,985.21 M 1036.90,967.00 L 1014.92,974.01 M 1036.90,947.39 L 1036.90,958.60 L 1020.41,969.81 L 1009.42,981.01 L 1020.41,1003.42 L 1023.16,1014.63 L 1023.16,1024.44 L 1034.15,1069.26 L 1045.14,1074.86 L 1102.85,1074.86 L 1185.28,1069.26 L 1229.24,1069.26 M 1339.16,1065.06 L 1341.90,1053.85 L 1336.41,1041.25 L 1333.66,1030.04 L 1328.16,1018.83 L 1325.42,1007.63 L 1303.43,997.82 L 1292.44,986.61 M 1270.46,988.02 L 1259.47,997.82 L 1275.96,986.61 L 1295.19,988.02 L 1317.17,1003.42 M 1416.09,878.75 L 1438.08,873.15 L 1462.81,875.95 L 1487.54,863.35 L 1476.55,870.35 L 1479.29,888.56 L 1504.02,887.16 L 1526.01,889.96 L 1572.72,887.16 L 1660.65,887.16 L 1682.63,882.96 L 1701.86,881.56 L 1745.83,881.56 L 1767.81,880.16 L 1855.74,880.16 L 1877.72,878.75 L 1899.71,880.16 L 1924.44,880.16 L 1946.42,878.75 L 1960.16,882.96 L 1962.90,894.16 L 1962.90,905.37 L 1965.65,917.98 M 1965.65,915.18 L 1984.89,903.97 L 2001.37,894.16 L 2017.86,882.96 M 2075.56,871.75 L 2094.80,882.96 M 1891.46,832.53 L 1869.48,822.72 L 1847.50,819.92 L 1825.52,832.53 M 1836.51,829.73 L 1842.00,842.33 L 1869.48,842.33 M 1855.74,826.93 L 1858.49,838.13 L 1833.76,850.74 L 1828.26,866.15 L 1852.99,857.74 L 1877.72,859.14 L 1899.71,866.15 L 1877.72,868.95 L 1814.52,868.95 L 1789.79,870.35 L 1767.81,870.35 L 1745.83,873.15 L 1723.85,874.55 L 1726.59,861.95 L 1729.34,850.74 L 1740.33,839.53 L 1773.31,839.53 L 1748.58,842.33 M 1732.09,849.34 L 1754.07,832.53 L 1776.05,828.33 L 1795.29,832.53 L 1784.30,843.74 L 1784.30,856.34 L 1740.33,867.55 L 1756.82,859.14 L 1778.80,849.34 L 1800.79,854.94 L 1825.52,857.74 L 1847.50,850.74 L 1872.23,849.34 L 1894.21,850.74 L 1924.44,857.74 M 1921.69,866.15 L 1913.44,856.34 L 1899.71,845.14 L 1888.71,833.93 L 1861.24,822.72 M 1847.50,819.92 L 1831.01,831.13 L 1828.26,842.33 M 1809.03,860.54 L 1776.05,849.34 L 1773.31,838.13 M 1787.05,829.73 L 1806.28,840.93 M 1800.79,867.55 L 1778.80,863.35 L 1759.57,867.55 M 1729.34,873.15 L 1707.36,874.55 L 1685.38,874.55 L 1663.40,875.95 L 1638.67,874.55 M 1597.45,874.55 L 1594.70,860.54 L 1627.67,849.34 L 1627.67,838.13 L 1630.42,825.53 L 1628.90,821.63 L 1627.67,818.52 L 1583.71,821.32 L 1561.73,829.73 M 1580.96,835.33 L 1586.46,824.12 M 1558.98,836.73 L 1547.99,825.53 L 1528.75,814.32 M 1498.53,819.92 L 1512.27,849.34 L 1534.25,842.33 L 1556.23,852.14 L 1578.21,866.15 L 1597.45,859.14 L 1619.43,853.54 M 1545.24,867.55 L 1526.01,866.15 L 1504.02,867.55 M 1479.29,875.95 L 1501.28,875.95 L 1542.49,873.15 L 1564.47,873.15 L 1586.46,870.35 M 1569.97,866.15 L 1556.23,854.94 L 1534.25,845.14 L 1520.51,842.33 L 1506.77,831.13 L 1495.78,818.52 M 1490.28,811.52 L 1465.55,822.72 L 1460.67,825.21 L 1482.04,818.52 L 1504.02,812.92 L 1528.75,812.92 L 1550.74,828.33 L 1580.96,831.13 M 1429.83,874.55 L 1418.84,885.76 L 1418.84,896.96 L 1421.59,908.17 L 1427.09,919.38 L 1429.83,930.58 L 1429.83,941.79 L 1435.33,953.00 L 1438.08,964.20 L 1438.08,974.01 L 1443.57,985.21 L 1446.32,996.42 L 1443.57,1009.03 L 1446.32,1020.23 L 1449.07,1032.84 L 1454.56,1044.05 L 1454.56,1067.86 M 1704.61,1066.46 L 1693.62,1077.67 L 1690.87,1090.27 L 1690.87,1101.48 L 1693.62,1112.68 L 1699.12,1123.89 L 1696.37,1136.50 L 1688.13,1147.70 L 1685.38,1158.91 L 1688.13,1171.52 L 1690.87,1182.72 L 1693.62,1192.53 L 1696.37,1205.14 L 1701.86,1216.34 L 1701.86,1227.55 L 1671.64,1244.36 L 1660.65,1254.16 L 1657.90,1263.97 L 1666.14,1275.18 L 1666.14,1297.59 L 1679.88,1308.79 L 1690.87,1321.40 L 1712.86,1334.01 L 1734.84,1352.22 M 1762.32,986.61 L 1767.81,975.41 L 1759.57,981.01 M 1877.72,930.58 L 1858.49,943.19 L 1855.74,954.40 L 1825.52,967.00 L 1806.28,978.21 L 1792.54,990.82 L 1754.07,1000.62 L 1745.83,1011.83 L 1740.33,1023.04 L 1737.59,1034.24 L 1729.34,1045.45 L 1712.86,1056.65 L 1688.13,1067.86 L 1699.12,1069.26 M 1100.10,944.59 L 1075.37,941.79 L 1028.66,944.59 M 874.78,1079.07 L 852.80,1080.47 L 830.81,1086.07 M 819.82,1088.87 L 822.57,1100.08 L 828.07,1111.28 L 828.07,1122.49 L 830.81,1133.70 L 830.81,1144.90 L 839.06,1178.52 L 839.06,1189.73 L 841.81,1200.93 L 844.55,1210.74 L 850.05,1233.15 L 855.54,1244.36 L 861.04,1256.96 L 872.03,1265.37 L 891.27,1275.18 L 913.25,1275.18 L 937.98,1276.58 L 959.96,1286.38 L 981.94,1298.99 L 1006.67,1305.99 L 1028.66,1314.40 L 1050.64,1321.40 L 1069.87,1331.21 L 1094.60,1338.21 L 1113.84,1346.61 L 1135.82,1353.62 L 1160.55,1343.81 L 1182.53,1342.41 M 817.08,1541.32 L 797.84,1544.12 L 775.86,1545.53 L 753.88,1548.33 L 731.89,1552.53 L 709.91,1560.93 L 685.18,1570.74 L 663.20,1580.54 L 643.96,1590.35 L 621.98,1605.76 L 600.00,1619.77 L 610.99,1615.56 L 624.73,1605.76 L 643.96,1594.55 L 696.17,1573.54 L 720.90,1562.33 L 762.12,1552.53 M 872.03,1266.77 L 869.59,1265.53 L 866.54,1263.97 L 869.28,1248.56 L 863.79,1237.35 L 861.04,1227.55 L 855.54,1216.34 L 855.54,1206.54 L 852.80,1195.33 L 847.30,1182.72 L 844.55,1171.52 L 844.55,1160.31 L 841.81,1147.70 L 839.06,1136.50 L 839.06,1114.09 L 836.31,1102.88 L 830.81,1091.67 L 839.06,1080.47 M 2185.48,870.35 L 2182.73,859.14 L 2182.73,847.94 L 2177.23,835.33 L 2171.74,824.12 L 2168.99,812.92 L 2163.49,801.71 L 2160.75,790.51 L 2160.75,779.30 L 2152.50,745.68 M 2138.76,717.67 L 2144.26,728.87 L 2147.01,738.68 L 2147.01,749.88 L 2149.75,761.09 L 2149.75,772.30 L 2152.50,783.50 L 2152.50,804.51 L 2155.25,815.72 L 2155.25,826.93 L 2158.00,838.13 L 2158.00,849.34 L 2160.75,860.54 L 2163.49,873.15 M 2311.87,868.95 L 2311.87,846.54 L 2309.13,835.33 L 2309.13,824.12 L 2311.87,812.92 L 2309.13,801.71 L 2309.13,790.51 L 2306.38,779.30 L 2306.38,768.09 L 2300.88,756.89 L 2300.88,745.68 M 2322.87,709.26 L 2325.61,720.47 L 2322.87,730.27 L 2328.36,749.88 L 2328.36,772.30 L 2333.86,783.50 L 2336.60,794.71 L 2336.60,805.91 L 2339.35,815.72 L 2342.10,828.33 L 2342.10,849.34 L 2344.85,860.54 L 2350.34,871.75 L 2386.06,882.96 L 2410.79,894.16 L 2446.52,889.96 L 2465.75,896.96 L 2487.73,905.37 L 2509.72,920.78 M 2680.08,801.71 L 2677.33,811.52 L 2680.08,822.72 L 2680.08,833.93 L 2682.83,843.74 L 2682.83,854.94 L 2688.32,866.15 L 2688.32,878.75 L 2691.07,891.36 L 2691.07,913.77 L 2693.82,924.98 L 2693.82,947.39 L 2696.57,958.60 L 2693.82,969.81 L 2696.57,981.01 L 2696.57,992.22 L 2699.31,1003.42 L 2696.57,1014.63 L 2699.31,1025.84 L 2699.31,1035.64 L 2702.06,1046.85 L 2707.56,1058.05 L 2707.56,1069.26 L 2710.30,1081.87 L 2710.30,1093.07 L 2707.56,1104.28 L 2710.30,1115.49 L 2710.30,1126.69 L 2713.05,1137.90 L 2713.05,1149.11 L 2715.80,1158.91 L 2718.55,1170.12 L 2718.55,1179.92 L 2715.80,1191.13 L 2721.30,1200.93 L 2718.55,1212.14 L 2718.55,1221.95 M 2682.83,1020.23 L 2674.58,1010.43 L 2674.58,999.22 L 2669.09,986.61 L 2669.09,975.41 L 2671.84,964.20 L 2671.84,951.60 L 2669.09,940.39 L 2671.84,929.18 L 2671.84,906.77 L 2666.34,895.56 L 2669.09,884.36 L 2669.09,873.15 L 2671.84,863.35 L 2669.09,852.14 L 2669.09,815.72 L 2663.59,805.91 L 2663.59,794.71 L 2666.34,783.50 L 2666.34,772.30 M 2864.18,726.07 L 2861.43,737.28 L 2855.94,747.08 L 2853.19,758.29 L 2853.19,769.49 L 2855.94,780.70 L 2855.94,791.91 L 2858.68,803.11 L 2858.68,814.32 L 2866.93,847.94 L 2866.93,871.75 L 2872.42,881.56 L 2872.42,905.37 L 2869.68,917.98 L 2875.17,940.39 L 2875.17,974.01 L 2872.42,985.21 L 2869.68,995.02 L 2869.68,1041.25 L 2866.93,1052.45 L 2872.42,1074.86 M 2256.92,878.75 L 2259.67,866.15 L 2262.41,854.94 L 2262.41,845.14 L 2265.16,832.53 L 2265.16,798.91 L 2267.91,787.70 L 2262.41,768.09 L 2262.41,747.08 L 2259.67,737.28 L 2259.67,713.46 L 2256.92,703.66 L 2256.92,692.45 M 2905.40,611.21 L 2908.15,622.41 L 2905.40,632.22 L 2905.40,642.02 L 2897.15,651.83 L 2891.66,663.04 L 2891.66,706.46 L 2897.15,728.87 L 2897.15,740.08 L 2899.90,751.28 L 2905.40,763.89 L 2908.15,776.50 L 2919.14,821.32 L 2921.88,833.93 L 2921.88,843.74 L 2927.38,866.15 L 2924.63,878.75 L 2924.63,924.98 L 2927.38,936.19 L 2924.63,947.39 L 2930.13,958.60 L 2930.13,969.81 L 2932.88,981.01 L 2932.88,992.22 L 2938.37,1002.02 L 2938.37,1013.23 L 2943.87,1023.04 L 2941.12,1032.84 L 2941.12,1053.85 L 2943.87,1063.66 L 2943.87,1074.86 L 2949.36,1100.08 L 2949.36,1112.68 L 2952.11,1123.89 L 2957.61,1136.50 L 2957.61,1147.70 L 2963.10,1170.12 L 2960.35,1181.32 L 2963.10,1192.53 L 2963.10,1247.16 L 2965.85,1258.37 L 2971.34,1269.57 L 2971.34,1279.38 L 2976.84,1301.79 L 2979.59,1314.40 L 2976.84,1327.00 L 2979.59,1338.21 L 2982.34,1350.82 L 2985.08,1360.62 L 2987.83,1371.83 L 2990.58,1381.63 L 2993.33,1394.24 L 2998.82,1416.65 L 2996.07,1427.86 L 2998.82,1440.47 L 3004.32,1453.07 L 3004.32,1462.88 L 3009.81,1472.68 L 3012.56,1482.49 L 3015.31,1493.70 L 3018.06,1506.30 L 3026.30,1539.92 L 3029.05,1549.73 L 3029.05,1572.14 L 3031.80,1583.35 L 3031.80,1594.55 L 3034.54,1604.36 L 3037.29,1615.56 L 3037.29,1639.38 L 3040.04,1651.98 L 3040.04,1663.19 L 3034.54,1674.40" fill="none" stroke="black" stroke-width="2" stroke-linecap="round" stroke-linejoin="round"/>
    </svg>