<svg width="4000" height="3000" xmlns="http://www.w3.org/2000/svg" viewBox="0 0 4000 3000">
      <path d="M 3400.00,1850.18 L 3381.82,1845.17 L 3363.83,1839.94 L 3346.02,1834.50 L 3328.41,1828.83 L 3311.00,1822.96 L 3293.79,1816.87 L 3276.78,1810.58 L 3259.98,1804.09 L 3243.40,1797.39 L 3227.03,1790.49 L 3210.89,1783.39 L 3194.98,1776.11 L 3179.29,1768.63 L 3163.84,1760.96 L 3148.62,1753.10 L 3133.65,1745.06 L 3118.93,1736.85 L 3104.46,1728.45 L 3090.24,1719.88 L 3076.28,1711.13 L 3062.59,1702.22 L 3049.16,1693.13 L 3036.01,1683.88 L 3023.12,1674.47 L 3010.52,1664.90 L 2998.21,1655.18 L 2986.18,1645.30 L 2974.44,1635.26 L 2963.00,1625.08 L 2951.86,1614.75 L 2941.03,1604.28 L 2930.50,1593.67 L 2920.29,1582.92 L 2910.39,1572.03 L 2900.82,1561.01 L 2891.56,1549.86 L 2882.64,1538.58 L 2874.05,1527.18 L 2865.80,1515.65 L 2857.89,1504.01 L 2850.33,1492.25 L 2843.12,1480.37 L 2836.26,1468.38 L 2829.76,1456.28 L 2823.62,1444.07 L 2817.84,1431.77 L 2812.44,1419.35 L 2807.41,1406.85 L 2802.76,1394.24 L 2798.49,1381.54 L 2794.61,1368.75 L 2791.12,1355.87 L 2788.03,1342.91 L 2785.33,1329.87 L 2783.04,1316.74 L 2781.16,1303.54 L 2779.69,1290.26 L 2778.63,1276.91 L 2777.99,1263.49 L 2777.78,1250.00 L 2777.99,1236.52 L 2778.63,1223.11 L 2779.69,1209.77 L 2781.16,1196.50 L 2783.05,1183.30 L 2785.34,1170.18 L 2788.04,1157.14 L 2791.14,1144.19 L 2794.63,1131.32 L 2798.52,1118.54 L 2802.79,1105.85 L 2807.45,1093.25 L 2812.48,1080.74 L 2817.89,1068.34 L 2823.67,1056.04 L 2829.81,1043.84 L 2836.32,1031.75 L 2843.19,1019.76 L 2850.41,1007.89 L 2857.98,996.14 L 2865.89,984.50 L 2874.15,972.98 L 2882.74,961.58 L 2891.67,950.30 L 2900.93,939.16 L 2910.51,928.14 L 2920.41,917.26 L 2930.63,906.51 L 2941.16,895.91 L 2952.00,885.44 L 2963.15,875.11 L 2974.59,864.94 L 2986.33,854.91 L 2998.36,845.03 L 3010.68,835.30 L 3023.29,825.74 L 3036.17,816.33 L 3049.33,807.08 L 3062.75,798.00 L 3076.45,789.09 L 3090.41,780.34 L 3104.62,771.77 L 3119.09,763.38 L 3133.82,755.16 L 3148.78,747.12 L 3163.99,739.26 L 3179.44,731.60 L 3195.12,724.11 L 3211.03,716.82 L 3227.16,709.73 L 3243.52,702.83 L 3260.09,696.13 L 3276.88,689.63 L 3293.88,683.33 L 3311.08,677.24 L 3328.48,671.37 L 3346.07,665.70 L 3363.86,660.25 L 3381.84,655.01 L 3400.00,650.00 L 3392.66,648.05 L 3385.28,646.14 L 3377.88,644.27 L 3370.45,642.43 L 3362.99,640.62 L 3355.51,638.86 L 3348.00,637.12 L 3340.45,635.43 L 3332.89,633.77 L 3325.29,632.15 L 3317.67,630.57 L 3310.03,629.03 L 3302.35,627.52 L 3294.65,626.05 L 3286.93,624.62 L 3279.18,623.23 L 3271.41,621.87 L 3263.61,620.56 L 3255.79,619.28 L 3247.94,618.05 L 3240.07,616.85 L 3232.18,615.69 L 3224.26,614.57 L 3216.32,613.49 L 3208.36,612.45 L 3200.37,611.45 L 3192.36,610.49 L 3184.33,609.57 L 3176.28,608.70 L 3168.21,607.86 L 3160.11,607.06 L 3152.00,606.31 L 3143.86,605.60 L 3135.71,604.93 L 3127.53,604.30 L 3119.34,603.71 L 3111.12,603.17 L 3102.89,602.67 L 3094.63,602.21 L 3086.36,601.79 L 3078.07,601.42 L 3069.76,601.09 L 3061.43,600.80 L 3053.09,600.56 L 3044.73,600.36 L 3036.35,600.20 L 3027.95,600.09 L 3019.54,600.02 L 3011.11,600.00 L 2990.14,600.14 L 2969.28,600.55 L 2948.53,601.22 L 2927.88,602.17 L 2907.36,603.38 L 2886.95,604.85 L 2866.67,606.58 L 2846.51,608.57 L 2826.49,610.81 L 2806.61,613.30 L 2786.87,616.04 L 2767.27,619.03 L 2747.82,622.26 L 2728.53,625.72 L 2709.39,629.43 L 2690.41,633.37 L 2671.60,637.55 L 2652.96,641.95 L 2634.50,646.59 L 2616.21,651.44 L 2598.10,656.52 L 2580.18,661.82 L 2562.45,667.33 L 2544.91,673.06 L 2527.58,679.00 L 2510.44,685.15 L 2493.51,691.51 L 2476.80,698.07 L 2460.29,704.82 L 2444.01,711.78 L 2427.95,718.94 L 2412.12,726.28 L 2396.52,733.82 L 2381.15,741.54 L 2366.03,749.45 L 2351.14,757.54 L 2336.51,765.81 L 2322.13,774.26 L 2308.00,782.88 L 2294.13,791.68 L 2280.53,800.64 L 2267.20,809.77 L 2254.14,819.06 L 2241.35,828.52 L 2228.85,838.13 L 2216.63,847.90 L 2204.70,857.82 L 2193.06,867.90 L 2181.72,878.12 L 2170.69,888.48 L 2159.95,898.99 L 2149.53,909.64 L 2139.42,920.43 L 2129.63,931.35 L 2120.16,942.40 L 2111.01,953.59 L 2102.20,964.90 L 2093.72,976.33 L 2085.58,987.89 L 2077.78,999.56 M 1206.67,2400.00 L 1190.76,2399.87 L 1174.96,2399.49 L 1159.26,2398.85 L 1143.67,2397.96 L 1128.20,2396.83 L 1112.84,2395.46 L 1097.62,2393.84 L 1082.52,2391.99 L 1067.56,2389.91 L 1052.75,2387.59 L 1038.07,2385.05 L 1023.55,2382.28 L 1009.19,2379.29 L 994.98,2376.09 L 980.94,2372.67 L 967.07,2369.04 L 953.38,2365.20 L 939.87,2361.15 L 926.54,2356.91 L 913.41,2352.46 L 900.47,2347.82 L 887.73,2342.99 L 875.20,2337.96 L 862.88,2332.75 L 850.77,2327.36 L 838.89,2321.79 L 827.23,2316.04 L 815.80,2310.11 L 804.61,2304.02 L 793.65,2297.76 L 782.95,2291.33 L 772.49,2284.75 L 762.29,2278.00 L 752.35,2271.10 L 742.68,2264.05 L 733.28,2256.85 L 724.15,2249.51 L 715.30,2242.02 L 706.74,2234.39 L 698.47,2226.63 L 690.50,2218.73 L 682.83,2210.71 L 675.46,2202.56 L 668.40,2194.28 L 661.66,2185.89 L 655.24,2177.38 L 649.15,2168.75 L 643.38,2160.01 L 637.95,2151.17 L 632.87,2142.22 L 628.12,2133.17 L 623.73,2124.02 L 619.70,2114.78 L 616.02,2105.44 L 612.71,2096.02 L 609.77,2086.51 L 607.21,2076.92 L 605.03,2067.25 L 603.23,2057.50 L 601.83,2047.68 L 600.81,2037.79 L 600.20,2027.83 L 600.00,2017.81 L 600.16,2009.36 L 600.63,2000.92 L 601.41,1992.52 L 602.50,1984.15 L 603.89,1975.81 L 605.59,1967.50 L 607.59,1959.23 L 609.88,1951.01 L 612.47,1942.82 L 615.36,1934.69 L 618.53,1926.60 L 621.99,1918.57 L 625.74,1910.60 L 629.77,1902.68 L 634.08,1894.83 L 638.66,1887.04 L 643.53,1879.32 L 648.66,1871.67 L 654.06,1864.10 L 659.73,1856.60 L 665.67,1849.18 L 671.87,1841.84 L 678.33,1834.59 L 685.04,1827.43 L 692.01,1820.36 L 699.23,1813.38 L 706.70,1806.50 L 714.42,1799.72 L 722.38,1793.05 L 730.58,1786.48 L 739.03,1780.02 L 747.71,1773.67 L 756.62,1767.44 L 765.77,1761.32 L 775.14,1755.33 L 784.74,1749.46 L 794.57,1743.72 L 804.62,1738.10 L 814.88,1732.62 L 825.36,1727.28 L 836.06,1722.07 L 846.97,1717.01 L 858.08,1712.09 L 869.40,1707.32 L 880.93,1702.70 L 892.66,1698.23 L 904.58,1693.92 L 916.70,1689.76 L 929.02,1685.77 L 941.52,1681.95 L 954.22,1678.29 L 967.10,1674.80 L 980.16,1671.49 L 993.40,1668.36 L 1006.83,1665.40 L 1020.42,1662.63 L 1034.19,1660.04 L 1048.14,1657.64 L 1062.24,1655.44 L 1076.52,1653.43 L 1090.96,1651.61 L 1105.56,1650.00 L 1110.51,1642.72 L 1115.68,1635.51 L 1121.07,1628.36 L 1126.67,1621.29 L 1132.49,1614.29 L 1138.52,1607.36 L 1144.76,1600.51 L 1151.20,1593.74 L 1157.85,1587.05 L 1164.69,1580.45 L 1171.74,1573.92 L 1178.97,1567.49 L 1186.40,1561.14 L 1194.02,1554.89 L 1201.82,1548.73 L 1209.81,1542.66 L 1217.98,1536.69 L 1226.32,1530.82 L 1234.85,1525.05 L 1243.54,1519.38 L 1252.41,1513.82 L 1261.44,1508.37 L 1270.63,1503.02 L 1279.99,1497.78 L 1289.51,1492.66 L 1299.19,1487.66 L 1309.01,1482.76 L 1318.99,1477.99 L 1329.12,1473.34 L 1339.39,1468.82 L 1349.81,1464.41 L 1360.37,1460.14 L 1371.06,1455.99 L 1381.89,1451.98 L 1392.85,1448.09 L 1403.94,1444.34 L 1415.16,1440.73 L 1426.50,1437.26 L 1437.96,1433.93 L 1449.55,1430.74 L 1461.24,1427.70 L 1473.06,1424.80 L 1484.98,1422.06 L 1497.01,1419.46 L 1509.14,1417.02 L 1521.38,1414.73 L 1533.71,1412.60 L 1546.15,1410.63 L 1558.68,1408.82 L 1571.29,1407.17 L 1584.00,1405.69 L 1596.80,1404.37 L 1609.68,1403.22 L 1622.63,1402.25 L 1635.67,1401.44 L 1648.78,1400.81 L 1661.97,1400.36 L 1675.22,1400.09 L 1688.55,1400.00 L 1704.52,1400.12 L 1720.40,1400.50 L 1736.17,1401.12 L 1751.84,1401.97 L 1767.40,1403.07 L 1782.84,1404.41 L 1798.15,1405.98 L 1813.35,1407.77 L 1828.41,1409.80 L 1843.34,1412.05 L 1858.13,1414.52 L 1872.77,1417.21 L 1887.26,1420.11 L 1901.61,1423.23 L 1915.79,1426.56 L 1929.81,1430.09 L 1943.66,1433.83 L 1957.34,1437.77 L 1970.85,1441.90 L 1984.17,1446.23 L 1997.30,1450.75 L 2010.25,1455.46 L 2023.00,1460.36 L 2035.54,1465.44 L 2047.89,1470.70 L 2060.02,1476.14 L 2071.94,1481.75 L 2083.64,1487.54 L 2095.12,1493.49 L 2106.37,1499.60 L 2117.38,1505.88 L 2128.16,1512.32 L 2138.69,1518.92 L 2148.98,1525.67 L 2159.02,1532.57 L 2168.80,1539.62 L 2178.32,1546.81 L 2187.57,1554.14 L 2196.55,1561.62 L 2205.26,1569.23 L 2213.69,1576.97 L 2221.83,1584.84 L 2229.69,1592.84 L 2237.25,1600.96 L 2244.51,1609.21 L 2251.47,1617.57 L 2258.12,1626.05 L 2264.46,1634.64 L 2270.49,1643.34 L 2276.19,1652.15 L 2281.56,1661.06 L 2286.60,1670.07 L 2291.31,1679.18 L 2295.68,1688.39 L 2299.70,1697.68 L 2303.37,1707.07 L 2306.69,1716.54 L 2309.65,1726.09 L 2312.24,1735.72 L 2314.47,1745.43 L 2316.32,1755.22 L 2317.80,1765.08 L 2318.89,1775.00 L 2327.92,1777.59 L 2336.86,1780.29 L 2345.70,1783.12 L 2354.44,1786.07 L 2363.08,1789.14 L 2371.62,1792.32 L 2380.05,1795.61 L 2388.38,1799.02 L 2396.59,1802.53 L 2404.70,1806.15 L 2412.69,1809.88 L 2420.56,1813.72 L 2428.32,1817.66 L 2435.96,1821.69 L 2443.48,1825.83 L 2450.87,1830.07 L 2458.14,1834.39 L 2465.28,1838.82 L 2472.29,1843.33 L 2479.16,1847.94 L 2485.91,1852.63 L 2492.51,1857.41 L 2498.98,1862.27 L 2505.31,1867.22 L 2511.49,1872.25 L 2517.54,1877.35 L 2523.43,1882.54 L 2529.18,1887.80 L 2534.77,1893.13 L 2540.21,1898.53 L 2545.50,1904.01 L 2550.63,1909.55 L 2555.60,1915.16 L 2560.41,1920.84 L 2565.06,1926.57 L 2569.54,1932.37 L 2573.85,1938.23 L 2578.00,1944.14 L 2581.97,1950.11 L 2585.77,1956.13 L 2589.39,1962.21 L 2592.84,1968.33 L 2596.11,1974.50 L 2599.19,1980.72 L 2602.09,1986.99 L 2604.81,1993.29 L 2607.33,1999.64 L 2609.67,2006.03 L 2611.81,2012.45 L 2613.76,2018.91 L 2615.52,2025.41 L 2617.07,2031.93 L 2618.43,2038.49 L 2619.58,2045.07 L 2620.52,2051.68 L 2621.26,2058.32 L 2621.79,2064.97 L 2622.12,2071.65 L 2622.22,2078.35 L 2622.05,2086.78 L 2621.54,2095.16 L 2620.70,2103.49 L 2619.53,2111.75 L 2618.03,2119.95 L 2616.21,2128.09 L 2614.08,2136.17 L 2611.63,2144.17 L 2608.87,2152.10 L 2605.81,2159.96 L 2602.44,2167.74 L 2598.78,2175.44 L 2594.83,2183.05 L 2590.59,2190.58 L 2586.07,2198.03 L 2581.27,2205.38 L 2576.19,2212.64 L 2570.84,2219.80 L 2565.22,2226.87 L 2559.34,2233.83 L 2553.20,2240.69 L 2546.80,2247.45 L 2540.16,2254.09 L 2533.27,2260.62 L 2526.13,2267.04 L 2518.76,2273.34 L 2511.16,2279.52 L 2503.32,2285.58 L 2495.26,2291.52 L 2486.98,2297.33 L 2478.48,2303.00 L 2469.76,2308.54 L 2460.84,2313.95 L 2451.72,2319.22 L 2442.39,2324.35 L 2432.86,2329.34 L 2423.15,2334.18 L 2413.24,2338.87 L 2403.16,2343.40 L 2392.89,2347.79 L 2382.44,2352.02 L 2371.83,2356.08 L 2361.05,2359.99 L 2350.10,2363.73 L 2339.00,2367.31 L 2327.74,2370.71 L 2316.33,2373.94 L 2304.77,2377.00 L 2293.07,2379.88 L 2281.23,2382.57 L 2269.26,2385.09 L 2257.16,2387.42 L 2244.93,2389.56 L 2232.58,2391.50 L 2220.12,2393.26 L 2207.54,2394.82 L 2194.85,2396.18 L 2182.06,2397.33 L 2169.17,2398.29 L 2156.18,2399.03 L 2143.09,2399.57 L 2129.92,2399.89 L 2116.67,2400.00 L 1206.67,2400.00" fill="none" stroke="black" stroke-width="2" stroke-linecap="round" stroke-linejoin="round"/>
    </svg>