<svg width="4000" height="3000" xmlns="http://www.w3.org/2000/svg" viewBox="0 0 4000 3000">
  <!-- LA LIGNE SUIVANTE A ÉTÉ SUPPRIMÉE POUR RENDRE LE FOND TRANSPARENT -->
  <!-- <rect width="100%" height="100%" fill="white"/> -->
  <path d="M 1114.06,605.50 L 1116.80,609.63 L 1138.67,612.38 L 1160.55,608.25 L 1152.34,611.00 L 1141.41,626.13 L 1119.53,637.13 L 1111.33,648.13 L 1092.19,660.50 L 1086.72,671.50 L 1089.45,682.51 L 1097.66,693.51 M 1103.12,682.51 L 1125.00,697.63 L 1146.88,696.26 M 1152.34,688.01 L 1163.28,677.01 L 1163.28,667.38 L 1152.34,655.00 L 1127.73,660.50 M 1138.67,656.38 L 1133.20,667.38 M 1157.81,655.00 L 1135.94,652.25 L 1111.33,655.00 L 1089.45,668.75 M 1105.86,682.51 L 1114.06,692.13 M 1160.55,682.51 L 1166.02,670.13 L 1163.28,659.13 L 1141.41,648.13 M 1116.80,641.25 L 1138.67,627.50 M 1324.61,604.13 L 1324.61,616.50 L 1321.88,626.13 L 1319.14,638.50 L 1316.41,648.13 L 1316.41,659.13 L 1313.67,670.13 L 1313.67,693.51 L 1310.94,704.51 L 1310.94,715.51 L 1305.47,737.51 L 1300.00,747.14 L 1302.73,758.14 L 1294.53,791.14 L 1294.53,800.76 L 1291.80,813.14 L 1291.80,833.77 L 1286.33,844.77 L 1283.59,855.77 L 1283.59,866.77 L 1278.12,888.77 L 1280.86,898.40 L 1278.12,909.40 L 1278.12,920.40 L 1272.66,942.40 L 1272.66,953.40 L 1269.92,964.40 L 1269.92,987.78 L 1267.19,1000.15 L 1264.45,1011.15 L 1264.45,1023.53 L 1261.72,1034.53 L 1264.45,1044.16 L 1261.72,1056.53 L 1258.98,1067.53 L 1258.98,1088.16 L 1228.91,1099.16 L 1209.77,1100.53 L 1231.64,1096.41 L 1253.52,1088.16 L 1220.70,1085.41 M 1234.38,1084.03 L 1212.50,1093.66 L 1190.62,1095.03 L 1168.75,1103.28 L 1146.88,1106.04 M 1174.22,1110.16 L 1182.42,1114.29 M 1182.42,1106.04 L 1187.89,1106.04 L 1193.36,1107.41 L 1196.09,1107.41 L 1198.83,1110.16 L 1201.56,1110.16 M 1179.69,1106.04 L 1185.16,1092.28 M 1166.02,1092.28 L 1141.41,1103.28 L 1122.27,1114.29 L 1111.33,1125.29 L 1092.19,1125.29 L 1051.17,1136.29 L 1059.38,1141.79 L 1081.25,1141.79 M 1108.59,1122.54 L 1122.27,1112.91 L 1138.67,1101.91 L 1163.28,1090.91 L 1152.34,1093.66 L 1130.47,1104.66 L 1105.86,1123.91 L 1086.72,1134.91 L 1067.58,1134.91 L 1048.44,1147.29 L 1026.56,1145.91 L 1007.42,1150.04 M 1015.62,1136.29 L 993.75,1147.29 L 941.80,1163.79 L 933.59,1158.29 L 955.47,1152.79 L 974.61,1148.66 L 999.22,1141.79 L 1021.09,1136.29 L 1045.70,1132.16 L 1067.58,1125.29 L 1089.45,1121.16 M 1037.50,1154.16 L 1026.56,1155.54 L 1004.69,1156.91 L 982.81,1156.91 L 963.67,1159.66 L 941.80,1167.91 M 950.00,1170.66 L 969.14,1167.91 L 971.88,1166.54 L 999.22,1163.79 L 1021.09,1166.54 M 1007.42,1172.04 L 993.75,1174.79 L 969.14,1176.17 L 947.27,1180.29 L 908.98,1194.04 L 887.11,1210.54 L 865.23,1228.42 M 848.83,1257.30 M 824.22,1321.93 L 826.95,1320.55 L 832.42,1320.55 L 835.16,1321.93 L 835.16,1323.30 L 837.89,1324.68 L 837.89,1326.05 M 821.48,1324.68 L 837.89,1335.68 L 835.16,1346.68 L 835.16,1364.55 L 829.69,1374.18 L 821.48,1385.18 L 826.95,1396.18 L 826.95,1407.18 L 835.16,1418.18 L 843.36,1430.56 M 807.81,1426.43 L 783.20,1438.81 L 775.00,1448.43 L 764.06,1458.06 L 755.86,1469.06 L 750.39,1478.69 L 744.92,1489.69 L 703.91,1500.69 L 635.55,1513.06 L 608.20,1518.56 L 630.08,1514.44 L 651.95,1511.69 L 695.70,1503.44 L 717.58,1500.69 L 742.19,1495.19 L 690.23,1511.69 M 651.95,1517.19 L 613.67,1525.44 L 635.55,1521.31 L 657.42,1518.56 L 679.30,1513.06 L 701.17,1510.31 L 723.05,1506.19 L 742.19,1500.69 L 764.06,1508.94 L 764.06,1510.31 L 766.80,1521.31 L 766.80,1532.31 L 772.27,1543.32 L 783.20,1568.07 L 791.41,1580.44 L 818.75,1592.82 L 846.09,1603.82 L 840.62,1616.20 L 843.36,1627.20 L 835.16,1638.20 L 835.16,1649.20 L 821.48,1660.20 L 799.61,1671.20 L 775.00,1680.83 L 755.86,1693.20 L 731.25,1702.83 L 706.64,1713.83 L 673.83,1723.45 M 600.00,1723.45 L 643.75,1726.20 L 665.62,1722.08 L 684.77,1715.20 L 709.38,1705.58 L 731.25,1695.95 L 777.73,1678.07 L 799.61,1667.07 L 821.48,1654.70 L 829.69,1661.57 L 835.16,1672.57 L 840.62,1682.20 L 846.09,1693.20 L 848.83,1702.83 L 854.30,1713.83 L 857.03,1726.20 L 862.50,1737.20 L 870.70,1748.20 L 881.64,1759.21 L 887.11,1771.58 L 903.52,1793.58 L 917.19,1805.96 L 939.06,1827.96 L 947.27,1837.59 L 955.47,1848.59 L 966.41,1859.59 L 971.88,1871.96 L 988.28,1881.59 L 993.75,1892.59 L 1026.56,1925.59 L 1034.77,1936.59 L 1045.70,1947.59 L 1059.38,1958.59 L 1070.31,1969.60 L 1078.52,1981.97 L 1089.45,1992.97 L 1103.12,2002.60 L 1111.33,2014.97 L 1125.00,2027.35 L 1146.88,2049.35 L 1157.81,2058.98 L 1166.02,2069.98 L 1176.95,2079.60 L 1185.16,2090.60 L 1196.09,2101.60 L 1207.03,2111.23 L 1217.97,2122.23 L 1228.91,2134.61 L 1239.84,2145.61 L 1250.78,2155.23 L 1267.19,2177.23 L 1275.39,2186.86 L 1291.80,2208.86 L 1297.27,2221.24 L 1305.47,2232.24 L 1316.41,2243.24 L 1324.61,2252.86 L 1332.81,2265.24 L 1338.28,2277.62 L 1354.69,2288.62 L 1368.36,2299.62 L 1379.30,2310.62 L 1395.70,2332.62 L 1401.17,2345.00 L 1403.91,2354.62 L 1409.38,2365.62 L 1417.58,2375.25 L 1425.78,2386.25 L 1439.45,2397.25 M 1425.78,2391.75 L 1403.91,2365.62 M 1723.83,2394.50 L 1729.30,2383.50 L 1737.50,2371.12 L 1748.44,2360.12 L 1753.91,2356.00 L 1732.03,2379.37 M 1775.78,2368.37 L 1797.66,2353.25 M 1751.17,2350.50 L 1742.97,2361.50 L 1734.77,2373.87 L 1729.30,2395.87 M 1841.41,2380.75 L 1825.00,2391.75 L 1816.80,2395.87 L 1838.67,2382.12 L 1866.02,2371.12 M 1863.28,2382.12 L 1885.16,2400.00 M 1879.69,2350.50 L 1855.08,2331.25 L 1833.20,2335.37 L 1808.59,2346.37 L 1786.72,2335.37 L 1764.84,2325.74 M 1838.67,2338.12 L 1849.61,2327.12 M 1866.02,2329.87 L 1874.22,2340.87 L 1885.16,2351.87 L 1893.36,2362.87 L 1874.22,2375.25 L 1855.08,2384.87 L 1868.75,2395.87 M 1997.27,2364.25 L 1994.53,2368.37 L 2008.20,2357.37 L 2005.47,2351.87 L 1983.59,2371.12 L 1991.80,2360.12 L 2013.67,2349.12 M 1816.80,2236.36 L 1819.53,2232.24 L 1822.27,2229.49 L 1827.73,2226.74 L 1830.47,2222.61 M 1833.20,2189.61 L 1814.06,2170.36 L 1792.19,2151.11 L 1770.31,2134.61 L 1745.70,2119.48 L 1701.95,2089.23 L 1680.08,2076.85 L 1655.47,2064.48 M 1652.73,2061.73 L 1669.14,2072.73 L 1688.28,2083.73 L 1721.09,2105.73 L 1740.23,2116.73 L 1753.91,2127.73 L 1770.31,2140.11 L 1781.25,2151.11 L 1794.92,2162.11 L 1805.86,2174.48 L 1819.53,2184.11 L 1830.47,2195.11 L 1833.20,2206.11 L 1827.73,2217.11 L 1822.27,2226.74 L 1814.06,2239.11 L 1808.59,2248.74 L 1803.12,2259.74 L 1794.92,2270.74 L 1792.19,2283.12 L 1775.78,2305.12 L 1770.31,2316.12 L 1770.31,2325.74 L 1797.66,2335.37 L 1811.33,2346.37 L 1786.72,2357.37 L 1773.05,2368.37 L 1775.78,2379.37 L 1753.91,2390.37 L 1732.03,2400.00 L 1756.64,2390.37 M 1300.00,2207.49 L 1300.00,2196.49 L 1302.73,2184.11 L 1319.14,2164.86 L 1297.27,2189.61 M 1286.33,2157.98 L 1283.59,2155.23 L 1278.12,2151.11 L 1272.66,2148.36 L 1269.92,2144.23 M 1258.98,2141.48 L 1283.59,2129.11 M 1319.14,2159.36 L 1310.94,2171.73 L 1300.00,2182.73 L 1297.27,2193.74 L 1297.27,2204.74 M 1258.98,2087.85 L 1237.11,2074.10 L 1215.23,2067.23 L 1196.09,2060.35 L 1174.22,2058.98 M 1190.62,2057.60 L 1228.91,2069.98 L 1250.78,2080.98 L 1261.72,2093.35 L 1267.19,2104.35 L 1286.33,2115.36 L 1305.47,2113.98 L 1327.34,2089.23 L 1349.22,2071.35 L 1371.09,2054.85 L 1365.62,2058.98 L 1338.28,2080.98 L 1327.34,2090.60 L 1316.41,2102.98 L 1310.94,2113.98 M 1275.39,2078.23 L 1253.52,2067.23 L 1209.77,2047.98 L 1187.89,2035.60 L 1168.75,2021.85 L 1146.88,2008.10 L 1125.00,1992.97 L 1103.12,1976.47 L 1081.25,1961.34 M 1078.52,1958.59 L 1105.86,1980.60 L 1122.27,1991.60 L 1135.94,2002.60 L 1185.16,2035.60 L 1245.31,2069.98 L 1267.19,2079.60 L 1278.12,2090.60 L 1280.86,2101.60 L 1280.86,2112.61 L 1264.45,2123.61 L 1253.52,2134.61 L 1253.52,2135.98 L 1275.39,2113.98 L 1305.47,2119.48 L 1283.59,2131.86 L 1261.72,2141.48 L 1272.66,2152.48 M 1308.20,2113.98 L 1332.81,2080.98 L 1346.48,2069.98 L 1357.42,2058.98 L 1368.36,2049.35 M 1598.05,2005.35 L 1619.92,2028.72 M 1587.11,1986.10 L 1565.23,1966.84 L 1543.36,1946.22 L 1499.61,1910.47 L 1477.73,1889.84 M 1505.08,1856.84 L 1526.95,1825.21 L 1548.83,1794.96 L 1557.03,1778.46 L 1578.91,1771.58 L 1600.78,1763.33 L 1622.66,1753.71 L 1644.53,1739.95 L 1663.67,1723.45 L 1682.81,1704.20 L 1704.69,1683.58 L 1726.56,1679.45 L 1745.70,1672.57 L 1767.58,1653.32 L 1789.45,1631.32 L 1811.33,1613.45 M 1756.64,1672.57 L 1767.58,1662.95 L 1781.25,1651.95 L 1789.45,1642.32 L 1797.66,1631.32 L 1811.33,1618.95 L 1825.00,1607.94 L 1835.94,1596.94 L 1841.41,1584.57 L 1844.14,1573.57 L 1846.88,1561.19 L 1852.34,1550.19 L 1849.61,1544.69 L 1805.86,1530.94 M 1833.20,1541.94 L 1846.88,1552.94 L 1835.94,1574.94 L 1830.47,1596.94 L 1822.27,1606.57 L 1805.86,1617.57 L 1797.66,1628.57 L 1792.19,1639.57 L 1770.31,1661.57 L 1756.64,1671.20 L 1712.89,1682.20 L 1699.22,1691.83 L 1688.28,1702.83 L 1660.94,1724.83 L 1628.12,1746.83 L 1606.25,1757.83 L 1576.17,1768.83 L 1543.36,1779.83 L 1529.69,1792.21 L 1483.20,1804.58 L 1444.92,1815.58 L 1439.45,1816.96 L 1464.06,1812.83 L 1529.69,1792.21 L 1554.30,1789.46 L 1537.89,1811.46 L 1532.42,1821.08 L 1521.48,1832.09 L 1516.02,1844.46 L 1505.08,1856.84 L 1488.67,1878.84 L 1480.47,1888.46 L 1488.67,1900.84 L 1502.34,1913.22 L 1529.69,1935.22 L 1546.09,1946.22 L 1557.03,1957.22 L 1573.44,1968.22 L 1584.38,1977.85 L 1598.05,1987.47 L 1600.78,1998.47 L 1608.98,2009.47 L 1617.19,2021.85 L 1622.66,2032.85 L 1619.92,2043.85 L 1606.25,2054.85 L 1584.38,2065.85 L 1526.95,2089.23 L 1510.55,2101.60 L 1488.67,2112.61 L 1466.80,2119.48 L 1488.67,2113.98 L 1510.55,2102.98 L 1532.42,2087.85 L 1554.30,2079.60 L 1573.44,2071.35 L 1595.31,2060.35 L 1619.92,2043.85 M 1204.30,1812.83 L 1182.42,1812.83 L 1160.55,1808.71 L 1138.67,1800.46 L 1116.80,1793.58 L 1094.92,1788.08 L 1073.05,1778.46 L 1048.44,1768.83 L 1026.56,1759.21 L 1007.42,1741.33 L 988.28,1731.70 L 966.41,1722.08 L 944.53,1709.70 L 922.66,1693.20 M 922.66,1697.33 L 936.33,1708.33 L 950.00,1717.95 L 971.88,1728.95 L 999.22,1739.95 L 1012.89,1750.95 L 1034.77,1761.96 L 1053.91,1774.33 L 1081.25,1785.33 L 1111.33,1794.96 L 1144.14,1805.96 M 862.50,1727.58 L 884.38,1755.08 L 906.25,1785.33 L 928.12,1810.08 L 950.00,1832.09 L 971.88,1858.21 L 993.75,1880.21 L 1015.62,1906.34 L 1037.50,1928.34 L 1059.38,1953.09 L 1083.98,1975.10 L 1125.00,2016.35 L 1166.02,2060.35 L 1187.89,2087.85 L 1209.77,2112.61 L 1231.64,2138.73 L 1253.52,2167.61 L 1272.66,2197.86 L 1294.53,2226.74 L 1316.41,2254.24 L 1338.28,2278.99 L 1360.16,2294.12 L 1384.77,2316.12 M 1436.72,2393.12 L 1428.52,2382.12 L 1420.31,2372.50 L 1412.11,2361.50 L 1406.64,2351.87 L 1401.17,2329.87 L 1390.23,2318.87 L 1384.77,2309.24 L 1368.36,2296.87 L 1354.69,2284.49 L 1341.02,2273.49 L 1327.34,2261.12 L 1294.53,2217.11 L 1286.33,2207.49 L 1278.12,2195.11 L 1272.66,2184.11 L 1261.72,2171.73 L 1256.25,2160.73 L 1248.05,2151.11 L 1234.38,2140.11 L 1226.17,2130.48 L 1215.23,2119.48 L 1207.03,2109.85 L 1196.09,2100.23 L 1182.42,2089.23 L 1174.22,2076.85 L 1166.02,2065.85 L 1133.20,2032.85 L 1125.00,2021.85 L 1116.80,2012.22 L 1108.59,2001.22 L 1086.72,1979.22 L 1073.05,1968.22 L 1062.11,1955.84 L 1051.17,1946.22 L 1040.23,1933.84 L 1026.56,1922.84 L 1012.89,1910.47 L 1001.95,1899.47 L 993.75,1887.09 L 982.81,1877.46 L 971.88,1866.46 L 963.67,1855.46 L 955.47,1845.84 L 933.59,1823.83 L 911.72,1799.08 L 900.78,1788.08 L 889.84,1775.71 L 884.38,1764.71 L 876.17,1755.08 L 867.97,1744.08 L 862.50,1734.45 L 859.77,1723.45 L 851.56,1713.83 L 846.09,1702.83 L 843.36,1691.83 L 835.16,1680.83 L 829.69,1671.20 L 835.16,1660.20 M 835.16,1592.82 L 813.28,1585.94 L 791.41,1568.07 L 769.53,1539.19 M 753.12,1503.44 L 761.33,1514.44 L 766.80,1536.44 L 772.27,1547.44 L 783.20,1558.44 L 791.41,1569.44 L 799.61,1579.07 L 829.69,1590.07 L 846.09,1601.07 L 840.62,1612.07 L 843.36,1623.07 L 837.89,1634.07 L 835.16,1646.45 L 818.75,1657.45 L 796.88,1668.45 L 744.92,1691.83 L 720.31,1704.20 L 692.97,1715.20 L 662.89,1726.20 M 750.39,1467.69 L 769.53,1438.81 L 794.14,1425.06 L 816.02,1422.31 L 840.62,1427.81 L 865.23,1437.43 L 884.38,1433.31 L 889.84,1431.93 M 887.11,1430.56 L 892.58,1436.06 L 900.78,1447.06 L 900.78,1458.06 L 898.05,1467.69 M 944.53,1418.18 L 960.94,1396.18 L 971.88,1385.18 L 980.08,1374.18 L 993.75,1363.18 L 1015.62,1352.18 L 1026.56,1341.18 L 1040.23,1330.18 L 1064.84,1319.17 L 1097.66,1310.92 L 1075.78,1315.05 L 1053.91,1323.30 L 1032.03,1341.18 L 1012.89,1357.68 L 993.75,1370.05 L 971.88,1392.06 L 950.00,1411.31 M 1122.27,1418.18 L 1144.14,1419.56 L 1166.02,1414.06 L 1155.08,1416.81 M 1149.61,1419.56 L 1155.08,1418.18 L 1160.55,1415.43 L 1168.75,1414.06 L 1171.48,1414.06 L 1176.95,1411.31 M 1182.42,1415.43 L 1196.09,1426.43 M 1176.95,1423.68 L 1201.56,1434.68 L 1223.44,1436.06 L 1245.31,1431.93 L 1267.19,1422.31 L 1286.33,1425.06 M 1283.59,1420.93 L 1289.06,1422.31 L 1294.53,1422.31 L 1297.27,1423.68 L 1302.73,1429.18 L 1302.73,1430.56 M 1319.14,1419.56 L 1313.67,1418.18 L 1308.20,1418.18 L 1302.73,1416.81 L 1291.80,1416.81 L 1286.33,1415.43 L 1283.59,1415.43 M 1275.39,1415.43 L 1250.78,1427.81 M 1324.61,1423.68 L 1280.86,1411.31 L 1258.98,1409.93 L 1237.11,1404.43 L 1215.23,1403.06 L 1193.36,1403.06 L 1168.75,1404.43 L 1146.88,1408.56 L 1125.00,1415.43 L 1122.27,1415.43 L 1171.48,1404.43 M 1179.69,1363.18 L 1201.56,1365.93 L 1223.44,1365.93 L 1242.58,1368.68 L 1264.45,1372.80 L 1283.59,1375.55 L 1305.47,1378.30 L 1327.34,1378.30 L 1349.22,1379.68 M 1351.95,1354.93 L 1382.03,1367.30 L 1398.44,1378.30 M 1567.97,1404.43 L 1592.58,1407.18 L 1611.72,1414.06 L 1633.59,1416.81 L 1652.73,1418.18 L 1674.61,1422.31 L 1693.75,1425.06 L 1712.89,1433.31 L 1734.77,1440.18 L 1756.64,1440.18 M 1773.05,1451.18 L 1737.50,1444.31 L 1704.69,1433.31 L 1650.00,1423.68 M 1619.92,1416.81 L 1608.98,1416.81 L 1603.52,1415.43 L 1600.78,1415.43 L 1600.78,1414.06 L 1598.05,1412.68 M 1578.91,1392.06 L 1554.30,1403.06 L 1559.77,1400.31 L 1581.64,1390.68 L 1600.78,1392.06 L 1622.66,1392.06 L 1644.53,1394.81 L 1669.14,1398.93 L 1691.02,1398.93 L 1712.89,1403.06 L 1732.03,1408.56 L 1753.91,1418.18 L 1775.78,1433.31 M 1783.98,1451.18 L 1775.78,1440.18 L 1759.38,1429.18 L 1745.70,1418.18 L 1715.62,1407.18 M 1671.88,1401.68 L 1666.41,1400.31 L 1655.47,1398.93 L 1647.27,1398.93 M 1619.92,1455.31 L 1663.67,1467.69 L 1691.02,1478.69 L 1712.89,1489.69 M 1710.16,1496.56 L 1688.28,1488.31 M 1715.62,1481.44 L 1693.75,1470.44 L 1674.61,1464.94 L 1652.73,1459.43 L 1630.86,1455.31 L 1606.25,1452.56 L 1584.38,1449.81 M 1576.17,1458.06 L 1578.91,1467.69 L 1570.70,1464.94 L 1578.91,1471.81 L 1617.19,1480.06 L 1639.06,1482.81 L 1660.94,1474.56 L 1682.81,1480.06 L 1693.75,1493.81 M 1658.20,1477.31 L 1658.20,1478.69 L 1652.73,1480.06 L 1647.27,1482.81 M 1608.98,1467.69 L 1606.25,1467.69 M 1617.19,1462.18 L 1611.72,1463.56 L 1633.59,1467.69 M 1562.50,1466.31 L 1581.64,1459.43 L 1559.77,1460.81 L 1537.89,1459.43 L 1535.16,1460.81 M 1455.86,1558.44 L 1428.52,1565.32 L 1450.39,1561.19 L 1475.00,1561.19 L 1483.20,1568.07 L 1450.39,1572.19 L 1472.27,1572.19 M 1332.81,1559.82 L 1310.94,1555.69 M 1310.94,1550.19 L 1332.81,1550.19 L 1354.69,1554.32 M 1332.81,1544.69 L 1313.67,1543.32 M 1398.44,1367.30 L 1373.83,1356.30 L 1305.47,1348.05 L 1261.72,1345.30 L 1239.84,1346.68 L 1217.97,1346.68 L 1196.09,1345.30 L 1174.22,1345.30 L 1152.34,1348.05 L 1130.47,1349.43 L 1108.59,1353.55 L 1100.39,1354.93 L 1163.28,1343.93 M 1092.19,1312.30 L 1062.11,1323.30 L 1042.97,1332.93 L 1034.77,1343.93 L 1018.36,1354.93 L 999.22,1367.30 L 985.55,1376.93 L 974.61,1387.93 L 960.94,1398.93 L 952.73,1408.56 L 950.00,1418.18 M 1198.83,1265.55 L 1179.69,1268.30 L 1157.81,1275.17 L 1135.94,1283.42 L 1130.47,1286.17 L 1160.55,1275.17 L 1212.50,1262.80 M 1042.97,1158.29 L 1037.50,1161.04 L 1029.30,1162.41 L 1026.56,1162.41 L 1026.56,1163.79 M 1001.95,1170.66 L 999.22,1172.04 L 993.75,1172.04 L 991.02,1173.41 M 980.08,1159.66 L 955.47,1180.29 L 917.19,1191.29 L 895.31,1203.67 L 884.38,1214.67 L 870.70,1225.67 L 859.77,1235.29 L 865.23,1246.29 L 862.50,1257.30 L 865.23,1266.92 L 865.23,1277.92 L 867.97,1288.92 L 857.03,1299.92 L 859.77,1309.55 L 848.83,1320.55 L 857.03,1298.55 M 917.19,1176.17 L 898.05,1187.17 L 914.45,1176.17 L 922.66,1165.16 L 952.73,1154.16 M 1379.30,1074.41 L 1346.48,1084.03 L 1305.47,1095.03 L 1278.12,1104.66 L 1300.00,1095.03 L 1321.88,1089.53 L 1346.48,1085.41 L 1371.09,1077.16 L 1392.97,1071.66 L 1414.84,1071.66 L 1379.30,1085.41 L 1395.70,1079.91 M 1499.61,1085.41 L 1543.36,1082.66 L 1587.11,1077.16 L 1608.98,1077.16 L 1630.86,1084.03 M 1633.59,1088.16 L 1625.39,1084.03 L 1619.92,1084.03 M 1611.72,1089.53 L 1592.58,1088.16 M 1855.08,1122.54 L 1871.48,1133.54 L 1876.95,1144.54 L 1868.75,1154.16 L 1866.02,1163.79 L 1890.62,1174.79 M 1882.42,1167.91 L 1860.55,1156.91 M 1852.34,1156.91 L 1855.08,1154.16 L 1857.81,1155.54 L 1860.55,1154.16 L 1866.02,1154.16 L 1871.48,1150.04 M 1876.95,1132.16 L 1855.08,1122.54 M 1885.16,1198.17 L 1876.95,1209.17 L 1887.89,1209.17 M 1874.22,1206.42 L 1896.09,1199.54 L 1917.97,1199.54 L 1923.44,1200.92 M 1912.50,1200.92 L 1923.44,1203.67 L 1928.91,1206.42 M 1934.38,1221.54 L 1956.25,1222.92 L 1980.86,1225.67 M 1975.39,1224.29 L 1989.06,1236.67 L 1961.72,1247.67 L 1945.31,1260.05 L 1917.97,1271.05 L 1909.77,1282.05 L 1928.91,1294.42 L 1931.64,1306.80 L 1948.05,1317.80 L 1961.72,1328.80 L 1958.98,1339.80 M 1950.78,1317.80 L 1931.64,1304.05 M 1926.17,1288.92 L 1923.44,1286.17 L 1912.50,1286.17 L 1909.77,1283.42 M 1898.83,1282.05 L 1923.44,1269.67 L 1945.31,1260.05 L 1961.72,1236.67 M 1958.98,1235.29 L 1937.11,1244.92 L 1964.45,1233.92 M 1983.59,1232.54 L 1956.25,1229.79 L 1934.38,1236.67 L 1931.64,1239.42 L 1939.84,1228.42 M 2144.92,1244.92 L 2153.12,1242.17 L 2177.73,1236.67 L 2199.61,1231.17 L 2224.22,1213.29 L 2246.09,1210.54 M 2248.83,1213.29 L 2246.09,1211.92 L 2240.62,1210.54 L 2240.62,1209.17 L 2235.16,1206.42 M 2226.95,1205.04 L 2213.28,1216.04 L 2202.34,1227.04 M 2175.00,1254.55 L 2180.47,1265.55 L 2166.80,1269.67 L 2191.41,1279.30 L 2194.14,1290.30 L 2194.14,1301.30 L 2199.61,1313.67 L 2213.28,1324.68 M 2202.34,1315.05 L 2224.22,1326.05 L 2248.83,1327.43 L 2267.97,1328.80 M 2298.05,1304.05 L 2292.58,1295.80 L 2292.58,1291.67 M 2278.91,1247.67 L 2276.17,1255.92 L 2270.70,1264.17 L 2278.91,1253.17 L 2270.70,1246.29 M 2298.05,1203.67 L 2308.98,1216.04 L 2300.78,1249.05 L 2300.78,1260.05 L 2295.31,1271.05 L 2295.31,1293.05 L 2298.05,1305.42 L 2303.52,1317.80 M 2265.23,1352.18 L 2243.36,1357.68 L 2224.22,1360.43 L 2199.61,1364.55 L 2177.73,1370.05 L 2153.12,1374.18 L 2128.52,1376.93 L 2103.91,1381.05 L 2079.30,1387.93 L 2057.42,1393.43 L 2013.67,1407.18 L 1991.80,1416.81 L 1948.05,1430.56 L 1926.17,1440.18 L 1904.30,1448.43 L 1879.69,1456.68 L 1876.95,1452.56 L 1890.62,1441.56 L 1937.11,1431.93 L 1942.58,1429.18 L 1920.70,1434.68 L 1898.83,1438.81 L 1876.95,1451.18 L 1912.50,1448.43 L 1942.58,1437.43 L 1978.12,1427.81 L 2008.20,1415.43 L 2038.28,1404.43 L 2125.78,1381.05 L 2172.27,1370.05 L 2224.22,1359.05 M 2273.44,1401.68 L 2267.97,1412.68 L 2273.44,1434.68 L 2273.44,1445.68 L 2278.91,1458.06 L 2284.38,1469.06 L 2289.84,1478.69 L 2298.05,1491.06 L 2300.78,1502.06 L 2308.98,1513.06 L 2319.92,1524.06 L 2333.59,1533.69 L 2344.53,1544.69 L 2360.94,1555.69 L 2374.61,1566.69 L 2388.28,1576.32 L 2399.22,1587.32 L 2418.36,1599.69 L 2451.17,1621.70 L 2470.31,1632.70 L 2511.33,1653.32 L 2527.73,1665.70 L 2546.88,1675.32 L 2579.69,1694.58 M 2746.48,1679.45 L 2751.95,1684.95 L 2754.69,1686.33 L 2757.42,1686.33 L 2762.89,1687.70 L 2765.62,1690.45 L 2771.09,1693.20 M 2883.20,1614.82 L 2861.33,1594.19 M 2842.19,1585.94 L 2864.06,1609.32 M 2864.06,1613.45 L 2850.39,1602.44 L 2844.92,1591.44 L 2842.19,1580.44 L 2833.98,1569.44 L 2828.52,1558.44 L 2820.31,1546.07 L 2814.84,1535.06 L 2809.38,1522.69 L 2806.64,1511.69 L 2803.91,1499.31 L 2809.38,1488.31 L 2803.91,1493.81 M 2828.52,1491.06 L 2814.84,1502.06 L 2814.84,1513.06 L 2817.58,1522.69 L 2825.78,1533.69 L 2825.78,1544.69 L 2831.25,1555.69 L 2836.72,1565.32 L 2839.45,1574.94 L 2844.92,1584.57 L 2853.12,1595.57 L 2864.06,1606.57 L 2877.73,1618.95 M 2880.47,1610.70 L 2872.27,1598.32 L 2861.33,1573.57 M 2771.09,1561.19 L 2771.09,1592.82 L 2768.36,1603.82 L 2768.36,1627.20 L 2765.62,1638.20 L 2762.89,1650.57 L 2757.42,1661.57 L 2760.16,1671.20 L 2749.22,1678.07 L 2765.62,1689.08 L 2768.36,1701.45 L 2765.62,1713.83 M 3123.83,1744.08 L 3145.70,1728.95 L 3167.58,1724.83 L 3186.72,1720.70 L 3208.59,1716.58 L 3227.73,1712.45 L 3249.61,1706.95 L 3271.48,1704.20 L 3293.36,1698.70 L 3315.23,1712.45 M 3323.44,1722.08 L 3317.97,1711.08 L 3307.03,1700.08 M 3290.62,1678.07 L 3287.89,1678.07 L 3285.16,1679.45 L 3274.22,1682.20 M 3298.83,1673.95 L 3296.09,1672.57 L 3293.36,1668.45 L 3290.62,1667.07 L 3287.89,1664.32 L 3285.16,1662.95 M 3279.69,1653.32 L 3287.89,1662.95 L 3298.83,1673.95 L 3282.42,1684.95 L 3285.16,1694.58 L 3241.41,1709.70 L 3194.92,1720.70 L 3148.44,1733.08 L 3132.03,1744.08 L 3132.03,1755.08 L 3142.97,1766.08 M 3123.83,1759.21 L 3145.70,1768.83 L 3167.58,1766.08 L 3189.45,1764.71 L 3214.06,1761.96 L 3225.00,1757.83 L 3170.31,1768.83 M 3222.27,1772.96 L 3244.14,1782.58 L 3287.89,1785.33 L 3328.91,1785.33 L 3337.11,1793.58 L 3334.38,1804.58 L 3334.38,1849.96 L 3339.84,1871.96 L 3348.05,1882.96 L 3353.52,1893.96 L 3356.25,1904.97 L 3367.19,1915.97 L 3364.45,1926.97 L 3339.84,1939.34 L 3309.77,1950.34 L 3282.42,1961.34 L 3260.55,1970.97 L 3249.61,1981.97 L 3241.41,1994.35 L 3241.41,2005.35 L 3246.88,2014.97 L 3268.75,2058.98 L 3285.16,2080.98 L 3301.56,2090.60 L 3315.23,2102.98 L 3334.38,2113.98 L 3350.78,2124.98 L 3375.39,2135.98 M 3394.53,2144.23 L 3369.92,2134.61 L 3348.05,2124.98 L 3326.17,2112.61 L 3304.30,2098.85 L 3282.42,2083.73 L 3260.55,2057.60 M 3246.88,1987.47 L 3266.02,1969.60 L 3312.50,1948.97 L 3334.38,1940.72 L 3356.25,1929.72 M 3372.66,1918.72 L 3367.19,1915.97 L 3350.78,1903.59 L 3348.05,1899.47 M 3337.11,1790.83 L 3337.11,1844.46 L 3342.58,1855.46 L 3345.31,1866.46 L 3345.31,1889.84 L 3348.05,1899.47 L 3358.98,1911.84 L 3367.19,1922.84 L 3350.78,1933.84 L 3326.17,1944.84 L 3293.36,1955.84 L 3271.48,1966.84 L 3252.34,1977.85 L 3244.14,1988.85 L 3241.41,1999.85 L 3246.88,2010.85 L 3246.88,2021.85 L 3249.61,2031.47 L 3255.08,2041.10 L 3257.81,2052.10 L 3274.22,2074.10 L 3290.62,2083.73 L 3304.30,2094.73 L 3320.70,2105.73 L 3339.84,2116.73 L 3361.72,2127.73 L 3389.06,2138.73 M 3241.41,1782.58 L 3219.53,1771.58 L 3225.00,1761.96 M 3227.73,1760.58 L 3274.22,1753.71 L 3296.09,1752.33 L 3315.23,1753.71 M 3323.44,1748.20 L 3298.83,1746.83 L 3252.34,1749.58 M 3235.94,1752.33 L 3183.98,1763.33 M 3323.44,1752.33 L 3326.17,1749.58 L 3326.17,1745.45 L 3320.70,1744.08 M 3285.16,1697.33 L 3274.22,1691.83 L 3279.69,1679.45 L 3287.89,1668.45 L 3279.69,1657.45 L 3276.95,1651.95 L 3252.34,1649.20 L 3230.47,1650.57 L 3211.33,1650.57 L 3186.72,1640.95 M 3192.19,1629.95 L 3214.06,1616.20 L 3233.20,1612.07 L 3252.34,1609.32 L 3271.48,1595.57 L 3293.36,1587.32 L 3315.23,1584.57 L 3337.11,1584.57 L 3358.98,1591.44 L 3383.59,1599.69 M 3375.39,1602.44 L 3348.05,1591.44 M 3312.50,1587.32 L 3276.95,1598.32 L 3263.28,1609.32 L 3208.59,1620.32 L 3194.92,1629.95 L 3200.39,1640.95 M 3331.64,1563.94 L 3328.91,1561.19 L 3326.17,1555.69 L 3326.17,1551.57 L 3323.44,1546.07 L 3320.70,1541.94 M 3298.83,1455.31 L 3276.95,1444.31 L 3255.08,1426.43 L 3235.94,1411.31 L 3216.80,1398.93 L 3194.92,1387.93 L 3173.05,1381.05 L 3153.91,1374.18 M 3156.64,1371.43 L 3186.72,1382.43 L 3211.33,1393.43 L 3230.47,1403.06 L 3246.88,1414.06 L 3271.48,1436.06 L 3287.89,1447.06 M 3285.16,1478.69 L 3266.02,1453.93 L 3244.14,1433.31 L 3222.27,1415.43 L 3200.39,1401.68 L 3178.52,1390.68 L 3134.77,1371.43 M 3148.44,1365.93 L 3140.23,1376.93 L 3167.58,1387.93 L 3192.19,1398.93 L 3211.33,1409.93 L 3227.73,1420.93 L 3235.94,1431.93 L 3252.34,1442.93 L 3274.22,1464.94 L 3282.42,1475.94 L 3287.89,1486.94 L 3293.36,1496.56 L 3296.09,1507.56 L 3307.03,1529.56 L 3317.97,1548.82 L 3326.17,1559.82 L 3331.64,1570.82 M 3378.12,1478.69 L 3356.25,1469.06 L 3334.38,1460.81 L 3312.50,1438.81 L 3290.62,1418.18 L 3268.75,1404.43 L 3249.61,1394.81 L 3225.00,1387.93 L 3203.12,1382.43 L 3181.25,1374.18 L 3159.38,1368.68 L 3137.50,1368.68 L 3115.62,1370.05 L 3096.48,1368.68 L 3071.88,1370.05 L 3052.73,1370.05 L 3028.12,1368.68 L 3006.25,1370.05 L 2987.11,1372.80 M 2948.83,1379.68 L 2973.44,1359.05 L 2995.31,1342.55 L 3017.19,1320.55 L 3008.98,1298.55 L 2987.11,1309.55 L 2987.11,1319.17 L 2978.91,1330.18 M 2948.83,1346.68 L 2946.09,1357.68 L 2937.89,1368.68 L 2932.42,1379.68 L 2929.69,1389.30 L 2924.22,1400.31 M 2954.30,1398.93 L 2948.83,1387.93 L 2951.56,1376.93 L 2978.91,1354.93 L 2995.31,1343.93 L 3006.25,1331.55 L 3019.92,1321.93 L 3028.12,1310.92 L 3033.59,1299.92 L 3030.86,1288.92 L 3019.92,1286.17 L 3000.78,1288.92 L 2978.91,1288.92 M 2973.44,1271.05 L 2987.11,1275.17 L 3003.52,1271.05 M 2998.05,1273.80 L 2976.17,1268.30 M 2981.64,1268.30 L 2998.05,1280.67 L 2987.11,1279.30 M 3022.66,1283.42 L 3033.59,1294.42 L 3030.86,1305.42 L 3025.39,1316.42 L 3017.19,1327.43 L 3003.52,1338.43 L 2987.11,1350.80 L 2967.97,1361.80 L 2954.30,1372.80 L 2943.36,1385.18 L 2948.83,1396.18 L 2932.42,1407.18 L 2940.62,1405.81 M 2899.61,1408.56 L 2877.73,1434.68 M 2861.33,1411.31 L 2839.45,1425.06 L 2817.58,1436.06 L 2795.70,1448.43 L 2773.83,1463.56 L 2751.95,1484.19 L 2730.08,1500.69 L 2719.14,1507.56 L 2741.02,1496.56 L 2754.69,1485.56 L 2771.09,1475.94 L 2776.56,1464.94 L 2787.50,1455.31 L 2809.38,1444.31 L 2858.59,1411.31 M 2801.17,1426.43 L 2809.38,1422.31 L 2825.78,1400.31 L 2825.78,1389.30 L 2820.31,1378.30 M 2762.89,1398.93 L 2741.02,1396.18 L 2716.41,1398.93 L 2686.33,1400.31 L 2664.45,1394.81 M 2708.20,1371.43 L 2730.08,1381.05 M 2738.28,1381.05 L 2719.14,1371.43 M 2716.41,1346.68 L 2713.67,1345.30 L 2710.94,1346.68 L 2705.47,1345.30 L 2702.73,1342.55 L 2697.27,1342.55 M 2694.53,1338.43 L 2716.41,1338.43 M 2700.00,1338.43 L 2686.33,1337.05 M 2631.64,1343.93 L 2626.17,1341.18 L 2626.17,1339.80 L 2612.50,1332.93 L 2604.30,1331.55 M 2609.77,1334.30 L 2590.62,1335.68 L 2568.75,1334.30 L 2546.88,1324.68 M 2544.14,1321.93 L 2568.75,1334.30 M 2566.02,1316.42 L 2574.22,1327.43 L 2582.42,1328.80 L 2601.56,1327.43 L 2623.44,1328.80 M 2612.50,1328.80 L 2617.97,1330.18 L 2620.70,1331.55 L 2628.91,1332.93 L 2631.64,1334.30 L 2637.11,1335.68 L 2637.11,1337.05 L 2639.84,1338.43 M 2598.83,1385.18 L 2620.70,1397.56 M 2544.14,1398.93 L 2538.67,1398.93 L 2533.20,1397.56 L 2527.73,1392.06 M 2525.00,1383.80 L 2522.27,1394.81 L 2538.67,1394.81 L 2552.34,1397.56 L 2574.22,1396.18 L 2598.83,1403.06 L 2642.58,1405.81 L 2661.72,1404.43 M 2741.02,1398.93 L 2724.61,1405.81 L 2743.75,1408.56 L 2765.62,1407.18 M 2779.30,1503.44 L 2738.28,1524.06 L 2702.73,1535.06 M 2697.27,1541.94 L 2732.81,1529.56 L 2760.16,1518.56 L 2782.03,1506.19 L 2779.30,1529.56 L 2757.42,1557.07 L 2735.55,1583.19 L 2713.67,1602.44 L 2713.67,1603.82 L 2724.61,1594.19 L 2741.02,1583.19 L 2749.22,1573.57 L 2765.62,1551.57 L 2773.83,1539.19 L 2782.03,1528.19 L 2792.97,1506.19 M 2710.94,1603.82 L 2721.88,1594.19 L 2738.28,1583.19 L 2749.22,1572.19 L 2757.42,1561.19 L 2768.36,1550.19 L 2773.83,1539.19 L 2784.77,1528.19 L 2790.23,1518.56 L 2798.44,1508.94 L 2776.56,1514.44 L 2732.81,1533.69 L 2710.94,1540.57 L 2689.06,1546.07 L 2667.19,1548.82 L 2645.31,1550.19 L 2601.56,1550.19 L 2579.69,1548.82 L 2557.81,1546.07 L 2535.94,1541.94 L 2514.06,1535.06 M 2503.12,1535.06 L 2508.59,1536.44 L 2514.06,1536.44 L 2519.53,1537.82 L 2525.00,1537.82 L 2530.47,1539.19 L 2538.67,1540.57 M 2295.31,1492.44 L 2317.19,1518.56 L 2339.06,1537.82 L 2382.81,1570.82 L 2404.69,1588.69 L 2426.56,1605.19 L 2445.70,1618.95 L 2467.58,1631.32 L 2508.59,1657.45 L 2555.08,1683.58 L 2576.95,1697.33 L 2601.56,1708.33 L 2623.44,1709.70 L 2642.58,1706.95 L 2667.19,1706.95 L 2686.33,1705.58 L 2708.20,1705.58 L 2730.08,1706.95 L 2751.95,1706.95 M 2330.86,1462.18 L 2311.72,1445.68 L 2289.84,1419.56 M 2276.17,1401.68 L 2281.64,1412.68 L 2289.84,1423.68 L 2300.78,1434.68 L 2308.98,1447.06 L 2319.92,1459.43 L 2339.06,1469.06 M 2243.36,1429.18 L 2221.48,1440.18 L 2183.20,1462.18 L 2169.53,1471.81 L 2158.59,1482.81 L 2144.92,1493.81 L 2133.98,1506.19 L 2060.16,1539.19 L 2038.28,1550.19 L 2010.94,1562.57 L 1975.39,1573.57 L 1950.78,1583.19 L 1926.17,1594.19 L 1898.83,1605.19 L 1833.20,1638.20 L 1794.92,1660.20 L 1773.05,1671.20 L 1707.42,1700.08 L 1685.55,1711.08 L 1682.81,1715.20 L 1704.69,1701.45 L 1726.56,1691.83 L 1748.44,1680.83 L 1770.31,1668.45 L 1792.19,1657.45 L 1816.80,1643.70 L 1841.41,1631.32 L 1863.28,1621.70 L 1887.89,1609.32 L 1937.11,1590.07 L 1983.59,1569.44 L 2002.73,1563.94 L 2024.61,1555.69 L 2043.75,1544.69 L 2065.62,1533.69 L 2128.52,1506.19 L 2150.39,1488.31 L 2172.27,1473.19 L 2191.41,1458.06 L 2213.28,1444.31 L 2235.16,1433.31 M 2508.59,1378.30 L 2530.47,1379.68 L 2552.34,1383.80 L 2574.22,1383.80 L 2596.09,1386.55 L 2617.97,1390.68 L 2637.11,1390.68 L 2658.98,1398.93 L 2667.19,1393.43 L 2675.39,1403.06 M 2590.62,1400.31 L 2576.95,1385.18 L 2538.67,1376.93 M 2530.47,1257.30 L 2533.20,1257.30 L 2538.67,1255.92 M 2587.89,1264.17 L 2587.89,1266.92 L 2593.36,1255.92 M 2612.50,1243.54 M 2645.31,1244.92 L 2667.19,1239.42 L 2689.06,1244.92 M 2689.06,1243.54 L 2669.92,1238.04 L 2650.78,1242.17 L 2656.25,1243.54 M 2645.31,1238.04 L 2700.00,1251.80 M 2724.61,1265.55 L 2716.41,1275.17 L 2713.67,1286.17 L 2743.75,1280.67 L 2773.83,1290.30 M 2743.75,1294.42 L 2738.28,1293.05 M 2730.08,1295.80 L 2713.67,1277.92 L 2727.34,1266.92 L 2713.67,1282.05 M 2741.02,1275.17 L 2741.02,1284.80 L 2749.22,1280.67 L 2771.09,1288.92 L 2790.23,1298.55 L 2812.11,1302.67 L 2833.98,1304.05 M 2825.78,1280.67 L 2820.31,1280.67 M 2836.72,1265.55 L 2825.78,1271.05 L 2803.91,1271.05 L 2782.03,1264.17 M 2779.30,1260.05 L 2801.17,1254.55 L 2823.05,1254.55 L 2844.92,1257.30 L 2864.06,1260.05 L 2888.67,1269.67 M 2918.75,1273.80 L 2924.22,1273.80 M 2869.53,1272.42 L 2847.66,1261.42 M 2844.92,1260.05 L 2839.45,1261.42 L 2864.06,1266.92 L 2885.94,1276.55 M 2875.00,1266.92 L 2850.39,1257.30 M 2798.44,1249.05 L 2779.30,1260.05 M 2743.75,1275.17 L 2732.81,1265.55 M 2702.73,1262.80 L 2700.00,1251.80 L 2661.72,1233.92 M 2768.36,1205.04 L 2790.23,1202.29 L 2812.11,1203.67 L 2833.98,1206.42 L 2855.86,1207.79 L 2905.08,1216.04 L 2926.95,1228.42 M 2984.38,1233.92 L 3006.25,1200.92 M 3060.94,1145.91 L 3077.34,1134.91 L 3085.55,1133.54 M 3088.28,1128.04 L 3069.14,1139.04 L 3058.20,1150.04 L 3058.20,1141.79 L 3088.28,1132.16 L 3096.48,1143.16 M 3123.83,1114.29 L 3148.44,1118.41 L 3167.58,1121.16 M 3167.58,1118.41 L 3123.83,1110.16 L 3115.62,1095.03 L 3123.83,1084.03 L 3129.30,1074.41 L 3132.03,1063.41 L 3142.97,1041.41 L 3145.70,1030.40 L 3153.91,1018.03 L 3159.38,1007.03 L 3167.58,996.03 L 3173.05,985.03 L 3181.25,974.03 L 3192.19,952.02 L 3194.92,942.40 L 3203.12,931.40 L 3214.06,909.40 L 3222.27,898.40 L 3233.20,876.39 L 3241.41,865.39 L 3244.14,854.39 L 3244.14,843.39 L 3249.61,832.39 L 3252.34,821.39 L 3255.08,811.76 L 3260.55,789.76 L 3260.55,778.76 L 3266.02,769.14 L 3268.75,758.14 L 3274.22,747.14 L 3285.16,736.13 L 3268.75,748.51 M 3285.16,736.13 L 3274.22,747.14 L 3266.02,756.76 L 3263.28,767.76 L 3257.81,778.76 L 3255.08,789.76 L 3249.61,799.39 L 3244.14,811.76 L 3241.41,822.77 L 3241.41,833.77 L 3235.94,855.77 L 3235.94,866.77 L 3225.00,888.77 L 3216.80,901.15 L 3214.06,910.77 L 3208.59,920.40 L 3203.12,931.40 L 3192.19,942.40 L 3181.25,964.40 L 3164.84,986.40 L 3159.38,998.78 L 3156.64,1009.78 L 3148.44,1020.78 L 3137.50,1033.16 L 3134.77,1044.16 L 3123.83,1066.16 L 3121.09,1077.16 L 3121.09,1088.16 L 3118.36,1099.16 L 3129.30,1117.04 L 3181.25,1128.04 L 3189.45,1139.04 M 3233.20,1126.66 L 3211.33,1112.91 L 3186.72,1107.41 M 3186.72,1104.66 L 3216.80,1115.66 L 3233.20,1126.66 L 3246.88,1137.66 L 3252.34,1148.66 L 3252.34,1161.04 L 3257.81,1180.29 L 3255.08,1191.29 L 3249.61,1202.29 M 3255.08,1123.91 L 3233.20,1108.79 L 3214.06,1100.53 M 3222.27,1093.66 L 3219.53,1108.79 L 3241.41,1118.41 L 3257.81,1128.04 L 3266.02,1139.04 M 3304.30,1099.16 L 3315.23,1100.53 L 3323.44,1101.91 L 3334.38,1103.28 M 3375.39,1106.04 L 3386.33,1108.79 L 3394.53,1111.54 M 3389.06,1106.04 L 3367.19,1101.91 L 3345.31,1099.16 L 3326.17,1097.78 L 3304.30,1095.03 L 3282.42,1099.16 L 3260.55,1093.66 L 3238.67,1089.53 L 3214.06,1093.66 L 3170.31,1101.91 L 3145.70,1103.28 L 3123.83,1107.41 L 3099.22,1106.04 L 3080.08,1103.28 L 3077.34,1103.28 M 2978.91,1141.79 L 2957.03,1132.16 L 2935.16,1128.04 L 2913.28,1121.16 L 2891.41,1117.04 M 2910.55,1118.41 L 2937.89,1130.79 L 2976.17,1141.79 L 2992.58,1154.16 L 3003.52,1165.16 L 3008.98,1176.17 L 3017.19,1187.17 L 3014.45,1196.79 L 3011.72,1207.79 L 3006.25,1218.79 L 2992.58,1229.79 L 2989.84,1240.79 L 2987.11,1250.42 L 2981.64,1261.42 L 2976.17,1273.80 L 2981.64,1283.42 L 2984.38,1293.05 L 2976.17,1304.05 L 2962.50,1308.17 L 2957.03,1320.55 L 2946.09,1342.55 L 2940.62,1352.18 L 2932.42,1363.18 L 2926.95,1372.80 L 2921.48,1383.80 L 2905.08,1405.81 L 2902.34,1416.81 L 2888.67,1426.43 L 2880.47,1438.81 M 2987.11,1308.17 L 3008.98,1299.92 M 3022.66,1294.42 L 2995.31,1305.42 L 2989.84,1315.05 L 2989.84,1326.05 M 3159.38,1365.93 L 3200.39,1378.30 L 3230.47,1387.93 L 3257.81,1398.93 L 3276.95,1411.31 L 3293.36,1422.31 L 3307.03,1433.31 L 3328.91,1455.31 L 3353.52,1467.69 L 3383.59,1478.69 M 2946.09,1244.92 L 2924.22,1238.04 L 2891.41,1228.42 L 2869.53,1227.04 L 2850.39,1224.29 L 2831.25,1222.92 L 2784.77,1222.92 L 2760.16,1231.17 L 2738.28,1239.42 L 2749.22,1236.67 L 2782.03,1225.67 M 2790.23,1227.04 L 2784.77,1238.04 L 2776.56,1235.29 L 2798.44,1232.54 M 2875.00,1210.54 L 2910.55,1218.79 L 2929.69,1229.79 L 2940.62,1243.54 L 2943.36,1255.92 M 2888.67,1126.66 L 2866.80,1108.79 L 2847.66,1096.41 M 2853.12,1100.53 L 2872.27,1110.16 L 2883.20,1121.16 L 2899.61,1132.16 M 2907.81,1139.04 L 2894.14,1126.66 L 2880.47,1115.66 L 2861.33,1104.66 L 2839.45,1099.16 L 2817.58,1088.16 L 2798.44,1081.28 L 2776.56,1074.41 L 2754.69,1062.03 L 2732.81,1056.53 M 2738.28,1056.53 L 2757.42,1067.53 L 2790.23,1079.91 L 2823.05,1090.91 L 2844.92,1101.91 M 2593.36,1184.42 L 2593.36,1183.04 L 2590.62,1181.67 L 2585.16,1180.29 M 2549.61,1191.29 L 2522.27,1192.67 L 2500.39,1188.54 M 2500.39,1198.17 L 2508.59,1209.17 L 2497.66,1199.54 L 2500.39,1206.42 M 2514.06,1220.17 L 2519.53,1222.92 M 2508.59,1224.29 L 2500.39,1227.04 L 2459.38,1228.42 L 2464.84,1227.04 L 2432.03,1233.92 L 2426.56,1231.17 L 2423.83,1231.17 M 2473.05,1225.67 L 2486.72,1235.29 L 2505.86,1239.42 L 2530.47,1240.79 L 2552.34,1233.92 L 2535.94,1239.42 L 2533.20,1251.80 L 2544.14,1250.42 M 2459.38,1261.42 L 2451.17,1261.42 M 2404.69,1268.30 L 2399.22,1268.30 M 2347.27,1210.54 L 2336.33,1209.17 L 2311.72,1207.79 L 2287.11,1213.29 L 2265.23,1205.04 L 2243.36,1189.92 M 2289.84,1200.92 L 2311.72,1200.92 L 2330.86,1203.67 M 2328.12,1196.79 L 2325.39,1187.17 L 2336.33,1174.79 L 2344.53,1163.79 L 2355.47,1152.79 L 2352.73,1152.79 L 2328.12,1177.54 M 2355.47,1206.42 L 2371.88,1211.92 L 2371.88,1207.79 M 2434.77,1188.54 L 2399.22,1199.54 L 2374.61,1211.92 L 2377.34,1207.79 L 2399.22,1198.17 L 2442.97,1187.17 L 2464.84,1185.79 L 2486.72,1187.17 L 2508.59,1192.67 L 2530.47,1194.04 L 2552.34,1198.17 L 2571.48,1200.92 L 2590.62,1205.04 M 2587.89,1202.29 L 2525.00,1192.67 M 2464.84,1170.66 L 2415.62,1181.67 L 2410.16,1192.67 L 2421.09,1180.29 L 2445.70,1174.79 L 2467.58,1170.66 L 2489.45,1169.29 L 2555.08,1173.41 L 2576.95,1176.17 L 2623.44,1181.67 L 2642.58,1189.92 M 2360.94,1144.54 L 2344.53,1156.91 L 2336.33,1167.91 L 2333.59,1180.29 L 2328.12,1191.29 M 2172.27,1258.67 L 2172.27,1261.42 L 2166.80,1273.80 M 2169.53,1271.05 L 2191.41,1277.92 M 2183.20,1275.17 L 2166.80,1265.55 L 2142.19,1268.30 L 2150.39,1266.92 M 1923.44,1371.43 L 1934.38,1382.43 L 1939.84,1393.43 L 1934.38,1405.81 L 1923.44,1416.81 L 1904.30,1426.43 L 1923.44,1414.06 M 1934.38,1386.55 L 1928.91,1382.43 L 1928.91,1379.68 L 1926.17,1379.68 L 1923.44,1378.30 L 1920.70,1375.55 M 1803.12,1394.81 L 1781.25,1381.05 M 1770.31,1363.18 L 1748.44,1353.55 M 1762.11,1354.93 L 1783.98,1365.93 L 1794.92,1375.55 L 1786.72,1386.55 L 1805.86,1396.18 L 1811.33,1408.56 L 1808.59,1419.56 L 1808.59,1430.56 L 1811.33,1441.56 L 1811.33,1451.18 L 1814.06,1463.56 L 1814.06,1495.19 L 1811.33,1507.56 L 1808.59,1518.56 L 1808.59,1529.56 L 1814.06,1540.57 M 1726.56,1315.05 L 1704.69,1312.30 L 1685.55,1306.80 L 1663.67,1298.55 L 1644.53,1287.55 L 1622.66,1279.30 M 1622.66,1277.92 L 1647.27,1288.92 L 1669.14,1299.92 L 1699.22,1310.92 M 2464.84,1051.03 L 2442.97,1057.91 L 2437.50,1060.66 L 2467.58,1049.66 M 2560.55,928.65 L 2533.20,936.90 L 2552.34,928.65 L 2598.83,923.15 M 2601.56,923.15 L 2596.09,931.40 M 2710.94,901.15 L 2716.41,901.15 L 2719.14,902.52 L 2721.88,902.52 L 2727.34,899.77 M 2713.67,881.89 L 2716.41,887.39 L 2719.14,898.40 L 2727.34,908.02 L 2732.81,919.02 L 2730.08,931.40 M 2741.02,947.90 L 2735.55,935.52 L 2735.55,924.52 L 2743.75,913.52 L 2743.75,903.90 L 2751.95,892.90 L 2773.83,883.27 L 2771.09,872.27 L 2757.42,869.52 L 2735.55,872.27 L 2730.08,850.27 L 2727.34,821.39 L 2757.42,809.01 L 2768.36,798.01 L 2746.48,813.14 L 2724.61,820.02 L 2705.47,813.14 L 2746.48,802.14 L 2765.62,791.14 L 2754.69,799.39 L 2735.55,807.64 L 2713.67,813.14 L 2691.80,815.89 M 2689.06,821.39 L 2710.94,833.77 M 2702.73,843.39 L 2700.00,842.02 L 2691.80,842.02 L 2689.06,837.89 M 2694.53,826.89 L 2708.20,837.89 L 2716.41,848.89 L 2724.61,858.52 L 2735.55,870.89 L 2754.69,884.64 L 2751.95,890.15 M 2727.34,886.02 L 2705.47,866.77 M 2705.47,880.52 L 2721.88,902.52 L 2724.61,913.52 L 2727.34,923.15 L 2727.34,934.15 M 2817.58,924.52 L 2820.31,923.15 M 2743.75,946.52 L 2741.02,935.52 L 2746.48,924.52 L 2749.22,913.52 L 2749.22,902.52 L 2760.16,892.90 L 2776.56,881.89 L 2771.09,870.89 M 2784.77,839.27 L 2784.77,833.77 L 2782.03,832.39 M 2798.44,814.51 L 2792.97,813.14 M 2773.83,809.01 L 2776.56,820.02 L 2784.77,831.02 L 2792.97,843.39 L 2798.44,865.39 L 2798.44,876.39 L 2801.17,887.39 M 2957.03,862.64 L 2962.50,873.64 M 2962.50,869.52 L 2981.64,875.02 M 2967.97,872.27 L 2967.97,866.77 M 2935.16,842.02 L 2932.42,840.64 L 2935.16,839.27 L 2935.16,837.89 L 2929.69,836.52 L 2932.42,835.14 M 2989.84,828.27 L 2998.05,828.27 M 2967.97,745.76 L 2959.77,745.76 M 2976.17,719.63 M 3058.20,730.63 M 3126.56,734.76 L 3129.30,736.13 M 3156.64,730.63 L 3159.38,729.26 M 3241.41,759.51 L 3244.14,759.51 M 3301.56,743.01 L 3317.97,723.76 L 3307.03,734.76 L 3301.56,745.76 L 3293.36,756.76 L 3287.89,778.76 L 3285.16,791.14 L 3282.42,802.14 L 3279.69,814.51 L 3276.95,825.52 M 3279.69,835.14 L 3290.62,825.52 L 3304.30,814.51 L 3309.77,803.51 L 3315.23,791.14 L 3323.44,758.14 L 3328.91,745.76 L 3328.91,716.88 L 3348.05,705.88 L 3353.52,696.26 L 3367.19,685.26 L 3375.39,672.88 L 3375.39,660.50 L 3378.12,648.13 L 3380.86,637.13 L 3375.39,615.13 L 3389.06,622.00 L 3389.06,611.00 L 3386.33,602.75 M 3391.80,601.38 L 3397.27,612.38 L 3400.00,623.38 L 3394.53,633.00 M 3361.72,630.25 L 3358.98,630.25 M 3383.59,616.50 L 3383.59,638.50 L 3380.86,650.88 L 3378.12,660.50 L 3378.12,671.50 L 3364.45,683.88 L 3356.25,694.88 L 3345.31,705.88 L 3331.64,716.88 L 3328.91,727.88 L 3323.44,738.88 L 3323.44,749.89 L 3317.97,759.51 L 3315.23,770.51 L 3312.50,780.14 L 3309.77,791.14 L 3307.03,800.76 L 3301.56,811.76 L 3290.62,821.39 L 3279.69,832.39 L 3263.28,839.27 L 3282.42,828.27 M 3304.30,773.26 L 3307.03,763.64 L 3312.50,752.64 L 3317.97,730.63 M 3312.50,723.76 L 3304.30,734.76 L 3296.09,747.14 L 3290.62,758.14 L 3290.62,770.51 L 3285.16,781.51 L 3282.42,792.51 L 3279.69,802.14 L 3276.95,813.14 L 3274.22,825.52 M 3326.17,715.51 L 3348.05,699.01 L 3369.92,674.26 M 3394.53,660.50 L 3400.00,657.75 M 3290.62,617.88 L 3287.89,617.88 M 3216.80,655.00 L 3211.33,666.00 L 3208.59,653.63 L 3200.39,664.63 L 3205.86,653.63 M 3006.25,628.88 L 3000.78,627.50 M 2929.69,611.00 L 2924.22,612.38 M 2921.48,641.25 L 2924.22,652.25 L 2918.75,664.63 L 2918.75,675.63 L 2913.28,686.63 L 2885.94,697.63 M 2864.06,703.13 L 2880.47,686.63 L 2885.94,675.63 L 2902.34,653.63 L 2913.28,641.25 L 2902.34,646.75 M 2913.28,641.25 L 2902.34,653.63 L 2896.88,664.63 L 2888.67,675.63 L 2883.20,686.63 L 2866.80,697.63 L 2891.41,697.63 L 2910.55,688.01 M 2896.88,688.01 L 2894.14,686.63 L 2891.41,686.63 L 2888.67,685.26 M 2880.47,672.88 L 2883.20,671.50 L 2888.67,667.38 L 2891.41,666.00 L 2894.14,663.25 M 2869.53,701.76 L 2858.59,701.76 M 2823.05,683.88 L 2820.31,685.26 M 2754.69,696.26 L 2751.95,700.38 L 2746.48,700.38 L 2741.02,697.63 L 2738.28,693.51 L 2735.55,692.13 M 2735.55,678.38 L 2710.94,678.38 M 2710.94,659.13 L 2732.81,657.75 L 2754.69,648.13 L 2779.30,646.75 M 2771.09,660.50 L 2762.89,671.50 L 2760.16,681.13 L 2754.69,692.13 M 2710.94,707.26 L 2735.55,727.88 M 2749.22,743.01 L 2727.34,762.26 L 2705.47,767.76 L 2683.59,771.89 M 2700.00,787.01 L 2721.88,787.01 M 2751.95,789.76 L 2732.81,799.39 L 2710.94,804.89 L 2691.80,803.51 M 2667.19,791.14 L 2691.80,789.76 L 2697.27,777.39 L 2719.14,778.76 L 2719.14,777.39 L 2738.28,778.76 M 2746.48,771.89 L 2746.48,760.89 L 2741.02,766.39 M 2749.22,759.51 L 2743.75,770.51 L 2735.55,782.89 L 2743.75,782.89 M 2765.62,792.51 L 2749.22,803.51 L 2721.88,814.51 L 2710.94,825.52 L 2719.14,836.52 L 2730.08,846.14 L 2746.48,859.89 L 2754.69,869.52 L 2738.28,883.27 M 2762.89,855.77 L 2749.22,853.02 L 2743.75,843.39 L 2738.28,832.39 L 2746.48,821.39 L 2727.34,817.27 L 2760.16,806.26 L 2771.09,795.26 M 2719.14,795.26 L 2721.88,796.64 L 2691.80,791.14 L 2708.20,778.76 L 2727.34,770.51 M 2746.48,661.88 L 2768.36,659.13 L 2787.50,649.50 L 2809.38,641.25 L 2828.52,619.25 M 2809.38,617.88 L 2812.11,628.88 M 2792.97,634.38 L 2790.23,634.38 L 2782.03,623.38 L 2782.03,613.75 L 2787.50,601.38 M 2773.83,601.38 L 2771.09,612.38 L 2771.09,623.38 L 2776.56,634.38 L 2760.16,646.75 L 2724.61,656.38 L 2713.67,668.75 L 2713.67,701.76 L 2721.88,714.13 L 2730.08,725.13 L 2738.28,734.76 L 2735.55,745.76 L 2721.88,756.76 L 2686.33,767.76 L 2664.45,782.89 L 2678.12,795.26 L 2683.59,806.26 L 2678.12,824.14 L 2680.86,835.14 L 2686.33,846.14 L 2697.27,857.14 L 2702.73,868.14 L 2716.41,879.14 L 2730.08,891.52 L 2765.62,892.90 L 2784.77,897.02 L 2798.44,886.02 M 3178.52,976.78 L 3178.52,980.90 L 3175.78,986.40 L 3175.78,990.53 M 3244.14,1092.28 L 3249.61,1093.66 L 3255.08,1096.41 L 3266.02,1099.16 L 3266.02,1100.53 L 3276.95,1100.53 M 3391.80,1019.40 L 3391.80,1015.28 M 3394.53,1009.78 L 3389.06,1022.15 M 2735.55,800.76 L 2757.42,789.76 L 2757.42,777.39 L 2754.69,766.39 L 2760.16,755.39 L 2768.36,745.76 L 2771.09,734.76 L 2768.36,725.13 L 2762.89,714.13 L 2751.95,701.76 L 2738.28,690.76 L 2743.75,678.38 L 2751.95,668.75 L 2779.30,657.75 L 2803.91,646.75 L 2823.05,635.75 L 2839.45,613.75 L 2842.19,601.38 M 2593.36,653.63 L 2571.48,648.13 L 2546.88,645.38 L 2525.00,641.25 M 2549.61,635.75 L 2527.73,635.75 L 2503.12,628.88 M 2500.39,630.25 L 2519.53,641.25 L 2579.69,652.25 M 2585.16,630.25 L 2563.28,626.13 L 2541.41,623.38 L 2519.53,623.38 L 2497.66,626.13 L 2473.05,637.13 M 2492.19,631.63 L 2486.72,642.63 L 2483.98,653.63 M 2489.45,660.50 L 2470.31,677.01 L 2453.91,700.38 L 2464.84,688.01 L 2470.31,677.01 L 2481.25,666.00 L 2497.66,655.00 L 2483.98,653.63 L 2448.44,686.63 L 2442.97,689.38 L 2467.58,656.38 L 2478.52,634.38 L 2500.39,623.38 M 2574.22,627.50 L 2601.56,638.50 L 2596.09,650.88 M 2412.89,639.88 L 2415.62,650.88 L 2410.16,663.25 L 2396.48,670.13 M 2391.02,671.50 L 2404.69,660.50 L 2410.16,649.50 L 2396.48,638.50 L 2374.61,656.38 M 2388.28,707.26 L 2363.67,730.63 M 2388.28,732.01 L 2393.75,737.51 L 2399.22,748.51 M 2399.22,751.26 L 2399.22,740.26 L 2391.02,729.26 M 2377.34,789.76 L 2374.61,793.89 L 2371.88,796.64 L 2366.41,800.76 L 2360.94,806.26 L 2358.20,810.39 M 2385.55,804.89 L 2380.08,815.89 L 2377.34,828.27 L 2377.34,839.27 L 2371.88,850.27 L 2369.14,861.27 L 2363.67,872.27 L 2360.94,881.89 L 2352.73,892.90 L 2344.53,902.52 L 2336.33,913.52 L 2317.19,925.90 L 2308.98,936.90 L 2306.25,949.27 L 2306.25,971.28 L 2300.78,993.28 L 2295.31,1005.65 L 2289.84,1027.65 L 2287.11,1037.28 L 2284.38,1048.28 L 2284.38,1059.28 L 2278.91,1070.28 L 2276.17,1081.28 L 2276.17,1125.29 L 2273.44,1136.29 L 2270.70,1148.66 L 2265.23,1158.29 L 2262.50,1169.29 L 2254.30,1181.67 L 2251.56,1192.67 L 2262.50,1203.67 L 2289.84,1214.67 L 2298.05,1225.67 L 2300.78,1238.04 L 2300.78,1249.05 L 2295.31,1271.05 L 2287.11,1280.67 L 2284.38,1291.67 L 2276.17,1302.67 L 2273.44,1313.67 L 2270.70,1323.30 L 2273.44,1338.43 L 2270.70,1348.05 M 2311.72,930.02 L 2333.59,917.65 M 2418.36,612.38 L 2429.30,602.75 M 2412.89,600.00 L 2412.89,612.38 L 2407.42,623.38 L 2401.95,635.75 L 2385.55,646.75 L 2380.08,657.75 L 2380.08,668.75 L 2388.28,681.13 L 2391.02,692.13 L 2404.69,703.13 L 2393.75,714.13 L 2385.55,725.13 L 2374.61,736.13 L 2374.61,747.14 L 2380.08,756.76 L 2385.55,769.14 L 2382.81,778.76 L 2374.61,789.76 L 2366.41,802.14 L 2358.20,813.14 L 2355.47,824.14 L 2350.00,833.77 L 2347.27,844.77 L 2341.80,855.77 L 2339.06,866.77 L 2333.59,876.39 L 2328.12,887.39 L 2325.39,898.40 L 2317.19,908.02 L 2322.66,902.52 M 2352.73,601.38 L 2344.53,634.38 L 2341.80,646.75 L 2336.33,668.75 L 2330.86,678.38 L 2328.12,689.38 L 2322.66,701.76 L 2317.19,712.76 L 2311.72,734.76 L 2289.84,778.76 L 2287.11,791.14 L 2281.64,802.14 L 2278.91,813.14 L 2270.70,824.14 L 2270.70,835.14 L 2262.50,868.14 L 2251.56,890.15 L 2246.09,899.77 L 2240.62,910.77 L 2235.16,923.15 L 2235.16,934.15 L 2229.69,945.15 L 2224.22,954.77 L 2224.22,965.78 L 2218.75,976.78 L 2218.75,987.78 L 2216.02,1000.15 L 2210.55,1011.15 L 2207.81,1023.53 L 2205.08,1034.53 L 2199.61,1045.53 L 2196.88,1056.53 L 2191.41,1067.53 L 2185.94,1077.16 L 2183.20,1086.78 L 2177.73,1096.41 L 2175.00,1107.41 L 2175.00,1118.41 L 2172.27,1129.41 L 2169.53,1141.79 L 2164.06,1152.79 L 2161.33,1163.79 L 2155.86,1173.41 L 2153.12,1184.42 L 2147.66,1196.79 L 2144.92,1209.17 L 2133.98,1231.17 L 2131.25,1242.17 L 2123.05,1254.55 L 2117.58,1265.55 L 2112.11,1275.17 L 2103.91,1308.17 L 2103.91,1319.17 L 2098.44,1330.18 L 2098.44,1339.80 L 2103.91,1350.80 L 2103.91,1361.80 L 2095.70,1371.43 L 2082.03,1383.80 L 2084.77,1383.80" fill="none" stroke="black" stroke-width="2" stroke-linecap="round" stroke-linejoin="round"/>
  <!-- You could add markers for start/end or Z=0 points if needed -->
  <!-- Example: Mark start point -->
  <!-- <circle cx="1114.06" cy="605.50" r="5" fill="green" /> -->
  <!-- Example: Mark end point -->
  <!-- <circle cx="2084.77" cy="1383.80" r="5" fill="red" /> -->
</svg>