<svg width="4000" height="3000" xmlns="http://www.w3.org/2000/svg" viewBox="0 0 4000 3000">
      <path d="M 3400.00,1850.18 L 3148.62,1753.10 L 2951.86,1614.75 L 2823.62,1444.07 L 2777.78,1250.00 L 2823.67,1056.04 L 2952.00,885.44 L 3148.78,747.12 L 3400.00,650.00 L 3212.34,612.96 L 3011.11,600.00 L 2709.39,629.43 L 2444.01,711.78 L 2228.85,838.13 L 2077.78,999.56 M 1206.67,2400.00 L 1014.91,2380.52 L 848.38,2326.26 L 717.05,2243.53 L 630.93,2138.61 L 600.00,2017.81 L 636.34,1890.93 L 739.03,1780.02 L 898.59,1696.05 L 1105.56,1650.00 L 1199.85,1550.26 L 1334.24,1471.06 L 1500.03,1418.84 L 1688.55,1400.00 L 1926.32,1429.19 L 2122.80,1509.08 L 2259.74,1628.19 L 2318.89,1775.00 L 2441.61,1824.79 L 2537.51,1895.82 L 2599.93,1982.29 L 2622.22,2078.35 L 2596.45,2180.02 L 2524.68,2268.31 L 2415.24,2337.94 L 2276.46,2383.60 L 2116.67,2400.00 L 1206.67,2400.00" fill="none" stroke="black" stroke-width="2" stroke-linecap="round" stroke-linejoin="round"/>
    </svg>