<svg width="4000" height="3000" xmlns="http://www.w3.org/2000/svg" viewBox="0 0 4000 3000">
      <path d="M 970.93,1101.43 M 1039.08,1089.22 M 1975.87,994.44 L 1970.55,990.76 L 1964.76,987.17 L 1958.50,983.65 L 1951.79,980.22 L 1944.62,976.87 L 1937.01,973.61 L 1928.95,970.42 L 1920.45,967.32 L 1911.52,964.29 L 1896.24,959.37 L 1879.75,954.55 L 1861.61,949.70 L 1841.92,944.84 L 1820.76,940.02 L 1798.25,935.27 L 1774.48,930.63 L 1749.54,926.15 L 1723.55,921.85 L 1696.53,917.79 L 1668.70,914.03 L 1640.16,910.61 L 1611.03,907.58 L 1581.43,904.98 L 1551.46,902.88 L 1521.25,901.32 L 1490.90,900.34 L 1460.53,900.00 L 1451.15,900.03 L 1449.97,900.05 L 1439.42,900.00 L 1409.05,900.34 L 1378.70,901.32 L 1348.49,902.88 L 1318.53,904.98 L 1288.92,907.58 L 1259.80,910.61 L 1231.26,914.03 L 1203.43,917.79 L 1176.41,921.85 L 1150.43,926.14 L 1125.50,930.63 L 1101.73,935.26 L 1079.23,940.01 L 1058.08,944.83 L 1038.39,949.69 L 1020.25,954.55 L 1003.77,959.37 L 989.05,964.11 L 979.57,967.32 L 971.06,970.42 L 962.99,973.61 L 955.38,976.88 L 948.21,980.23 L 941.50,983.66 L 935.24,987.17 L 929.45,990.76 L 924.13,994.44 L 919.26,998.22 L 914.90,1002.09 L 911.05,1006.05 L 907.75,1010.08 L 905.01,1014.17 L 902.84,1018.33 L 901.27,1022.53 L 900.32,1026.77 L 900.00,1031.03 L 900.39,1035.79 L 901.60,1040.48 L 903.59,1045.11 L 906.35,1049.65 L 909.84,1054.08 L 914.03,1058.40 L 918.90,1062.58 L 924.42,1066.62 L 930.56,1070.49 L 970.87,1101.38 L 976.01,1104.93 L 981.61,1107.99 L 987.74,1110.66 L 994.32,1112.93 L 1001.29,1114.80 L 1008.56,1116.27 L 1016.06,1117.32 L 1023.73,1117.96 L 1031.48,1118.17 L 1034.29,1118.14 L 1037.10,1118.05 L 1039.91,1117.91 L 1042.72,1117.71 L 1045.53,1117.46 L 1048.32,1117.15 L 1051.10,1116.78 L 1053.86,1116.36 L 1056.61,1115.88 L 1056.71,1116.88 L 1056.76,1115.87 L 1077.84,1112.17 L 1077.29,1113.03 L 1076.59,1114.10 L 1016.92,1181.43 L 1009.86,1189.94 L 1003.61,1198.59 L 998.17,1207.39 L 993.54,1216.31 L 989.74,1225.33 L 986.77,1234.45 L 984.65,1243.63 L 983.37,1252.87 L 982.94,1262.16 L 982.94,1279.85 L 983.24,1284.66 L 984.15,1289.37 L 985.64,1293.99 L 987.68,1298.50 L 990.26,1302.90 L 993.36,1307.16 L 996.97,1311.28 L 1001.05,1315.26 L 1005.59,1319.07 L 1010.57,1322.72 L 1015.98,1326.18 L 1021.78,1329.45 L 1027.97,1332.52 L 1034.52,1335.38 L 1041.41,1338.02 L 1048.62,1340.42 L 1056.13,1342.58 L 1063.93,1344.48 L 1071.99,1346.13 L 1080.30,1347.49 L 1088.82,1348.57 L 1097.55,1349.36 L 1106.47,1349.84 L 1115.55,1350.00 L 1784.45,1350.00 L 1793.54,1349.84 L 1802.45,1349.36 L 1811.19,1348.57 L 1819.72,1347.49 L 1828.02,1346.12 L 1836.08,1344.48 L 1843.88,1342.58 L 1851.40,1340.42 L 1858.61,1338.02 L 1865.50,1335.38 L 1872.04,1332.52 L 1878.23,1329.45 L 1884.03,1326.18 L 1889.44,1322.71 L 1894.42,1319.07 L 1898.96,1315.25 L 1903.04,1311.28 L 1906.64,1307.15 L 1909.74,1302.89 L 1912.33,1298.50 L 1914.37,1293.99 L 1915.85,1289.37 L 1916.76,1284.65 L 1917.07,1279.85 L 1917.07,1262.16 L 1916.64,1252.87 L 1915.36,1243.63 L 1913.23,1234.45 L 1910.26,1225.33 L 1906.46,1216.31 L 1901.84,1207.39 L 1896.39,1198.59 L 1890.14,1189.94 L 1883.08,1181.43 L 1823.41,1114.10 L 1822.85,1113.24 L 1822.30,1112.38 L 1842.78,1115.79 L 1845.60,1116.29 L 1848.44,1116.73 L 1851.29,1117.11 L 1854.15,1117.43 L 1857.02,1117.70 L 1859.89,1117.90 L 1862.76,1118.04 L 1865.64,1118.13 L 1868.50,1118.16 L 1876.27,1117.95 L 1883.94,1117.31 L 1891.45,1116.26 L 1898.72,1114.79 L 1905.68,1112.92 L 1912.25,1110.64 L 1918.38,1107.98 L 1923.97,1104.92 L 1928.97,1101.48 L 1969.51,1070.46 L 1975.64,1066.59 L 1981.15,1062.56 L 1986.01,1058.37 L 1990.20,1054.05 L 1993.68,1049.62 L 1996.43,1045.08 L 1998.42,1040.46 L 1999.62,1035.77 L 2000.00,1031.02 L 1999.69,1026.76 L 1998.74,1022.52 L 1997.17,1018.32 L 1995.00,1014.17 L 1992.26,1010.07 L 1988.95,1006.04 L 1985.10,1002.09 L 1980.74,998.22 L 1975.87,994.44 M 1868.50,1089.92 L 1866.81,1089.89 L 1865.12,1089.79 L 1863.42,1089.62 L 1861.73,1089.37 L 1735.33,1069.14 L 1733.78,1068.91 L 1732.29,1068.62 L 1730.86,1068.28 L 1729.51,1067.89 L 1728.22,1067.46 L 1727.02,1066.98 L 1725.89,1066.47 L 1724.84,1065.92 L 1723.88,1065.33 L 1723.01,1064.72 L 1721.57,1063.44 L 1720.53,1062.09 L 1719.90,1060.68 L 1719.69,1059.21 L 1719.85,1038.55 L 1719.84,1035.45 L 1719.61,1031.84 L 1718.95,1029.02 L 1717.87,1026.26 L 1716.39,1023.58 L 1714.54,1020.98 L 1712.33,1018.47 L 1709.79,1016.07 L 1706.92,1013.78 L 1703.76,1011.62 L 1700.64,1009.77 L 1697.29,1008.02 L 1693.72,1006.39 L 1689.95,1004.88 L 1685.98,1003.49 L 1681.83,1002.23 L 1677.52,1001.09 L 1673.04,1000.09 L 1668.42,999.22 L 1667.38,998.98 L 1665.18,998.54 L 1663.30,998.23 L 1658.08,997.44 L 1583.78,988.83 L 1564.07,987.03 L 1543.37,985.37 L 1522.01,983.93 L 1500.35,982.79 L 1478.73,982.04 L 1457.47,981.76 L 1454.97,981.76 L 1453.31,981.77 L 1450.83,981.80 L 1449.17,981.80 L 1446.69,981.77 L 1445.03,981.76 L 1442.55,981.76 L 1427.02,981.91 L 1411.25,982.33 L 1395.37,982.98 L 1379.52,983.83 L 1363.82,984.85 L 1348.40,986.00 L 1239.29,997.83 L 1236.19,998.31 L 1235.13,998.50 L 1233.66,998.77 L 1232.53,999.00 L 1227.05,1000.06 L 1222.55,1001.07 L 1218.22,1002.21 L 1214.05,1003.47 L 1210.07,1004.87 L 1206.29,1006.38 L 1202.71,1008.02 L 1199.35,1009.77 L 1196.22,1011.63 L 1193.06,1013.79 L 1190.20,1016.08 L 1187.66,1018.48 L 1185.46,1020.99 L 1183.61,1023.58 L 1182.14,1026.26 L 1181.06,1029.02 L 1180.40,1031.84 L 1180.17,1034.71 L 1180.16,1036.72 L 1180.32,1059.20 L 1180.10,1060.66 L 1179.47,1062.08 L 1178.42,1063.44 L 1176.98,1064.73 L 1176.12,1065.35 L 1175.15,1065.93 L 1174.10,1066.48 L 1172.97,1067.00 L 1171.76,1067.47 L 1170.48,1067.91 L 1169.12,1068.29 L 1167.70,1068.63 L 1166.21,1068.92 L 1164.67,1069.15 L 1039.24,1089.20 L 1038.23,1089.37 L 1036.53,1089.62 L 1034.84,1089.79 L 1033.16,1089.90 L 1031.48,1089.93 L 1029.21,1089.87 L 1027.02,1089.68 L 1024.93,1089.39 L 1022.95,1088.99 L 1021.10,1088.50 L 1019.38,1087.91 L 1017.82,1087.24 L 1016.43,1086.49 L 1015.22,1085.66 L 973.58,1053.77 L 972.69,1053.09 L 971.79,1052.57 L 967.33,1049.84 L 963.85,1047.38 L 960.92,1044.97 L 958.52,1042.58 L 956.61,1040.23 L 955.17,1037.91 L 954.18,1035.60 L 953.59,1033.31 L 953.38,1031.03 L 953.53,1029.01 L 954.00,1026.94 L 954.78,1024.82 L 955.91,1022.65 L 957.41,1020.42 L 959.28,1018.15 L 961.56,1015.82 L 964.26,1013.43 L 967.40,1010.98 L 970.98,1008.49 L 975.03,1005.98 L 979.56,1003.44 L 984.57,1000.89 L 990.06,998.33 L 996.03,995.77 L 1002.50,993.22 L 1009.46,990.69 L 1016.95,988.17 L 1030.08,983.92 L 1044.70,979.64 L 1061.21,975.22 L 1079.46,970.72 L 1099.30,966.18 L 1120.59,961.68 L 1143.17,957.26 L 1166.92,952.99 L 1191.67,948.91 L 1217.34,945.05 L 1243.79,941.47 L 1270.87,938.23 L 1298.46,935.36 L 1326.43,932.91 L 1354.64,930.93 L 1382.96,929.46 L 1411.26,928.55 L 1439.42,928.24 L 1460.53,928.24 L 1488.68,928.55 L 1516.99,929.46 L 1545.32,930.93 L 1573.53,932.91 L 1601.50,935.36 L 1629.10,938.23 L 1656.19,941.48 L 1682.64,945.05 L 1708.31,948.91 L 1733.07,952.99 L 1756.82,957.27 L 1779.41,961.69 L 1800.71,966.19 L 1820.55,970.72 L 1838.80,975.22 L 1855.31,979.64 L 1869.94,983.92 L 1882.54,988.00 L 1890.54,990.68 L 1897.50,993.22 L 1903.97,995.77 L 1909.94,998.33 L 1915.43,1000.89 L 1920.44,1003.44 L 1924.97,1005.98 L 1929.03,1008.49 L 1932.62,1010.98 L 1935.75,1013.43 L 1938.45,1015.81 L 1940.73,1018.15 L 1942.61,1020.42 L 1944.10,1022.65 L 1945.23,1024.81 L 1946.01,1026.93 L 1946.47,1029.00 L 1946.62,1031.02 L 1946.41,1033.31 L 1945.83,1035.60 L 1944.83,1037.91 L 1943.39,1040.23 L 1941.49,1042.58 L 1939.09,1044.97 L 1936.17,1047.38 L 1932.69,1049.84 L 1928.62,1052.35 L 1927.70,1052.87 L 1926.77,1053.51 L 1884.77,1085.66 L 1883.62,1086.44 L 1882.22,1087.21 L 1880.65,1087.89 L 1878.93,1088.48 L 1877.07,1088.98 L 1875.08,1089.38 L 1872.98,1089.68 L 1870.78,1089.86 L 1868.50,1089.92 M 1036.31,1262.16 L 1036.68,1254.25 L 1037.77,1246.38 L 1039.58,1238.56 L 1042.11,1230.80 L 1045.34,1223.11 L 1049.28,1215.52 L 1053.92,1208.03 L 1059.24,1200.66 L 1065.26,1193.41 L 1126.15,1124.71 L 1141.00,1101.83 L 1177.37,1096.57 L 1182.70,1095.77 L 1187.84,1094.78 L 1192.80,1093.60 L 1197.54,1092.24 L 1202.07,1090.71 L 1206.35,1089.02 L 1210.38,1087.18 L 1214.15,1085.20 L 1217.63,1083.08 L 1220.76,1080.88 L 1223.58,1078.55 L 1226.09,1076.11 L 1228.26,1073.58 L 1230.09,1070.94 L 1231.56,1068.23 L 1232.64,1065.44 L 1233.33,1062.59 L 1233.62,1059.69 L 1233.63,1054.93 L 1233.53,1037.45 L 1233.54,1035.43 L 1233.59,1034.18 L 1233.93,1033.07 L 1234.65,1031.94 L 1235.77,1030.79 L 1237.32,1029.65 L 1238.25,1029.10 L 1239.28,1028.57 L 1240.41,1028.06 L 1241.65,1027.58 L 1242.98,1027.13 L 1244.42,1026.72 L 1245.94,1026.35 L 1247.56,1026.03 L 1249.27,1025.76 L 1269.24,1023.03 L 1395.81,1011.32 L 1407.84,1010.76 L 1419.70,1010.34 L 1431.30,1010.08 L 1444.08,1009.99 L 1445.60,1010.00 L 1447.12,1010.01 L 1448.62,1010.02 L 1449.87,1010.03 L 1452.84,1010.01 L 1454.38,1010.00 L 1455.92,1009.99 L 1457.47,1009.99 L 1471.15,1010.12 L 1485.33,1010.50 L 1499.83,1011.10 L 1514.50,1011.89 L 1630.72,1022.90 L 1650.69,1025.75 L 1652.40,1026.02 L 1654.02,1026.35 L 1655.56,1026.71 L 1656.99,1027.13 L 1658.34,1027.58 L 1659.58,1028.06 L 1660.72,1028.57 L 1661.76,1029.11 L 1662.70,1029.66 L 1664.24,1030.80 L 1665.35,1031.94 L 1666.06,1033.07 L 1666.41,1034.18 L 1666.45,1035.53 L 1666.46,1040.11 L 1666.31,1058.96 L 1666.52,1062.17 L 1667.17,1065.09 L 1668.24,1067.93 L 1669.70,1070.70 L 1671.54,1073.39 L 1673.75,1075.98 L 1676.30,1078.47 L 1679.18,1080.84 L 1682.37,1083.08 L 1685.85,1085.20 L 1689.61,1087.18 L 1693.64,1089.02 L 1697.93,1090.71 L 1702.45,1092.23 L 1707.20,1093.59 L 1712.15,1094.77 L 1717.30,1095.76 L 1722.63,1096.56 L 1758.97,1101.83 L 1773.85,1124.70 L 1834.74,1193.41 L 1840.76,1200.66 L 1846.08,1208.03 L 1850.72,1215.52 L 1854.66,1223.11 L 1857.89,1230.80 L 1860.42,1238.56 L 1862.23,1246.38 L 1863.32,1254.25 L 1863.69,1262.16 L 1863.69,1279.85 L 1863.36,1283.67 L 1862.41,1287.40 L 1860.86,1291.00 L 1858.74,1294.48 L 1856.07,1297.81 L 1852.89,1300.99 L 1849.21,1304.01 L 1845.07,1306.84 L 1840.49,1309.48 L 1835.49,1311.91 L 1830.13,1314.10 L 1824.44,1316.05 L 1818.42,1317.73 L 1812.12,1319.14 L 1805.54,1320.26 L 1798.73,1321.08 L 1791.69,1321.59 L 1784.45,1321.76 L 1115.55,1321.76 L 1108.32,1321.59 L 1101.28,1321.08 L 1094.47,1320.26 L 1087.90,1319.14 L 1081.59,1317.73 L 1075.58,1316.05 L 1069.89,1314.10 L 1064.53,1311.91 L 1059.53,1309.48 L 1054.95,1306.84 L 1050.80,1304.00 L 1047.12,1300.99 L 1043.94,1297.81 L 1041.27,1294.48 L 1039.15,1291.00 L 1037.60,1287.40 L 1036.64,1283.67 L 1036.32,1279.85 L 1036.32,1262.16 M 1056.65,1115.90 M 1282.97,1225.82 L 1366.49,1225.82 L 1366.49,1270.01 L 1282.97,1270.01 L 1282.97,1225.82 M 1282.97,1165.36 L 1366.49,1165.36 L 1366.49,1209.55 L 1282.97,1209.55 L 1282.97,1165.36 M 1282.97,1104.90 L 1366.49,1104.90 L 1366.49,1149.08 L 1282.97,1149.08 L 1282.97,1104.90 M 1408.25,1225.82 L 1491.77,1225.82 L 1491.77,1270.01 L 1408.25,1270.01 L 1408.25,1225.82 M 1408.25,1165.36 L 1491.77,1165.36 L 1491.77,1209.55 L 1408.25,1209.55 L 1408.25,1165.36 M 1408.25,1104.90 L 1491.77,1104.90 L 1491.77,1149.08 L 1408.25,1149.08 L 1408.25,1104.90 M 1533.55,1225.82 L 1617.06,1225.82 L 1617.06,1270.01 L 1533.55,1270.01 L 1533.55,1225.82 M 1533.55,1165.36 L 1617.06,1165.36 L 1617.06,1209.55 L 1533.55,1209.55 L 1533.55,1165.36 M 1533.55,1104.90 L 1617.06,1104.90 L 1617.06,1149.08 L 1533.55,1149.08 L 1533.55,1104.90" fill="none" stroke="black" stroke-width="2" stroke-linecap="round" stroke-linejoin="round"/>
    </svg>