<svg width="4000" height="3000" xmlns="http://www.w3.org/2000/svg" viewBox="0 0 4000 3000">
      <path d="M 1800.00,1134.73 L 1786.51,1134.29 L 1773.45,1133.80 L 1760.85,1133.26 L 1748.74,1132.67 L 1737.16,1132.03 L 1726.11,1131.35 L 1715.65,1130.62 L 1705.78,1129.85 L 1696.54,1129.04 L 1687.97,1128.19 L 1680.07,1127.30 L 1672.89,1126.39 L 1666.45,1125.43 L 1660.78,1124.45 L 1655.90,1123.45 L 1651.85,1122.41 L 1648.65,1121.35 L 1646.33,1120.27 L 1644.92,1119.17 L 1644.44,1118.06 L 1644.92,1116.94 L 1646.34,1115.84 L 1648.66,1114.76 L 1651.86,1113.70 L 1655.92,1112.67 L 1660.80,1111.66 L 1666.47,1110.68 L 1672.92,1109.73 L 1680.10,1108.81 L 1688.00,1107.93 L 1696.58,1107.08 L 1705.82,1106.27 L 1715.69,1105.50 L 1726.16,1104.77 L 1737.20,1104.09 L 1748.78,1103.45 L 1760.88,1102.86 L 1773.47,1102.31 L 1786.52,1101.82 L 1800.00,1101.39 L 1779.63,1100.85 L 1758.48,1100.44 L 1736.64,1100.16 L 1687.13,1100.03 L 1671.74,1100.13 L 1656.62,1100.30 L 1641.82,1100.53 L 1627.35,1100.82 L 1613.24,1101.17 L 1599.53,1101.57 L 1586.23,1102.03 L 1573.38,1102.54 L 1561.00,1103.11 L 1549.13,1103.72 L 1537.79,1104.38 L 1527.00,1105.08 L 1516.80,1105.83 L 1507.21,1106.61 L 1498.27,1107.44 L 1489.99,1108.31 L 1482.41,1109.20 L 1475.55,1110.14 L 1469.44,1111.10 M 1251.67,1150.00 L 1241.28,1149.98 L 1231.09,1149.90 L 1221.10,1149.78 L 1211.35,1149.62 L 1201.85,1149.41 L 1192.63,1149.17 L 1183.71,1148.88 L 1175.12,1148.55 L 1166.87,1148.19 L 1158.99,1147.79 L 1151.50,1147.36 L 1144.42,1146.89 L 1137.78,1146.40 L 1131.60,1145.87 L 1125.90,1145.32 L 1120.71,1144.74 L 1116.04,1144.14 L 1111.92,1143.52 L 1108.37,1142.87 L 1105.42,1142.21 L 1103.08,1141.52 L 1101.38,1140.82 L 1100.35,1140.11 L 1100.31,1138.72 L 1101.23,1138.07 L 1102.76,1137.42 L 1104.86,1136.79 L 1107.54,1136.17 L 1110.77,1135.56 L 1114.54,1134.96 L 1118.84,1134.39 L 1123.65,1133.83 L 1128.96,1133.29 L 1134.76,1132.78 L 1141.02,1132.29 L 1147.74,1131.83 L 1154.90,1131.39 L 1162.49,1130.99 L 1170.50,1130.62 L 1178.90,1130.28 L 1187.68,1129.98 L 1196.84,1129.72 L 1206.35,1129.49 L 1216.21,1129.31 L 1226.39,1129.17 L 1230.20,1128.58 L 1234.48,1128.00 L 1239.21,1127.45 L 1244.38,1126.91 L 1249.96,1126.40 L 1255.95,1125.90 L 1262.32,1125.44 L 1269.06,1125.00 L 1276.14,1124.58 L 1283.56,1124.20 L 1291.29,1123.84 L 1299.32,1123.52 L 1307.63,1123.22 L 1316.19,1122.97 L 1325.01,1122.75 L 1334.05,1122.56 L 1343.30,1122.41 L 1362.36,1122.24 L 1372.14,1122.22 L 1383.02,1122.25 L 1393.70,1122.32 L 1404.16,1122.45 L 1414.37,1122.62 L 1424.31,1122.84 L 1433.96,1123.10 L 1443.29,1123.41 L 1452.28,1123.75 L 1460.90,1124.13 L 1469.14,1124.56 L 1476.95,1125.01 L 1484.33,1125.50 L 1491.25,1126.02 L 1497.68,1126.58 L 1503.60,1127.16 L 1508.99,1127.77 L 1513.82,1128.40 L 1518.06,1129.06 L 1521.70,1129.74 L 1524.71,1130.43 L 1527.07,1131.15 L 1528.75,1131.89 L 1529.72,1132.64 L 1536.31,1132.86 L 1542.69,1133.11 L 1548.84,1133.39 L 1554.75,1133.69 L 1560.40,1134.02 L 1565.79,1134.37 L 1570.89,1134.75 L 1575.70,1135.15 L 1580.20,1135.56 L 1584.38,1136.00 L 1588.22,1136.45 L 1591.72,1136.91 L 1594.85,1137.40 L 1597.61,1137.89 L 1599.98,1138.40 L 1601.95,1138.91 L 1603.51,1139.44 L 1604.64,1139.98 L 1605.56,1141.07 L 1604.40,1142.28 L 1602.99,1142.87 L 1601.04,1143.44 L 1598.58,1144.00 L 1595.62,1144.54 L 1592.19,1145.07 L 1588.30,1145.57 L 1583.97,1146.06 L 1579.22,1146.52 L 1574.07,1146.97 L 1568.54,1147.38 L 1562.64,1147.77 L 1556.40,1148.14 L 1549.83,1148.47 L 1542.96,1148.78 L 1535.79,1149.06 L 1528.36,1149.30 L 1520.68,1149.51 L 1512.77,1149.68 L 1504.64,1149.82 L 1496.32,1149.92 L 1487.82,1149.98 L 1251.67,1150.00" fill="none" stroke="black" stroke-width="2" stroke-linecap="round" stroke-linejoin="round"/>
    </svg>