<svg width="4000" height="3000" xmlns="http://www.w3.org/2000/svg" viewBox="0 0 4000 3000">
      <path d="M 2300.00,1329.27 L 2267.23,1320.12 L 2235.51,1309.84 L 2204.92,1298.48 L 2175.52,1286.06 L 2147.38,1272.64 L 2120.56,1258.26 L 2095.14,1242.96 L 2071.18,1226.78 L 2048.75,1209.76 L 2027.92,1191.94 L 2008.75,1173.37 L 1991.31,1154.09 L 1975.67,1134.13 L 1961.89,1113.55 L 1950.05,1092.38 L 1940.21,1070.66 L 1932.44,1048.44 L 1926.81,1025.75 L 1923.38,1002.65 L 1922.22,979.17 L 1923.38,955.70 L 1926.82,932.61 L 1932.46,909.94 L 1940.24,887.73 L 1950.08,866.02 L 1961.94,844.86 L 1975.72,824.29 L 1991.37,804.34 L 2008.82,785.07 L 2028.00,766.51 L 2048.84,748.70 L 2071.28,731.68 L 2095.24,715.50 L 2120.66,700.20 L 2147.47,685.82 L 2175.61,672.40 L 2204.99,659.98 L 2235.57,648.61 L 2267.26,638.32 L 2300.00,629.17 L 2275.51,623.24 L 2250.53,617.94 L 2225.07,613.28 L 2199.17,609.30 L 2172.85,606.00 L 2146.14,603.40 L 2119.05,601.52 L 2091.63,600.38 L 2063.89,600.00 L 2025.89,600.71 L 1988.50,602.83 L 1951.80,606.31 L 1915.84,611.10 L 1880.70,617.17 L 1846.44,624.47 L 1813.13,632.97 L 1780.84,642.62 L 1749.63,653.38 L 1719.58,665.21 L 1690.74,678.06 L 1663.19,691.90 L 1637.00,706.68 L 1612.23,722.37 L 1588.94,738.91 L 1567.22,756.27 L 1547.11,774.41 L 1528.70,793.29 L 1512.05,812.86 L 1497.22,833.08 M 968.33,1650.00 L 943.11,1649.49 L 918.35,1647.96 L 894.10,1645.47 L 870.42,1642.04 L 847.35,1637.70 L 824.96,1632.48 L 803.30,1626.42 L 782.43,1619.56 L 762.39,1611.92 L 743.26,1603.55 L 725.07,1594.46 L 707.88,1584.70 L 691.76,1574.30 L 676.75,1563.29 L 662.91,1551.71 L 650.29,1539.58 L 638.95,1526.95 L 628.95,1513.84 L 620.33,1500.28 L 613.16,1486.32 L 607.48,1471.99 L 603.36,1457.31 L 600.85,1442.32 L 600.00,1427.06 L 600.76,1413.19 L 603.00,1399.47 L 606.69,1385.91 L 611.81,1372.57 L 618.30,1359.48 L 626.15,1346.68 L 635.31,1334.20 L 645.75,1322.09 L 657.44,1310.39 L 670.34,1299.13 L 684.41,1288.34 L 699.62,1278.08 L 715.95,1268.38 L 733.34,1259.27 L 751.77,1250.80 L 771.21,1243.00 L 791.61,1235.91 L 812.95,1229.57 L 835.18,1224.03 L 858.29,1219.31 L 882.22,1215.45 L 906.94,1212.50 L 916.20,1200.08 L 926.59,1188.03 L 938.08,1176.36 L 950.63,1165.12 L 964.20,1154.32 L 978.74,1144.00 L 994.21,1134.19 L 1010.57,1124.92 L 1027.78,1116.22 L 1045.79,1108.12 L 1064.56,1100.65 L 1084.06,1093.84 L 1104.23,1087.71 L 1125.04,1082.31 L 1146.45,1077.65 L 1168.40,1073.78 L 1190.87,1070.71 L 1213.80,1068.48 L 1237.16,1067.13 L 1260.90,1066.67 L 1287.33,1067.21 L 1313.27,1068.81 L 1338.67,1071.45 L 1363.47,1075.07 L 1387.62,1079.65 L 1411.05,1085.15 L 1433.71,1091.54 L 1455.54,1098.78 L 1476.48,1106.83 L 1496.47,1115.66 L 1515.46,1125.24 L 1533.38,1135.53 L 1550.18,1146.49 L 1565.80,1158.09 L 1580.18,1170.29 L 1593.26,1183.07 L 1604.99,1196.37 L 1615.30,1210.17 L 1624.14,1224.44 L 1631.45,1239.13 L 1637.17,1254.21 L 1641.24,1269.65 L 1643.61,1285.42 L 1659.62,1290.07 L 1675.11,1295.33 L 1690.04,1301.16 L 1704.39,1307.55 L 1718.12,1314.46 L 1731.20,1321.86 L 1743.59,1329.74 L 1755.27,1338.05 L 1766.20,1346.78 L 1776.35,1355.90 L 1785.68,1365.37 L 1794.17,1375.18 L 1801.78,1385.30 L 1808.49,1395.69 L 1814.25,1406.33 L 1819.03,1417.20 L 1822.81,1428.27 L 1825.55,1439.50 L 1827.21,1450.88 L 1827.78,1462.37 L 1827.07,1475.22 L 1824.98,1487.83 L 1821.54,1500.18 L 1816.81,1512.25 L 1810.84,1524.00 L 1803.66,1535.40 L 1795.32,1546.44 L 1785.87,1557.07 L 1775.36,1567.28 L 1763.82,1577.02 L 1751.31,1586.29 L 1737.87,1595.04 L 1723.55,1603.26 L 1708.40,1610.90 L 1692.45,1617.96 L 1675.75,1624.38 L 1658.36,1630.16 L 1640.31,1635.25 L 1621.65,1639.64 L 1602.43,1643.30 L 1582.69,1646.19 L 1562.48,1648.29 L 1541.85,1649.57 L 1520.83,1650.00 L 968.33,1650.00" fill="none" stroke="black" stroke-width="2" stroke-linecap="round" stroke-linejoin="round"/>
    </svg>