<svg width="4000" height="3000" xmlns="http://www.w3.org/2000/svg" viewBox="0 0 4000 3000">
      <path d="M 1058.03,1111.90 M 1113.79,1105.12 M 1880.25,1052.47 L 1875.90,1050.42 L 1871.16,1048.43 L 1866.05,1046.47 L 1860.55,1044.57 L 1854.69,1042.71 L 1848.46,1040.89 L 1841.87,1039.12 L 1834.92,1037.40 L 1827.61,1035.72 L 1815.10,1032.98 L 1801.62,1030.31 L 1786.77,1027.61 L 1508.29,1000.73 L 1483.46,1000.19 L 1449.97,1000.03 L 1416.50,1000.19 L 1391.67,1000.73 L 1113.23,1027.61 L 1098.39,1030.30 L 1084.91,1032.98 L 1072.86,1035.62 L 1065.10,1037.40 L 1058.14,1039.12 L 1051.54,1040.89 L 1045.31,1042.71 L 1039.44,1044.57 L 1033.95,1046.48 L 1028.84,1048.43 L 1024.10,1050.42 L 1019.75,1052.47 L 1015.76,1054.57 L 1012.19,1056.72 L 1009.04,1058.91 L 1006.34,1061.15 L 1004.10,1063.43 L 1002.32,1065.74 L 1001.04,1068.07 L 1000.26,1070.43 L 1000.00,1072.80 L 1000.32,1075.44 L 1001.31,1078.05 L 1002.94,1080.62 L 1005.19,1083.14 L 1008.05,1085.60 L 1011.48,1088.00 L 1015.47,1090.32 L 1019.98,1092.57 L 1025.01,1094.72 L 1057.99,1111.88 L 1062.19,1113.85 L 1066.78,1115.55 L 1071.79,1117.03 L 1077.17,1118.29 L 1082.87,1119.33 L 1088.82,1120.15 L 1094.96,1120.73 L 1101.23,1121.09 L 1107.58,1121.20 L 1109.87,1121.19 L 1112.17,1121.14 L 1114.47,1121.06 L 1116.77,1120.95 L 1119.07,1120.81 L 1121.35,1120.64 L 1125.89,1120.20 L 1128.13,1119.93 L 1145.51,1117.87 L 1144.71,1118.71 L 1095.67,1156.35 L 1089.89,1161.08 L 1084.77,1165.89 L 1080.32,1170.77 L 1076.53,1175.73 L 1073.43,1180.74 L 1071.00,1185.80 L 1069.26,1190.91 L 1068.21,1196.04 L 1067.86,1201.20 L 1067.86,1211.03 L 1068.11,1213.70 L 1068.85,1216.32 L 1070.07,1218.88 L 1071.74,1221.39 L 1073.85,1223.83 L 1076.39,1226.20 L 1079.34,1228.49 L 1082.68,1230.70 L 1086.39,1232.82 L 1090.47,1234.84 L 1094.89,1236.77 L 1099.64,1238.59 L 1104.70,1240.29 L 1110.06,1241.88 L 1115.70,1243.34 L 1121.60,1244.68 L 1127.75,1245.88 L 1134.13,1246.94 L 1140.72,1247.85 L 1147.52,1248.61 L 1154.49,1249.21 L 1161.64,1249.64 L 1168.93,1249.91 L 1731.08,1249.91 L 1738.37,1249.64 L 1745.52,1249.21 L 1752.50,1248.61 L 1759.29,1247.85 L 1765.89,1246.94 L 1772.27,1245.88 L 1778.41,1244.68 L 1784.32,1243.34 L 1789.95,1241.88 L 1795.31,1240.29 L 1800.37,1238.58 L 1805.12,1236.77 L 1809.54,1234.84 L 1813.62,1232.82 L 1817.33,1230.70 L 1820.67,1228.49 L 1823.62,1226.20 L 1826.15,1223.83 L 1828.27,1221.39 L 1829.94,1218.88 L 1831.15,1216.32 L 1831.89,1213.70 L 1832.14,1211.03 L 1832.14,1201.20 L 1831.79,1196.04 L 1830.75,1190.91 L 1829.00,1185.80 L 1826.58,1180.74 L 1823.47,1175.73 L 1819.69,1170.77 L 1815.23,1165.89 L 1810.11,1161.08 L 1804.34,1156.35 L 1755.52,1118.95 L 1754.61,1117.99 L 1773.67,1120.16 L 1775.99,1120.41 L 1780.67,1120.80 L 1783.01,1120.94 L 1792.41,1121.20 L 1798.76,1121.08 L 1805.04,1120.73 L 1811.19,1120.14 L 1817.13,1119.33 L 1822.83,1118.29 L 1828.21,1117.02 L 1833.22,1115.54 L 1837.80,1113.85 L 1841.88,1111.94 L 1875.05,1094.70 L 1880.07,1092.55 L 1884.57,1090.31 L 1888.55,1087.98 L 1891.98,1085.59 L 1894.83,1083.12 L 1897.08,1080.60 L 1898.70,1078.03 L 1899.69,1075.43 L 1900.00,1072.79 L 1899.74,1070.42 L 1898.97,1068.07 L 1897.68,1065.73 L 1895.91,1063.43 L 1893.66,1061.15 L 1890.96,1058.91 L 1887.81,1056.71 L 1884.24,1054.56 L 1880.25,1052.47 M 1792.41,1105.51 L 1790.34,1105.47 L 1788.25,1105.34 L 1786.87,1105.21 L 1682.18,1093.84 L 1680.96,1093.68 L 1679.80,1093.49 L 1678.69,1093.27 L 1677.64,1093.03 L 1676.65,1092.77 L 1674.87,1092.18 L 1673.37,1091.51 L 1672.20,1090.80 L 1671.35,1090.05 L 1670.70,1088.86 L 1670.78,1075.68 L 1670.59,1073.25 L 1670.05,1071.68 L 1669.16,1070.15 L 1667.96,1068.66 L 1666.44,1067.21 L 1664.64,1065.82 L 1662.55,1064.48 L 1660.21,1063.21 L 1657.62,1062.01 L 1655.07,1060.98 L 1652.33,1060.01 L 1649.41,1059.11 L 1646.32,1058.27 L 1643.08,1057.50 L 1639.68,1056.79 L 1636.15,1056.16 L 1632.49,1055.61 L 1628.70,1055.12 L 1627.65,1054.96 L 1625.25,1054.65 L 1491.20,1045.99 L 1473.50,1045.58 L 1454.07,1045.42 L 1452.03,1045.43 L 1450.68,1045.44 L 1449.32,1045.44 L 1447.97,1045.43 L 1446.61,1045.43 L 1277.15,1054.40 L 1275.46,1054.57 L 1272.52,1054.93 L 1271.53,1055.08 L 1267.58,1055.59 L 1263.91,1056.15 L 1260.36,1056.78 L 1256.95,1057.48 L 1253.70,1058.26 L 1250.60,1059.10 L 1247.67,1060.01 L 1244.92,1060.98 L 1242.36,1062.02 L 1239.78,1063.22 L 1237.44,1064.49 L 1235.36,1065.82 L 1233.56,1067.21 L 1232.04,1068.66 L 1230.84,1070.15 L 1229.96,1071.68 L 1229.42,1073.24 L 1229.23,1074.84 L 1229.22,1076.72 L 1229.27,1085.04 L 1229.36,1088.44 L 1228.96,1089.65 L 1228.27,1090.43 L 1227.25,1091.16 L 1225.91,1091.86 L 1224.27,1092.49 L 1222.35,1093.04 L 1221.30,1093.28 L 1220.19,1093.50 L 1219.03,1093.68 L 1217.81,1093.84 L 1113.93,1105.11 L 1112.40,1105.28 L 1111.02,1105.40 L 1108.95,1105.50 L 1107.57,1105.52 L 1105.71,1105.48 L 1103.92,1105.38 L 1102.21,1105.22 L 1100.59,1105.00 L 1099.08,1104.72 L 1097.68,1104.40 L 1096.40,1104.02 L 1095.26,1103.60 L 1094.27,1103.14 L 1060.20,1085.43 L 1059.27,1084.96 L 1055.09,1083.25 L 1052.24,1081.88 L 1049.84,1080.54 L 1047.88,1079.21 L 1046.32,1077.91 L 1045.14,1076.62 L 1044.33,1075.33 L 1043.84,1074.06 L 1043.67,1072.80 L 1043.80,1071.67 L 1044.18,1070.52 L 1044.82,1069.34 L 1045.75,1068.14 L 1046.97,1066.90 L 1048.51,1065.64 L 1050.37,1064.34 L 1052.58,1063.01 L 1055.14,1061.65 L 1058.07,1060.27 L 1061.39,1058.88 L 1065.10,1057.47 L 1069.19,1056.05 L 1073.68,1054.63 L 1078.57,1053.21 L 1083.86,1051.79 L 1089.56,1050.38 L 1095.66,1048.99 L 1106.43,1046.62 L 1118.39,1044.24 L 1131.90,1041.79 L 1395.15,1016.37 L 1418.31,1015.86 L 1481.65,1015.86 L 1504.81,1016.37 L 1527.99,1017.18 L 1768.11,1041.79 L 1781.62,1044.25 L 1793.59,1046.62 L 1803.90,1048.89 L 1810.44,1050.38 L 1816.14,1051.79 L 1821.43,1053.21 L 1826.32,1054.63 L 1830.81,1056.05 L 1834.91,1057.47 L 1838.61,1058.88 L 1841.93,1060.27 L 1844.87,1061.65 L 1847.44,1063.01 L 1849.64,1064.34 L 1851.51,1065.64 L 1853.04,1066.90 L 1854.26,1068.14 L 1855.19,1069.34 L 1855.83,1070.52 L 1856.20,1071.67 L 1856.33,1072.79 L 1856.16,1074.06 L 1855.68,1075.33 L 1854.86,1076.62 L 1853.69,1077.91 L 1852.13,1079.21 L 1850.17,1080.54 L 1847.77,1081.88 L 1844.92,1083.25 L 1841.60,1084.64 L 1840.63,1085.01 L 1805.72,1103.14 L 1804.78,1103.58 L 1803.64,1104.00 L 1802.35,1104.38 L 1800.94,1104.71 L 1799.42,1104.99 L 1797.79,1105.21 L 1796.07,1105.38 L 1794.28,1105.48 L 1792.41,1105.51 M 1111.53,1201.20 L 1111.83,1196.81 L 1112.72,1192.43 L 1114.20,1188.09 L 1116.27,1183.78 L 1118.91,1179.51 L 1122.14,1175.29 L 1125.93,1171.13 L 1130.29,1167.03 L 1135.21,1163.01 L 1185.03,1124.84 L 1197.18,1112.13 L 1231.30,1108.76 L 1235.51,1108.21 L 1239.56,1107.55 L 1243.45,1106.80 L 1247.15,1105.95 L 1250.65,1105.01 L 1253.95,1103.99 L 1257.03,1102.89 L 1259.88,1101.71 L 1262.44,1100.49 L 1264.75,1099.20 L 1266.80,1097.84 L 1268.58,1096.43 L 1270.07,1094.97 L 1271.27,1093.46 L 1272.16,1091.91 L 1272.73,1090.33 L 1272.96,1088.72 L 1272.90,1081.59 L 1272.89,1075.99 L 1272.90,1074.85 L 1273.47,1073.61 L 1274.72,1072.66 L 1275.99,1072.03 L 1277.59,1071.43 L 1279.53,1070.88 L 1280.62,1070.63 L 1281.80,1070.40 L 1283.04,1070.20 L 1284.37,1070.02 L 1285.77,1069.87 L 1302.10,1068.35 L 1447.02,1061.11 L 1448.87,1061.12 L 1451.08,1061.13 L 1452.33,1061.12 L 1597.86,1068.28 L 1614.20,1069.86 L 1615.60,1070.01 L 1616.93,1070.19 L 1618.18,1070.40 L 1619.36,1070.63 L 1620.46,1070.88 L 1621.47,1071.14 L 1623.26,1071.73 L 1624.70,1072.35 L 1625.78,1072.98 L 1626.78,1073.93 L 1627.10,1075.29 L 1627.11,1076.57 L 1626.98,1088.31 L 1627.16,1090.10 L 1627.69,1091.71 L 1628.56,1093.30 L 1629.76,1094.84 L 1631.26,1096.33 L 1633.07,1097.77 L 1635.16,1099.15 L 1637.51,1100.47 L 1640.12,1101.71 L 1642.97,1102.89 L 1646.05,1103.99 L 1649.35,1105.01 L 1652.85,1105.95 L 1656.55,1106.80 L 1660.44,1107.55 L 1664.49,1108.21 L 1668.70,1108.76 L 1702.80,1112.13 L 1714.97,1124.83 L 1764.79,1163.01 L 1769.71,1167.03 L 1774.07,1171.13 L 1777.86,1175.29 L 1781.09,1179.51 L 1783.73,1183.78 L 1785.80,1188.09 L 1787.28,1192.43 L 1788.17,1196.81 L 1788.47,1201.20 L 1788.47,1211.03 L 1788.20,1213.15 L 1787.42,1215.22 L 1786.16,1217.22 L 1784.42,1219.15 L 1782.24,1221.01 L 1779.63,1222.77 L 1776.63,1224.45 L 1773.24,1226.02 L 1769.49,1227.49 L 1765.40,1228.84 L 1761.02,1230.06 L 1756.36,1231.14 L 1751.44,1232.07 L 1746.28,1232.86 L 1740.90,1233.48 L 1735.32,1233.94 L 1729.56,1234.22 L 1723.64,1234.31 L 1176.36,1234.31 L 1170.44,1234.22 L 1164.69,1233.94 L 1159.11,1233.48 L 1153.74,1232.86 L 1148.58,1232.07 L 1143.66,1231.14 L 1139.00,1230.06 L 1134.61,1228.84 L 1130.52,1227.49 L 1126.77,1226.02 L 1123.38,1224.45 L 1120.37,1222.77 L 1117.77,1221.01 L 1115.58,1219.15 L 1113.85,1217.22 L 1112.58,1215.22 L 1111.80,1213.15 L 1111.53,1211.03 L 1111.53,1201.20 M 1128.16,1119.94 M 1313.34,1181.01 L 1381.68,1181.01 L 1381.68,1205.56 L 1313.34,1205.56 L 1313.34,1181.01 M 1313.34,1147.42 L 1381.68,1147.42 L 1381.68,1171.97 L 1313.34,1171.97 L 1313.34,1147.42 M 1313.34,1113.83 L 1381.68,1113.83 L 1381.68,1138.38 L 1313.34,1138.38 L 1313.34,1113.83 M 1415.84,1181.01 L 1484.18,1181.01 L 1484.18,1205.56 L 1415.84,1205.56 L 1415.84,1181.01 M 1415.84,1147.42 L 1484.18,1147.42 L 1484.18,1171.97 L 1415.84,1171.97 L 1415.84,1147.42 M 1415.84,1113.83 L 1484.18,1113.83 L 1484.18,1138.38 L 1415.84,1138.38 L 1415.84,1113.83 M 1518.36,1181.01 L 1586.68,1181.01 L 1586.68,1205.56 L 1518.36,1205.56 L 1518.36,1181.01 M 1518.36,1147.42 L 1586.68,1147.42 L 1586.68,1171.97 L 1518.36,1171.97 L 1518.36,1147.42 M 1518.36,1113.83 L 1586.68,1113.83 L 1586.68,1138.38 L 1518.36,1138.38 L 1518.36,1113.83" fill="none" stroke="black" stroke-width="2" stroke-linecap="round" stroke-linejoin="round"/>
    </svg>