<svg width="4000" height="3000" xmlns="http://www.w3.org/2000/svg" viewBox="0 0 4000 3000">
      <path d="M 1566.01,1472.85 L 1547.35,1529.50 L 1514.82,1569.33 L 1484.96,1621.82 L 1473.71,1674.36 L 1441.49,1719.14 L 1425.25,1774.49 L 1386.59,1814.36 L 1373.75,1876.12 L 1317.85,1886.39 L 1293.89,1822.07 L 1289.88,1755.03 L 1306.73,1693.62 L 1332.86,1645.62 L 1356.84,1589.23 L 1403.69,1557.50 L 1432.72,1515.34 L 1525.41,1486.24 M 1396.61,1783.19 L 1428.00,1742.69 L 1394.18,1681.65 L 1345.56,1728.87 L 1384.67,1767.29 L 1435.77,1712.28 L 1464.73,1665.61 L 1433.69,1612.48 L 1378.73,1651.96 L 1422.32,1696.97 L 1463.68,1633.77 L 1497.11,1595.49 L 1479.08,1537.34 L 1427.71,1585.51 L 1463.68,1633.77 M 1374.42,1835.95 L 1388.70,1784.14 L 1344.30,1740.82 L 1337.53,1805.90 M 1501.18,1571.34 L 1539.80,1526.99 L 1486.18,1530.59 M 1363.43,1664.91 L 1314.10,1684.67 L 1302.99,1737.89 L 1350.84,1698.13 L 1375.21,1645.81 L 1410.26,1595.43 L 1361.16,1605.54 L 1336.96,1649.99 L 1359.90,1600.77 L 1412.10,1587.54 L 1463.19,1542.00 L 1414.17,1555.60 L 1367.89,1586.46 M 1300.84,1828.24 L 1334.28,1772.35 L 1303.08,1815.05 L 1336.39,1860.00 M 1417.72,1537.36 L 1472.75,1532.25 L 1516.96,1498.70 L 1458.15,1511.31 M 1331.33,1814.00 L 1309.43,1865.80 L 1331.33,1814.00 L 1396.61,1783.19 L 1356.48,1743.59 L 1372.30,1663.01 L 1417.90,1700.42 L 1426.78,1755.55 L 1422.32,1696.97 L 1379.18,1656.42 L 1418.61,1595.65 L 1460.89,1640.17 L 1456.77,1697.31 L 1463.68,1633.77 L 1426.57,1589.49 L 1477.81,1537.74 L 1499.93,1586.88 L 1463.68,1633.77 M 1374.42,1835.95 L 1340.89,1754.04 L 1388.69,1784.14 L 1374.42,1835.95 M 1501.18,1571.34 L 1537.18,1492.77 L 1521.17,1555.74 M 1363.43,1664.91 L 1339.92,1728.25 L 1296.84,1754.44 L 1315.20,1696.69 L 1363.43,1664.91 L 1314.10,1678.31 L 1356.12,1635.69 L 1412.26,1592.39 L 1375.22,1645.81 L 1314.10,1678.31 L 1359.90,1600.77 L 1398.89,1567.98 L 1467.46,1537.95 L 1421.44,1582.54 L 1359.90,1600.77 M 1300.84,1828.24 L 1302.87,1777.51 L 1303.07,1828.71 L 1357.65,1829.84 L 1361.07,1884.40 L 1337.14,1814.86 M 1417.72,1537.36 L 1481.22,1503.28 L 1417.72,1537.36 M 1331.33,1814.00 L 1336.44,1891.42 L 1301.11,1840.81 M 1532.55,1465.51 L 1492.01,1497.17 L 1445.23,1535.24 L 1395.59,1570.02 L 1348.66,1593.81 L 1308.14,1645.81 L 1259.66,1671.54 L 1222.19,1709.16 L 1162.66,1736.41 L 1113.86,1790.26 L 1060.60,1794.92 L 1072.46,1720.62 L 1108.85,1657.74 L 1152.14,1622.06 L 1197.18,1573.44 L 1245.96,1554.74 L 1285.09,1514.16 L 1339.54,1498.59 L 1384.08,1471.78 L 1487.04,1467.84 M 1190.54,1710.11 L 1243.74,1680.49 L 1249.03,1615.77 L 1175.90,1647.35 L 1190.54,1710.11 L 1269.12,1654.34 L 1316.22,1630.00 L 1333.34,1581.19 L 1252.54,1584.55 L 1265.85,1636.87 L 1341.83,1588.76 L 1395.59,1561.69 L 1413.74,1503.54 L 1337.50,1535.32 L 1341.83,1588.76 M 1138.51,1753.33 L 1175.47,1716.52 L 1167.60,1658.06 L 1122.44,1716.46 M 1413.79,1540.40 L 1462.20,1522.12 L 1496.59,1476.90 L 1424.32,1499.08 M 1230.67,1592.72 L 1179.93,1596.63 L 1147.03,1634.45 L 1199.17,1620.27 L 1252.97,1578.01 L 1315.47,1540.16 L 1264.09,1537.36 L 1215.17,1572.41 L 1265.77,1532.64 L 1321.86,1533.33 L 1402.63,1501.24 L 1351.29,1494.61 L 1301.88,1514.96 M 1075.20,1728.02 L 1159.76,1656.66 L 1110.17,1669.43 L 1085.15,1716.41 L 1080.00,1798.70 L 1128.47,1762.10 M 1357.08,1488.40 L 1410.93,1497.29 L 1471.81,1477.25 L 1409.97,1474.35 L 1357.08,1488.40 M 1111.86,1722.42 L 1060.66,1764.83 L 1111.86,1722.42 L 1190.54,1710.11 L 1173.86,1651.71 L 1239.97,1593.16 L 1260.99,1654.46 L 1218.54,1704.76 L 1269.12,1654.34 L 1250.65,1604.65 L 1323.03,1542.43 L 1335.44,1593.97 L 1297.45,1645.70 L 1341.83,1588.76 L 1334.06,1538.71 L 1412.33,1503.60 L 1403.35,1554.44 L 1356.01,1582.76 M 1138.51,1753.33 L 1156.54,1669.43 L 1175.46,1716.53 L 1138.51,1753.33 M 1413.79,1540.40 L 1494.02,1476.77 L 1462.20,1522.12 L 1413.79,1540.40 M 1230.67,1592.72 L 1171.08,1645.39 L 1115.64,1658.91 L 1160.34,1623.41 L 1210.83,1593.94 L 1251.54,1558.27 L 1319.11,1537.85 L 1252.97,1578.02 L 1177.11,1592.90 M 1265.77,1532.64 L 1321.38,1512.00 L 1402.64,1501.23 L 1333.49,1531.01 L 1265.77,1532.64 M 1075.20,1728.02 L 1107.42,1681.70 L 1159.40,1655.96 L 1118.97,1712.65 L 1128.47,1762.09 L 1080.00,1798.70 L 1116.71,1724.65 M 1357.08,1488.40 L 1409.97,1474.35 L 1460.88,1472.39 L 1410.93,1497.29 L 1357.08,1488.40 M 1111.86,1722.42 L 1070.27,1795.16 L 1067.92,1739.70 M 1387.58,1234.69 L 1306.52,1215.99 L 1251.19,1209.37 L 1210.34,1245.51 L 1160.52,1216.83 L 1141.48,1263.27 L 1091.84,1269.90 L 1137.33,1235.61 L 1081.40,1242.61 L 1129.12,1217.63 L 1180.40,1207.08 L 1127.29,1200.25 L 1179.50,1202.12 L 1242.68,1204.58 L 1191.00,1191.80 L 1242.04,1179.28 L 1310.76,1211.26 L 1266.28,1164.03 L 1206.78,1139.85 L 1153.93,1137.04 L 1104.12,1154.65 L 1057.48,1128.33 L 1115.21,1108.96 L 1172.32,1126.21 L 1236.27,1144.32 L 1192.37,1096.47 L 1243.36,1089.83 L 1250.07,1149.01 L 1308.72,1179.39 L 1349.75,1210.55 M 1102.39,1108.65 L 1051.93,1110.37 L 1102.39,1108.65 L 1149.28,1087.87 L 1099.14,1081.06 M 1107.73,1215.52 M 1240.29,1100.92 M 1113.51,1250.55 M 1231.89,1178.73 L 1194.92,1228.09 L 1157.21,1186.09 L 1232.76,1120.78 L 1141.22,1137.97 L 1137.85,1239.52 M 1109.43,1110.04 M 1212.04,1232.81 L 1236.84,1182.88 L 1148.69,1196.86 L 1102.39,1108.65 L 1051.37,1120.88 L 1102.39,1108.65 L 1147.20,1082.73 M 1107.73,1215.52 M 1240.29,1100.92 M 1113.51,1250.55 M 1231.89,1178.73 L 1194.92,1228.09 L 1157.21,1186.09 L 1232.76,1120.78 L 1141.22,1137.97 L 1137.85,1239.52 M 1104.22,1119.60 M 1212.04,1232.81 L 1236.84,1182.88 L 1148.69,1196.86 M 1406.92,932.68 L 1368.76,885.93 L 1309.77,865.26 L 1368.68,855.78 L 1331.01,822.80 L 1392.31,826.44 L 1350.46,793.84 L 1404.44,811.34 L 1425.96,759.22 L 1419.77,818.43 L 1464.58,792.92 L 1513.04,780.42 L 1470.13,810.78 L 1524.63,800.62 L 1472.55,849.49 L 1420.21,862.68 L 1472.28,854.56 L 1528.87,835.99 L 1498.92,883.62 L 1441.66,905.59 L 1413.94,952.05 L 1458.07,916.73 L 1512.64,884.07 L 1561.97,870.41 L 1520.63,919.09 L 1471.11,961.78 L 1415.56,981.06 L 1491.67,954.62 L 1536.62,929.89 L 1517.77,994.35 L 1471.65,1032.17 L 1449.65,1078.64 L 1496.34,1021.05 L 1564.30,985.24 L 1563.16,1039.25 L 1516.33,1075.47 L 1465.10,1097.09 L 1412.65,1085.41 L 1348.70,1076.48 L 1270.11,1047.16 L 1328.77,1020.05 L 1387.46,1034.43 L 1333.21,1005.15 L 1257.38,965.11 L 1303.15,942.84 L 1360.88,964.24 L 1406.89,994.13 L 1380.86,948.64 L 1330.96,934.56 L 1271.92,903.39 L 1322.90,886.09 L 1384.99,915.19 M 1440.68,1081.92 L 1401.46,1043.01 L 1325.45,1024.68 L 1274.27,1024.73 L 1314.61,1059.25 L 1369.10,1073.91 L 1440.68,1081.92 M 1604.62,985.16 L 1553.70,993.71 L 1503.23,1022.14 L 1460.14,1066.39 L 1514.87,1068.89 L 1559.26,1035.13 L 1595.25,995.21 M 1417.36,1018.47 L 1369.62,974.23 L 1307.94,949.68 L 1243.14,943.02 L 1294.76,982.49 L 1350.45,1003.66 L 1403.80,1019.50 L 1470.24,1026.45 L 1513.13,990.67 L 1550.38,943.16 L 1498.30,957.44 L 1453.04,996.63 L 1435.84,1051.03 L 1415.88,976.00 L 1467.07,957.50 L 1509.63,920.48 L 1558.95,875.23 L 1501.41,897.16 L 1457.76,923.70 L 1420.01,961.71 L 1384.19,921.90 L 1309.17,888.04 L 1364.53,937.64 M 1556.00,840.43 L 1484.38,853.43 L 1430.97,889.07 L 1494.11,879.80 L 1540.93,848.79 M 1292.61,836.75 L 1336.23,872.92 L 1393.45,884.07 L 1340.85,847.97 L 1419.35,856.52 L 1469.23,845.77 L 1513.56,810.62 L 1464.33,821.15 L 1419.35,856.52 L 1371.26,822.94 L 1318.88,805.95 L 1406.70,842.48 L 1445.61,769.35 L 1420.57,827.28 L 1501.12,785.62 L 1451.27,806.75 L 1399.74,814.90 L 1348.46,783.94 L 1399.74,814.90 L 1453.08,823.40 M 1440.68,1081.92 L 1378.15,1075.75 L 1324.24,1063.45 L 1273.52,1042.95 L 1325.45,1024.68 L 1379.76,1038.08 L 1429.43,1058.24 M 1604.62,985.16 L 1559.27,1035.13 L 1514.88,1068.90 L 1457.79,1093.66 L 1478.18,1046.24 L 1514.94,1011.76 L 1577.56,987.24 M 1417.36,1018.47 L 1350.45,1003.66 L 1294.76,982.49 L 1243.14,943.03 L 1307.94,949.68 L 1369.62,974.23 L 1412.94,1011.68 L 1469.82,974.28 L 1521.97,944.62 L 1495.94,1006.15 L 1443.88,1046.42 L 1415.88,976.00 L 1457.76,923.70 L 1501.41,897.16 L 1558.95,875.23 L 1509.63,920.48 L 1467.07,957.50 L 1415.88,976.00 L 1376.01,940.68 L 1309.37,918.43 L 1265.03,885.65 L 1347.80,902.70 L 1397.47,932.72 M 1556.00,840.43 L 1509.73,868.34 L 1439.13,901.40 L 1479.49,856.34 L 1553.85,838.13 M 1292.61,836.75 L 1363.10,858.33 L 1408.29,881.79 L 1336.24,872.92 L 1291.91,838.24 M 1419.35,856.52 L 1464.33,821.15 L 1518.73,804.63 L 1469.23,845.77 L 1419.35,856.52 L 1355.86,831.20 L 1406.70,842.48 L 1427.49,767.32 L 1420.57,827.28 L 1463.58,799.33 L 1420.57,827.28 L 1370.10,802.42 M 1163.67,1471.32 L 1102.27,1448.47 L 1071.88,1398.17 L 1091.97,1350.73 L 1114.44,1300.59 L 1142.89,1255.36 L 1194.37,1239.49 L 1246.40,1244.52 L 1295.91,1258.56 L 1378.03,1302.31 L 1416.50,1337.92 L 1455.71,1297.21 L 1501.39,1335.27 L 1476.23,1379.46 L 1554.82,1376.73 L 1502.76,1403.55 L 1550.55,1440.95 L 1477.79,1446.87 L 1510.33,1511.59 L 1471.23,1474.61 L 1418.63,1480.61 L 1368.53,1488.04 L 1293.46,1521.31 L 1230.77,1515.68 L 1175.44,1515.26 L 1124.32,1537.36 L 1163.67,1471.32 M 1321.02,1374.48 L 1291.69,1325.63 L 1207.43,1317.75 L 1157.80,1304.55 L 1153.05,1362.44 L 1213.96,1409.25 L 1296.78,1380.85 M 1285.40,1257.13 L 1294.23,1320.74 L 1329.61,1378.65 L 1357.23,1435.57 L 1420.29,1476.72 L 1434.13,1423.88 L 1398.27,1383.40 L 1356.89,1348.15 L 1317.88,1315.22 L 1294.76,1270.33 M 1326.05,1382.37 L 1294.95,1426.14 L 1230.58,1487.49 L 1331.78,1489.67 L 1391.06,1468.84 L 1345.85,1429.98 L 1326.05,1382.37 L 1277.89,1307.88 L 1250.33,1252.55 L 1199.38,1242.66 L 1145.78,1258.98 L 1179.89,1300.53 L 1237.73,1313.43 M 1323.18,1327.62 L 1369.97,1350.37 L 1427.34,1402.61 L 1415.51,1347.69 L 1373.54,1305.98 L 1309.02,1268.73 M 1321.02,1378.78 L 1269.45,1404.81 L 1201.00,1468.17 L 1168.83,1507.64 L 1224.74,1485.18 L 1277.54,1441.56 L 1321.02,1378.78 M 1125.65,1339.78 L 1084.27,1382.85 L 1102.52,1441.65 L 1150.11,1463.35 L 1200.57,1459.33 L 1134.66,1431.38 L 1103.08,1389.86 L 1125.65,1339.78 M 1230.16,1426.91 L 1164.86,1378.78 L 1134.22,1422.93 L 1188.16,1437.95 L 1137.92,1485.65 L 1143.52,1542.18 L 1166.32,1496.53 M 1436.78,1397.17 L 1461.95,1441.36 L 1540.66,1443.54 L 1493.86,1414.40 L 1436.78,1397.17 M 1359.63,1486.32 L 1310.27,1498.52 L 1249.39,1497.22 L 1199.06,1506.30 L 1289.32,1516.97 L 1346.28,1498.54 M 1525.69,1334.39 L 1469.42,1345.69 L 1436.76,1388.04 L 1484.80,1366.35 L 1525.69,1334.39 L 1595.61,1379.05 L 1516.92,1384.67 L 1462.35,1385.41 L 1580.38,1390.68 M 1124.71,1304.34 L 1094.93,1344.77 L 1124.71,1304.34 M 1141.21,1399.58 M 1424.41,1347.24 L 1462.65,1311.74 L 1424.41,1347.24 M 1107.07,1398.53 M 1494.16,1502.91 L 1473.15,1450.46 L 1494.16,1502.91 M 1114.62,1370.68 M 1321.02,1374.48 L 1233.48,1421.82 L 1183.26,1385.98 L 1132.75,1338.36 L 1207.43,1317.75 L 1261.34,1314.59 L 1310.80,1355.51 L 1285.40,1257.13 L 1313.64,1303.45 L 1356.90,1348.15 L 1398.28,1383.40 L 1434.14,1423.88 L 1431.68,1475.42 L 1383.91,1459.18 L 1342.53,1414.06 L 1311.35,1342.93 L 1283.39,1288.49 L 1326.05,1382.37 L 1345.85,1429.98 L 1391.06,1468.84 L 1331.78,1489.67 L 1265.09,1494.31 L 1291.08,1433.30 L 1320.60,1385.92 L 1277.89,1307.88 L 1214.09,1314.05 L 1173.10,1281.03 L 1123.12,1285.18 L 1199.38,1242.66 L 1250.33,1252.55 L 1277.89,1307.88 L 1309.02,1268.73 L 1373.54,1305.98 L 1415.51,1347.69 L 1428.40,1398.62 L 1380.85,1359.95 L 1331.13,1335.88 L 1310.50,1285.23 L 1321.02,1378.78 L 1290.03,1420.95 L 1258.95,1460.18 L 1185.24,1506.77 L 1230.46,1434.37 L 1284.05,1395.04 M 1125.65,1339.78 L 1103.09,1389.86 L 1134.66,1431.38 L 1195.10,1443.96 L 1123.14,1454.14 L 1079.67,1407.24 L 1098.19,1358.72 M 1230.16,1426.91 L 1163.84,1431.54 L 1162.73,1381.35 L 1230.16,1426.91 L 1186.87,1477.64 L 1154.21,1528.02 L 1103.01,1511.73 L 1159.14,1477.84 M 1436.78,1397.17 L 1493.86,1414.40 L 1540.51,1443.60 L 1481.70,1441.86 L 1433.28,1407.24 L 1359.63,1486.32 L 1289.31,1516.97 L 1223.49,1509.94 L 1310.27,1498.51 L 1359.63,1486.32 M 1525.69,1334.39 L 1484.81,1366.35 L 1436.76,1388.04 L 1469.42,1345.69 L 1519.53,1335.76 L 1595.61,1379.05 L 1507.29,1398.49 L 1446.26,1394.56 L 1516.92,1384.67 L 1568.19,1379.21 M 1124.71,1304.34 L 1098.86,1348.36 L 1124.71,1304.34 M 1141.21,1399.58 M 1424.41,1347.24 L 1461.93,1298.68 L 1436.28,1341.80 M 1107.07,1398.53 M 1494.16,1502.91 L 1469.69,1456.70 L 1496.89,1502.35 M 1114.62,1370.68 M 1834.14,922.45 L 1874.97,893.49 L 1836.97,852.14 L 1837.27,801.83 L 1884.55,848.50 L 1889.96,797.27 L 1932.45,836.52 L 1938.04,781.34 L 1957.06,830.35 L 2026.81,800.39 L 2077.35,794.24 L 2027.15,822.12 L 1976.35,831.63 L 2044.33,843.87 L 1997.00,886.50 L 1941.87,882.07 L 1891.96,891.02 L 1963.52,891.61 L 2025.08,901.73 L 1953.62,924.74 L 1888.05,916.89 L 1832.26,930.99 L 1888.91,932.22 L 1944.94,931.86 L 2014.49,941.63 L 1966.27,954.87 L 1899.77,964.13 L 1830.73,971.78 L 1752.73,999.70 L 1833.58,976.51 L 1893.16,975.88 L 1956.84,978.05 L 1899.49,1006.90 L 1824.64,1020.10 L 1736.01,1028.78 L 1810.33,1026.76 L 1860.49,1025.52 L 1931.10,1040.92 L 1841.76,1068.81 L 1769.38,1076.08 L 1708.71,1070.52 L 1666.95,1028.12 L 1631.86,988.75 L 1615.40,924.17 L 1667.32,943.12 L 1706.18,980.04 L 1691.79,915.99 L 1694.04,859.74 L 1745.82,885.96 L 1772.64,947.43 L 1775.20,891.57 L 1769.78,824.64 L 1818.99,851.78 L 1835.69,900.01 M 1706.01,1048.77 L 1705.38,989.99 L 1653.96,942.44 L 1642.89,997.53 L 1682.54,1034.62 M 1928.51,1045.85 L 1858.83,1029.08 L 1797.18,1033.28 L 1736.57,1045.39 L 1813.04,1066.55 L 1872.29,1058.71 L 1928.51,1045.85 M 1753.77,991.26 L 1763.44,937.77 L 1724.72,875.53 L 1703.58,933.11 L 1737.67,979.36 L 1785.22,1019.72 L 1854.20,1011.10 L 1912.55,997.85 L 1838.56,980.40 L 1786.75,995.65 L 1734.15,1023.54 L 1796.33,958.76 L 1853.76,966.63 L 1923.77,956.95 L 2007.31,943.96 L 1941.58,935.96 L 1881.53,937.33 L 1814.12,949.80 L 1825.80,893.71 L 1806.73,847.42 L 1797.26,908.17 M 2040.87,916.60 L 1973.77,895.91 L 1897.04,899.95 L 1953.94,919.83 L 2020.97,916.46 M 1847.04,801.90 L 1856.19,865.86 L 1861.15,814.66 L 1921.80,870.59 L 1970.28,883.73 L 2030.44,876.88 L 1966.97,865.24 L 1920.26,824.96 L 1985.67,823.76 L 2067.27,796.93 L 1985.67,823.76 L 2056.07,852.15 L 1996.94,846.82 L 1953.32,808.15 L 1932.22,864.21 M 1706.01,1048.77 L 1665.43,1017.57 L 1629.93,971.20 L 1678.41,956.86 L 1716.58,1002.91 M 1928.51,1045.85 L 1872.30,1058.72 L 1813.04,1066.56 L 1753.15,1070.39 L 1797.19,1033.29 L 1858.83,1029.09 L 1928.51,1045.85 M 1753.77,991.26 L 1718.79,951.71 L 1697.46,900.57 L 1753.75,915.31 L 1760.49,977.43 L 1734.15,1023.54 L 1786.76,995.66 L 1838.57,980.40 L 1892.62,980.66 L 1953.27,982.32 L 1897.89,1002.30 L 1825.39,1015.41 L 1744.92,1023.50 L 1796.33,958.76 L 1847.65,943.10 L 1902.32,936.12 L 1959.56,935.36 L 1888.57,961.34 L 1832.96,967.28 L 1804.75,923.24 L 1775.61,870.30 L 1825.80,893.71 M 2040.87,916.60 L 1977.46,917.87 L 1921.41,918.91 L 1872.04,907.44 L 1932.25,899.03 L 2009.45,902.38 M 1847.04,801.90 L 1877.74,848.05 L 1844.98,802.72 M 1921.80,870.59 L 1991.92,863.17 L 2049.73,873.90 L 1999.47,881.61 L 1942.52,877.48 L 1900.20,824.61 M 2019.64,807.13 M 2036.76,847.11 L 1952.79,849.18 L 1943.26,786.01 M 2537.86,1096.64 L 2539.88,1039.27 L 2505.37,988.34 L 2549.01,957.25 L 2570.97,910.81 L 2556.89,959.12 L 2548.56,1020.69 L 2578.64,979.91 L 2555.97,1027.85 L 2545.30,1092.00 L 2545.16,1148.49 L 2583.94,1112.41 L 2565.04,1064.56 L 2616.69,1068.32 L 2665.88,1035.88 L 2653.77,983.41 L 2704.51,989.68 L 2677.57,1032.05 L 2648.28,1091.41 L 2686.35,1045.53 L 2656.89,1094.83 L 2619.82,1134.23 L 2587.59,1173.38 L 2547.57,1239.19 L 2622.55,1188.39 L 2650.85,1136.17 L 2631.55,1189.60 L 2553.54,1244.90 L 2548.84,1186.26 L 2535.66,1110.25 L 2504.55,1068.90 M 2604.40,1069.34 L 2665.65,1165.38 M 2662.08,985.90 L 2708.74,1065.52 L 2636.70,1080.06 L 2600.22,1142.69 M 2590.17,1007.03 L 2520.32,1052.10 M 2707.92,1020.54 M 2570.18,938.91 L 2528.23,980.10 M 2627.17,1112.09 M 2681.57,1026.78 M 2515.58,1072.12 M 2703.94,1068.90 M 2550.42,939.88 M 2599.79,1147.89 L 2622.15,1076.46 L 2584.35,1009.53 M 2643.02,1177.49 M 2526.46,984.89 M 2604.79,1084.83 L 2665.65,1165.38 M 2662.08,985.90 L 2708.74,1065.52 L 2636.70,1080.06 L 2600.22,1142.69 M 2590.17,1007.03 L 2520.32,1052.10 M 2707.92,1020.54 M 2570.18,938.91 L 2528.23,980.10 M 2627.17,1112.09 M 2681.57,1026.78 M 2515.58,1072.12 M 2703.94,1068.90 M 2550.42,939.88 M 2599.79,1147.89 L 2622.15,1076.46 L 2584.35,1009.53 M 2643.02,1177.49 M 2526.46,984.89 M 2604.79,1084.83 M 2531.70,1309.09 L 2617.43,1303.75 L 2671.85,1294.54 L 2691.05,1235.22 L 2693.25,1288.74 L 2748.87,1262.90 L 2736.32,1203.72 L 2755.60,1256.61 L 2803.29,1217.86 L 2767.06,1255.70 L 2814.20,1273.93 L 2764.44,1292.40 L 2713.78,1286.41 L 2650.72,1303.90 L 2712.89,1297.86 L 2658.07,1309.28 L 2574.72,1313.13 L 2646.20,1334.16 L 2730.58,1344.52 L 2785.99,1343.97 L 2825.71,1310.90 L 2877.18,1317.44 L 2825.10,1345.89 L 2875.63,1356.90 L 2825.50,1356.37 L 2761.49,1350.19 L 2805.05,1384.74 L 2749.81,1394.27 L 2712.96,1348.80 L 2639.74,1337.43 L 2581.94,1320.52 L 2531.61,1310.96 M 2873.32,1344.76 L 2831.04,1313.27 L 2859.35,1358.84 M 2797.48,1249.58 M 2753.76,1389.61 M 2768.99,1219.50 M 2709.66,1316.94 L 2710.29,1262.16 L 2772.30,1289.78 L 2747.38,1369.58 L 2818.73,1328.91 L 2754.30,1236.16 M 2849.27,1341.38 M 2691.68,1262.59 L 2702.42,1314.55 L 2772.84,1277.71 M 2873.32,1344.76 L 2823.52,1325.86 L 2871.34,1360.76 M 2797.48,1249.58 M 2753.76,1389.61 M 2768.99,1219.50 M 2709.66,1316.94 L 2710.29,1262.16 L 2772.30,1289.78 L 2747.38,1369.58 L 2818.73,1328.91 L 2754.30,1236.16 M 2849.27,1341.38 M 2691.68,1262.59 L 2702.42,1314.55 L 2772.84,1277.71 M 2561.53,1443.08 L 2604.97,1490.12 L 2602.58,1541.35 L 2634.12,1594.86 L 2622.32,1646.76 L 2595.13,1711.33 L 2540.54,1700.39 L 2507.90,1642.71 L 2487.54,1592.50 L 2469.34,1544.57 L 2448.03,1498.22 L 2409.84,1465.75 L 2404.10,1408.77 L 2366.56,1365.36 L 2364.55,1311.93 L 2419.54,1315.28 L 2472.00,1335.32 L 2545.78,1346.18 L 2608.10,1376.28 L 2679.51,1390.43 L 2710.37,1430.92 L 2770.84,1469.17 L 2796.69,1522.71 L 2826.91,1579.60 L 2848.56,1629.39 L 2850.79,1681.39 L 2830.30,1728.46 L 2785.99,1696.55 L 2752.38,1647.19 L 2707.13,1601.83 L 2672.60,1551.53 L 2651.87,1502.76 L 2603.81,1462.58 M 2572.21,1727.44 L 2615.14,1668.91 L 2619.57,1613.96 L 2610.89,1564.47 L 2599.85,1503.04 L 2558.90,1449.32 L 2514.99,1388.27 L 2473.82,1341.91 L 2425.40,1324.43 L 2375.65,1311.76 L 2421.37,1346.92 L 2487.85,1422.65 L 2534.83,1504.20 L 2554.81,1559.43 L 2567.29,1615.58 L 2570.06,1666.78 L 2552.68,1582.79 L 2522.40,1493.71 L 2469.54,1409.03 L 2433.68,1366.49 L 2389.41,1327.37 L 2375.59,1375.90 L 2413.65,1412.60 L 2422.10,1464.98 L 2452.33,1509.80 L 2492.91,1558.47 L 2486.89,1611.25 L 2525.44,1651.23 L 2548.35,1699.50 M 2823.22,1725.59 L 2843.60,1676.09 L 2832.90,1620.07 L 2819.19,1553.92 L 2774.03,1509.80 L 2736.60,1451.61 L 2690.19,1410.04 L 2641.17,1385.50 L 2576.45,1362.87 L 2525.96,1348.28 L 2652.68,1442.53 L 2737.86,1521.43 L 2782.82,1579.70 L 2813.37,1641.67 L 2764.33,1561.88 L 2689.75,1479.53 L 2593.51,1407.04 L 2508.14,1361.35 L 2545.46,1403.45 L 2595.55,1446.66 L 2651.66,1496.61 L 2679.97,1551.81 L 2713.23,1598.64 L 2749.56,1639.17 L 2784.90,1688.77 L 2823.22,1725.59 M 2572.21,1727.44 L 2533.78,1669.97 L 2501.57,1630.78 L 2499.04,1569.83 L 2452.92,1523.70 L 2430.74,1468.23 L 2413.64,1412.60 L 2375.57,1375.90 L 2375.12,1322.91 L 2433.66,1366.49 L 2469.53,1409.03 L 2522.39,1493.71 L 2552.67,1582.79 L 2564.65,1656.24 L 2554.80,1559.43 L 2534.82,1504.20 L 2487.84,1422.65 L 2421.36,1346.92 L 2378.99,1314.10 L 2439.35,1331.14 L 2485.94,1352.89 L 2541.15,1408.28 L 2572.48,1463.37 L 2596.48,1517.56 L 2623.08,1579.21 L 2613.16,1629.77 L 2603.67,1690.47 M 2823.22,1725.59 L 2784.91,1688.78 L 2754.48,1642.10 L 2713.24,1598.65 L 2679.98,1551.81 L 2663.11,1502.66 L 2613.36,1465.13 L 2569.60,1439.14 L 2519.28,1384.35 L 2593.52,1407.04 L 2689.76,1479.54 L 2764.34,1561.89 L 2790.97,1605.34 L 2812.06,1653.04 L 2782.83,1579.70 L 2737.87,1521.44 L 2652.69,1442.54 L 2547.47,1374.42 L 2497.05,1351.56 L 2554.63,1352.13 L 2599.68,1378.33 L 2650.68,1386.56 L 2706.45,1434.12 L 2757.65,1463.44 L 2783.18,1519.55 L 2820.75,1578.68 L 2846.25,1636.67 L 2840.87,1690.06 M 2262.58,1712.90 L 2230.70,1770.73 L 2237.37,1836.41 L 2233.87,1893.45 L 2192.27,1945.73 L 2194.38,1998.63 L 2262.10,2019.99 L 2349.27,2035.11 L 2439.39,2040.28 L 2556.60,2042.22 L 2521.03,2092.89 L 2468.00,2107.16 L 2371.80,2128.16 L 2064.84,2181.76 L 2019.98,2204.84 L 2096.72,2205.87 L 2163.17,2197.13 L 2399.73,2162.90 L 2347.99,2202.50 L 2181.37,2236.14 L 2010.29,2258.44 L 1904.83,2265.68 L 1798.71,2266.31 L 1716.64,2260.25 L 1635.99,2248.49 L 1553.46,2232.85 L 1474.28,2211.29 L 1384.91,2176.00 L 1307.80,2130.31 L 1263.54,2092.03 L 1223.91,2051.69 L 1469.56,1979.97 L 1576.79,1954.16 L 1675.98,1917.29 L 1686.93,1858.10 L 1610.03,1827.34 L 1543.42,1808.82 L 1481.89,1772.59 L 1452.35,1722.26 L 1458.97,1638.89 L 1481.08,1559.62 L 1430.73,1591.85 L 1404.40,1638.63 L 1408.21,1580.77 L 1443.62,1532.92 L 1393.28,1480.17 L 1400.89,1430.10 L 1431.55,1386.99 L 1381.16,1368.36 L 1439.99,1349.72 L 1486.47,1292.56 L 1511.84,1245.48 L 1541.03,1188.64 L 1584.95,1151.06 L 1666.49,1106.76 L 1757.66,1071.00 L 1834.22,1043.72 L 1893.47,1000.18 L 1964.78,968.76 L 2023.96,966.49 L 2067.51,1006.97 L 2179.26,1015.48 L 2255.74,1037.28 L 2341.05,1081.56 L 2412.24,1135.25 L 2457.73,1191.70 L 2482.94,1253.09 L 2490.73,1320.54 L 2477.92,1400.14 L 2471.40,1482.32 L 2479.91,1536.73 L 2438.63,1488.36 L 2443.29,1543.61 L 2465.18,1596.27 L 2471.93,1690.41 L 2435.25,1748.95 L 2439.39,1675.41 L 2422.02,1625.32 L 2361.27,1726.53 L 2329.65,1812.68 L 2330.44,1876.79 L 2301.24,1962.16 L 2294.19,1910.62 L 2279.09,1849.65 L 2257.53,1770.41 L 2262.58,1712.90 M 1700.15,1694.03 L 1718.63,1757.88 L 1726.99,1810.27 L 1731.72,1862.88 L 1689.78,1916.98 L 1624.70,1943.20 L 1555.84,1964.96 L 1460.14,1986.94 L 1362.45,2004.93 L 1241.92,2025.24 L 1285.49,2103.66 L 1399.09,2176.72 L 1489.43,2210.95 L 1565.05,2230.57 L 1643.48,2245.04 L 1743.32,2258.29 L 1845.01,2262.34 L 1956.74,2257.93 L 2067.52,2247.40 L 2208.37,2226.37 L 2345.98,2197.87 L 2415.49,2175.45 L 2158.86,2202.52 L 2023.18,2216.72 L 2068.52,2177.03 L 2339.58,2130.14 L 2441.54,2108.89 L 2504.19,2092.73 L 2564.16,2072.84 L 2505.96,2046.29 L 2400.29,2044.62 L 2338.56,2039.31 L 2267.56,2027.37 L 2200.74,2007.97 L 2170.15,1958.77 L 2183.88,1901.30 L 2212.21,1802.65 L 2238.72,1740.37 L 2156.24,1767.92 L 2067.10,1793.21 L 1981.18,1800.43 L 1919.12,1789.57 L 1802.07,1752.35 L 1704.35,1696.57 M 1783.35,1289.02 L 1873.49,1280.42 L 1929.44,1274.38 L 1857.96,1302.25 L 1797.88,1302.22 L 1706.14,1357.12 L 1654.41,1401.64 L 1606.35,1441.06 L 1598.44,1507.90 L 1617.54,1589.29 L 1694.10,1681.48 L 1760.28,1725.15 L 1850.56,1764.61 L 1951.84,1791.15 L 2037.46,1793.14 L 2120.62,1773.78 L 2197.28,1745.24 L 2248.56,1715.52 L 2286.13,1678.45 L 2320.37,1637.50 L 2345.31,1566.06 L 2354.90,1498.93 L 2346.58,1421.50 L 2324.67,1370.05 L 2293.22,1320.65 L 2199.34,1310.94 L 2115.99,1303.08 L 2181.25,1286.67 L 2278.30,1299.81 L 2223.17,1213.66 L 2192.63,1136.06 L 2096.95,1088.57 L 2012.02,1085.21 L 1948.21,1103.10 L 1907.96,1134.93 L 1864.80,1200.84 L 1810.27,1263.18 M 2318.46,1830.83 L 2339.96,1755.60 L 2387.01,1669.23 L 2418.33,1608.44 L 2434.68,1545.26 L 2422.50,1462.93 L 2411.93,1392.73 L 2408.86,1337.72 L 2393.57,1285.17 L 2372.42,1221.65 L 2331.58,1138.77 L 2294.57,1100.80 L 2214.18,1057.80 L 2112.10,1044.84 L 2059.99,1049.06 L 2122.02,1053.07 L 2213.84,1073.98 L 2270.59,1117.65 L 2298.59,1161.26 L 2329.52,1253.19 L 2360.96,1318.25 L 2372.50,1386.86 L 2376.66,1453.99 L 2360.38,1514.16 L 2348.34,1581.14 L 2329.76,1635.84 L 2310.15,1698.67 L 2300.97,1762.48 L 2318.46,1830.83 M 1992.14,1067.89 L 1946.98,1043.99 L 1905.76,1072.47 L 1864.72,1118.38 L 1829.35,1166.18 L 1782.99,1225.41 L 1727.81,1281.37 L 1667.15,1329.41 L 1591.49,1373.39 L 1544.05,1395.07 L 1480.95,1416.29 L 1435.67,1449.06 L 1473.11,1488.33 L 1529.35,1481.87 L 1582.11,1454.19 L 1627.54,1417.78 L 1766.93,1295.09 L 1835.78,1225.77 L 1889.84,1151.23 L 1940.07,1080.69 L 1986.29,1059.19 M 2470.92,1516.41 L 2462.98,1441.79 L 2477.16,1364.65 L 2482.41,1291.49 L 2454.99,1200.93 L 2419.47,1151.69 L 2341.34,1088.15 L 2243.16,1037.53 L 2160.29,1017.47 L 2071.81,1022.73 L 2137.87,1040.72 L 2205.14,1049.75 L 2263.36,1073.09 L 2315.50,1111.18 L 2350.55,1156.53 L 2378.92,1223.61 L 2397.68,1281.38 L 2414.41,1336.86 L 2417.87,1391.63 L 2440.18,1479.89 M 2012.40,1081.47 L 2088.91,1082.81 L 2156.03,1100.70 L 2199.34,1135.61 L 2227.61,1208.83 L 2265.60,1270.92 L 2318.46,1346.60 L 2348.96,1405.03 L 2360.10,1466.27 L 2362.78,1358.73 L 2337.54,1286.97 L 2313.36,1227.59 L 2281.17,1142.99 L 2221.45,1083.98 L 2130.48,1057.43 L 2072.78,1057.32 L 2024.32,1072.47 M 1845.06,1044.43 L 1742.27,1081.09 L 1663.30,1113.63 L 1592.30,1153.02 L 1550.16,1188.24 L 1521.12,1244.74 L 1493.95,1294.13 L 1563.68,1274.35 L 1594.25,1221.50 L 1648.05,1179.77 L 1784.14,1102.00 L 1830.12,1063.63 M 2002.90,1061.47 L 1998.79,1010.92 L 1928.15,1026.01 L 1874.02,1074.52 L 1811.10,1150.95 L 1764.02,1198.96 L 1633.24,1287.06 L 1470.17,1348.65 L 1405.48,1360.71 L 1485.07,1363.92 L 1559.30,1353.68 L 1630.61,1336.79 L 1677.66,1315.16 L 1748.44,1254.51 L 1805.86,1188.35 L 1882.96,1088.38 L 1941.63,1041.63 L 1996.90,1042.19 L 1975.63,1090.30 L 2036.46,1057.19 L 2059.95,1003.73 L 2004.37,969.20 L 1936.17,983.35 L 1865.57,1031.61 L 1824.59,1078.89 L 1787.86,1127.61 L 1743.94,1182.25 L 1690.67,1233.36 L 1626.72,1277.58 L 1566.04,1303.71 L 1504.53,1329.06 L 1614.83,1291.51 L 1733.17,1218.60 L 1790.30,1166.11 L 1838.03,1109.71 L 1893.85,1044.59 L 1975.77,1005.15 L 2022.79,1031.60 L 1995.35,1077.20 M 1709.42,1898.73 L 1722.21,1839.85 L 1686.92,1796.58 L 1659.81,1751.63 L 1641.28,1692.32 L 1606.84,1653.17 L 1591.32,1710.52 L 1578.48,1655.31 L 1547.98,1715.49 L 1590.48,1758.71 L 1633.71,1784.88 L 1678.27,1839.89 L 1709.42,1898.73 M 1803.47,1096.40 L 1683.56,1163.44 L 1630.71,1196.92 L 1585.71,1247.80 L 1545.02,1301.87 L 1614.90,1279.08 L 1665.14,1247.02 L 1728.22,1191.34 L 1778.84,1130.68 M 1657.77,1834.22 L 1599.88,1808.23 L 1542.50,1773.66 L 1507.92,1728.27 L 1502.02,1652.51 L 1522.84,1548.06 L 1479.24,1588.07 L 1458.68,1666.74 L 1467.66,1742.99 L 1525.91,1795.96 L 1574.33,1813.49 L 1642.32,1830.01 L 1617.34,1780.90 L 1567.24,1747.85 L 1536.77,1704.54 L 1543.18,1635.37 L 1542.06,1580.70 L 1542.64,1515.62 L 1510.99,1638.37 L 1507.73,1704.92 L 1535.83,1759.57 L 1597.12,1801.43 L 1669.36,1832.23 M 2288.42,1965.88 L 2321.84,1907.37 L 2319.62,1851.72 L 2294.13,1782.94 L 2296.63,1729.12 L 2308.68,1675.84 L 2268.87,1717.82 L 2271.64,1806.48 L 2297.91,1884.70 L 2294.64,1949.77 M 1576.68,1376.89 L 1525.02,1389.18 L 1447.01,1402.54 L 1402.44,1441.76 L 1417.58,1493.74 L 1473.78,1518.54 L 1525.01,1508.60 L 1572.80,1470.21 L 1517.25,1490.03 L 1461.98,1490.23 L 1437.30,1437.31 L 1535.47,1393.85 M 1573.31,1600.19 L 1594.15,1531.71 L 1587.25,1471.15 L 1548.93,1515.91 L 1551.09,1586.78 M 2441.46,1558.00 L 2425.84,1609.04 L 2443.98,1661.73 L 2444.53,1716.05 L 2469.53,1667.10 L 2462.52,1607.76 L 2441.46,1558.00 M 1650.53,1693.33 L 1664.74,1745.99 L 1713.42,1814.02 L 1712.47,1758.02 L 1650.53,1693.33 M 1406.47,1420.79 L 1472.04,1391.73 L 1575.49,1370.45 L 1638.02,1340.43 L 1545.11,1360.32 L 1474.36,1368.41 L 1418.29,1404.78 M 1620.44,1611.52 L 1637.30,1676.51 L 1684.40,1710.79 L 1653.07,1654.02 L 1620.44,1611.52 M 2180.25,1945.56 L 2233.93,1870.21 L 2219.26,1803.78 L 2180.25,1945.56 M 2286.59,1311.19 L 2196.25,1293.70 L 2143.09,1281.88 L 2286.59,1311.19 M 1771.92,1298.51 L 1853.72,1298.63 L 1913.06,1296.09 L 1840.42,1286.23 L 1779.32,1294.80 M 1479.33,1524.67 L 1425.75,1567.24 L 1400.35,1610.65 L 1450.66,1567.87 L 1479.33,1524.67 M 1587.55,1657.54 L 1574.20,1708.29 L 1587.55,1657.54 M 1926.09,1104.80 L 1977.50,1078.49 L 1926.09,1104.80 M 2486.71,2152.54 L 2552.13,2114.20 L 2598.28,2094.37 L 2549.59,2137.83 L 2498.79,2150.35 L 2546.50,2133.47 L 2600.58,2107.84 L 2541.00,2123.50 L 2492.49,2138.86 M 1700.15,1694.03 L 1802.06,1752.34 L 1919.11,1789.56 L 1981.17,1800.42 L 2067.09,1793.20 L 2156.23,1767.91 L 2235.97,1731.90 L 2212.20,1802.64 L 2193.20,1866.05 L 2174.95,1936.57 L 2168.42,1987.57 L 2267.55,2027.36 L 2338.55,2039.30 L 2400.28,2044.60 L 2462.54,2045.97 L 2549.35,2047.02 L 2504.18,2092.72 L 2441.53,2108.88 L 2339.57,2130.13 L 2068.52,2177.01 L 2014.10,2201.84 L 2158.85,2202.51 L 2413.83,2165.81 L 2345.97,2197.86 L 2208.36,2226.36 L 2067.51,2247.39 L 1956.73,2257.92 L 1845.00,2262.33 L 1743.30,2258.27 L 1643.47,2245.03 L 1565.04,2230.56 L 1489.41,2210.94 L 1399.07,2176.71 L 1320.37,2132.13 L 1254.30,2073.43 L 1222.17,2034.21 L 1362.43,2004.92 L 1460.13,1986.93 L 1555.82,1964.95 L 1624.69,1943.19 L 1689.77,1916.97 L 1730.22,1879.53 L 1726.98,1810.26 L 1718.62,1757.87 L 1701.28,1698.41 L 1775.10,1757.99 L 1859.52,1802.14 L 1922.03,1815.62 L 1987.50,1820.51 L 2045.52,1816.09 L 2095.23,1806.72 L 2000.67,1815.76 L 1947.14,1813.68 L 1894.87,1805.58 L 1823.84,1782.54 L 1775.10,1757.99 M 2032.92,1826.65 L 2083.09,1826.04 L 2032.92,1826.65 M 2170.04,1778.90 L 2121.98,1794.49 L 2170.04,1778.90 M 1783.35,1289.02 L 1864.79,1200.85 L 1907.95,1134.93 L 1948.20,1103.11 L 2000.70,1087.04 L 2096.94,1088.58 L 2172.37,1113.92 L 2223.16,1213.67 L 2270.06,1287.82 L 2197.44,1289.83 L 2133.41,1275.18 L 2199.33,1310.95 L 2272.46,1314.85 L 2324.66,1370.06 L 2346.57,1421.51 L 2354.89,1498.93 L 2345.30,1566.07 L 2323.44,1631.94 L 2286.12,1678.46 L 2248.55,1715.53 L 2197.27,1745.25 L 2120.62,1773.78 L 2037.45,1793.14 L 1951.83,1791.15 L 1850.55,1764.62 L 1760.27,1725.16 L 1694.09,1681.49 L 1641.81,1630.54 L 1604.37,1546.07 L 1593.08,1469.69 L 1630.53,1421.43 L 1706.13,1357.12 L 1757.18,1312.28 L 1857.95,1302.26 L 1915.55,1299.82 L 1832.22,1283.18 M 1848.35,1614.99 L 1894.54,1642.82 L 1969.86,1651.96 L 2032.24,1654.77 L 2084.39,1646.99 L 2139.00,1632.68 L 2063.49,1592.13 L 2014.54,1578.63 L 1928.09,1581.57 L 1872.24,1609.47 M 1744.41,1358.67 L 1746.76,1409.08 L 1825.41,1410.36 L 1875.02,1401.18 L 1816.16,1406.71 L 1756.79,1400.91 L 1830.70,1400.85 L 1885.94,1392.79 L 1838.00,1362.83 L 1784.57,1361.63 M 2244.50,1413.37 L 2290.29,1389.65 L 2232.50,1380.97 L 2155.65,1376.69 L 2106.31,1393.22 L 2178.07,1418.19 L 2236.12,1417.14 M 1914.33,1478.27 L 1897.09,1526.67 L 1946.87,1533.70 L 1896.99,1514.56 M 2091.72,1479.60 L 2102.43,1529.40 L 2050.70,1541.98 L 2102.36,1536.75 L 2097.27,1484.67 M 1979.60,1501.37 L 1929.64,1509.49 L 1979.60,1501.37 L 2031.01,1507.83 M 2113.05,1403.48 L 2168.85,1425.36 L 2113.05,1403.48 M 1885.91,1364.47 M 2318.46,1830.83 L 2300.97,1762.47 L 2310.15,1698.67 L 2329.77,1635.84 L 2348.34,1581.14 L 2359.39,1525.58 L 2371.31,1472.98 L 2372.51,1386.85 L 2360.96,1318.24 L 2329.53,1253.18 L 2298.60,1161.25 L 2270.60,1117.64 L 2213.84,1073.97 L 2122.02,1053.06 L 2047.06,1056.96 L 2112.10,1044.83 L 2214.18,1057.79 L 2294.58,1100.79 L 2331.59,1138.76 L 2372.42,1221.64 L 2393.58,1285.16 L 2408.86,1337.72 L 2411.93,1392.72 L 2416.72,1445.42 L 2432.96,1503.82 L 2418.34,1608.43 L 2387.02,1669.22 L 2339.96,1755.59 L 2319.36,1827.68 M 1992.14,1067.89 L 1940.07,1080.69 L 1889.83,1151.23 L 1835.78,1225.77 L 1766.93,1295.09 L 1657.80,1392.13 L 1595.78,1442.66 L 1548.24,1473.58 L 1473.11,1488.33 L 1435.67,1449.06 L 1480.94,1416.29 L 1544.05,1395.07 L 1591.48,1373.39 L 1634.98,1348.47 L 1698.24,1305.78 L 1782.98,1225.41 L 1829.34,1166.18 L 1864.71,1118.38 L 1905.75,1072.47 L 1946.98,1043.99 L 1996.10,1055.52 M 2470.92,1516.41 L 2422.27,1441.10 L 2416.42,1364.23 L 2406.41,1314.21 L 2388.79,1252.42 L 2365.77,1189.87 L 2315.49,1111.18 L 2263.36,1073.09 L 2205.14,1049.75 L 2137.86,1040.72 L 2077.31,1042.11 L 2160.28,1017.47 L 2243.16,1037.53 L 2341.33,1088.15 L 2419.46,1151.69 L 2454.99,1200.93 L 2475.35,1253.58 L 2482.49,1329.58 L 2470.11,1399.62 L 2463.75,1484.16 M 2012.40,1081.47 L 2072.78,1057.31 L 2130.48,1057.43 L 2185.71,1068.09 L 2256.80,1111.09 L 2300.45,1184.80 L 2322.88,1257.72 L 2354.60,1322.21 L 2370.27,1439.64 L 2318.46,1346.60 L 2265.59,1270.92 L 2227.61,1208.83 L 2201.66,1144.25 L 2156.02,1100.70 L 2088.90,1082.80 L 2016.20,1081.46 M 1845.06,1044.43 L 1802.19,1090.12 L 1677.23,1161.81 L 1619.98,1198.49 L 1578.57,1247.96 L 1540.87,1298.27 L 1487.53,1331.53 L 1512.80,1258.99 L 1550.16,1188.25 L 1592.30,1153.02 L 1663.30,1113.63 L 1742.27,1081.09 L 1841.19,1045.36 M 2002.90,1061.47 L 1952.06,1037.59 L 1907.83,1062.76 L 1805.86,1188.35 L 1748.43,1254.51 L 1677.66,1315.16 L 1630.60,1336.79 L 1559.30,1353.67 L 1485.06,1363.92 L 1387.30,1365.07 L 1438.29,1355.39 L 1633.24,1287.06 L 1764.01,1198.96 L 1811.10,1150.95 L 1874.02,1074.52 L 1928.14,1026.01 L 1985.29,1009.16 L 2002.90,1061.47 L 2007.19,1008.49 L 1928.77,1019.90 L 1864.65,1076.70 L 1790.31,1166.11 L 1733.18,1218.60 L 1614.83,1291.52 L 1471.80,1343.19 L 1566.04,1303.71 L 1626.73,1277.58 L 1690.68,1233.36 L 1743.94,1182.26 L 1787.86,1127.61 L 1824.59,1078.89 L 1865.58,1031.61 L 1936.17,983.36 L 2004.37,969.21 L 2055.19,990.22 L 2036.46,1057.20 L 1987.78,1087.46 M 1709.42,1898.73 L 1687.40,1848.83 L 1633.70,1784.88 L 1590.48,1758.71 L 1547.97,1715.49 L 1541.32,1664.65 L 1556.84,1611.46 L 1567.57,1669.62 L 1583.66,1620.69 L 1630.78,1678.95 L 1654.53,1729.25 L 1686.92,1796.58 L 1722.20,1839.85 L 1709.42,1898.73 M 1803.47,1096.40 L 1728.23,1191.34 L 1665.14,1247.02 L 1614.90,1279.08 L 1556.92,1305.08 L 1585.71,1247.80 L 1630.71,1196.92 L 1683.56,1163.44 L 1799.62,1098.07 M 1657.77,1834.22 L 1574.34,1813.48 L 1525.92,1795.95 L 1467.67,1742.98 L 1458.68,1666.73 L 1479.25,1588.07 L 1489.36,1529.23 L 1502.03,1652.51 L 1507.93,1728.26 L 1542.51,1773.65 L 1599.89,1808.22 L 1646.65,1827.62 L 1597.14,1801.43 L 1535.84,1759.57 L 1507.75,1704.92 L 1511.01,1638.37 L 1530.55,1532.89 L 1549.08,1598.15 L 1536.36,1656.81 L 1567.25,1747.85 L 1617.35,1780.90 L 1665.58,1823.16 M 2288.42,1965.88 L 2302.47,1909.05 L 2285.17,1845.54 L 2264.17,1766.76 L 2272.59,1706.02 L 2311.05,1656.33 L 2296.62,1729.12 L 2294.13,1782.93 L 2319.62,1851.72 L 2321.83,1907.37 L 2298.92,1955.51 M 1576.68,1376.89 L 1476.98,1413.51 L 1427.29,1455.65 L 1484.36,1493.42 L 1546.62,1480.16 L 1491.34,1518.34 L 1438.59,1506.38 L 1395.04,1456.05 L 1447.01,1402.54 L 1525.02,1389.19 L 1573.86,1376.54 M 1573.31,1600.19 L 1550.98,1551.27 L 1557.87,1494.10 L 1594.15,1531.70 L 1611.09,1591.44 M 2441.46,1558.00 L 2462.50,1607.76 L 2469.52,1667.10 L 2447.27,1724.94 L 2443.97,1661.73 L 2425.82,1609.04 L 2441.46,1558.00 M 1650.53,1693.33 L 1712.48,1758.02 L 1720.23,1811.64 L 1672.98,1768.71 L 1657.72,1719.39 M 1406.47,1420.79 L 1456.58,1374.44 L 1545.11,1360.32 L 1613.24,1345.60 L 1502.75,1388.58 L 1444.24,1398.11 M 1620.44,1611.52 L 1653.07,1654.02 L 1690.45,1687.32 L 1637.30,1676.51 L 1599.65,1623.19 M 2180.25,1945.56 L 2217.26,1803.56 L 2233.93,1870.21 L 2182.82,1945.79 M 2286.59,1311.19 L 2146.67,1304.07 L 2196.25,1293.70 L 2251.69,1299.88 M 1771.92,1298.51 L 1840.42,1286.24 L 1915.61,1279.10 L 1853.72,1298.63 L 1771.92,1298.51 M 1479.33,1524.67 L 1450.66,1567.87 L 1400.35,1610.65 L 1425.75,1567.24 L 1453.76,1519.40 M 1587.55,1657.54 L 1583.39,1708.70 L 1584.24,1657.74 M 1926.09,1104.80 L 1961.53,1069.49 L 1926.09,1104.80 M 2480.57,2144.53 L 2541.01,2123.50 L 2604.09,2096.97 L 2546.51,2133.47 L 2497.87,2145.56 M 1775.10,1757.99 L 1823.85,1782.54 L 1894.88,1805.58 L 1947.15,1813.68 L 2000.68,1815.76 L 2093.00,1802.64 L 2016.63,1819.18 L 1922.04,1815.62 L 1859.54,1802.14 L 1777.77,1762.94 M 2032.92,1826.65 L 2114.51,1814.07 L 2042.44,1829.76 M 2170.04,1778.90 L 2121.98,1794.50 L 2170.04,1778.90 M 1848.35,1614.99 L 1896.85,1594.99 L 1965.01,1577.12 L 2034.41,1578.72 L 2096.08,1612.94 L 2061.52,1652.47 L 2002.85,1652.15 L 1942.67,1652.91 L 1874.50,1630.42 L 1924.38,1646.86 L 1985.59,1647.06 L 2063.01,1647.77 L 2022.74,1616.62 L 1961.04,1613.58 L 1873.20,1623.00 M 2109.91,1629.79 L 2054.63,1592.35 L 1990.57,1585.07 L 1935.04,1584.37 L 1889.46,1604.98 L 1951.05,1610.00 L 2001.42,1613.06 L 2098.94,1627.41 M 1744.41,1358.67 L 1794.78,1362.89 L 1878.14,1372.83 L 1830.69,1400.84 L 1768.20,1396.37 L 1875.01,1401.18 L 1825.40,1410.36 L 1754.14,1405.10 L 1708.89,1379.50 M 1816.32,1397.37 L 1889.16,1388.18 M 1760.04,1374.12 M 2244.50,1413.37 L 2178.07,1418.19 L 2112.83,1398.75 L 2184.52,1375.76 L 2234.82,1374.44 L 2290.30,1389.65 L 2244.50,1413.37 L 2190.06,1414.13 L 2253.13,1400.48 M 2130.13,1386.41 M 2265.75,1390.79 M 1914.33,1478.27 L 1917.89,1529.79 L 1908.97,1478.79 M 2091.72,1479.60 L 2111.37,1525.85 L 2056.74,1543.80 L 2105.51,1522.95 M 1979.60,1501.37 L 1930.86,1517.97 L 1979.60,1501.37 L 2031.01,1507.83 M 2113.05,1403.48 L 2167.22,1421.31 L 2115.02,1408.65 M 1885.91,1364.47 M 1873.20,1623.00 L 1943.82,1614.19 L 1999.01,1617.24 L 2107.92,1634.74 L 2034.02,1650.27 L 1966.11,1648.15 L 1887.60,1633.90 M 2109.91,1629.79 L 2041.70,1614.25 L 1951.05,1610.00 L 1894.56,1616.88 L 1935.05,1584.38 L 1990.57,1585.07 L 2044.67,1586.93 L 2096.62,1620.65 M 1816.68,1365.90 L 1874.67,1377.14 M 1767.15,1391.59 M 2190.06,1414.13 L 2240.25,1386.10 M 2111.79,1393.69 M 2265.75,1390.79 M 1959.70,1507.10 L 2039.98,1507.77 M 1831.59,1379.09 M 2185.21,1402.30 M 1827.73,1378.89 M 2195.29,1393.57 M 2437.34,1443.31 L 2491.60,1468.33 L 2556.68,1458.52 L 2607.50,1439.89 L 2622.02,1387.51 L 2624.27,1333.83 L 2646.96,1277.85 L 2620.66,1222.87 L 2569.87,1214.30 L 2508.68,1206.36 L 2458.49,1177.45 L 2399.03,1159.71 L 2337.80,1161.41 L 2277.29,1146.61 L 2185.49,1151.97 L 2124.35,1176.88 L 2060.89,1192.93 L 2019.56,1226.57 L 1984.22,1278.42 L 2028.50,1320.82 L 2068.43,1351.76 L 2074.81,1402.63 L 2129.35,1443.86 L 2201.08,1447.41 L 2255.33,1426.76 L 2278.97,1474.86 L 2345.22,1483.14 L 2412.12,1459.83 L 2362.07,1476.61 L 2307.61,1488.32 L 2270.03,1449.37 L 2201.09,1447.40 L 2129.36,1443.85 L 2074.82,1402.62 L 2068.44,1351.75 L 2028.51,1320.81 L 1983.09,1289.23 L 2014.88,1237.80 L 2060.90,1192.92 L 2124.37,1176.88 L 2185.50,1151.96 L 2244.11,1150.50 L 2307.06,1151.97 L 2364.01,1163.21 L 2427.54,1164.30 L 2484.22,1189.09 L 2525.39,1232.07 L 2588.69,1213.82 L 2637.41,1247.77 L 2637.05,1306.88 L 2618.64,1359.86 L 2629.84,1410.73 L 2574.72,1450.25 L 2517.97,1469.63 L 2468.59,1460.71 M 2318.83,1165.24 L 2258.42,1153.59 L 2198.97,1154.28 L 2127.96,1180.78 L 2062.59,1197.50 L 2022.06,1239.28 L 1990.29,1288.14 L 2035.55,1318.53 L 2091.40,1337.19 L 2163.75,1298.18 L 2202.12,1257.24 L 2266.94,1229.23 L 2293.13,1182.90 M 2263.53,1395.34 L 2239.08,1323.76 L 2191.42,1299.09 L 2115.88,1331.92 L 2075.76,1361.92 L 2091.61,1414.44 L 2138.87,1441.80 L 2220.58,1438.12 L 2262.31,1402.13 M 2314.69,1287.35 L 2267.88,1315.66 L 2270.04,1387.64 L 2319.81,1425.12 L 2388.02,1417.97 L 2425.52,1379.90 L 2427.00,1317.83 L 2373.26,1291.98 L 2314.69,1287.35 M 2425.39,1295.13 L 2467.54,1252.85 L 2452.63,1201.97 L 2402.82,1164.98 L 2349.17,1165.55 L 2292.48,1192.55 L 2297.82,1251.86 L 2337.05,1284.97 L 2425.39,1295.13 L 2498.09,1339.13 L 2461.12,1385.18 L 2444.44,1434.61 L 2510.99,1465.43 L 2571.71,1445.88 L 2621.54,1427.39 L 2613.15,1363.70 L 2498.09,1339.13 M 2609.59,1344.28 L 2634.84,1293.13 L 2624.24,1235.51 L 2566.18,1218.89 L 2510.93,1247.19 L 2449.04,1282.56 L 2493.66,1306.77 L 2568.11,1335.67 M 2428.62,1302.98 L 2445.89,1359.29 L 2415.02,1400.94 L 2356.12,1433.12 L 2283.11,1424.03 L 2294.12,1478.31 L 2394.15,1461.35 L 2442.56,1417.34 L 2460.58,1336.41 M 2188.09,1289.99 L 2235.86,1316.82 L 2294.02,1300.72 L 2284.06,1246.40 L 2223.32,1248.66 L 2188.09,1289.99 M 2474.40,1257.49 L 2517.76,1224.68 L 2474.67,1188.72 L 2473.39,1239.61 M 2318.83,1165.24 L 2280.03,1205.30 L 2225.50,1241.79 L 2187.94,1279.20 L 2112.52,1328.84 L 2056.34,1331.94 L 2010.65,1308.13 L 2012.76,1250.31 L 2048.17,1202.22 L 2098.10,1189.11 L 2175.08,1159.29 L 2241.66,1155.10 L 2292.08,1152.11 M 2263.53,1395.34 L 2220.59,1438.12 L 2138.87,1441.80 L 2094.58,1417.43 L 2075.67,1370.93 L 2115.88,1331.92 L 2177.89,1295.73 L 2235.55,1321.26 L 2261.93,1382.94 L 2314.69,1287.35 L 2373.27,1291.99 L 2427.01,1317.83 L 2425.53,1379.91 L 2388.03,1417.98 L 2319.83,1425.12 L 2269.64,1414.60 L 2263.51,1364.26 L 2282.08,1311.64 M 2425.39,1295.13 L 2341.50,1285.15 L 2297.83,1251.87 L 2292.49,1192.56 L 2337.95,1165.60 L 2402.83,1164.98 L 2449.43,1187.42 L 2467.38,1242.27 L 2429.17,1292.49 L 2498.09,1339.13 L 2576.60,1340.55 L 2614.76,1380.07 L 2603.39,1435.73 L 2556.33,1452.79 L 2485.54,1461.81 L 2446.78,1428.89 L 2470.45,1367.06 M 2609.59,1344.28 L 2509.53,1334.69 L 2471.82,1297.21 L 2510.93,1247.19 L 2566.18,1218.89 L 2624.23,1235.51 L 2634.84,1293.13 L 2609.59,1344.28 M 2428.62,1302.98 L 2461.61,1371.83 L 2433.65,1438.35 L 2333.23,1482.05 L 2282.03,1467.49 L 2337.01,1431.78 L 2398.49,1417.59 L 2445.90,1359.30 L 2427.52,1303.44 M 2188.09,1289.99 L 2223.32,1248.66 L 2270.94,1233.32 L 2309.23,1281.53 L 2257.35,1313.64 L 2198.96,1298.61 L 2293.97,1287.87 L 2241.27,1297.35 L 2291.13,1292.40 L 2218.55,1294.43 L 2248.38,1252.00 L 2207.88,1285.00 L 2261.31,1289.28 M 2474.40,1257.49 L 2460.12,1202.37 L 2509.31,1212.89 L 2474.40,1257.49 L 2471.41,1337.54 M 2293.97,1287.87 L 2240.40,1301.28 L 2289.72,1287.84 L 2218.55,1294.43 L 2246.36,1248.85 L 2214.49,1287.38 L 2270.93,1284.77 M 2451.68,1308.67 M 1740.39,1160.14 L 1795.88,1186.01 L 1787.69,1245.40 L 1741.68,1284.90 L 1698.13,1318.26 L 1636.50,1315.86 L 1576.51,1326.94 L 1526.63,1336.65 L 1473.51,1337.28 L 1423.48,1323.67 L 1365.47,1308.23 L 1304.81,1264.76 L 1249.86,1235.48 L 1256.44,1180.74 L 1283.30,1126.35 L 1337.77,1100.85 L 1381.24,1057.97 L 1435.85,1026.68 L 1485.78,1022.84 L 1554.26,1025.66 L 1619.06,1014.99 L 1674.26,1012.74 L 1730.24,1024.05 L 1784.32,1050.97 L 1795.18,1110.24 L 1766.11,1151.31 M 1586.48,1241.32 L 1526.66,1266.76 L 1468.95,1267.79 L 1427.80,1236.28 L 1372.40,1254.81 L 1402.58,1299.96 L 1460.89,1312.41 L 1516.16,1312.51 L 1568.11,1307.45 L 1619.69,1266.66 M 1630.71,1115.75 L 1679.62,1092.08 L 1722.06,1135.91 L 1765.24,1109.77 L 1749.19,1059.49 L 1687.13,1033.38 L 1617.38,1037.77 L 1591.47,1093.44 M 1340.86,1124.14 L 1300.76,1167.13 L 1307.94,1231.49 L 1358.17,1247.76 L 1419.10,1227.98 L 1388.06,1172.56 L 1340.83,1140.70 M 1723.48,1179.05 L 1692.06,1235.66 L 1642.05,1248.10 L 1597.42,1218.75 L 1633.14,1267.30 L 1681.70,1285.13 L 1733.09,1256.04 L 1755.63,1204.39 M 1388.29,1167.90 L 1361.92,1121.49 L 1395.42,1076.50 L 1462.29,1052.94 L 1524.14,1047.89 L 1587.91,1059.67 L 1521.33,1030.94 L 1468.37,1026.67 L 1408.99,1046.79 L 1360.45,1065.11 L 1347.85,1138.32 L 1388.29,1167.90 M 1644.70,1244.04 L 1689.62,1193.98 L 1692.41,1140.71 L 1653.45,1101.69 L 1645.00,1151.37 L 1622.70,1215.41 M 1678.82,1317.40 L 1723.32,1284.60 L 1772.30,1266.45 L 1789.26,1208.06 L 1753.58,1168.38 L 1759.93,1221.42 L 1719.76,1266.45 L 1670.42,1290.02 M 1390.84,1152.21 L 1390.91,1099.47 L 1469.89,1075.92 L 1556.74,1086.97 L 1501.17,1053.26 L 1440.19,1059.88 L 1384.61,1086.53 L 1373.13,1136.74 L 1318.62,1108.64 L 1273.65,1155.05 L 1250.62,1208.22 L 1291.01,1255.20 L 1343.99,1264.10 L 1300.29,1231.72 L 1292.39,1174.94 L 1320.27,1130.10 M 1471.43,1120.29 L 1545.64,1119.07 L 1609.97,1134.35 L 1528.13,1093.91 L 1455.23,1090.55 L 1424.29,1134.53 M 1576.89,1240.28 L 1526.26,1238.61 L 1456.78,1227.66 L 1418.32,1187.83 L 1418.29,1131.36 L 1395.47,1177.65 L 1425.60,1225.75 L 1471.85,1263.61 L 1522.63,1262.43 L 1576.89,1240.28 M 1727.77,1157.36 L 1775.47,1138.64 L 1789.93,1077.19 L 1754.51,1036.46 L 1699.15,1018.61 L 1648.09,1016.61 L 1594.01,1032.77 L 1650.26,1029.07 L 1708.54,1033.98 L 1755.60,1057.50 L 1772.84,1105.97 L 1734.59,1141.55 M 1626.37,1269.29 L 1574.55,1309.58 L 1517.08,1317.13 L 1452.73,1314.83 L 1401.40,1303.83 L 1365.88,1266.48 L 1389.53,1313.45 L 1438.39,1324.49 L 1487.89,1337.43 L 1541.44,1333.32 L 1593.31,1311.27 L 1630.55,1277.16 M 1588.45,1166.93 L 1541.02,1186.64 L 1569.93,1229.13 L 1590.71,1178.91 L 1549.20,1123.42 L 1493.40,1113.97 L 1562.82,1139.93 L 1598.83,1183.05 M 1691.11,1229.80 L 1717.00,1176.98 L 1698.22,1111.93 L 1703.38,1171.62 L 1678.59,1222.74 M 1415.64,1153.06 L 1437.42,1205.72 L 1525.77,1234.32 L 1576.41,1235.53 L 1499.97,1221.12 L 1437.63,1185.05 M 1641.10,1147.44 L 1600.74,1106.17 L 1535.56,1087.65 L 1456.77,1081.04 L 1402.24,1097.38 L 1496.43,1086.32 L 1552.28,1094.45 L 1629.01,1125.16 M 1466.43,1150.81 L 1487.68,1200.09 L 1466.43,1150.81 L 1468.42,1206.91 L 1445.79,1157.11 L 1503.07,1151.59 L 1584.44,1162.04 L 1539.20,1136.43 L 1584.44,1162.04 L 1511.74,1194.72 L 1545.66,1155.24 L 1511.74,1194.72 L 1545.33,1150.34 L 1479.28,1124.43 L 1526.40,1146.52 L 1473.08,1149.99 L 1507.24,1187.06 L 1586.48,1241.32 L 1568.11,1307.45 L 1516.16,1312.51 L 1460.89,1312.41 L 1402.59,1299.96 L 1368.58,1261.12 L 1418.97,1232.78 L 1468.95,1267.79 L 1526.67,1266.76 L 1586.48,1241.32 M 1630.71,1115.75 L 1594.60,1050.10 L 1648.96,1034.10 L 1713.91,1041.80 L 1761.47,1074.69 L 1754.96,1127.17 L 1685.87,1095.07 L 1634.30,1107.38 M 1340.86,1124.14 L 1388.06,1172.56 L 1419.10,1227.98 L 1372.27,1248.64 L 1307.94,1231.49 L 1298.12,1181.81 L 1332.42,1127.51 M 1723.48,1179.05 L 1751.18,1227.02 L 1705.88,1267.45 L 1658.33,1289.47 L 1612.09,1247.14 L 1665.80,1247.60 L 1712.18,1219.60 M 1388.29,1167.90 L 1347.85,1138.31 L 1353.47,1085.54 L 1402.10,1054.32 L 1468.37,1026.67 L 1521.33,1030.94 L 1573.88,1031.83 L 1524.14,1047.88 L 1462.29,1052.94 L 1407.30,1071.32 L 1362.00,1107.86 L 1387.21,1156.13 M 1644.70,1244.04 L 1630.06,1194.78 L 1651.76,1148.55 L 1695.00,1175.27 L 1665.05,1224.99 M 1688.87,1289.47 L 1739.78,1257.26 L 1762.94,1198.92 L 1727.02,1163.02 L 1777.23,1177.06 L 1780.34,1244.52 L 1731.20,1281.56 L 1678.81,1317.40 L 1623.64,1305.75 M 1390.84,1152.21 L 1368.78,1106.10 L 1412.95,1073.60 L 1480.10,1055.68 L 1541.46,1053.82 L 1586.02,1080.78 L 1514.01,1079.24 L 1434.45,1080.74 L 1388.50,1103.81 L 1329.50,1123.62 L 1292.40,1174.94 L 1300.30,1231.72 L 1352.41,1250.19 L 1291.02,1255.21 L 1249.60,1222.47 L 1264.82,1173.96 L 1290.63,1127.02 L 1343.53,1104.88 M 1471.43,1120.29 L 1430.78,1158.27 L 1414.64,1106.45 L 1482.64,1089.83 L 1571.20,1104.00 L 1626.63,1129.96 L 1545.64,1119.08 L 1493.81,1109.39 M 1576.89,1240.28 L 1522.64,1262.44 L 1471.86,1263.62 L 1425.60,1225.75 L 1395.48,1177.66 L 1405.44,1127.71 L 1418.33,1187.83 L 1456.78,1227.67 L 1526.27,1238.61 L 1576.89,1240.28 M 1727.77,1157.36 L 1768.13,1117.71 L 1761.20,1064.75 L 1708.54,1033.98 L 1650.26,1029.07 L 1593.94,1042.89 L 1648.09,1016.61 L 1699.15,1018.61 L 1754.51,1036.46 L 1789.93,1077.19 L 1775.47,1138.64 L 1727.77,1157.36 M 1626.37,1269.29 L 1593.31,1311.27 L 1541.44,1333.32 L 1491.70,1338.90 L 1438.39,1324.49 L 1389.54,1313.45 L 1356.83,1265.88 L 1401.40,1303.84 L 1452.73,1314.84 L 1517.08,1317.14 L 1574.56,1309.59 L 1623.43,1271.55 M 1588.45,1166.93 L 1583.90,1222.19 L 1506.86,1218.71 L 1579.04,1169.69 L 1611.65,1218.83 L 1593.61,1165.47 L 1539.56,1131.07 L 1488.08,1121.10 L 1549.20,1123.42 L 1602.67,1137.38 L 1627.62,1182.43 L 1651.23,1243.47 L 1689.73,1211.25 L 1703.73,1148.78 L 1664.40,1102.47 L 1717.09,1143.24 L 1712.79,1201.59 L 1665.96,1242.36 M 1415.64,1153.06 L 1461.58,1208.26 L 1564.44,1231.96 L 1475.81,1228.80 L 1429.50,1195.04 M 1641.10,1147.44 L 1593.36,1107.02 L 1496.43,1086.32 L 1439.32,1088.21 L 1508.22,1083.11 L 1562.11,1093.28 L 1633.65,1124.69 M 1466.43,1150.81 L 1505.68,1190.88 L 1454.17,1177.62 L 1492.58,1210.59 L 1438.14,1172.36 L 1468.54,1125.97 L 1522.80,1149.45 L 1472.90,1145.84 L 1584.44,1162.04 L 1539.20,1136.43 L 1584.44,1162.04 L 1511.74,1194.72 L 1545.67,1155.24 L 1511.74,1194.72 L 1545.33,1150.34 L 1486.93,1131.07 L 1544.63,1148.09 L 1507.23,1187.06 L 1473.07,1149.99 M 2520.60,1768.11 L 2467.36,1770.29 L 2434.21,1813.99 L 2483.02,1840.25 L 2543.27,1856.13 L 2594.53,1840.35 L 2636.85,1811.28 L 2596.96,1776.08 L 2547.71,1761.48 L 2596.97,1776.07 L 2636.86,1811.28 L 2594.54,1840.34 L 2543.28,1856.12 L 2490.46,1843.20 L 2436.69,1823.36 L 2461.81,1777.03 L 2520.60,1768.11 L 2441.03,1813.83 L 2488.93,1835.21 L 2544.36,1850.71 L 2606.53,1833.76 L 2601.87,1782.53 L 2554.30,1766.90 L 2496.84,1765.95 L 2453.52,1796.48 L 2496.83,1765.95 L 2554.29,1766.91 L 2601.85,1782.53 L 2615.04,1831.47 L 2563.31,1840.85 L 2512.39,1852.10 L 2458.85,1833.29 M 2209.62,893.59 L 2156.37,895.76 L 2123.22,939.46 L 2172.03,965.72 L 2232.28,981.60 L 2283.54,965.82 L 2325.87,936.75 L 2285.98,901.54 L 2236.72,886.95 L 2285.99,901.54 L 2325.88,936.76 L 2283.56,965.82 L 2232.29,981.61 L 2179.47,968.69 L 2125.71,948.84 L 2150.82,902.52 L 2209.62,893.59 L 2130.05,939.30 L 2177.94,960.68 L 2233.38,976.18 L 2295.55,959.23 L 2290.88,908.00 L 2243.31,892.37 L 2185.85,891.42 L 2142.53,921.96 L 2185.85,891.43 L 2243.31,892.38 L 2290.88,908.01 L 2304.07,956.95 L 2252.34,966.32 L 2201.41,977.58 L 2147.87,958.77 M 2606.05,1938.18 L 2645.20,1904.97 L 2606.78,1870.31 L 2555.35,1892.16 L 2589.40,1935.93 L 2543.00,1911.86 L 2586.13,1875.12 L 2637.51,1878.70 L 2637.11,1931.96 L 2630.30,1880.05 L 2574.36,1889.63 L 2606.86,1933.46 L 2557.14,1919.69 L 2590.27,1878.49 L 2638.70,1893.75 M 1463.35,1914.68 L 1517.78,1917.67 L 1550.38,1878.97 L 1495.85,1861.73 L 1442.30,1873.26 L 1491.89,1861.96 L 1546.03,1872.13 L 1517.78,1917.67 L 1463.35,1914.68 L 1513.51,1914.76 L 1505.70,1865.25 L 1452.06,1870.95 L 1477.45,1916.27 L 1452.05,1870.95 L 1505.69,1865.25 L 1513.51,1914.76 M 2799.11,1791.14 L 2753.03,1844.98 L 2728.60,1777.26 L 2799.11,1791.14 L 2735.29,1777.16 L 2744.82,1843.46 L 2830.79,1806.34 L 2735.29,1777.16 M 2950.50,1762.72 L 2856.58,1774.15 L 2922.28,1718.92 L 2950.50,1762.72 L 2853.18,1769.11 L 2952.44,1788.10 L 2926.65,1722.17 M 1216.43,1828.81 L 1170.34,1882.65 L 1145.92,1814.92 L 1216.43,1828.81 L 1152.60,1814.82 L 1162.13,1881.12 L 1248.10,1844.01 L 1152.60,1814.82 M 600.00,600.00 L 3400.00,600.00 L 3400.00,2400.00 L 600.00,2400.00 L 600.00,600.00" fill="none" stroke="black" stroke-width="2" stroke-linecap="round" stroke-linejoin="round"/>
    </svg>