<svg width="4000" height="3000" xmlns="http://www.w3.org/2000/svg" viewBox="0 0 4000 3000">
      <path d="M 1512.56,701.98 L 1509.62,707.28 M 1496.37,703.97 L 1503.73,709.92 L 1503.73,720.51 L 1506.67,725.80 L 1508.15,730.43 L 1506.67,735.72 L 1508.15,740.35 L 1511.09,744.98 L 1509.62,750.27 L 1509.62,754.90 L 1511.09,760.19 L 1511.09,766.15 L 1518.45,793.27 L 1516.98,798.56 L 1516.98,815.10 L 1519.92,820.39 L 1519.92,830.97 M 1533.17,829.65 L 1521.39,832.30 L 1509.62,832.96 L 1497.84,828.33 L 1487.54,827.67 L 1475.76,830.31 L 1462.51,839.57 L 1455.15,846.19 L 1449.26,850.82 L 1455.15,844.86 L 1456.62,839.57 L 1463.98,835.60 L 1472.82,830.31 M 1462.51,834.28 L 1450.74,842.88 L 1438.96,850.16 L 1428.66,854.12 L 1416.88,858.09 L 1405.10,858.75 L 1393.33,858.09 L 1381.55,862.72 M 1374.19,868.02 L 1363.89,872.65 L 1350.64,877.94 L 1338.86,885.21 L 1325.61,887.86 L 1313.84,893.81 M 1318.25,898.44 L 1316.78,903.74 M 1299.12,904.40 L 1293.23,908.37 L 1281.45,912.33 L 1285.87,913.00 L 1277.04,911.67 L 1300.59,906.38 L 1294.70,903.07 L 1297.64,897.12 L 1307.95,891.17 L 1305.00,893.81 L 1294.70,899.77 M 1252.01,906.38 L 1240.24,907.70 M 1224.04,913.66 L 1218.16,908.37 L 1219.63,902.41 L 1204.91,901.09 M 1187.24,893.81 L 1194.60,899.11 L 1197.55,910.35 L 1196.07,915.64 M 1184.30,910.35 L 1182.83,905.06 L 1181.35,905.06 M 1173.99,895.80 L 1187.24,893.81 L 1210.79,902.41 L 1213.74,907.70 L 1207.85,913.00 M 1254.96,914.98 L 1243.18,914.98 L 1210.79,913.66 L 1193.13,914.98 L 1175.47,914.32 L 1171.05,897.78 L 1175.47,892.49 M 1151.91,921.60 L 1140.14,922.26 L 1129.83,919.61 L 1119.53,922.26 L 1107.75,922.92 L 1094.50,921.60 L 1081.26,923.58 L 1056.23,923.58 L 1044.46,917.63 M 1073.90,910.35 L 1062.12,904.40 M 1062.12,901.75 L 1073.90,903.74 M 1076.84,905.72 L 1078.31,902.41 L 1076.84,896.46 L 1075.37,896.46 M 1087.14,895.80 L 1090.09,901.09 L 1088.62,906.38 L 1094.50,911.67 M 1062.12,911.01 L 1056.23,906.38 L 1053.29,901.09 L 1056.23,895.80 L 1055.58,894.92 L 1054.92,894.03 M 1057.70,896.46 L 1059.18,901.75 L 1069.48,909.03 L 1082.73,914.32 M 1063.59,913.00 L 1051.82,902.41 M 1050.34,889.18 L 1038.57,882.57 M 1028.26,878.60 L 1030.23,880.36 L 1031.21,881.25 L 1037.10,885.88 L 1038.57,891.17 L 1042.98,895.80 L 1041.51,901.09 L 1041.51,906.38 L 1040.04,911.67 L 1042.98,916.96 M 967.91,922.26 L 956.13,920.27 M 994.41,919.61 L 991.46,914.32 L 991.46,909.03 L 992.93,903.74 L 989.99,898.44 L 987.05,888.52 L 992.93,883.23 L 988.52,877.94 L 973.80,872.65 L 964.97,870.66 L 964.15,869.56 L 963.49,868.68 L 950.25,870.00 M 951.72,872.65 L 963.49,871.98 L 982.63,876.61 M 991.46,885.88 L 994.41,891.17 L 997.35,901.75 L 1000.29,907.04 L 1003.24,916.96 M 972.33,914.98 L 969.38,910.35 L 967.91,905.06 L 967.91,894.47 L 964.97,889.84 L 957.61,888.52 L 947.30,891.17 M 951.72,889.18 L 948.77,894.47 L 948.77,899.77 L 950.25,905.06 L 953.19,910.35 L 954.66,915.64 L 956.13,922.26 L 964.97,919.61 M 941.41,945.41 L 953.19,948.72 M 937.00,945.41 L 951.72,950.70 L 959.08,956.65 L 962.02,961.95 L 967.91,966.58 L 984.10,971.87 L 979.69,977.82 L 988.52,979.14 L 998.82,979.81 L 1010.60,981.79 L 1022.37,985.10 M 1013.54,981.79 L 1029.74,987.08 L 1037.10,992.37 L 1037.10,997.67 L 1034.15,1002.96 L 1044.46,1000.97 L 1079.78,998.99 L 1090.09,998.99 L 1101.86,998.33 L 1113.64,1002.30 M 1122.47,1002.30 L 1112.17,997.00 M 1135.72,1002.96 L 1125.42,1007.59 L 1137.19,1005.60 L 1144.55,1002.30 L 1154.86,1000.97 L 1166.63,1000.31 L 1178.41,1000.31 M 1143.08,1004.94 L 1154.86,1004.94 L 1168.11,1004.28 L 1193.13,1004.28 L 1204.91,1004.94 L 1218.16,1003.62 M 1225.52,998.33 L 1221.10,1003.62 L 1231.40,1004.28 L 1244.65,1004.28 L 1256.43,1002.96 L 1275.56,998.99 M 1278.51,995.68 L 1272.62,1000.31 L 1266.73,1006.26 L 1262.32,1012.22 L 1260.84,1018.17 M 1269.68,1012.22 L 1281.45,1000.97 L 1293.23,1000.31 L 1305.00,1002.96 M 1319.73,1015.53 L 1305.00,1019.49 L 1293.23,1026.11 M 1287.34,1032.72 L 1299.12,1041.32 M 1294.70,1034.71 L 1307.95,1038.68 L 1319.73,1036.69 L 1332.97,1037.35 M 1296.17,1040.66 L 1288.81,1035.37 L 1284.40,1030.08 L 1282.92,1024.12 L 1285.87,1019.49 M 1277.04,1030.74 L 1288.81,1040.00 L 1300.59,1045.29 L 1312.37,1047.28 L 1316.78,1055.21 L 1328.56,1057.86 M 1297.64,1052.57 L 1285.87,1047.28 M 1282.92,1047.28 L 1293.23,1052.57 L 1306.48,1058.52 L 1306.48,1063.81 L 1303.53,1069.11 L 1302.06,1074.40 M 1281.45,1061.83 L 1293.23,1071.75 L 1305.00,1082.33 L 1316.78,1091.60 L 1328.56,1100.19 L 1340.33,1108.13 L 1350.64,1116.07 L 1360.94,1122.68 L 1371.25,1129.96 L 1383.02,1137.24 L 1406.58,1150.47 L 1419.82,1156.42 L 1433.07,1161.71 L 1466.93,1176.93 M 1465.46,1186.19 L 1453.68,1184.20 L 1440.43,1180.89 L 1428.66,1176.26 L 1415.41,1176.26 M 1431.60,1174.94 L 1430.13,1180.23 L 1453.68,1182.22 M 1484.59,1168.33 L 1471.34,1163.70 L 1459.57,1159.07 L 1425.71,1141.87 L 1413.94,1135.25 L 1421.30,1139.88 L 1431.60,1144.51 L 1452.21,1155.10 L 1463.98,1160.39 L 1477.23,1165.68 M 1475.76,1183.54 L 1466.93,1177.59 L 1456.62,1172.96 L 1443.38,1167.67 L 1433.07,1162.37 L 1422.77,1156.42 L 1410.99,1151.79 L 1402.16,1147.16 L 1393.33,1141.87 L 1383.02,1136.58 L 1375.66,1130.62 L 1365.36,1125.33 L 1358.00,1120.04 L 1340.33,1109.46 L 1331.50,1103.50 L 1324.14,1098.21 L 1318.25,1093.58 L 1309.42,1088.29 L 1291.76,1072.41 L 1284.40,1067.12 L 1279.98,1061.83 L 1277.04,1056.54 L 1272.62,1051.25 L 1265.26,1045.95 L 1252.01,1041.32 L 1240.24,1040.00 M 1263.79,1042.65 L 1275.56,1049.26 M 1249.07,1017.51 L 1238.76,1018.83 L 1244.65,1017.51 M 1260.84,998.99 L 1249.07,996.34 M 1256.43,998.33 L 1249.07,997.67 L 1241.71,997.67 L 1237.29,995.02 L 1225.52,996.34 M 1269.68,996.34 L 1263.79,1000.97 L 1269.68,996.34 L 1281.45,995.68 L 1299.12,998.33 L 1310.89,996.34 L 1322.67,991.05 M 1330.03,989.07 L 1316.78,994.36 L 1327.09,998.33 L 1338.86,997.00 M 1319.73,1016.19 L 1303.53,1021.48 L 1299.12,1026.77 L 1297.64,1032.06 L 1300.59,1038.02 M 1343.28,1034.71 L 1332.97,1029.42 L 1331.50,1024.12 L 1327.09,1018.83 M 1387.44,991.05 L 1399.21,988.40 L 1410.99,986.42 L 1433.07,983.77 M 1443.38,977.16 L 1453.68,975.18 L 1465.46,977.16 L 1477.23,974.51 L 1489.01,969.88 L 1502.26,967.24 L 1515.51,965.91 L 1539.06,964.59 L 1550.83,964.59 L 1564.08,965.25 L 1587.63,967.90 L 1597.94,970.54 L 1609.72,973.85 L 1620.02,978.48 L 1631.80,987.08 L 1647.99,993.04 M 1650.93,997.67 L 1645.04,999.65 L 1656.82,998.33 L 1668.60,1000.31 L 1681.84,1006.93 M 1693.62,1007.59 L 1706.87,998.33 L 1718.65,993.70 L 1727.48,994.36 L 1714.23,996.34 L 1703.93,1001.63 L 1698.04,1006.93 L 1695.09,1012.22 M 1692.15,1014.86 L 1717.17,1017.51 L 1728.95,1014.20 L 1731.89,1011.56 L 1723.06,1016.85 L 1739.25,1018.17 M 1752.50,1014.20 L 1742.20,1008.91 M 1751.03,1012.22 L 1739.25,1007.59 L 1724.53,1005.60 L 1724.53,1010.23 L 1724.53,1004.94 M 1739.25,1003.62 L 1755.45,1008.91 M 1764.28,1018.17 L 1776.05,1020.82 L 1789.30,1018.17 L 1812.86,1015.53 L 1781.94,1020.16 M 1774.58,1027.43 L 1786.36,1026.77 L 1799.61,1024.79 L 1811.38,1023.46 M 1826.10,1022.80 L 1834.94,1022.14 L 1831.99,1027.43 L 1827.58,1032.72 L 1821.69,1038.68 L 1812.86,1043.97 L 1799.61,1049.26 L 1808.44,1045.95 L 1820.22,1039.34 L 1831.99,1027.43 M 1842.30,1032.72 L 1829.05,1043.31 L 1817.27,1049.92 L 1806.97,1055.21 L 1793.72,1058.52 L 1770.17,1062.49 L 1758.39,1074.40 L 1736.31,1100.19 L 1714.23,1122.68 L 1703.93,1131.95 L 1692.15,1139.88 M 1703.93,1135.25 L 1705.40,1139.88 L 1705.40,1150.47 L 1702.45,1160.39 L 1703.93,1165.02 L 1702.45,1170.31 L 1703.93,1175.60 M 1718.65,1179.57 L 1730.42,1186.19 L 1742.20,1190.16 L 1767.22,1200.08 M 1781.94,1208.02 L 1792.25,1200.08 L 1804.02,1198.09 L 1814.33,1198.09 L 1826.10,1202.06 M 1811.38,1198.75 L 1827.58,1203.39 L 1830.52,1208.68 L 1831.99,1213.97 L 1834.94,1219.26 L 1834.94,1229.84 L 1837.88,1234.47 L 1837.88,1239.77 L 1842.30,1244.40 L 1845.24,1250.35 L 1848.18,1255.64 L 1854.07,1260.93 L 1857.02,1269.53 L 1861.43,1275.49 L 1870.26,1286.07 L 1882.04,1297.98 L 1887.93,1303.27 M 1886.46,1299.96 L 1874.68,1287.39 L 1862.90,1276.15 M 1823.16,1276.81 L 1824.63,1271.52 L 1823.16,1266.23 L 1820.22,1264.24 M 1768.69,1295.99 L 1756.92,1298.64 L 1730.42,1288.05 L 1720.12,1281.44 L 1708.34,1276.81 L 1696.57,1272.84 L 1683.32,1268.87 L 1671.54,1264.24 L 1637.68,1249.03 L 1624.44,1245.06 L 1614.13,1240.43 L 1600.88,1236.46 L 1589.11,1234.47 L 1577.33,1234.47 L 1565.55,1237.12 L 1553.78,1244.40 M 1556.72,1250.35 L 1568.50,1257.63 L 1580.27,1263.58 L 1617.08,1280.12 L 1628.85,1284.75 L 1640.63,1292.02 M 1668.60,1296.65 L 1669.58,1296.43 L 1670.56,1296.21 L 1671.54,1295.99 L 1670.07,1301.95 L 1667.12,1306.58 L 1677.43,1313.19 L 1690.68,1316.50 M 1692.15,1303.93 L 1703.93,1310.54 L 1714.23,1314.51 L 1724.53,1319.14 L 1734.84,1322.45 L 1745.14,1326.42 M 1784.89,1329.07 L 1796.66,1333.04 L 1809.91,1339.65 L 1823.16,1344.28 L 1833.46,1350.89 L 1857.02,1360.16 M 1946.81,1366.77 L 1943.87,1372.06 L 1949.75,1382.65 L 1955.64,1387.94 L 1957.11,1393.23 L 1960.06,1398.52 L 1965.95,1403.15 L 1968.89,1408.44 L 1973.31,1413.74 M 1980.67,1406.46 L 1992.44,1405.80 M 1977.72,1412.41 L 1965.95,1398.52 M 1983.61,1384.63 L 1993.92,1385.29 L 2005.69,1390.58 L 2018.94,1390.58 L 2030.72,1391.91 L 2042.49,1397.86 M 2038.08,1392.57 L 2017.47,1387.28 M 1988.03,1361.48 L 2001.28,1364.79 L 2013.05,1367.43 L 2024.83,1368.75 L 2063.10,1366.77 L 2076.35,1368.75 L 2088.13,1369.42 L 2099.90,1370.74 L 2111.68,1374.71 L 2123.45,1378.02 L 2135.23,1381.98 L 2145.53,1384.63 L 2167.62,1384.63 L 2179.39,1385.29 L 2189.70,1387.28 M 2186.75,1385.95 L 2195.58,1391.25 L 2200.00,1397.86 M 2151.42,1386.61 L 2129.34,1381.32 L 2096.96,1370.74 M 2094.01,1335.68 L 2082.24,1335.02 L 2068.99,1336.34 L 2058.68,1337.67 L 2045.44,1343.62 L 2021.88,1348.91 L 2010.11,1352.88 L 1998.33,1355.53 L 1988.03,1358.83 M 1983.61,1365.45 L 1971.84,1365.45 L 1960.06,1366.11 L 1948.28,1366.11 M 1982.14,1333.04 L 1993.92,1338.99 L 2018.94,1342.96 L 2032.19,1344.28 M 2038.08,1335.02 L 2026.30,1337.67 L 2014.52,1333.70 M 2002.75,1333.04 L 2014.52,1327.08 L 2026.30,1327.08 M 2018.94,1324.44 L 2007.16,1329.73 L 2026.30,1336.34 L 2042.49,1335.02 M 2058.68,1336.34 L 2045.44,1341.63 L 2004.22,1352.22 L 1988.03,1358.17 L 2002.75,1363.46 M 2020.41,1342.30 L 1990.97,1337.00 L 1986.56,1331.71 M 2051.32,1328.40 L 2046.91,1330.39 L 2052.80,1327.08 L 2055.74,1321.79 L 2054.27,1315.84 M 2108.73,1327.74 L 2102.85,1333.04 L 2104.32,1332.37 L 2116.09,1329.73 L 2127.87,1329.07 L 2139.65,1327.74 L 2149.95,1327.08 L 2161.73,1324.44 L 2173.50,1323.11 L 2185.28,1323.77 L 2197.06,1321.13 M 2198.53,1254.32 L 2192.64,1249.03 L 2188.22,1243.07 L 2186.75,1237.12 L 2189.70,1226.54 L 2192.64,1221.25 L 2197.06,1215.95 L 2198.53,1206.03 L 2185.28,1204.05 L 2173.50,1202.72 L 2161.73,1200.74 L 2126.40,1196.77 L 2114.62,1194.79 L 2104.32,1192.80 M 2144.06,1197.43 L 2179.39,1202.72 M 2082.24,1224.55 L 2071.93,1221.25 L 2058.68,1219.26 L 2046.91,1216.61 L 2036.60,1214.63 L 2024.83,1211.98 L 2013.05,1211.98 L 2013.05,1216.61 L 2011.58,1221.91 M 2018.94,1211.98 L 2043.96,1217.28 L 2071.93,1222.57 L 2091.07,1227.86 L 2094.01,1238.44 L 2095.49,1243.07 L 2098.43,1248.37 L 2098.43,1253.00 L 2101.37,1258.29 L 2101.37,1268.87 L 2098.43,1274.82 M 2068.99,1225.21 L 2057.21,1226.54 L 2045.44,1228.52 L 2035.13,1231.83 L 2023.36,1235.14 L 2011.58,1236.46 L 1999.80,1235.14 L 1988.03,1235.14 L 1974.78,1235.80 L 1963.00,1235.80 L 1949.75,1238.44 L 1936.51,1243.07 L 1924.73,1253.00 M 1911.48,1260.27 L 1923.26,1262.92 M 1908.54,1259.61 L 1920.31,1264.90 L 1939.45,1270.19 M 1957.11,1234.47 L 1939.45,1240.43 L 1927.67,1251.01 L 1924.73,1256.30 L 1921.79,1262.26 L 1930.62,1268.21 L 1942.39,1270.86 L 1989.50,1276.15 L 2023.36,1278.13 L 2063.10,1278.13 L 2074.88,1276.81 L 2088.13,1276.15 M 2030.72,1230.51 L 2052.80,1224.55 M 2001.28,1206.69 L 1989.50,1209.34 L 1977.72,1211.32 L 1965.95,1211.98 L 1952.70,1211.32 L 1940.92,1208.68 L 1929.15,1211.98 L 1915.90,1212.65 L 1902.65,1213.97 L 1890.87,1214.63 L 1889.40,1218.60 L 1890.87,1223.89 L 1893.82,1229.84 M 1848.18,1224.55 L 1836.41,1223.23 M 1801.08,1222.57 L 1800.10,1222.13 L 1798.14,1221.25 L 1793.72,1215.95 L 1790.78,1211.32 L 1789.30,1206.69 M 1798.14,1199.42 L 1784.89,1205.37 L 1780.47,1210.66 L 1776.05,1215.29 L 1774.58,1219.92 L 1774.58,1225.21 L 1776.05,1229.84 L 1779.00,1235.14 L 1777.53,1239.77 L 1777.53,1255.64 L 1779.00,1261.60 L 1779.00,1272.84 L 1780.47,1278.13 L 1780.47,1288.72 L 1774.58,1293.35 L 1765.75,1298.64 M 1715.70,1291.36 L 1703.93,1298.64 L 1704.91,1298.20 L 1705.89,1297.76 L 1706.87,1297.32 L 1715.70,1292.68 L 1700.98,1295.99 L 1689.21,1303.27 M 1675.96,1305.25 L 1687.73,1295.99 L 1699.51,1289.38 L 1692.15,1292.68 L 1684.79,1298.64 L 1678.90,1303.93 L 1675.96,1312.53 L 1690.68,1317.16 M 1693.62,1318.48 L 1668.60,1317.16 L 1645.04,1318.48 L 1633.27,1324.44 M 1633.27,1330.39 L 1646.52,1338.33 L 1658.29,1336.34 M 1652.40,1348.25 L 1662.71,1356.19 L 1674.48,1358.83 L 1684.79,1361.48 L 1695.09,1365.45 L 1705.40,1368.75 L 1717.17,1372.72 M 1749.56,1366.11 L 1761.33,1370.74 L 1773.11,1380.00 L 1784.89,1385.29 L 1796.66,1391.25 M 1789.30,1387.94 L 1779.00,1382.65 L 1771.64,1376.69 L 1765.75,1371.40 L 1752.50,1366.11 M 1720.12,1378.02 L 1709.81,1372.72 L 1698.04,1368.09 L 1686.26,1365.45 L 1674.48,1362.14 L 1662.71,1360.16 L 1650.93,1360.82 L 1639.16,1369.42 M 1640.63,1375.37 L 1652.40,1384.63 L 1665.65,1390.58 L 1677.43,1393.89 L 1689.21,1396.54 L 1711.29,1406.46 L 1721.59,1417.04 L 1745.14,1436.89 L 1756.92,1446.15 L 1780.47,1458.05 L 1792.25,1462.68 L 1804.02,1466.65 L 1817.27,1469.96 M 1840.82,1489.14 L 1851.13,1494.44 L 1864.38,1500.39 L 1884.99,1505.68 L 1890.87,1510.97 L 1890.87,1515.60 L 1898.23,1518.25 L 1902.65,1515.60 L 1914.43,1516.26 L 1927.67,1516.26 L 1940.92,1518.25 L 1951.23,1512.96 L 1970.36,1510.31 M 1963.00,1513.62 L 1958.59,1512.96 L 1974.78,1509.65 L 1974.78,1504.36 M 1935.03,1527.51 L 1954.17,1534.12 L 1945.34,1536.11 L 1945.34,1541.40 L 1942.39,1546.69 M 1943.87,1531.48 L 1955.64,1532.80 L 1967.42,1532.14 L 1977.72,1532.14 L 1989.50,1531.48 L 1992.44,1533.46 L 1971.84,1538.75 L 1943.87,1543.39 L 1967.42,1540.74 L 1980.67,1535.45 L 1992.44,1532.80 M 1942.39,1512.96 L 1929.15,1513.62 L 1915.90,1513.62 L 1904.12,1512.96 L 1887.93,1511.63 L 1862.90,1505.68 L 1839.35,1496.42 L 1826.10,1495.76 M 1831.99,1493.77 L 1831.99,1499.07 L 1836.41,1504.36 L 1848.18,1508.99 L 1858.49,1513.62 L 1874.68,1520.23 L 1879.10,1526.85 L 1901.18,1532.80 L 1904.12,1538.75 L 1914.43,1542.72 M 1895.29,1541.40 L 1884.99,1538.75 L 1871.74,1536.11 L 1859.96,1532.80 L 1848.18,1528.83 L 1837.88,1520.89 L 1826.10,1516.26 M 1827.58,1514.28 L 1839.35,1516.93 L 1862.90,1524.86 L 1910.01,1532.80 L 1920.31,1534.79 M 1924.73,1538.75 M 1884.99,1517.59 L 1873.21,1510.31 L 1849.66,1502.37 L 1851.13,1503.70 L 1865.85,1508.99 L 1877.63,1514.28 L 1882.04,1519.57 L 1881.06,1520.01 L 1890.87,1522.22 L 1914.43,1523.54 L 1926.20,1525.53 M 1870.26,1516.26 L 1858.49,1513.62 L 1848.18,1508.99 L 1837.88,1503.70 M 1839.35,1500.39 L 1849.66,1497.74 L 1849.66,1503.04 L 1871.74,1506.34 L 1884.99,1512.30 M 1864.38,1523.54 L 1843.77,1518.25 L 1834.94,1512.96 M 1827.58,1511.63 L 1833.46,1516.26 L 1843.77,1522.22 L 1855.54,1528.17 L 1870.26,1534.12 L 1895.29,1539.42 M 1839.35,1491.79 L 1849.66,1497.08 L 1861.43,1501.05 L 1873.21,1504.36 L 1883.51,1507.00 L 1895.29,1508.99 L 1920.31,1510.31 L 1932.09,1510.31 L 1943.87,1507.00 L 1968.89,1494.44 L 1980.67,1486.50 L 1992.44,1476.58 M 2007.16,1450.78 L 2010.11,1455.41 L 2010.11,1463.35 L 2008.64,1470.62 L 2011.58,1475.91 L 2002.75,1481.87 L 1996.86,1487.16 L 2002.75,1487.82 L 1989.50,1493.77 L 1990.97,1499.73 L 1979.20,1505.02 L 1986.56,1505.02 L 1976.25,1510.97 L 1974.78,1505.02 M 2051.32,1480.54 L 2039.55,1466.65 L 2026.30,1458.72 L 2014.52,1448.13 M 2021.88,1445.49 L 2043.96,1446.81 M 2048.38,1440.86 L 2036.60,1438.21 L 2024.83,1440.86 L 2013.05,1438.87 M 2038.08,1438.87 L 2048.38,1444.82 M 2043.96,1434.90 L 2046.91,1430.27 L 2041.02,1432.92 M 2045.44,1428.29 L 2048.38,1433.58 L 2052.80,1438.87 M 1993.92,1427.63 L 2005.69,1432.92 L 2010.11,1435.56 L 2013.05,1440.19 L 2018.94,1446.15 L 2018.94,1451.44 L 2024.83,1456.07 L 2042.49,1465.33 L 2048.38,1469.96 L 2052.80,1474.59 L 2055.74,1480.54 L 2058.68,1485.84 L 2060.16,1491.13 L 2060.16,1496.42 L 2061.63,1501.71 L 2066.05,1505.68 L 2091.07,1507.00 L 2135.23,1507.00 L 2158.78,1504.36 L 2169.09,1503.70 L 2180.86,1500.39 L 2192.64,1498.40 L 2173.50,1501.05 M 1990.97,1424.98 L 1995.39,1430.27 L 1998.33,1435.56 L 1999.80,1441.52 L 2002.75,1446.81 L 2001.28,1452.10 L 2001.28,1463.35 L 1999.80,1468.64 L 1996.86,1474.59 L 1985.08,1485.18 L 1976.25,1489.81 L 1948.28,1506.34 L 1951.23,1511.63 L 1949.75,1515.60 L 1940.92,1520.89 L 1937.98,1528.83 L 1937.98,1534.79 L 1939.45,1539.42 L 1939.45,1544.71 L 1940.92,1550.00 M 1483.12,1530.82 L 1478.70,1536.11 L 1475.76,1541.40 L 1472.82,1546.03 M 1494.90,1477.24 L 1503.73,1466.65 L 1505.20,1461.36 L 1502.26,1465.33 M 1506.67,1460.04 L 1500.79,1470.62 L 1496.37,1475.91 M 1647.99,1360.82 L 1640.63,1366.11 L 1636.21,1370.74 L 1639.16,1376.03 L 1643.57,1381.32 L 1652.40,1385.95 L 1662.71,1391.91 L 1681.84,1397.20 L 1696.57,1402.49 L 1708.34,1408.44 L 1715.70,1413.07 L 1720.12,1419.03 L 1726.01,1424.32 L 1733.37,1428.95 L 1737.78,1434.24 L 1743.67,1439.53 L 1751.03,1444.82 L 1773.11,1454.75 L 1783.42,1460.04 L 1799.61,1465.33 L 1815.80,1469.96 M 1726.01,1380.00 L 1711.29,1374.71 L 1677.43,1364.12 L 1653.88,1359.49 M 1717.17,1372.72 L 1680.37,1362.14 L 1656.82,1356.85 L 1647.99,1351.56 L 1643.57,1345.60 L 1643.57,1340.31 L 1634.74,1334.36 L 1630.32,1329.07 L 1631.80,1323.11 L 1645.04,1317.82 M 1706.87,1292.68 L 1695.09,1297.98 L 1687.73,1303.27 L 1690.68,1307.90 L 1699.51,1312.53 L 1714.23,1317.16 L 1733.37,1322.45 L 1749.56,1327.74 M 1786.36,1329.73 L 1811.38,1339.65 L 1823.16,1344.94 L 1831.99,1350.23 L 1859.96,1361.48 M 2011.58,1203.39 L 2008.64,1193.46 L 2008.64,1177.59 L 2007.16,1172.30 L 2007.16,1166.34 L 2005.69,1161.05 L 2005.69,1155.76 L 2007.16,1150.47 L 2007.16,1145.84 L 2005.69,1140.54 L 2005.69,1129.96 L 2004.22,1124.67 L 2004.22,1114.09 L 2002.75,1108.79 L 2004.22,1104.16 L 2004.22,1093.58 L 2002.75,1087.63 L 2002.75,1082.33 L 2001.28,1077.04 L 2001.28,1071.75 L 1998.33,1066.46 L 1998.33,1055.21 L 1996.86,1049.92 L 1996.86,1040.00 L 1993.92,1034.71 L 1992.44,1029.42 L 1995.39,1023.46 L 1992.44,1012.88 L 1993.92,1006.93 L 1993.92,1000.97 L 1992.44,995.68 L 1993.92,990.39 L 1990.97,985.10 L 1990.97,979.14 L 1989.50,973.85 L 1989.50,958.64 L 1990.97,954.01 L 1989.50,949.38 L 1989.50,939.46 L 1986.56,934.16 L 1986.56,924.24 L 1985.08,918.29 L 1985.08,907.70 L 1983.61,902.41 L 1980.67,897.12 L 1980.67,891.83 L 1977.72,881.25 L 1977.72,875.95 L 1976.25,870.66 L 1976.25,849.49 L 1971.84,833.62 L 1971.84,828.33 L 1970.36,823.70 L 1970.36,818.40 L 1968.89,813.11 L 1970.36,807.16 L 1967.42,801.87 L 1965.95,796.58 L 1965.95,768.79 L 1967.42,763.50 L 1964.47,752.26 L 1964.47,746.96 L 1965.95,741.67 L 1964.47,736.38 L 1965.95,731.09 L 1961.53,715.88 L 1960.06,710.58 L 1958.59,705.95 L 1948.28,705.29 L 1936.51,703.31 L 1924.73,702.65 L 1912.95,703.31 L 1873.21,703.31 L 1859.96,702.65 L 1834.94,702.65 L 1824.63,701.98 L 1814.33,701.98 L 1804.02,701.32 L 1783.42,701.32 L 1771.64,701.98 L 1759.86,701.98 L 1746.61,700.66 L 1723.06,701.98 L 1699.51,700.66 L 1687.73,701.32 L 1664.18,701.32 L 1652.40,700.66 L 1627.38,701.98 L 1603.83,701.98 L 1580.27,700.66 L 1546.42,700.66 L 1534.64,700.00 L 1522.87,700.00 L 1511.09,701.32 L 1499.31,700.66 M 1592.05,726.46 L 1592.05,737.04 L 1593.52,741.67 L 1592.05,746.30 L 1592.05,750.93 L 1593.52,756.23 L 1593.52,760.86 L 1595.00,766.15 L 1595.00,782.02 L 1596.47,787.32 L 1596.47,793.27 L 1600.88,809.14 L 1599.41,814.44 L 1599.41,825.02 L 1600.88,829.65 L 1605.30,832.30 M 1637.68,827.67 L 1650.93,833.62 L 1661.24,834.94 L 1671.54,840.89 M 1687.73,836.26 L 1700.98,842.22 L 1715.70,848.17 M 1708.34,895.80 L 1721.59,901.75 L 1734.84,906.38 L 1752.50,916.96 L 1759.86,922.26 L 1765.75,927.55 L 1770.17,932.84 L 1773.11,938.79 L 1774.58,943.42 L 1776.05,949.38 L 1777.53,954.67 L 1780.47,959.96 L 1780.47,965.91 L 1779.00,971.21 L 1777.53,975.84 M 1768.69,976.50 L 1762.81,971.21 M 1786.36,971.87 L 1770.17,973.19 L 1746.61,971.87 L 1734.84,969.88 L 1721.59,971.21 L 1709.81,974.51 L 1703.93,974.51 L 1727.48,969.22 M 1737.78,985.76 L 1712.76,991.05 L 1700.98,996.34 L 1695.09,1002.30 L 1690.68,1007.59 L 1686.26,1016.19 L 1698.04,1025.45 L 1708.34,1030.74 M 1705.40,1046.61 L 1711.29,1051.25 M 1681.84,1059.84 L 1670.07,1061.83 L 1678.90,1060.51 M 1684.79,1064.47 L 1673.01,1067.12 M 1637.68,1053.89 L 1625.91,1051.91 L 1614.13,1051.25 L 1602.36,1052.57 L 1592.05,1053.23 L 1578.80,1048.60 M 1583.22,1044.63 L 1595.00,1038.02 L 1606.77,1032.72 L 1602.36,1035.37 L 1590.58,1041.32 L 1583.22,1046.61 L 1569.97,1050.58 L 1568.50,1055.88 L 1578.80,1061.17 M 1571.44,1055.21 L 1583.22,1059.18 L 1608.24,1063.15 L 1631.80,1064.47 L 1643.57,1065.80 M 1643.57,1062.49 L 1643.57,1057.20 L 1630.32,1052.57 M 1578.80,1050.58 L 1567.03,1049.92 M 1546.42,1043.97 L 1558.19,1043.31 L 1571.44,1040.66 L 1584.69,1036.69 L 1578.80,1038.02 M 1589.11,1021.48 L 1586.16,1018.83 L 1575.86,1013.54 L 1592.05,1011.56 L 1590.74,1012.73 L 1589.11,1014.20 L 1577.33,1014.20 M 1592.05,1000.97 L 1583.22,995.02 L 1564.08,989.73 L 1539.06,991.05 M 1550.83,991.05 L 1543.47,996.34 L 1543.96,997.67 L 1544.95,1000.31 L 1556.72,1000.31 M 1568.50,1000.31 L 1561.14,995.02 M 1592.05,986.42 L 1603.83,989.73 M 1597.94,984.44 L 1608.24,990.39 L 1611.19,995.02 M 1593.52,1003.62 L 1581.75,996.34 L 1568.50,993.70 L 1556.72,991.05 L 1531.70,987.08 L 1519.92,987.74 L 1509.62,987.74 L 1499.31,988.40 L 1487.54,989.73 L 1499.31,987.74 M 1503.73,990.39 L 1509.62,996.34 M 1494.90,991.05 L 1506.67,993.70 L 1518.45,998.33 L 1531.70,998.99 L 1543.47,996.34 L 1552.31,991.71 L 1562.61,994.36 M 1562.61,983.11 L 1549.36,981.79 L 1537.59,981.79 M 1539.06,969.22 L 1565.55,974.51 L 1584.69,973.19 L 1608.24,978.48 L 1620.02,985.76 M 1625.91,981.79 L 1640.63,992.37 L 1636.21,998.33 L 1634.74,1004.28 L 1630.32,1009.57 L 1624.44,1014.86 L 1617.08,1020.16 L 1609.72,1026.11 L 1621.49,1018.83 M 1662.71,999.65 L 1674.48,1004.94 M 1675.96,997.00 L 1683.32,1001.63 L 1683.32,1012.22 L 1686.26,1017.51 L 1692.15,1023.46 L 1703.93,1028.75 M 1702.45,1003.62 L 1724.53,1003.62 L 1736.31,1004.94 L 1749.56,1008.25 L 1762.81,1012.88 M 1762.81,989.73 L 1773.11,988.40 L 1784.89,989.73 L 1809.91,995.02 L 1821.69,999.65 L 1833.46,1005.60 M 1798.14,993.04 L 1820.22,998.33 L 1831.99,1003.62 L 1837.88,1008.91 L 1842.30,1014.20 L 1842.30,1019.49 L 1839.35,1024.79 L 1833.46,1030.74 L 1820.22,1042.65 L 1811.38,1048.60 L 1795.19,1053.89 M 1840.82,1039.34 L 1839.35,1045.29 L 1840.82,1049.92 L 1840.82,1065.14 L 1842.30,1070.43 L 1842.30,1081.01 L 1843.77,1086.30 L 1843.77,1096.23 L 1845.24,1100.86 L 1845.24,1106.15 L 1843.77,1111.44 L 1845.24,1116.07 L 1845.24,1121.36 L 1848.18,1132.61 L 1848.18,1137.90 L 1849.66,1143.85 L 1849.66,1159.07 L 1851.13,1164.36 L 1851.13,1176.26 L 1852.60,1182.22 L 1852.60,1187.51 L 1854.07,1193.46 L 1854.07,1198.09 L 1855.54,1204.05 L 1858.49,1208.68 M 1693.62,1176.26 L 1681.84,1172.96 L 1670.07,1170.31 L 1671.54,1168.99 L 1689.21,1174.94 M 1674.48,1160.39 L 1662.71,1168.99 L 1650.93,1174.28 L 1639.16,1180.23 L 1627.38,1183.54 L 1615.60,1187.51 L 1621.49,1184.20 L 1642.10,1178.91 L 1665.65,1168.33 L 1673.01,1163.04 L 1680.37,1158.40 L 1686.26,1153.77 L 1687.73,1148.48 L 1687.73,1143.19 L 1692.15,1137.90 L 1699.51,1132.61 L 1705.40,1127.32 L 1712.76,1122.02 L 1718.65,1116.07 L 1723.06,1110.78 L 1728.95,1104.82 L 1733.37,1098.87 L 1739.25,1093.58 L 1742.20,1088.29 L 1746.61,1083.00 L 1751.03,1078.37 L 1756.92,1073.74 L 1761.33,1069.11 L 1767.22,1063.81 L 1780.47,1059.18 L 1804.02,1053.89 L 1817.27,1048.60 L 1827.58,1043.97 L 1836.41,1038.68 L 1840.82,1033.39 L 1843.77,1028.09 L 1848.18,1022.80 L 1854.07,1018.17 L 1846.71,1013.54 L 1842.30,1007.59 L 1836.41,1002.30 L 1823.16,996.34 L 1801.08,991.71 L 1790.78,985.10 L 1786.36,979.81 L 1789.30,974.51 L 1796.66,969.22 L 1798.14,963.27 L 1793.72,957.32 L 1796.66,952.02 L 1806.97,946.73 L 1812.86,942.76 L 1801.08,950.04 L 1790.78,953.35 M 1767.22,930.86 L 1755.45,919.61 L 1745.14,912.33 L 1733.37,906.38 L 1721.59,901.75 L 1708.34,897.78 L 1696.57,895.14 L 1684.79,895.14 L 1671.54,892.49 L 1661.24,891.17 L 1653.88,892.49 L 1643.57,890.51 L 1631.80,887.20 L 1621.49,886.54 M 1628.85,886.54 L 1646.52,887.20 L 1673.01,893.15 M 1587.63,957.32 L 1602.36,962.61 L 1614.13,964.59 M 1611.19,977.82 L 1600.88,974.51 L 1589.11,971.87 L 1577.33,969.88 L 1565.55,968.56 L 1540.53,967.24 L 1528.75,967.24 L 1516.98,967.90 L 1503.73,969.22 L 1491.95,972.53 L 1480.18,978.48 L 1468.40,989.07 M 1484.59,981.13 L 1496.37,979.14 L 1508.15,979.14 L 1519.92,978.48 L 1531.70,978.48 L 1543.47,979.14 L 1553.78,980.47 L 1562.61,987.74 M 1567.03,975.84 L 1543.47,971.87 L 1530.23,971.21 L 1518.45,971.87 M 1515.51,969.88 L 1491.95,975.18 L 1478.70,979.81 L 1472.82,985.10 L 1469.87,989.73 M 1463.98,1000.31 L 1463.98,1005.60 L 1466.93,1010.89 L 1478.70,1022.80 L 1486.06,1028.09 L 1497.84,1033.39 M 1524.34,1041.32 L 1511.09,1038.68 L 1499.31,1036.03 L 1487.54,1031.40 L 1475.76,1024.79 L 1465.46,1011.56 M 1468.40,1010.23 L 1480.18,1023.46 L 1490.48,1030.08 L 1502.26,1034.71 L 1515.51,1036.69 L 1527.28,1038.02 L 1539.06,1038.68 L 1552.31,1038.68 L 1564.08,1037.35 L 1575.86,1035.37 L 1587.63,1031.40 L 1584.69,1031.40 L 1567.03,1036.69 M 1512.56,1039.34 L 1493.42,1034.71 L 1481.65,1029.42 L 1474.29,1024.12 L 1469.87,1018.83 L 1463.98,1013.54 L 1461.04,1008.25 L 1456.62,1002.30 M 1433.07,981.79 L 1433.07,977.82 L 1421.30,977.82 L 1409.52,978.48 L 1399.21,979.81 L 1385.97,983.11 M 1413.94,977.82 L 1387.44,983.11 L 1378.61,997.00 L 1371.25,1002.30 M 1449.26,979.81 L 1452.21,974.51 M 1447.79,973.19 L 1444.85,979.14 L 1450.74,981.13 M 1487.54,970.54 L 1506.67,965.91 M 1506.67,950.04 L 1478.70,955.33 L 1463.98,960.62 L 1450.74,965.91 L 1458.10,963.27 L 1469.87,957.98 L 1481.65,955.99 L 1494.90,952.68 L 1508.15,950.70 L 1519.92,952.02 L 1531.70,952.68 L 1542.00,952.02 L 1553.78,952.68 L 1567.03,955.33 L 1580.27,956.65 L 1592.05,958.64 L 1603.83,962.61 L 1615.60,963.93 M 1583.22,972.53 L 1603.83,977.82 L 1615.60,983.11 L 1621.49,988.40 L 1625.91,994.36 L 1624.44,1000.31 L 1622.96,1005.60 L 1618.55,1010.89 M 1671.54,991.71 L 1681.84,992.37 L 1695.09,995.02 L 1695.09,996.34 L 1677.43,991.05 M 1768.69,989.73 L 1777.53,994.36 L 1784.89,997.67 L 1781.94,1002.96 L 1776.05,1008.91 L 1771.64,1014.20 L 1770.17,1021.48 L 1768.69,1027.43 L 1768.69,1032.72 L 1770.17,1038.02 L 1770.17,1043.31 L 1773.11,1048.60 L 1773.11,1053.89 L 1775.07,1056.10 L 1776.05,1057.20 L 1787.83,1055.88 L 1801.08,1051.91 L 1812.86,1047.28 L 1826.10,1040.00 L 1836.41,1028.09 M 1690.68,1105.49 L 1678.90,1098.87 L 1667.12,1094.90 L 1642.10,1093.58 L 1630.32,1091.60 L 1618.55,1090.93 L 1608.24,1092.26 L 1596.47,1092.92 L 1586.16,1094.24 L 1574.39,1094.90 L 1564.08,1096.23 L 1552.31,1096.89 L 1540.53,1098.21 M 1547.89,1104.82 L 1547.89,1114.75 M 1553.78,1106.81 L 1561.14,1112.10 L 1584.69,1122.68 L 1592.05,1127.98 L 1597.94,1133.27 L 1606.77,1137.90 L 1618.55,1142.53 L 1630.32,1143.85 L 1642.10,1145.84 L 1653.88,1146.50 L 1665.65,1143.85 L 1677.43,1144.51 M 1673.01,1145.84 L 1667.12,1148.48 L 1655.35,1150.47 L 1643.57,1151.13 M 1659.76,1146.50 L 1667.12,1141.21 M 1630.32,1132.61 L 1625.91,1130.62 L 1614.13,1130.62 M 1593.52,1120.70 L 1581.75,1115.41 L 1569.97,1108.79 M 1550.83,1106.15 L 1562.61,1113.42 L 1575.86,1118.72 L 1587.63,1125.99 L 1599.41,1134.59 L 1611.19,1141.21 M 1693.62,1115.41 L 1683.32,1108.79 L 1673.01,1107.47 L 1661.24,1106.81 L 1649.46,1107.47 L 1637.68,1106.81 L 1624.44,1106.81 L 1614.13,1105.49 L 1600.88,1104.82 L 1589.11,1102.84 L 1577.33,1101.52 L 1567.03,1100.86 L 1555.25,1102.18 L 1556.72,1100.86 L 1562.61,1106.15 L 1574.39,1113.42 L 1583.22,1119.38 L 1596.47,1124.67 L 1603.83,1129.96 L 1612.66,1131.95 L 1621.49,1136.58 M 1714.23,1122.02 L 1711.29,1127.98 L 1712.76,1133.27 L 1715.70,1138.56 L 1715.70,1171.63 L 1717.17,1176.93 L 1720.12,1181.56 L 1728.95,1186.85 L 1743.67,1192.14 L 1756.92,1197.43 M 1589.11,1189.49 L 1567.03,1188.17 L 1556.72,1188.17 L 1543.47,1185.53 M 1572.91,1233.15 L 1559.67,1238.44 L 1556.72,1243.74 L 1556.72,1249.03 L 1564.08,1254.98 L 1575.86,1260.93 L 1593.52,1271.52 L 1605.30,1276.81 L 1636.21,1292.68 L 1645.04,1297.98 M 1749.56,1298.64 L 1737.78,1293.35 L 1727.48,1288.05 L 1717.17,1282.10 L 1700.98,1276.81 L 1671.54,1266.23 L 1609.72,1238.44 L 1593.52,1232.49 M 1421.30,1178.91 L 1425.71,1171.63 L 1425.71,1166.34 L 1424.24,1161.71 M 1371.25,1159.73 L 1359.47,1153.77 L 1346.22,1147.82 L 1335.92,1140.54 M 1332.97,1139.22 L 1341.81,1144.51 L 1363.89,1154.44 M 1366.83,1161.05 L 1343.28,1149.14 L 1331.50,1141.87 L 1330.03,1140.54 L 1334.45,1145.84 L 1344.75,1151.13 L 1366.83,1161.05 M 1294.70,1153.77 L 1282.92,1149.14 L 1272.62,1146.50 L 1262.32,1143.19 M 1259.37,1144.51 L 1290.28,1155.10 M 1374.19,1178.25 L 1344.75,1172.96 L 1175.47,1135.25 L 1116.58,1125.33 M 1072.42,1120.70 L 1044.46,1115.41 M 1015.01,1112.10 L 1004.71,1108.13 M 998.82,1104.16 L 1009.13,1102.18 M 985.57,1086.96 L 963.49,1096.89 M 959.08,1104.82 L 935.53,1107.47 M 944.36,1120.70 L 956.13,1119.38 L 967.91,1119.38 L 979.69,1120.04 L 989.99,1118.72 M 932.58,1096.89 L 920.80,1093.58 M 923.75,1108.13 L 911.97,1106.15 L 898.72,1105.49 L 884.00,1112.10 L 873.70,1114.09 L 861.92,1117.39 L 850.15,1121.36 L 838.37,1122.68 L 826.59,1129.30 M 842.79,1121.36 L 831.01,1126.65 L 826.59,1131.95 L 823.65,1137.90 L 823.65,1143.19 L 829.54,1143.85 L 841.32,1141.87 M 856.04,1142.53 L 903.14,1134.59 L 916.39,1131.95 L 928.16,1129.96 L 938.47,1126.65 L 950.25,1124.67 L 947.30,1126.65 L 931.11,1127.98 L 907.56,1133.27 M 863.40,1114.75 L 885.48,1109.46 L 895.78,1104.82 M 948.77,1081.67 L 960.55,1080.35 L 972.33,1077.04 L 982.63,1074.40 L 994.41,1069.77 M 1007.65,1065.14 L 1020.90,1068.44 M 1025.32,1072.41 L 1015.01,1079.69 L 1003.24,1079.03 M 994.41,1081.01 L 991.46,1086.30 L 982.63,1088.29 L 972.33,1093.58 L 964.97,1098.21 M 982.63,1079.69 L 995.88,1079.69 L 1007.65,1073.07 M 991.46,1060.51 L 1001.77,1058.52 M 1009.13,1061.83 L 998.82,1055.88 L 992.93,1057.86 L 1000.29,1053.23 M 1016.49,1053.23 L 1015.01,1058.52 L 1006.18,1062.49 L 1020.90,1067.78 L 1025.32,1073.07 L 1017.96,1077.70 L 1016.49,1084.32 L 1016.49,1088.95 L 1015.01,1093.58 L 1012.07,1098.21 L 994.41,1103.50 L 1012.07,1108.13 L 1013.54,1113.42 L 1019.43,1116.07 L 1032.68,1114.75 L 1041.51,1112.10 L 1053.29,1115.41 L 1066.54,1118.72 L 1078.31,1120.70 L 1091.56,1121.36 L 1103.34,1123.35 L 1137.19,1127.32 L 1159.27,1131.28 L 1169.58,1133.93 L 1206.38,1141.87 L 1218.16,1143.19 L 1241.71,1148.48 L 1253.48,1151.79 L 1263.79,1155.10 L 1275.56,1157.74 L 1287.34,1161.05 L 1299.12,1163.04 L 1310.89,1165.68 L 1324.14,1167.00 L 1335.92,1170.31 L 1347.69,1172.30 L 1359.47,1174.94 L 1369.77,1176.93 L 1381.55,1179.57 L 1394.80,1180.89 L 1406.58,1181.56 L 1419.82,1181.56 M 1693.62,1119.38 L 1686.26,1114.09 L 1684.79,1104.82 L 1675.96,1099.53 L 1659.76,1094.24 M 1617.08,1016.19 L 1605.30,1026.11 L 1593.52,1034.71 L 1580.27,1036.03 L 1568.50,1038.02 L 1595.00,1032.06 L 1614.13,1018.17 L 1618.55,1012.88 L 1624.44,1008.25 L 1627.38,1002.96 L 1627.38,997.00 L 1630.32,991.71 L 1625.91,986.42 L 1617.08,981.13 L 1603.83,975.18 L 1580.27,969.88 M 1577.33,969.22 L 1605.30,974.51 L 1618.55,979.81 L 1630.32,989.73 L 1646.52,988.40 L 1658.29,991.05 L 1673.01,995.68 L 1686.26,997.00 L 1703.93,994.36 L 1715.70,989.07 L 1726.01,986.42 L 1737.78,984.44 L 1749.56,985.10 L 1761.33,985.10 L 1774.58,985.76 L 1809.91,991.71 L 1833.46,1000.97 L 1845.24,1012.22 M 1436.02,945.41 L 1424.24,952.02 L 1412.46,955.33 L 1400.69,962.61 L 1388.91,973.19 L 1388.91,975.18 L 1390.38,969.88 L 1394.80,965.25 L 1402.16,959.96 L 1410.99,954.01 L 1425.71,948.72 L 1434.54,943.42 L 1437.49,938.13 M 1310.89,911.01 L 1299.12,916.96 L 1275.56,926.23 L 1263.79,926.23 L 1252.01,926.89 L 1240.24,926.89 L 1228.46,926.23 L 1204.91,926.23 L 1193.13,925.56 L 1181.35,926.23 L 1157.80,926.23 L 1146.03,926.89 L 1110.70,926.89 L 1098.92,927.55 L 1063.59,927.55 L 1051.82,928.21 L 1040.04,927.55 L 1028.26,928.21 L 1016.49,927.55 L 1004.71,927.55 L 982.63,928.87 L 959.08,928.87 L 922.28,930.86 L 907.56,930.86 L 882.53,932.18 L 858.98,932.18 L 835.43,933.50 M 842.79,931.52 L 842.79,936.81 L 844.26,942.10 L 844.26,947.39 L 848.68,963.27 L 848.68,979.14 L 850.15,984.44 L 850.15,989.73 L 851.62,994.36 L 851.62,1004.28 L 869.28,1009.57 M 854.56,1006.26 L 866.34,1008.91 L 878.12,1010.89 L 889.89,1012.22 L 903.14,1014.86 L 914.92,1017.51 L 937.00,1021.48 L 948.77,1022.80 L 972.33,1024.12 L 984.10,1022.80 L 995.88,1014.86 L 1009.13,1007.59 L 1022.37,1005.60 L 1035.62,1005.60 M 1020.90,1004.94 L 1007.65,1004.94 M 1015.01,1005.60 L 1003.24,1010.89 L 995.88,1016.85 L 989.99,1022.14 M 1041.51,1054.55 L 1040.04,1059.18 L 1035.62,1064.47 M 1037.10,1057.20 L 1051.00,1054.41 L 1051.98,1054.19 L 1052.96,1053.96 L 1062.12,1059.18 M 1006.18,1096.23 L 1000.29,1090.27 L 1007.65,1082.33 L 995.88,1077.04 L 1004.71,1071.75 L 989.99,1064.47 L 964.97,1055.88 L 954.66,1051.91 L 944.36,1048.60 L 932.58,1043.31 L 920.80,1040.00 L 900.20,1032.06 L 888.42,1029.42 L 886.95,1034.71 L 895.78,1034.05 L 900.20,1039.34 L 904.61,1043.97 L 907.56,1048.60 L 911.97,1053.89 L 914.92,1059.84 L 919.33,1065.14 L 925.22,1075.72 L 929.64,1080.35 L 935.53,1090.93 L 934.05,1096.23 M 900.20,1038.02 L 879.59,1032.72 M 898.72,1034.05 L 911.97,1040.00 L 928.16,1044.63 L 942.89,1049.92 L 959.08,1054.55 L 973.80,1059.18 L 987.05,1064.47 L 997.35,1069.11 L 981.16,1073.74 M 969.38,1098.21 L 963.49,1102.84 L 951.72,1106.15 L 939.94,1106.15 L 932.58,1107.47 L 929.64,1102.84 L 925.22,1097.55 L 920.80,1091.60 L 919.33,1086.96 L 916.39,1081.67 L 913.44,1075.72 L 910.50,1071.09 L 904.61,1065.80 L 900.20,1059.84 L 895.78,1054.55 L 891.36,1048.60 L 889.89,1042.65 L 884.00,1037.35 L 875.17,1032.06 L 873.70,1026.11 L 872.23,1020.82 M 879.59,1018.83 L 892.84,1023.46 L 903.14,1028.75 L 919.33,1033.39 L 935.53,1038.68 L 950.25,1044.63 L 964.97,1049.92 L 979.69,1055.88 L 1000.29,1061.83 L 1010.60,1069.11 L 1023.85,1070.43 M 938.47,1022.14 L 909.03,1016.85 L 886.95,1011.56 M 976.74,967.90 L 964.97,958.64 M 878.12,922.92 L 866.34,922.26 L 853.09,923.58 L 841.32,919.61 M 844.26,919.61 L 853.09,924.90 L 914.92,924.90 L 926.69,925.56 M 950.25,885.88 L 962.02,885.88 M 957.61,880.58 L 944.36,881.91 M 934.05,873.31 L 922.28,876.61 M 934.05,864.05 L 934.05,869.34 L 925.22,874.63 L 919.33,879.92 L 925.22,890.51 L 926.69,895.80 L 926.69,900.43 L 932.58,921.60 L 938.47,924.24 L 969.38,924.24 L 1013.54,921.60 L 1037.10,921.60 M 1095.98,919.61 L 1097.45,914.32 L 1094.50,908.37 L 1093.03,903.07 L 1090.09,897.78 L 1088.62,892.49 L 1076.84,887.86 L 1070.95,882.57 M 1059.18,883.23 L 1053.29,887.86 L 1062.12,882.57 L 1072.42,883.23 L 1084.20,890.51 M 1137.19,831.63 L 1148.97,828.99 L 1162.22,830.31 L 1175.47,824.36 L 1169.58,827.67 L 1171.05,836.26 L 1184.30,835.60 L 1196.07,836.93 L 1221.10,835.60 L 1268.20,835.60 L 1279.98,833.62 L 1290.28,832.96 L 1313.84,832.96 L 1325.61,832.30 L 1372.72,832.30 L 1384.49,831.63 L 1396.27,832.30 L 1409.52,832.30 L 1421.30,831.63 L 1428.66,833.62 L 1430.13,838.91 L 1430.13,844.20 L 1431.60,850.16 L 1431.60,848.83 L 1450.74,838.91 L 1459.57,833.62 M 1490.48,828.33 L 1500.79,833.62 M 1391.85,809.81 L 1380.08,805.18 L 1368.30,803.85 L 1356.53,809.81 M 1362.41,808.48 L 1365.36,814.44 L 1380.08,814.44 M 1372.72,807.16 L 1374.19,812.45 L 1360.94,818.40 L 1358.00,825.68 L 1371.25,821.71 L 1384.49,822.37 L 1396.27,825.68 L 1384.49,827.00 L 1350.64,827.00 L 1337.39,827.67 L 1325.61,827.67 L 1313.84,828.99 L 1302.06,829.65 L 1303.53,823.70 L 1305.00,818.40 L 1310.89,813.11 L 1328.56,813.11 L 1315.31,814.44 M 1306.48,817.74 L 1318.25,809.81 L 1330.03,807.82 L 1340.33,809.81 L 1334.45,815.10 L 1334.45,821.05 L 1310.89,826.34 L 1319.73,822.37 L 1331.50,817.74 L 1343.28,820.39 L 1356.53,821.71 L 1368.30,818.40 L 1381.55,817.74 L 1393.33,818.40 L 1409.52,821.71 M 1408.05,825.68 L 1403.63,821.05 L 1396.27,815.76 L 1390.38,810.47 L 1375.66,805.18 M 1368.30,803.85 L 1359.47,809.14 L 1358.00,814.44 M 1347.69,823.04 L 1330.03,817.74 L 1328.56,812.45 M 1335.92,808.48 L 1346.22,813.77 M 1343.28,826.34 L 1331.50,824.36 L 1321.20,826.34 M 1305.00,828.99 L 1293.23,829.65 L 1281.45,829.65 L 1269.68,830.31 L 1256.43,829.65 M 1234.35,829.65 L 1232.88,823.04 L 1250.54,817.74 L 1250.54,812.45 L 1252.01,806.50 L 1250.54,803.19 L 1226.99,804.51 L 1215.21,808.48 M 1225.52,811.13 L 1228.46,805.84 M 1213.74,811.79 L 1207.85,806.50 L 1197.55,801.21 M 1181.35,803.85 L 1188.71,817.74 L 1200.49,814.44 L 1212.27,819.07 L 1224.04,825.68 L 1234.35,822.37 L 1246.12,819.73 M 1206.38,826.34 L 1196.07,825.68 L 1184.30,826.34 M 1171.05,830.31 L 1182.83,830.31 L 1204.91,828.99 L 1216.68,828.99 L 1228.46,827.67 M 1219.63,825.68 L 1212.27,820.39 L 1200.49,815.76 L 1193.13,814.44 L 1185.77,809.14 L 1179.88,803.19 M 1176.94,799.88 L 1163.36,805.32 L 1162.38,805.76 L 1161.40,806.20 L 1172.52,803.19 L 1184.30,800.54 L 1197.55,800.54 L 1209.32,807.82 L 1225.52,809.14 M 1144.55,829.65 L 1138.67,834.94 L 1138.67,840.23 L 1140.14,845.53 L 1143.08,850.82 L 1144.55,856.11 L 1144.55,861.40 L 1147.50,866.69 L 1148.97,871.98 L 1148.97,876.61 L 1151.91,881.91 L 1153.39,887.20 L 1151.91,893.15 L 1153.39,898.44 L 1154.86,904.40 L 1157.80,909.69 L 1157.80,920.93 M 1291.76,920.27 L 1285.87,925.56 L 1284.40,931.52 L 1284.40,936.81 L 1285.87,942.10 L 1288.81,947.39 L 1287.34,953.35 L 1282.92,958.64 L 1281.45,963.93 L 1282.92,969.88 L 1285.87,979.81 L 1287.34,985.76 L 1290.28,991.05 L 1290.28,996.34 L 1274.09,1004.28 L 1268.20,1008.91 L 1266.73,1013.54 L 1271.15,1018.83 L 1271.15,1029.42 L 1278.51,1034.71 L 1284.40,1040.66 L 1296.17,1046.61 L 1307.95,1055.21 M 1322.67,882.57 L 1325.61,877.28 L 1321.20,879.92 M 1384.49,856.11 L 1374.19,862.06 L 1372.72,867.35 L 1356.53,873.31 L 1346.22,878.60 L 1338.86,884.55 L 1318.25,889.18 L 1313.84,894.47 L 1310.89,899.77 L 1309.42,905.06 L 1305.00,910.35 L 1296.17,915.64 L 1282.92,920.93 L 1288.81,921.60 M 967.91,862.72 L 954.66,861.40 L 929.64,862.72 M 847.20,926.23 L 835.43,926.89 L 823.65,929.53 M 817.76,930.86 L 819.23,936.15 L 822.18,941.44 L 822.18,946.73 L 823.65,952.02 L 823.65,957.32 L 828.07,973.19 L 828.07,978.48 L 829.54,983.77 L 831.01,988.40 L 833.95,998.99 L 836.90,1004.28 L 839.84,1010.23 L 845.73,1014.20 L 856.04,1018.83 L 867.81,1018.83 L 881.06,1019.49 L 892.84,1024.12 L 904.61,1030.08 L 917.86,1033.39 L 929.64,1037.35 L 941.41,1040.66 L 951.72,1045.29 L 964.97,1048.60 L 975.27,1052.57 L 987.05,1055.88 L 1000.29,1051.25 L 1012.07,1050.58 M 816.29,1144.51 L 805.99,1145.84 L 794.21,1146.50 L 782.43,1147.82 L 770.66,1149.81 L 745.63,1158.40 L 733.86,1163.04 L 723.55,1167.67 L 711.78,1174.94 L 700.00,1181.56 L 705.89,1179.57 L 713.25,1174.94 L 723.55,1169.65 L 751.52,1159.73 L 764.77,1154.44 L 786.85,1149.81 M 845.73,1014.86 L 844.75,1014.42 L 843.44,1013.83 L 844.26,1006.26 L 841.32,1000.97 L 839.84,996.34 L 836.90,991.05 L 836.90,986.42 L 835.43,981.13 L 832.48,975.18 L 831.01,969.88 L 831.01,964.59 L 829.54,958.64 L 828.07,953.35 L 828.07,942.76 L 826.59,937.47 L 823.65,932.18 L 828.07,926.89 M 1549.36,827.67 L 1547.89,822.37 L 1547.89,817.08 L 1544.95,811.13 L 1542.00,805.84 L 1540.53,800.54 L 1537.59,795.25 L 1536.11,789.96 L 1536.11,784.67 L 1531.70,768.79 M 1524.34,755.56 L 1527.28,760.86 L 1528.75,765.49 L 1528.75,770.78 L 1530.23,776.07 L 1530.23,781.36 L 1531.70,786.65 L 1531.70,796.58 L 1533.17,801.87 L 1533.17,807.16 L 1534.64,812.45 L 1534.64,817.74 L 1537.59,828.99 M 1617.08,827.00 L 1617.08,816.42 L 1615.60,811.13 L 1615.60,805.84 L 1617.08,800.54 L 1615.60,795.25 L 1615.60,789.96 L 1614.13,784.67 L 1614.13,779.38 L 1611.19,774.09 L 1611.19,768.79 M 1622.96,751.60 L 1624.44,756.89 L 1622.96,761.52 L 1625.91,770.78 L 1625.91,781.36 L 1628.85,786.65 L 1630.32,791.95 L 1630.32,797.24 L 1631.80,801.87 L 1633.27,807.82 L 1633.27,817.74 L 1634.74,823.04 L 1637.68,828.33 L 1656.82,833.62 L 1670.07,838.91 L 1689.21,836.93 L 1711.29,844.20 L 1723.06,851.48 M 1814.33,795.25 L 1812.86,799.88 L 1814.33,805.18 L 1814.33,810.47 L 1815.80,815.10 L 1815.80,820.39 L 1818.74,825.68 L 1818.74,831.63 L 1820.22,837.59 L 1820.22,848.17 L 1821.69,853.46 L 1821.69,864.05 L 1823.16,869.34 L 1821.69,874.63 L 1823.16,879.92 L 1823.16,885.21 L 1824.63,890.51 L 1823.16,895.80 L 1824.63,901.09 L 1824.63,905.72 L 1826.10,911.01 L 1829.05,916.30 L 1829.05,921.60 L 1830.52,927.55 L 1830.52,932.84 L 1829.05,938.13 L 1830.52,943.42 L 1830.52,948.72 L 1831.99,954.01 L 1831.99,959.30 L 1834.94,969.22 L 1834.94,973.85 L 1833.46,979.14 L 1836.41,983.77 L 1834.94,989.07 L 1834.94,993.70 M 1815.80,898.44 L 1811.38,893.81 L 1811.38,888.52 L 1808.44,882.57 L 1808.44,877.28 L 1809.91,871.98 L 1809.91,866.03 L 1808.44,860.74 L 1809.91,855.45 L 1809.91,844.86 L 1806.97,839.57 L 1808.44,834.28 L 1808.44,828.99 L 1809.91,824.36 L 1808.44,819.07 L 1808.44,801.87 L 1805.50,797.24 L 1805.50,791.95 L 1806.97,786.65 L 1806.97,781.36 M 1912.95,759.53 L 1911.48,764.82 L 1908.54,769.46 L 1907.07,774.75 L 1907.07,780.04 L 1908.54,785.33 L 1908.54,790.62 L 1910.01,795.91 L 1910.01,801.21 L 1914.43,817.08 L 1914.43,828.33 L 1917.37,832.96 L 1917.37,844.20 L 1915.90,850.16 L 1918.84,860.74 L 1918.84,876.61 L 1917.37,881.91 L 1915.90,886.54 L 1915.90,908.37 L 1914.43,913.66 L 1917.37,924.24 M 1587.63,831.63 L 1590.58,820.39 L 1590.58,815.76 L 1592.05,809.81 L 1592.05,793.93 L 1593.52,788.64 L 1590.58,779.38 L 1590.58,769.46 L 1589.11,764.82 L 1589.11,753.58 L 1587.63,748.95 L 1587.63,743.66 M 1935.03,705.29 L 1936.51,710.58 L 1935.03,715.21 L 1935.03,719.84 L 1930.62,724.47 L 1927.67,729.77 L 1927.67,750.27 L 1930.62,760.86 L 1930.62,766.15 L 1932.09,771.44 L 1935.03,777.39 L 1943.87,810.47 L 1943.87,815.10 L 1946.81,825.68 L 1945.34,831.63 L 1945.34,853.46 L 1946.81,858.75 L 1945.34,864.05 L 1948.28,869.34 L 1948.28,874.63 L 1949.75,879.92 L 1949.75,885.21 L 1952.70,889.84 L 1952.70,895.14 L 1955.64,899.77 L 1954.17,904.40 L 1954.17,914.32 L 1955.64,918.95 L 1955.64,924.24 L 1958.59,936.15 L 1958.59,942.10 L 1960.06,947.39 L 1963.00,953.35 L 1963.00,958.64 L 1965.95,969.22 L 1964.47,974.51 L 1965.95,979.81 L 1965.95,1005.60 L 1967.42,1010.89 L 1970.36,1016.19 L 1970.36,1020.82 L 1973.31,1031.40 L 1974.78,1037.35 L 1973.31,1043.31 L 1974.78,1048.60 L 1976.25,1054.55 L 1980.67,1069.11 L 1982.14,1075.06 L 1985.08,1085.64 L 1983.61,1090.93 L 1985.08,1096.89 L 1988.03,1102.84 L 1988.03,1107.47 L 1990.97,1112.10 L 1993.92,1122.02 L 1999.80,1143.85 L 2001.28,1148.48 L 2001.28,1159.07 L 2002.75,1164.36 L 2002.75,1169.65 L 2004.22,1174.28 L 2005.69,1179.57 L 2005.69,1190.82 L 2007.16,1196.77 L 2007.16,1202.06 L 2004.22,1207.35" fill="none" stroke="black" stroke-width="2" stroke-linecap="round" stroke-linejoin="round"/>
    </svg>