<svg width="4000" height="3000" xmlns="http://www.w3.org/2000/svg" viewBox="0 0 4000 3000">
      <path d="M 3400.00,1850.18 L 3346.02,1834.50 L 3293.79,1816.87 L 3243.40,1797.39 L 3194.98,1776.11 L 3148.62,1753.10 L 3104.46,1728.45 L 3062.59,1702.22 L 3023.12,1674.47 L 2986.18,1645.30 L 2951.86,1614.75 L 2920.29,1582.92 L 2891.56,1549.86 L 2865.80,1515.65 L 2843.12,1480.37 L 2823.62,1444.07 L 2807.41,1406.85 L 2794.61,1368.75 L 2785.33,1329.87 L 2779.69,1290.26 L 2777.78,1250.00 L 2779.69,1209.77 L 2785.34,1170.18 L 2794.63,1131.32 L 2807.45,1093.25 L 2823.67,1056.04 L 2843.19,1019.76 L 2865.89,984.50 L 2891.67,950.30 L 2920.41,917.26 L 2952.00,885.44 L 2986.33,854.91 L 3023.29,825.74 L 3062.75,798.00 L 3104.62,771.77 L 3148.78,747.12 L 3195.12,724.11 L 3243.52,702.83 L 3293.88,683.33 L 3346.07,665.70 L 3400.00,650.00 L 3359.67,639.83 L 3318.52,630.75 L 3276.59,622.77 L 3233.93,615.94 L 3190.58,610.28 L 3146.58,605.83 L 3101.97,602.61 L 3056.80,600.66 L 3011.11,600.00 L 2948.53,601.22 L 2886.95,604.85 L 2826.49,610.81 L 2767.27,619.03 L 2709.39,629.43 L 2652.96,641.95 L 2598.10,656.52 L 2544.91,673.06 L 2493.51,691.51 L 2444.01,711.78 L 2396.52,733.82 L 2351.14,757.54 L 2308.00,782.88 L 2267.20,809.77 L 2228.85,838.13 L 2193.06,867.90 L 2159.95,898.99 L 2129.63,931.35 L 2102.20,964.90 L 2077.78,999.56 M 1206.67,2400.00 L 1165.13,2399.12 L 1124.35,2396.51 L 1084.40,2392.24 L 1045.39,2386.35 L 1007.40,2378.91 L 970.52,2369.97 L 934.85,2359.59 L 900.47,2347.82 L 867.47,2334.73 L 835.95,2320.37 L 805.99,2304.79 L 777.69,2288.06 L 751.13,2270.23 L 726.41,2251.36 L 703.61,2231.50 L 682.83,2210.71 L 664.15,2189.05 L 647.67,2166.58 L 633.48,2143.34 L 621.67,2119.41 L 612.33,2094.84 L 605.54,2069.67 L 601.40,2043.98 L 600.00,2017.81 L 601.24,1994.05 L 604.94,1970.52 L 611.02,1947.28 L 619.45,1924.41 L 630.15,1901.97 L 643.07,1880.02 L 658.16,1858.63 L 675.36,1837.87 L 694.61,1817.81 L 715.85,1798.50 L 739.03,1780.02 L 764.09,1762.43 L 790.97,1745.79 L 819.62,1730.18 L 849.98,1715.65 L 881.99,1702.28 L 915.59,1690.13 L 950.74,1679.27 L 987.36,1669.76 L 1025.41,1661.67 L 1064.83,1655.06 L 1105.56,1650.00 L 1120.79,1628.72 L 1137.91,1608.05 L 1156.84,1588.05 L 1177.51,1568.77 L 1199.85,1550.26 L 1223.80,1532.57 L 1249.28,1515.76 L 1276.23,1499.87 L 1304.57,1484.95 L 1334.24,1471.06 L 1365.16,1458.26 L 1397.27,1446.58 L 1430.50,1436.08 L 1464.78,1426.82 L 1500.03,1418.84 L 1536.19,1412.19 L 1573.20,1406.94 L 1610.97,1403.12 L 1649.44,1400.79 L 1688.55,1400.00 L 1732.07,1400.93 L 1774.79,1403.68 L 1816.63,1408.19 L 1857.49,1414.41 L 1897.26,1422.26 L 1935.85,1431.69 L 1973.18,1442.64 L 2009.13,1455.05 L 2043.62,1468.85 L 2076.54,1484.00 L 2107.82,1500.41 L 2137.33,1518.05 L 2165.00,1536.84 L 2190.73,1556.73 L 2214.41,1577.65 L 2235.96,1599.54 L 2255.27,1622.35 L 2272.25,1646.01 L 2286.81,1670.47 L 2298.85,1695.65 L 2308.28,1721.51 L 2314.99,1747.98 L 2318.89,1775.00 L 2345.26,1782.98 L 2370.77,1791.99 L 2395.37,1802.00 L 2419.00,1812.94 L 2441.61,1824.79 L 2463.15,1837.48 L 2483.56,1850.98 L 2502.79,1865.23 L 2520.80,1880.20 L 2537.51,1895.82 L 2552.89,1912.07 L 2566.87,1928.88 L 2579.41,1946.22 L 2590.45,1964.04 L 2599.93,1982.29 L 2607.82,2000.92 L 2614.04,2019.89 L 2618.55,2039.14 L 2621.30,2058.65 L 2622.22,2078.35 L 2621.06,2100.37 L 2617.61,2122.00 L 2611.95,2143.17 L 2604.16,2163.86 L 2594.32,2184.00 L 2582.49,2203.55 L 2568.76,2222.46 L 2553.20,2240.69 L 2535.88,2258.19 L 2516.88,2274.90 L 2496.28,2290.78 L 2474.15,2305.79 L 2450.56,2319.87 L 2425.59,2332.98 L 2399.33,2345.07 L 2371.83,2356.08 L 2343.18,2365.99 L 2313.45,2374.72 L 2282.72,2382.25 L 2251.06,2388.51 L 2218.55,2393.47 L 2185.27,2397.06 L 2151.28,2399.26 L 2116.67,2400.00 L 1206.67,2400.00" fill="none" stroke="black" stroke-width="2" stroke-linecap="round" stroke-linejoin="round"/>
    </svg>