<svg width="4000" height="3000" xmlns="http://www.w3.org/2000/svg" viewBox="0 0 4000 3000">
      <path d="M 2116.78,604.20 L 2105.79,654.63 L 2111.29,706.46 L 2119.53,762.49 L 2125.02,843.74 L 2070.07,870.35 L 2023.36,895.56 L 1960.16,926.38 L 1894.21,934.79 L 1839.25,965.60 L 1792.54,992.22 L 1745.83,1010.43 L 1685.38,1049.65 L 1734.84,1004.82 M 1608.44,1039.84 L 1542.49,1025.84 M 1553.48,1028.64 L 1635.92,1055.25 L 1553.48,1052.45 L 1487.54,1053.85 L 1421.59,1070.66 L 1361.14,1072.06 L 1264.97,1073.46 L 1297.94,1031.44 L 1253.97,1000.62 L 1234.74,1048.25 M 1100.10,1070.66 L 1144.06,1042.65 L 1146.81,988.02 L 1094.60,961.40 L 1144.06,993.62 L 1163.30,1049.65 L 1108.34,1055.25 L 1094.60,1002.02 L 1075.37,1056.65 L 1050.64,1119.69 L 1089.11,1154.71 L 1138.57,1191.13 L 1201.77,1203.74 L 1242.98,1237.35 L 1308.93,1233.15 L 1372.13,1240.16 L 1429.83,1240.16 L 1493.03,1235.95 L 1427.09,1245.76 L 1520.51,1244.36 M 1638.67,1241.56 L 1707.36,1235.95 L 1756.82,1268.17 L 1707.36,1290.58 L 1756.82,1313.00 L 1699.12,1310.19 L 1743.08,1335.41 M 1732.09,1370.43 L 1751.32,1429.26 L 1795.29,1464.28 L 1852.99,1510.51 L 1918.94,1553.93 L 1968.40,1577.74 L 2031.60,1609.96 L 1982.14,1618.37 M 1954.66,1535.72 L 2004.12,1563.74 L 2050.83,1586.15 L 1987.63,1590.35 L 1927.18,1556.73 L 1874.98,1524.51 L 1828.26,1489.49 L 1778.80,1454.47 L 1737.59,1422.26 L 1690.87,1377.43 L 1655.15,1332.61 L 1624.93,1272.37 L 1602.94,1224.75 L 1663.40,1227.55 L 1718.35,1231.75 M 1756.82,1269.57 L 1715.60,1303.19 L 1800.79,1308.79 M 1883.22,1216.34 L 1946.42,1203.74 L 2006.87,1182.72 L 2072.82,1171.52 L 2122.28,1163.11 L 2188.22,1160.31 L 2256.92,1167.32 L 2317.37,1189.73 L 2369.58,1220.54 L 2432.78,1249.96 L 2479.49,1231.75 L 2520.71,1265.37 L 2570.17,1254.16 L 2633.37,1273.77 M 2652.60,1339.61 L 2713.05,1293.39 L 2685.57,1341.01 L 2597.64,1367.63 L 2534.45,1447.47 L 2493.23,1495.10 L 2452.01,1531.52 L 2473.99,1584.75 L 2523.45,1629.57 L 2592.15,1658.99 L 2660.84,1654.79 L 2710.30,1677.20 L 2724.04,1731.83 L 2754.27,1787.86 L 2784.49,1841.09 M 2594.90,1862.10 L 2523.45,1845.29 L 2460.26,1813.07 L 2413.54,1794.86 L 2350.34,1762.65 L 2281.65,1736.03 L 2215.70,1737.43 L 2243.18,1793.46 L 2311.87,1828.48 L 2355.84,1853.70 L 2408.05,1863.50 L 2449.26,1905.53 L 2512.46,1911.13 M 2647.11,1940.54 L 2696.57,1964.36 L 2759.76,1997.98 M 2927.38,2011.98 L 2946.61,2068.02 L 2976.84,2111.44 L 2996.07,2049.81 L 3062.02,2062.41 L 3004.32,2000.78 L 3073.01,2016.19 L 3144.46,2011.98 L 3213.15,2020.39 L 3279.10,2044.20 L 3339.55,2049.81 L 3391.76,2063.81 L 3309.32,2054.01 L 3207.65,2020.39 L 3202.16,1946.15 L 3136.21,1950.35 L 3067.52,1974.16 L 3004.32,1995.18 L 2952.11,2010.58 L 2993.33,1940.54 L 3062.02,1961.56 M 3034.54,1981.17 L 3001.57,1937.74 M 3122.47,1930.74 M 3229.64,1929.34 L 3287.34,1929.34 L 3350.54,1919.53 M 3397.25,1773.85 L 3380.77,1715.02 L 3350.54,1664.59 L 3262.61,1651.98 L 3361.53,1664.59 M 3180.18,1710.82 L 3114.23,1694.01 L 3051.03,1684.20 L 3108.73,1695.41 L 3160.94,1706.61 L 3202.16,1740.23 L 3215.90,1804.67 M 3155.45,1712.22 L 3092.25,1726.23 L 3026.30,1733.23 L 2957.61,1734.63 L 2908.15,1750.04 L 2861.43,1786.46 L 2913.64,1807.47 L 2946.61,1731.83 L 2891.66,1766.85 L 2919.14,1808.87 L 2982.34,1817.28 L 3070.26,1824.28 L 3144.46,1824.28 M 3084.00,1723.42 L 3029.05,1673.00 L 2963.10,1684.20 L 2894.41,1684.20 L 2822.96,1689.81 L 2743.28,1710.82 M 2636.11,1682.80 L 2614.13,1733.23 L 2614.13,1789.26 L 2616.88,1846.69 M 2473.99,1867.70 L 2421.79,1881.71 L 2465.75,1848.09 L 2421.79,1897.12 L 2364.08,1909.73 M 2419.04,1995.18 L 2476.74,2016.19 M 2581.16,2020.39 L 2625.12,2051.21 L 2564.67,2010.58 L 2504.22,2035.80 L 2441.02,2009.18 L 2375.07,1999.38 L 2377.82,2049.81 L 2424.53,2069.42 L 2487.73,2096.03 L 2550.93,2160.47 L 2616.88,2205.29 L 2685.57,2230.51 L 2729.54,2271.13 L 2811.97,2306.15 L 2866.93,2328.56 L 2935.62,2321.56 L 2924.63,2370.58 L 2985.08,2362.18 L 2921.88,2385.99 L 2990.58,2369.18 L 2919.14,2321.56 L 2847.69,2321.56 L 2792.74,2311.75 L 2726.79,2286.54 L 2762.51,2322.96 L 2842.20,2363.58 L 2787.24,2370.58 L 2724.04,2338.37 L 2792.74,2350.97 L 2858.68,2363.58 L 2811.97,2331.36 L 2746.03,2299.14 L 2798.23,2324.36 L 2866.93,2343.97 L 2784.49,2328.56 L 2724.04,2301.95 L 2787.24,2307.55 L 2735.03,2332.76 L 2784.49,2366.38 L 2726.79,2276.73 L 2789.99,2303.35 L 2877.92,2315.95 L 2968.60,2282.33 L 3012.56,2244.51 L 3040.04,2189.88 L 3048.28,2243.11 L 3007.07,2280.93 L 3122.47,2252.92 L 3075.76,2206.69 L 3116.98,2168.87 L 3051.03,2164.67 L 3116.98,2177.28 M 3015.31,2140.86 L 3062.02,2180.08 L 3105.99,2220.70 L 3136.21,2264.12 L 3196.66,2308.95 L 3279.10,2308.95 L 3342.30,2301.95 M 3009.81,2135.25 L 3031.80,2181.48 L 3020.80,2240.31 L 2982.34,2272.53 L 2930.13,2307.55 L 2910.89,2355.18 M 2061.83,2359.38 L 2083.81,2245.91 M 2369.58,1999.38 L 2377.82,2052.61 L 2432.78,2076.42 L 2482.24,2100.23 L 2528.95,2143.66 L 2603.14,2198.29 L 2652.60,2220.70 M 2515.21,2040.00 L 2457.51,2017.59 L 2380.57,1996.58 M 2498.72,2024.59 L 2430.03,2002.18 L 2369.58,1979.77 L 2336.60,1932.14 M 2479.49,1855.10 L 2493.23,1906.93 L 2559.18,1929.34 L 2627.87,1933.54 L 2674.58,1954.55 L 2765.26,2000.78 M 3048.28,1665.99 L 3042.79,1611.36 L 3040.04,1553.93 L 3034.54,1499.30 L 3034.54,1433.46 L 3023.55,1376.03 L 3020.80,1320.00 L 3012.56,1262.57 L 3009.81,1203.74 L 3007.07,1147.70 L 3001.57,1095.88 L 2998.82,1039.84 L 2985.08,983.81 L 2982.34,916.58 L 2971.34,861.95 L 2963.10,804.51 L 2963.10,745.68 L 2963.10,688.25 L 2954.86,633.62 L 2908.15,607.00 L 2789.99,607.00 L 2718.55,605.60 L 2660.84,602.80 L 2600.39,604.20 L 2509.72,604.20 L 2443.77,602.80 L 2377.82,601.40 L 2287.14,604.20 L 2179.98,601.40 L 2114.03,602.80 M 2265.16,656.03 L 2265.16,707.86 L 2270.66,773.70 L 2281.65,831.13 M 2375.07,882.96 M 2495.98,913.77 M 2482.24,1014.63 L 2531.70,1037.04 L 2578.41,1070.66 L 2605.89,1115.49 L 2614.13,1174.32 L 2553.68,1175.72 L 2484.99,1181.32 L 2537.19,1205.14 L 2468.50,1227.55 L 2441.02,1269.57 L 2482.24,1300.39 M 2410.79,1366.23 L 2350.34,1349.42 L 2284.40,1346.61 L 2223.95,1342.41 L 2273.41,1364.82 L 2339.35,1371.83 M 2218.45,1341.01 M 2265.16,1237.35 L 2212.95,1213.54 L 2265.16,1206.54 L 2199.21,1216.34 L 2130.52,1209.34 L 2070.07,1213.54 L 2127.77,1231.75 L 2190.97,1217.74 L 2166.24,1170.12 L 2215.70,1181.32 L 2295.39,1189.73 L 2355.84,1219.14 L 2325.61,1266.77 L 2397.06,1234.55 L 2441.02,1272.37 L 2512.46,1242.96 L 2583.91,1262.57 L 2603.14,1210.74 L 2671.84,1224.75 L 2724.04,1254.16 L 2691.07,1325.60 L 2644.36,1349.42 L 2729.54,1318.60 L 2729.54,1373.23 L 2735.03,1439.07 L 2737.78,1492.30 L 2746.03,1572.14 L 2751.52,1632.37 M 2454.76,1608.56 L 2397.06,1593.15 L 2353.09,1616.96 L 2402.55,1591.75 L 2443.77,1549.73 L 2476.74,1504.90 L 2520.71,1457.28 L 2553.68,1411.05 L 2592.15,1370.43 L 2660.84,1349.42 L 2721.30,1317.20 L 2754.27,1273.77 L 2696.57,1227.55 L 2636.11,1203.74 L 2641.61,1144.90 L 2592.15,1088.87 L 2550.93,1049.65 L 2482.24,1018.83 L 2413.54,1007.63 L 2361.33,1003.42 L 2416.29,1009.03 M 2256.92,1144.90 L 2306.38,1160.31 L 2237.68,1171.52 L 2168.99,1165.91 L 2100.29,1170.12 L 2034.35,1212.14 L 2086.56,1191.13 L 2152.50,1189.73 L 2210.21,1209.34 L 2149.75,1174.32 L 2078.31,1182.72 L 2037.10,1213.54 L 2053.58,1283.58 M 2048.09,1287.78 L 2097.55,1308.79 L 2166.24,1317.20 L 2234.94,1310.19 M 2116.78,1318.60 L 2059.08,1297.59 L 2020.61,1252.76 L 1968.40,1196.73 L 1905.20,1192.53 L 1866.73,1228.95 M 1998.63,1192.53 L 2070.07,1172.92 L 2105.79,1129.49 L 2053.58,1140.70 L 2001.37,1163.11 L 2059.08,1142.10 L 2108.54,1130.89 L 2171.74,1133.70 L 2243.18,1143.50 L 2309.13,1158.91 L 2248.68,1177.12 L 2309.13,1199.53 L 2314.62,1258.37 M 2413.54,1217.74 M 2594.90,1213.54 L 2600.39,1265.37 L 2597.64,1315.80 L 2630.62,1353.62 L 2677.33,1335.41 L 2721.30,1294.79 M 2449.26,1458.68 L 2358.59,1433.46 L 2295.39,1430.66 L 2232.19,1436.26 L 2168.99,1443.27 L 2251.42,1495.10 L 2292.64,1527.32 L 2358.59,1544.12 L 2424.53,1541.32 L 2361.33,1555.33 L 2328.36,1511.91 L 2267.91,1490.89 L 2223.95,1465.68 L 2278.90,1520.31 M 2454.76,1479.69 L 2394.31,1461.48 L 2325.61,1461.48 L 2259.67,1453.07 L 2196.47,1451.67 L 2248.68,1488.09 L 2303.63,1514.71 M 2493.23,1493.70 L 2495.98,1598.75 L 2548.18,1642.18 M 2259.67,1636.58 L 2199.21,1633.77 L 2229.44,1729.03 L 2234.94,1787.86 L 2289.89,1821.48 L 2347.60,1855.10 M 2559.18,1867.70 L 2498.72,1832.68 L 2413.54,1799.07 L 2298.14,1740.23 M 1946.42,1614.16 M 1831.01,1560.93 L 1787.05,1532.92 L 1839.25,1562.33 L 1778.80,1535.72 L 1844.75,1576.34 M 1710.11,1560.93 L 1649.66,1538.52 L 1701.86,1563.74 M 1858.49,1612.76 L 1803.53,1601.56 L 1707.36,1577.74 L 1622.18,1555.33 L 1487.54,1521.71 L 1377.63,1500.70 L 1295.19,1490.89 L 1242.98,1479.69 L 1188.03,1472.68 L 1133.07,1419.46 M 1039.65,1462.88 L 1100.10,1488.09 L 1034.15,1440.47 L 970.95,1458.68 L 924.24,1476.89 L 858.29,1495.10 L 830.81,1538.52 L 891.27,1537.12 L 979.20,1520.31 L 1045.14,1503.50 L 987.44,1517.51 L 905.00,1478.29 L 965.46,1457.28 M 1064.38,1408.25 L 1127.58,1392.84 L 1174.29,1373.23 L 1144.06,1418.05 L 1094.60,1443.27 L 1127.58,1404.05 L 1163.30,1359.22 L 1207.26,1390.04 L 1182.53,1443.27 L 1221.00,1478.29 L 1284.20,1486.69 L 1352.89,1496.50 L 1416.09,1504.90 L 1476.55,1518.91 L 1545.24,1535.72 L 1611.19,1549.73 L 1674.39,1569.34 L 1740.33,1586.15 L 1809.03,1600.16 L 1872.23,1615.56 L 1943.67,1619.77 M 2454.76,1488.09 L 2421.79,1446.07 M 2311.87,1269.57 L 2267.91,1308.79 L 2306.38,1273.77 L 2331.11,1228.95 L 2287.14,1182.72 L 2237.68,1170.12 L 2289.89,1181.32 L 2336.60,1213.54 L 2388.81,1216.34 L 2441.02,1228.95 L 2495.98,1212.14 L 2559.18,1203.74 L 2671.84,1217.74 L 2737.78,1261.17 M 1973.90,1119.69 L 1907.95,1156.11 L 1954.66,1126.69 M 1740.33,1046.85 L 1674.39,1079.07 L 1608.44,1080.47 L 1542.49,1079.07 L 1454.56,1079.07 L 1366.63,1080.47 L 1278.70,1081.87 L 1212.76,1083.27 L 1127.58,1084.67 L 1014.92,1088.87 L 940.73,1091.67 L 877.53,1093.07 L 877.53,1157.51 L 880.27,1213.54 L 916.00,1255.56 L 979.20,1266.77 L 1042.39,1280.78 L 1108.34,1286.38 L 1177.04,1251.36 M 1237.49,1350.82 M 1171.54,1439.07 L 1168.79,1387.24 L 1116.58,1362.02 L 1056.13,1338.21 L 973.70,1303.19 L 995.68,1349.42 L 1020.41,1395.64 L 973.70,1315.80 L 1025.91,1329.81 L 1083.61,1350.82 L 1135.82,1371.83 M 1069.87,1460.08 L 1020.41,1441.87 L 998.43,1395.64 L 965.46,1350.82 L 926.99,1303.19 L 979.20,1296.19 L 1039.65,1317.20 L 1094.60,1341.01 L 1160.55,1366.23 L 1045.14,1282.18 L 990.19,1270.97 M 1116.58,1167.32 M 932.48,1072.06 L 863.79,1065.06 L 1001.18,1076.26 M 1089.11,993.62 L 1036.90,967.00 L 1023.16,1024.44 L 1045.14,1074.86 L 1102.85,1074.86 L 1185.28,1069.26 M 1339.16,1065.06 L 1325.42,1007.63 L 1270.46,988.02 M 1416.09,878.75 L 1487.54,863.35 L 1572.72,887.16 L 1660.65,887.16 L 1745.83,881.56 L 1855.74,880.16 L 1924.44,880.16 L 1965.65,917.98 L 2017.86,882.96 L 2075.56,871.75 M 1891.46,832.53 L 1825.52,832.53 L 1877.72,859.14 L 1814.52,868.95 L 1745.83,873.15 L 1776.05,828.33 L 1740.33,867.55 L 1800.79,854.94 L 1872.23,849.34 L 1924.44,857.74 L 1861.24,822.72 M 1759.57,867.55 L 1707.36,874.55 L 1638.67,874.55 L 1627.67,818.52 L 1561.73,829.73 L 1498.53,819.92 L 1556.23,852.14 L 1619.43,853.54 L 1545.24,867.55 M 1542.49,873.15 L 1506.77,831.13 L 1580.96,831.13 M 1429.83,874.55 L 1429.83,930.58 L 1443.57,985.21 L 1454.56,1044.05 M 1704.61,1066.46 L 1699.12,1123.89 L 1690.87,1182.72 L 1671.64,1244.36 L 1666.14,1297.59 L 1712.86,1334.01 M 1762.32,986.61 M 1877.72,930.58 L 1825.52,967.00 L 1754.07,1000.62 L 1729.34,1045.45 M 1100.10,944.59 L 1028.66,944.59 M 874.78,1079.07 M 830.81,1144.90 L 841.81,1200.93 L 861.04,1256.96 L 913.25,1275.18 L 981.94,1298.99 L 1050.64,1321.40 L 1113.84,1346.61 L 1182.53,1342.41 M 817.08,1541.32 L 753.88,1548.33 L 685.18,1570.74 L 621.98,1605.76 L 696.17,1573.54 L 762.12,1552.53 M 872.03,1266.77 L 855.54,1216.34 L 844.55,1160.31 L 836.31,1102.88 M 2185.48,870.35 L 2168.99,812.92 L 2152.50,745.68 L 2152.50,804.51 L 2160.75,860.54 M 2311.87,868.95 L 2311.87,812.92 L 2300.88,756.89 L 2322.87,709.26 L 2328.36,772.30 L 2342.10,828.33 L 2386.06,882.96 L 2446.52,889.96 L 2509.72,920.78 M 2680.08,801.71 L 2682.83,854.94 L 2691.07,913.77 L 2693.82,969.81 L 2699.31,1025.84 L 2710.30,1081.87 L 2713.05,1137.90 L 2715.80,1191.13 M 2682.83,1020.23 L 2671.84,964.20 L 2671.84,906.77 L 2669.09,852.14 L 2663.59,794.71 M 2864.18,726.07 L 2855.94,780.70 L 2866.93,847.94 L 2872.42,905.37 L 2875.17,974.01 L 2869.68,1041.25 M 2256.92,878.75 L 2265.16,798.91 L 2262.41,747.08 L 2256.92,692.45 M 2905.40,611.21 L 2891.66,663.04 L 2897.15,728.87 L 2919.14,821.32 L 2924.63,878.75 L 2927.38,936.19 L 2932.88,992.22 L 2941.12,1053.85 L 2949.36,1112.68 L 2963.10,1170.12 L 2963.10,1247.16 L 2976.84,1301.79 L 2985.08,1360.62 L 2998.82,1416.65 L 3009.81,1472.68 L 3026.30,1539.92 L 3031.80,1594.55 L 3040.04,1651.98" fill="none" stroke="black" stroke-width="2" stroke-linecap="round" stroke-linejoin="round"/>
    </svg>