<svg width="4000" height="3000" xmlns="http://www.w3.org/2000/svg" viewBox="0 0 4000 3000">
      <path d="M 2300.00,1329.27 L 2250.02,1314.72 L 2202.62,1297.56 L 2158.05,1277.92 L 2116.56,1255.97 L 2078.40,1231.85 L 2043.80,1205.71 L 2013.02,1177.72 L 1986.30,1148.02 L 1963.89,1116.75 L 1946.03,1084.09 L 1932.97,1050.16 L 1924.95,1015.14 L 1922.22,979.17 L 1924.95,943.21 L 1932.98,908.21 L 1946.06,874.31 L 1963.93,841.66 L 1986.36,810.41 L 2013.10,780.72 L 2043.89,752.74 L 2078.49,726.61 L 2116.66,702.50 L 2158.14,680.54 L 2202.69,660.90 L 2250.06,643.73 L 2300.00,629.17 L 2186.06,607.56 L 2063.89,600.00 L 2005.68,601.68 L 1949.01,606.63 L 1894.12,614.69 L 1841.25,625.70 L 1790.66,639.53 L 1742.59,656.02 L 1697.29,675.00 L 1654.99,696.35 L 1615.94,719.90 L 1580.40,745.49 L 1548.60,772.99 L 1520.79,802.24 L 1497.22,833.08 M 968.33,1650.00 L 932.86,1648.98 L 898.34,1645.98 L 864.93,1641.10 L 832.78,1634.42 L 802.05,1626.04 L 772.89,1616.06 L 745.46,1604.57 L 719.91,1591.66 L 696.39,1577.42 L 675.06,1561.96 L 656.07,1545.35 L 639.58,1527.70 L 625.74,1509.10 L 614.71,1489.64 L 606.64,1469.42 L 601.69,1448.53 L 600.00,1427.06 L 601.62,1406.77 L 606.40,1386.81 L 614.24,1367.30 L 625.03,1348.37 L 638.65,1330.12 L 655.00,1312.69 L 673.98,1296.20 L 695.46,1280.77 L 719.34,1266.51 L 745.51,1253.55 L 773.87,1242.01 L 804.30,1232.02 L 836.70,1223.69 L 870.95,1217.14 L 906.94,1212.50 L 921.65,1193.55 L 939.01,1175.48 L 958.86,1158.42 L 981.06,1142.46 L 1005.44,1127.71 L 1031.86,1114.30 L 1060.16,1102.32 L 1090.20,1091.88 L 1121.80,1083.09 L 1154.83,1076.07 L 1189.12,1070.92 L 1224.53,1067.75 L 1260.90,1066.67 L 1298.74,1067.78 L 1335.53,1071.06 L 1371.09,1076.40 L 1405.27,1083.69 L 1437.87,1092.83 L 1468.74,1103.72 L 1497.69,1116.24 L 1524.56,1130.30 L 1549.16,1145.79 L 1571.34,1162.60 L 1590.91,1180.63 L 1607.70,1199.78 L 1621.54,1219.93 L 1632.25,1241.00 L 1639.67,1262.86 L 1643.61,1285.42 L 1668.03,1292.83 L 1691.17,1301.64 L 1712.91,1311.74 L 1733.15,1323.05 L 1751.75,1335.45 L 1768.61,1348.85 L 1783.60,1363.16 L 1796.61,1378.26 L 1807.52,1394.07 L 1816.20,1410.49 L 1822.56,1427.41 L 1826.45,1444.74 L 1827.78,1462.37 L 1826.37,1480.44 L 1822.24,1498.02 L 1815.52,1515.04 L 1806.32,1531.42 L 1794.79,1547.07 L 1781.05,1561.93 L 1765.23,1575.90 L 1747.45,1588.92 L 1727.86,1600.90 L 1706.56,1611.77 L 1683.70,1621.44 L 1659.40,1629.84 L 1633.79,1636.89 L 1607.00,1642.51 L 1579.16,1646.62 L 1550.39,1649.14 L 1520.83,1650.00 L 968.33,1650.00" fill="none" stroke="black" stroke-width="2" stroke-linecap="round" stroke-linejoin="round"/>
    </svg>