<svg width="4000" height="3000" xmlns="http://www.w3.org/2000/svg" viewBox="0 0 4000 3000">
      <path d="M 1662.26,601.76 L 1716.73,630.00 L 1782.10,658.24 L 1874.71,700.59 L 2068.09,787.06 L 2130.74,815.29 L 2196.11,841.76 L 2258.75,871.76 L 2321.40,900.00 L 2381.32,928.24 L 2427.63,947.65 L 2487.55,926.47 L 2550.19,892.94 L 2596.50,868.24 L 2642.80,848.82 L 2689.11,829.41 L 2754.47,802.94 L 2817.12,769.41 L 2863.42,748.24 L 2928.79,716.47 L 2988.72,688.24 L 3035.02,665.29 L 3081.32,645.88 L 3146.69,615.88 L 3089.49,644.12 L 2996.89,690.00 L 2898.83,732.35 L 2836.19,760.59 L 2746.30,802.94 L 2683.66,829.41 L 2599.22,871.76 L 2547.47,900.00 L 2487.55,928.24 M 2362.26,908.82 L 2299.61,878.82 L 2253.31,859.41 L 2185.21,831.18 L 2100.78,792.35 L 2147.08,815.29 L 2215.18,825.88 L 2299.61,868.24 L 2362.26,896.47 L 2427.63,928.24 L 2498.44,910.59 L 2566.54,880.59 L 2629.18,848.82 L 2675.49,827.65 L 2743.58,797.65 L 2808.95,767.65 L 2768.09,725.29 L 2721.79,702.35 L 2650.97,665.29 L 2607.39,638.82 L 2561.09,614.12 L 2615.56,645.88 L 2661.87,674.12 L 2705.45,704.12 L 2757.20,732.35 L 2803.50,764.12 L 2749.03,792.35 L 2691.83,820.59 L 2599.22,862.94 L 2542.02,891.18 L 2484.82,917.65 M 2479.38,1002.35 L 2528.40,977.65 L 2460.31,1005.88 L 2405.84,1030.59 L 2359.53,1051.76 L 2313.23,1094.12 L 2375.88,1064.12 L 2318.68,1092.35 L 2269.65,1132.94 L 2242.41,1187.65 L 2223.35,1247.65 L 2236.96,1309.41 L 2291.44,1360.59 L 2315.95,1415.29 L 2261.48,1434.71 L 2242.41,1489.41 L 2207.00,1533.53 L 2141.63,1535.29 L 2076.26,1545.88 L 2008.17,1552.94 L 1942.80,1558.24 L 1880.16,1574.12 L 1814.79,1600.59 L 1749.42,1641.18 L 1708.56,1687.06 L 1662.26,1761.18 L 1615.95,1819.41 M 1556.03,1953.53 M 1474.32,2101.76 M 1430.74,2220.00 M 1438.91,2338.24 L 1384.44,2357.65 M 1300.00,2347.06 L 1218.29,2350.59 M 1272.76,2347.06 L 1329.96,2362.94 M 1152.92,2378.82 L 1087.55,2378.82 L 1041.25,2359.41 L 978.60,2371.76 L 910.51,2377.06 L 847.86,2355.88 L 910.51,2345.29 L 1041.25,2348.82 L 1098.44,2361.18 L 1049.42,2375.29 L 1103.89,2387.65 L 1171.98,2382.35 L 1161.09,2327.65 L 1210.12,2357.65 L 1300.00,2354.12 M 1272.76,2235.88 L 1223.74,2184.71 L 1171.98,2200.59 L 1136.58,2241.18 L 1166.54,2200.59 L 1231.91,2181.18 L 1286.38,2190.00 L 1302.72,2241.18 L 1316.34,2295.88 L 1289.11,2355.88 M 1253.70,2237.65 L 1218.29,2197.06 L 1174.71,2228.82 L 1226.46,2190.00 L 1294.55,2207.65 L 1215.56,2195.29 L 1169.26,2225.29 L 1155.64,2278.24 L 1106.61,2318.82 L 1065.76,2281.76 L 1063.04,2336.47 L 1060.31,2248.24 L 1016.73,2205.88 L 954.09,2195.29 L 899.61,2221.76 L 858.75,2267.65 L 877.82,2207.65 L 940.47,2190.00 L 1011.28,2191.76 L 1079.38,2221.76 L 997.67,2197.06 L 929.57,2198.82 L 861.48,2237.65 L 929.57,2207.65 L 861.48,2232.35 L 834.24,2274.71 L 812.45,2331.18 L 760.70,2359.41 M 847.86,2278.24 L 872.37,2234.12 L 937.74,2193.53 L 869.65,2220.00 L 924.12,2197.06 L 858.75,2223.53 L 828.79,2264.12 L 812.45,2315.29 L 760.70,2341.76 M 891.44,2398.24 L 831.52,2398.24 L 717.12,2389.41 L 681.71,2352.35 L 757.98,2385.88 L 842.41,2394.71 M 733.46,2345.29 L 662.65,2338.24 L 613.62,2350.59 L 676.26,2370.00 L 741.63,2375.29 L 804.28,2380.59 L 869.65,2387.65 L 935.02,2394.71 L 1000.39,2387.65 L 1065.76,2371.76 L 1133.85,2359.41 L 1196.50,2380.59 L 1259.14,2384.12 L 1324.51,2370.00 L 1373.54,2359.41 L 1438.91,2350.59 M 1351.75,2160.00 L 1359.92,2108.82 L 1370.82,2048.82 M 1201.95,2191.76 L 1152.92,2227.06 L 1133.85,2280.00 M 1060.31,2361.18 L 1011.28,2377.06 L 1057.59,2345.29 L 1057.59,2283.53 L 1054.86,2228.82 M 1065.76,2223.53 M 926.85,2198.82 L 864.20,2230.59 L 842.41,2276.47 L 831.52,2329.41 M 1349.03,1785.88 L 1308.17,1743.53 L 1359.92,1718.82 L 1305.45,1731.18 L 1250.97,1713.53 L 1204.67,1740.00 L 1253.70,1711.76 L 1302.72,1727.65 L 1340.86,1770.00 L 1365.37,1840.59 L 1368.09,1897.06 L 1368.09,1958.82 L 1354.47,2017.06 L 1378.99,2071.76 L 1349.03,2138.82 L 1354.47,2207.65 L 1340.86,2265.88 L 1362.65,2324.12 M 1964.59,2362.94 L 2010.89,2382.35 L 2095.33,2375.29 L 2207.00,2364.71 L 2269.65,2357.65 L 2335.02,2311.76 L 2275.10,2334.71 L 2318.68,2302.94 L 2386.77,2288.82 L 2449.42,2290.59 L 2509.34,2288.82 L 2574.71,2280.00 L 2642.80,2269.41 L 2710.89,2225.29 L 2686.38,2269.41 L 2735.41,2287.06 L 2686.38,2274.71 M 2724.51,2223.53 L 2746.30,2281.76 L 2800.78,2306.47 L 2847.08,2332.94 L 2795.33,2340.00 L 2727.24,2331.18 L 2680.93,2311.76 L 2746.30,2341.76 L 2789.88,2373.53 L 2746.30,2343.53 L 2686.38,2320.59 L 2765.37,2345.29 L 2819.84,2377.06 L 2931.52,2378.82 L 3021.40,2380.59 L 3092.22,2382.35 L 3154.86,2378.82 L 3220.23,2384.12 L 3280.16,2384.12 L 3307.39,2329.41 L 3345.53,2272.94 L 3315.56,2334.71 L 3372.76,2327.65 L 3394.55,2235.88 L 3331.91,2220.00 L 3269.26,2227.06 L 3182.10,2221.76 L 3114.01,2223.53 L 3051.36,2204.12 L 3037.74,2151.18 L 2999.61,2110.59 L 2999.61,2052.35 L 2985.99,1997.65 L 2956.03,1928.82 L 2958.75,1868.82 L 2939.69,1810.59 L 2912.45,1768.24 L 2860.70,1740.00 L 2887.94,1685.29 L 2879.77,1632.35 L 2800.78,1588.24 L 2746.30,1561.76 L 2697.28,1547.65 L 2650.97,1524.71 L 2588.33,1489.41 L 2640.08,1522.94 M 2773.54,1577.65 L 2833.46,1605.88 L 2877.04,1634.12 L 2907.00,1676.47 L 2857.98,1704.71 L 2898.83,1759.41 L 2939.69,1812.35 L 2956.03,1867.06 L 2958.75,1923.53 L 2996.89,1967.65 L 2999.61,2038.24 L 3005.06,2096.47 L 3040.47,2152.94 L 3070.43,2211.18 L 3018.68,2140.59 M 2980.54,2024.12 L 2996.89,1974.71 L 3059.53,1967.65 L 3108.56,1955.29 L 2996.89,1969.41 L 2961.48,1928.82 M 3078.60,2017.06 L 3146.69,2015.29 L 3206.61,1997.65 L 3154.86,2027.65 L 3100.39,2029.41 M 3222.96,2015.29 L 3228.40,2070.00 M 3111.28,1948.24 L 3103.11,1890.00 L 3084.05,1803.53 L 3070.43,1708.24 L 3054.09,1651.76 L 3010.51,1618.24 L 2942.41,1632.35 L 2882.49,1632.35 L 2838.91,1604.12 L 2776.26,1570.59 M 2787.16,1558.24 L 2847.08,1551.18 L 2898.83,1485.88 L 2964.20,1468.24 L 3029.57,1452.35 L 3097.67,1436.47 L 3045.91,1445.29 L 2994.16,1459.41 L 2939.69,1473.53 L 2909.73,1411.76 M 2907.00,1335.88 L 2863.42,1297.06 L 2822.57,1344.71 L 2759.92,1342.94 L 2697.28,1295.29 L 2754.47,1339.41 L 2819.84,1330.59 L 2784.44,1275.88 L 2729.96,1247.65 L 2754.47,1302.35 M 2670.04,1244.12 L 2604.67,1251.18 L 2536.58,1263.53 L 2473.93,1268.82 L 2552.92,1265.29 L 2520.23,1309.41 L 2473.93,1281.18 L 2414.01,1258.24 L 2348.64,1300.59 L 2400.39,1270.59 L 2443.97,1309.41 M 2463.04,1364.12 L 2490.27,1427.65 L 2473.93,1478.82 L 2460.31,1417.06 L 2427.63,1459.41 L 2463.04,1498.24 L 2397.67,1475.29 L 2482.10,1501.76 L 2558.37,1531.76 L 2612.84,1560.00 L 2656.42,1586.47 M 2806.23,1551.18 L 2743.58,1537.06 L 2672.76,1519.41 L 2612.84,1500.00 L 2550.19,1478.82 L 2626.46,1514.12 L 2672.76,1544.12 L 2754.47,1545.88 L 2697.28,1530.00 L 2580.16,1485.88 M 2416.73,1459.41 M 2498.44,1418.82 L 2547.47,1455.88 L 2615.56,1484.12 L 2689.11,1512.35 L 2789.88,1542.35 L 2836.19,1475.29 L 2787.16,1452.35 L 2852.53,1445.29 L 2795.33,1436.47 M 2898.83,1390.59 L 2958.75,1376.47 L 2991.44,1307.65 L 2936.96,1291.76 L 2991.44,1318.24 L 2953.31,1277.65 L 2901.56,1281.18 L 2907.00,1341.18 L 2942.41,1381.76 L 2917.90,1432.94 L 2887.94,1475.29 L 2863.42,1533.53 L 2969.65,1530.00 L 3032.30,1517.65 L 3100.39,1507.06 L 3037.74,1517.65 L 2969.65,1530.00 L 2912.45,1535.29 L 2964.20,1526.47 L 3059.53,1507.06 M 3133.07,1556.47 M 3040.47,1607.65 L 3056.81,1680.00 L 3075.88,1740.00 L 3084.05,1798.24 L 3092.22,1852.94 L 3103.11,1907.65 L 3097.67,1845.88 L 3092.22,1787.65 M 3326.46,1745.29 L 3364.59,1694.12 L 3331.91,1740.00 M 3370.04,1699.41 L 3350.97,1644.71 L 3337.35,1590.00 L 3321.01,1533.53 L 3304.67,1477.06 L 3288.33,1418.82 L 3266.54,1348.24 L 3337.35,1321.76 L 3391.83,1309.41 L 3326.46,1323.53 L 3386.38,1300.59 L 3323.74,1318.24 L 3252.92,1327.06 M 3383.66,1304.12 L 3334.63,1318.24 L 3269.26,1327.06 L 3291.05,1390.59 L 3307.39,1447.06 L 3323.74,1494.71 L 3340.08,1552.94 L 3356.42,1609.41 L 3370.04,1660.59 L 3380.93,1715.29 M 3361.87,1727.65 M 3301.95,1572.35 L 3340.08,1609.41 L 3293.77,1582.94 L 3337.35,1611.18 M 3029.57,1621.76 L 2966.93,1632.35 L 2898.83,1644.71 L 2833.46,1717.06 L 2874.32,1747.06 L 2920.62,1768.24 M 2825.29,1717.06 L 2871.60,1697.65 L 2795.33,1702.94 M 2621.01,1748.82 L 2610.12,1808.82 L 2612.84,1752.35 L 2634.63,1805.29 M 3026.85,1614.71 L 3048.64,1669.41 L 3059.53,1729.41 L 3070.43,1787.65 L 3081.32,1844.12 L 3086.77,1902.35 M 3356.42,2227.06 M 2874.32,2364.71 L 2825.29,2324.12 M 2656.42,2366.47 L 2591.05,2341.76 L 2642.80,2373.53 L 2702.72,2371.76 L 2768.09,2362.94 L 2700.00,2368.24 L 2634.63,2347.06 M 2498.44,2331.18 M 2612.84,2288.82 L 2558.37,2288.82 L 2656.42,2272.94 M 2740.86,2288.82 L 2792.61,2304.71 L 2803.50,2364.71 M 2509.34,2362.94 L 2457.59,2357.65 M 2389.49,2276.47 L 2329.57,2310.00 L 2288.72,2352.35 L 2435.80,2361.18 L 2498.44,2355.88 L 2563.81,2366.47 M 2473.93,2149.41 L 2394.94,2218.24 L 2324.12,2272.94 L 2275.10,2315.29 L 2228.79,2341.76 L 2152.53,2355.88 L 2212.45,2350.59 L 2299.61,2295.88 L 2340.47,2257.06 L 2384.05,2218.24 L 2433.07,2177.65 L 2479.38,2145.88 L 2422.18,2179.41 L 2340.47,2253.53 L 2283.27,2297.65 L 2220.62,2338.24 M 2103.50,2364.71 L 2038.13,2371.76 L 1972.76,2377.06 M 1400.78,1694.12 L 1335.41,1708.24 L 1316.34,1648.24 L 1354.47,1607.65 L 1395.33,1563.53 L 1422.57,1508.82 L 1403.50,1561.76 L 1368.09,1605.88 L 1324.51,1634.12 L 1351.75,1680.00 L 1419.84,1674.71 L 1436.19,1618.24 L 1466.15,1575.88 L 1471.60,1514.12 L 1457.98,1452.35 L 1444.36,1397.65 L 1438.91,1342.94 L 1485.21,1302.35 L 1520.62,1260.00 L 1531.52,1203.53 L 1526.07,1254.71 L 1490.66,1297.06 L 1441.63,1325.29 L 1444.36,1383.53 L 1455.25,1440.00 L 1468.87,1496.47 L 1463.42,1549.41 L 1433.46,1604.12 L 1389.88,1634.12 L 1430.74,1593.53 L 1376.26,1595.29 L 1329.96,1628.82 M 1131.13,1618.24 L 1087.55,1644.71 L 1024.90,1660.59 L 1084.82,1646.47 L 1131.13,1620.00 M 1005.84,1616.47 L 986.77,1669.41 M 1016.73,1517.65 L 1068.48,1512.35 L 1112.06,1425.88 L 1180.16,1413.53 L 1117.51,1424.12 M 1231.91,1353.53 L 1193.77,1320.00 L 1158.37,1376.47 L 1229.18,1350.00 L 1215.56,1399.41 L 1221.01,1300.59 L 1250.97,1256.47 L 1316.34,1282.94 L 1272.76,1244.12 L 1321.79,1221.18 L 1389.88,1244.12 L 1343.58,1191.18 L 1264.59,1191.18 L 1275.49,1245.88 L 1240.08,1284.71 L 1234.63,1335.88 L 1182.88,1380.00 M 1359.92,1395.88 L 1316.34,1434.71 L 1267.32,1452.35 L 1221.01,1471.76 L 1158.37,1507.06 L 1090.27,1517.65 L 1022.18,1505.29 L 945.91,1475.29 L 1024.90,1510.59 L 1003.11,1568.82 L 964.98,1609.41 L 1003.11,1567.06 M 809.73,1505.29 L 763.42,1452.35 L 801.56,1503.53 L 738.91,1512.35 L 782.49,1549.41 L 823.35,1579.41 L 864.20,1609.41 L 905.06,1648.24 L 948.64,1688.82 L 994.94,1665.88 M 1084.82,1508.82 L 1019.46,1491.18 L 959.53,1466.47 L 888.72,1440.00 L 823.35,1406.47 L 782.49,1372.94 L 847.86,1424.12 L 910.51,1450.59 L 975.88,1478.82 L 1060.31,1507.06 M 782.49,1404.71 L 774.32,1473.53 L 809.73,1512.35 L 766.15,1480.59 L 719.84,1443.53 L 722.57,1496.47 L 752.53,1538.82 L 801.56,1565.29 L 845.14,1593.53 L 907.78,1648.24 M 1455.25,1582.94 L 1408.95,1628.82 L 1433.46,1581.18 L 1436.19,1522.94 M 1444.36,1325.29 L 1487.94,1298.82 M 1561.48,1230.00 L 1545.14,1171.76 M 1457.98,1115.29 L 1468.87,1060.59 L 1406.23,1012.94 L 1433.46,1055.29 L 1460.70,1113.53 L 1471.60,1171.76 L 1534.24,1104.71 L 1487.94,1069.41 L 1422.57,986.47 L 1482.49,1046.47 L 1520.62,1094.12 M 1378.99,1078.24 L 1335.41,1030.59 L 1384.44,1072.94 L 1411.67,1141.76 L 1365.37,1118.82 L 1302.72,1120.59 L 1359.92,1102.94 L 1406.23,1152.35 L 1395.33,1207.06 L 1349.03,1171.76 L 1286.38,1168.24 L 1365.37,1180.59 L 1387.16,1226.47 L 1359.92,1277.65 M 1234.63,1238.82 L 1182.88,1277.65 M 1043.97,1173.53 L 978.60,1171.76 L 1043.97,1170.00 L 986.77,1159.41 M 1024.90,1092.35 L 973.15,1104.71 L 907.78,1127.65 L 970.43,1127.65 L 907.78,1117.06 L 962.26,1085.29 L 1022.18,1080.00 L 1087.55,1095.88 L 1027.63,1090.59 L 1093.00,1113.53 L 1027.63,1113.53 L 1065.76,1150.59 M 973.15,1145.29 L 1016.73,1102.94 L 973.15,1129.41 M 883.27,1145.29 L 836.96,1110.00 L 915.95,1053.53 L 1003.11,1035.88 L 1068.48,1042.94 L 1133.85,1062.35 L 1076.65,1021.76 L 992.22,1021.76 L 915.95,1050.00 L 823.35,1106.47 L 787.94,1148.82 L 768.87,1203.53 L 757.98,1263.53 L 755.25,1320.00 L 760.70,1376.47 L 678.99,1312.94 L 613.62,1312.94 M 670.82,1314.71 M 662.65,1203.53 L 619.07,1228.24 L 662.65,1200.00 L 619.07,1166.47 L 673.54,1164.71 L 670.82,1219.41 M 785.21,1150.59 M 910.51,1094.12 M 1014.01,1085.29 L 1076.65,1113.53 L 1027.63,1083.53 L 1060.31,1035.88 L 1109.34,1050.00 L 1161.09,1078.24 L 1112.06,1028.82 L 1049.42,998.82 L 1117.51,979.41 L 1193.77,974.12 L 1248.25,981.18 L 1316.34,1011.18 L 1378.99,1053.53 M 1368.09,1182.35 L 1305.45,1184.12 M 1553.31,1274.12 L 1577.82,1208.82 L 1572.37,1150.59 L 1550.58,1097.65 L 1509.73,1041.18 L 1463.42,1000.59 L 1419.84,972.35 L 1357.20,942.35 L 1422.57,931.76 M 1482.49,960.00 L 1411.67,930.00 L 1466.15,937.06 L 1504.28,970.59 L 1457.98,940.59 L 1392.61,926.47 L 1327.24,928.24 L 1264.59,894.71 L 1215.56,857.65 L 1272.76,887.65 L 1300.00,930.00 L 1259.14,871.76 L 1212.84,852.35 L 1259.14,891.18 L 1289.11,938.82 L 1229.18,894.71 L 1177.43,880.59 L 1122.96,862.94 L 1057.59,852.35 L 967.70,847.06 L 880.54,859.41 L 807.00,901.76 L 885.99,884.12 L 804.28,885.88 L 725.29,914.12 L 665.37,940.59 L 621.79,968.82 L 668.09,940.59 L 714.40,921.18 L 659.92,935.29 L 722.57,901.76 L 787.94,891.18 L 853.31,878.82 L 986.77,864.71 L 1073.93,864.71 L 1139.30,873.53 L 1201.95,887.65 L 1267.32,910.59 L 1313.62,933.53 L 1378.99,944.12 L 1444.36,979.41 L 1487.94,1014.71 L 1534.24,1067.65 M 1098.44,960.00 L 1027.63,990.00 L 970.43,1018.24 L 1027.63,984.71 L 1093.00,960.00 L 1163.81,965.29 L 1229.18,984.71 L 1302.72,1009.41 L 1351.75,1037.65 L 1398.05,1078.24 L 1425.29,1132.94 L 1425.29,1185.88 L 1392.61,1240.59 L 1362.65,1307.65 L 1368.09,1376.47 L 1335.41,1424.12 L 1283.66,1452.35 L 1221.01,1478.82 L 1169.26,1507.06 M 1950.97,1561.76 L 1891.05,1575.88 L 1814.79,1605.88 L 1771.21,1632.35 L 1716.73,1672.94 L 1659.53,1771.76 L 1621.40,1814.12 L 1588.72,1856.47 L 1585.99,1911.18 L 1550.58,1964.12 L 1523.35,2020.59 L 1501.56,2080.59 L 1466.15,2124.71 L 1447.08,2179.41 L 1428.02,2234.12 L 1417.12,2290.59 L 1438.91,2336.47 L 1493.39,2355.88 L 1558.75,2354.12 L 1667.70,2355.88 L 1773.93,2359.41 L 1839.30,2361.18 L 1901.95,2361.18 L 2032.68,2361.18 L 2128.02,2350.59 L 2196.11,2347.06 L 2256.03,2318.82 L 2296.89,2285.29 L 2356.81,2228.82 L 2400.39,2188.24 L 2446.69,2145.88 L 2441.25,2200.59 L 2484.82,2163.53 M 2166.15,1531.76 M 2392.22,1318.24 L 2449.42,1346.47 L 2501.17,1312.94 L 2433.07,1312.94 L 2375.88,1286.47 L 2394.94,1337.65 L 2416.73,1284.71 L 2362.26,1282.94 L 2370.43,1348.24 L 2414.01,1381.76 L 2473.93,1387.06 L 2520.23,1443.53 L 2566.54,1462.94 L 2631.91,1491.18 L 2697.28,1512.35 L 2759.92,1535.29 L 2822.57,1552.94 L 2866.15,1508.82 L 2912.45,1445.29 L 2961.48,1522.94 L 3029.57,1507.06 L 3094.94,1492.94 L 3032.30,1482.35 L 2969.65,1500.00 L 2898.83,1515.88 L 2985.99,1494.71 L 3043.19,1478.82 L 3097.67,1464.71 L 2917.90,1480.59 M 2917.90,1318.24 L 2953.31,1365.88 M 3029.57,1284.71 L 3064.98,1247.65 L 3018.68,1291.76 L 2991.44,1341.18 L 3010.51,1272.35 L 2920.62,1265.29 L 2983.27,1279.41 L 2996.89,1334.12 L 2956.03,1376.47 L 2928.79,1420.59 L 2901.56,1475.29 L 2874.32,1526.47 M 2819.84,1261.76 L 2754.47,1244.12 L 2697.28,1254.71 L 2710.89,1305.88 M 2844.36,1261.76 L 2808.95,1311.18 L 2833.46,1267.06 L 2778.99,1238.82 L 2719.07,1230.00 L 2678.21,1265.29 L 2710.89,1321.76 L 2765.37,1281.18 L 2817.12,1267.06 L 2757.20,1219.41 L 2694.55,1226.47 L 2629.18,1242.35 L 2563.81,1252.94 L 2514.79,1274.12 L 2468.48,1297.06 L 2389.49,1252.94 L 2345.91,1298.82 L 2375.88,1357.06 L 2422.18,1402.94 L 2449.42,1454.12 L 2479.38,1498.24 L 2542.02,1524.71 L 2591.05,1540.59 L 2637.35,1568.82 L 2702.72,1556.47 M 2838.91,1233.53 L 2890.66,1192.94 L 2939.69,1226.47 L 2890.66,1192.94 L 2939.69,1215.88 L 2874.32,1194.71 L 2814.40,1214.12 L 2749.03,1196.47 L 2678.21,1201.76 L 2623.74,1184.12 L 2566.54,1224.71 L 2612.84,1191.18 L 2661.87,1221.18 L 2735.41,1215.88 L 2795.33,1228.24 L 2849.81,1258.24 L 2915.18,1268.82 M 2808.95,1230.00 L 2751.75,1215.88 L 2814.40,1219.41 L 2849.81,1260.00 L 2857.98,1311.18 M 2749.03,1171.76 L 2814.40,1150.59 L 2814.40,1201.76 L 2825.29,1150.59 L 2754.47,1154.12 L 2697.28,1170.00 L 2648.25,1212.35 L 2697.28,1175.29 L 2751.75,1147.06 M 2781.71,998.82 M 2664.59,965.29 L 2724.51,988.24 L 2784.44,997.06 L 2849.81,991.76 L 2901.56,993.53 L 2950.58,1025.29 L 2999.61,1048.24 L 2953.31,1021.76 L 3007.78,1034.12 L 3024.12,1087.06 L 3081.32,1072.94 L 3062.26,1120.59 L 3094.94,1161.18 L 3059.53,1118.82 L 3089.49,1072.94 L 3059.53,1127.65 L 3100.39,1170.00 L 3043.19,1207.06 M 3078.60,1083.53 L 3013.23,1081.76 M 2901.56,988.24 M 2634.63,991.76 L 2566.54,998.82 M 2397.67,1028.82 L 2345.91,1062.35 L 2291.44,1092.35 L 2258.75,1150.59 L 2228.79,1192.94 M 2223.35,848.82 L 2177.04,825.88 L 2179.77,772.94 L 2228.79,746.47 L 2329.57,688.24 L 2375.88,660.00 L 2422.18,631.76 L 2378.60,660.00 L 2310.51,700.59 L 2266.93,728.82 L 2201.56,765.88 L 2157.98,790.59 L 2092.61,785.29 L 2029.96,757.06 L 1983.66,735.88 L 1918.29,705.88 L 1812.06,652.94 L 1863.81,682.94 L 1929.18,709.41 L 1989.11,735.88 L 1923.74,718.24 L 1871.98,693.53 L 1760.31,647.65 L 1714.01,626.47 L 1763.04,642.35 L 1828.40,670.59 L 1888.33,702.35 L 1953.70,730.59 L 2010.89,760.59 L 2100.78,790.59 L 2155.25,820.59 L 2256.03,862.94 M 1959.14,728.82 L 1899.22,698.82 L 1833.85,668.82 L 1784.82,651.18 L 1722.18,624.71 L 1659.53,603.53 M 1133.85,864.71 M 793.39,944.12 L 706.23,1000.59 L 662.65,1041.18 L 700.78,1002.35 L 747.08,967.06 L 790.66,942.35 L 708.95,928.24 L 657.20,958.24 L 708.95,970.59 L 657.20,997.06 L 613.62,1021.76 L 665.37,982.94 M 2416.73,921.18 L 2321.40,878.82 L 2261.48,848.82 L 2196.11,820.59 L 2147.08,792.35 L 2217.90,751.76 L 2261.48,723.53 L 2305.06,693.53 L 2351.36,668.82 L 2422.18,622.94 M 2836.19,764.12 M 3135.80,631.76 L 3086.77,649.41 L 3021.40,677.65 L 2956.03,711.18 L 3018.68,682.94 L 3084.05,654.71 L 3141.25,626.47 L 3193.00,600.00 M 3391.83,1307.65 L 3331.91,1320.00 L 3277.43,1334.12 L 3285.60,1392.35 L 3301.95,1448.82 L 3318.29,1530.00 L 3340.08,1586.47 L 3353.70,1642.94 L 3367.32,1701.18 L 3389.11,1757.65" fill="none" stroke="black" stroke-width="2" stroke-linecap="round" stroke-linejoin="round"/>
    </svg>