<svg width="4000" height="3000" xmlns="http://www.w3.org/2000/svg" viewBox="0 0 4000 3000">
      <path d="M 709.62,1070.00 M 814.94,1041.52 L 816.17,1041.17 L 815.10,1041.47 M 2262.70,820.36 L 2254.48,811.78 L 2245.53,803.39 L 2235.87,795.19 L 2225.49,787.19 L 2214.42,779.37 L 2202.65,771.75 L 2190.20,764.32 L 2177.06,757.07 L 2163.26,750.01 L 2139.64,738.53 L 2114.16,727.29 L 2086.13,715.96 L 2055.69,704.62 L 2023.00,693.37 L 1988.20,682.29 L 1951.46,671.47 L 1912.93,661.01 L 1872.76,650.98 L 1831.01,641.51 L 1787.99,632.73 L 1743.89,624.75 L 1698.87,617.68 L 1653.11,611.63 L 1606.80,606.72 L 1560.11,603.07 L 1513.20,600.79 L 1466.27,600.00 L 1462.68,600.00 L 1455.42,600.04 L 1451.77,600.08 L 1449.95,600.11 L 1448.14,600.08 L 1446.33,600.07 L 1442.71,600.03 L 1439.09,600.01 L 1437.28,600.01 L 1435.46,600.00 L 1433.65,600.00 L 1386.72,600.79 L 1339.82,603.07 L 1293.12,606.72 L 1246.81,611.63 L 1201.07,617.68 L 1156.05,624.75 L 1111.95,632.73 L 1068.94,641.51 L 1027.19,650.98 L 987.02,661.00 L 948.50,671.46 L 911.77,682.28 L 876.98,693.35 L 844.30,704.61 L 813.87,715.94 L 785.85,727.28 L 760.38,738.52 L 737.62,749.59 L 722.97,757.07 L 709.82,764.32 L 697.36,771.75 L 685.58,779.38 L 674.50,787.19 L 664.13,795.20 L 654.47,803.39 L 645.52,811.78 L 637.30,820.36 L 629.77,829.18 L 623.02,838.21 L 617.08,847.44 L 611.98,856.85 L 607.74,866.41 L 604.39,876.10 L 601.96,885.90 L 600.49,895.79 L 600.00,905.74 L 600.60,916.83 L 602.47,927.79 L 605.55,938.58 L 609.81,949.17 L 615.20,959.52 L 621.69,969.60 L 629.21,979.36 L 637.75,988.78 L 647.23,997.81 L 709.53,1069.90 L 717.48,1078.16 L 726.13,1085.30 L 735.60,1091.53 L 745.77,1096.84 L 756.54,1101.20 L 767.77,1104.62 L 779.37,1107.08 L 791.22,1108.56 L 803.20,1109.06 L 807.54,1108.99 L 811.88,1108.79 L 816.23,1108.46 L 820.57,1107.99 L 824.90,1107.40 L 829.22,1106.67 L 833.52,1105.82 L 837.79,1104.83 L 842.03,1103.72 L 842.10,1104.78 L 842.18,1105.80 L 842.13,1104.78 L 842.09,1103.76 L 846.45,1102.53 L 849.99,1101.56 L 853.54,1100.62 L 871.31,1096.02 L 874.85,1095.07 L 874.21,1096.57 L 873.78,1097.57 L 873.35,1098.58 L 872.92,1099.58 L 780.70,1256.67 L 769.79,1276.52 L 760.12,1296.72 L 751.71,1317.24 L 744.56,1338.05 L 738.69,1359.11 L 734.11,1380.37 L 730.82,1401.81 L 728.84,1423.37 L 728.17,1445.04 L 728.17,1486.32 L 728.65,1497.53 L 730.05,1508.54 L 732.35,1519.31 L 735.50,1529.84 L 739.50,1540.09 L 744.29,1550.04 L 749.86,1559.66 L 756.17,1568.94 L 763.19,1577.84 L 770.89,1586.34 L 779.24,1594.42 L 788.21,1602.06 L 797.77,1609.22 L 807.89,1615.89 L 818.54,1622.04 L 829.69,1627.65 L 841.30,1632.69 L 853.35,1637.13 L 865.81,1640.96 L 878.64,1644.15 L 891.82,1646.67 L 905.31,1648.50 L 919.09,1649.62 L 933.12,1650.00 L 1966.88,1650.00 L 1980.92,1649.62 L 1994.70,1648.50 L 2008.20,1646.67 L 2021.38,1644.15 L 2034.22,1640.96 L 2046.67,1637.13 L 2058.73,1632.68 L 2070.34,1627.64 L 2081.49,1622.04 L 2092.13,1615.89 L 2102.25,1609.22 L 2111.81,1602.05 L 2120.78,1594.42 L 2129.13,1586.33 L 2136.83,1577.83 L 2143.85,1568.93 L 2150.15,1559.65 L 2155.72,1550.03 L 2160.51,1540.08 L 2164.50,1529.83 L 2167.66,1519.31 L 2169.95,1508.53 L 2171.35,1497.53 L 2171.83,1486.32 L 2171.83,1445.04 L 2171.17,1423.37 L 2169.19,1401.81 L 2165.90,1380.37 L 2161.31,1359.11 L 2155.44,1338.05 L 2148.29,1317.24 L 2139.88,1296.72 L 2130.22,1276.52 L 2119.30,1256.67 L 2027.09,1099.58 L 2026.66,1098.57 L 2026.23,1097.57 L 2025.80,1096.56 L 2025.37,1095.56 L 2032.24,1096.94 L 2046.43,1100.60 L 2049.97,1101.54 L 2053.51,1102.50 L 2057.03,1103.50 L 2061.39,1104.67 L 2065.77,1105.71 L 2070.17,1106.60 L 2074.59,1107.35 L 2079.03,1107.96 L 2083.47,1108.43 L 2087.91,1108.77 L 2092.35,1108.97 L 2096.77,1109.04 L 2108.78,1108.55 L 2120.64,1107.07 L 2132.24,1104.61 L 2143.47,1101.18 L 2154.23,1096.81 L 2164.39,1091.50 L 2173.85,1085.28 L 2182.50,1078.15 L 2190.23,1070.13 L 2252.87,997.75 L 2262.35,988.72 L 2270.86,979.30 L 2278.38,969.53 L 2284.85,959.46 L 2290.23,949.11 L 2294.48,938.53 L 2297.55,927.74 L 2299.41,916.80 L 2300.00,905.72 L 2299.52,895.77 L 2298.05,885.88 L 2295.63,876.08 L 2292.28,866.39 L 2288.03,856.83 L 2282.92,847.43 L 2276.98,838.20 L 2270.23,829.17 L 2262.70,820.36 M 2096.77,1043.15 L 2095.47,1043.13 L 2094.17,1043.07 L 2092.86,1042.97 L 2091.55,1042.83 L 2090.24,1042.66 L 2088.93,1042.44 L 2087.62,1042.17 L 2086.31,1041.87 L 2085.01,1041.52 L 2063.71,1035.49 L 2042.34,1029.66 L 2020.90,1024.04 L 1999.39,1018.63 L 1977.82,1013.43 L 1956.19,1008.43 L 1934.51,1003.63 L 1912.76,999.04 L 1890.97,994.66 L 1888.57,994.11 L 1886.27,993.44 L 1884.06,992.65 L 1881.97,991.75 L 1879.98,990.74 L 1878.11,989.63 L 1876.37,988.43 L 1874.75,987.14 L 1873.27,985.78 L 1871.93,984.35 L 1870.74,982.87 L 1869.70,981.36 L 1868.82,979.80 L 1868.10,978.21 L 1867.53,976.58 L 1867.12,974.91 L 1866.88,973.22 L 1866.79,971.50 L 1867.04,925.08 L 1867.03,923.27 L 1867.03,919.66 L 1867.02,917.85 L 1867.02,916.04 L 1867.01,914.23 L 1866.66,907.63 L 1865.64,901.05 L 1863.98,894.62 L 1861.70,888.35 L 1858.84,882.29 L 1855.43,876.44 L 1851.49,870.84 L 1847.06,865.50 L 1842.17,860.45 L 1837.35,856.12 L 1832.18,852.05 L 1826.66,848.25 L 1820.83,844.73 L 1814.70,841.49 L 1808.29,838.54 L 1801.61,835.89 L 1794.70,833.54 L 1787.55,831.52 L 1786.57,831.16 L 1785.56,830.83 L 1784.42,830.48 L 1783.42,830.18 L 1781.04,829.53 L 1779.64,829.20 L 1778.13,828.84 L 1775.10,828.15 L 1771.59,827.37 L 1767.58,826.51 L 1763.10,825.58 L 1746.83,822.36 L 1733.71,819.90 L 1710.99,815.88 L 1685.16,811.61 L 1656.75,807.27 L 1626.29,803.07 L 1594.29,799.19 L 1561.29,795.83 L 1527.82,793.18 L 1494.40,791.43 L 1461.55,790.77 L 1460.26,790.77 L 1458.97,790.78 L 1457.69,790.78 L 1456.41,790.79 L 1455.12,790.81 L 1453.84,790.82 L 1450.00,790.88 L 1446.16,790.82 L 1444.88,790.81 L 1443.60,790.79 L 1442.32,790.78 L 1441.04,790.78 L 1439.76,790.77 L 1438.48,790.77 L 1414.48,791.12 L 1390.11,792.10 L 1365.58,793.62 L 1341.07,795.60 L 1316.81,797.98 L 1292.98,800.67 L 1269.80,803.60 L 1247.45,806.68 L 1226.15,809.84 L 1215.96,811.42 L 1170.77,819.08 L 1146.05,823.74 L 1134.95,825.98 L 1126.19,827.85 L 1124.36,828.26 L 1122.67,828.65 L 1121.08,829.02 L 1119.57,829.40 L 1118.38,829.71 L 1117.02,830.09 L 1115.66,830.47 L 1114.56,830.79 L 1113.43,831.16 L 1105.44,833.48 L 1098.49,835.83 L 1091.79,838.48 L 1085.36,841.44 L 1079.20,844.69 L 1073.35,848.22 L 1067.82,852.04 L 1062.63,856.12 L 1057.80,860.47 L 1052.92,865.52 L 1048.50,870.85 L 1044.57,876.46 L 1041.16,882.30 L 1038.31,888.36 L 1036.03,894.62 L 1034.36,901.05 L 1033.34,907.62 L 1032.99,914.32 L 1032.97,917.43 L 1032.97,919.02 L 1032.96,920.61 L 1033.23,971.46 L 1033.14,973.18 L 1032.89,974.88 L 1032.47,976.55 L 1031.90,978.19 L 1031.18,979.79 L 1030.29,981.36 L 1029.26,982.88 L 1028.07,984.37 L 1026.73,985.81 L 1025.24,987.17 L 1023.61,988.46 L 1021.86,989.66 L 1020.00,990.77 L 1018.01,991.78 L 1015.92,992.69 L 1013.72,993.48 L 1011.42,994.14 L 1009.03,994.68 L 987.25,999.06 L 965.53,1003.63 L 943.86,1008.42 L 922.26,1013.41 L 900.72,1018.61 L 879.24,1024.02 L 857.82,1029.63 L 836.47,1035.44 L 815.20,1041.46 L 813.62,1041.87 L 812.31,1042.18 L 811.01,1042.44 L 809.70,1042.67 L 808.39,1042.85 L 807.09,1042.99 L 805.79,1043.09 L 804.49,1043.15 L 803.20,1043.17 L 799.68,1043.02 L 796.30,1042.59 L 793.07,1041.91 L 790.01,1040.99 L 787.15,1039.83 L 784.50,1038.46 L 782.09,1036.89 L 779.94,1035.13 L 778.06,1033.20 L 713.72,958.80 L 713.03,958.01 L 712.34,957.22 L 711.55,956.51 L 710.74,955.82 L 704.05,949.63 L 698.67,943.89 L 694.15,938.25 L 690.44,932.69 L 687.49,927.21 L 685.27,921.78 L 683.73,916.41 L 682.81,911.06 L 682.49,905.74 L 682.73,901.02 L 683.45,896.19 L 684.67,891.24 L 686.41,886.18 L 688.72,880.99 L 691.62,875.68 L 695.14,870.24 L 699.31,864.66 L 704.16,858.95 L 709.70,853.15 L 715.96,847.29 L 722.96,841.37 L 730.70,835.42 L 739.18,829.44 L 748.42,823.47 L 758.41,817.52 L 769.17,811.61 L 780.70,805.76 L 801.03,795.81 L 823.63,785.82 L 849.15,775.51 L 877.35,765.00 L 908.01,754.43 L 940.90,743.92 L 975.81,733.61 L 1012.51,723.64 L 1050.77,714.12 L 1090.44,705.11 L 1131.31,696.77 L 1173.16,689.20 L 1215.80,682.51 L 1259.02,676.79 L 1302.62,672.17 L 1346.39,668.74 L 1390.14,666.61 L 1433.65,665.88 L 1435.38,665.88 L 1444.08,665.93 L 1449.30,665.99 L 1450.70,665.99 L 1452.41,665.97 L 1454.13,665.94 L 1455.85,665.93 L 1457.58,665.91 L 1461.05,665.89 L 1462.79,665.89 L 1464.53,665.88 L 1466.27,665.88 L 1509.78,666.61 L 1553.53,668.74 L 1597.31,672.17 L 1640.91,676.80 L 1684.14,682.51 L 1726.79,689.21 L 1768.65,696.78 L 1809.53,705.12 L 1849.21,714.12 L 1887.48,723.64 L 1924.18,733.63 L 1959.10,743.94 L 1992.00,754.44 L 2022.67,765.02 L 2050.87,775.52 L 2076.39,785.83 L 2099.00,795.81 L 2118.47,805.33 L 2130.83,811.60 L 2141.59,817.51 L 2151.58,823.47 L 2160.82,829.44 L 2169.31,835.41 L 2177.05,841.37 L 2184.05,847.29 L 2190.32,853.15 L 2195.86,858.95 L 2200.71,864.66 L 2204.88,870.23 L 2208.40,875.68 L 2211.30,880.99 L 2213.61,886.17 L 2215.35,891.23 L 2216.56,896.18 L 2217.27,901.00 L 2217.51,905.72 L 2217.18,911.05 L 2216.28,916.40 L 2214.73,921.78 L 2212.52,927.21 L 2209.58,932.70 L 2205.87,938.25 L 2201.35,943.89 L 2195.97,949.63 L 2189.69,955.47 L 2188.87,956.17 L 2187.86,957.04 L 2187.17,957.81 L 2186.48,958.59 L 2121.91,1033.20 L 2120.14,1035.04 L 2117.98,1036.82 L 2115.56,1038.41 L 2112.89,1039.80 L 2110.01,1040.96 L 2106.94,1041.89 L 2103.69,1042.58 L 2100.30,1043.00 L 2096.77,1043.15 M 810.67,1445.03 L 811.23,1426.58 L 812.92,1408.22 L 815.71,1389.97 L 819.62,1371.86 L 824.62,1353.93 L 830.70,1336.21 L 837.87,1318.74 L 846.11,1301.53 L 855.41,1284.63 L 949.50,1124.32 L 972.46,1070.94 L 1003.63,1063.93 L 1016.13,1061.23 L 1022.39,1059.93 L 1028.66,1058.67 L 1036.89,1056.80 L 1044.85,1054.48 L 1052.51,1051.72 L 1059.84,1048.55 L 1066.83,1044.99 L 1073.45,1041.05 L 1079.69,1036.76 L 1085.50,1032.13 L 1090.89,1027.19 L 1095.72,1022.05 L 1100.08,1016.62 L 1103.96,1010.93 L 1107.32,1005.01 L 1110.14,998.87 L 1112.40,992.53 L 1114.08,986.03 L 1115.15,979.38 L 1115.59,972.61 L 1115.73,970.89 L 1115.46,919.15 L 1115.47,917.58 L 1115.47,916.01 L 1115.48,914.44 L 1115.55,913.09 L 1115.74,911.80 L 1116.08,910.50 L 1116.56,909.18 L 1117.19,907.85 L 1117.97,906.52 L 1118.92,905.18 L 1120.03,903.85 L 1121.31,902.52 L 1122.74,901.23 L 1124.34,899.99 L 1126.09,898.80 L 1128.00,897.68 L 1130.07,896.64 L 1132.28,895.68 L 1134.64,894.83 L 1137.14,894.08 L 1139.78,893.45 L 1170.64,887.06 L 1198.88,881.58 L 1221.62,877.72 L 1233.98,875.73 L 1246.89,873.74 L 1260.31,871.76 L 1274.16,869.82 L 1291.98,867.45 L 1310.25,865.23 L 1328.81,863.17 L 1347.52,861.33 L 1366.25,859.74 L 1384.85,858.44 L 1403.18,857.46 L 1421.10,856.85 L 1438.48,856.65 L 1440.85,856.65 L 1446.71,856.70 L 1447.87,856.72 L 1449.03,856.73 L 1450.88,856.75 L 1453.22,856.71 L 1454.40,856.70 L 1455.58,856.68 L 1459.15,856.65 L 1461.54,856.65 L 1482.69,856.95 L 1504.60,857.84 L 1527.01,859.24 L 1549.68,861.09 L 1572.37,863.31 L 1594.81,865.83 L 1616.77,868.59 L 1638.00,871.50 L 1658.25,874.51 L 1676.69,877.43 L 1729.30,886.76 L 1760.16,893.43 L 1762.80,894.06 L 1765.31,894.81 L 1767.68,895.67 L 1769.90,896.63 L 1771.97,897.68 L 1773.90,898.80 L 1775.66,900.00 L 1777.27,901.25 L 1778.71,902.54 L 1779.99,903.87 L 1781.09,905.20 L 1782.03,906.53 L 1782.81,907.86 L 1783.44,909.18 L 1783.91,910.49 L 1784.25,911.79 L 1784.45,913.08 L 1784.51,914.34 L 1784.52,916.23 L 1784.52,918.01 L 1784.53,919.79 L 1784.53,923.36 L 1784.54,925.14 L 1784.29,970.91 L 1784.63,978.41 L 1785.63,985.20 L 1787.28,991.84 L 1789.54,998.31 L 1792.39,1004.58 L 1795.80,1010.63 L 1799.74,1016.43 L 1804.18,1021.96 L 1809.11,1027.19 L 1814.49,1032.13 L 1820.31,1036.76 L 1826.54,1041.05 L 1833.16,1044.98 L 1840.15,1048.54 L 1847.49,1051.71 L 1855.14,1054.46 L 1863.10,1056.78 L 1871.33,1058.65 L 1877.60,1059.91 L 1883.86,1061.21 L 1927.51,1070.94 L 1950.50,1124.30 L 2044.59,1284.63 L 2053.89,1301.53 L 2062.13,1318.73 L 2069.30,1336.21 L 2075.38,1353.93 L 2080.38,1371.86 L 2084.29,1389.96 L 2087.08,1408.21 L 2088.77,1426.58 L 2089.33,1445.03 L 2089.33,1486.32 L 2088.83,1495.24 L 2087.36,1503.93 L 2084.96,1512.34 L 2081.68,1520.45 L 2077.56,1528.23 L 2072.64,1535.65 L 2066.96,1542.68 L 2060.56,1549.30 L 2053.48,1555.46 L 2045.76,1561.12 L 2037.48,1566.23 L 2028.67,1570.77 L 2019.38,1574.71 L 2009.64,1578.00 L 1999.48,1580.62 L 1988.94,1582.53 L 1978.06,1583.71 L 1966.88,1584.11 L 933.12,1584.11 L 921.95,1583.71 L 911.08,1582.53 L 900.54,1580.62 L 890.39,1578.00 L 880.65,1574.71 L 871.35,1570.77 L 862.55,1566.23 L 854.27,1561.12 L 846.55,1555.46 L 839.46,1549.29 L 833.06,1542.68 L 827.37,1535.64 L 822.45,1528.22 L 818.32,1520.44 L 815.04,1512.33 L 812.65,1503.92 L 811.18,1495.24 L 810.67,1486.32 L 810.67,1445.03 M 842.09,1103.76 M 1191.86,1360.26 L 1320.94,1360.26 L 1320.94,1463.35 L 1191.86,1463.35 L 1191.86,1360.26 M 1191.86,1219.18 L 1320.94,1219.18 L 1320.94,1322.27 L 1191.86,1322.27 L 1191.86,1219.18 M 1191.86,1078.11 L 1320.94,1078.11 L 1320.94,1181.18 L 1191.86,1181.18 L 1191.86,1078.11 M 1385.47,1360.26 L 1514.56,1360.26 L 1514.56,1463.35 L 1385.47,1463.35 L 1385.47,1360.26 M 1385.47,1219.18 L 1514.56,1219.18 L 1514.56,1322.27 L 1385.47,1322.27 L 1385.47,1219.18 M 1385.47,1078.11 L 1514.56,1078.11 L 1514.56,1181.18 L 1385.47,1181.18 L 1385.47,1078.11 M 1579.12,1360.26 L 1708.18,1360.26 L 1708.18,1463.35 L 1579.12,1463.35 L 1579.12,1360.26 M 1579.12,1219.18 L 1708.18,1219.18 L 1708.18,1322.27 L 1579.12,1322.27 L 1579.12,1219.18 M 1579.12,1078.11 L 1708.18,1078.11 L 1708.18,1181.18 L 1579.12,1181.18 L 1579.12,1078.11" fill="none" stroke="black" stroke-width="2" stroke-linecap="round" stroke-linejoin="round"/>
    </svg>