<svg width="4000" height="3000" xmlns="http://www.w3.org/2000/svg" viewBox="0 0 4000 3000">
      <path d="M 1557.14,757.14 L 1554.76,755.56 L 1553.57,754.76 L 1552.38,753.97 L 1551.19,753.17 L 1548.81,751.59 L 1547.62,750.79 L 1546.43,750.00 L 1439.29,750.00 L 1375.00,742.86 L 1321.43,742.86 L 1246.43,735.71 L 1182.14,728.57 L 1032.14,714.29 L 978.57,707.14 L 732.14,707.14 L 729.76,705.56 L 728.57,704.76 L 727.38,703.97 L 726.19,703.17 L 723.81,701.59 L 722.62,700.79 L 721.43,700.00 L 700.00,700.00 L 700.00,714.29 L 710.71,714.29 L 710.71,728.57 L 721.43,728.57 L 721.43,1392.86 L 732.14,1414.29 L 732.14,1471.43 L 736.90,1480.95 L 738.10,1483.33 L 742.86,1492.86 L 742.86,1514.29 L 764.29,1514.29 L 765.48,1513.49 L 766.67,1512.70 L 767.86,1511.90 L 770.24,1510.32 L 771.43,1509.52 L 773.81,1507.94 L 775.00,1507.14 L 785.71,1507.14 L 786.90,1506.35 L 788.10,1505.56 L 789.29,1504.76 L 790.48,1503.97 L 791.67,1503.17 L 794.05,1501.59 L 795.24,1500.79 L 796.43,1500.00 L 807.14,1500.00 L 809.52,1499.21 L 811.90,1498.41 L 816.67,1496.83 L 819.05,1496.03 L 821.43,1495.24 L 823.81,1494.44 L 828.57,1492.86 L 1139.29,1492.86 L 1192.86,1500.00 L 1257.14,1500.00 L 1364.29,1514.29 L 1428.57,1514.29 L 1492.86,1521.43 L 1567.86,1528.57 L 1653.57,1528.57 L 1728.57,1535.71 L 1782.14,1535.71 L 1825.00,1542.86 L 2125.00,1542.86 L 2125.00,1550.00 L 2157.14,1550.00 L 2157.14,1385.71 L 2167.86,1335.71 L 2189.29,1285.71 L 2200.00,1242.86 L 2200.00,700.00 L 2200.00,707.14 L 2198.81,707.94 L 2196.43,709.52 L 2195.24,710.32 L 2192.86,711.90 L 2191.67,712.70 L 2190.48,713.49 L 2189.29,714.29 L 2146.43,714.29 L 2141.67,715.87 L 2139.29,716.67 L 2134.52,718.25 L 2132.14,719.05 L 2127.38,720.63 L 2125.00,721.43 L 1353.57,721.43 L 1351.19,720.63 L 1346.43,719.05 L 1344.05,718.25 L 1332.14,714.29 L 1329.76,713.49 L 1327.38,712.70 L 1325.00,711.90 L 1320.24,710.32 L 1317.86,709.52 L 1310.71,707.14" fill="none" stroke="black" stroke-width="2" stroke-linecap="round" stroke-linejoin="round"/>
    </svg>