<svg width="4000" height="3000" xmlns="http://www.w3.org/2000/svg" viewBox="0 0 4000 3000">
      <path d="M 1950.49,602.34 L 1911.98,660.78 L 1876.23,716.88 L 1834.97,775.32 L 1799.21,831.43 L 1771.71,885.19 L 1749.71,936.62 L 1738.70,992.73 L 1719.45,1067.53 L 1711.20,1128.31 L 1705.70,1186.75 L 1702.95,1350.39 L 1705.70,1406.49 L 1713.95,1462.60 L 1716.70,1521.04 L 1730.45,1577.14 L 1694.70,1539.74 M 1818.47,1483.64 M 1911.98,1404.16 L 1980.75,1415.84 L 2049.51,1413.51 L 2099.02,1427.53 L 2167.78,1439.22 L 2209.04,1469.61 L 2253.05,1502.34 L 2195.28,1502.34 L 2126.52,1476.62 L 2038.51,1453.25 L 2101.77,1439.22 L 2156.78,1439.22 L 2211.79,1476.62 L 2148.53,1485.97 L 2118.27,1577.14 L 2049.51,1549.09 M 1955.99,1436.88 L 2027.50,1462.60 L 2082.51,1467.27 L 2033.01,1448.57 L 1964.24,1418.18 M 2176.03,1357.40 L 2242.04,1369.09 L 2184.28,1366.75 M 2288.80,1294.29 L 2343.81,1327.01 L 2297.05,1266.23 L 2338.31,1310.65 L 2404.32,1336.36 L 2473.08,1343.38 L 2536.35,1350.39 L 2602.36,1322.34 L 2566.60,1362.08 L 2503.34,1371.43 L 2431.83,1359.74 L 2365.82,1338.70 L 2305.30,1296.62 M 2286.05,1142.34 L 2332.81,1111.95 L 2401.57,1109.61 L 2415.32,1161.04 L 2473.08,1193.77 L 2437.33,1130.65 L 2462.08,1065.19 L 2525.34,1069.87 M 2638.11,1060.52 M 2706.88,1132.99 L 2690.37,1072.21 M 2693.12,1076.88 L 2737.13,1175.06 M 2651.87,1109.61 L 2627.11,1025.45 L 2654.62,1081.56 L 2671.12,1140.00 L 2643.61,1083.90 L 2621.61,1032.47 L 2643.61,1097.92 L 2693.12,1179.74 M 2627.11,1301.30 L 2585.85,1338.70 M 2519.84,1502.34 L 2470.33,1558.44 L 2412.57,1595.84 L 2338.31,1630.91 L 2418.07,1598.18 L 2473.08,1560.78 L 2522.59,1507.01 L 2478.59,1551.43 L 2412.57,1598.18 L 2349.31,1635.58 L 2280.55,1649.61 M 2258.55,1993.25 L 2236.54,2051.69 L 2217.29,2110.13 L 2244.79,2025.97 L 2244.79,2091.43 M 2176.03,2198.96 L 2132.02,2236.36 L 2178.78,2191.95 M 2055.01,2257.40 L 1991.75,2276.10 L 1906.48,2283.12 L 1845.97,2276.10 L 1796.46,2266.75 L 1733.20,2243.38 L 1686.44,2217.66 L 1617.68,2175.58 L 1576.42,2138.18 L 1535.17,2100.78 L 1466.40,2025.97 L 1416.90,1967.53 L 1372.89,1909.09 L 1328.88,1838.96 L 1282.12,1750.13 M 1042.83,1787.53 L 1042.83,1843.64 L 1040.08,1913.77 L 1037.33,1969.87 L 1037.33,2047.01 L 1034.58,2103.12 L 1037.33,2161.56 L 1042.83,2217.66 L 1042.83,2273.77 L 1037.33,2329.87 L 1040.08,2390.65 L 1078.59,2322.86 L 1144.60,2322.86 L 1172.10,2364.94 L 1235.36,2362.60 M 1125.34,2353.25 L 1073.08,2350.91 L 1004.32,2367.27 L 1001.57,2308.83 L 996.07,2234.03 L 996.07,2287.79 L 998.82,2343.90 L 998.82,2280.78 M 1100.59,2315.84 L 1064.83,2353.25 L 1117.09,2327.53 L 1152.85,2364.94 L 1128.09,2318.18 L 1169.35,2353.25 L 1238.11,2383.64 L 1287.62,2395.32 M 1510.41,2397.66 L 1510.41,2341.56 L 1532.42,2388.31 M 1675.44,2397.66 M 1881.73,2002.60 M 2225.54,2119.48 L 2258.55,2061.04 M 2679.37,2018.96 M 2800.39,2011.95 L 2797.64,2068.05 L 2800.39,2124.16 L 2816.90,2182.60 L 2827.90,2238.70 L 2838.90,2292.47 L 2855.40,2346.23 M 2995.68,2329.87 L 3014.93,2383.64 L 3089.19,2392.99 L 3108.45,2346.23 L 3067.19,2304.16 L 3028.68,2234.03 L 2981.93,2205.97 L 3042.44,2175.58 L 3127.70,2259.74 L 3163.46,2311.17 L 3188.21,2357.92 L 3138.70,2297.14 M 3234.97,2392.99 L 3174.46,2346.23 L 3146.95,2290.13 L 3113.95,2248.05 L 3067.19,2194.29 L 3025.93,2152.21 L 3014.93,2205.97 L 3047.94,2264.42 L 3069.94,2320.52 L 3113.95,2367.27 M 3369.74,2369.61 M 2902.16,2220.00 L 2849.90,2187.27 L 2863.65,2243.38 L 2880.16,2294.81 L 2891.16,2348.57 M 2797.64,2229.35 L 2770.14,2187.27 M 2858.15,2241.04 L 2874.66,2301.82 M 2701.38,2271.43 L 2698.62,2203.64 M 2805.89,1974.55 L 2814.15,2032.99 L 2816.90,2091.43 L 2822.40,2147.53 L 2830.65,2201.30 L 2849.90,2271.43 L 2871.91,2348.57 M 2896.66,2025.97 L 2926.92,2091.43 L 2929.67,2145.19 L 2937.92,2201.30 L 2935.17,2264.42 M 3102.95,2210.65 L 3061.69,2173.25 L 3020.43,2135.84 L 3001.18,2079.74 L 2998.43,2018.96 L 2992.93,1960.52 L 2957.17,1918.44 L 2937.92,2002.60 L 2946.17,2054.03 L 2948.92,2112.47 L 2957.17,2168.57 L 2965.42,2220.00 L 2899.41,2222.34 L 2891.16,2168.57 L 2871.91,2037.66 L 2871.91,1979.22 L 2874.66,1920.78 M 2987.43,1845.97 M 2948.92,1883.38 L 2951.67,1937.14 L 2948.92,1993.25 L 2959.92,2047.01 L 2965.42,2105.45 L 2973.67,2161.56 L 2984.68,2217.66 M 2814.15,1691.69 L 2825.15,1621.56 L 2822.40,1677.66 L 2811.39,1733.77 L 2811.39,1792.21 L 2808.64,1850.65 L 2800.39,1906.75 M 2896.66,1656.62 L 2891.16,1712.73 L 2893.91,1768.83 L 2893.91,1831.95 L 2888.41,1888.05 L 2891.16,1941.82 L 2896.66,2011.95 L 2896.66,2070.39 L 2893.91,2128.83 L 2902.16,2184.94 L 2915.91,2238.70 L 2921.41,2294.81 M 3174.46,1460.26 L 3243.22,1460.26 L 3289.98,1488.31 L 3240.47,1453.25 L 3185.46,1439.22 L 3240.47,1422.86 L 3292.73,1427.53 L 3331.24,1478.96 M 3254.22,1404.16 L 3333.99,1392.47 L 3314.73,1450.91 L 3344.99,1495.32 L 3361.49,1434.55 M 3322.99,1301.30 L 3270.73,1273.25 L 3289.98,1322.34 L 3267.98,1270.91 M 2926.92,798.70 L 2863.65,754.29 L 2874.66,810.39 L 2891.16,866.49 M 2778.39,936.62 L 2783.89,1020.78 L 2792.14,1074.55 L 2805.89,1130.65 L 2819.65,1186.75 L 2833.40,1242.86 L 2844.40,1296.62 L 2849.90,1355.06 M 2717.88,1196.10 L 2690.37,1137.66 L 2668.37,1090.91 L 2654.62,1037.14 M 2731.63,1011.43 M 2481.34,938.96 L 2442.83,999.74 L 2376.82,1009.09 L 2398.82,1097.92 L 2310.81,1104.94 L 2291.55,1161.04 L 2283.30,1214.81 L 2291.55,1273.25 L 2330.06,1312.99 L 2275.05,1350.39 L 2272.30,1294.29 L 2261.30,1238.18 L 2253.05,1182.08 M 2143.03,1182.08 L 2104.52,1219.48 L 2057.76,1254.55 L 2115.52,1205.45 L 2162.28,1168.05 L 2228.29,1151.69 L 2170.53,1079.22 L 2132.02,1034.81 L 2170.53,1090.91 L 2148.53,1149.35 L 2112.77,1189.09 M 2035.76,1058.18 M 2046.76,1060.52 L 2096.27,1032.47 L 2038.51,1009.09 M 1939.49,1009.09 M 1994.50,967.01 L 1917.49,957.66 L 1845.97,950.65 L 1909.23,948.31 L 1972.50,945.97 L 2027.50,962.34 L 1961.49,948.31 L 1906.48,962.34 L 1840.47,997.40 L 1804.72,922.60 L 1876.23,927.27 L 1944.99,945.97 L 2011.00,964.68 L 1950.49,936.62 L 1884.48,915.58 L 1931.24,894.55 L 1997.25,866.49 L 2066.01,899.22 L 2156.78,969.35 L 2088.02,927.27 L 2041.26,892.21 L 1944.99,887.53 L 1878.98,889.87 L 1955.99,819.74 L 1911.98,852.47 L 1964.24,857.14 L 1911.98,892.21 L 1961.49,850.13 L 2027.50,852.47 L 2096.27,871.17 L 2140.28,899.22 L 2192.53,927.27 L 2236.54,955.32 M 2162.28,1128.31 L 2118.27,1177.40 L 2074.26,1207.79 L 2008.25,1210.13 L 1947.74,1198.44 L 1881.73,1168.05 L 1840.47,1123.64 L 1865.23,1170.39 L 1931.24,1207.79 L 1994.50,1224.16 L 2060.51,1226.49 L 1939.49,1198.44 L 1867.98,1163.38 L 1829.47,1107.27 L 1834.97,1027.79 L 1848.72,971.69 L 1834.97,915.58 L 1796.46,957.66 L 1801.96,1013.77 L 1796.46,1088.57 L 1796.46,1144.68 L 1779.96,1277.92 L 1779.96,1331.69 L 1788.21,1387.79 L 1804.72,1443.90 L 1821.22,1500.00 L 1799.21,1558.44 L 1823.97,1514.03 M 1306.88,1532.73 L 1240.86,1544.42 L 1246.37,1607.53 L 1262.87,1661.30 L 1279.37,1719.74 L 1309.63,1792.21 L 1339.88,1852.99 L 1372.89,1909.09 L 1430.65,1983.90 L 1493.91,2061.04 L 1529.67,2098.44 L 1590.18,2154.55 L 1667.19,2208.31 L 1727.70,2243.38 M 814.54,2397.66 L 745.78,2397.66 L 666.01,2397.66 L 605.50,2367.27 L 674.26,2357.92 L 740.28,2371.95 L 674.26,2294.81 L 608.25,2301.82 L 674.26,2278.44 L 723.77,2257.40 L 668.76,2269.09 L 600.00,2271.43 L 657.76,2336.88 L 668.76,2278.44 L 726.52,2245.71 M 743.03,2128.83 L 776.03,2070.39 L 792.53,2016.62 L 814.54,1962.86 L 842.04,1909.09 L 773.28,1918.44 L 712.77,1918.44 L 652.26,1913.77 L 602.75,1890.39 L 671.51,1906.75 L 737.52,1909.09 L 798.04,1895.06 L 853.05,1890.39 L 817.29,1946.49 L 798.04,2002.60 L 778.78,2079.74 L 729.27,2110.13 L 745.78,2058.70 L 688.02,2028.31 L 627.50,2040.00 L 690.77,2014.29 L 759.53,2000.26 L 770.53,2058.70 L 800.79,1990.91 L 822.79,1941.82 M 927.31,1824.94 L 930.06,1878.70 L 930.06,1934.81 L 932.81,1990.91 L 943.81,2065.71 L 946.56,2124.16 L 960.31,2182.60 L 968.57,2236.36 L 974.07,2290.13 M 745.78,2016.62 L 688.02,1997.92 L 602.75,2000.26 M 899.80,1953.51 L 913.56,1881.04 L 916.31,1827.27 L 916.31,1775.84 M 811.79,1888.05 L 853.05,1831.95 L 839.29,1775.84 L 789.78,1736.10 L 745.78,1698.70 L 679.76,1696.36 L 635.76,1733.77 L 677.01,1701.04 L 745.78,1698.70 L 789.78,1736.10 L 833.79,1764.16 M 1040.08,1563.12 L 979.57,1616.88 L 913.56,1722.08 L 894.30,1773.51 L 847.54,1874.03 L 869.55,1817.92 L 894.30,1759.48 L 924.56,1703.38 L 946.56,1647.27 L 990.57,1591.17 L 1042.83,1551.43 L 1042.83,1495.32 L 1031.83,1439.22 L 1018.07,1387.79 L 1007.07,1331.69 L 957.56,1310.65 L 891.55,1312.99 L 825.54,1308.31 L 737.52,1305.97 L 655.01,1303.64 M 990.57,1322.34 L 1012.57,1376.10 L 1026.33,1432.21 L 1034.58,1488.31 L 1045.58,1546.75 L 1004.32,1581.82 L 960.31,1640.26 L 921.81,1715.06 L 894.30,1771.17 L 866.80,1824.94 L 844.79,1878.70 M 1257.37,1528.05 L 1323.38,1525.71 M 1760.71,908.57 L 1782.71,857.14 L 1848.72,758.96 L 1887.23,679.48 L 1933.99,618.70 L 1906.48,663.12 L 1867.98,714.55 L 1829.47,765.97 L 1793.71,822.08 L 1763.46,882.86 L 1752.46,941.30 L 1738.70,997.40 L 1724.95,1055.84 L 1711.20,1109.61 L 1702.95,1165.71 L 1694.70,1221.82 L 1691.94,1336.36 L 1700.20,1392.47 L 1708.45,1448.57 L 1713.95,1500.00 M 1955.99,1214.81 L 1906.48,1196.10 L 1843.22,1158.70 L 1812.97,1104.94 L 1815.72,1046.49 L 1815.72,990.39 L 1823.97,934.29 L 1892.73,927.27 L 1958.74,934.29 L 2024.75,950.65 L 2090.77,969.35 L 2137.52,1006.75 L 2181.53,1048.83 L 2222.79,1086.23 L 2288.80,1097.92 L 2393.32,1100.26 M 2409.82,796.36 L 2365.82,730.91 L 2382.32,789.35 L 2352.06,733.25 L 2387.82,777.66 L 2420.83,681.82 L 2382.32,649.09 L 2310.81,618.70 M 2115.52,614.03 L 2046.76,672.47 L 2002.75,716.88 L 2035.76,677.14 L 2099.02,623.38 M 1900.98,639.74 M 1983.50,789.35 L 1939.49,826.75 L 1892.73,864.16 L 1906.48,929.61 L 1978.00,950.65 L 2041.26,971.69 L 2115.52,995.06 L 2159.53,1027.79 L 2214.54,1081.56 M 2239.29,955.32 L 2176.03,924.94 L 2123.77,887.53 L 2035.76,850.13 L 2046.76,794.03 L 1991.75,831.43 L 2049.51,794.03 M 2841.65,607.01 L 2874.66,660.78 L 2904.91,719.22 L 2918.66,772.99 L 2943.42,831.43 L 2943.42,887.53 L 2948.92,945.97 L 2954.42,999.74 L 2957.17,1055.84 L 2965.42,1114.29 L 2979.17,1172.73 L 2970.92,1231.17 L 2962.67,1303.64 L 2968.17,1411.17 L 2965.42,1464.94 L 2965.42,1518.70 L 2970.92,1577.14 L 2976.42,1635.58 L 2981.93,1689.35 L 2979.17,1743.12 L 2992.93,1801.56 L 3001.18,1881.04 L 2998.43,1937.14 L 2984.68,1995.58 L 2987.43,2051.69 L 2995.68,2107.79 L 3047.94,2154.55 L 3089.19,2201.30 M 3006.68,681.82 L 3042.44,628.05 L 3006.68,672.47 L 3067.19,684.16 L 3108.45,651.43 L 3138.70,604.68 L 3111.20,665.45 M 2888.41,679.48 L 2863.65,635.06 M 3386.25,621.04" fill="none" stroke="black" stroke-width="2" stroke-linecap="round" stroke-linejoin="round"/>
    </svg>