<svg width="4000" height="3000" xmlns="http://www.w3.org/2000/svg" viewBox="0 0 4000 3000">
      <path d="M 2753.19,600.00 L 2685.11,684.71 L 2651.06,758.82 L 2659.57,854.12 L 2702.13,949.41 M 2668.09,854.12 L 2736.17,970.59 L 2804.26,1002.35 L 2863.83,981.18 L 2931.91,896.47 M 2829.79,832.94 L 2829.79,758.82 L 2787.23,843.53 L 2812.77,758.82 M 2914.89,695.29 L 2855.32,600.00 L 2787.23,600.00 L 2719.15,621.18 L 2642.55,758.82 M 2863.83,610.59 L 2931.91,695.29 L 2948.94,790.59 L 2940.43,875.29 M 2855.32,1129.41 L 2880.85,1214.12 L 2880.85,1394.12 L 2872.34,1478.82 L 2872.34,1648.24 L 2880.85,1743.53 L 2880.85,1997.65 L 2846.81,2082.35 L 2872.34,2071.76 L 2940.43,2061.18 L 3008.51,2071.76 L 3076.60,2061.18 M 3093.62,2040.00 L 3085.11,2040.00 L 3068.09,1997.65 L 3068.09,1987.06 L 3051.06,1987.06 L 3042.55,1965.88 M 3025.53,1616.47 L 3093.62,1595.29 L 3161.70,1605.88 L 3204.26,1637.65 L 3195.74,1732.94 L 3195.74,1987.06 L 3161.70,2071.76 L 3212.77,2103.53 L 3280.85,2092.94 L 3348.94,2103.53 M 3400.00,2040.00 L 3391.49,2029.41 L 3382.98,2008.24 L 3365.96,1997.65 L 3357.45,1987.06 M 3400.00,2082.35 L 3357.45,1997.65 L 3357.45,1658.82 L 3365.96,1574.12 L 3365.96,1489.41 L 3374.47,1394.12 L 3374.47,1309.41 L 3391.49,1224.71 L 3391.49,1171.76 L 3314.89,1150.59 L 3178.72,1150.59 L 3059.57,1161.18 L 2991.49,1161.18 L 2923.40,1150.59 L 2855.32,1150.59 L 2846.81,1203.53 M 2855.32,1192.94 L 2923.40,1161.18 L 2991.49,1150.59 L 3059.57,1150.59 L 3102.13,1161.18 L 3042.55,1245.88 L 3042.55,1341.18 M 3068.09,1235.29 L 3051.06,1245.88 L 3034.04,1245.88 L 3025.53,1235.29 L 3008.51,1235.29 M 3093.62,1182.35 L 3042.55,1256.47 L 3034.04,1341.18 L 3068.09,1383.53 L 3136.17,1383.53 M 3212.77,1224.71 L 3195.74,1224.71 L 3187.23,1203.53 L 3170.21,1192.94 L 3161.70,1182.35 M 3144.68,1118.82 L 3195.74,1203.53 L 3195.74,1288.24 M 3357.45,1214.12 L 3357.45,1203.53 L 3374.47,1192.94 M 3400.00,1182.35 L 3365.96,1267.06 L 3382.98,1436.47 L 3382.98,1605.88 L 3374.47,1680.00 L 3374.47,1976.47 M 3170.21,2008.24 L 3161.70,2040.00 L 3204.26,1955.29 L 3204.26,1870.59 L 3195.74,1785.88 L 3195.74,1616.47 M 3059.57,1584.71 L 3017.02,1669.41 L 3017.02,1838.82 L 3025.53,1934.12 L 3051.06,2029.41 M 2778.72,2018.82 L 2778.72,1934.12 L 2787.23,1849.41 L 2787.23,1754.12 L 2804.26,1584.71 L 2812.77,1510.59 L 2676.60,1510.59 L 2608.51,1531.76 M 2625.53,1521.18 L 2642.55,1478.82 L 2778.72,1500.00 M 2829.79,1500.00 L 2795.74,1669.41 L 2795.74,1838.82 L 2787.23,1912.94 L 2778.72,1997.65 M 2736.17,2040.00 L 2668.09,2050.59 L 2600.00,2082.35 L 2531.91,2071.76 L 2463.83,2050.59 L 2395.74,2008.24 L 2327.66,1860.00 M 2489.36,1817.65 L 2557.45,1923.53 L 2625.53,1944.71 M 2668.09,2050.59 L 2651.06,2061.18 L 2651.06,2071.76 L 2634.04,2082.35 M 2234.04,1849.41 L 2165.96,2018.82 L 2106.38,2071.76 L 2038.30,2092.94 L 1961.70,2103.53 L 1893.62,2050.59 L 1834.04,1987.06 L 1765.96,1796.47 M 1970.21,1870.59 L 2029.79,1955.29 L 2097.87,1944.71 M 2114.89,1489.41 L 2046.81,1309.41 L 1978.72,1267.06 L 1910.64,1320.00 M 1961.70,1277.65 L 1919.15,1362.35 L 1902.13,1436.47 L 1893.62,1521.18 L 1893.62,1595.29 L 1902.13,1669.41 L 1927.66,1754.12 L 1961.70,1838.82 L 2021.28,1934.12 M 1748.94,1415.29 L 1817.02,1235.29 L 1876.60,1161.18 L 1944.68,1140.00 L 2012.77,1140.00 L 2080.85,1161.18 L 2148.94,1214.12 L 2225.53,1309.41 L 2336.17,1362.35 L 2404.26,1214.12 L 2472.34,1161.18 L 2540.43,1150.59 L 2736.17,1150.59 L 2761.70,1203.53 L 2744.68,1288.24 L 2753.19,1372.94 M 2761.70,1394.12 L 2693.62,1277.65 L 2617.02,1235.29 L 2557.45,1277.65 L 2489.36,1394.12 M 2548.94,1267.06 L 2497.87,1341.18 L 2472.34,1436.47 L 2463.83,1521.18 L 2463.83,1711.76 L 2472.34,1796.47 L 2497.87,1881.18 M 2642.55,1891.76 L 2651.06,1807.06 L 2651.06,1732.94 L 2659.57,1648.24 L 2642.55,1552.94 L 2617.02,1468.24 M 2702.13,1351.76 L 2591.49,1267.06 M 2480.85,1150.59 L 2395.74,1235.29 L 2370.21,1330.59 L 2336.17,1415.29 L 2327.66,1510.59 L 2327.66,1754.12 L 2336.17,1838.82 L 2370.21,1944.71 L 2412.77,2040.00 L 2506.38,2114.12 M 2114.89,1881.18 L 2123.40,1785.88 L 2131.91,1701.18 L 2123.40,1605.88 L 2123.40,1521.18 L 2089.36,1425.88 L 2055.32,1341.18 L 1995.74,1256.47 M 1910.64,1150.59 L 1817.02,1235.29 L 1782.98,1320.00 L 1757.45,1394.12 L 1748.94,1489.41 L 1748.94,1743.53 L 1757.45,1828.24 L 1791.49,1902.35 L 1834.04,1997.65 L 1936.17,2082.35 M 1663.83,2177.65 L 1655.32,2092.94 L 1655.32,1912.94 L 1663.83,1828.24 L 1663.83,1584.71 L 1672.34,1489.41 L 1646.81,1404.71 L 1663.83,1425.88 L 1604.26,1394.12 L 1527.66,1394.12 M 1502.13,1531.76 L 1510.64,1605.88 L 1502.13,1690.59 L 1502.13,1764.71 L 1510.64,1849.41 L 1510.64,1934.12 L 1502.13,2008.24 M 1468.09,2103.53 L 1391.49,2082.35 L 1323.40,2040.00 L 1263.83,1976.47 M 1246.81,1997.65 L 1314.89,1881.18 L 1382.98,1754.12 L 1442.55,1605.88 L 1468.09,1500.00 L 1442.55,1574.12 L 1391.49,1658.82 L 1306.38,1828.24 L 1246.81,1923.53 L 1297.87,2018.82 M 1195.74,2156.47 L 1331.91,2230.59 M 1136.17,2114.12 L 1068.09,2198.82 L 982.98,2283.53 L 855.32,2357.65 M 761.70,2262.35 L 761.70,2177.65 L 736.17,2145.88 L 668.09,2156.47 L 600.00,2241.18 M 676.60,2124.71 L 608.51,2209.41 L 608.51,2304.71 L 625.53,2336.47 L 693.62,2378.82 L 753.19,2400.00 L 821.28,2389.41 L 889.36,2368.24 L 948.94,2325.88 L 1085.11,2198.82 L 1153.19,2145.88 L 1221.28,2177.65 L 1289.36,2198.82 L 1365.96,2220.00 L 1442.55,2230.59 L 1510.64,2230.59 L 1578.72,2241.18 L 1655.32,2230.59 M 1255.32,1817.65 L 1306.38,1743.53 L 1365.96,1669.41 L 1331.91,1732.94 L 1263.83,1828.24 L 1195.74,1838.82 L 1178.72,1828.24 L 1153.19,1743.53 L 1153.19,1648.24 M 1042.55,2061.18 L 948.94,2135.29 M 906.38,2241.18 L 991.49,2156.47 L 1076.60,2082.35 L 1008.51,2135.29 L 931.91,2198.82 L 872.34,2241.18 L 795.74,2262.35 L 761.70,2230.59 L 719.15,2135.29 M 1434.04,2082.35 L 1306.38,2008.24 L 1272.34,1923.53 L 1331.91,1860.00 L 1382.98,1785.88 L 1425.53,1711.76 L 1485.11,1627.06 L 1510.64,1542.35 M 1663.83,1394.12 L 1672.34,1478.82 L 1655.32,1563.53 L 1655.32,1828.24 L 1646.81,1923.53 L 1646.81,2092.94 L 1663.83,2177.65 L 1680.85,2188.24 M 2174.47,2008.24 L 2242.55,1838.82 L 2276.60,1743.53 L 2268.09,1669.41 L 2259.57,1584.71 L 2268.09,1500.00 L 2259.57,1415.29 L 2225.53,1330.59 L 2174.47,1235.29 L 2097.87,1150.59 M 2736.17,1161.18 L 2761.70,1256.47 L 2753.19,1341.18 L 2761.70,1436.47" fill="none" stroke="black" stroke-width="2" stroke-linecap="round" stroke-linejoin="round"/>
    </svg>