<svg width="4000" height="3000" xmlns="http://www.w3.org/2000/svg" viewBox="0 0 4000 3000">
      <path d="M 780.55,1405.71 M 954.01,1356.89 L 955.13,1356.57 L 956.27,1356.22 L 955.12,1356.56 L 954.01,1356.89 M 3338.57,977.76 L 3325.02,963.05 L 3310.29,948.67 L 3294.37,934.62 L 3277.28,920.89 L 3259.04,907.50 L 3239.66,894.43 L 3219.15,881.68 L 3197.52,869.27 L 3174.79,857.17 L 3173.88,856.67 L 3135.88,837.48 L 3093.92,818.21 L 3047.74,798.79 L 2997.60,779.35 L 2943.76,760.06 L 2886.45,741.07 L 2825.94,722.53 L 2762.48,704.58 L 2696.31,687.39 L 2627.54,671.17 L 2556.69,656.11 L 2484.05,642.43 L 2409.90,630.30 L 2334.54,619.94 L 2258.26,611.53 L 2181.35,605.27 L 2104.10,601.36 L 2026.81,600.00 L 2023.85,600.00 L 2020.88,600.01 L 2017.91,600.01 L 2008.93,600.07 L 2005.93,600.10 L 1999.92,600.18 L 1996.94,600.15 L 1993.96,600.11 L 1990.98,600.08 L 1982.03,600.02 L 1976.06,600.00 L 1973.06,600.00 L 1895.77,601.36 L 1818.52,605.27 L 1741.62,611.53 L 1665.34,619.94 L 1589.99,630.30 L 1515.85,642.43 L 1443.21,656.11 L 1372.36,671.17 L 1303.60,687.39 L 1237.45,704.57 L 1174.00,722.51 L 1113.50,741.05 L 1056.21,760.04 L 1002.38,779.33 L 952.26,798.76 L 906.10,818.19 L 864.15,837.47 L 826.67,856.44 L 825.69,856.91 L 802.53,869.27 L 780.88,881.69 L 760.35,894.44 L 740.96,907.51 L 722.71,920.90 L 705.63,934.62 L 689.71,948.67 L 674.97,963.05 L 661.43,977.77 L 649.04,992.88 L 637.92,1008.36 L 628.14,1024.19 L 619.73,1040.31 L 612.74,1056.70 L 607.23,1073.31 L 603.24,1090.11 L 600.81,1107.06 L 600.00,1124.13 L 600.99,1143.14 L 604.06,1161.93 L 609.14,1180.43 L 616.16,1198.58 L 625.04,1216.33 L 635.72,1233.60 L 648.12,1250.33 L 662.17,1266.48 L 677.80,1281.96 L 700.94,1309.29 L 712.44,1322.98 L 735.30,1350.42 L 746.65,1364.16 L 769.21,1391.72 L 780.41,1405.53 L 793.49,1419.71 L 807.75,1431.95 L 823.34,1442.62 L 840.10,1451.72 L 857.82,1459.21 L 876.33,1465.07 L 895.43,1469.28 L 914.95,1471.82 L 934.68,1472.67 L 941.83,1472.55 L 948.98,1472.21 L 956.14,1471.64 L 963.29,1470.85 L 970.43,1469.83 L 977.54,1468.58 L 984.62,1467.11 L 991.65,1465.42 L 998.64,1463.51 L 997.64,1463.90 L 998.64,1463.59 L 998.91,1467.52 L 998.73,1463.59 L 999.80,1463.27 L 1005.92,1461.47 L 1011.76,1459.82 L 1017.60,1458.21 L 1023.45,1456.62 L 1041.02,1451.92 L 1046.86,1450.33 L 1052.69,1448.69 L 1051.99,1450.41 L 1051.28,1452.13 L 1050.22,1454.70 L 1049.51,1456.42 L 897.63,1725.72 L 879.66,1759.74 L 863.73,1794.38 L 849.88,1829.56 L 838.10,1865.24 L 828.43,1901.33 L 820.88,1937.78 L 815.46,1974.53 L 812.20,2011.50 L 811.11,2048.63 L 811.11,2119.41 L 811.89,2138.62 L 814.20,2157.49 L 817.98,2175.97 L 823.18,2194.01 L 829.76,2211.58 L 837.66,2228.64 L 846.83,2245.14 L 857.22,2261.04 L 868.78,2276.30 L 881.46,2290.87 L 895.22,2304.73 L 910.00,2317.82 L 925.74,2330.10 L 942.41,2341.53 L 959.95,2352.07 L 978.31,2361.68 L 997.43,2370.32 L 1017.28,2377.94 L 1037.80,2384.50 L 1058.94,2389.97 L 1080.64,2394.29 L 1102.87,2397.43 L 1125.56,2399.35 L 1148.67,2400.00 L 2851.34,2400.00 L 2874.46,2399.35 L 2897.16,2397.43 L 2919.39,2394.29 L 2941.10,2389.96 L 2962.24,2384.50 L 2982.76,2377.93 L 3002.61,2370.31 L 3021.74,2361.67 L 3040.09,2352.06 L 3057.63,2341.52 L 3074.30,2330.08 L 3090.04,2317.80 L 3104.81,2304.71 L 3118.57,2290.86 L 3131.25,2276.28 L 3142.81,2261.02 L 3153.20,2245.12 L 3162.36,2228.62 L 3170.26,2211.57 L 3176.83,2194.00 L 3182.03,2175.95 L 3185.81,2157.48 L 3188.11,2138.62 L 3188.89,2119.41 L 3188.89,2048.63 L 3187.80,2011.50 L 3184.54,1974.53 L 3179.13,1937.78 L 3171.57,1901.33 L 3161.90,1865.24 L 3150.13,1829.56 L 3136.28,1794.38 L 3120.36,1759.74 L 3102.38,1725.72 L 2950.50,1456.42 L 2949.79,1454.69 L 2948.73,1452.11 L 2948.02,1450.38 L 2947.31,1448.66 L 2953.14,1450.29 L 2958.98,1451.89 L 2976.52,1456.59 L 2982.36,1458.17 L 2988.19,1459.78 L 2994.01,1461.44 L 2999.81,1463.14 L 3006.99,1465.16 L 3014.21,1466.92 L 3021.46,1468.45 L 3028.74,1469.73 L 3036.05,1470.78 L 3043.36,1471.59 L 3050.67,1472.17 L 3057.98,1472.52 L 3065.27,1472.63 L 3085.04,1471.80 L 3104.58,1469.26 L 3123.69,1465.04 L 3142.19,1459.17 L 3159.91,1451.67 L 3176.65,1442.58 L 3192.23,1431.91 L 3206.48,1419.68 L 3219.20,1405.94 L 3230.62,1391.87 L 3241.92,1378.04 L 3264.67,1350.45 L 3276.12,1336.69 L 3287.62,1322.95 L 3310.75,1295.53 L 3322.38,1281.86 L 3337.98,1266.37 L 3352.01,1250.23 L 3364.39,1233.49 L 3375.04,1216.22 L 3383.91,1198.48 L 3390.91,1180.33 L 3395.97,1161.84 L 3399.03,1143.08 L 3400.00,1124.10 L 3399.20,1107.03 L 3396.79,1090.08 L 3392.79,1073.28 L 3387.28,1056.67 L 3380.29,1040.28 L 3371.88,1024.16 L 3362.08,1008.34 L 3350.97,992.86 L 3338.57,977.76 M 3065.27,1359.68 L 3063.13,1359.65 L 3060.98,1359.55 L 3058.82,1359.38 L 3056.67,1359.15 L 3054.51,1358.84 L 3052.35,1358.46 L 3050.19,1358.01 L 3048.04,1357.49 L 3045.90,1356.89 L 3010.82,1346.55 L 2975.61,1336.57 L 2940.30,1326.93 L 2904.88,1317.66 L 2869.36,1308.73 L 2833.73,1300.16 L 2798.01,1291.94 L 2762.20,1284.07 L 2726.30,1276.56 L 2722.35,1275.62 L 2718.55,1274.47 L 2714.93,1273.12 L 2711.47,1271.57 L 2708.21,1269.84 L 2705.13,1267.94 L 2702.26,1265.88 L 2699.59,1263.67 L 2697.15,1261.34 L 2694.94,1258.88 L 2692.98,1256.35 L 2691.28,1253.75 L 2689.83,1251.09 L 2688.63,1248.35 L 2687.70,1245.56 L 2687.03,1242.71 L 2686.62,1239.81 L 2686.49,1236.85 L 2686.88,1151.08 L 2686.84,1138.69 L 2686.27,1127.37 L 2684.59,1116.09 L 2681.85,1105.06 L 2678.09,1094.32 L 2673.38,1083.92 L 2667.76,1073.90 L 2661.28,1064.29 L 2653.98,1055.14 L 2645.93,1046.48 L 2637.99,1039.07 L 2629.47,1032.09 L 2620.39,1025.58 L 2610.78,1019.53 L 2600.68,1013.98 L 2590.12,1008.92 L 2579.13,1004.38 L 2567.73,1000.36 L 2555.97,996.89 L 2554.72,996.41 L 2553.65,996.04 L 2552.69,995.71 L 2550.80,995.11 L 2549.16,994.60 L 2547.72,994.17 L 2546.43,993.81 L 2545.24,993.49 L 2542.94,992.91 L 2541.74,992.62 L 2540.44,992.29 L 2535.46,991.11 L 2529.67,989.78 L 2523.08,988.31 L 2515.69,986.71 L 2507.53,984.99 L 2498.60,983.15 L 2478.46,979.13 L 2467.29,976.97 L 2429.87,970.08 L 2387.33,962.76 L 2340.53,955.33 L 2290.35,948.12 L 2237.66,941.47 L 2183.31,935.71 L 2128.17,931.16 L 2073.12,928.16 L 2019.02,927.03 L 2016.90,927.04 L 2014.78,927.04 L 2006.33,927.12 L 2002.11,927.18 L 2000.00,927.22 L 1997.89,927.18 L 1993.67,927.12 L 1985.24,927.04 L 1983.13,927.04 L 1981.03,927.03 L 1941.50,927.64 L 1901.36,929.31 L 1860.95,931.92 L 1820.59,935.32 L 1780.63,939.40 L 1741.38,944.01 L 1703.19,949.02 L 1666.39,954.30 L 1631.30,959.72 L 1614.53,962.44 L 1598.33,965.15 L 1582.74,967.83 L 1567.81,970.48 L 1553.58,973.06 L 1540.09,975.57 L 1527.40,978.00 L 1515.53,980.31 L 1504.54,982.51 L 1499.38,983.56 L 1485.30,986.50 L 1481.09,987.40 L 1473.39,989.09 L 1466.67,990.60 L 1463.65,991.31 L 1462.23,991.64 L 1459.54,992.29 L 1458.25,992.61 L 1457.00,992.93 L 1455.77,993.25 L 1454.55,993.58 L 1453.06,994.01 L 1451.57,994.44 L 1450.07,994.88 L 1447.83,995.53 L 1446.81,995.88 L 1445.64,996.28 L 1444.29,996.78 L 1432.48,1000.25 L 1421.04,1004.27 L 1410.01,1008.82 L 1399.41,1013.89 L 1389.27,1019.46 L 1379.64,1025.53 L 1370.53,1032.06 L 1361.98,1039.07 L 1354.02,1046.52 L 1345.98,1055.17 L 1338.70,1064.32 L 1332.23,1073.93 L 1326.62,1083.94 L 1321.91,1094.33 L 1318.17,1105.06 L 1315.42,1116.08 L 1313.74,1127.35 L 1313.15,1138.84 L 1313.12,1146.89 L 1313.12,1149.62 L 1313.11,1152.36 L 1313.55,1236.78 L 1313.40,1239.74 L 1312.99,1242.65 L 1312.31,1245.51 L 1311.37,1248.32 L 1310.17,1251.07 L 1308.72,1253.75 L 1307.01,1256.37 L 1305.05,1258.91 L 1302.85,1261.38 L 1300.39,1263.72 L 1297.72,1265.93 L 1294.84,1267.99 L 1291.76,1269.89 L 1288.49,1271.63 L 1285.04,1273.18 L 1281.42,1274.53 L 1277.63,1275.68 L 1273.70,1276.60 L 1237.83,1284.09 L 1202.05,1291.94 L 1166.36,1300.15 L 1130.78,1308.71 L 1095.30,1317.62 L 1059.92,1326.89 L 1024.65,1336.50 L 989.49,1346.47 L 954.44,1356.78 L 951.85,1357.49 L 949.69,1358.02 L 947.54,1358.48 L 945.38,1358.86 L 943.23,1359.17 L 941.08,1359.42 L 938.94,1359.59 L 936.81,1359.69 L 934.68,1359.73 L 928.89,1359.46 L 923.32,1358.73 L 918.00,1357.56 L 912.96,1355.98 L 908.25,1354.00 L 903.88,1351.65 L 899.91,1348.96 L 896.37,1345.94 L 893.28,1342.63 L 870.07,1314.13 L 858.39,1299.91 L 823.07,1257.41 L 787.30,1215.09 L 786.45,1214.07 L 785.59,1213.05 L 784.74,1212.04 L 783.74,1211.15 L 782.40,1209.98 L 771.38,1199.37 L 762.52,1189.53 L 755.07,1179.86 L 748.95,1170.33 L 744.10,1160.93 L 740.44,1151.63 L 737.90,1142.41 L 736.40,1133.25 L 735.87,1124.13 L 736.27,1116.04 L 737.44,1107.75 L 739.45,1099.27 L 742.33,1090.59 L 746.13,1081.70 L 750.90,1072.59 L 756.70,1063.26 L 763.57,1053.70 L 771.56,1043.91 L 780.68,1033.98 L 790.99,1023.93 L 802.52,1013.78 L 815.27,1003.57 L 829.24,993.33 L 844.45,983.10 L 860.91,972.90 L 878.63,962.76 L 897.62,952.73 L 898.55,952.25 L 931.10,935.67 L 968.34,918.55 L 1010.36,900.87 L 1056.81,882.86 L 1107.31,864.74 L 1161.49,846.72 L 1218.99,829.05 L 1279.43,811.95 L 1342.44,795.63 L 1407.78,780.20 L 1475.09,765.90 L 1544.03,752.92 L 1614.26,741.44 L 1685.45,731.65 L 1757.26,723.72 L 1829.35,717.84 L 1901.40,714.18 L 1973.06,712.94 L 1975.92,712.94 L 1981.65,712.96 L 1987.39,713.00 L 1995.99,713.09 L 1998.85,713.13 L 2001.15,713.13 L 2003.97,713.08 L 2012.48,712.99 L 2015.34,712.97 L 2023.93,712.94 L 2026.81,712.94 L 2098.47,714.18 L 2170.52,717.84 L 2242.63,723.73 L 2314.45,731.66 L 2385.64,741.45 L 2455.89,752.93 L 2524.84,765.91 L 2592.16,780.20 L 2657.52,795.63 L 2720.55,811.96 L 2781.00,829.07 L 2838.51,846.75 L 2892.70,864.76 L 2943.21,882.89 L 2989.67,900.90 L 3031.70,918.57 L 3068.94,935.68 L 3101.01,951.99 L 3101.94,952.46 L 3121.37,962.74 L 3139.09,972.88 L 3155.55,983.09 L 3170.76,993.33 L 3184.74,1003.57 L 3197.49,1013.78 L 3209.02,1023.93 L 3219.35,1033.98 L 3228.48,1043.91 L 3236.47,1053.70 L 3243.34,1063.26 L 3249.13,1072.59 L 3253.91,1081.69 L 3257.70,1090.58 L 3260.58,1099.26 L 3262.57,1107.73 L 3263.74,1116.01 L 3264.13,1124.09 L 3263.60,1133.23 L 3262.10,1142.40 L 3259.56,1151.63 L 3255.91,1160.93 L 3251.07,1170.34 L 3244.96,1179.86 L 3237.51,1189.53 L 3228.65,1199.36 L 3218.31,1209.39 L 3217.30,1210.28 L 3215.97,1211.48 L 3215.01,1212.40 L 3214.16,1213.40 L 3213.31,1214.39 L 3200.76,1229.13 L 3176.94,1257.37 L 3141.58,1299.91 L 3118.26,1328.37 L 3106.68,1342.63 L 3103.76,1345.78 L 3100.20,1348.84 L 3096.21,1351.56 L 3091.82,1353.94 L 3087.08,1355.93 L 3082.02,1357.53 L 3076.67,1358.70 L 3071.08,1359.43 L 3065.27,1359.68 M 946.98,2048.63 L 947.91,2017.00 L 950.69,1985.52 L 955.29,1954.23 L 961.72,1923.19 L 969.96,1892.45 L 979.98,1862.08 L 991.78,1832.12 L 1005.35,1802.63 L 1020.67,1773.66 L 1175.65,1498.83 L 1213.46,1407.32 L 1254.53,1397.70 L 1275.09,1392.97 L 1285.38,1390.67 L 1295.70,1388.44 L 1306.03,1386.29 L 1319.59,1383.09 L 1332.69,1379.11 L 1345.30,1374.38 L 1357.38,1368.95 L 1368.90,1362.84 L 1379.81,1356.09 L 1390.07,1348.73 L 1399.65,1340.80 L 1408.52,1332.32 L 1416.48,1323.51 L 1423.67,1314.21 L 1430.05,1304.46 L 1435.58,1294.30 L 1440.23,1283.77 L 1443.96,1272.91 L 1446.72,1261.76 L 1448.49,1250.36 L 1449.21,1238.75 L 1449.42,1237.77 L 1449.43,1235.81 L 1448.99,1149.80 L 1449.03,1139.05 L 1449.14,1136.73 L 1449.46,1134.52 L 1450.02,1132.28 L 1450.81,1130.02 L 1451.84,1127.74 L 1453.13,1125.46 L 1454.69,1123.17 L 1456.52,1120.88 L 1458.63,1118.61 L 1460.99,1116.40 L 1463.62,1114.27 L 1466.51,1112.23 L 1469.65,1110.31 L 1473.05,1108.52 L 1476.70,1106.88 L 1480.58,1105.42 L 1484.70,1104.13 L 1489.06,1103.06 L 1539.87,1092.10 L 1553.94,1088.84 L 1569.48,1085.86 L 1586.39,1082.71 L 1604.55,1079.44 L 1623.85,1076.09 L 1644.20,1072.68 L 1665.47,1069.26 L 1687.57,1065.87 L 1710.38,1062.54 L 1739.74,1058.49 L 1769.82,1054.68 L 1800.39,1051.16 L 1831.21,1048.00 L 1862.05,1045.27 L 1892.69,1043.04 L 1922.88,1041.37 L 1952.40,1040.32 L 1981.02,1039.97 L 1982.98,1039.97 L 1988.81,1040.00 L 1994.58,1040.06 L 1996.50,1040.09 L 1998.40,1040.11 L 1999.49,1040.14 L 2001.45,1040.15 L 2003.37,1040.11 L 2007.24,1040.05 L 2013.10,1039.99 L 2017.03,1039.97 L 2019.01,1039.97 L 2053.85,1040.48 L 2089.93,1042.01 L 2126.85,1044.41 L 2164.19,1047.58 L 2201.54,1051.38 L 2238.51,1055.71 L 2274.68,1060.43 L 2309.64,1065.43 L 2342.99,1070.59 L 2358.45,1073.10 L 2373.38,1075.60 L 2387.75,1078.08 L 2401.53,1080.51 L 2414.66,1082.89 L 2427.12,1085.20 L 2438.86,1087.43 L 2449.84,1089.56 L 2460.02,1091.58 L 2510.85,1103.02 L 2515.20,1104.10 L 2519.33,1105.38 L 2523.23,1106.86 L 2526.89,1108.50 L 2530.31,1110.30 L 2533.48,1112.23 L 2536.39,1114.28 L 2539.03,1116.42 L 2541.41,1118.64 L 2543.51,1120.92 L 2545.33,1123.20 L 2546.87,1125.48 L 2548.16,1127.76 L 2549.19,1130.03 L 2549.98,1132.28 L 2550.53,1134.50 L 2550.85,1136.70 L 2550.96,1138.87 L 2550.99,1148.21 L 2550.99,1151.27 L 2551.00,1154.33 L 2550.60,1235.85 L 2551.15,1248.70 L 2552.81,1260.34 L 2555.52,1271.73 L 2559.24,1282.82 L 2563.93,1293.57 L 2569.55,1303.93 L 2576.04,1313.88 L 2583.36,1323.35 L 2591.48,1332.32 L 2600.34,1340.80 L 2609.92,1348.73 L 2620.19,1356.09 L 2631.09,1362.83 L 2642.61,1368.93 L 2654.69,1374.36 L 2667.30,1379.08 L 2680.40,1383.05 L 2693.96,1386.26 L 2704.28,1388.41 L 2714.59,1390.64 L 2724.88,1392.94 L 2745.44,1397.67 L 2786.48,1407.32 L 2824.35,1498.79 L 2979.33,1773.65 L 2994.65,1802.62 L 3008.22,1832.11 L 3020.02,1862.07 L 3030.04,1892.45 L 3038.28,1923.18 L 3044.71,1954.22 L 3049.31,1985.51 L 3052.09,2017.00 L 3053.02,2048.62 L 3053.02,2119.40 L 3052.19,2134.70 L 3049.76,2149.59 L 3045.82,2164.01 L 3040.42,2177.92 L 3033.63,2191.26 L 3025.53,2203.98 L 3016.17,2216.03 L 3005.63,2227.36 L 2993.97,2237.93 L 2981.25,2247.63 L 2967.61,2256.40 L 2953.11,2264.18 L 2937.80,2270.92 L 2921.75,2276.57 L 2905.02,2281.06 L 2887.67,2284.34 L 2869.75,2286.35 L 2851.34,2287.04 L 1148.67,2287.04 L 1130.27,2286.35 L 1112.36,2284.34 L 1095.01,2281.06 L 1078.29,2276.57 L 1062.24,2270.92 L 1046.94,2264.18 L 1032.43,2256.40 L 1018.79,2247.63 L 1006.08,2237.93 L 994.41,2227.36 L 983.86,2216.02 L 974.49,2203.96 L 966.38,2191.24 L 959.59,2177.90 L 954.19,2164.00 L 950.24,2149.58 L 947.82,2134.70 L 946.99,2119.40 L 946.99,2048.63 M 998.73,1463.58 L 999.80,1463.25 L 998.73,1463.58 M 1574.82,1903.30 L 1787.44,1903.30 L 1787.44,2080.03 L 1574.82,2080.03 L 1574.82,1903.30 M 1574.82,1661.45 L 1787.44,1661.45 L 1787.44,1838.18 L 1574.82,1838.18 L 1574.82,1661.45 M 1574.82,1419.61 L 1787.44,1419.61 L 1787.44,1596.30 L 1574.82,1596.30 L 1574.82,1419.61 M 1893.72,1903.30 L 2106.33,1903.30 L 2106.33,2080.03 L 1893.72,2080.03 L 1893.72,1903.30 M 1893.72,1661.45 L 2106.33,1661.45 L 2106.33,1838.18 L 1893.72,1838.18 L 1893.72,1661.45 M 1893.72,1419.61 L 2106.33,1419.61 L 2106.33,1596.30 L 1893.72,1596.30 L 1893.72,1419.61 M 2212.66,1903.30 L 2425.23,1903.30 L 2425.23,2080.03 L 2212.66,2080.03 L 2212.66,1903.30 M 2212.66,1661.45 L 2425.23,1661.45 L 2425.23,1838.18 L 2212.66,1838.18 L 2212.66,1661.45 M 2212.66,1419.61 L 2425.23,1419.61 L 2425.23,1596.30 L 2212.66,1596.30 L 2212.66,1419.61" fill="none" stroke="black" stroke-width="2" stroke-linecap="round" stroke-linejoin="round"/>
    </svg>