<svg width="4000" height="3000" xmlns="http://www.w3.org/2000/svg" viewBox="0 0 4000 3000">
      <path d="M 3400.00,1850.18 L 3250.48,1800.28 L 3116.85,1735.66 L 3001.70,1657.97 L 2907.62,1568.90 L 2837.22,1470.10 L 2793.07,1363.24 L 2777.78,1250.00 L 2793.09,1136.82 L 2837.28,1030.03 L 2907.74,931.28 L 3001.85,842.23 L 3117.01,764.56 L 3250.60,699.93 L 3400.00,650.00 L 3212.34,612.96 L 3011.11,600.00 L 2835.06,609.82 L 2668.93,638.16 L 2515.32,683.37 L 2376.81,743.78 L 2255.99,817.73 L 2155.45,903.54 L 2077.78,999.56 M 1206.67,2400.00 L 1097.62,2393.84 L 994.98,2376.09 L 900.47,2347.82 L 815.80,2310.11 L 742.68,2264.05 L 682.83,2210.71 L 637.95,2151.17 L 609.77,2086.51 L 600.00,2017.81 L 609.28,1953.06 L 636.34,1890.93 L 679.98,1832.79 L 739.03,1780.02 L 812.29,1733.98 L 898.59,1696.05 L 996.74,1667.60 L 1105.56,1650.00 L 1154.03,1590.86 L 1216.80,1537.54 L 1292.26,1491.22 L 1378.78,1453.11 L 1474.75,1424.40 L 1578.55,1406.30 L 1688.55,1400.00 L 1798.15,1405.98 L 1901.61,1423.23 L 1997.30,1450.75 L 2083.64,1487.54 L 2159.02,1532.57 L 2221.83,1584.84 L 2270.49,1643.34 L 2303.37,1707.07 L 2318.89,1775.00 L 2391.91,1800.51 L 2457.11,1833.77 L 2513.24,1873.70 L 2559.05,1919.21 L 2593.32,1969.21 L 2614.79,2022.62 L 2622.22,2078.35 L 2614.08,2136.17 L 2590.59,2190.58 L 2553.20,2240.69 L 2503.32,2285.58 L 2442.39,2324.35 L 2371.83,2356.08 L 2293.07,2379.88 L 2207.54,2394.82 L 2116.67,2400.00 L 1206.67,2400.00" fill="none" stroke="black" stroke-width="2" stroke-linecap="round" stroke-linejoin="round"/>
    </svg>