<svg xmlns="http://www.w3.org/2000/svg" version="1.1">
 <polyline points="247.0,1.5 245.0,6.0 242.0,10.0 240.0,14.0 237.0,18.0 234.5,22.0 233.5,26.0 230.5,30.5 228.5,34.5 226.0,38.5 224.0,42.5 221.5,46.5 219.5,50.5 217.5,54.0 216.0,58.0 214.5,62.0 213.0,65.5 211.5,69.5 210.5,73.0 210.0,77.0 209.0,81.0 208.5,85.0 207.5,89.0 207.0,93.0 206.0,97.0 205.0,101.0 205.0,105.5 204.0,109.5 203.5,114.0 203.5,118.0 203.0,122.5 202.5,126.5 202.0,130.0 202.0,133.5 202.0,137.5 202.0,141.5 202.0,145.0 202.0,149.0 202.0,153.5 202.0,157.5 202.0,161.5 202.5,165.5 203.0,169.5 202.5,173.5 203.0,177.5 203.5,181.5 204.0,185.5 204.0,189.5 204.0,193.5 204.5,198.0 202.0,202.0 206.0,206.0 207.0,210.0 206.5,214.0 208.0,218.0" stroke="black" stroke-width="1" fill="none" />
 <polyline points="210.0,217.5 209.5,217.5 209.0,217.0 208.5,216.0 208.5,215.5 207.5,214.5" stroke="black" stroke-width="1" fill="none" />
 <polyline points="204.0,200.5 200.5,202.0 196.5,203.0" stroke="black" stroke-width="1" fill="none" />
 <polyline points="223.0,190.0 222.5,188.0 222.0,186.5 221.5,184.5 221.5,183.5" stroke="black" stroke-width="1" fill="none" />
 <polyline points="240.0,173.0 244.0,172.5 248.0,175.5 252.5,175.5 256.5,174.5 260.5,175.0 265.0,175.0 269.5,176.0 274.0,178.0 278.5,179.5 282.5,179.5 286.5,180.5 290.0,183.5 294.0,187.0 298.0,192.0 302.0,194.0 306.0,194.0 309.5,195.5" stroke="black" stroke-width="1" fill="none" />
 <polyline points="307.0,195.0 307.5,195.5 308.0,196.0 307.0,196.5 305.5,197.0" stroke="black" stroke-width="1" fill="none" />
 <polyline points="307.0,196.0 303.5,197.0 299.5,197.5 295.5,196.5 291.5,194.0 287.5,192.0 283.5,190.0 279.0,188.5 275.0,187.0 271.0,186.5 267.0,185.0 263.0,183.5 259.5,181.5" stroke="black" stroke-width="1" fill="none" />
 <polyline points="267.5,176.5 274.5,180.5" stroke="black" stroke-width="1" fill="none" />
 <polyline points="284.5,180.5 290.0,184.5 294.5,188.5 297.5,192.5" stroke="black" stroke-width="1" fill="none" />
 <polyline points="292.0,194.5 283.0,190.5" stroke="black" stroke-width="1" fill="none" />
 <polyline points="277.5,210.0 274.0,208.0 269.5,206.0 265.0,204.0 261.0,203.5 257.0,202.5" stroke="black" stroke-width="1" fill="none" />
 <polyline points="265.5,204.0 273.0,208.5" stroke="black" stroke-width="1" fill="none" />
 <polyline points="248.0,180.0 244.0,177.0" stroke="black" stroke-width="1" fill="none" />
 <polyline points="245.0,175.0 248.5,179.0 253.0,180.5 257.0,183.0 261.0,185.5" stroke="black" stroke-width="1" fill="none" />
 <polyline points="271.0,186.5 262.0,182.5 257.0,182.5 249.5,176.0 245.5,172.0" stroke="black" stroke-width="1" fill="none" />
 <polyline points="288.0,163.0 292.0,162.5 296.5,163.0 300.0,165.5" stroke="black" stroke-width="1" fill="none" />
 <polyline points="300.5,167.0 297.0,167.5 293.5,166.5 289.5,165.0" stroke="black" stroke-width="1" fill="none" />
 <polyline points="289.5,165.0 290.5,166.0 290.5,166.5 291.0,167.5 291.5,168.0" stroke="black" stroke-width="1" fill="none" />
 <polyline points="294.0,163.5 295.0,164.0 296.0,164.5 297.0,165.0 298.0,165.5" stroke="black" stroke-width="1" fill="none" />
 <polyline points="311.0,154.0 310.5,154.0 310.0,153.0 309.5,152.5 309.0,150.5 308.5,149.5" stroke="black" stroke-width="1" fill="none" />
 <polyline points="310.0,148.0 313.0,152.0 318.5,156.5 326.0,160.5" stroke="black" stroke-width="1" fill="none" />
 <polyline points="310.0,143.5 313.5,150.0 317.5,153.0 321.5,155.0 325.5,157.0 329.5,158.5 333.5,159.0 337.5,160.0 342.0,160.0 346.0,161.0 349.5,161.0 353.5,161.5 357.5,161.0 362.0,159.0 365.5,155.5 369.5,151.0 367.5,154.0 363.5,158.0" stroke="black" stroke-width="1" fill="none" />
 <polyline points="359.0,164.0 355.0,165.0 351.5,166.0 347.5,166.0 343.0,165.5 339.0,164.0 334.5,163.5 330.5,162.0 326.5,161.0 322.5,159.0 319.0,157.0 315.0,154.5 311.5,150.0 307.0,145.0" stroke="black" stroke-width="1" fill="none" />
 <polyline points="306.0,143.5 307.0,147.5 309.0,151.5" stroke="black" stroke-width="1" fill="none" />
 <polyline points="308.0,117.0 312.0,112.0 316.5,110.5 320.5,110.5 325.0,110.0 329.0,110.0 333.0,111.0 327.5,116.5 331.5,121.0 332.0,120.5 336.5,122.5" stroke="black" stroke-width="1" fill="none" />
 <polyline points="333.5,119.0 334.0,114.5 331.0,115.0 327.0,117.0" stroke="black" stroke-width="1" fill="none" />
 <polyline points="331.5,117.5 332.0,113.5" stroke="black" stroke-width="1" fill="none" />
 <polyline points="332.5,114.0 327.5,118.5 334.0,121.0 337.0,125.0 338.0,127.0 342.0,128.0" stroke="black" stroke-width="1" fill="none" />
 <polyline points="335.5,114.5 335.0,114.5" stroke="black" stroke-width="1" fill="none" />
 <polyline points="340.0,100.5 344.0,101.0 347.5,100.5 351.5,101.5 355.0,102.5 359.0,107.0" stroke="black" stroke-width="1" fill="none" />
 <polyline points="358.5,105.5 353.5,102.0" stroke="black" stroke-width="1" fill="none" />
 <polyline points="371.0,97.5 371.5,98.5 372.0,99.5 372.0,100.0" stroke="black" stroke-width="1" fill="none" />
 <polyline points="374.5,92.5 378.5,105.5" stroke="black" stroke-width="1" fill="none" />
 <polyline points="383.5,104.5 384.0,105.5 384.5,105.5 385.0,105.5 385.5,106.5" stroke="black" stroke-width="1" fill="none" />
 <polyline points="384.0,115.0 384.5,115.0 384.5,116.5 385.0,118.5 385.5,119.5 386.0,120.5" stroke="black" stroke-width="1" fill="none" />
 <polyline points="390.0,120.0 389.0,119.5 388.5,118.5 388.0,118.0 387.5,116.5" stroke="black" stroke-width="1" fill="none" />
 <polyline points="390.0,121.5 388.0,118.0 386.5,114.0 385.5,110.5 383.5,106.0 381.5,102.0 380.5,98.0 379.5,94.0 378.5,92.0" stroke="black" stroke-width="1" fill="none" />
 <polyline points="379.0,91.0 380.5,94.5 382.0,99.0 382.0,103.0 384.5,107.5 385.5,112.0 387.0,116.0 388.5,120.0 390.0,124.0" stroke="black" stroke-width="1" fill="none" />
 <polyline points="374.5,110.0 374.0,101.0 370.0,92.0" stroke="black" stroke-width="1" fill="none" />
 <polyline points="370.0,91.0 371.5,95.0 373.5,99.5 375.0,104.0 376.5,108.0 377.0,112.0 378.0,116.5 380.0,120.5 382.0,124.5" stroke="black" stroke-width="1" fill="none" />
 <polyline points="375.0,112.5 374.5,108.5 373.0,104.5 371.5,101.0 370.0,97.0 369.0,93.5 368.0,89.5 367.0,87.5" stroke="black" stroke-width="1" fill="none" />
 <polyline points="367.0,87.0 368.5,91.0 369.5,95.5 370.5,100.0 372.0,103.5 373.0,107.5 374.5,112.0 378.0,116.0 382.0,125.0" stroke="black" stroke-width="1" fill="none" />
 <polyline points="370.0,151.0 366.5,155.0 362.5,159.0" stroke="black" stroke-width="1" fill="none" />
 <polyline points="350.5,194.0 347.5,198.0 345.0,202.0 341.5,206.0 336.5,210.0 331.0,214.0 324.5,217.5 317.5,221.5" stroke="black" stroke-width="1" fill="none" />
 <polyline points="319.0,222.0 326.0,218.5 332.0,214.5 337.5,210.5 342.0,206.5 345.5,202.5 347.5,199.0 351.0,195.0 347.5,198.5 343.0,204.5 339.0,208.5 335.0,211.5 331.0,214.5 327.5,217.0 323.5,220.0 319.5,222.5 315.5,224.0 311.5,225.0 307.0,225.5 303.0,227.5 308.5,224.5" stroke="black" stroke-width="1" fill="none" />
 <polyline points="303.0,299.0 302.0,303.0 300.5,307.5 299.0,311.5 298.0,316.0 296.5,320.0 295.5,324.0 294.5,326.0 296.5,316.5 300.5,306.0" stroke="black" stroke-width="1" fill="none" />
 <polyline points="304.5,309.5 305.5,307.5 304.5,312.0 303.0,316.0 300.5,320.0 299.5,324.5 296.5,328.0" stroke="black" stroke-width="1" fill="none" />
 <polyline points="297.0,334.5 291.5,338.5 288.0,343.0 285.0,347.0 280.0,351.0 281.0,349.5 284.5,347.0 288.5,341.5 292.5,338.5" stroke="black" stroke-width="1" fill="none" />
 <polyline points="266.0,355.5 264.5,356.0 263.5,356.5 262.5,357.5 261.5,358.0" stroke="black" stroke-width="1" fill="none" />
 <polyline points="260.5,358.5 266.0,357.0 262.5,357.5 258.5,359.0 254.5,359.5 250.5,360.5 246.0,361.0 242.5,361.0 239.0,361.0 235.0,360.5 231.5,360.0 228.0,359.5 223.5,358.5 219.0,357.5 215.0,356.5 211.5,355.0 207.5,352.5 203.0,350.0 199.0,347.0 194.5,344.0 190.5,341.0 186.5,338.0 182.5,334.0 179.0,330.0 175.0,326.0 171.5,322.0 167.0,317.0 163.0,311.5 159.0,306.0 154.5,299.5 150.0,293.5 146.0,287.5 142.0,281.0 138.0,274.0 134.0,266.0 129.5,257.5 125.5,247.0" stroke="black" stroke-width="1" fill="none" />
 <polyline points="82.0,255.0 82.0,259.0 82.0,263.0 82.0,267.0 82.5,271.0" stroke="black" stroke-width="1" fill="none" />
 <polyline points="81.5,282.0 81.0,286.0 81.0,290.0 81.0,294.0 81.5,298.0 81.0,302.0 81.0,306.0 81.0,310.5 80.5,314.5 81.5,318.5 80.5,322.5 80.5,326.5 81.0,331.0 81.0,335.0 81.5,339.0 82.0,343.0 82.0,347.0 81.5,350.5 81.5,355.0 82.0,359.0 82.0,363.0 81.5,367.0 81.0,371.0 80.5,374.5" stroke="black" stroke-width="1" fill="none" />
 <polyline points="83.0,380.5 81.5,384.0 83.0,385.5 80.5,381.5 84.5,376.5 88.5,369.5 92.5,367.5 96.5,368.0 100.5,369.5 104.5,373.5" stroke="black" stroke-width="1" fill="none" />
 <polyline points="105.5,378.5 109.5,378.0 113.5,378.5 117.0,378.0 121.0,379.0" stroke="black" stroke-width="1" fill="none" />
 <polyline points="119.0,382.0 119.5,382.5 120.0,383.0 120.5,383.5 120.5,383.5 121.0,383.5 121.0,384.0 121.0,384.5" stroke="black" stroke-width="1" fill="none" />
 <polyline points="114.5,382.5 114.0,382.0 113.0,382.0 112.0,381.5 111.5,381.5 110.0,381.0" stroke="black" stroke-width="1" fill="none" />
 <polyline points="99.0,384.0 98.5,380.0 97.0,376.0 96.0,374.5 92.0,375.5" stroke="black" stroke-width="1" fill="none" />
 <polyline points="94.0,374.5 92.0,378.5 92.5,382.5" stroke="black" stroke-width="1" fill="none" />
 <polyline points="94.5,383.5 94.0,380.0 94.0,379.0" stroke="black" stroke-width="1" fill="none" />
 <polyline points="93.5,380.0 93.0,383.5" stroke="black" stroke-width="1" fill="none" />
 <polyline points="95.0,384.5 94.5,380.5" stroke="black" stroke-width="1" fill="none" />
 <polyline points="95.5,375.5 98.0,379.0 99.0,383.0" stroke="black" stroke-width="1" fill="none" />
 <polyline points="99.0,372.0 95.5,369.5 91.5,369.5 87.5,375.5" stroke="black" stroke-width="1" fill="none" />
 <polyline points="89.0,370.0 86.5,374.0 86.0,378.5 85.5,382.5" stroke="black" stroke-width="1" fill="none" />
 <polyline points="75.0,379.0 74.0,375.0 73.0,370.5 74.5,366.5 72.5,362.5 73.5,358.5 73.5,354.5 73.5,350.5 73.0,349.0" stroke="black" stroke-width="1" fill="none" />
 <polyline points="71.0,350.5 73.0,354.5 73.0,358.0 73.5,362.0 73.5,366.0 74.0,370.0 74.0,374.0 75.0,378.0" stroke="black" stroke-width="1" fill="none" />
 <polyline points="74.0,360.5 73.5,359.5 73.5,358.5 73.0,359.5" stroke="black" stroke-width="1" fill="none" />
 <polyline points="92.5,368.0 87.5,372.0 86.0,376.0 81.5,380.0 80.0,384.0" stroke="black" stroke-width="1" fill="none" />
 <polyline points="95.5,370.5 100.5,374.5 102.0,378.5 102.5,382.5" stroke="black" stroke-width="1" fill="none" />
 <polyline points="97.5,368.5 103.0,372.0 105.0,376.0 108.5,380.5 106.5,384.5 109.0,380.0 113.0,381.0 117.5,382.5 122.0,381.5 125.5,381.0 126.5,385.0 130.5,384.5" stroke="black" stroke-width="1" fill="none" />
 <polyline points="167.0,385.5 166.5,381.5 166.5,377.5 167.0,373.5" stroke="black" stroke-width="1" fill="none" />
 <polyline points="167.0,373.5 171.0,372.0 174.5,374.5" stroke="black" stroke-width="1" fill="none" />
 <polyline points="174.0,376.5 170.0,375.5" stroke="black" stroke-width="1" fill="none" />
 <polyline points="172.0,375.5 171.5,379.5 171.0,383.5" stroke="black" stroke-width="1" fill="none" />
 <polyline points="175.5,384.0 176.0,380.5 172.5,376.5" stroke="black" stroke-width="1" fill="none" />
 <polyline points="171.5,374.0 177.5,378.0 178.5,381.5 178.5,385.0" stroke="black" stroke-width="1" fill="none" />
 <polyline points="193.0,385.5 193.5,385.5 197.0,385.5" stroke="black" stroke-width="1" fill="none" />
 <polyline points="234.5,301.0 239.0,301.5" stroke="black" stroke-width="1" fill="none" />
 <polyline points="239.5,302.0 240.5,303.0 241.5,303.5 242.5,304.0" stroke="black" stroke-width="1" fill="none" />
 <polyline points="251.5,305.0 248.0,307.0 252.0,305.5" stroke="black" stroke-width="1" fill="none" />
 <polyline points="297.0,326.0 297.5,325.5 299.5,321.5 301.0,317.5 303.0,313.5 304.0,309.5 306.5,305.5" stroke="black" stroke-width="1" fill="none" />
 <polyline points="379.5,304.5 377.0,311.5 378.5,307.5 380.0,303.5" stroke="black" stroke-width="1" fill="none" />
 <polyline points="401.5,303.0 402.0,307.0 401.5,311.0 401.0,315.0 401.0,318.5 401.0,323.0 401.5,327.0 402.5,331.0 403.0,335.5 404.5,339.5 405.0,343.5 406.0,348.0 406.5,351.5 407.5,355.5 408.0,359.0 408.5,363.0 409.5,367.0 411.0,371.0 411.5,374.5 413.5,378.5 414.5,382.5" stroke="black" stroke-width="1" fill="none" />
 <polyline points="412.0,379.0 412.0,377.5 411.5,377.0 411.5,376.0 411.0,375.0" stroke="black" stroke-width="1" fill="none" />
 <polyline points="437.0,371.0 436.5,367.0" stroke="black" stroke-width="1" fill="none" />
 <polyline points="437.5,362.0 438.0,366.0 438.5,370.0 439.5,374.0 440.0,378.0 440.5,382.5" stroke="black" stroke-width="1" fill="none" />
 <polyline points="454.0,384.5 456.5,380.5" stroke="black" stroke-width="1" fill="none" />
 <polyline points="457.5,374.5 453.0,371.0" stroke="black" stroke-width="1" fill="none" />
 <polyline points="450.0,365.5 449.5,365.0 449.0,363.5 449.0,362.0 449.0,361.5" stroke="black" stroke-width="1" fill="none" />
 <polyline points="447.0,355.5 443.0,350.5" stroke="black" stroke-width="1" fill="none" />
 <polyline points="437.0,348.5 436.0,348.0 436.0,348.0 435.5,347.0 435.0,345.5 434.5,344.5" stroke="black" stroke-width="1" fill="none" />
 <polyline points="445.5,338.0 449.5,340.0 453.0,344.0 457.0,350.0 461.0,356.0 463.5,361.0 467.5,367.0 472.0,377.0" stroke="black" stroke-width="1" fill="none" />
 <polyline points="476.5,382.0 477.5,383.0" stroke="black" stroke-width="1" fill="none" />
 <polyline points="463.0,364.0 462.5,363.0 462.5,362.5 462.5,362.0" stroke="black" stroke-width="1" fill="none" />
 <polyline points="480.5,384.5 476.5,382.5 473.5,382.5 471.5,378.5 469.5,374.5 468.0,370.5 466.5,366.5 464.5,362.5 461.5,357.5 458.5,353.5 456.0,349.5 453.5,345.5 450.0,342.0 443.0,337.0 442.5,333.0" stroke="black" stroke-width="1" fill="none" />
 <polyline points="438.5,328.5 439.0,333.0 440.0,337.5 440.5,344.5 440.5,348.5 443.0,352.5 446.5,357.0 447.0,361.0 449.0,365.0 450.5,369.0 451.5,373.0 456.5,375.0 458.5,379.0 459.0,383.0 456.5,382.5" stroke="black" stroke-width="1" fill="none" />
 <polyline points="505.0,379.5 509.0,378.0" stroke="black" stroke-width="1" fill="none" />
 <polyline points="508.5,379.5 509.5,384.0" stroke="black" stroke-width="1" fill="none" />
 <polyline points="510.5,384.5 510.0,383.5 509.5,382.5 508.5,382.5 507.5,381.5 507.0,382.0 506.0,381.5" stroke="black" stroke-width="1" fill="none" />
 <polyline points="420.0,347.5 419.5,346.5 419.0,345.0 418.5,344.0" stroke="black" stroke-width="1" fill="none" />
 <polyline points="415.5,339.5 416.5,343.5 417.5,347.5 418.0,351.5" stroke="black" stroke-width="1" fill="none" />
 <polyline points="410.5,340.5 411.5,345.0 412.0,348.5 413.0,352.5 414.5,356.0 415.5,360.0 416.0,363.5 416.5,367.5 417.5,371.5 418.0,375.0" stroke="black" stroke-width="1" fill="none" />
 <polyline points="401.0,349.5 399.5,345.5 399.5,341.5 398.0,339.5" stroke="black" stroke-width="1" fill="none" />
 <polyline points="398.5,341.0 400.0,344.5 401.0,348.5 402.5,352.5" stroke="black" stroke-width="1" fill="none" />
 <polyline points="398.5,345.0 397.5,343.5 397.0,342.0 396.0,340.5 395.5,339.0" stroke="black" stroke-width="1" fill="none" />
 <polyline points="395.0,335.0 396.0,339.0 397.0,342.5 398.5,346.5 401.0,347.5" stroke="black" stroke-width="1" fill="none" />
 <polyline points="409.5,336.0 410.0,340.0 411.0,343.5 411.5,348.0 412.0,352.0 413.0,356.5 413.5,360.5 415.0,365.0 415.5,369.5 415.5,372.0" stroke="black" stroke-width="1" fill="none" />
 <polyline points="383.5,358.5 384.0,354.5 384.5,350.5" stroke="black" stroke-width="1" fill="none" />
 <polyline points="384.5,360.0 382.5,359.5 382.5,356.0 383.5,352.0 383.0,348.0 383.0,344.0 383.5,340.0" stroke="black" stroke-width="1" fill="none" />
 <polyline points="402.5,295.0 403.0,299.0 403.5,303.0 404.0,307.5 404.5,311.5 404.5,315.5 404.5,320.0 405.0,324.0 406.0,328.0 405.5,332.0 405.5,336.0 406.5,340.0 407.0,343.5 408.0,347.0 408.5,350.5 409.5,354.5 410.5,358.5 411.0,363.0 412.5,367.0 413.5,371.0 414.5,375.0 416.0,379.0 417.0,382.5" stroke="black" stroke-width="1" fill="none" />
 <polyline points="419.0,306.0 419.5,305.0 420.0,305.0 420.5,305.5 420.5,305.5" stroke="black" stroke-width="1" fill="none" />
 <polyline points="422.0,301.0 423.0,305.0 423.0,308.5 423.5,312.0 424.0,316.0 424.5,320.0 424.5,324.0 424.5,327.5 425.0,331.5 426.0,335.5 426.0,339.5 426.5,343.5 426.0,347.5 425.5,353.0 426.0,357.0 426.0,360.5 426.5,364.5" stroke="black" stroke-width="1" fill="none" />
 <polyline points="456.5,345.5 453.0,341.5 449.0,337.5 445.5,333.5 441.5,329.5 438.5,325.5 437.5,321.5 438.0,317.5 437.5,313.5 438.0,309.0 437.5,304.5 437.5,300.5 437.0,296.0 436.5,292.0 435.5,288.0" stroke="black" stroke-width="1" fill="none" />
 <polyline points="430.0,283.0 430.5,278.5" stroke="black" stroke-width="1" fill="none" />
 <polyline points="427.0,273.0 427.5,277.0 427.0,281.0 427.5,285.5 426.5,289.0 426.5,293.0 426.5,297.0 426.5,301.0 427.0,304.5 427.5,308.0 428.0,312.0 427.5,316.0 428.0,320.0 428.5,324.5 429.0,328.5 429.5,332.5 430.0,336.5 430.5,340.0 431.5,343.5 431.5,347.5" stroke="black" stroke-width="1" fill="none" />
 <polyline points="419.5,348.0 418.5,344.0 418.0,340.5 418.0,336.5 417.5,332.5 417.0,328.5 416.5,324.5 416.0,320.5 415.5,316.5 415.0,312.5 414.5,308.5 414.5,304.5 414.5,300.5 414.5,296.0 415.0,291.5 415.5,287.5 415.0,283.5" stroke="black" stroke-width="1" fill="none" />
 <polyline points="435.5,267.5 434.5,266.0 434.0,264.5 433.5,264.0 433.0,263.0" stroke="black" stroke-width="1" fill="none" />
 <polyline points="428.0,251.5 427.5,255.5 428.5,259.5 429.0,263.5 428.5,267.5 428.5,271.5 428.5,275.5 429.5,279.0 428.0,283.0 429.0,287.0 428.5,291.0 429.0,295.0 428.5,299.0 429.0,302.5 429.5,306.5 430.5,310.5 431.0,314.5 431.5,319.0 431.5,323.0 432.5,327.0 432.0,331.0 433.0,335.0 433.5,339.0 435.0,343.0 435.0,347.0 436.0,351.0 437.0,354.5" stroke="black" stroke-width="1" fill="none" />
 <polyline points="404.0,234.5 404.5,233.0 405.5,231.5 406.0,230.5" stroke="black" stroke-width="1" fill="none" />
 <polyline points="406.0,219.5 405.5,223.5 406.0,227.5 405.5,231.5 404.5,235.5 404.0,239.5 403.5,243.5 404.0,248.0 404.0,252.0 403.5,256.0 402.5,260.5 403.0,264.5 403.0,268.5 402.5,272.5 401.5,276.5 401.5,280.5 402.0,284.5" stroke="black" stroke-width="1" fill="none" />
 <polyline points="419.0,227.0 419.5,231.0 418.5,235.0 418.0,239.0 418.5,243.0 418.0,247.0 418.5,251.0 418.5,255.5 418.0,260.0 418.5,264.5 418.0,268.5 418.0,273.0 417.5,276.5 417.5,280.5 417.5,284.0 418.0,288.0 418.0,291.5 419.0,295.5 419.0,299.5 419.0,303.0 420.5,307.0 420.5,311.0 419.0,315.5 419.0,320.0 419.0,324.0 418.5,328.0 419.5,332.0 420.0,336.0 420.0,340.0 421.0,343.5 421.5,347.5 422.5,351.5 423.0,355.5 423.5,359.5 423.5,363.5" stroke="black" stroke-width="1" fill="none" />
 <polyline points="469.5,185.0 473.5,186.0 477.5,185.5 482.0,185.0 482.5,188.5" stroke="black" stroke-width="1" fill="none" />
 <polyline points="481.5,187.0 483.5,191.0 486.0,192.0 490.5,191.0 492.5,185.5" stroke="black" stroke-width="1" fill="none" />
 <polyline points="489.5,190.5 491.5,186.0 485.5,186.0 488.0,184.0 486.0,183.0 481.5,183.5 478.0,183.5 475.5,182.0" stroke="black" stroke-width="1" fill="none" />
 <polyline points="471.5,180.5 468.0,185.0 469.5,182.0 473.5,180.5 477.5,180.0 481.5,177.0 486.0,174.5 490.5,176.0 491.0,178.0" stroke="black" stroke-width="1" fill="none" />
 <polyline points="495.0,179.0 497.0,180.5 496.5,184.5 498.0,189.0" stroke="black" stroke-width="1" fill="none" />
 <polyline points="497.0,184.5 496.5,180.5" stroke="black" stroke-width="1" fill="none" />
 <polyline points="491.5,177.5 489.5,173.5" stroke="black" stroke-width="1" fill="none" />
 <polyline points="484.0,173.0 482.5,177.0" stroke="black" stroke-width="1" fill="none" />
 <polyline points="498.5,170.5 499.0,170.5" stroke="black" stroke-width="1" fill="none" />
 <polyline points="501.0,171.5 500.0,175.5 495.5,179.0 495.0,183.0 496.0,187.0 499.0,190.5 500.5,192.5" stroke="black" stroke-width="1" fill="none" />
 <polyline points="503.0,191.0 503.5,187.0 503.5,183.5 503.5,179.5 504.0,175.5 503.0,171.5" stroke="black" stroke-width="1" fill="none" />
 <polyline points="496.5,151.0 496.0,147.0 499.5,145.5 495.5,147.0" stroke="black" stroke-width="1" fill="none" />
 <polyline points="499.0,144.5 496.0,148.5 498.5,150.5 501.0,145.0 502.5,149.5" stroke="black" stroke-width="1" fill="none" />
 <polyline points="493.0,142.5 491.0,147.0 492.5,151.0 491.0,155.5" stroke="black" stroke-width="1" fill="none" />
 <polyline points="490.5,153.5 489.0,149.5 489.5,146.0 491.0,143.5 487.0,145.0" stroke="black" stroke-width="1" fill="none" />
 <polyline points="488.5,142.0 487.5,146.5 487.5,150.5 486.5,154.5 486.0,153.5 490.5,155.5" stroke="black" stroke-width="1" fill="none" />
 <polyline points="485.5,151.0 486.5,148.5 486.5,144.5 489.0,144.5 491.5,143.5" stroke="black" stroke-width="1" fill="none" />
 <polyline points="424.5,43.5 424.0,42.0 423.5,41.5 423.5,40.0 423.0,38.5" stroke="black" stroke-width="1" fill="none" />
 <polyline points="413.0,34.0 413.5,38.0 413.5,42.0 415.0,46.0 416.0,50.5 417.0,54.0 418.0,58.0 418.5,62.0 419.0,66.0" stroke="black" stroke-width="1" fill="none" />
 <polyline points="397.5,73.0 397.0,72.5 397.0,72.0 396.5,72.0 395.5,71.5 394.5,71.0 394.0,71.0" stroke="black" stroke-width="1" fill="none" />
 <polyline points="393.0,70.5 396.0,74.0 397.0,78.0 397.5,82.0 398.0,86.5 398.5,91.0 399.0,94.5 399.5,98.5 400.0,102.5 401.0,106.5 401.5,110.5 402.5,114.5 403.0,118.5 404.0,122.5 405.0,126.5 405.5,130.5 406.5,134.5 407.5,138.5 408.0,142.5 408.5,146.5 409.5,150.0 409.0,154.5 409.5,158.0 410.5,162.5 410.5,167.0 411.0,171.0" stroke="black" stroke-width="1" fill="none" />
 <polyline points="386.5,128.5 384.5,124.0 383.5,120.0 381.5,116.0 379.5,110.0 377.5,106.0 377.0,102.0 376.5,98.0 375.0,94.5 374.0,90.5" stroke="black" stroke-width="1" fill="none" />
 <polyline points="386.5,77.5 388.0,81.5 388.0,85.5 389.0,89.0 389.0,92.5 390.0,96.0 390.5,99.5" stroke="black" stroke-width="1" fill="none" />
 <polyline points="343.5,73.5 343.0,72.0 342.5,71.0 342.0,70.0 341.5,69.5 341.0,68.5 340.0,66.5" stroke="black" stroke-width="1" fill="none" />
 <polyline points="341.5,66.5 343.0,70.5 344.5,74.5" stroke="black" stroke-width="1" fill="none" />
 <polyline points="336.5,86.5 332.5,88.0 328.5,87.5 324.5,88.5 322.0,91.0 325.5,86.5" stroke="black" stroke-width="1" fill="none" />
 <polyline points="328.5,107.5 324.5,107.5 320.5,108.0 316.5,108.5 312.5,109.0" stroke="black" stroke-width="1" fill="none" />
 <polyline points="315.5,113.0 310.5,117.0 309.0,121.0 308.0,124.5 308.0,128.5 307.5,132.5 307.5,136.5 308.0,141.0 309.0,145.0 311.0,149.5 316.0,153.5 323.0,157.0" stroke="black" stroke-width="1" fill="none" />
 <polyline points="306.0,161.5 308.0,157.5 306.5,153.5 305.5,149.5 304.5,145.0 304.0,141.0 303.5,137.5 303.0,133.5 302.5,129.5 302.0,125.5 301.0,121.5 297.0,117.0" stroke="black" stroke-width="1" fill="none" />
 <polyline points="291.0,118.0 286.0,122.0 282.0,125.5 278.0,129.5 275.0,133.5 272.5,137.5 266.5,141.0 263.5,144.5 265.0,142.5 269.0,138.5 273.0,136.0 277.0,130.5 281.0,126.0 285.5,122.5 289.5,119.0 293.5,117.5 297.5,119.0 301.5,123.5" stroke="black" stroke-width="1" fill="none" />
 <polyline points="287.0,103.5 283.5,97.5 280.0,94.0 276.0,91.0" stroke="black" stroke-width="1" fill="none" />
 <polyline points="274.5,89.5 279.0,93.5 283.0,97.5 285.5,101.5 287.0,106.0 286.5,110.0 285.0,114.5 283.0,118.5 280.0,122.5 276.5,127.0 270.0,131.0" stroke="black" stroke-width="1" fill="none" />
 <polyline points="269.5,133.0 270.5,132.0 271.5,132.0 273.0,131.5" stroke="black" stroke-width="1" fill="none" />
 <polyline points="262.5,99.0 259.0,96.5 255.0,94.0" stroke="black" stroke-width="1" fill="none" />
 <polyline points="254.5,90.0 258.5,87.5 262.5,88.5 261.0,92.5 261.5,96.0" stroke="black" stroke-width="1" fill="none" />
 <polyline points="262.5,91.5 259.0,89.0" stroke="black" stroke-width="1" fill="none" />
 <polyline points="256.5,88.0 255.0,92.0 258.5,96.0 264.5,99.5" stroke="black" stroke-width="1" fill="none" />
 <polyline points="263.5,90.0 260.0,94.5 263.5,97.0 267.5,98.5 272.0,96.5 273.5,93.5 270.5,97.5 275.0,99.5 277.0,97.5" stroke="black" stroke-width="1" fill="none" />
 <polyline points="276.5,98.0 269.5,91.0 268.5,90.5" stroke="black" stroke-width="1" fill="none" />
 <polyline points="263.0,88.5 261.0,92.5 262.0,96.5" stroke="black" stroke-width="1" fill="none" />
 <polyline points="245.0,88.5 241.0,87.0" stroke="black" stroke-width="1" fill="none" />
 <polyline points="242.0,87.0 248.0,91.0" stroke="black" stroke-width="1" fill="none" />
 <polyline points="248.5,79.5 248.0,79.0 247.5,79.0 247.0,79.0 246.5,78.5" stroke="black" stroke-width="1" fill="none" />
 <polyline points="244.5,75.0 255.0,79.5" stroke="black" stroke-width="1" fill="none" />
 <polyline points="257.5,76.5 258.5,76.5 260.5,76.5 261.0,77.0 261.5,77.0" stroke="black" stroke-width="1" fill="none" />
 <polyline points="250.0,80.5 246.0,80.0 241.0,77.5 236.5,76.5 232.5,76.0 228.0,76.0" stroke="black" stroke-width="1" fill="none" />
 <polyline points="227.0,75.0 231.0,74.5 235.0,74.5 239.5,75.5 244.0,76.0 251.0,75.0 261.0,78.5 264.0,82.5" stroke="black" stroke-width="1" fill="none" />
 <polyline points="259.0,79.5 249.0,75.5 243.0,79.0 239.0,78.5 235.0,78.5 231.0,78.5 227.0,86.0" stroke="black" stroke-width="1" fill="none" />
 <polyline points="220.5,70.0 225.0,68.0 229.0,70.0 233.5,71.0 238.0,72.5 242.0,73.5 246.0,75.0 250.0,75.5 254.0,77.5 258.0,79.0 262.5,81.0" stroke="black" stroke-width="1" fill="none" />
 <polyline points="262.0,81.0 258.0,77.0 247.0,73.0" stroke="black" stroke-width="1" fill="none" />
 <polyline points="235.0,68.5 239.0,68.5 243.5,64.0 247.5,61.5 251.5,59.5 255.5,58.0 259.5,59.5 264.0,61.5 268.0,65.0 272.5,69.5 276.5,73.0 280.5,76.5 284.5,80.0" stroke="black" stroke-width="1" fill="none" />
 <polyline points="282.5,79.0 277.5,75.0 272.0,71.0 268.5,67.0 263.5,63.5 256.0,59.5" stroke="black" stroke-width="1" fill="none" />
 <polyline points="255.5,58.5 246.0,62.5 242.0,66.5" stroke="black" stroke-width="1" fill="none" />
 <polyline points="234.0,63.0 239.5,55.5 243.5,52.0 248.0,48.0 251.5,43.5 252.5,43.0 249.0,47.0 245.0,51.0 240.0,55.0" stroke="black" stroke-width="1" fill="none" />
 <polyline points="249.5,56.0 244.0,59.5 240.0,63.5 241.0,62.0 245.0,57.5 249.0,54.5 253.0,54.0 257.0,54.5 261.0,55.0 265.0,55.0 269.0,56.5 273.5,59.0 277.5,61.5 281.5,65.0 285.5,68.0 291.0,71.0 295.0,74.0 299.0,77.0" stroke="black" stroke-width="1" fill="none" />
 <polyline points="285.5,114.0 281.5,120.0 277.5,124.5 273.5,128.5 269.5,131.0 265.0,131.5 261.0,132.0 257.5,131.5 254.0,130.5 250.5,130.0 246.5,129.0 242.5,127.0 238.5,125.0 234.5,122.5 230.5,119.5 227.0,113.0" stroke="black" stroke-width="1" fill="none" />
 <polyline points="223.0,111.5 227.0,118.5 231.5,123.0 235.5,126.0 239.5,128.5 243.5,131.0 247.5,132.5 251.0,134.0 255.0,134.5 259.0,135.5 263.0,135.5 267.0,135.0 271.0,134.0 275.0,133.0" stroke="black" stroke-width="1" fill="none" />
 <polyline points="245.0,129.0 238.0,125.0 232.0,121.5 228.0,117.5 226.0,113.5 225.0,109.5 225.0,105.5 225.0,101.5 225.5,97.0 226.0,92.5 226.5,88.5 227.5,84.5 228.5,80.5 227.0,74.5 226.0,68.5" stroke="black" stroke-width="1" fill="none" />
 <polyline points="225.0,67.0 229.0,67.5" stroke="black" stroke-width="1" fill="none" />
 <polyline points="227.5,69.0 228.0,64.0 224.0,66.0 220.0,69.0" stroke="black" stroke-width="1" fill="none" />
 <polyline points="221.5,66.5 219.5,70.5 219.5,74.0 219.0,77.5 219.5,81.5 220.0,85.5 220.0,89.5 219.0,93.0 219.0,97.0 219.0,101.5 219.0,105.5 219.5,109.5 219.5,113.5 219.0,117.5 219.5,122.0 218.5,126.0 218.0,130.0 217.5,134.0 217.0,138.0 216.5,142.0 216.0,146.0 216.0,150.0 216.0,154.0 216.0,157.5 216.5,161.5 217.0,165.5 217.5,169.5 218.5,173.5 219.5,177.5 220.5,181.5 222.0,185.5 223.5,189.5 223.5,193.5 222.5,197.5 221.0,201.5 219.5,206.0 218.0,210.0 215.5,211.5 219.5,207.5 224.0,196.5" stroke="black" stroke-width="1" fill="none" />
 <polyline points="130.0,200.5 126.0,200.5 122.0,200.5 118.0,203.0" stroke="black" stroke-width="1" fill="none" />
 <polyline points="121.0,200.5 118.0,204.5 117.5,208.5 118.0,212.5 119.0,216.5 120.0,220.0 121.5,224.0 122.0,228.0 123.5,232.0 124.5,236.5 125.0,240.5 126.5,244.5 127.5,248.0 129.0,252.0 130.5,256.0 132.5,260.5 134.5,264.5 136.0,269.0 137.5,273.0 139.5,277.0 142.0,281.0 144.0,285.0 146.5,289.0 149.5,293.0 152.5,297.0 155.5,301.5 158.0,305.5 161.0,309.5 164.0,313.5 166.5,317.5 170.5,321.5 173.5,325.5 177.5,329.5 181.5,333.5 185.5,337.0 190.5,341.0 195.5,345.0 201.0,348.5 206.5,352.5 214.0,356.0" stroke="black" stroke-width="1" fill="none" />
 <polyline points="40.5,385.5 36.5,386.0 32.5,386.0 28.0,385.5 23.5,386.0 19.5,385.5 15.5,385.5 13.5,385.5" stroke="black" stroke-width="1" fill="none" />
 <polyline points="2.5,379.0 7.0,378.5 11.0,377.5 15.0,377.0 19.0,378.0 23.0,378.0 27.0,380.0 31.0,381.5 35.0,383.0" stroke="black" stroke-width="1" fill="none" />
 <polyline points="15.0,363.5 14.5,364.0 14.0,365.0 13.5,366.0 13.0,366.5 12.0,368.0 11.5,368.5 10.5,369.5" stroke="black" stroke-width="1" fill="none" />
 <polyline points="11.0,363.5 7.5,364.0 3.0,365.0" stroke="black" stroke-width="1" fill="none" />
 <polyline points="1.5,361.5 6.0,361.5 10.5,361.5 15.0,360.0" stroke="black" stroke-width="1" fill="none" />
 <polyline points="19.5,357.5 24.0,355.5 20.5,357.5 14.0,358.0 10.0,358.5 6.0,358.5 1.5,358.5" stroke="black" stroke-width="1" fill="none" />
 <polyline points="12.0,372.5 12.0,368.5 13.5,364.0 14.0,360.0 18.5,357.0 24.5,353.0" stroke="black" stroke-width="1" fill="none" />
 <polyline points="27.5,328.0 29.0,324.0 28.0,320.0 24.0,325.5" stroke="black" stroke-width="1" fill="none" />
 <polyline points="26.5,329.5 28.0,325.0 28.5,321.0" stroke="black" stroke-width="1" fill="none" />
 <polyline points="33.5,315.5 34.5,311.5 36.0,307.5 36.5,304.0 38.0,300.0 39.0,296.5 40.5,292.5 42.0,289.0 43.0,285.0 45.5,281.0 47.5,277.0 41.0,280.5 37.0,281.5 33.0,283.0 29.5,283.5 26.0,283.5 22.0,283.0 18.5,283.0 14.5,282.5 11.0,282.0 7.0,281.5 3.0,281.0" stroke="black" stroke-width="1" fill="none" />
 <polyline points="2.0,277.0 3.5,277.0 4.0,277.5 5.5,278.0 6.5,278.0 7.5,278.5 8.5,279.5" stroke="black" stroke-width="1" fill="none" />
 <polyline points="2.5,276.0 6.5,277.5 10.5,279.5 14.5,280.5 18.5,281.0 22.5,281.0 26.5,281.0 30.0,280.5 33.5,280.0 37.5,278.0 41.5,274.5" stroke="black" stroke-width="1" fill="none" />
 <polyline points="47.5,277.0 45.5,281.0 42.0,285.5 41.0,289.0 39.5,293.0 38.0,296.5 37.5,301.0 36.5,305.5 36.0,309.5 35.0,313.5 34.0,317.5" stroke="black" stroke-width="1" fill="none" />
 <polyline points="28.0,309.5 29.0,313.0 29.0,317.0 28.5,320.5 25.0,324.0 23.5,327.5 23.5,331.5 25.0,332.5" stroke="black" stroke-width="1" fill="none" />
 <polyline points="24.5,333.0 23.5,329.0 23.5,325.5 26.0,321.5 27.5,317.5 28.0,313.0 27.5,309.0 25.5,307.0 22.0,307.0 17.5,306.5 14.0,307.0 10.0,307.5 6.5,309.0 2.5,309.5" stroke="black" stroke-width="1" fill="none" />
 <polyline points="1.5,305.5 5.5,305.5 10.0,304.5 14.0,304.0 18.0,303.5 22.0,302.5 26.0,301.5 30.5,300.5" stroke="black" stroke-width="1" fill="none" />
 <polyline points="32.0,299.0 30.5,305.0 32.5,305.5 32.5,309.0 32.5,313.0 35.5,310.0" stroke="black" stroke-width="1" fill="none" />
 <polyline points="38.0,298.5 42.0,288.0 45.5,281.0" stroke="black" stroke-width="1" fill="none" />
 <polyline points="61.0,263.0 61.0,267.0 61.0,271.0 61.5,274.5 61.0,278.5 61.0,282.5 61.5,286.5 61.5,290.5 62.0,294.5 62.0,298.5 62.5,302.5 63.0,306.5 63.5,310.5 64.0,314.5 64.0,318.5 64.5,323.0 64.5,327.0 66.0,331.0 66.0,335.0 67.0,339.5 67.0,343.5 68.0,347.5 68.5,351.0 69.0,355.0 69.5,359.0 69.5,362.5" stroke="black" stroke-width="1" fill="none" />
 <polyline points="28.0,304.0 29.5,298.5 25.5,299.0 21.5,300.0 17.5,300.0 14.0,300.5 10.0,300.5 6.0,300.5 2.0,300.5" stroke="black" stroke-width="1" fill="none" />
 <polyline points="56.0,290.5 57.0,286.5 56.5,283.0 57.5,279.0 58.5,275.0 59.0,271.0 59.0,267.5 59.0,263.5 58.5,260.0 58.5,256.0 59.0,252.5" stroke="black" stroke-width="1" fill="none" />
 <polyline points="40.0,276.5 43.5,272.5 46.0,268.5 47.5,264.5 47.5,260.5 47.0,256.5 45.0,252.5 41.5,248.5 36.0,244.0 30.5,240.0 28.0,236.0" stroke="black" stroke-width="1" fill="none" />
 <polyline points="16.0,235.5 13.5,239.5 8.0,243.5 4.0,246.5 7.5,244.0 11.0,242.5 15.5,236.5 19.5,236.0 23.5,235.5 28.0,236.0 32.0,242.0 36.0,244.0 40.0,246.5 44.0,250.0" stroke="black" stroke-width="1" fill="none" />
 <polyline points="81.5,207.0 78.5,210.0 74.5,213.5 70.5,218.5 66.5,225.0 62.5,233.0 58.5,241.0 55.0,252.0 50.5,263.5 46.5,273.5 48.5,270.0 49.5,266.0 50.5,261.5 52.0,257.5 53.5,253.0 55.0,249.0 57.0,245.0 58.5,241.0 60.5,237.0 61.5,233.0 63.5,229.0 64.5,225.0 66.5,221.0 69.0,217.0 72.5,213.0 77.0,208.5 82.0,204.5 83.5,200.0 82.5,196.5 82.0,192.5 81.0,188.5 81.0,184.5 80.0,180.5 78.5,177.0 78.5,173.0 77.5,169.5 77.0,165.5 76.0,161.5 75.5,157.5 75.0,155.0 71.0,153.5 66.5,153.0 62.5,153.0 58.5,153.0 54.5,153.5 50.5,153.0 46.5,153.0 42.5,152.5 39.0,152.5 34.5,152.0 30.5,152.0 26.5,152.0 23.0,151.5 19.0,151.5 15.0,151.5 11.5,151.5 7.5,151.0 4.0,151.0" stroke="black" stroke-width="1" fill="none" />
 <polyline points="72.5,155.5 75.0,159.5 75.5,163.5 76.5,167.0 77.5,171.0 78.0,175.0 79.0,179.0 79.5,183.0 80.5,187.0 80.5,191.0 81.5,195.0 82.5,199.0 82.5,203.5 80.0,207.0 75.0,211.0 71.5,214.5 69.0,219.0 67.0,223.5 65.5,227.5 64.0,231.5 62.0,235.5 60.0,239.5 58.5,243.5 56.5,247.5 55.0,251.5 53.0,255.0 51.5,259.0 50.0,263.0 48.5,266.5 47.0,270.5 46.0,274.5 44.0,279.0" stroke="black" stroke-width="1" fill="none" />
 <polyline points="121.0,199.5 116.0,203.0 120.0,199.0 124.5,198.5 128.5,198.5 133.0,199.0 134.0,200.5" stroke="black" stroke-width="1" fill="none" />
 <polyline points="212.5,67.0 216.5,56.0 220.5,48.0 224.5,41.5 228.5,35.0 232.5,27.0 230.0,28.0" stroke="black" stroke-width="1" fill="none" />
 <polyline points="230.5,25.5 230.0,25.5 235.5,18.0 240.0,11.5 244.0,5.0 242.5,5.5" stroke="black" stroke-width="1" fill="none" />
 <polyline points="243.5,5.0 246.5,3.0 244.5,6.5 241.5,10.5 239.0,14.5 235.5,18.0 233.0,22.0 232.0,25.5 229.5,29.0 227.5,32.5 225.0,36.5 223.0,40.5 220.5,44.5 218.5,48.5 216.5,53.0 214.5,57.0 213.0,61.5 212.0,65.5 211.5,69.5 211.0,74.0 210.5,78.0 210.0,82.0 208.5,86.0 208.0,90.0 207.0,94.0 206.0,98.5 205.0,102.0 204.5,106.5 203.5,110.0 203.0,114.0 203.0,118.0 202.0,122.0 201.5,126.0 200.5,130.0 200.5,134.0 200.0,138.0 200.0,142.0 200.0,146.0 200.0,150.0 200.0,154.0 200.0,158.5 200.5,162.5 201.0,166.0 201.5,170.5 202.0,174.5 202.0,178.5 203.0,182.5 203.5,186.0 203.5,190.0 204.0,193.5 204.5,197.5 202.0,201.5" stroke="black" stroke-width="1" fill="none" />
 <polyline points="248.0,132.5 239.0,128.5 232.0,124.5 227.5,120.5 224.5,116.5 223.0,113.0 222.0,109.0 222.0,105.0 222.0,101.0 222.5,96.5 222.5,92.5 222.5,88.5 222.5,84.5 223.0,80.0 223.0,76.5 224.0,72.5 221.0,72.0 223.5,68.0" stroke="black" stroke-width="1" fill="none" />
 <polyline points="227.5,65.5 232.0,70.0 232.5,70.0 236.5,71.0 241.0,70.5 245.0,71.5 248.5,72.5 252.5,73.0 256.5,74.5 260.5,76.0 264.5,76.5 268.5,77.5 272.5,80.0 276.5,83.0 281.0,88.0 285.0,91.5 289.0,97.0 293.0,101.5 296.5,105.0 300.5,108.0 304.5,108.5 308.5,107.5 312.5,104.5 316.5,102.5 313.0,104.5 307.0,110.5 311.0,110.0 315.5,109.5 319.5,109.0 323.5,108.5 327.5,108.0" stroke="black" stroke-width="1" fill="none" />
 <polyline points="330.5,43.0 326.5,35.5 322.5,29.0" stroke="black" stroke-width="1" fill="none" />
 <polyline points="321.5,28.5 321.5,33.0 323.5,37.0 325.5,41.5 328.5,45.5 330.5,50.0" stroke="black" stroke-width="1" fill="none" />
 <polyline points="328.5,45.0 324.5,37.5 320.0,29.5" stroke="black" stroke-width="1" fill="none" />
 <polyline points="322.0,31.0 324.0,35.0 326.5,39.0 328.5,42.5" stroke="black" stroke-width="1" fill="none" />
 <polyline points="332.5,18.5 328.5,14.0" stroke="black" stroke-width="1" fill="none" />
 <polyline points="325.5,11.5 328.5,15.5 330.5,19.5" stroke="black" stroke-width="1" fill="none" />
 <polyline points="312.5,5.0 308.5,2.0" stroke="black" stroke-width="1" fill="none" />
 <polyline points="308.0,1.0 311.0,5.0" stroke="black" stroke-width="1" fill="none" />
 <polyline points="307.5,6.5 303.5,4.5" stroke="black" stroke-width="1" fill="none" />
 <polyline points="303.5,2.0 310.0,6.0" stroke="black" stroke-width="1" fill="none" />
 <polyline points="277.0,4.0 273.0,8.0 268.5,12.5 264.5,16.5 260.5,20.0 256.5,26.0 257.0,25.5 258.5,21.0 262.5,17.5 266.0,14.0 270.0,10.0 274.0,6.0 277.0,2.0" stroke="black" stroke-width="1" fill="none" />
 <polyline points="238.0,9.5 235.0,13.5 233.0,17.0 233.0,16.0 237.0,9.5" stroke="black" stroke-width="1" fill="none" />
 <polyline points="253.0,41.5 249.5,45.5 245.0,49.5 241.0,53.5 236.5,57.5 233.0,63.0 233.5,67.0 239.0,71.5 243.5,73.0 247.5,74.0 252.0,76.0 255.5,77.5 259.5,78.5 263.5,80.5 272.5,81.5 277.0,85.5 280.0,89.0 285.0,92.5 288.0,96.5 291.0,100.0 295.0,104.0" stroke="black" stroke-width="1" fill="none" />
 <polyline points="299.5,77.0 294.0,73.0 288.0,70.5 282.5,66.5 278.5,62.5 271.0,58.5 262.5,54.5" stroke="black" stroke-width="1" fill="none" />
 <polyline points="264.5,42.5 259.0,46.5 254.5,50.5 252.5,53.0 256.5,49.0 260.5,45.0 265.0,42.5" stroke="black" stroke-width="1" fill="none" />
 <polyline points="409.0,2.5 410.5,6.5 413.0,10.5 415.0,14.0 417.0,18.5 418.5,22.5 420.5,26.5 421.5,30.5 422.5,34.5 423.0,38.0 425.5,42.0 426.5,46.0 427.5,50.5 427.0,55.0 427.0,58.5 427.5,62.5 427.5,67.0 428.0,71.0 428.5,75.0 429.5,78.5 429.0,82.5 429.5,86.5 429.5,90.5 430.0,94.5 430.0,98.5 430.5,103.0 431.0,107.0 431.5,111.0 432.5,115.5 433.5,120.0 434.0,123.5 434.0,128.0 434.0,132.0 432.5,136.0 431.5,140.0 431.0,144.0 431.0,147.5 431.0,151.5 431.5,155.0 432.0,159.0 432.0,163.0 432.0,167.0 432.0,170.5 432.0,174.5 432.5,178.0 432.5,182.0 431.5,186.0 431.5,190.0 431.5,194.0 431.5,197.5 432.5,201.5 432.5,205.5 432.5,210.0 432.0,214.0 432.5,218.5 433.5,222.5 432.5,226.5 433.5,230.0 434.5,234.0 433.5,237.5 433.5,241.5 434.0,245.5 434.5,250.0 435.5,253.5 436.5,258.0 435.5,263.0 437.0,267.0 437.5,271.0 438.0,275.0 437.5,279.0 436.5,283.0 437.5,287.0 434.5,291.0 434.5,295.5 435.0,299.5 434.5,303.5 435.0,307.5 435.5,311.5 436.0,315.0 436.5,319.0 437.0,323.5 437.0,327.0 442.5,328.5 446.5,333.5 450.5,338.0 454.0,343.5 458.0,348.0" stroke="black" stroke-width="1" fill="none" />
 <polyline points="439.0,18.5 439.5,14.5 441.5,11.0 445.5,7.0 447.0,6.0 443.0,9.5 439.0,14.0" stroke="black" stroke-width="1" fill="none" />
 <polyline points="448.0,5.0 443.5,9.0 439.5,12.5 439.0,16.5 439.0,18.5 443.0,20.0 446.5,19.5 450.0,19.0 454.0,17.0 457.5,12.0 461.0,8.5" stroke="black" stroke-width="1" fill="none" />
 <polyline points="463.0,2.0 462.5,6.0 462.5,10.5 458.0,15.0 454.5,19.0" stroke="black" stroke-width="1" fill="none" />
 <polyline points="453.0,14.0 454.0,12.5" stroke="black" stroke-width="1" fill="none" />
 <polyline points="417.5,18.0 413.0,8.5 409.0,1.0" stroke="black" stroke-width="1" fill="none" />
 <polyline points="508.0,5.5 508.0,5.0 508.0,5.0 508.0,4.5 508.5,4.0 509.0,3.5 508.5,3.0 509.0,2.5" stroke="black" stroke-width="1" fill="none" />
</svg>