<svg xmlns="http://www.w3.org/2000/svg" version="1.1">
 <polyline points="412.5,114.0 408.5,118.0 406.5,121.5 407.0,126.0 409.5,130.5" stroke="black" stroke-width="1" fill="none" />
 <polyline points="407.5,126.0 411.5,131.5 415.5,133.0 419.0,132.0 423.0,128.0" stroke="black" stroke-width="1" fill="none" />
 <polyline points="417.0,125.0 417.0,121.5 414.5,125.5 416.0,121.5" stroke="black" stroke-width="1" fill="none" />
 <polyline points="422.0,118.5 418.5,114.0 414.5,114.0 410.5,115.0 406.0,121.5" stroke="black" stroke-width="1" fill="none" />
 <polyline points="419.0,114.5 423.0,118.5 424.0,123.0 423.5,127.0" stroke="black" stroke-width="1" fill="none" />
 <polyline points="418.5,139.0 420.0,143.0 420.0,147.5 420.0,151.5 419.5,155.5 419.5,159.5 419.5,163.5 420.0,168.0 420.0,172.0 420.0,176.0 420.0,180.0 418.0,184.0 419.5,183.5 423.5,183.0 427.5,183.5 431.5,183.0" stroke="black" stroke-width="1" fill="none" />
 <polyline points="432.5,182.0 432.0,182.0 431.5,181.0 431.0,180.0 431.0,179.5 430.0,179.5 429.5,178.5" stroke="black" stroke-width="1" fill="none" />
 <polyline points="428.5,162.0 432.5,161.0 436.5,161.5 439.0,163.0 438.5,167.5 438.5,171.5 438.5,175.5 438.5,179.5 436.5,183.5 439.5,185.0 443.5,184.5 447.5,185.0" stroke="black" stroke-width="1" fill="none" />
 <polyline points="450.5,182.0 450.0,181.5 449.5,180.5 448.5,180.0 448.0,179.5" stroke="black" stroke-width="1" fill="none" />
 <polyline points="450.5,184.0 448.0,180.0 448.0,176.0 448.0,172.0 448.0,168.0 448.0,164.0 448.5,160.0 448.5,156.0 449.0,151.5 449.0,147.5 450.0,143.5 450.0,141.0 445.5,140.0 441.0,140.0 437.5,140.0 430.5,140.5 426.5,140.5 422.5,140.0 418.5,140.0 418.0,142.5" stroke="black" stroke-width="1" fill="none" />
 <polyline points="418.5,142.0 422.5,140.5 426.5,140.0 430.5,140.0 433.0,140.5 429.5,144.5 429.5,149.0" stroke="black" stroke-width="1" fill="none" />
 <polyline points="431.0,144.0 430.0,144.5 429.5,144.5 429.0,144.5 428.5,144.0 427.5,144.0" stroke="black" stroke-width="1" fill="none" />
 <polyline points="432.5,141.5 429.5,145.0 429.0,149.0 431.0,151.0 435.0,151.0" stroke="black" stroke-width="1" fill="none" />
 <polyline points="439.5,143.5 438.5,143.5 438.0,142.5 437.0,142.0 436.5,141.5" stroke="black" stroke-width="1" fill="none" />
 <polyline points="435.5,138.5 438.5,142.5 438.5,146.5" stroke="black" stroke-width="1" fill="none" />
 <polyline points="448.0,143.0 448.0,143.0 448.0,142.5 449.0,142.0" stroke="black" stroke-width="1" fill="none" />
 <polyline points="450.5,141.5 448.5,145.5 449.0,149.5 449.5,153.5 449.5,157.5 449.5,161.5 449.0,165.0 449.0,168.0 449.0,171.5 449.0,175.0 449.0,179.0" stroke="black" stroke-width="1" fill="none" />
 <polyline points="437.0,180.5 436.5,182.0 439.0,178.0 439.0,174.0 438.5,170.0 438.5,166.0 438.5,162.0" stroke="black" stroke-width="1" fill="none" />
 <polyline points="430.5,160.5 428.0,164.5 428.0,168.5 428.0,172.5 428.5,177.0 430.0,181.5" stroke="black" stroke-width="1" fill="none" />
 <polyline points="414.0,181.0 414.0,177.0 414.5,173.0 414.5,168.5 415.0,164.5 415.5,160.5 416.0,157.0 412.0,157.0 408.0,157.0 404.0,158.0" stroke="black" stroke-width="1" fill="none" />
 <polyline points="405.0,157.5 406.0,155.5 410.0,156.0 414.0,156.5" stroke="black" stroke-width="1" fill="none" />
 <polyline points="417.0,156.5 416.0,160.5 415.0,164.5 415.0,168.5 415.0,172.5 414.5,176.0 414.0,180.0" stroke="black" stroke-width="1" fill="none" />
 <polyline points="411.5,182.0 407.5,182.5 403.5,184.0 399.5,183.5 395.5,182.5 391.5,180.5 387.5,173.5" stroke="black" stroke-width="1" fill="none" />
 <polyline points="397.0,171.5 401.0,176.5 405.0,177.5" stroke="black" stroke-width="1" fill="none" />
 <polyline points="407.5,182.5 406.5,183.0 406.5,183.5 405.5,184.0" stroke="black" stroke-width="1" fill="none" />
 <polyline points="382.0,173.0 378.0,181.0 374.5,183.5 370.5,184.5 366.0,185.0 362.0,182.5 358.5,179.5 354.5,170.5" stroke="black" stroke-width="1" fill="none" />
 <polyline points="366.5,174.0 370.0,178.0 374.0,177.5" stroke="black" stroke-width="1" fill="none" />
 <polyline points="375.0,156.0 371.0,147.5 367.0,145.5 363.0,148.0" stroke="black" stroke-width="1" fill="none" />
 <polyline points="366.0,146.0 363.5,150.0 362.5,153.5 362.0,157.5 362.0,161.0 362.5,164.5 364.0,168.5 366.0,172.5 369.5,177.0" stroke="black" stroke-width="1" fill="none" />
 <polyline points="353.5,152.5 357.5,144.0 361.0,140.5 365.0,139.5 369.0,139.5 373.0,140.5 377.0,143.0 381.5,147.5 388.0,150.0 392.0,143.0 396.0,140.5 400.0,140.0 403.5,140.0 407.5,140.0 411.5,140.0 413.0,142.5 412.0,146.5 412.5,150.5" stroke="black" stroke-width="1" fill="none" />
 <polyline points="413.0,151.5 409.0,146.0 404.5,144.0 401.0,146.0 397.0,151.5" stroke="black" stroke-width="1" fill="none" />
 <polyline points="400.5,145.5 397.5,149.0 396.0,153.5 395.5,157.5 395.5,162.0 395.5,166.5 396.0,170.5 397.5,174.5" stroke="black" stroke-width="1" fill="none" />
 <polyline points="406.0,175.0 406.5,171.0 406.5,167.5 407.0,163.5 406.0,159.0 404.5,155.0" stroke="black" stroke-width="1" fill="none" />
 <polyline points="409.5,149.5 403.0,145.5" stroke="black" stroke-width="1" fill="none" />
 <polyline points="396.5,140.0 391.5,144.0 390.0,148.5 388.0,152.5 387.5,157.0 387.5,161.0 387.5,165.0 387.5,168.5 388.0,172.5 390.0,177.5 392.5,182.0 398.0,185.5" stroke="black" stroke-width="1" fill="none" />
 <polyline points="375.0,174.5 375.5,170.0 376.0,166.0 375.5,161.5 375.5,157.5 373.5,153.0 371.5,149.0 368.0,145.0" stroke="black" stroke-width="1" fill="none" />
 <polyline points="363.0,140.0 357.5,144.0 355.5,148.0 354.0,151.5 353.5,156.0 353.5,160.0 353.5,164.0 353.5,168.0 354.0,172.0 356.0,175.5 358.5,180.0 364.5,184.0" stroke="black" stroke-width="1" fill="none" />
 <polyline points="348.5,188.5 348.0,184.5 348.0,180.5 348.0,176.0 348.5,172.0 348.5,168.0 348.5,164.0 348.5,160.5 349.0,156.0 347.5,152.0 348.5,153.0 345.0,151.5 340.5,151.5" stroke="black" stroke-width="1" fill="none" />
 <polyline points="339.0,158.0 339.5,161.5 339.0,165.5 339.0,169.0 339.5,173.0 339.5,177.0 339.0,180.5" stroke="black" stroke-width="1" fill="none" />
 <polyline points="337.0,185.0 332.5,184.0 328.5,182.0 325.0,179.0" stroke="black" stroke-width="1" fill="none" />
 <polyline points="324.0,180.0 328.0,174.5 332.0,168.5 335.5,161.5 337.0,156.5 335.5,160.0 332.5,164.0 330.0,168.0 327.5,172.0 324.0,176.5 327.0,181.0" stroke="black" stroke-width="1" fill="none" />
 <polyline points="321.0,187.5 329.0,191.0" stroke="black" stroke-width="1" fill="none" />
 <polyline points="317.5,185.5 313.5,189.5 308.5,193.5 301.0,197.0" stroke="black" stroke-width="1" fill="none" />
 <polyline points="295.5,192.5 295.5,188.5 294.0,187.0 290.0,187.5 286.0,191.5" stroke="black" stroke-width="1" fill="none" />
 <polyline points="290.5,186.0 286.5,190.0 286.5,194.5 287.5,196.0 291.5,198.0 295.0,199.0 299.0,198.5 303.0,197.5 306.5,195.5 310.5,192.5 314.5,189.5 318.5,187.0 322.5,188.5 326.5,189.5 331.0,190.5 335.5,191.0 339.5,191.0 343.5,191.5 348.0,191.0" stroke="black" stroke-width="1" fill="none" />
 <polyline points="324.5,171.5 327.5,168.0 331.0,164.5 329.0,167.5 325.0,172.0 321.0,172.5 320.0,172.0 318.5,168.0 318.5,163.5" stroke="black" stroke-width="1" fill="none" />
 <polyline points="312.0,183.0 306.5,186.5" stroke="black" stroke-width="1" fill="none" />
 <polyline points="304.0,191.5 309.0,187.5 314.0,184.0 310.0,186.5 305.5,189.5 302.0,191.5 297.5,192.5 295.5,191.0 293.0,186.5" stroke="black" stroke-width="1" fill="none" />
 <polyline points="335.0,184.0 327.5,180.5 325.5,176.5 329.0,173.5 332.0,170.0 334.5,166.5 338.0,162.5 339.5,158.5" stroke="black" stroke-width="1" fill="none" />
 <polyline points="348.5,151.5 349.0,155.5 348.0,159.5 348.0,164.0 348.0,168.0 348.0,172.0 347.5,176.5 347.5,180.5 347.5,184.5 348.5,188.5 349.5,189.0" stroke="black" stroke-width="1" fill="none" />
 <polyline points="378.5,180.5 380.5,176.5 382.5,172.5 384.5,168.0 384.0,164.5 383.5,160.5 384.0,156.5 383.5,152.5 381.5,148.5 378.5,144.0 374.0,140.0" stroke="black" stroke-width="1" fill="none" />
 <polyline points="411.5,140.5 413.0,145.0 412.5,149.0 413.0,153.5" stroke="black" stroke-width="1" fill="none" />
</svg>