<svg xmlns="http://www.w3.org/2000/svg" version="1.1">
 <polyline points="278.5,42.0 278.5,42.5 278.5,42.5 278.5,43.0 278.0,43.5 278.0,44.0 277.5,44.5 277.0,45.5" stroke="black" stroke-width="1" fill="none" />
 <polyline points="275.5,41.5 279.5,42.0 283.0,42.0 287.0,42.0 291.0,42.0 295.0,42.0 299.0,42.5 302.5,42.5 306.5,43.0 311.0,43.0 314.5,42.5 318.5,42.5 322.5,42.0 326.5,42.0 330.5,41.5 334.5,41.5 338.5,41.5 342.5,41.5 346.5,41.0 350.5,41.0 354.0,40.5 358.0,40.0 362.0,41.0 366.0,41.0 370.0,41.5 374.0,41.5 378.5,42.0 382.5,42.5 386.5,42.5 390.5,43.0 394.5,43.0 398.5,43.0 402.5,43.5 406.5,43.5 411.0,43.5 415.0,43.5 418.5,43.0 422.5,44.0 423.0,47.0 423.0,50.5 423.0,54.5 422.5,59.0 422.5,63.0 422.0,67.0 422.0,71.5 421.5,75.5 421.5,79.5 422.0,83.0 421.5,87.0 422.5,90.5 423.0,94.5 423.5,98.5 423.0,102.5 423.5,106.5 423.5,110.0 424.0,113.5 424.0,117.5 424.5,122.0 425.0,126.0 426.0,130.0 426.5,134.0 426.0,138.0 426.5,142.0 427.0,146.0 427.5,149.5 428.0,154.0 429.0,158.0 429.5,162.0 430.0,166.0 430.0,170.0 430.5,174.0 430.5,178.0 430.5,182.0 431.0,186.0 431.5,190.0 431.5,193.5 432.0,197.5 432.0,201.5 432.5,205.5 432.5,209.5 433.0,213.5 433.0,218.0 432.5,221.5 433.0,226.0 433.0,230.5 433.0,234.5 433.0,238.5 434.0,242.0 434.0,246.0 434.0,250.0 434.5,254.0 434.5,258.0 434.0,261.5 434.5,266.0 434.5,270.0 435.0,274.5 434.5,279.0 435.0,283.0 435.5,287.5 436.0,291.5 435.5,295.5 436.5,299.5 437.0,304.0 437.5,308.0 438.0,312.0 438.0,315.5 438.5,319.0 439.0,322.5 439.5,326.0 440.0,329.5 440.5,333.5 441.0,337.0 441.0,341.5 441.0,345.5 442.0,349.5 442.5,354.0 442.0,358.0 442.5,362.5 442.5,367.0 442.0,371.5 442.5,375.5 442.5,379.5 443.5,383.5 443.5,387.5 444.0,391.0 444.0,395.0 444.5,398.5 444.5,403.0 445.0,407.0 445.0,411.0 445.5,415.0 446.0,419.0 445.5,423.0" stroke="black" stroke-width="1" fill="none" />
 <polyline points="449.0,427.5 453.0,428.0 457.0,430.0 461.0,431.5 465.5,433.0 469.5,434.5 474.0,437.0" stroke="black" stroke-width="1" fill="none" />
 <polyline points="467.5,437.5 463.0,438.5 459.0,440.0 455.5,442.0 451.5,444.5 447.5,445.5 443.5,445.5 439.5,446.0 435.5,446.0 431.5,446.5 428.0,448.5 424.0,452.0 420.5,460.0" stroke="black" stroke-width="1" fill="none" />
 <polyline points="419.5,466.5 415.5,465.5" stroke="black" stroke-width="1" fill="none" />
 <polyline points="415.5,464.5 420.5,468.5 427.5,472.0" stroke="black" stroke-width="1" fill="none" />
 <polyline points="432.0,446.5 426.5,450.0 424.0,454.0 421.5,458.5 420.5,463.0 419.0,467.5 422.5,472.0 426.0,473.5 430.0,474.5 433.5,475.0 438.0,476.0 442.0,476.5 446.0,476.5 450.0,477.0 454.5,478.0 458.5,478.5 463.0,478.5 467.0,478.5 471.5,478.0 476.0,477.5" stroke="black" stroke-width="1" fill="none" />
 <polyline points="462.5,507.5 463.0,511.5 462.0,516.0 460.5,519.0 462.0,517.5" stroke="black" stroke-width="1" fill="none" />
 <polyline points="458.0,521.5 459.5,523.5 460.5,524.0" stroke="black" stroke-width="1" fill="none" />
 <polyline points="456.0,524.5 452.0,523.0" stroke="black" stroke-width="1" fill="none" />
 <polyline points="452.5,523.5 458.0,524.0" stroke="black" stroke-width="1" fill="none" />
 <polyline points="456.0,527.5 452.0,526.0 448.5,525.5 444.5,524.0 440.5,519.5" stroke="black" stroke-width="1" fill="none" />
 <polyline points="439.5,517.5 441.5,521.0 452.0,525.0" stroke="black" stroke-width="1" fill="none" />
 <polyline points="454.5,517.5 456.5,516.0 454.5,515.0 450.5,516.5 447.5,518.5 451.0,514.5" stroke="black" stroke-width="1" fill="none" />
 <polyline points="466.5,522.5 462.0,526.5 454.5,530.5 447.5,534.5 442.0,539.0 447.5,543.0" stroke="black" stroke-width="1" fill="none" />
 <polyline points="441.5,539.0 445.5,540.5 449.5,543.5 453.5,545.0 457.0,546.0 461.0,546.5 464.5,546.0 468.5,547.5 472.5,548.5 477.0,550.0 481.0,553.0 485.0,556.0 489.5,558.0 493.5,560.0 498.0,561.0 502.0,560.5 506.5,561.0 510.5,561.0 514.5,560.5" stroke="black" stroke-width="1" fill="none" />
 <polyline points="508.5,560.5 511.5,564.5 512.5,569.5" stroke="black" stroke-width="1" fill="none" />
 <polyline points="514.0,569.5 513.5,568.5 513.0,568.0 512.5,567.5 512.5,566.5" stroke="black" stroke-width="1" fill="none" />
 <polyline points="495.5,561.0 488.0,557.0 482.0,553.0 476.5,549.0" stroke="black" stroke-width="1" fill="none" />
 <polyline points="459.5,566.5 456.0,562.5 452.0,561.0 448.5,561.0 444.5,558.0 440.5,557.5" stroke="black" stroke-width="1" fill="none" />
 <polyline points="441.5,558.5 443.0,559.0 443.5,559.5 443.5,560.0 444.0,560.5 444.0,560.5 444.5,561.5 445.5,562.0" stroke="black" stroke-width="1" fill="none" />
 <polyline points="451.5,561.5 458.5,565.5" stroke="black" stroke-width="1" fill="none" />
 <polyline points="442.0,572.0 438.0,570.5" stroke="black" stroke-width="1" fill="none" />
 <polyline points="440.0,572.0 439.5,575.0" stroke="black" stroke-width="1" fill="none" />
 <polyline points="437.5,578.0 433.5,567.5" stroke="black" stroke-width="1" fill="none" />
 <polyline points="431.5,560.0 431.0,559.5 430.5,558.5 430.0,557.0" stroke="black" stroke-width="1" fill="none" />
 <polyline points="428.5,546.5 432.5,546.0 436.5,545.0 440.5,545.0" stroke="black" stroke-width="1" fill="none" />
 <polyline points="441.5,538.0 445.5,535.5 449.5,534.0 453.5,531.5 457.0,529.5 461.0,528.0 464.5,524.0 468.5,523.0 472.5,522.5 476.5,522.5" stroke="black" stroke-width="1" fill="none" />
 <polyline points="476.0,524.0 477.5,524.0 478.5,524.5 479.5,525.0 480.0,525.0" stroke="black" stroke-width="1" fill="none" />
 <polyline points="480.5,519.0 484.5,517.0 488.5,517.0 492.5,515.5 496.5,514.5 500.5,512.5 504.5,512.5 508.0,513.5 512.5,511.5" stroke="black" stroke-width="1" fill="none" />
 <polyline points="511.0,512.0 512.5,511.5 513.5,510.5 514.0,510.0" stroke="black" stroke-width="1" fill="none" />
 <polyline points="500.5,512.0 499.5,512.5 498.5,513.0 498.0,513.5 496.5,514.0 495.5,514.5" stroke="black" stroke-width="1" fill="none" />
 <polyline points="483.0,516.0 481.0,520.5" stroke="black" stroke-width="1" fill="none" />
 <polyline points="428.5,544.5 428.0,548.5 429.0,552.5 430.0,556.5 431.5,560.5 432.0,564.5 433.5,568.5 436.0,572.5 437.0,577.0 439.0,581.0" stroke="black" stroke-width="1" fill="none" />
 <polyline points="443.5,589.5 447.0,593.5 451.5,601.0 455.5,603.5 460.0,604.0" stroke="black" stroke-width="1" fill="none" />
 <polyline points="461.0,601.0 458.5,594.5 459.0,591.0 457.0,593.0" stroke="black" stroke-width="1" fill="none" />
 <polyline points="461.5,592.5 462.5,596.5 463.5,600.5" stroke="black" stroke-width="1" fill="none" />
 <polyline points="461.5,604.5 458.5,600.5" stroke="black" stroke-width="1" fill="none" />
 <polyline points="449.0,604.0 450.0,609.5 450.0,615.5 451.0,619.5 450.0,624.5 449.0,630.5 447.0,634.5 447.0,638.5 448.5,638.5 444.0,642.5 441.0,646.5 443.5,646.5 440.5,652.0 439.5,653.5 437.5,653.5 432.5,656.5 433.0,655.5 433.0,657.0" stroke="black" stroke-width="1" fill="none" />
 <polyline points="428.5,653.5 424.5,655.0 420.5,655.5 417.0,655.5 413.0,655.5 407.5,655.0 403.5,652.0 400.0,650.5 396.0,646.5 392.0,642.5 388.5,642.0" stroke="black" stroke-width="1" fill="none" />
 <polyline points="387.5,641.0 388.0,645.5 390.0,649.5 394.5,653.5 398.0,656.5 403.5,662.0 405.0,667.0 412.5,671.0 414.0,675.0 416.0,678.5" stroke="black" stroke-width="1" fill="none" />
 <polyline points="411.5,676.0 407.5,674.5 403.5,672.5 399.5,670.0 395.5,667.5 392.0,663.0 390.5,658.0 388.5,659.0" stroke="black" stroke-width="1" fill="none" />
 <polyline points="388.0,656.0 388.0,660.0 392.0,664.0 396.5,667.5 402.0,672.0 410.5,676.0" stroke="black" stroke-width="1" fill="none" />
 <polyline points="417.5,678.5 418.5,674.5 418.5,672.0 414.5,670.0 410.5,668.5 407.0,667.0 403.0,665.0 399.0,663.0 395.0,659.5 391.0,656.0 387.0,656.0" stroke="black" stroke-width="1" fill="none" />
 <polyline points="390.5,656.0 393.5,659.5 399.5,663.5" stroke="black" stroke-width="1" fill="none" />
 <polyline points="406.0,658.0 402.0,652.5 398.0,649.5 394.0,646.5" stroke="black" stroke-width="1" fill="none" />
 <polyline points="396.0,647.5 402.5,651.0 405.5,655.0" stroke="black" stroke-width="1" fill="none" />
 <polyline points="392.5,652.0 392.0,653.0 391.0,653.5 390.5,653.5 390.0,653.5" stroke="black" stroke-width="1" fill="none" />
 <polyline points="390.0,646.5 390.0,645.5 393.0,643.0 391.0,649.0 395.0,652.5 399.0,656.0 402.5,658.5" stroke="black" stroke-width="1" fill="none" />
 <polyline points="421.0,664.0 418.0,659.0 417.0,663.0 412.5,663.0 408.5,662.5 405.5,661.0 406.0,660.5 404.5,656.5 401.0,652.5 395.5,648.0 394.0,644.0 392.0,642.0" stroke="black" stroke-width="1" fill="none" />
 <polyline points="390.5,640.5 394.0,644.0 398.5,648.0 405.5,652.0 407.5,656.0 408.0,659.0 411.0,660.5 413.0,658.5 417.0,659.0 421.0,659.0 424.5,659.5 428.5,656.0" stroke="black" stroke-width="1" fill="none" />
 <polyline points="424.5,656.0 425.0,656.5 424.5,657.0 424.5,658.0 424.5,658.5" stroke="black" stroke-width="1" fill="none" />
 <polyline points="425.5,666.0 427.5,670.5 427.5,674.5 426.5,678.5 427.5,682.5" stroke="black" stroke-width="1" fill="none" />
 <polyline points="437.0,675.5 444.0,671.5 443.5,670.0 439.5,670.0 435.5,670.0 432.0,671.0 428.0,670.0" stroke="black" stroke-width="1" fill="none" />
 <polyline points="429.0,670.5 429.5,671.5 430.0,671.5 430.5,671.5" stroke="black" stroke-width="1" fill="none" />
 <polyline points="425.5,667.0 423.0,666.0" stroke="black" stroke-width="1" fill="none" />
 <polyline points="419.0,670.0 420.5,674.0" stroke="black" stroke-width="1" fill="none" />
 <polyline points="443.0,672.5 439.0,674.5 435.0,677.5 431.0,679.5 433.5,678.0 440.0,674.5 445.5,670.5" stroke="black" stroke-width="1" fill="none" />
 <polyline points="443.5,647.0 438.5,647.5" stroke="black" stroke-width="1" fill="none" />
 <polyline points="444.5,643.0 444.0,642.5 444.5,642.0 444.5,641.5 444.5,641.0 444.5,641.0 444.0,640.5" stroke="black" stroke-width="1" fill="none" />
 <polyline points="443.5,639.5 445.5,641.0" stroke="black" stroke-width="1" fill="none" />
 <polyline points="444.0,635.0 448.5,633.5" stroke="black" stroke-width="1" fill="none" />
 <polyline points="446.0,629.5 447.0,628.0 447.0,628.0 447.5,628.0 448.5,628.5" stroke="black" stroke-width="1" fill="none" />
 <polyline points="443.0,628.0 439.5,635.0 435.0,641.0 431.0,645.5 427.5,650.5 423.5,653.0 419.5,653.5 416.0,653.0 412.0,652.0 408.0,650.5 403.5,649.5 399.5,646.5 395.5,643.0 391.5,639.0" stroke="black" stroke-width="1" fill="none" />
 <polyline points="384.0,622.5 380.0,620.5 376.0,618.0 371.5,615.0 367.5,611.0 363.5,606.0 359.0,599.0 355.5,592.0 351.5,584.5 348.0,576.0 344.0,571.5 340.0,568.0 336.0,565.5 331.5,563.0 328.0,558.5 324.0,551.5" stroke="black" stroke-width="1" fill="none" />
 <polyline points="323.0,546.5 327.0,539.5 331.5,539.0 335.5,541.0 339.5,543.5 344.0,546.5 348.0,549.5 351.5,553.5" stroke="black" stroke-width="1" fill="none" />
 <polyline points="349.5,548.5 345.5,545.5 341.5,543.0 337.5,540.5 334.0,538.5 330.5,537.0 326.5,531.0" stroke="black" stroke-width="1" fill="none" />
 <polyline points="328.0,539.5 325.0,543.5 323.5,547.5 324.0,551.5 325.5,555.5 328.5,559.5 332.0,563.5 338.0,568.0 343.0,572.0 346.5,576.0 349.0,580.0 351.0,584.5 353.0,588.0 355.5,591.5 357.5,595.0 359.5,599.0 361.5,603.0 364.0,607.0 368.0,611.0 371.5,615.0 376.5,619.0 382.5,623.0" stroke="black" stroke-width="1" fill="none" />
 <polyline points="373.5,560.0 369.5,555.5 365.5,549.0 361.5,544.5" stroke="black" stroke-width="1" fill="none" />
 <polyline points="361.0,545.5 364.5,549.5 367.5,554.0 370.0,558.0 375.0,562.0" stroke="black" stroke-width="1" fill="none" />
 <polyline points="397.0,541.0 392.5,537.5 389.0,534.0 384.5,529.0 380.5,525.0 376.5,520.5 372.5,517.5" stroke="black" stroke-width="1" fill="none" />
 <polyline points="371.5,518.0 376.0,522.0 379.5,525.5 384.0,529.5 387.0,533.5 391.5,537.5 396.5,541.5" stroke="black" stroke-width="1" fill="none" />
 <polyline points="406.5,493.0 402.5,484.5 398.5,475.5" stroke="black" stroke-width="1" fill="none" />
 <polyline points="397.0,465.5 396.5,464.5 396.0,463.5 395.0,463.0 394.0,462.0 393.5,461.0" stroke="black" stroke-width="1" fill="none" />
 <polyline points="385.0,472.5 385.0,476.5 384.0,480.5" stroke="black" stroke-width="1" fill="none" />
 <polyline points="367.0,491.5 363.0,493.5 359.0,489.5 354.5,486.0 350.5,480.5 346.5,478.0 342.5,475.5 338.5,472.0 334.5,468.5 330.5,465.0 326.5,461.0 322.5,457.0 318.0,453.5 314.5,450.0 310.5,447.0 307.0,445.5 303.0,445.0 299.0,446.5 295.0,452.0" stroke="black" stroke-width="1" fill="none" />
 <polyline points="295.0,457.0 298.5,462.5 302.5,466.5 306.0,471.0 310.0,475.5 314.0,479.0 318.5,483.0 322.5,488.5" stroke="black" stroke-width="1" fill="none" />
 <polyline points="335.5,491.0 334.0,494.5 332.5,498.5 333.0,503.0 337.5,506.5" stroke="black" stroke-width="1" fill="none" />
 <polyline points="335.5,499.5 339.5,492.5 343.5,487.5 340.5,490.5 338.5,494.0 336.0,498.0" stroke="black" stroke-width="1" fill="none" />
 <polyline points="338.5,497.5 343.0,503.0 346.5,505.5 350.5,509.0 354.0,512.0 358.0,514.5" stroke="black" stroke-width="1" fill="none" />
 <polyline points="339.5,497.0 343.5,491.5 349.0,488.0 346.5,491.5" stroke="black" stroke-width="1" fill="none" />
 <polyline points="349.5,487.0 346.5,491.0 343.5,494.5 347.5,489.5 345.5,488.5 341.5,492.5 339.5,496.5 340.5,500.5 345.5,504.5 350.5,508.5 357.0,512.0 362.0,516.0" stroke="black" stroke-width="1" fill="none" />
 <polyline points="336.0,509.0 332.0,509.5 327.5,510.0 323.5,511.0 319.5,515.5" stroke="black" stroke-width="1" fill="none" />
 <polyline points="320.0,518.0 324.0,523.5 328.0,522.0" stroke="black" stroke-width="1" fill="none" />
 <polyline points="329.0,520.5 328.0,521.0 326.5,521.5 326.0,522.5 326.0,523.0 325.5,524.0" stroke="black" stroke-width="1" fill="none" />
 <polyline points="324.0,508.5 320.0,512.5 319.5,516.5 321.5,521.0 325.0,525.5 325.0,529.5 326.5,533.5 329.5,537.5 337.0,541.5 343.5,545.5 349.0,549.5" stroke="black" stroke-width="1" fill="none" />
 <polyline points="354.0,556.0 349.5,552.0 344.0,548.0 338.0,544.0 330.5,540.0" stroke="black" stroke-width="1" fill="none" />
 <polyline points="340.5,508.5 335.5,504.0 335.5,498.0 337.0,494.0 339.5,490.0 342.5,486.0" stroke="black" stroke-width="1" fill="none" />
 <polyline points="361.5,493.5 357.5,489.5 354.0,485.5 350.5,481.5 344.5,478.0 340.0,474.0 335.0,470.0 330.5,466.0 327.0,462.0 323.0,457.5 318.5,453.5 314.5,449.5 309.0,446.0" stroke="black" stroke-width="1" fill="none" />
 <polyline points="302.5,446.0 298.0,450.0 296.5,454.0 296.5,457.5 299.0,461.5 303.0,465.5 306.0,469.5 309.0,473.0 312.5,477.0 316.0,481.5 319.5,485.5 323.0,489.5 326.0,493.5" stroke="black" stroke-width="1" fill="none" />
 <polyline points="379.0,437.0 375.0,431.0" stroke="black" stroke-width="1" fill="none" />
 <polyline points="376.0,425.0 376.5,429.0 376.5,433.0 378.0,436.5" stroke="black" stroke-width="1" fill="none" />
 <polyline points="390.0,437.5 394.0,438.5" stroke="black" stroke-width="1" fill="none" />
 <polyline points="409.0,443.5 408.0,439.5 407.5,435.0 408.0,431.0" stroke="black" stroke-width="1" fill="none" />
 <polyline points="408.5,432.0 412.5,430.5 416.5,430.0 420.5,429.5 424.5,427.0 428.0,427.5 432.0,428.0 436.0,427.0 439.5,426.0 443.5,424.0" stroke="black" stroke-width="1" fill="none" />
 <polyline points="450.5,421.5 450.5,418.0 450.5,414.0 450.5,410.0 450.0,406.5 449.5,402.5 449.5,398.5 449.5,394.0 449.5,390.0 449.0,386.0 448.5,382.5 448.5,378.5 448.0,374.5 448.0,371.0 448.0,367.0 447.5,363.5 447.0,359.5 447.0,355.5 446.5,351.0 446.5,346.5 446.5,342.5 446.5,338.0 446.5,334.0 446.5,329.5 446.5,325.5 446.5,322.0 446.0,317.5 446.0,314.0 446.0,310.0 446.0,306.5 445.0,302.5 445.0,299.0 445.0,294.5 445.0,290.0 445.0,286.0 445.0,282.0 445.5,278.5 444.5,274.0 444.5,270.0 444.0,265.5 444.0,261.5 443.5,257.5 444.0,253.5 443.0,249.5 442.5,245.5 442.5,241.5 442.5,237.5 442.0,233.5 441.0,230.0 441.0,226.0 441.0,222.0 440.5,218.0 440.0,214.0 439.5,210.0 439.0,206.0 439.5,202.0 439.5,197.5 439.0,193.5 439.0,190.0 439.0,185.5 439.0,181.5 438.0,177.5 438.0,173.5 437.0,169.5 436.5,165.5 436.0,162.0 436.0,158.0 436.0,153.5 435.5,149.5 436.0,145.5 436.0,141.0 436.0,137.0 436.0,133.0 436.5,129.0 437.0,125.0 437.0,121.0 436.5,117.0 436.0,113.0 436.0,108.5 435.5,104.5 435.5,101.0 434.5,97.0 434.5,93.0 434.0,89.5 434.0,85.5 433.5,82.0 433.5,78.0 434.0,74.0 434.0,70.0 434.0,66.0 434.0,62.5 434.0,58.0 433.5,54.0 433.0,49.5 431.5,45.5 429.0,44.5 424.5,44.5" stroke="black" stroke-width="1" fill="none" />
 <polyline points="421.5,44.0 422.5,47.5 422.5,51.5 422.5,56.0 422.5,60.0 422.5,64.5 422.5,69.0 423.0,73.5 423.5,77.5 423.0,81.5 423.5,85.5 424.0,89.5 424.5,93.5 424.5,97.5 424.5,101.5 424.0,105.5 424.0,109.5 424.5,113.5 424.0,117.5 425.0,121.5 425.0,125.5 425.5,129.5 425.0,133.0 425.5,137.0 425.5,141.0 426.0,144.5 426.5,148.5 427.0,153.0 427.0,157.0 427.5,161.0 428.0,165.0 428.5,168.5 428.5,172.0 428.5,176.0 428.5,180.0 429.5,184.0 429.5,187.5 430.0,191.5 430.0,195.5 430.0,199.5 430.0,203.0 430.5,207.5 430.5,211.5 431.0,215.5 431.5,219.5 432.0,223.5 432.0,227.5 432.5,231.5 432.5,235.5 432.5,240.0 433.5,244.0 433.5,248.0 434.5,251.5 434.5,255.5 435.0,260.0 435.0,264.0 435.5,267.5 435.5,271.5 436.0,275.0 436.5,278.5 436.5,282.5 437.0,286.5 437.5,291.0 437.5,295.0 437.5,299.0 437.5,303.0 437.5,307.0 438.0,311.0 438.5,315.0 438.5,319.0 439.0,323.0 439.5,327.5 440.0,331.5 440.5,336.0 441.0,340.0 441.5,344.5 441.5,348.5 442.0,352.5 443.0,356.5 443.5,361.0 443.5,364.5 443.5,368.5 443.5,372.5 443.5,376.5 443.0,380.0 443.5,384.0 443.5,387.5 444.0,391.0 444.0,395.0 444.5,399.0 444.5,403.0 445.0,407.0 445.0,411.0 446.0,415.0 446.5,419.5 445.0,424.0" stroke="black" stroke-width="1" fill="none" />
 <polyline points="452.5,429.0 461.0,433.0 470.5,437.0 476.5,441.0 476.5,444.5 477.0,448.5 477.0,452.0 478.0,456.0 478.0,460.0 478.5,463.5 478.5,467.5 478.5,471.5 477.0,475.5" stroke="black" stroke-width="1" fill="none" />
 <polyline points="456.0,444.5 463.0,440.5" stroke="black" stroke-width="1" fill="none" />
 <polyline points="480.0,414.0 481.0,414.5 483.0,414.5 485.0,415.0 487.0,415.5 488.5,416.0 489.5,416.5" stroke="black" stroke-width="1" fill="none" />
 <polyline points="496.5,419.5 508.5,423.5" stroke="black" stroke-width="1" fill="none" />
 <polyline points="513.0,428.5 512.5,429.5 512.0,430.5 512.0,430.5 512.0,431.5 511.0,432.0 510.5,433.5" stroke="black" stroke-width="1" fill="none" />
 <polyline points="512.5,429.0 511.0,433.0 510.0,437.0 509.5,441.0 509.5,444.5 509.5,448.0 510.5,452.5 512.0,456.5" stroke="black" stroke-width="1" fill="none" />
 <polyline points="513.0,458.5 512.0,458.5 512.0,457.0 511.5,456.0 511.5,455.0 511.5,454.0 511.5,453.0 511.0,451.5" stroke="black" stroke-width="1" fill="none" />
 <polyline points="512.5,458.5 511.0,454.5 510.0,451.0 509.5,447.0 510.5,443.0 511.0,439.0 511.5,435.5 513.0,431.0 513.5,425.0 509.5,423.0 506.0,421.5 502.0,419.5 497.5,418.5 493.5,417.0 489.0,416.0 485.0,414.0 480.5,413.0" stroke="black" stroke-width="1" fill="none" />
 <polyline points="425.5,427.5 424.5,427.5 424.0,428.0 424.0,428.0 424.0,428.5 423.0,428.5" stroke="black" stroke-width="1" fill="none" />
 <polyline points="386.0,421.5 382.0,417.5 377.5,417.5 374.0,419.0 369.5,425.0" stroke="black" stroke-width="1" fill="none" />
 <polyline points="366.5,419.0 362.5,416.0 358.5,412.5 354.5,409.5 350.5,404.5" stroke="black" stroke-width="1" fill="none" />
 <polyline points="341.5,401.5 337.5,399.5 333.5,397.5" stroke="black" stroke-width="1" fill="none" />
 <polyline points="334.0,396.0 340.5,400.0" stroke="black" stroke-width="1" fill="none" />
 <polyline points="331.0,380.5 333.5,379.0 330.0,381.0 326.0,381.5 325.0,381.0" stroke="black" stroke-width="1" fill="none" />
 <polyline points="317.0,377.5 313.0,374.5 309.5,369.0 306.0,361.0 302.5,356.0 298.5,352.0 294.5,347.0" stroke="black" stroke-width="1" fill="none" />
 <polyline points="295.0,347.5 299.5,351.5 303.5,356.5 307.5,360.5" stroke="black" stroke-width="1" fill="none" />
 <polyline points="314.5,365.0 318.0,369.5" stroke="black" stroke-width="1" fill="none" />
 <polyline points="319.0,368.0 317.0,366.5" stroke="black" stroke-width="1" fill="none" />
 <polyline points="319.0,366.5 319.0,370.5" stroke="black" stroke-width="1" fill="none" />
 <polyline points="328.5,382.0 329.5,381.0 331.0,381.0 332.0,380.5 333.5,380.0 335.0,379.5 335.5,378.5" stroke="black" stroke-width="1" fill="none" />
 <polyline points="339.5,375.0 343.5,368.5 347.5,361.0 352.0,352.5 355.5,343.0 359.5,332.5 363.5,323.0 367.5,313.5 372.0,312.5 376.0,311.5 380.0,308.5 384.0,304.5 388.0,299.0 392.0,290.5" stroke="black" stroke-width="1" fill="none" />
 <polyline points="391.0,296.5 391.0,300.5 391.0,304.5 391.0,308.0 391.5,312.0 391.5,316.0 392.0,320.0 392.0,323.5 392.5,327.5 392.5,332.0 392.5,336.0 392.5,340.0 393.0,344.0 393.0,348.5 393.0,352.0 393.5,356.0 394.0,360.0 394.0,364.0 395.0,367.5 395.0,371.5 395.5,375.0 395.5,379.0 395.0,383.0 395.0,387.0 395.0,391.0 395.0,395.0 395.0,399.0 395.5,403.5 396.0,407.5 396.0,412.0 396.0,416.0 396.5,420.0 397.0,424.0" stroke="black" stroke-width="1" fill="none" />
 <polyline points="381.0,418.0 386.0,422.0 387.0,426.0 387.0,429.5 388.0,433.5 388.0,437.5 388.5,441.5 389.0,445.5 389.5,450.0 391.0,454.0 392.0,457.5 393.5,461.5 396.0,466.0 397.0,472.5 399.0,476.5 400.5,480.5 402.5,484.5 404.5,488.5 406.5,492.5 408.0,496.5" stroke="black" stroke-width="1" fill="none" />
 <polyline points="366.5,494.0 369.5,490.0 371.5,485.5 371.0,481.5 371.0,477.5 370.5,473.5 370.0,469.5 370.0,465.5 370.0,461.5 369.5,457.5 369.5,453.5 369.0,450.0 370.0,446.0 369.0,442.5 369.0,438.5 369.0,434.5 369.0,430.0 369.5,426.0 371.0,422.5 375.5,418.5" stroke="black" stroke-width="1" fill="none" />
 <polyline points="346.0,401.0 346.0,397.5 346.5,393.5 346.0,389.5 346.5,385.5 346.5,381.0 346.0,377.0 345.5,373.0 345.5,368.5" stroke="black" stroke-width="1" fill="none" />
 <polyline points="350.0,361.5 349.0,365.5 349.0,369.0 349.0,373.0 349.0,377.0 349.5,381.5 349.0,385.0 349.0,389.0 349.5,393.0 349.5,397.5 350.0,401.5 351.0,405.5 354.5,409.5 359.5,413.5 364.0,417.5" stroke="black" stroke-width="1" fill="none" />
 <polyline points="338.5,351.5 334.5,350.5 330.5,350.0 326.5,350.0 322.0,349.5 318.0,349.0 314.5,348.0 310.5,347.0 306.5,346.0 303.0,344.5 299.0,343.5 295.0,344.5" stroke="black" stroke-width="1" fill="none" />
 <polyline points="292.0,346.5 292.5,350.5 291.5,354.5" stroke="black" stroke-width="1" fill="none" />
 <polyline points="294.0,349.0 296.5,353.0 300.5,357.0 304.5,361.0 307.0,364.5 309.5,368.5 312.0,373.0 315.5,377.0" stroke="black" stroke-width="1" fill="none" />
 <polyline points="306.0,411.0 302.0,411.0 298.0,410.5 294.5,410.5 290.0,408.5" stroke="black" stroke-width="1" fill="none" />
 <polyline points="293.0,409.0 293.5,409.0 294.0,409.5 294.0,410.0" stroke="black" stroke-width="1" fill="none" />
 <polyline points="265.5,409.0 261.5,407.5 257.0,405.0 253.0,401.5 248.5,401.5" stroke="black" stroke-width="1" fill="none" />
 <polyline points="246.5,405.0 242.5,404.0 238.5,403.0 234.5,402.0 230.5,400.0 226.5,399.0 222.0,397.0 217.5,395.5 213.5,393.5 209.5,391.5 205.5,390.0 202.0,388.5 198.5,386.0 194.0,384.0 190.0,382.0 186.0,380.5 182.0,378.0 178.0,376.0 174.0,374.0 170.0,372.5 166.5,371.0 163.0,369.0 159.0,367.5 155.0,365.0 151.0,363.5 146.5,362.0 142.0,360.5 138.5,359.5 134.5,358.0 130.5,357.0 126.5,355.5 122.0,353.5 118.5,352.0" stroke="black" stroke-width="1" fill="none" />
 <polyline points="122.0,355.0 131.5,359.0" stroke="black" stroke-width="1" fill="none" />
 <polyline points="139.0,357.5 140.5,358.5" stroke="black" stroke-width="1" fill="none" />
 <polyline points="145.5,361.0 156.0,365.0 165.0,369.5 173.5,373.5 182.0,377.5 190.5,382.0 198.5,386.5 206.0,390.0 215.5,394.0 224.5,398.5 234.5,402.5" stroke="black" stroke-width="1" fill="none" />
 <polyline points="243.5,400.0 244.0,401.0" stroke="black" stroke-width="1" fill="none" />
 <polyline points="250.5,388.0 251.0,392.5 251.0,399.0 249.5,403.0 251.5,399.5 251.0,404.0 259.0,406.0" stroke="black" stroke-width="1" fill="none" />
 <polyline points="270.5,396.0 267.0,393.0 263.0,389.0 259.0,384.5 254.5,380.5 250.5,376.0 246.5,370.5" stroke="black" stroke-width="1" fill="none" />
 <polyline points="247.0,370.0 249.5,374.0 253.5,377.5 257.0,381.5 260.5,386.0 264.5,390.0 268.5,393.5" stroke="black" stroke-width="1" fill="none" />
 <polyline points="229.5,386.5 225.5,382.5 222.0,378.5 218.0,372.5" stroke="black" stroke-width="1" fill="none" />
 <polyline points="218.0,372.0 218.0,376.0 221.0,380.0 225.0,384.5 228.5,388.0" stroke="black" stroke-width="1" fill="none" />
 <polyline points="228.5,387.5 224.5,383.0 221.0,379.0 217.0,373.5" stroke="black" stroke-width="1" fill="none" />
 <polyline points="218.5,375.0 221.0,379.0 225.5,382.5 229.5,386.5" stroke="black" stroke-width="1" fill="none" />
 <polyline points="205.5,386.0 201.5,382.5 198.0,379.5 193.5,377.0" stroke="black" stroke-width="1" fill="none" />
 <polyline points="194.5,378.0 200.5,381.5 205.0,385.5" stroke="black" stroke-width="1" fill="none" />
 <polyline points="265.0,402.5 261.0,398.0 257.0,394.0 253.0,389.5 249.0,385.0 245.0,380.0 241.5,375.0 237.0,370.0 232.5,365.0 228.5,360.5 224.0,355.5 220.0,350.0 216.0,344.5 212.5,338.0 209.0,331.5 205.0,323.5 201.5,316.5" stroke="black" stroke-width="1" fill="none" />
 <polyline points="206.5,309.0 202.5,305.0" stroke="black" stroke-width="1" fill="none" />
 <polyline points="204.0,304.0 207.5,308.0 211.5,311.5 211.5,315.5 211.0,319.5 210.0,323.5" stroke="black" stroke-width="1" fill="none" />
 <polyline points="218.5,297.0 215.0,296.5 211.5,298.0 207.5,295.5" stroke="black" stroke-width="1" fill="none" />
 <polyline points="207.0,299.5 203.0,293.0" stroke="black" stroke-width="1" fill="none" />
 <polyline points="200.0,291.5 203.5,298.0 207.0,302.5 211.0,303.5 212.0,309.5 215.5,311.0" stroke="black" stroke-width="1" fill="none" />
 <polyline points="211.5,296.5 212.0,296.0 212.5,295.5 213.0,294.5" stroke="black" stroke-width="1" fill="none" />
 <polyline points="207.0,289.0 211.0,283.0 215.0,280.0 217.0,281.0 217.5,285.0 218.0,289.0 222.0,293.0" stroke="black" stroke-width="1" fill="none" />
 <polyline points="223.5,294.0 223.0,293.5 223.0,293.0 222.0,292.0 221.5,291.5 220.5,290.5 220.0,290.0 219.5,289.0" stroke="black" stroke-width="1" fill="none" />
 <polyline points="223.5,291.5 220.0,287.5 219.5,283.5 218.0,279.5" stroke="black" stroke-width="1" fill="none" />
 <polyline points="216.0,278.5 210.0,282.5 208.0,287.0 207.0,291.5 208.0,295.5" stroke="black" stroke-width="1" fill="none" />
 <polyline points="199.5,305.0 195.5,300.0 192.5,298.5 188.5,297.5" stroke="black" stroke-width="1" fill="none" />
 <polyline points="191.5,299.0 195.5,302.5 198.0,306.5 199.0,310.0 200.0,314.0 201.5,317.5 204.5,321.5 206.0,325.5 208.0,329.5 210.0,333.5 213.0,337.5 215.0,341.5 217.5,346.0 221.0,350.0 224.0,353.5 227.0,357.5 230.5,362.0 234.0,366.0 236.0,370.0 239.5,374.0 242.0,378.0 245.5,382.0 249.5,386.5 253.0,390.5 256.0,394.0 260.5,398.0 264.0,402.0 266.5,405.5" stroke="black" stroke-width="1" fill="none" />
 <polyline points="289.0,342.5 293.0,342.0 297.0,341.0 300.5,340.0 304.5,339.0 308.5,337.5 312.0,337.0 316.5,336.0 320.5,336.5 324.0,337.0 328.0,337.5 332.5,338.5 336.0,341.5 340.0,346.5" stroke="black" stroke-width="1" fill="none" />
 <polyline points="342.5,358.0 340.0,353.5 339.5,346.5 336.5,342.5 331.0,338.5" stroke="black" stroke-width="1" fill="none" />
 <polyline points="325.0,338.0 324.0,337.5 323.0,337.0 323.0,336.0" stroke="black" stroke-width="1" fill="none" />
 <polyline points="298.5,339.5 295.0,346.0 300.0,350.5 303.5,354.5 307.0,359.0 310.0,363.5 311.5,367.5 315.5,369.0" stroke="black" stroke-width="1" fill="none" />
 <polyline points="312.0,316.0 311.0,315.5 310.0,314.5 308.5,314.0 307.0,313.0 305.5,312.5 304.0,312.0" stroke="black" stroke-width="1" fill="none" />
 <polyline points="302.0,306.0 298.5,306.0" stroke="black" stroke-width="1" fill="none" />
 <polyline points="301.0,304.5 305.0,308.5 309.0,308.0 313.5,307.0 318.0,306.5 322.0,308.0" stroke="black" stroke-width="1" fill="none" />
 <polyline points="321.0,307.0 325.5,311.0 325.5,315.0" stroke="black" stroke-width="1" fill="none" />
 <polyline points="337.5,311.5 334.5,312.5 338.5,311.5 337.5,317.0 337.5,318.0 341.5,315.5" stroke="black" stroke-width="1" fill="none" />
 <polyline points="348.0,306.0 347.5,305.5 346.5,305.0 346.0,303.5 345.5,302.5 345.0,301.0 344.5,300.5" stroke="black" stroke-width="1" fill="none" />
 <polyline points="345.0,302.0 347.0,306.0" stroke="black" stroke-width="1" fill="none" />
 <polyline points="369.0,288.5 373.0,288.0 377.0,287.0 381.0,286.0" stroke="black" stroke-width="1" fill="none" />
 <polyline points="386.5,285.0 390.0,283.0" stroke="black" stroke-width="1" fill="none" />
 <polyline points="390.0,283.0 390.0,286.0 389.0,290.0 387.0,294.0 384.5,298.5 380.5,302.5 379.0,303.5 383.0,299.5 387.0,293.0" stroke="black" stroke-width="1" fill="none" />
 <polyline points="393.0,284.5 393.5,283.0 394.5,282.0 395.0,281.5 395.5,281.5" stroke="black" stroke-width="1" fill="none" />
 <polyline points="390.0,273.0 386.0,267.5 382.0,265.0 377.5,263.0 373.5,261.5 369.5,260.0 365.5,260.5" stroke="black" stroke-width="1" fill="none" />
 <polyline points="366.5,260.5 370.0,264.5 372.0,267.0 371.0,271.0 369.0,275.5 368.0,279.5 367.0,285.0 367.0,288.5 367.0,292.0 367.5,296.0 368.0,300.5 368.5,304.0 368.5,308.0 369.5,310.0 373.5,308.5 377.5,305.5 382.0,302.0 381.5,302.5 376.5,306.5" stroke="black" stroke-width="1" fill="none" />
 <polyline points="372.0,285.0 383.0,281.0 382.5,281.5 378.5,283.0 374.5,284.0 370.0,286.0 366.0,284.0" stroke="black" stroke-width="1" fill="none" />
 <polyline points="359.5,275.0 355.5,272.5" stroke="black" stroke-width="1" fill="none" />
 <polyline points="357.0,272.0 363.0,276.0" stroke="black" stroke-width="1" fill="none" />
 <polyline points="365.5,277.0 361.0,274.0 356.5,271.0 352.0,270.0 348.0,270.5 343.5,271.0" stroke="black" stroke-width="1" fill="none" />
 <polyline points="341.0,273.5 345.0,266.5 349.0,263.0 351.5,263.5" stroke="black" stroke-width="1" fill="none" />
 <polyline points="352.5,262.5 349.0,263.0 346.0,267.5 343.5,271.5 342.0,275.5 347.0,279.5" stroke="black" stroke-width="1" fill="none" />
 <polyline points="341.5,278.0 345.5,279.5 350.0,281.0 354.0,278.0 360.5,277.5" stroke="black" stroke-width="1" fill="none" />
 <polyline points="360.5,278.0 357.0,274.0" stroke="black" stroke-width="1" fill="none" />
 <polyline points="351.5,274.0 351.0,274.5" stroke="black" stroke-width="1" fill="none" />
 <polyline points="350.5,272.5 350.5,276.5 355.0,273.5 353.5,277.5 355.0,281.0 359.5,281.0" stroke="black" stroke-width="1" fill="none" />
 <polyline points="369.5,263.0 369.0,263.0 368.5,262.5 368.0,262.0 367.5,261.5 366.5,261.0" stroke="black" stroke-width="1" fill="none" />
 <polyline points="374.0,255.0 372.0,251.0 373.0,247.0 375.5,243.0 375.0,239.0 373.5,235.0 375.0,231.0 378.5,226.5 380.0,224.0 376.5,229.0 372.5,232.0" stroke="black" stroke-width="1" fill="none" />
 <polyline points="372.5,234.5 373.0,236.0 374.0,236.5 374.5,237.5" stroke="black" stroke-width="1" fill="none" />
 <polyline points="373.5,246.0 368.0,248.5 363.5,247.5 359.5,248.0 355.5,246.0 351.5,246.0 347.0,247.5 344.5,248.5 353.0,244.5" stroke="black" stroke-width="1" fill="none" />
 <polyline points="359.0,246.0 362.0,246.0 367.0,249.5 370.0,253.5" stroke="black" stroke-width="1" fill="none" />
 <polyline points="378.5,263.0 385.5,266.5 389.0,270.5 390.5,274.5 392.0,279.0 391.5,283.0 391.0,287.0 390.0,291.0 388.0,295.5 385.5,299.5 385.5,299.5 389.5,292.0" stroke="black" stroke-width="1" fill="none" />
 <polyline points="384.0,279.5 373.0,283.0" stroke="black" stroke-width="1" fill="none" />
 <polyline points="351.0,261.5 346.0,266.0 343.5,269.5 342.0,273.5 342.5,278.0" stroke="black" stroke-width="1" fill="none" />
 <polyline points="342.0,263.5 338.0,261.5 334.0,260.5" stroke="black" stroke-width="1" fill="none" />
 <polyline points="333.5,259.0 342.0,263.5 339.5,267.0 339.0,271.5 339.5,276.0 340.0,280.5 341.5,285.0 345.0,289.0" stroke="black" stroke-width="1" fill="none" />
 <polyline points="336.5,269.5 332.5,266.5 328.0,266.0 324.0,267.0" stroke="black" stroke-width="1" fill="none" />
 <polyline points="331.5,267.5 335.5,271.5" stroke="black" stroke-width="1" fill="none" />
 <polyline points="315.5,280.5 311.5,287.5" stroke="black" stroke-width="1" fill="none" />
 <polyline points="305.5,289.5 301.5,293.0 297.5,294.5 293.5,296.5 289.5,297.0 285.5,297.0 281.5,296.0 277.0,294.0 273.0,290.0 269.0,285.0 265.0,275.0" stroke="black" stroke-width="1" fill="none" />
 <polyline points="262.5,276.5 266.5,286.0 271.0,291.0 275.5,295.0 279.5,297.0 283.5,298.5" stroke="black" stroke-width="1" fill="none" />
 <polyline points="293.0,299.5 296.5,299.0 300.5,297.5 304.5,295.0 302.5,296.5" stroke="black" stroke-width="1" fill="none" />
 <polyline points="301.0,298.0 306.0,293.5" stroke="black" stroke-width="1" fill="none" />
 <polyline points="303.0,302.5 307.0,297.0 310.5,293.0 315.0,283.5 319.0,275.0" stroke="black" stroke-width="1" fill="none" />
 <polyline points="312.0,275.5 311.5,275.5 312.0,277.5" stroke="black" stroke-width="1" fill="none" />
 <polyline points="307.5,277.5 306.5,277.0 306.5,276.5 306.0,276.0 305.5,276.0 304.5,276.5" stroke="black" stroke-width="1" fill="none" />
 <polyline points="304.5,274.5 305.5,278.5 302.0,280.5 305.0,285.0 305.0,289.0" stroke="black" stroke-width="1" fill="none" />
 <polyline points="304.5,283.0 307.0,277.5 305.5,279.0 301.5,279.0" stroke="black" stroke-width="1" fill="none" />
 <polyline points="299.5,268.5 297.0,264.5" stroke="black" stroke-width="1" fill="none" />
 <polyline points="296.5,264.0 292.0,262.0 290.0,266.5 286.5,269.0 282.5,268.5 278.5,265.0 274.5,262.5" stroke="black" stroke-width="1" fill="none" />
 <polyline points="276.0,260.0 278.0,264.5" stroke="black" stroke-width="1" fill="none" />
 <polyline points="274.0,257.5 270.5,259.0 275.0,257.5 279.0,257.0 283.0,257.5 287.5,257.0 291.5,258.0 295.5,259.0 300.0,261.0 303.5,263.0 308.0,268.0" stroke="black" stroke-width="1" fill="none" />
 <polyline points="310.5,261.0 306.5,258.5" stroke="black" stroke-width="1" fill="none" />
 <polyline points="308.5,256.0 312.0,260.5" stroke="black" stroke-width="1" fill="none" />
 <polyline points="306.0,267.5 301.0,263.5 294.0,260.0" stroke="black" stroke-width="1" fill="none" />
 <polyline points="293.0,262.5 290.5,266.0 290.5,268.5 294.0,268.0" stroke="black" stroke-width="1" fill="none" />
 <polyline points="290.0,260.5 289.5,261.0 297.5,260.5 304.0,264.5 307.0,268.5" stroke="black" stroke-width="1" fill="none" />
 <polyline points="295.5,256.5 291.5,255.5 287.5,255.0" stroke="black" stroke-width="1" fill="none" />
 <polyline points="289.0,247.5 297.5,251.0 304.0,249.0 308.0,251.0 312.5,253.5 316.5,258.5" stroke="black" stroke-width="1" fill="none" />
 <polyline points="319.5,255.0 321.5,258.5 324.0,262.5 322.5,266.5 322.0,270.5 320.0,275.0 318.0,278.5 316.0,282.5 313.5,286.5 309.5,293.5 306.0,297.5 301.5,300.5 299.0,304.5 298.0,308.5 299.5,311.0 304.5,313.0 309.0,314.0 313.5,316.0 317.5,317.0 321.5,318.5" stroke="black" stroke-width="1" fill="none" />
 <polyline points="306.5,309.0 303.0,305.0" stroke="black" stroke-width="1" fill="none" />
 <polyline points="298.5,257.0 295.0,253.0 291.5,252.0 287.5,252.0 283.0,252.0 279.0,252.5 274.5,252.5 270.5,254.0" stroke="black" stroke-width="1" fill="none" />
 <polyline points="266.5,257.5 270.5,250.0 274.5,246.0 278.5,244.5 282.5,243.5 287.0,243.0 290.5,243.0 294.5,243.0 298.5,243.5 302.5,244.5 306.5,246.0 310.5,248.0 314.0,250.5" stroke="black" stroke-width="1" fill="none" />
 <polyline points="305.5,248.0 312.0,251.5 316.0,255.5 318.0,260.0 318.5,264.0 317.5,268.0 317.5,272.5 315.5,276.5" stroke="black" stroke-width="1" fill="none" />
 <polyline points="298.5,257.0 298.5,256.5 298.5,256.0 298.5,255.5 297.5,254.5 296.5,253.5" stroke="black" stroke-width="1" fill="none" />
 <polyline points="298.0,249.5 294.0,248.0 290.0,246.5 286.0,246.0 282.5,246.5" stroke="black" stroke-width="1" fill="none" />
 <polyline points="280.0,242.5 272.5,247.0 268.5,251.0 266.5,255.0 265.5,259.0" stroke="black" stroke-width="1" fill="none" />
 <polyline points="261.0,254.0 261.5,250.0" stroke="black" stroke-width="1" fill="none" />
 <polyline points="259.0,248.5 258.0,252.5 260.0,254.5 260.5,249.0 264.5,250.5 268.5,249.5 272.0,246.0 276.0,243.5 279.5,242.0 283.5,242.0 287.5,242.0 291.5,242.0 295.5,242.5 299.5,243.5 303.5,245.0 307.0,246.0 311.0,248.0 315.0,251.5 319.5,257.0 323.5,262.0 327.0,263.5" stroke="black" stroke-width="1" fill="none" />
 <polyline points="303.0,246.5 311.0,250.5 316.0,255.0 319.0,259.0 320.5,262.5 321.0,266.5 320.5,270.5 319.0,275.0 317.5,279.0 315.0,282.5 312.5,286.5 308.5,293.0 299.5,297.0 299.5,297.0 303.0,295.0 307.0,293.5 307.5,289.0 302.0,292.5" stroke="black" stroke-width="1" fill="none" />
 <polyline points="277.5,295.0 272.5,290.5 269.5,286.0 267.5,282.5 266.5,278.5 265.0,275.0 264.5,270.5 261.5,270.5" stroke="black" stroke-width="1" fill="none" />
 <polyline points="261.0,271.5 262.5,275.5 263.0,279.0 264.5,282.5 266.0,286.0 268.5,290.5 272.5,294.0 279.5,297.5" stroke="black" stroke-width="1" fill="none" />
 <polyline points="275.0,292.5 270.5,288.5 268.0,285.0 266.5,281.0 265.0,277.5 264.0,273.5 263.5,269.5" stroke="black" stroke-width="1" fill="none" />
 <polyline points="253.0,254.5 252.5,251.0 248.5,251.0 244.5,252.0 241.0,253.5 237.0,256.0" stroke="black" stroke-width="1" fill="none" />
 <polyline points="236.5,261.0 240.5,259.0 244.5,258.0 249.0,257.5 253.0,256.0" stroke="black" stroke-width="1" fill="none" />
 <polyline points="253.0,255.5 252.5,251.0" stroke="black" stroke-width="1" fill="none" />
 <polyline points="248.5,252.5 239.5,256.0 237.0,263.0 235.5,266.5 233.0,270.5 234.5,267.0" stroke="black" stroke-width="1" fill="none" />
 <polyline points="219.0,264.5 214.5,265.0 214.0,262.0 218.5,258.0" stroke="black" stroke-width="1" fill="none" />
 <polyline points="204.5,260.5 204.0,259.0 203.5,257.5 203.5,256.0" stroke="black" stroke-width="1" fill="none" />
 <polyline points="198.5,265.0 196.0,269.0 198.5,265.0 202.5,264.5 209.0,266.0 213.5,264.5 217.5,261.0 216.5,261.5 213.0,265.5" stroke="black" stroke-width="1" fill="none" />
 <polyline points="209.5,270.5 206.0,268.0 202.0,269.0 198.0,276.5" stroke="black" stroke-width="1" fill="none" />
 <polyline points="204.5,281.5 203.5,285.5 204.0,290.0 205.0,294.0 207.5,298.5" stroke="black" stroke-width="1" fill="none" />
 <polyline points="191.5,282.0 187.5,283.0 189.5,282.0" stroke="black" stroke-width="1" fill="none" />
 <polyline points="191.5,265.0 189.0,265.5 187.0,264.0 183.0,265.5" stroke="black" stroke-width="1" fill="none" />
 <polyline points="184.0,265.0 182.5,269.0 186.0,270.0 190.0,270.0 194.0,269.0" stroke="black" stroke-width="1" fill="none" />
 <polyline points="186.0,264.5 189.5,265.0 193.0,266.0 197.5,268.5 201.5,265.5 200.5,269.5 198.5,273.5 198.0,277.5 199.5,281.5 199.0,285.5 199.0,289.5 201.5,293.5 203.5,298.0 207.5,302.0 210.5,308.5" stroke="black" stroke-width="1" fill="none" />
 <polyline points="209.5,269.5 208.0,269.0 206.5,268.5 205.5,268.0 204.5,267.5" stroke="black" stroke-width="1" fill="none" />
 <polyline points="179.0,269.5 175.5,270.5 171.0,270.0 167.5,271.0 163.5,271.0 159.5,271.5 155.5,271.5" stroke="black" stroke-width="1" fill="none" />
 <polyline points="155.0,272.0 150.5,275.0 154.0,273.0 156.0,270.5 159.5,269.5 163.0,268.5 167.0,268.5" stroke="black" stroke-width="1" fill="none" />
 <polyline points="148.0,269.5 147.5,268.0 147.0,266.5 146.5,266.0 146.5,266.0 146.0,266.5 145.5,266.5 145.0,266.5" stroke="black" stroke-width="1" fill="none" />
 <polyline points="143.5,265.0 147.0,269.0" stroke="black" stroke-width="1" fill="none" />
 <polyline points="147.5,270.0 143.5,267.5 139.5,267.5 136.0,268.0 132.0,268.5 128.0,269.5 123.5,269.5 119.5,268.5 114.0,273.5 110.0,274.5 105.5,279.0 101.5,284.0 97.5,288.0 93.5,288.0 90.0,287.0 86.0,286.5 82.0,285.0 78.0,284.0 74.5,281.5 70.5,279.5 66.5,278.0 62.5,277.0 58.5,275.5" stroke="black" stroke-width="1" fill="none" />
 <polyline points="54.5,274.0 54.0,275.5 53.5,276.5 52.5,276.5 52.0,276.0" stroke="black" stroke-width="1" fill="none" />
 <polyline points="65.5,282.0 69.5,285.0 73.0,289.0 77.0,292.0 81.0,295.5 85.0,298.5 88.5,302.5 92.5,305.5 96.5,308.5 100.0,311.5 104.0,309.0 108.0,308.5 111.5,308.0 111.0,312.0 110.0,317.0 114.5,319.0" stroke="black" stroke-width="1" fill="none" />
 <polyline points="110.5,317.5 110.0,318.5" stroke="black" stroke-width="1" fill="none" />
 <polyline points="110.5,317.0 108.0,322.0 104.5,326.5 108.0,330.5 105.5,334.5 98.5,336.5 94.5,340.5 97.0,344.5 97.5,345.0" stroke="black" stroke-width="1" fill="none" />
 <polyline points="95.0,341.5 99.0,337.5 103.0,334.0" stroke="black" stroke-width="1" fill="none" />
 <polyline points="106.5,336.0 107.5,337.0 108.0,337.5 108.5,338.5" stroke="black" stroke-width="1" fill="none" />
 <polyline points="109.0,347.5 112.5,351.0" stroke="black" stroke-width="1" fill="none" />
 <polyline points="108.0,346.0 104.0,347.5" stroke="black" stroke-width="1" fill="none" />
 <polyline points="102.5,358.0 98.5,359.0 94.5,359.0 91.0,359.0 87.0,359.5" stroke="black" stroke-width="1" fill="none" />
 <polyline points="88.5,357.5 87.5,362.5 80.0,366.5 73.0,370.5" stroke="black" stroke-width="1" fill="none" />
 <polyline points="61.5,372.5 59.0,374.0 63.0,373.0 67.5,372.0 71.5,370.5 75.5,368.0 80.0,366.5 84.0,365.0 87.5,362.5 91.5,362.5" stroke="black" stroke-width="1" fill="none" />
 <polyline points="89.0,363.0 88.5,364.5" stroke="black" stroke-width="1" fill="none" />
 <polyline points="97.0,359.5 97.0,359.0 96.5,358.0 96.0,357.5" stroke="black" stroke-width="1" fill="none" />
 <polyline points="83.0,345.5 82.5,345.5 82.5,344.0 81.5,342.0 81.0,341.0" stroke="black" stroke-width="1" fill="none" />
 <polyline points="81.0,341.0 85.0,343.0" stroke="black" stroke-width="1" fill="none" />
 <polyline points="80.0,348.5 76.0,347.0 72.5,346.5 68.5,350.5 64.5,352.5 60.5,355.5 56.5,359.0 52.0,359.5 48.0,365.0" stroke="black" stroke-width="1" fill="none" />
 <polyline points="51.5,360.0 48.5,363.5 47.5,367.5 46.5,371.5 46.5,375.5" stroke="black" stroke-width="1" fill="none" />
 <polyline points="43.5,378.5 39.0,378.5 35.0,379.0 31.0,379.5 27.0,381.0 23.0,383.5 19.5,387.0 15.5,390.5 11.5,394.0 7.5,399.5 3.5,404.5 5.5,403.0 8.0,399.0 11.0,395.5 15.5,391.5 20.5,387.5 24.5,383.5 32.0,379.5" stroke="black" stroke-width="1" fill="none" />
 <polyline points="61.0,355.0 68.5,350.5 71.5,346.5" stroke="black" stroke-width="1" fill="none" />
 <polyline points="75.5,346.5 77.0,347.0 78.5,348.0 79.5,349.0 80.5,349.5" stroke="black" stroke-width="1" fill="none" />
 <polyline points="89.5,329.0 93.0,328.5 97.0,326.5 100.5,324.0 104.0,320.5" stroke="black" stroke-width="1" fill="none" />
 <polyline points="102.0,317.5 98.0,313.5 94.0,311.0 90.0,308.0 86.0,305.0 82.5,301.5 79.0,298.5 75.5,295.5 71.5,293.0" stroke="black" stroke-width="1" fill="none" />
 <polyline points="73.0,293.0 77.5,297.0 82.5,301.0 87.5,305.0 93.0,309.5 98.0,313.5 102.5,317.5 105.5,321.0 100.0,325.0" stroke="black" stroke-width="1" fill="none" />
 <polyline points="102.5,325.5 103.5,330.0 104.0,334.0 107.0,339.0" stroke="black" stroke-width="1" fill="none" />
 <polyline points="108.0,327.0 112.0,327.0" stroke="black" stroke-width="1" fill="none" />
 <polyline points="112.5,323.5 108.5,322.5 104.5,327.0 100.0,328.0" stroke="black" stroke-width="1" fill="none" />
 <polyline points="101.5,310.0 102.0,309.5 103.5,309.0 104.0,308.0 105.5,307.5 107.0,307.5" stroke="black" stroke-width="1" fill="none" />
 <polyline points="113.0,306.5 112.5,310.5 109.5,314.5" stroke="black" stroke-width="1" fill="none" />
 <polyline points="120.0,310.0 124.0,309.5 127.0,309.5 127.0,313.5" stroke="black" stroke-width="1" fill="none" />
 <polyline points="125.5,313.5 127.5,313.0 126.5,309.0" stroke="black" stroke-width="1" fill="none" />
 <polyline points="121.0,308.0 120.5,312.0" stroke="black" stroke-width="1" fill="none" />
 <polyline points="101.5,285.5 103.5,281.5 106.0,277.5 110.5,273.5" stroke="black" stroke-width="1" fill="none" />
 <polyline points="112.5,270.5 106.5,274.0 105.0,275.5 102.0,271.5" stroke="black" stroke-width="1" fill="none" />
 <polyline points="101.5,272.0 99.0,271.0" stroke="black" stroke-width="1" fill="none" />
 <polyline points="85.0,284.5 75.5,280.5 68.0,276.5" stroke="black" stroke-width="1" fill="none" />
 <polyline points="63.5,285.5 64.0,289.0 64.5,293.0 67.0,296.5 68.5,300.0 69.0,303.5 70.5,307.5 72.0,311.5 73.0,315.5 74.5,319.5 75.5,323.5 76.5,327.5 77.5,332.0 78.0,336.0 80.0,340.5 81.5,345.0 82.5,349.5 85.0,348.5 88.5,349.5 92.5,347.5 96.5,346.5" stroke="black" stroke-width="1" fill="none" />
 <polyline points="65.0,292.5 68.0,290.0 67.5,291.0" stroke="black" stroke-width="1" fill="none" />
 <polyline points="68.0,290.0 68.5,294.0 71.5,293.5 73.0,297.5 74.5,301.0 75.5,305.0 76.5,309.5 77.0,313.5 78.0,317.5 79.0,321.0 80.0,325.0 81.5,329.0 82.5,333.0 83.0,337.0 82.5,341.5" stroke="black" stroke-width="1" fill="none" />
 <polyline points="71.5,295.5 64.5,291.5" stroke="black" stroke-width="1" fill="none" />
 <polyline points="97.5,244.0 93.5,236.5" stroke="black" stroke-width="1" fill="none" />
 <polyline points="89.5,230.0 85.5,227.0" stroke="black" stroke-width="1" fill="none" />
 <polyline points="86.0,227.5 91.0,232.0 93.5,236.0 94.5,240.0 96.0,243.5 102.0,247.5 100.5,252.0 104.0,253.5 108.0,254.5 112.0,255.5 116.0,258.0" stroke="black" stroke-width="1" fill="none" />
 <polyline points="110.5,254.0 116.0,258.0 119.0,262.0 119.5,266.0 118.5,270.0" stroke="black" stroke-width="1" fill="none" />
 <polyline points="125.0,207.0 123.5,206.0" stroke="black" stroke-width="1" fill="none" />
 <polyline points="122.0,204.5 126.0,209.0 130.0,208.0 134.0,208.0 137.5,207.0 142.0,208.0 145.5,207.5 149.5,205.0" stroke="black" stroke-width="1" fill="none" />
 <polyline points="148.5,206.0 151.0,208.0 155.5,208.0" stroke="black" stroke-width="1" fill="none" />
 <polyline points="168.0,201.5 168.0,197.0 168.0,197.5" stroke="black" stroke-width="1" fill="none" />
 <polyline points="169.5,198.0 169.5,198.5 170.5,198.5 170.5,199.0 170.5,199.5 170.5,199.5 171.0,200.5" stroke="black" stroke-width="1" fill="none" />
 <polyline points="170.5,197.0 169.0,200.5 168.5,204.5" stroke="black" stroke-width="1" fill="none" />
 <polyline points="176.5,203.0 178.0,199.5 177.0,195.5 168.5,189.0 165.0,190.5" stroke="black" stroke-width="1" fill="none" />
 <polyline points="167.0,187.5 165.0,191.5 165.5,195.5 166.0,199.5 166.0,203.5 171.5,204.0 177.5,202.5 184.5,203.5 188.5,203.5 192.5,203.5" stroke="black" stroke-width="1" fill="none" />
 <polyline points="194.0,201.0 192.0,198.0 187.5,199.5 187.5,196.0" stroke="black" stroke-width="1" fill="none" />
 <polyline points="181.0,196.5 181.0,200.5 183.0,204.5" stroke="black" stroke-width="1" fill="none" />
 <polyline points="182.0,202.0 179.5,198.0 179.5,194.0 174.0,192.5" stroke="black" stroke-width="1" fill="none" />
 <polyline points="175.5,193.5 179.0,197.5 179.0,201.5" stroke="black" stroke-width="1" fill="none" />
 <polyline points="172.5,204.0 173.5,200.0 172.5,195.5 172.5,191.5 169.5,188.0" stroke="black" stroke-width="1" fill="none" />
 <polyline points="201.5,203.0 206.0,203.0" stroke="black" stroke-width="1" fill="none" />
 <polyline points="206.5,194.0 210.5,189.0 211.0,187.0 214.0,184.5 218.0,182.0 222.0,179.5 226.0,173.5 230.0,171.5" stroke="black" stroke-width="1" fill="none" />
 <polyline points="235.5,165.0 239.5,161.5 243.5,161.5 247.5,160.5 251.5,158.5 255.5,155.0 259.5,149.5 263.5,143.0 268.5,141.0 272.0,138.5 276.5,138.5 280.0,142.0 284.0,141.5 288.0,140.5" stroke="black" stroke-width="1" fill="none" />
 <polyline points="277.5,141.0 274.5,137.5" stroke="black" stroke-width="1" fill="none" />
 <polyline points="266.5,140.0 263.5,144.5 261.0,147.5 260.5,151.5 258.0,155.5 260.0,153.0 262.5,148.0 261.0,145.5 258.5,149.5 257.5,153.5" stroke="black" stroke-width="1" fill="none" />
 <polyline points="252.5,153.5 252.0,149.0 251.5,145.0 251.0,141.0 246.5,140.5 242.5,140.5 238.5,140.5 234.5,141.0 230.5,141.5 226.5,141.5 222.5,141.5 218.5,141.5 214.0,142.0 210.0,141.5 206.0,141.5 202.0,141.5 198.0,141.5 194.0,142.5 190.0,142.5 186.5,143.0 183.0,143.0 179.0,143.0 174.5,143.5 170.0,144.0 166.0,144.0 161.5,143.5" stroke="black" stroke-width="1" fill="none" />
 <polyline points="154.0,142.0 158.0,140.0 162.0,140.5 165.5,140.0 169.5,140.0 173.5,140.0 177.5,140.0 181.5,139.0 185.5,138.5" stroke="black" stroke-width="1" fill="none" />
 <polyline points="177.0,136.5 173.0,137.0 168.5,137.5" stroke="black" stroke-width="1" fill="none" />
 <polyline points="178.0,133.0 178.0,133.0" stroke="black" stroke-width="1" fill="none" />
 <polyline points="180.0,129.0 182.0,125.0 183.0,121.0" stroke="black" stroke-width="1" fill="none" />
 <polyline points="177.5,125.5 176.0,121.5 172.5,117.5" stroke="black" stroke-width="1" fill="none" />
 <polyline points="166.0,117.5 162.0,121.5 161.5,122.5 165.5,119.0 170.0,118.0 174.0,118.0 178.0,123.5 181.5,126.0 179.5,122.0 181.5,120.0 185.5,119.0 189.5,119.0 191.5,120.5 191.5,124.5 190.5,129.0 185.5,133.0 184.0,137.5 185.5,137.0" stroke="black" stroke-width="1" fill="none" />
 <polyline points="192.5,138.5 195.0,134.5 190.0,131.0 186.0,133.5 182.0,136.0 177.5,131.5 173.5,128.0 169.0,130.5 166.0,119.5" stroke="black" stroke-width="1" fill="none" />
 <polyline points="165.5,119.0 168.0,123.0 170.5,127.5 173.5,128.5 177.5,132.0 180.5,136.0" stroke="black" stroke-width="1" fill="none" />
 <polyline points="194.0,132.0 194.5,136.0 191.5,137.5 193.5,139.5 198.0,140.0 202.5,140.0 206.5,140.5" stroke="black" stroke-width="1" fill="none" />
 <polyline points="210.0,133.0 211.0,129.5 213.0,125.5 218.5,126.0 214.5,127.5" stroke="black" stroke-width="1" fill="none" />
 <polyline points="215.0,125.5 211.0,127.5 214.5,122.5 218.5,121.5 222.5,124.0 219.5,127.5 217.5,131.0 222.0,132.0 226.0,132.0 230.0,130.0 234.5,129.0 238.5,130.0" stroke="black" stroke-width="1" fill="none" />
 <polyline points="235.5,132.5 235.5,133.0 236.0,134.0 237.0,134.5 238.0,134.5 238.5,135.0 240.0,135.5 240.5,136.5" stroke="black" stroke-width="1" fill="none" />
 <polyline points="232.5,132.5 231.5,133.0 231.0,133.5 230.5,134.0 230.5,134.0 230.0,134.5 229.0,135.5" stroke="black" stroke-width="1" fill="none" />
 <polyline points="226.5,124.5 230.5,120.0 235.0,120.5 239.0,124.0" stroke="black" stroke-width="1" fill="none" />
 <polyline points="237.0,130.0 234.5,126.5 230.0,126.0 228.5,122.0" stroke="black" stroke-width="1" fill="none" />
 <polyline points="228.5,118.5 225.5,122.5 225.0,126.5" stroke="black" stroke-width="1" fill="none" />
 <polyline points="220.0,125.0 219.5,128.5 212.5,133.0 211.5,134.0 216.0,131.5 224.0,133.0" stroke="black" stroke-width="1" fill="none" />
 <polyline points="222.5,137.0 218.5,135.0 214.5,136.5 217.5,130.5 217.0,126.5" stroke="black" stroke-width="1" fill="none" />
 <polyline points="217.0,122.5 212.5,126.5 210.5,130.5 210.0,134.5 210.0,139.5 214.0,139.5 218.0,139.0 221.5,139.0 225.0,138.5 229.5,138.5 233.0,139.0 237.5,138.5 241.0,138.0" stroke="black" stroke-width="1" fill="none" />
 <polyline points="250.5,142.0 251.0,146.0 251.5,150.5 251.5,154.5" stroke="black" stroke-width="1" fill="none" />
 <polyline points="249.0,159.0 249.0,159.0 248.5,159.5 247.5,159.5 247.0,160.0 246.5,161.0" stroke="black" stroke-width="1" fill="none" />
 <polyline points="239.0,160.5 235.5,164.5 234.5,168.0 229.0,172.0 225.5,176.5 222.5,180.5 215.0,184.5 213.0,188.5 211.5,192.0 211.5,196.0 210.0,199.5 207.0,204.0 202.5,208.0 205.0,209.5 204.0,212.0 203.5,216.0 203.5,219.5 204.0,223.0 204.5,227.0 204.5,230.5 203.0,235.0 202.5,238.5 203.5,243.0 204.0,247.0 203.5,251.0 204.0,255.0 205.0,259.0 205.5,263.0 201.0,266.0 195.5,270.5 195.5,274.5 194.0,278.5 192.5,282.5" stroke="black" stroke-width="1" fill="none" />
 <polyline points="210.5,199.0 206.5,203.5 202.5,207.0 198.5,210.5 195.0,210.5 190.5,211.0 186.5,210.5 182.0,211.0 177.5,211.5 173.5,211.5 169.5,211.5 166.0,212.0 162.5,212.5 159.0,212.5 155.0,213.0 151.0,213.5 147.0,213.0 142.5,212.5 138.5,212.5 134.0,212.5 130.5,212.5 126.5,212.5 122.5,213.5 118.5,213.5 114.5,214.0 111.0,214.0 107.0,214.0 103.0,214.0 99.5,214.5 95.5,215.0 91.5,214.5 87.5,215.0 83.5,215.0 79.0,214.5 75.0,214.0 71.0,214.0 67.0,214.5 63.0,214.5 59.0,215.0 55.0,215.5 51.0,216.5" stroke="black" stroke-width="1" fill="none" />
 <polyline points="51.5,217.0 51.5,221.0 51.5,225.0 52.0,229.5 52.5,233.0 53.5,237.0 54.0,241.0 53.5,244.5 54.0,248.0 54.5,252.0 55.5,255.5 55.0,260.0 55.5,263.5 55.5,267.5 56.0,272.0 62.0,276.0" stroke="black" stroke-width="1" fill="none" />
 <polyline points="44.0,216.5 44.0,220.5 44.5,224.0 44.5,228.0 45.5,232.0 45.5,235.5 46.5,239.5 47.0,244.0 47.5,248.0 48.0,252.0 49.0,256.0 49.5,259.5 49.5,263.0 49.5,267.0 50.0,271.0 51.0,275.0 53.0,277.5 57.0,281.0 61.0,281.0 65.0,282.0 69.0,285.5 73.5,290.0 78.5,294.0 84.0,298.0 89.5,302.0 94.5,306.0 99.5,310.0 103.5,311.0 107.5,309.0 104.0,313.5 108.5,310.5 106.0,314.5 110.5,314.5 116.0,318.5 115.0,323.0 112.0,327.0 112.0,331.5 112.0,335.5 112.0,339.0 111.0,342.5 107.5,346.5 112.0,350.5 112.5,355.0 114.5,355.5 118.5,353.5 116.5,354.0" stroke="black" stroke-width="1" fill="none" />
 <polyline points="121.5,209.5 121.5,205.5 120.5,201.5 120.5,197.5 120.5,193.0 121.0,189.0 120.0,184.5 119.5,180.0 117.5,176.0 116.5,174.0" stroke="black" stroke-width="1" fill="none" />
 <polyline points="116.0,175.5 117.5,179.5 120.0,183.5 120.0,188.0 121.0,192.5 121.0,196.0 121.0,200.0 121.5,204.0 122.5,208.0" stroke="black" stroke-width="1" fill="none" />
 <polyline points="130.5,201.5 126.5,197.5" stroke="black" stroke-width="1" fill="none" />
 <polyline points="129.5,195.0 125.5,193.5" stroke="black" stroke-width="1" fill="none" />
 <polyline points="123.5,194.5 127.5,202.5" stroke="black" stroke-width="1" fill="none" />
 <polyline points="131.5,194.0 131.0,189.5 131.0,189.5" stroke="black" stroke-width="1" fill="none" />
 <polyline points="131.5,189.5 131.5,193.5 130.5,198.0" stroke="black" stroke-width="1" fill="none" />
 <polyline points="126.5,202.5 124.0,199.0 122.5,194.5 124.0,190.5 123.0,189.0" stroke="black" stroke-width="1" fill="none" />
 <polyline points="123.0,188.0 123.0,191.5 123.0,196.0 125.5,200.0" stroke="black" stroke-width="1" fill="none" />
 <polyline points="133.5,203.0 129.5,199.0 126.0,194.0 125.5,190.0" stroke="black" stroke-width="1" fill="none" />
 <polyline points="123.5,184.0 119.5,179.0" stroke="black" stroke-width="1" fill="none" />
 <polyline points="126.0,180.5 124.5,184.5 127.0,180.5 131.0,181.0 132.0,183.5 133.0,187.0 136.0,190.0 136.5,193.5 138.0,197.5 139.0,201.5 139.0,205.0 135.5,205.5" stroke="black" stroke-width="1" fill="none" />
 <polyline points="135.5,202.5 133.5,199.0 134.0,195.0 133.0,190.5" stroke="black" stroke-width="1" fill="none" />
 <polyline points="136.5,186.5 136.0,186.5 136.0,187.0 135.0,186.5 134.0,186.5 133.5,187.0 132.5,186.0 132.5,185.0" stroke="black" stroke-width="1" fill="none" />
 <polyline points="103.5,181.5 104.5,185.5 105.0,190.0 105.0,194.0 105.0,198.5 105.5,202.5 105.5,206.5" stroke="black" stroke-width="1" fill="none" />
 <polyline points="93.5,208.0 89.5,206.5" stroke="black" stroke-width="1" fill="none" />
 <polyline points="87.5,185.5 91.5,183.5" stroke="black" stroke-width="1" fill="none" />
 <polyline points="93.0,180.5 89.0,180.5" stroke="black" stroke-width="1" fill="none" />
 <polyline points="87.5,179.0 91.5,178.0 93.5,180.5" stroke="black" stroke-width="1" fill="none" />
 <polyline points="94.0,178.5 96.0,185.5 96.5,190.0 96.5,194.5 97.0,198.5 97.5,202.0" stroke="black" stroke-width="1" fill="none" />
 <polyline points="80.5,211.0 76.5,211.0 72.5,211.0 68.0,211.5 62.0,211.0 58.5,210.5 55.5,210.0 53.0,206.0" stroke="black" stroke-width="1" fill="none" />
 <polyline points="52.5,208.0 56.5,211.0 60.5,210.0 64.5,209.5" stroke="black" stroke-width="1" fill="none" />
 <polyline points="65.0,210.5 66.0,210.0 66.5,209.5 65.5,209.0 64.0,208.5 62.5,208.0" stroke="black" stroke-width="1" fill="none" />
 <polyline points="52.0,212.0 48.0,213.0" stroke="black" stroke-width="1" fill="none" />
 <polyline points="48.0,212.5 46.5,216.5 47.0,220.5 47.5,224.0 48.0,228.0 48.0,232.0 48.5,235.5 49.0,239.5 49.5,243.5 50.0,247.5 50.0,251.0 50.5,255.5 51.0,259.5 51.5,263.5 52.0,267.5 52.5,271.5 52.5,277.5 53.5,278.5" stroke="black" stroke-width="1" fill="none" />
 <polyline points="79.0,175.0 83.5,173.0" stroke="black" stroke-width="1" fill="none" />
 <polyline points="84.5,166.5 88.5,168.0" stroke="black" stroke-width="1" fill="none" />
 <polyline points="91.5,167.0 88.0,169.0 90.0,167.5 94.0,166.5 97.5,166.0 92.0,170.0 97.5,169.5 101.5,173.0" stroke="black" stroke-width="1" fill="none" />
 <polyline points="97.5,165.0 93.5,164.5 89.5,165.0 85.5,165.0" stroke="black" stroke-width="1" fill="none" />
 <polyline points="85.0,164.0 85.0,168.0 81.0,172.0 79.0,176.0 79.5,180.5 80.0,184.5 80.5,189.0 80.5,193.0 81.0,197.5 81.5,201.0 82.0,205.0 82.5,209.0 84.5,211.0 88.5,211.0 92.5,211.0 96.5,210.5 101.0,211.0 105.0,210.5 109.0,210.5 113.0,210.0 117.5,210.0 121.5,209.5" stroke="black" stroke-width="1" fill="none" />
 <polyline points="96.5,208.0 94.5,206.0 90.5,205.5 90.0,204.5 89.5,200.5 89.0,196.5 89.5,192.5 89.5,188.5 90.0,184.5 92.0,178.5" stroke="black" stroke-width="1" fill="none" />
 <polyline points="95.0,164.5 96.5,169.0 100.5,173.5 103.0,177.5 101.5,182.0 101.0,185.5 102.0,190.0 103.0,194.5 103.0,198.0 103.0,202.0 103.5,206.0 105.5,210.5" stroke="black" stroke-width="1" fill="none" />
 <polyline points="159.0,207.5 159.0,203.5 159.0,199.5 158.0,195.5 157.5,191.0 157.5,186.5 158.0,182.5 157.5,178.5 157.0,174.5 157.5,171.0 157.0,167.0 156.0,163.0 155.5,158.5 155.5,155.0 155.0,151.0 154.5,147.0 154.0,143.0 155.5,138.5" stroke="black" stroke-width="1" fill="none" />
 <polyline points="219.5,122.5 223.0,126.5" stroke="black" stroke-width="1" fill="none" />
 <polyline points="232.0,122.0 232.5,126.0 228.5,131.0 227.5,136.0 231.5,133.0 235.5,133.0 239.5,135.0" stroke="black" stroke-width="1" fill="none" />
 <polyline points="244.0,135.0 242.0,131.5 239.5,127.5 237.5,124.0 232.5,120.0" stroke="black" stroke-width="1" fill="none" />
 <polyline points="216.0,176.0 215.5,180.0" stroke="black" stroke-width="1" fill="none" />
 <polyline points="214.5,178.5 215.0,174.5 214.0,176.0" stroke="black" stroke-width="1" fill="none" />
 <polyline points="210.0,183.5 211.0,188.0 207.0,192.0 207.0,195.5 207.0,197.0 200.5,201.0 204.0,202.0 203.0,200.0 207.0,197.0" stroke="black" stroke-width="1" fill="none" />
 <polyline points="213.0,195.0 213.5,191.0" stroke="black" stroke-width="1" fill="none" />
 <polyline points="255.5,221.5 254.5,226.0 251.5,230.0 247.0,234.5 243.5,239.0 241.5,243.0 240.0,246.5 237.5,250.0 238.0,249.0 242.0,240.5 245.5,235.5 249.5,232.0 254.0,227.5" stroke="black" stroke-width="1" fill="none" />
 <polyline points="275.0,232.0 267.0,236.5 263.5,241.0 260.0,244.5 264.0,240.5 268.5,236.5 272.0,235.5 276.0,232.5 280.0,231.5 284.0,233.0 288.0,234.0 292.0,233.0 296.0,234.5 300.0,235.5 304.0,236.0 308.5,237.5 312.5,241.0 316.0,242.5" stroke="black" stroke-width="1" fill="none" />
 <polyline points="315.5,242.0 311.0,241.0 305.5,237.0" stroke="black" stroke-width="1" fill="none" />
 <polyline points="300.0,243.5 310.0,247.5 315.0,251.5 319.5,259.5 325.5,258.5 329.5,260.5 330.0,262.5 336.5,265.0 340.5,266.0 340.5,270.0 339.5,274.0 339.0,281.5 343.0,286.5 347.0,290.5" stroke="black" stroke-width="1" fill="none" />
 <polyline points="356.0,257.0 347.5,261.0 344.0,265.0 345.0,264.0 349.5,260.0 353.5,258.0 357.5,257.0 362.5,257.0 367.0,256.5 371.0,257.0 375.0,258.0 379.0,259.0 383.0,261.0 387.0,263.5 390.5,268.5 394.5,276.0" stroke="black" stroke-width="1" fill="none" />
 <polyline points="374.5,256.5 372.5,252.5 372.5,248.5 374.5,244.0 375.5,240.5 374.5,236.5 374.0,232.5 378.0,228.5 381.0,224.5" stroke="black" stroke-width="1" fill="none" />
 <polyline points="385.0,190.5 385.0,190.0 384.5,189.5 384.0,189.0 383.5,187.5" stroke="black" stroke-width="1" fill="none" />
 <polyline points="367.0,217.5 363.0,208.5 359.0,203.0 355.0,198.5 351.5,194.5 347.5,191.0 343.5,189.0 339.5,187.0 335.5,186.5 331.0,185.0 327.0,182.5 323.0,180.5" stroke="black" stroke-width="1" fill="none" />
 <polyline points="324.5,183.5 330.0,187.5" stroke="black" stroke-width="1" fill="none" />
 <polyline points="325.5,186.0 321.5,183.5" stroke="black" stroke-width="1" fill="none" />
 <polyline points="321.5,184.5 321.0,185.0 322.5,185.5 323.5,185.5 325.5,186.0 325.5,186.0 327.0,186.5" stroke="black" stroke-width="1" fill="none" />
 <polyline points="340.5,189.0 348.0,192.5 352.0,196.5 356.0,200.0 360.0,204.0 362.5,207.5 365.0,212.0 366.5,216.5 368.5,220.5 369.5,225.5 370.5,229.5 371.5,233.0 371.0,237.0 371.0,240.5 370.0,244.5 370.0,248.0 367.5,252.5 371.5,258.0 381.5,262.0 386.5,266.0 389.5,270.0 391.5,274.0 395.5,278.0 394.0,282.5 393.0,286.5 391.5,290.5 390.0,295.0 387.0,299.0 384.5,303.0 381.0,306.5 375.0,310.5 367.5,314.5 365.5,318.5 364.0,323.0 362.5,327.0 360.5,331.0 359.0,335.5 358.0,339.5 356.5,344.0 354.5,348.0 353.0,352.0 351.0,356.0 349.0,360.0 346.5,364.0 343.5,367.5 341.0,371.5 339.0,375.0 339.0,379.0 338.5,383.0 337.5,386.5 335.5,390.5 333.0,394.5 329.0,398.5 325.5,402.5 320.5,407.0 314.0,411.0 318.5,408.5 322.5,406.5 326.5,403.5 331.0,399.0 335.0,393.0" stroke="black" stroke-width="1" fill="none" />
 <polyline points="270.5,246.0 277.0,242.0" stroke="black" stroke-width="1" fill="none" />
 <polyline points="289.5,234.0 290.0,234.0" stroke="black" stroke-width="1" fill="none" />
 <polyline points="292.0,233.5 291.5,233.5 290.5,234.0 290.5,234.0 294.0,233.0 294.5,233.0 295.5,233.5 296.0,234.5" stroke="black" stroke-width="1" fill="none" />
 <polyline points="329.0,142.5 324.5,142.5 320.0,138.0" stroke="black" stroke-width="1" fill="none" />
 <polyline points="340.0,146.0 343.5,149.0 349.5,153.0 351.5,157.0" stroke="black" stroke-width="1" fill="none" />
 <polyline points="382.0,114.5 381.5,118.5 382.5,122.5 382.5,126.0 383.5,130.0 384.0,134.0 384.5,138.0 384.5,142.0 385.0,146.0 385.0,150.0 385.0,153.5 385.5,157.5 385.0,161.5 385.0,165.5 385.5,169.5 385.0,173.0 385.5,176.5 385.5,180.0 386.5,184.0 386.5,188.0 387.0,191.5 387.0,196.0 387.0,200.0 388.0,204.0 387.5,208.0 387.5,211.5 387.5,216.0 387.0,220.0 387.5,224.0 387.5,228.0 388.0,232.0 388.0,236.0 388.0,240.0 388.5,244.0 389.0,248.0 389.5,251.5 390.0,255.5 390.0,259.5 390.0,264.0" stroke="black" stroke-width="1" fill="none" />
 <polyline points="383.0,189.5 382.0,185.5 381.0,181.5 381.5,177.5 381.5,173.5 381.5,169.5 382.0,165.5 382.0,161.5 382.0,158.0 382.0,154.0 382.5,149.5 382.0,145.0 382.0,141.0 382.0,137.0 382.0,133.5 382.0,130.0 381.5,126.0 381.5,122.0 381.0,118.0 380.0,113.5 379.5,109.5 379.5,105.5 379.5,101.0" stroke="black" stroke-width="1" fill="none" />
 <polyline points="416.0,85.5 416.0,89.5 415.5,93.0 415.0,97.0 415.0,101.5 415.0,106.0 414.5,110.0 414.0,114.0 414.5,118.0 414.0,122.5 414.5,126.5 415.0,130.5 415.5,134.5 415.5,139.0 416.5,143.5 417.0,147.0 417.0,151.0 417.0,155.0 417.5,159.0 417.5,163.0 417.5,167.5 417.5,171.0 417.5,175.0 417.5,178.5 418.0,182.5 418.0,186.0 418.0,190.0 417.5,194.5 417.5,198.5 417.5,202.5 418.0,206.0 418.5,210.5 418.5,214.5" stroke="black" stroke-width="1" fill="none" />
 <polyline points="317.0,138.0 317.0,134.0 317.0,130.0 315.5,125.5 315.0,121.0 315.5,117.0 315.0,113.0 315.0,109.0 314.5,105.0 315.0,101.0 314.0,97.0 314.0,93.0" stroke="black" stroke-width="1" fill="none" />
 <polyline points="316.5,80.0 317.0,84.0 316.5,87.5 317.0,91.5 317.0,95.5 317.5,99.0 317.5,103.0 318.5,107.0 318.5,111.0 318.5,114.5 318.5,118.5 319.5,122.5 319.5,127.0 320.0,131.0 320.5,135.5 321.5,139.0 328.5,143.5 333.0,148.0 337.0,146.0 341.0,146.0 345.0,149.5 349.0,153.0" stroke="black" stroke-width="1" fill="none" />
 <polyline points="292.0,138.5 291.0,134.5 291.0,130.0 290.5,126.0 290.0,122.0 289.5,117.5 289.0,113.5 289.0,110.0 289.0,105.5 288.5,101.5 287.5,97.5 287.5,93.5" stroke="black" stroke-width="1" fill="none" />
 <polyline points="283.5,82.0 284.5,86.0 285.0,90.5 284.5,94.5 285.0,99.0 285.5,103.0 285.5,107.0 285.5,111.0 286.0,115.0 287.0,119.0 287.0,122.5 287.5,126.5 288.0,130.5 288.0,134.5 288.5,139.0" stroke="black" stroke-width="1" fill="none" />
 <polyline points="305.0,141.5 305.0,137.5 305.5,133.0 305.5,129.0 305.5,124.5 305.5,120.5 306.0,116.5 306.0,112.5 306.5,108.5 306.5,105.0 306.0,101.0 306.0,96.5 306.0,92.5 305.0,88.5 305.0,85.0 305.0,81.0 304.5,77.5 304.5,73.5" stroke="black" stroke-width="1" fill="none" />
 <polyline points="307.0,59.0 307.0,63.0 307.0,67.0 308.0,71.0 308.0,74.5 308.0,79.0 309.0,83.0 309.0,87.0 309.5,91.5 309.5,95.5 309.5,100.0 309.5,104.0 309.5,107.5 309.5,111.5 309.5,116.0 309.0,120.0 309.5,124.0 309.0,128.0 309.5,131.5 309.5,135.5 310.0,139.0 311.5,141.0" stroke="black" stroke-width="1" fill="none" />
 <polyline points="278.5,43.5 277.0,46.0 273.0,43.0" stroke="black" stroke-width="1" fill="none" />
 <polyline points="272.5,43.0 276.5,47.0 276.5,51.0 277.5,55.0 279.0,59.5 279.5,63.5 280.0,67.5 280.5,71.5 281.0,75.0 281.0,79.0 281.0,83.0 281.0,87.0 280.5,91.5 281.0,95.5 281.0,99.5 281.0,103.0 281.0,107.0 281.0,111.0 281.0,115.5 280.5,119.5 281.0,123.5 281.0,127.5 281.5,131.5 281.5,135.0 281.5,139.0" stroke="black" stroke-width="1" fill="none" />
 <polyline points="430.5,45.5 432.0,49.5 432.5,53.5 433.0,57.5 433.0,61.5 433.5,66.0 433.5,70.0 434.5,74.0 435.0,78.5 435.0,82.5 435.5,87.0 435.5,90.5 436.0,94.5 435.5,98.0 436.0,102.0 436.0,106.5 436.0,110.5 436.0,114.5 436.0,118.5 436.0,122.5 436.0,127.0 436.0,131.0 436.5,135.0 436.5,139.5 437.0,143.0 437.5,147.0 437.5,151.0 437.5,154.5 437.5,158.0 437.5,162.0 438.5,165.5 438.0,170.0 438.5,173.5 438.5,177.5 439.0,182.0 439.0,186.0 439.0,190.0 439.0,194.0 439.5,198.0 440.0,202.0 440.0,206.0 440.5,210.0 440.0,214.0 440.0,217.5 441.0,221.5 441.0,225.5 441.0,229.5 441.5,233.0 442.5,237.0 442.0,241.5 442.0,245.5 442.0,249.5 442.5,253.5 442.5,258.0 443.0,261.5 443.0,265.5 444.0,269.5 444.0,273.5 445.0,277.0 445.0,281.0 445.0,284.5 445.5,288.5 445.0,292.5 445.5,296.5 445.0,300.5 445.5,304.5 445.5,308.5 445.5,313.0 446.5,317.0 446.5,321.5 446.0,325.5 447.0,329.5 446.5,333.5 447.0,338.0 446.5,342.0 446.5,346.0 446.5,350.0 446.5,354.0 446.5,358.0 447.5,362.0 447.5,366.0 447.5,370.0 447.5,374.5 448.0,378.5 448.0,382.5 448.5,386.5 449.0,390.0 449.0,394.0 449.0,397.5 449.5,401.5 450.0,405.5 450.5,409.5 450.5,413.5 451.0,418.0 450.5,422.5 449.5,429.5 450.0,433.5 449.0,437.5" stroke="black" stroke-width="1" fill="none" />
 <polyline points="461.0,590.0 458.5,594.0 458.0,599.5 454.5,601.0 458.0,599.5 462.0,602.0" stroke="black" stroke-width="1" fill="none" />
 <polyline points="449.0,604.5 449.0,605.5 455.5,613.0 459.0,618.5 463.0,628.0" stroke="black" stroke-width="1" fill="none" />
 <polyline points="451.0,623.5 450.0,622.0" stroke="black" stroke-width="1" fill="none" />
 <polyline points="452.5,617.0 452.5,616.5 452.5,616.0 452.5,616.0 452.5,615.5 452.5,615.5 452.5,615.0" stroke="black" stroke-width="1" fill="none" />
 <polyline points="446.5,592.5 444.0,591.5" stroke="black" stroke-width="1" fill="none" />
 <polyline points="444.5,590.5 446.0,594.5 446.5,599.0 446.5,603.0 446.5,607.0 446.0,611.0 446.0,615.0 446.5,618.5 445.5,622.5 444.5,626.5 442.5,631.0 440.5,634.5 437.0,638.5 434.5,642.5 430.5,646.5 427.0,650.5 427.5,654.5 426.5,658.0 423.5,662.0 422.5,667.5 423.0,671.5 423.0,675.5 423.0,679.5 424.0,683.5" stroke="black" stroke-width="1" fill="none" />
 <polyline points="497.5,647.0 497.0,646.5 497.0,646.0 497.0,645.5" stroke="black" stroke-width="1" fill="none" />
 <polyline points="509.0,645.5 512.5,644.5 508.0,645.5 503.5,648.0 499.0,648.5 494.5,650.0 490.5,650.0 486.5,650.0 482.5,650.5 478.5,651.0 474.5,651.0 470.5,651.5 466.5,651.0 465.5,648.5 465.5,644.5 465.5,640.5 465.5,636.5 464.0,632.5 462.5,629.0 461.0,624.5 459.0,620.5 457.0,616.0 454.0,612.0 452.0,608.0 452.0,604.5 450.0,600.5 448.5,596.5 445.5,592.0" stroke="black" stroke-width="1" fill="none" />
 <polyline points="279.5,616.0 278.0,620.0 277.0,624.5 275.5,628.5" stroke="black" stroke-width="1" fill="none" />
 <polyline points="272.5,628.5 273.5,624.0 275.0,620.0 276.0,616.5 275.0,619.0" stroke="black" stroke-width="1" fill="none" />
 <polyline points="277.5,614.0 276.0,618.0 275.0,622.0 274.5,626.0" stroke="black" stroke-width="1" fill="none" />
 <polyline points="270.0,668.5 269.0,672.0 268.0,676.0 267.0,680.0" stroke="black" stroke-width="1" fill="none" />
</svg>