<svg xmlns="http://www.w3.org/2000/svg" version="1.1">
 <polyline points="289.0,43.5 283.5,83.0 283.5,123.0 243.5,163.0 208.0,203.0 203.0,242.5 192.5,288.0 207.5,327.5 232.5,367.5 272.5,387.5 292.5,402.5 332.5,397.5 347.5,407.5 377.5,412.5 372.5,453.0" stroke="black" stroke-width="1" fill="none" />
 <polyline points="372.5,426.5 413.0,427.0" stroke="black" stroke-width="1" fill="none" />
 <polyline points="391.0,427.0 411.0,487.0 436.5,477.0 476.5,446.5" stroke="black" stroke-width="1" fill="none" />
 <polyline points="457.0,540.0 497.0,560.5" stroke="black" stroke-width="1" fill="none" />
 <polyline points="452.0,543.5 457.5,583.5 452.5,593.0" stroke="black" stroke-width="1" fill="none" />
 <polyline points="427.5,557.0 467.5,527.0 508.0,511.5" stroke="black" stroke-width="1" fill="none" />
 <polyline points="412.5,637.0 372.5,597.0 332.0,557.5" stroke="black" stroke-width="1" fill="none" />
 <polyline points="322.5,522.5 327.5,532.5 342.5,572.5 377.5,612.5 412.5,653.0" stroke="black" stroke-width="1" fill="none" />
 <polyline points="381.5,527.5 341.5,502.5 301.5,462.5" stroke="black" stroke-width="1" fill="none" />
 <polyline points="297.0,446.0 322.0,485.5 382.0,525.5 372.0,565.5" stroke="black" stroke-width="1" fill="none" />
 <polyline points="327.5,513.5 327.5,553.5 367.5,593.0 397.5,633.0 407.5,678.0" stroke="black" stroke-width="1" fill="none" />
 <polyline points="376.5,461.5 336.0,466.0 296.0,446.0" stroke="black" stroke-width="1" fill="none" />
 <polyline points="316.5,451.5 367.0,492.0" stroke="black" stroke-width="1" fill="none" />
 <polyline points="321.0,271.5 281.0,276.5" stroke="black" stroke-width="1" fill="none" />
 <polyline points="255.5,286.5 296.0,246.0 321.0,276.0" stroke="black" stroke-width="1" fill="none" />
 <polyline points="316.5,272.0 296.5,297.0 301.0,337.5 326.0,287.5 306.0,317.5" stroke="black" stroke-width="1" fill="none" />
 <polyline points="256.0,357.0 216.0,312.0" stroke="black" stroke-width="1" fill="none" />
 <polyline points="196.0,298.0 236.0,368.0" stroke="black" stroke-width="1" fill="none" />
 <polyline points="161.5,263.0 206.5,258.0 246.5,232.5 286.5,187.5 327.0,187.0 367.0,222.0" stroke="black" stroke-width="1" fill="none" />
 <polyline points="336.0,192.5 366.0,232.0 341.0,272.0 371.5,312.0 351.5,352.0 301.5,352.5 301.5,352.0 341.5,367.0 357.0,292.0" stroke="black" stroke-width="1" fill="none" />
 <polyline points="311.0,231.5 271.0,226.5" stroke="black" stroke-width="1" fill="none" />
 <polyline points="286.5,248.0 261.5,283.0 271.5,323.0" stroke="black" stroke-width="1" fill="none" />
 <polyline points="242.5,402.5 202.5,387.5 162.0,367.5 122.0,352.5 107.0,342.5 66.5,353.0 26.5,383.0 21.5,388.0 71.5,348.0 91.5,288.0 97.0,248.0" stroke="black" stroke-width="1" fill="none" />
 <polyline points="102.0,247.0 107.0,252.0 112.0,257.0 116.5,257.0 121.5,261.5" stroke="black" stroke-width="1" fill="none" />
 <polyline points="106.5,282.0 111.5,277.0 72.0,307.5 61.5,298.0 56.5,258.0 91.5,233.0 51.5,273.0" stroke="black" stroke-width="1" fill="none" />
 <polyline points="98.0,228.0 57.5,268.0 62.5,308.0 142.5,363.0 232.0,402.5" stroke="black" stroke-width="1" fill="none" />
 <polyline points="297.5,232.5 372.5,277.5 387.0,268.0" stroke="black" stroke-width="1" fill="none" />
 <polyline points="286.5,187.0 251.5,227.0 232.0,272.0 236.5,327.0" stroke="black" stroke-width="1" fill="none" />
 <polyline points="130.5,181.5 90.5,167.0 80.0,202.5" stroke="black" stroke-width="1" fill="none" />
 <polyline points="77.0,182.0 117.0,187.0 172.0,157.0 217.0,122.5" stroke="black" stroke-width="1" fill="none" />
 <polyline points="218.0,121.5 248.0,141.5 248.0,136.5" stroke="black" stroke-width="1" fill="none" />
 <polyline points="177.5,117.0 142.5,157.0 167.5,187.0 162.5,207.5 172.5,227.5 222.0,177.0 262.0,147.0 317.5,142.0 357.5,157.0" stroke="black" stroke-width="1" fill="none" />
 <polyline points="328.5,146.0 378.5,186.0 388.5,226.0" stroke="black" stroke-width="1" fill="none" />
 <polyline points="418.0,52.5 423.0,92.5 428.0,132.5 428.0,172.5 433.0,212.5 432.5,253.0 432.5,292.5 438.0,332.0 442.5,372.0 442.5,412.0 422.0,472.5 437.5,537.0 437.5,577.0 443.0,617.0 423.0,657.0 402.5,676.5 437.5,632.0 467.0,637.0 507.0,647.5" stroke="black" stroke-width="1" fill="none" />
 <polyline points="457.5,442.0 437.0,422.0 442.0,381.5 437.0,341.5 437.0,301.5 432.0,261.5 432.0,221.5 427.0,181.5 427.0,141.5 422.0,102.0 421.5,61.5 396.5,46.5 356.0,41.5 316.0,42.0 276.0,57.0" stroke="black" stroke-width="1" fill="none" />
 <polyline points="147.0,137.5 182.0,117.5 142.0,147.5" stroke="black" stroke-width="1" fill="none" />
 <polyline points="177.5,186.5 103.0,206.5 82.5,207.0 87.5,166.5" stroke="black" stroke-width="1" fill="none" />
</svg>