<svg xmlns="http://www.w3.org/2000/svg" version="1.1">
 <polyline points="96.0,3.0 96.5,4.5 100.5,5.5 104.5,4.0 103.0,5.0 101.0,10.5 97.0,14.5 95.5,18.5 92.0,23.0 91.0,27.0 91.5,31.0 93.0,35.0" stroke="black" stroke-width="1" fill="none" />
 <polyline points="94.0,31.0 98.0,36.5 102.0,36.0" stroke="black" stroke-width="1" fill="none" />
 <polyline points="103.0,33.0 105.0,29.0 105.0,25.5 103.0,21.0 98.5,23.0" stroke="black" stroke-width="1" fill="none" />
 <polyline points="100.5,21.5 99.5,25.5" stroke="black" stroke-width="1" fill="none" />
 <polyline points="104.0,21.0 100.0,20.0 95.5,21.0 91.5,26.0" stroke="black" stroke-width="1" fill="none" />
 <polyline points="94.5,31.0 96.0,34.5" stroke="black" stroke-width="1" fill="none" />
 <polyline points="104.5,31.0 105.5,26.5 105.0,22.5 101.0,18.5" stroke="black" stroke-width="1" fill="none" />
 <polyline points="96.5,16.0 100.5,11.0" stroke="black" stroke-width="1" fill="none" />
 <polyline points="134.5,2.5 134.5,7.0 134.0,10.5 133.5,15.0 133.0,18.5 133.0,22.5 132.5,26.5 132.5,31.0 132.5,35.0 132.0,39.0 132.0,43.0 131.5,47.0 131.0,51.0 130.0,54.5 130.5,58.5 130.0,62.5 129.5,66.5 129.0,70.5 129.0,74.0 128.5,78.5 128.5,82.0 128.5,86.0 127.5,90.0 127.0,94.0 127.0,98.0 126.5,102.0 126.0,106.0 126.5,109.5 126.0,113.5 126.0,117.5 125.5,121.5 125.0,125.5 125.0,129.5 124.5,133.5 124.5,137.5 124.5,142.0 124.0,146.5 123.5,150.5 123.5,155.0 123.0,159.0 123.5,162.5 123.0,167.0 122.5,171.0 122.5,174.5 122.5,178.5 117.0,182.5 113.5,183.0 117.5,181.5 121.5,178.5 115.5,177.5" stroke="black" stroke-width="1" fill="none" />
 <polyline points="118.0,177.0 114.0,180.5 110.0,181.0 106.0,184.0 102.0,185.0" stroke="black" stroke-width="1" fill="none" />
 <polyline points="107.0,186.5 108.5,188.0" stroke="black" stroke-width="1" fill="none" />
 <polyline points="108.5,185.0 109.0,185.0 109.5,185.0 110.5,185.5 111.0,185.5 111.5,186.5 112.0,186.5 112.0,186.5" stroke="black" stroke-width="1" fill="none" />
 <polyline points="108.0,185.0 109.0,180.0" stroke="black" stroke-width="1" fill="none" />
 <polyline points="105.5,180.0 101.0,184.0 97.5,188.0 95.5,192.0 92.0,192.0 84.5,196.0 86.0,198.0 90.0,198.0" stroke="black" stroke-width="1" fill="none" />
 <polyline points="95.0,191.0 97.5,187.5 100.5,183.5 105.0,179.5 103.0,180.5 99.0,184.5 94.5,191.5 91.0,195.5 87.5,195.5 84.0,200.0 80.0,199.5 76.5,201.0" stroke="black" stroke-width="1" fill="none" />
 <polyline points="78.0,196.0 74.0,200.0 64.5,206.0 63.0,204.0 67.0,202.0 70.5,200.5 75.0,198.0 79.0,196.0 83.5,194.5 87.5,192.0 91.5,190.5" stroke="black" stroke-width="1" fill="none" />
 <polyline points="82.0,202.5 80.0,203.0 76.0,203.5 72.0,203.5 68.5,204.5 64.5,207.5" stroke="black" stroke-width="1" fill="none" />
 <polyline points="66.0,208.5 69.5,207.5 70.0,207.0 75.0,206.0 79.0,207.0" stroke="black" stroke-width="1" fill="none" />
 <polyline points="76.5,209.0 74.0,210.0 69.5,210.5 65.5,212.0 62.0,214.5 58.5,217.0 54.5,223.0 50.5,229.5" stroke="black" stroke-width="1" fill="none" />
 <polyline points="47.5,240.0 47.5,240.0" stroke="black" stroke-width="1" fill="none" />
 <polyline points="43.0,263.5 43.5,263.0 44.5,263.0 45.0,263.5 45.0,264.0 45.5,264.5 45.5,265.0 45.5,265.0" stroke="black" stroke-width="1" fill="none" />
 <polyline points="42.5,264.5 45.5,268.5 45.0,272.5 45.0,276.0 45.0,279.0 44.0,282.5 42.5,286.5 43.5,290.5 43.5,294.5 45.0,298.5 46.5,303.0" stroke="black" stroke-width="1" fill="none" />
 <polyline points="40.0,301.5 35.5,306.0 34.0,309.5 32.0,313.0 30.5,317.0 29.5,320.5 28.5,324.5 21.0,328.5 8.5,333.0 3.5,335.0 7.5,333.5 11.5,332.5 15.5,331.0 19.5,329.5 23.5,328.5 28.0,326.5 18.5,332.5" stroke="black" stroke-width="1" fill="none" />
 <polyline points="11.5,334.5 4.5,337.5 8.5,336.0 12.5,335.0 16.5,333.0 20.5,332.0 24.5,330.5 28.0,328.5 32.0,331.5 32.0,332.0 32.5,336.0 32.5,340.0 33.5,344.0 34.5,348.5 35.5,353.0 37.0,357.5 42.0,362.0 47.0,366.0 46.0,370.5 46.5,374.5 45.0,378.5 45.0,382.5 42.5,386.5 38.5,390.5 34.0,394.0 30.5,398.5 26.0,402.0 21.5,406.0 15.5,409.5" stroke="black" stroke-width="1" fill="none" />
 <polyline points="2.0,409.5 6.0,410.0 10.0,410.5 14.0,409.0 17.5,406.5 22.0,403.0 26.0,399.5 30.0,396.5 34.5,393.0 38.5,389.0 42.5,384.5 44.0,387.0 45.0,391.0 46.0,394.5 47.0,398.5 47.5,402.0 48.5,406.0 49.0,410.5 50.0,414.5 51.5,418.5 53.5,422.5 54.5,427.0 56.0,431.0 57.5,435.0 60.0,439.5 62.0,443.5 64.0,447.5 65.5,451.0 67.0,455.0 69.0,459.0 70.0,463.5 73.0,467.0 74.0,471.0 76.0,475.0 78.0,479.0 80.0,483.0 81.5,487.0 83.5,491.0 86.0,495.0 88.0,499.0 89.5,503.5 91.5,507.5 94.0,511.0 95.5,515.5 98.0,520.0 100.0,524.0 102.0,528.0 104.0,531.5 105.5,535.5 107.5,539.0 109.0,543.0 111.0,547.0 113.0,550.5 115.0,554.5 117.0,559.0 119.0,563.0 121.0,566.5 122.5,570.5 124.0,574.5 125.5,578.0 127.0,582.0 128.5,586.0 129.5,590.5 131.0,594.5 133.0,598.5 134.5,602.0 136.0,606.5 137.0,611.0 140.0,615.0 142.5,619.0 144.5,623.0 146.0,627.0 147.5,631.0 148.5,635.5 149.0,639.0 150.0,643.0 151.5,646.5 153.0,650.5 155.5,654.5" stroke="black" stroke-width="1" fill="none" />
 <polyline points="153.0,652.5 149.0,643.0" stroke="black" stroke-width="1" fill="none" />
 <polyline points="207.5,653.5 208.5,649.5 210.0,645.0 212.0,641.0 213.0,639.5 209.0,648.0" stroke="black" stroke-width="1" fill="none" />
 <polyline points="217.0,644.0 221.0,638.5" stroke="black" stroke-width="1" fill="none" />
 <polyline points="212.5,637.5 211.0,641.5 209.5,646.0 209.0,650.0 208.5,654.0" stroke="black" stroke-width="1" fill="none" />
 <polyline points="229.0,648.5 226.0,652.5 224.5,654.0 228.5,649.0 233.5,645.0" stroke="black" stroke-width="1" fill="none" />
 <polyline points="233.0,649.0 237.0,655.5" stroke="black" stroke-width="1" fill="none" />
 <polyline points="236.0,637.5 231.5,630.5 227.5,632.0 223.0,636.0 219.0,632.0 215.0,628.5" stroke="black" stroke-width="1" fill="none" />
 <polyline points="228.5,633.0 230.5,629.0" stroke="black" stroke-width="1" fill="none" />
 <polyline points="233.5,630.0 235.0,634.0 237.0,638.0 238.5,642.0 235.0,646.5 231.5,650.0 234.0,654.0" stroke="black" stroke-width="1" fill="none" />
 <polyline points="257.5,642.5 257.0,644.0 259.5,640.0 259.0,638.0 255.0,645.0 255.0,645.0 256.5,641.0 260.5,637.0" stroke="black" stroke-width="1" fill="none" />
 <polyline points="224.5,596.0 225.0,594.5 225.5,593.5 226.5,592.5 227.0,591.0" stroke="black" stroke-width="1" fill="none" />
 <polyline points="227.5,579.0 224.0,572.0 220.0,565.0 216.0,559.0 211.5,553.5 207.5,548.0 203.5,542.5 199.5,538.0 195.0,533.5" stroke="black" stroke-width="1" fill="none" />
 <polyline points="194.5,532.5 197.5,536.5 201.0,540.5 204.0,544.5 207.0,548.5 210.5,552.5 213.0,556.5 216.0,561.0 218.0,565.0 220.5,569.0 222.5,573.5 225.0,577.0 227.0,581.0 227.5,585.0 226.5,589.0 225.5,592.5 224.0,597.0 223.0,600.5 222.0,604.5 220.5,608.5 220.0,613.0 218.5,617.0 217.0,621.0 216.0,625.0 216.0,628.5 221.0,632.0 223.5,636.0 219.0,640.0 216.5,644.0 217.0,648.0 213.0,652.0 209.0,655.5 213.5,652.0" stroke="black" stroke-width="1" fill="none" />
 <polyline points="130.0,585.5 130.0,581.5 130.5,577.0 132.0,573.5 133.5,570.0 129.5,579.0" stroke="black" stroke-width="1" fill="none" />
 <polyline points="127.5,567.5 127.0,566.5 126.0,565.0 125.0,564.0 124.5,562.5" stroke="black" stroke-width="1" fill="none" />
 <polyline points="122.5,561.5 127.0,557.0" stroke="black" stroke-width="1" fill="none" />
 <polyline points="133.5,568.0 132.0,572.5 130.0,576.5 129.5,580.5 129.5,584.5" stroke="black" stroke-width="1" fill="none" />
 <polyline points="122.5,542.0 118.5,537.0 114.5,534.5 111.0,532.0 107.0,531.5" stroke="black" stroke-width="1" fill="none" />
 <polyline points="110.0,531.0 117.0,535.5 121.0,539.5 123.0,544.0 124.0,548.0 127.5,552.0 131.0,551.5 135.0,542.5 139.0,536.0 143.0,530.0 142.0,531.5 139.5,535.5 137.0,539.5 135.0,543.0 133.0,547.5 132.0,551.5" stroke="black" stroke-width="1" fill="none" />
 <polyline points="125.5,538.5 121.5,534.5 117.5,531.0 113.5,527.5 109.5,523.0 106.0,518.0 102.0,513.0 98.0,507.5 94.0,501.5 90.0,496.0" stroke="black" stroke-width="1" fill="none" />
 <polyline points="89.5,495.0 92.0,499.0 94.5,503.0 97.5,507.0 100.0,511.0 103.0,515.0 106.0,519.0 109.0,523.0 112.5,527.0 116.5,531.5 120.0,535.5 124.0,539.0 126.0,543.0 126.5,547.0 126.5,551.0 123.5,555.0 121.5,559.0 121.5,559.5 125.5,551.5 131.0,553.5 127.0,558.0 123.0,561.5 125.0,565.5" stroke="black" stroke-width="1" fill="none" />
 <polyline points="131.5,551.5 133.0,547.5 134.5,543.5 136.0,539.5 138.5,535.5 140.5,531.5 142.5,528.0" stroke="black" stroke-width="1" fill="none" />
 <polyline points="184.5,512.0 188.5,520.5" stroke="black" stroke-width="1" fill="none" />
 <polyline points="182.5,505.0 178.5,498.0 174.5,490.5 170.5,484.0 166.5,477.5 162.5,470.0" stroke="black" stroke-width="1" fill="none" />
 <polyline points="167.5,458.0 171.5,446.5 175.5,435.5 177.0,429.5 181.0,427.0 185.0,424.0 189.0,420.5 193.0,415.5 196.5,409.5 200.0,402.5 204.0,395.0 208.0,393.5 211.5,391.0 215.5,384.0 219.5,376.0 223.5,369.5" stroke="black" stroke-width="1" fill="none" />
 <polyline points="213.5,391.0 215.5,387.5 218.0,383.5 219.5,380.0 221.0,376.0 223.5,371.5 226.0,367.5 228.0,363.5 229.0,359.0 229.5,355.0 230.0,350.5 231.0,346.5 230.5,344.5 226.5,342.0 222.5,339.5" stroke="black" stroke-width="1" fill="none" />
 <polyline points="227.5,343.5 230.0,347.5 229.0,351.5 228.0,355.5 227.5,359.5 227.0,363.5 225.5,367.0 222.5,371.0 221.0,375.0 220.0,379.0 218.0,383.0 216.0,387.0 213.5,390.5 205.5,394.5 203.0,398.0 201.0,402.0 198.5,406.0 196.0,410.0 193.0,414.0 190.0,418.0 186.0,422.0 180.5,426.0 174.5,430.0 172.0,434.5 163.5,439.0 156.5,443.0 155.5,443.5 160.0,442.0 164.0,439.5 168.0,437.0 172.0,434.5 176.5,433.5 175.0,437.5 173.5,441.5 172.5,445.0 170.5,449.0 169.5,453.5 167.5,458.0 166.0,462.0 164.5,466.0 163.0,469.5 164.5,474.0 167.0,478.5 169.5,482.5 172.0,486.5 175.0,490.5 177.0,494.5 180.0,498.5 182.0,502.0 184.5,505.5 185.0,509.5 186.5,513.5 188.0,518.0 189.0,522.0 188.5,526.0 186.0,530.0 182.0,534.0 176.5,538.5 171.5,542.5 168.5,547.0 164.5,551.0 160.5,553.5 164.5,551.5 168.5,547.5 172.5,542.0 176.5,539.0 180.0,536.0 184.0,532.0 188.5,526.0" stroke="black" stroke-width="1" fill="none" />
 <polyline points="112.5,442.0 108.5,442.0 104.5,440.5 100.5,437.5 96.5,435.0 92.5,433.0 88.5,429.5 84.0,426.0 80.0,422.5 76.5,416.0 73.0,412.5 69.0,409.0 65.0,404.5 61.0,398.5" stroke="black" stroke-width="1" fill="none" />
 <polyline points="61.0,400.0 63.5,404.0 66.0,407.5 70.0,411.5 75.0,415.5 77.5,419.5 81.5,423.5 85.0,428.0 90.0,432.0 95.5,435.5 101.5,439.5" stroke="black" stroke-width="1" fill="none" />
 <polyline points="50.0,411.0 54.0,421.0 58.0,432.0 62.0,441.0 66.0,449.0 70.0,458.5 74.0,466.5 78.0,476.0 82.0,484.0 86.0,493.0 90.5,501.0 94.5,509.0 98.0,516.0 102.0,524.5 105.5,532.0 109.5,542.0 113.5,551.0 117.5,560.5 121.5,571.0 125.0,582.0 129.0,592.5 133.0,602.5 137.0,611.5 141.0,617.0 145.5,625.0" stroke="black" stroke-width="1" fill="none" />
 <polyline points="155.0,653.0 153.5,649.0 152.0,645.5 150.5,641.5 149.5,638.0 149.0,634.0 148.5,630.0 146.5,626.0 145.5,622.5 142.5,618.0 140.0,613.5 137.5,609.5 135.0,605.0 133.5,601.0 132.0,597.0 130.5,593.0 129.0,589.0 127.5,585.5 126.0,581.0 125.0,577.0 123.0,572.5 122.0,568.5 120.5,565.0 118.0,561.0 116.5,557.5 114.5,553.5 113.0,550.0 111.0,546.5 108.5,542.5 107.0,538.0 105.5,534.0 103.5,530.0 101.5,526.0 99.5,522.0 98.0,518.0 96.5,514.5 95.0,510.5 93.0,506.5 91.0,502.5 88.5,498.5 86.5,494.0 84.5,490.5 82.5,486.0 80.0,482.0 77.5,477.5 75.5,473.5 74.0,469.0 72.0,465.5 70.0,461.5 68.5,457.5 67.0,454.0 65.0,450.0 63.0,446.0 61.0,441.5 59.0,437.0 57.0,433.0 55.0,428.5 54.0,424.5 52.5,421.0 51.0,417.0 50.0,413.5 49.5,409.5 48.0,406.0 47.0,402.0 46.5,398.0 45.0,394.0 44.0,390.5 45.0,386.5" stroke="black" stroke-width="1" fill="none" />
 <polyline points="45.0,362.0 41.0,359.5 37.0,353.0 33.0,342.5" stroke="black" stroke-width="1" fill="none" />
 <polyline points="30.0,329.5 31.5,333.5 32.0,337.5 32.5,341.5 33.5,345.5 35.5,349.5 37.0,353.5 38.5,357.0 44.0,361.0 47.0,365.0 46.0,369.0 46.5,373.0 45.5,377.0 45.0,381.5 42.0,385.5 38.0,389.5 33.0,394.0 28.5,398.0 24.0,402.5 19.0,406.5 13.5,410.5" stroke="black" stroke-width="1" fill="none" />
 <polyline points="29.5,316.5 33.0,306.0 37.5,301.0 41.5,300.0 46.0,302.0 50.5,305.5 54.0,304.0 55.0,303.5" stroke="black" stroke-width="1" fill="none" />
 <polyline points="54.5,303.0 55.5,305.0 57.0,309.0 57.0,313.0 56.5,316.5" stroke="black" stroke-width="1" fill="none" />
 <polyline points="65.0,298.5 66.5,294.5 68.0,290.5 70.0,286.5 71.5,282.5 74.0,278.5 78.0,274.5 80.0,270.5 82.5,266.5 87.0,262.5 93.0,259.5 89.0,261.0 85.0,264.0 81.0,270.5 77.5,276.5 74.0,281.0 70.0,289.0 66.0,296.0" stroke="black" stroke-width="1" fill="none" />
 <polyline points="97.5,298.5 101.5,299.0 105.5,297.0 103.5,298.0" stroke="black" stroke-width="1" fill="none" />
 <polyline points="102.5,299.0 103.5,298.5 104.5,297.5 106.0,297.0 106.5,297.0 107.5,296.0" stroke="black" stroke-width="1" fill="none" />
 <polyline points="108.5,297.5 111.0,301.5" stroke="black" stroke-width="1" fill="none" />
 <polyline points="107.5,300.5 112.0,304.5 116.0,305.0 120.0,303.5 124.0,300.0 127.5,301.0" stroke="black" stroke-width="1" fill="none" />
 <polyline points="127.0,299.5 128.0,300.0 129.0,300.0 129.5,300.5 130.0,301.5 130.5,302.5 130.5,303.0" stroke="black" stroke-width="1" fill="none" />
 <polyline points="133.5,299.0 132.5,298.5 131.5,298.5 130.5,298.0 129.5,298.0 128.5,298.0 127.5,297.5 127.0,297.5" stroke="black" stroke-width="1" fill="none" />
 <polyline points="125.5,297.5 121.0,302.0" stroke="black" stroke-width="1" fill="none" />
 <polyline points="134.5,300.5 131.0,298.5 126.5,296.0 122.5,295.5 118.5,293.5 114.5,293.0 110.5,293.0 106.0,293.5 102.0,295.0 98.0,297.5 97.5,297.5 106.5,293.5" stroke="black" stroke-width="1" fill="none" />
 <polyline points="108.0,278.5 112.0,279.5 116.0,279.5 119.5,280.5 123.5,282.0 127.0,283.0 131.0,284.0 135.0,284.0 139.0,284.5" stroke="black" stroke-width="1" fill="none" />
 <polyline points="139.5,275.5 145.0,280.0 148.0,284.0" stroke="black" stroke-width="1" fill="none" />
 <polyline points="179.0,293.5 183.5,294.5 187.0,297.0 191.0,298.0 194.5,298.5 198.5,300.0 202.0,301.0 205.5,304.0 209.5,306.5 213.5,306.5" stroke="black" stroke-width="1" fill="none" />
 <polyline points="216.5,310.5 210.0,308.0 204.0,304.0 194.0,300.5" stroke="black" stroke-width="1" fill="none" />
 <polyline points="188.5,298.0 188.0,298.0 186.5,298.0 185.5,297.5 185.0,297.5 185.0,297.0 184.5,296.5" stroke="black" stroke-width="1" fill="none" />
 <polyline points="181.0,289.0 176.5,293.0 177.5,292.0 181.5,288.5 185.0,289.0 189.0,289.0 193.0,290.0 197.5,291.5 201.5,291.5 205.5,293.0 209.0,295.0 213.0,298.5 217.0,304.0" stroke="black" stroke-width="1" fill="none" />
 <polyline points="218.5,310.5 217.0,306.5 214.0,302.5 211.5,298.5 206.0,294.5" stroke="black" stroke-width="1" fill="none" />
 <polyline points="198.0,292.5 197.0,292.0 195.0,291.5 193.5,291.5" stroke="black" stroke-width="1" fill="none" />
 <polyline points="188.5,312.0 196.5,316.5 201.5,320.5 205.5,324.5" stroke="black" stroke-width="1" fill="none" />
 <polyline points="205.0,327.0 201.0,324.0" stroke="black" stroke-width="1" fill="none" />
 <polyline points="206.0,321.5 202.0,317.5 198.5,315.5 194.5,313.5 190.5,312.0 186.0,311.0 182.0,310.0" stroke="black" stroke-width="1" fill="none" />
 <polyline points="180.5,313.0 181.0,316.5 179.5,315.5 181.0,318.0 184.5,319.5 188.0,321.0 192.0,322.0 196.0,319.0 200.0,321.0 202.0,326.0" stroke="black" stroke-width="1" fill="none" />
 <polyline points="195.5,320.0 195.5,320.5 195.5,320.5 194.5,321.0 194.0,321.5 193.5,322.0" stroke="black" stroke-width="1" fill="none" />
 <polyline points="186.5,316.5 186.0,316.5" stroke="black" stroke-width="1" fill="none" />
 <polyline points="188.0,314.5 187.0,315.0 191.0,316.5" stroke="black" stroke-width="1" fill="none" />
 <polyline points="178.0,316.0 181.5,313.5 177.5,314.0 173.5,313.5 173.0,314.0" stroke="black" stroke-width="1" fill="none" />
 <polyline points="158.5,349.5 153.5,352.0 157.5,350.5 162.0,350.5 163.5,353.0 157.5,354.5 161.5,354.5" stroke="black" stroke-width="1" fill="none" />
 <polyline points="136.0,350.0 132.0,348.5" stroke="black" stroke-width="1" fill="none" />
 <polyline points="132.0,346.5 136.0,346.5 140.0,348.0" stroke="black" stroke-width="1" fill="none" />
 <polyline points="136.0,344.5 132.5,344.0" stroke="black" stroke-width="1" fill="none" />
 <polyline points="148.0,280.0 143.5,276.0 139.0,275.0 135.0,274.0 131.0,273.0 127.0,272.5 123.0,272.0 119.0,272.5 115.0,272.5 111.0,272.0 107.0,272.0 103.0,273.0 99.0,273.5 95.0,275.0 93.5,275.5 105.0,271.5" stroke="black" stroke-width="1" fill="none" />
 <polyline points="92.0,260.0 86.5,264.0 83.0,267.5 81.5,271.5 78.5,275.5 75.0,280.0 72.5,283.5 70.5,287.5 68.0,291.5 66.5,295.0 66.0,298.5" stroke="black" stroke-width="1" fill="none" />
 <polyline points="111.5,243.0 108.0,244.0 104.0,246.5 100.0,249.5 99.0,250.5 104.5,246.5 114.0,242.0" stroke="black" stroke-width="1" fill="none" />
 <polyline points="83.0,204.0 82.5,204.5 82.0,205.0 80.5,205.5 80.0,205.5 80.0,206.0" stroke="black" stroke-width="1" fill="none" />
 <polyline points="75.5,208.5 75.0,209.0 74.0,209.0 73.5,209.5 73.5,209.5" stroke="black" stroke-width="1" fill="none" />
 <polyline points="71.5,204.5 67.0,212.0 60.0,216.0 56.0,220.5 54.0,224.5 51.5,228.5 49.5,232.0 50.5,236.0 50.0,240.0 50.5,243.5 50.5,247.5 51.0,251.5 49.0,255.5 49.5,259.0 47.5,263.0 49.0,255.0" stroke="black" stroke-width="1" fill="none" />
 <polyline points="60.0,210.5 56.5,214.5 59.5,210.5 61.0,206.5 66.5,202.5" stroke="black" stroke-width="1" fill="none" />
 <polyline points="144.5,173.5 138.5,177.0 131.0,181.0 126.0,184.5 130.0,181.0 134.0,179.0 138.5,177.5 143.0,174.5 147.0,172.5 151.0,172.5 144.5,177.5 147.5,175.5" stroke="black" stroke-width="1" fill="none" />
 <polyline points="166.5,177.5 170.5,177.0 174.5,176.5 178.5,175.5 182.5,174.5 186.5,174.5 190.5,177.0" stroke="black" stroke-width="1" fill="none" />
 <polyline points="191.0,178.5 190.5,178.0 190.0,177.5 190.0,177.5 189.5,177.0 188.5,177.0" stroke="black" stroke-width="1" fill="none" />
 <polyline points="187.0,179.0 183.5,178.5" stroke="black" stroke-width="1" fill="none" />
 <polyline points="231.5,191.0 234.5,195.0 235.5,199.0 234.0,202.5 233.5,206.0 238.0,210.0" stroke="black" stroke-width="1" fill="none" />
 <polyline points="236.5,207.5 232.5,203.5" stroke="black" stroke-width="1" fill="none" />
 <polyline points="231.0,203.5 231.5,202.5 232.0,203.0 232.5,202.5 233.5,202.5 234.5,201.0" stroke="black" stroke-width="1" fill="none" />
 <polyline points="235.5,194.5 231.5,191.0" stroke="black" stroke-width="1" fill="none" />
 <polyline points="237.0,218.5 235.5,222.5 237.5,222.5" stroke="black" stroke-width="1" fill="none" />
 <polyline points="235.0,221.5 239.0,219.0 243.0,219.0 244.0,219.5" stroke="black" stroke-width="1" fill="none" />
 <polyline points="242.0,219.5 243.0,220.0 244.0,220.5 245.0,221.5" stroke="black" stroke-width="1" fill="none" />
 <polyline points="246.0,227.0 250.0,227.5 254.5,228.5" stroke="black" stroke-width="1" fill="none" />
 <polyline points="253.5,228.0 256.0,232.5 251.0,236.5 248.0,241.0 243.0,245.0 241.5,249.0 245.0,253.5 245.5,258.0 248.5,262.0 251.0,266.0 250.5,270.0" stroke="black" stroke-width="1" fill="none" />
 <polyline points="249.0,262.0 245.5,257.0" stroke="black" stroke-width="1" fill="none" />
 <polyline points="244.5,251.5 244.0,250.5 243.5,250.5 242.5,250.5 242.0,250.5 241.5,249.5" stroke="black" stroke-width="1" fill="none" />
 <polyline points="239.5,249.0 244.0,244.5 248.0,241.0 251.0,232.5" stroke="black" stroke-width="1" fill="none" />
 <polyline points="250.5,232.0 246.5,235.5 251.5,231.5" stroke="black" stroke-width="1" fill="none" />
 <polyline points="255.0,231.0 250.0,230.0 246.0,232.5 245.5,233.5 247.0,229.5" stroke="black" stroke-width="1" fill="none" />
 <polyline points="284.5,235.5 286.0,234.5 290.5,232.5 294.5,230.5 299.0,224.0 303.0,223.0" stroke="black" stroke-width="1" fill="none" />
 <polyline points="303.5,224.0 303.0,223.5 302.0,223.0 302.0,222.5 301.0,221.5" stroke="black" stroke-width="1" fill="none" />
 <polyline points="299.5,221.0 297.0,225.0 295.0,229.0" stroke="black" stroke-width="1" fill="none" />
 <polyline points="290.0,239.0 291.0,243.0 288.5,244.5 293.0,248.0 293.5,252.0 293.5,256.0 294.5,260.5 297.0,264.5" stroke="black" stroke-width="1" fill="none" />
 <polyline points="295.0,261.0 299.0,265.0 303.5,265.5 307.0,266.0" stroke="black" stroke-width="1" fill="none" />
 <polyline points="312.5,257.0 312.0,255.5 311.5,254.0 311.5,252.5" stroke="black" stroke-width="1" fill="none" />
 <polyline points="309.0,236.5 308.5,239.5 307.5,242.5 309.0,238.5 307.5,236.0" stroke="black" stroke-width="1" fill="none" />
 <polyline points="312.5,220.5 314.5,225.0 314.0,229.0 313.5,233.0 313.0,237.0 313.0,241.0 312.0,245.0 312.0,249.0 312.0,253.0 312.5,257.5 313.5,262.0" stroke="black" stroke-width="1" fill="none" />
 <polyline points="306.5,274.5 302.5,276.5 299.0,277.5 294.5,279.0 290.5,281.0 286.0,282.5 281.5,283.5 277.0,285.0 272.5,287.5 268.5,289.5 264.5,292.0 260.5,294.5 256.5,298.0 252.5,300.5 248.5,303.0 244.5,306.5 240.5,309.5 236.0,312.5 235.5,311.0 238.0,307.0 246.5,303.5 247.5,302.5 243.5,304.5 239.5,306.0 235.5,310.5 242.0,309.5 247.5,305.5 254.0,302.0 259.5,297.5 265.0,293.5 272.5,289.5 281.0,285.0 289.5,281.0 299.0,277.0" stroke="black" stroke-width="1" fill="none" />
 <polyline points="308.0,292.5 307.0,296.5 307.5,300.5 308.0,304.5 308.0,308.5 309.0,313.0 310.0,317.0 311.0,320.5 312.5,325.0 313.0,329.0 314.5,333.0 316.5,337.0 319.0,340.5 321.0,344.5 324.0,348.5 326.5,352.5 329.0,356.0 331.0,360.0 334.5,364.5 337.5,368.5 340.5,372.5 344.0,376.5 348.0,380.5 351.5,384.0 354.5,388.5 358.0,392.0 361.0,395.5 364.0,399.0" stroke="black" stroke-width="1" fill="none" />
 <polyline points="394.5,393.5 395.0,394.5 395.5,395.5 396.0,396.0 396.5,396.0 397.5,396.5 398.0,397.5 399.0,398.5" stroke="black" stroke-width="1" fill="none" />
 <polyline points="419.5,370.0 415.5,362.5" stroke="black" stroke-width="1" fill="none" />
 <polyline points="412.0,359.5 416.0,368.0" stroke="black" stroke-width="1" fill="none" />
 <polyline points="416.0,369.5 413.5,365.5 412.5,361.5 412.0,357.5 410.5,353.5 409.5,349.5 408.0,345.0 407.0,341.0 406.0,336.5 405.5,332.5 405.0,328.0 406.0,324.0 405.0,326.0" stroke="black" stroke-width="1" fill="none" />
 <polyline points="409.5,325.0 407.0,329.0 407.0,333.0 407.5,336.5 409.0,340.5 409.0,344.5 410.0,348.5 411.0,352.0 411.5,355.5 412.5,359.0 414.0,363.0 416.0,367.0 418.5,371.5" stroke="black" stroke-width="1" fill="none" />
 <polyline points="419.0,368.5 417.5,364.0 416.5,359.5 415.5,355.0" stroke="black" stroke-width="1" fill="none" />
 <polyline points="399.0,350.5 399.0,354.0 399.0,358.0 399.0,362.0 398.5,366.0 398.5,370.0 398.5,374.5 398.0,378.5 397.5,383.0 396.5,387.0 397.0,390.5 395.0,393.0 398.0,397.0 398.5,401.5 398.0,406.0" stroke="black" stroke-width="1" fill="none" />
 <polyline points="463.5,417.0 467.5,411.5 471.5,410.0 475.0,408.5 479.0,407.0 482.5,405.5 486.5,403.5 490.5,402.5 494.5,400.5 498.5,405.5" stroke="black" stroke-width="1" fill="none" />
 <polyline points="500.0,409.0 499.0,405.0 497.0,401.0" stroke="black" stroke-width="1" fill="none" />
 <polyline points="494.0,393.0 493.5,393.0 493.0,393.5 492.0,394.0 491.0,394.5" stroke="black" stroke-width="1" fill="none" />
 <polyline points="495.5,391.5 495.0,391.0 494.5,389.5 494.0,389.0 493.5,388.0 493.0,387.5" stroke="black" stroke-width="1" fill="none" />
 <polyline points="492.0,384.0 493.5,387.5 495.5,391.5 492.5,395.5 493.0,399.0 485.0,404.5 476.5,408.5 468.0,413.0 465.0,417.0 465.0,421.0 467.0,425.0" stroke="black" stroke-width="1" fill="none" />
 <polyline points="463.5,422.5 467.5,426.0 471.5,425.0 475.5,424.5 480.0,423.5 482.0,422.0 472.0,426.0" stroke="black" stroke-width="1" fill="none" />
 <polyline points="481.5,427.5 485.5,431.0 489.5,431.5 493.5,432.0 497.0,432.0 501.0,432.0 502.5,435.0 502.0,439.0 502.0,443.0 502.0,447.0 502.0,451.0 502.0,455.5 502.5,459.5 503.0,463.5 504.5,467.5 505.5,471.5 506.0,475.5 508.0,479.5 507.5,483.5 503.0,488.0 497.5,492.0 492.5,496.0 488.5,499.5 486.5,503.5 485.0,508.0 485.0,512.0 486.0,515.5 487.0,519.5 488.0,523.5 489.0,527.5 490.0,531.5 491.5,535.5 493.0,539.5 496.0,543.0 498.5,547.5 502.0,551.5 505.0,555.5 509.5,559.5" stroke="black" stroke-width="1" fill="none" />
 <polyline points="513.0,562.5 508.5,559.0 504.5,555.5 500.5,551.0 496.5,546.0 492.5,540.5 488.5,531.0" stroke="black" stroke-width="1" fill="none" />
 <polyline points="486.0,505.5 489.5,499.0 494.0,495.0 498.0,491.5 502.0,488.5 506.0,484.5" stroke="black" stroke-width="1" fill="none" />
 <polyline points="509.0,480.5 508.0,479.5 507.0,478.0 506.0,476.5 505.0,475.0 504.5,473.5" stroke="black" stroke-width="1" fill="none" />
 <polyline points="502.5,434.0 502.5,438.0 502.5,442.0 502.5,446.0 502.5,449.5 502.5,453.5 503.5,457.5 504.0,461.5 504.0,465.5 504.0,470.0 504.5,473.5 506.5,478.0 508.0,482.0 505.0,486.0 500.5,490.0 494.5,494.0 490.5,498.0 487.0,502.0 485.5,506.0 485.0,510.0 486.0,514.0 486.0,518.0 486.5,521.5 487.5,525.0 488.0,529.0 489.5,533.0 491.0,537.0 494.0,540.5 496.5,544.5 499.5,548.5 503.0,552.5 507.0,556.5 512.0,560.5" stroke="black" stroke-width="1" fill="none" />
 <polyline points="485.0,431.0 481.0,427.0 482.0,423.5" stroke="black" stroke-width="1" fill="none" />
 <polyline points="482.5,423.0 486.0,422.0 491.0,420.5 495.0,420.0 498.5,420.5" stroke="black" stroke-width="1" fill="none" />
 <polyline points="500.0,418.5 495.5,418.0 491.5,418.5 487.0,419.0" stroke="black" stroke-width="1" fill="none" />
 <polyline points="484.0,420.0 474.5,424.0" stroke="black" stroke-width="1" fill="none" />
 <polyline points="500.0,420.0 500.5,419.0 500.5,418.5 500.5,417.5 500.5,417.5 499.5,417.0" stroke="black" stroke-width="1" fill="none" />
 <polyline points="493.0,400.0 491.0,398.0 492.0,393.5 493.5,389.5 492.0,385.5 491.5,383.5 487.0,382.5 483.0,383.0 479.5,383.0 475.0,379.5" stroke="black" stroke-width="1" fill="none" />
 <polyline points="476.0,375.5 480.0,370.5 483.5,369.0 487.0,368.0 490.5,363.0 494.5,360.0 498.5,359.0 502.5,359.0 506.5,361.5 511.0,364.5" stroke="black" stroke-width="1" fill="none" />
 <polyline points="509.5,365.5 504.5,361.5" stroke="black" stroke-width="1" fill="none" />
 <polyline points="498.0,360.0 491.5,364.0 489.0,368.0 479.0,372.0 476.5,375.5 477.5,379.5" stroke="black" stroke-width="1" fill="none" />
 <polyline points="501.5,351.5 501.0,350.5 500.5,348.5 500.5,347.0 500.0,345.0 499.5,343.5" stroke="black" stroke-width="1" fill="none" />
 <polyline points="495.5,312.0 491.5,308.0 487.5,301.5 484.0,296.0 480.5,291.5 476.5,287.5 472.5,285.0 469.0,282.5" stroke="black" stroke-width="1" fill="none" />
 <polyline points="469.5,281.5 475.0,285.5 479.5,289.5 483.0,293.0 486.0,297.0 488.5,301.5 490.5,305.0 493.5,309.0" stroke="black" stroke-width="1" fill="none" />
 <polyline points="493.0,320.5 489.5,311.5 485.5,304.0 481.5,297.5 477.5,292.5 473.5,288.5 469.5,285.0 465.5,281.5" stroke="black" stroke-width="1" fill="none" />
 <polyline points="468.0,279.5 466.5,283.5 471.5,287.5 476.0,291.5 479.5,295.5 482.5,299.5 484.0,303.5 487.0,307.5 489.0,311.5 491.0,315.5 492.5,319.5 493.5,323.5 494.5,327.0 495.0,331.0 496.0,335.0 497.0,339.0 498.0,342.5 499.0,346.0 500.5,350.0 501.5,354.0" stroke="black" stroke-width="1" fill="none" />
 <polyline points="510.0,320.5 506.0,317.0 502.0,314.0 498.0,306.0 494.0,298.5 490.0,293.5 486.5,290.0 482.0,287.5 478.0,285.5 474.0,282.5 470.0,280.5 466.0,280.5 462.0,281.0 458.5,280.5 454.0,281.0 450.5,281.0 446.0,280.5 442.0,281.0 438.5,282.0" stroke="black" stroke-width="1" fill="none" />
 <polyline points="431.5,284.5 436.0,277.0 440.0,271.0 444.0,263.0 442.5,255.0 438.5,259.0 438.5,262.5 437.0,266.5" stroke="black" stroke-width="1" fill="none" />
 <polyline points="431.5,272.5 431.0,276.5 429.5,280.5 428.5,284.5 428.0,288.0 427.0,292.0" stroke="black" stroke-width="1" fill="none" />
 <polyline points="432.5,291.5 431.5,287.5 432.0,283.5 434.5,279.5 437.0,275.5 440.0,271.5 442.0,267.0 444.5,263.5 446.0,259.5 447.0,255.5 446.5,251.5 444.5,250.5 441.0,251.5 437.0,251.5" stroke="black" stroke-width="1" fill="none" />
 <polyline points="436.0,245.0 438.5,246.5 441.5,245.0" stroke="black" stroke-width="1" fill="none" />
 <polyline points="440.5,246.0 436.5,244.0" stroke="black" stroke-width="1" fill="none" />
 <polyline points="437.5,244.0 440.5,248.5 438.5,248.0" stroke="black" stroke-width="1" fill="none" />
 <polyline points="445.0,249.5 447.0,253.5 446.5,257.5 445.5,261.5 444.0,265.5 441.5,269.5 438.5,274.0 435.0,278.0 432.5,282.0 430.5,286.5 431.5,290.5 428.5,294.5 430.0,294.0" stroke="black" stroke-width="1" fill="none" />
 <polyline points="422.5,295.0 418.5,304.5" stroke="black" stroke-width="1" fill="none" />
 <polyline points="415.5,296.0 411.5,301.0 407.5,305.0 403.5,309.5 399.5,315.0 395.5,322.5 391.5,328.5 389.5,331.0 393.5,327.0 396.0,323.0 399.0,319.5 400.0,315.5 402.0,312.0 406.0,308.0 409.0,304.0 412.0,300.0 415.0,296.0" stroke="black" stroke-width="1" fill="none" />
 <polyline points="404.5,301.5 406.0,300.0 407.5,296.0 409.0,292.0 409.0,288.0 408.0,284.0" stroke="black" stroke-width="1" fill="none" />
 <polyline points="397.5,291.5 393.5,290.5 389.0,291.5 383.5,292.0 379.5,290.0" stroke="black" stroke-width="1" fill="none" />
 <polyline points="387.5,281.5 391.5,285.0" stroke="black" stroke-width="1" fill="none" />
 <polyline points="393.0,285.0 389.5,281.5" stroke="black" stroke-width="1" fill="none" />
 <polyline points="389.0,272.5 388.5,272.0 388.0,272.5 387.0,272.0 386.5,271.0 385.5,271.0" stroke="black" stroke-width="1" fill="none" />
 <polyline points="385.0,269.5 389.0,269.5" stroke="black" stroke-width="1" fill="none" />
 <polyline points="386.0,269.5 383.5,269.0" stroke="black" stroke-width="1" fill="none" />
 <polyline points="373.5,271.5 372.5,270.5 372.5,270.0 371.5,269.0 370.5,268.0 370.0,267.5 368.5,267.0" stroke="black" stroke-width="1" fill="none" />
 <polyline points="369.5,268.0 366.0,268.5 362.0,268.0 358.0,264.5" stroke="black" stroke-width="1" fill="none" />
 <polyline points="357.5,263.5 362.0,268.0" stroke="black" stroke-width="1" fill="none" />
 <polyline points="361.5,261.5 363.0,265.5 364.5,266.0 368.0,265.5 372.0,266.0" stroke="black" stroke-width="1" fill="none" />
 <polyline points="370.0,266.0 371.0,266.5 371.5,267.0 373.0,267.5 373.5,268.0 374.5,268.5 374.5,269.0 375.0,269.5" stroke="black" stroke-width="1" fill="none" />
 <polyline points="367.5,286.5 371.5,291.0" stroke="black" stroke-width="1" fill="none" />
 <polyline points="357.5,291.5 357.0,291.5 356.5,291.5 355.5,291.0 355.0,290.0 354.5,289.0" stroke="black" stroke-width="1" fill="none" />
 <polyline points="354.0,286.0 353.5,290.0 356.5,290.0 359.0,291.0 363.0,290.5 367.5,293.0 371.5,293.5 375.5,294.0 379.0,293.5" stroke="black" stroke-width="1" fill="none" />
 <polyline points="393.5,291.5 390.5,294.0 394.0,295.0 398.0,294.5" stroke="black" stroke-width="1" fill="none" />
 <polyline points="400.5,329.5 397.0,333.0 393.0,337.0 386.5,341.0" stroke="black" stroke-width="1" fill="none" />
 <polyline points="385.5,343.5 392.0,339.0 397.0,335.0 401.0,330.5 400.5,339.0 396.5,349.0 392.5,358.5 388.5,365.5 388.5,366.0 390.5,362.5 393.5,358.5 395.0,355.0 396.5,351.0 398.0,347.0 399.5,342.5 401.0,338.5 402.0,334.5 403.0,330.5" stroke="black" stroke-width="1" fill="none" />
 <polyline points="388.0,366.0 390.0,362.5 393.0,358.5 395.0,354.5 396.5,350.5 398.5,346.5 399.5,342.5 401.5,338.5 402.5,335.0 404.0,331.5 400.0,333.5 396.0,337.0 392.0,340.5 388.0,343.0 384.0,345.0 380.0,346.0 376.0,346.5 372.0,346.5 368.0,346.5 364.0,346.0 360.0,345.0 356.0,343.5 352.0,341.0" stroke="black" stroke-width="1" fill="none" />
 <polyline points="350.0,341.0 351.0,341.5 352.0,341.5 353.0,342.0 354.0,342.0 355.0,342.5 356.5,343.0" stroke="black" stroke-width="1" fill="none" />
 <polyline points="312.0,325.5 316.0,335.0 320.0,342.0 324.0,348.0 328.0,354.0 332.0,360.5 336.0,366.5 339.5,371.5 343.5,376.0 347.0,380.5 351.0,385.5 355.5,390.5 359.5,395.0 363.5,400.0 368.0,404.0 372.0,404.5 375.5,403.5 380.0,403.5 383.5,403.0 387.5,403.0 391.5,403.5 395.5,403.5" stroke="black" stroke-width="1" fill="none" />
 <polyline points="318.5,314.5 315.0,308.5 311.0,299.0" stroke="black" stroke-width="1" fill="none" />
 <polyline points="308.5,292.5 309.5,296.5 311.0,300.5 313.0,304.5 314.5,309.0 316.5,313.5 320.0,317.0" stroke="black" stroke-width="1" fill="none" />
 <polyline points="302.5,302.5 298.5,306.5 295.0,310.5 291.5,314.5 289.0,318.0 287.0,322.0 284.5,326.0 282.5,330.5 277.5,335.0 273.5,338.5 269.0,342.5 265.0,346.5 260.0,351.0 253.5,355.0 249.0,358.5 244.5,362.5 239.5,366.5 235.0,371.0 231.0,375.0 227.5,378.5 224.0,382.5 220.5,386.5 216.5,390.5 212.5,394.0 209.0,397.0 204.5,401.0 200.5,405.0 200.0,406.5 204.0,401.5 208.0,398.0 212.0,394.0 216.0,389.5 220.0,385.5 224.5,380.5 229.0,376.0 233.0,372.5 237.5,368.0 242.0,364.5 246.5,361.0 250.5,357.5 255.0,353.5 258.5,351.5 262.5,348.5 266.0,344.5 270.0,340.5 273.5,337.5 277.5,334.0 281.5,330.5 285.5,324.0 289.5,318.5 293.0,313.0 297.0,308.0 301.0,304.0" stroke="black" stroke-width="1" fill="none" />
 <polyline points="351.0,284.0 351.0,284.0 355.0,284.5 359.0,286.0 363.0,286.0 367.0,287.0 371.0,288.5 374.5,288.5 378.5,291.5 380.0,289.5 381.5,293.0" stroke="black" stroke-width="1" fill="none" />
 <polyline points="366.0,292.0 363.5,286.5 356.5,283.5" stroke="black" stroke-width="1" fill="none" />
 <polyline points="355.0,240.0 355.5,240.0 356.5,239.5 356.5,239.5" stroke="black" stroke-width="1" fill="none" />
 <polyline points="365.5,242.5 365.5,243.5 366.5,239.5" stroke="black" stroke-width="1" fill="none" />
 <polyline points="370.0,235.0 370.0,235.0" stroke="black" stroke-width="1" fill="none" />
 <polyline points="376.0,235.5 380.0,233.5 384.0,235.5" stroke="black" stroke-width="1" fill="none" />
 <polyline points="384.0,235.0 380.5,233.0 377.0,234.5 378.0,235.0" stroke="black" stroke-width="1" fill="none" />
 <polyline points="376.0,233.0 379.0,234.5 386.0,238.0" stroke="black" stroke-width="1" fill="none" />
 <polyline points="390.5,243.0 389.0,246.5 388.5,250.5 394.0,248.5 399.5,252.0" stroke="black" stroke-width="1" fill="none" />
 <polyline points="394.0,253.5 393.0,253.0" stroke="black" stroke-width="1" fill="none" />
 <polyline points="391.5,254.0 388.5,247.5 391.0,243.5 388.5,249.0" stroke="black" stroke-width="1" fill="none" />
 <polyline points="393.5,246.5 393.5,250.0 395.0,248.5 399.0,251.5 402.5,255.0 406.5,256.5 410.5,257.0" stroke="black" stroke-width="1" fill="none" />
 <polyline points="409.0,248.5 408.0,248.5" stroke="black" stroke-width="1" fill="none" />
 <polyline points="411.0,243.0 409.0,245.0 405.0,245.0 401.0,242.5" stroke="black" stroke-width="1" fill="none" />
 <polyline points="400.5,241.0 404.5,239.0 408.5,239.0 412.5,240.0 416.0,241.0 420.5,244.5" stroke="black" stroke-width="1" fill="none" />
 <polyline points="426.0,246.0 427.0,246.0" stroke="black" stroke-width="1" fill="none" />
 <polyline points="417.0,245.5 413.0,241.5" stroke="black" stroke-width="1" fill="none" />
 <polyline points="412.5,241.0 411.5,241.5 416.0,243.5 420.0,247.0" stroke="black" stroke-width="1" fill="none" />
 <polyline points="418.0,243.5 413.5,240.0" stroke="black" stroke-width="1" fill="none" />
 <polyline points="404.0,237.0 400.5,241.0" stroke="black" stroke-width="1" fill="none" />
 <polyline points="394.0,246.5 392.0,243.0" stroke="black" stroke-width="1" fill="none" />
 <polyline points="386.5,242.0 386.0,238.0 379.0,231.5" stroke="black" stroke-width="1" fill="none" />
 <polyline points="398.5,221.0 402.5,220.0 406.5,220.5 410.5,221.5 414.5,222.0 419.0,223.5 423.5,225.0 427.5,229.5" stroke="black" stroke-width="1" fill="none" />
 <polyline points="438.0,231.5 442.0,219.5" stroke="black" stroke-width="1" fill="none" />
 <polyline points="452.0,199.5 455.0,195.5 456.5,195.0" stroke="black" stroke-width="1" fill="none" />
 <polyline points="457.0,193.0 453.5,197.0 451.5,201.0 451.5,198.0 457.0,194.5 458.5,198.5" stroke="black" stroke-width="1" fill="none" />
 <polyline points="463.5,188.0 468.0,189.5 471.5,190.5" stroke="black" stroke-width="1" fill="none" />
 <polyline points="471.5,189.5 467.5,188.0 463.5,186.5 462.0,181.0 463.5,177.0 464.5,173.5 465.0,169.5 466.0,165.5 467.0,161.5 467.5,157.5 469.0,153.0 470.0,149.0 471.5,145.0 472.5,141.0 474.0,137.0 475.0,133.0 476.0,129.0 476.5,125.5 478.0,121.5 479.0,117.5 480.0,113.5 481.5,109.5 482.5,105.5 483.5,101.5 485.0,97.5 485.5,93.5 485.5,89.5 486.5,85.5 487.0,81.5 487.5,78.0 488.0,74.0 488.5,70.0 488.5,66.0 489.5,62.5 490.0,58.5 491.0,54.5 493.0,50.5 490.0,55.0" stroke="black" stroke-width="1" fill="none" />
 <polyline points="493.0,50.5 491.0,54.5 489.5,58.0 489.0,62.0 488.0,66.0 487.5,70.0 486.5,73.5 485.5,78.0 485.0,82.0 485.0,86.0 484.5,90.0 484.0,94.0 484.0,98.0 483.0,102.0 482.0,106.0 480.5,110.5 480.0,114.0 479.0,117.5 478.0,121.5 476.0,125.5 475.0,129.5 474.0,133.5 472.5,137.5 471.0,141.5 470.0,146.0 469.5,150.0 468.0,154.0 466.0,158.5 465.5,162.5 464.5,166.5 463.5,170.5 463.0,174.5 463.0,178.5 462.5,182.5 464.5,189.0 474.0,193.0 475.5,197.0" stroke="black" stroke-width="1" fill="none" />
 <polyline points="483.5,192.5 479.5,187.5 475.0,185.5" stroke="black" stroke-width="1" fill="none" />
 <polyline points="475.0,184.5 480.5,188.5 483.5,192.5 486.0,196.5 487.0,200.5 487.0,205.0 487.5,208.5 488.0,212.0 487.5,216.0 486.5,220.0" stroke="black" stroke-width="1" fill="none" />
 <polyline points="487.5,191.5 483.5,186.0 480.0,183.0" stroke="black" stroke-width="1" fill="none" />
 <polyline points="481.5,180.5 481.0,186.0 485.0,189.5 488.0,193.0 489.5,197.0" stroke="black" stroke-width="1" fill="none" />
 <polyline points="496.5,182.5 498.5,183.0 500.0,183.5 502.0,184.0" stroke="black" stroke-width="1" fill="none" />
 <polyline points="509.5,185.0 510.5,185.5 511.5,186.0 513.0,187.0" stroke="black" stroke-width="1" fill="none" />
 <polyline points="512.0,185.0 508.0,183.5 504.0,182.5 500.5,182.0 496.5,181.0 492.5,182.5 488.5,180.5 484.5,179.0 480.0,180.5 476.0,182.0 472.0,183.5 467.5,184.0 463.5,185.5 459.0,185.0 455.5,184.0 455.0,184.0" stroke="black" stroke-width="1" fill="none" />
 <polyline points="437.0,198.0 433.0,194.5 429.0,193.0 425.0,190.5 421.0,189.0" stroke="black" stroke-width="1" fill="none" />
 <polyline points="424.5,189.5 429.5,194.0 436.5,198.0 439.5,202.5 441.5,206.5 442.5,210.5 444.0,214.5 443.5,218.0 443.0,222.0 442.0,226.0 439.5,230.0 439.0,234.0 438.5,237.5 437.5,241.5 436.5,246.0 437.5,249.5 438.0,253.0 436.5,257.0 434.0,258.5 433.0,263.0 432.0,267.0 431.0,271.0 430.0,274.5 428.5,278.5 427.5,282.0 426.5,286.0 425.0,290.0 423.5,294.0 423.0,298.0 420.5,301.5 419.0,306.0" stroke="black" stroke-width="1" fill="none" />
 <polyline points="438.5,258.5 442.5,255.5" stroke="black" stroke-width="1" fill="none" />
 <polyline points="445.0,253.5 440.0,257.5 439.0,261.0 439.0,265.0" stroke="black" stroke-width="1" fill="none" />
 <polyline points="470.0,279.5 477.5,284.0 483.0,287.5 488.0,291.5 491.5,296.0 494.5,300.0 497.0,304.0 499.0,308.0 501.0,312.0 505.5,316.5 511.0,320.5" stroke="black" stroke-width="1" fill="none" />
 <polyline points="431.0,235.5 427.0,233.0 421.0,229.5 417.0,229.0 413.5,228.0 410.0,227.5 406.0,227.5 401.5,227.5 397.0,230.5 393.0,233.5 395.0,232.5 401.0,228.5" stroke="black" stroke-width="1" fill="none" />
 <polyline points="402.5,229.0 401.5,233.0 400.0,232.0 404.0,231.0" stroke="black" stroke-width="1" fill="none" />
 <polyline points="418.0,223.0 424.5,226.0 428.0,230.0 430.0,235.0 430.5,239.5" stroke="black" stroke-width="1" fill="none" />
 <polyline points="420.5,192.5 416.5,186.0 413.0,181.5" stroke="black" stroke-width="1" fill="none" />
 <polyline points="414.0,183.0 417.5,186.5 419.5,190.5 422.5,194.5" stroke="black" stroke-width="1" fill="none" />
 <polyline points="424.0,197.0 421.5,192.5 419.0,188.5 415.5,184.5 411.5,182.5 407.5,178.5 404.0,176.0 400.0,173.5 396.0,169.0 392.0,167.0" stroke="black" stroke-width="1" fill="none" />
 <polyline points="393.0,167.0 396.5,171.0 402.5,175.5 408.5,179.5 412.5,183.5" stroke="black" stroke-width="1" fill="none" />
 <polyline points="366.5,213.5 366.5,213.0 366.0,212.5 365.0,212.0" stroke="black" stroke-width="1" fill="none" />
 <polyline points="358.5,216.0 353.5,216.5 349.5,215.0" stroke="black" stroke-width="1" fill="none" />
 <polyline points="349.5,218.5 351.0,222.5 349.0,219.0 349.5,221.5" stroke="black" stroke-width="1" fill="none" />
 <polyline points="352.0,226.5 353.0,227.5" stroke="black" stroke-width="1" fill="none" />
 <polyline points="351.0,228.0 349.5,229.0 342.0,229.5 343.0,229.0 337.0,231.5 336.0,230.5 335.5,230.5" stroke="black" stroke-width="1" fill="none" />
 <polyline points="344.5,228.5 347.0,232.0 350.5,233.5 355.0,234.0 359.0,231.5 356.0,233.5 355.5,238.0 357.5,237.5" stroke="black" stroke-width="1" fill="none" />
 <polyline points="342.0,241.5 340.5,241.5" stroke="black" stroke-width="1" fill="none" />
 <polyline points="332.0,244.0 331.0,244.0" stroke="black" stroke-width="1" fill="none" />
 <polyline points="321.5,223.0 319.5,222.5 315.0,222.0 310.5,224.0 306.5,221.0 302.5,215.5" stroke="black" stroke-width="1" fill="none" />
 <polyline points="311.0,219.5 315.0,219.5 318.5,220.5" stroke="black" stroke-width="1" fill="none" />
 <polyline points="318.0,218.0 317.5,214.5 319.5,210.0 321.0,206.0 323.0,202.0 322.5,202.0 318.0,211.0" stroke="black" stroke-width="1" fill="none" />
 <polyline points="323.0,221.5 326.0,223.5 326.0,222.0" stroke="black" stroke-width="1" fill="none" />
 <polyline points="337.5,215.0 331.0,219.0 326.5,223.5 327.0,222.0 331.0,218.5 335.0,216.5 339.0,214.5 343.0,214.0 347.0,214.5 351.0,216.5 355.0,217.0 359.0,218.5 362.5,219.5 366.0,221.0" stroke="black" stroke-width="1" fill="none" />
 <polyline points="365.5,220.0 354.0,216.5" stroke="black" stroke-width="1" fill="none" />
 <polyline points="343.0,208.5 334.0,212.5 333.0,216.5 335.0,212.0 339.5,210.0 343.5,208.5 347.5,208.0 352.0,208.5 356.0,209.0 359.5,209.5 363.5,210.5 368.0,211.5 372.0,212.5 375.5,215.5" stroke="black" stroke-width="1" fill="none" />
 <polyline points="324.0,199.0 321.0,203.5 319.5,207.5 319.0,212.0 318.0,216.0" stroke="black" stroke-width="1" fill="none" />
 <polyline points="289.5,240.5 289.5,241.5 288.5,246.0" stroke="black" stroke-width="1" fill="none" />
 <polyline points="289.0,245.0 293.0,247.5" stroke="black" stroke-width="1" fill="none" />
 <polyline points="291.5,246.5 288.5,243.0 284.0,244.0 285.5,243.5" stroke="black" stroke-width="1" fill="none" />
 <polyline points="244.0,281.5 246.0,285.5 247.0,289.5 246.0,294.0 244.0,298.0 240.5,301.5 244.0,297.0" stroke="black" stroke-width="1" fill="none" />
 <polyline points="246.0,287.0 245.0,285.5 245.0,284.5 244.5,284.5 244.0,284.0 243.5,283.0" stroke="black" stroke-width="1" fill="none" />
 <polyline points="222.0,290.0 218.0,285.0" stroke="black" stroke-width="1" fill="none" />
 <polyline points="216.0,278.5 212.0,275.0" stroke="black" stroke-width="1" fill="none" />
 <polyline points="214.5,275.5 218.5,279.5 220.5,283.0 219.0,287.0 222.5,290.5 223.5,295.0 223.0,299.0 223.0,303.0 223.5,307.0 223.5,310.5 224.0,315.0 224.0,318.5 224.0,322.5 224.0,326.5 223.5,331.0 223.0,335.0 223.0,339.0 224.0,343.0" stroke="black" stroke-width="1" fill="none" />
 <polyline points="208.0,261.0 204.0,260.0 200.5,258.0 196.5,255.0 193.0,251.0 189.0,248.0" stroke="black" stroke-width="1" fill="none" />
 <polyline points="189.0,247.5 193.5,251.5 197.5,255.5 203.0,259.5" stroke="black" stroke-width="1" fill="none" />
 <polyline points="343.0,165.0 339.0,167.5 338.0,168.5 343.5,164.5" stroke="black" stroke-width="1" fill="none" />
 <polyline points="360.5,120.5 355.5,123.5 359.0,120.5 363.0,119.5 367.5,118.5" stroke="black" stroke-width="1" fill="none" />
 <polyline points="368.0,118.5 367.0,121.5" stroke="black" stroke-width="1" fill="none" />
 <polyline points="388.0,110.5 389.0,110.5 389.0,110.5 389.5,111.0 390.0,111.0 390.5,110.5 391.0,110.0" stroke="black" stroke-width="1" fill="none" />
 <polyline points="388.5,103.5 389.0,105.5 389.5,109.5 391.0,113.0 392.0,117.0 391.5,121.5" stroke="black" stroke-width="1" fill="none" />
 <polyline points="393.5,127.5 392.5,123.0 392.5,119.0 394.0,115.0 394.0,111.5 395.5,107.5 399.5,104.0 399.0,100.0 396.5,99.0 392.5,100.0 391.5,92.0 391.0,81.5 396.5,77.0 398.5,73.0 394.5,78.5 390.5,81.0 387.0,78.5 394.5,74.5 398.0,70.5 396.0,73.5 392.5,76.5 388.5,78.5 384.5,79.5" stroke="black" stroke-width="1" fill="none" />
 <polyline points="384.0,81.5 388.0,86.0" stroke="black" stroke-width="1" fill="none" />
 <polyline points="386.5,89.5 386.0,89.0 385.0,89.0 384.5,89.0 384.5,89.0 384.0,87.5" stroke="black" stroke-width="1" fill="none" />
 <polyline points="385.0,83.5 387.5,87.5 389.0,91.5 390.5,95.0 392.5,99.5 396.0,104.5 395.5,106.5" stroke="black" stroke-width="1" fill="none" />
 <polyline points="391.0,105.0 387.0,98.0" stroke="black" stroke-width="1" fill="none" />
 <polyline points="387.0,103.0 388.5,107.0 390.0,111.0 390.5,115.0 391.0,118.5 391.0,122.5" stroke="black" stroke-width="1" fill="none" />
 <polyline points="407.5,119.0 408.0,118.5" stroke="black" stroke-width="1" fill="none" />
 <polyline points="394.0,127.0 393.5,123.0 394.5,119.0 395.0,115.0 395.0,111.0 397.0,107.5 400.0,103.5 399.0,99.5" stroke="black" stroke-width="1" fill="none" />
 <polyline points="401.5,88.0 401.5,87.0 401.5,86.0 401.0,85.5" stroke="black" stroke-width="1" fill="none" />
 <polyline points="404.0,79.0 403.0,78.5" stroke="black" stroke-width="1" fill="none" />
 <polyline points="399.5,77.0 400.0,81.0 401.5,85.0 403.0,89.5 403.5,93.5 404.0,97.5 404.0,101.5 404.5,105.5" stroke="black" stroke-width="1" fill="none" />
 <polyline points="433.0,96.5 434.0,100.5" stroke="black" stroke-width="1" fill="none" />
 <polyline points="434.0,99.0 437.5,101.0" stroke="black" stroke-width="1" fill="none" />
 <polyline points="435.0,100.0 435.0,98.0" stroke="black" stroke-width="1" fill="none" />
 <polyline points="429.0,89.0 428.5,88.5 429.0,88.0 429.0,87.5 428.0,87.0 428.5,86.5" stroke="black" stroke-width="1" fill="none" />
 <polyline points="439.0,84.0 440.5,84.0" stroke="black" stroke-width="1" fill="none" />
 <polyline points="435.0,54.0 433.5,54.0" stroke="black" stroke-width="1" fill="none" />
 <polyline points="436.5,44.5 436.5,44.5" stroke="black" stroke-width="1" fill="none" />
 <polyline points="451.5,48.5 451.5,48.5" stroke="black" stroke-width="1" fill="none" />
 <polyline points="464.0,50.0 464.5,50.5" stroke="black" stroke-width="1" fill="none" />
 <polyline points="469.5,48.5 470.0,48.0" stroke="black" stroke-width="1" fill="none" />
 <polyline points="485.0,59.0 485.5,59.0" stroke="black" stroke-width="1" fill="none" />
 <polyline points="496.0,53.0 499.0,46.0 497.0,50.0 496.0,54.0 494.5,58.0 494.0,62.0 493.5,66.0 493.0,70.5 492.5,74.5 492.0,79.0 491.5,83.0" stroke="black" stroke-width="1" fill="none" />
 <polyline points="492.0,86.5 494.0,83.0 496.5,79.0 497.5,75.0 498.5,70.5 499.0,66.5 499.5,62.5 500.0,58.5 501.0,54.0 501.0,50.5 501.0,47.0 501.0,43.5 504.5,39.5 505.5,36.0 508.0,32.0 509.5,27.5 509.5,23.0 510.0,18.5 510.5,14.5 510.0,10.5 509.5,6.5 512.0,9.0 512.0,5.0 511.5,2.0" stroke="black" stroke-width="1" fill="none" />
 <polyline points="512.5,1.5 513.5,5.5 514.0,9.5 513.0,13.0" stroke="black" stroke-width="1" fill="none" />
 <polyline points="507.0,12.0 506.5,12.0" stroke="black" stroke-width="1" fill="none" />
 <polyline points="511.0,7.0 511.0,11.0 511.0,15.0 510.5,19.5 510.0,23.0 510.0,27.0 507.5,31.5 506.0,35.5 504.0,39.5 501.5,43.5 501.0,47.5 500.0,51.5 500.0,55.5 499.0,59.0 498.5,63.0 498.0,66.5 497.5,70.5 497.0,74.0 496.0,78.0 494.0,81.5 492.0,85.5 489.0,88.0 492.5,84.0" stroke="black" stroke-width="1" fill="none" />
 <polyline points="496.5,64.0 497.0,60.5 498.0,56.5 498.5,52.5 499.0,48.5" stroke="black" stroke-width="1" fill="none" />
 <polyline points="498.0,46.0 496.5,50.0 495.0,54.5 494.0,58.5 494.0,63.0 493.0,67.0 492.5,71.0 492.0,74.5 491.5,78.5 491.0,83.0" stroke="black" stroke-width="1" fill="none" />
 <polyline points="500.5,43.0 504.5,37.0 508.5,28.0" stroke="black" stroke-width="1" fill="none" />
 <polyline points="513.0,23.0 514.0,22.0" stroke="black" stroke-width="1" fill="none" />
 <polyline points="494.0,7.5 493.5,7.5" stroke="black" stroke-width="1" fill="none" />
 <polyline points="480.5,21.0 479.5,25.0 479.0,20.5 477.5,24.5" stroke="black" stroke-width="1" fill="none" />
 <polyline points="477.5,24.5 478.5,20.5" stroke="black" stroke-width="1" fill="none" />
 <polyline points="442.0,11.5 441.0,11.0" stroke="black" stroke-width="1" fill="none" />
 <polyline points="428.0,5.0 427.0,5.5" stroke="black" stroke-width="1" fill="none" />
 <polyline points="426.5,16.0 427.0,20.0 426.0,24.5 426.0,28.5 425.0,32.5 420.0,36.5" stroke="black" stroke-width="1" fill="none" />
 <polyline points="416.0,38.5 419.0,32.5 420.0,28.5 421.5,24.5 423.0,20.5 425.0,16.0 423.0,18.0" stroke="black" stroke-width="1" fill="none" />
 <polyline points="425.0,16.0 423.0,20.5 422.0,24.5 420.5,28.5 419.5,32.5 416.5,36.5 417.5,36.5 421.0,36.5 424.5,33.0" stroke="black" stroke-width="1" fill="none" />
 <polyline points="422.0,33.0 421.5,32.5 421.0,32.5 420.5,32.0" stroke="black" stroke-width="1" fill="none" />
 <polyline points="419.0,27.5 419.5,27.0 420.5,25.5 421.0,25.0 421.5,24.0" stroke="black" stroke-width="1" fill="none" />
 <polyline points="417.0,38.0 416.5,38.0 416.0,38.0 415.0,38.0" stroke="black" stroke-width="1" fill="none" />
 <polyline points="408.5,31.5 408.0,32.0" stroke="black" stroke-width="1" fill="none" />
 <polyline points="396.0,36.0 395.5,37.5 395.0,37.5 394.5,37.5 394.0,37.0 393.5,36.5 393.0,35.0 392.5,34.5" stroke="black" stroke-width="1" fill="none" />
 <polyline points="392.5,29.5 388.0,29.5" stroke="black" stroke-width="1" fill="none" />
 <polyline points="388.0,22.5 392.0,22.0 396.0,18.5 400.5,18.0" stroke="black" stroke-width="1" fill="none" />
 <polyline points="399.0,23.0 397.5,27.0 397.0,30.5 396.0,34.5" stroke="black" stroke-width="1" fill="none" />
 <polyline points="388.0,40.0 392.5,47.5" stroke="black" stroke-width="1" fill="none" />
 <polyline points="395.0,53.0 391.0,60.0 387.0,62.0 383.0,63.5" stroke="black" stroke-width="1" fill="none" />
 <polyline points="386.0,69.0 390.0,69.0" stroke="black" stroke-width="1" fill="none" />
 <polyline points="395.5,70.0 392.0,73.5 388.0,75.5 384.5,75.0" stroke="black" stroke-width="1" fill="none" />
 <polyline points="380.0,70.5 384.5,70.0 385.5,65.5 389.5,66.0 389.5,65.5 393.0,66.0" stroke="black" stroke-width="1" fill="none" />
 <polyline points="394.5,63.5 394.5,59.5 393.5,61.5" stroke="black" stroke-width="1" fill="none" />
 <polyline points="395.0,59.0 394.0,63.0 392.5,67.5 394.0,67.5" stroke="black" stroke-width="1" fill="none" />
 <polyline points="398.0,71.0 395.0,75.0 390.0,79.0 388.0,83.0 389.5,87.0 391.5,90.5 394.5,95.5 396.0,99.0 393.0,104.0" stroke="black" stroke-width="1" fill="none" />
 <polyline points="397.5,94.0 395.0,93.0 394.0,89.5 393.0,85.5 394.5,81.5 391.0,80.0 397.0,76.0 399.0,72.0" stroke="black" stroke-width="1" fill="none" />
 <polyline points="389.5,72.0 390.0,72.5 384.5,70.5 387.5,66.0 391.0,63.0" stroke="black" stroke-width="1" fill="none" />
 <polyline points="394.5,23.5 398.5,22.5 402.0,19.0 406.0,16.0 409.5,8.0" stroke="black" stroke-width="1" fill="none" />
 <polyline points="406.0,7.5 406.5,11.5" stroke="black" stroke-width="1" fill="none" />
 <polyline points="403.0,13.5 402.5,13.5 401.0,9.5 401.0,6.0 402.0,1.5" stroke="black" stroke-width="1" fill="none" />
 <polyline points="399.5,1.5 399.0,5.5 399.0,9.5 400.0,13.5 397.0,18.0 390.5,21.5 388.5,26.0 388.5,30.0 388.5,34.0 388.5,38.0 390.0,42.5 391.5,46.5 393.0,50.0 392.5,54.0 390.0,58.0 383.5,62.0 379.5,67.5 382.0,72.0 383.0,76.0 382.0,82.5 382.5,86.5 383.5,90.5 385.5,94.5 386.5,98.5 389.0,102.5 391.5,107.0 398.0,107.5 401.5,109.0 404.0,105.0" stroke="black" stroke-width="1" fill="none" />
 <polyline points="473.5,138.0 473.5,139.5 473.0,141.5 473.0,143.0" stroke="black" stroke-width="1" fill="none" />
 <polyline points="485.5,180.0 486.5,180.5 487.0,181.0 487.5,181.5 488.5,182.0 489.5,182.5 489.5,183.0 491.5,183.0" stroke="black" stroke-width="1" fill="none" />
 <polyline points="512.5,153.5 512.5,152.0" stroke="black" stroke-width="1" fill="none" />
 <polyline points="513.0,150.0 512.0,154.5" stroke="black" stroke-width="1" fill="none" />
 <polyline points="392.5,74.0 396.5,70.0 396.5,65.5 396.0,61.5 397.0,57.5 398.5,54.0 399.0,50.0 398.5,46.5 397.5,42.5 395.5,38.0 393.0,34.0 394.0,29.5 395.5,26.0 400.5,22.0 405.0,18.0 408.5,14.0 410.0,10.0 411.5,6.0 412.0,1.5" stroke="black" stroke-width="1" fill="none" />
 <polyline points="366.5,20.5 362.5,18.5 358.0,17.5 354.0,16.0" stroke="black" stroke-width="1" fill="none" />
 <polyline points="358.5,14.0 354.5,14.0 350.0,11.5" stroke="black" stroke-width="1" fill="none" />
 <polyline points="349.5,12.0 353.0,16.0 364.0,20.0" stroke="black" stroke-width="1" fill="none" />
 <polyline points="365.0,12.0 361.0,10.5 357.0,9.5 353.0,9.5 349.0,10.5 344.5,14.5" stroke="black" stroke-width="1" fill="none" />
 <polyline points="348.0,12.5 347.0,16.5 346.5,20.5" stroke="black" stroke-width="1" fill="none" />
 <polyline points="347.5,23.0 344.0,29.0 341.0,37.5 343.0,33.0 344.0,29.0 346.0,25.0 349.0,21.0 346.5,20.5 340.0,32.5 339.0,33.5 340.5,29.5 342.0,25.5 343.5,21.5 344.5,17.5 345.5,13.5 349.5,9.5" stroke="black" stroke-width="1" fill="none" />
 <polyline points="363.0,11.0 368.0,15.0 367.0,19.5" stroke="black" stroke-width="1" fill="none" />
 <polyline points="333.5,15.5 334.0,19.5 333.0,24.0 330.5,26.5" stroke="black" stroke-width="1" fill="none" />
 <polyline points="329.5,27.0 332.0,23.0 333.0,19.0 330.5,15.0 326.5,21.5" stroke="black" stroke-width="1" fill="none" />
 <polyline points="329.0,40.0 324.5,48.5" stroke="black" stroke-width="1" fill="none" />
 <polyline points="329.0,49.0 330.0,51.0 331.0,55.0" stroke="black" stroke-width="1" fill="none" />
 <polyline points="331.0,56.0 331.0,52.0 329.5,48.0" stroke="black" stroke-width="1" fill="none" />
 <polyline points="327.0,70.0 326.5,71.5 326.0,72.5 325.0,74.0 324.5,75.0 324.0,76.0 323.5,77.5" stroke="black" stroke-width="1" fill="none" />
 <polyline points="328.5,75.5 327.5,79.5 327.0,84.0 327.0,88.0 326.0,92.0 325.5,96.0 324.5,100.0 324.0,103.5 322.5,107.5 321.0,111.0 319.5,115.0 316.0,119.5 314.5,123.5 314.0,128.0 314.0,132.0 314.0,136.0 313.5,140.0 313.0,144.0 312.0,148.5 311.5,152.5 311.0,156.5 310.5,160.0 310.0,164.0 310.0,168.0 309.0,172.0 308.5,176.0 308.5,180.0 308.5,184.0 308.5,188.0 308.5,192.0 308.0,196.0 307.5,200.5 306.5,204.0 306.0,208.0 304.5,212.5 304.0,216.5 306.0,220.5 311.0,224.5 312.5,228.5 313.0,233.0 313.0,237.0 312.5,241.0 312.0,245.0 310.5,248.5 310.0,252.5 308.5,256.5 308.0,260.5 307.5,264.0 308.0,269.5 307.5,273.0" stroke="black" stroke-width="1" fill="none" />
 <polyline points="315.0,121.0 319.0,116.5" stroke="black" stroke-width="1" fill="none" />
 <polyline points="334.5,5.5 336.5,2.0" stroke="black" stroke-width="1" fill="none" />
 <polyline points="333.5,1.0 333.5,5.5 332.5,9.5 331.5,14.0 328.5,18.0 327.5,22.0 327.5,26.0 329.0,30.5 329.5,34.5 332.0,38.5 330.0,42.5 328.5,46.5 326.5,50.5 326.5,54.5 327.5,58.0 328.5,62.5 328.0,66.0 326.5,70.0 325.0,74.5 323.5,78.5 323.0,82.5 322.0,86.0 321.5,90.0 320.5,94.0 320.0,98.0 319.0,101.5 318.0,105.5 317.5,109.5 316.0,113.0 317.0,111.0" stroke="black" stroke-width="1" fill="none" />
 <polyline points="322.5,1.5 322.0,5.5 321.5,9.5 321.0,13.5 320.5,18.0 320.0,22.0 319.5,26.0 318.5,29.5 318.0,33.5 317.0,38.0 316.0,42.0 315.5,46.0 315.0,50.0 314.0,54.0 313.0,58.0 312.0,62.0 311.0,66.0 310.5,70.5 309.5,74.5 309.0,78.5 307.5,82.5 307.5,86.5 307.0,90.5 306.5,94.5 306.0,98.5 305.0,102.5 304.0,106.5 303.0,110.0 302.0,114.0 301.0,118.5 301.0,122.5 300.0,126.5 299.0,130.0 299.0,134.0 298.0,138.0 298.0,142.0 297.5,146.5 296.5,150.5 296.0,155.0 295.5,159.0 294.5,163.0 294.0,167.0 293.0,171.0 292.0,174.5 291.5,178.0 290.5,181.5 290.0,185.5 290.0,189.5 289.5,193.5 289.0,198.0 288.0,202.0 287.5,206.0 286.5,209.5 286.0,213.5 285.0,218.0 284.5,222.5 283.5,226.5 282.5,230.5 282.0,234.5 280.5,239.0 279.5,243.0 278.5,246.5 278.0,250.5 277.5,254.5 277.0,258.5 277.0,262.5 276.0,266.5 276.0,270.0 277.0,274.0 277.0,278.0 275.5,281.5 273.0,286.0 273.5,286.0" stroke="black" stroke-width="1" fill="none" />
</svg>