<svg xmlns="http://www.w3.org/2000/svg" version="1.1"><polyline points="280.0,41.5,279.0,45.5" stroke="black" stroke-width="2" fill="none" />
<polyline points="274.5,44.0,277.5,47.5,277.5,52.0,278.0,56.0,279.0,59.5,279.0,63.5,279.0,67.5,279.0,72.0,279.5,76.0,279.5,80.0,279.5,84.0,280.0,88.0,279.5,92.0,280.0,96.0,280.0,100.0,280.0,104.0,280.5,108.0,280.5,112.5,280.0,116.5,280.0,120.0,281.0,124.5,280.5,128.5,281.0,132.0,281.0,136.0,281.5,140.0" stroke="black" stroke-width="2" fill="none" />
<polyline points="287.0,141.5,282.5,143.0,278.0,143.5,274.0,140.5,270.5,140.0,267.0,141.0,263.5,148.0,261.5,152.0,259.5,155.5,262.5,151.5,263.0,147.5,265.0,144.5,268.5,140.5" stroke="black" stroke-width="2" fill="none" />
<polyline points="273.5,138.5,277.5,142.5" stroke="black" stroke-width="2" fill="none" />
<polyline points="263.0,143.0,259.5,149.5,255.0,154.5,251.5,157.5,247.5,159.0,243.0,159.5,239.5,159.0,235.5,162.5" stroke="black" stroke-width="2" fill="none" />
<polyline points="238.0,160.0,234.5,164.0,234.0,168.0,228.5,172.0,225.0,176.5,223.0,180.5,215.0,184.5,213.5,188.5,211.5,192.5,211.5,196.0,210.0,200.0,207.0,204.0,202.5,208.5,205.0,209.5" stroke="black" stroke-width="2" fill="none" />
<polyline points="205.5,208.5,203.5,212.0,203.0,216.0,202.5,219.5,203.0,223.5,203.5,228.0,203.5,232.0,202.5,236.0,202.5,240.0,203.0,244.0,203.5,247.5,203.5,252.0,204.5,256.0,206.0,260.0,206.0,264.0,200.5,270.0,198.5,273.5,198.0,277.5,199.5,281.5,199.0,285.5,199.0,289.5,201.5,293.5,203.5,298.0,207.5,302.0,211.0,308.5" stroke="black" stroke-width="2" fill="none" />
<polyline points="206.5,307.0,202.5,303.0" stroke="black" stroke-width="2" fill="none" />
<polyline points="201.5,303.5,205.0,307.5,209.5,311.5,209.5,315.5,209.0,319.5,208.5,323.0" stroke="black" stroke-width="2" fill="none" />
<polyline points="201.0,315.0,205.0,322.5,208.5,330.5,212.5,337.0,216.5,343.0,220.5,349.0,224.5,354.5,228.5,359.5,233.0,364.5,237.0,370.0,241.0,375.0,245.0,380.0,249.0,385.0,253.5,390.0,257.5,394.5,262.0,398.0,266.0,402.5" stroke="black" stroke-width="2" fill="none" />
<polyline points="265.0,409.0,261.0,407.0,257.0,404.0,253.0,400.0,248.5,399.5" stroke="black" stroke-width="2" fill="none" />
<polyline points="252.0,400.5,251.0,404.5,259.0,406.5" stroke="black" stroke-width="2" fill="none" />
<polyline points="270.0,396.0,266.0,392.5,262.5,388.0,258.5,383.5,254.5,379.0,250.5,374.5,246.5,369.5" stroke="black" stroke-width="2" fill="none" />
<polyline points="247.5,369.0,250.0,373.0,253.5,377.0,256.5,381.0,259.5,385.5,263.0,389.5,267.0,393.5" stroke="black" stroke-width="2" fill="none" />
<polyline points="268.0,406.5,264.5,402.5,261.0,398.0,256.5,394.0,252.5,390.0,249.0,386.0,245.5,381.5,242.5,377.5,239.5,373.5,236.0,369.5,233.5,365.5,230.0,361.0,226.5,357.0,223.5,353.0,220.5,349.5,218.0,346.0,216.0,342.5,214.0,338.5,211.0,334.0,209.0,330.5,206.5,326.5,204.5,322.0,202.0,318.0,200.0,314.5,199.5,310.5,198.5,306.5,196.0,302.5,191.5,299.5,187.0,299.0" stroke="black" stroke-width="2" fill="none" />
<polyline points="196.0,299.0,200.0,304.0" stroke="black" stroke-width="2" fill="none" />
<polyline points="207.5,295.5,211.5,298.0,215.5,296.5,220.0,297.0" stroke="black" stroke-width="2" fill="none" />
<polyline points="207.0,288.5,211.0,283.0,215.0,280.0" stroke="black" stroke-width="2" fill="none" />
<polyline points="215.0,281.0,209.0,285.0,208.0,289.0,207.0,292.5,208.5,296.5" stroke="black" stroke-width="2" fill="none" />
<polyline points="207.0,299.5,203.0,293.0" stroke="black" stroke-width="2" fill="none" />
<polyline points="199.0,290.0,203.0,297.0,207.5,301.0,212.0,302.5,213.0,309.0,217.0,310.5" stroke="black" stroke-width="2" fill="none" />
<polyline points="207.0,299.0,204.5,294.5,203.0,290.5,203.0,286.5,204.0,282.0" stroke="black" stroke-width="2" fill="none" />
<polyline points="198.5,277.0,202.5,269.0,206.5,268.0,210.5,270.0" stroke="black" stroke-width="2" fill="none" />
<polyline points="202.0,264.0,199.5,268.0,197.5,272.0,196.0,276.0,195.5,280.0" stroke="black" stroke-width="2" fill="none" />
<polyline points="192.5,283.0,188.5,284.5,190.0,283.5" stroke="black" stroke-width="2" fill="none" />
<polyline points="194.0,266.5,189.5,264.5" stroke="black" stroke-width="2" fill="none" />
<polyline points="194.0,268.0,191.0,267.0,188.5,267.0,186.5,265.5,182.0,266.5" stroke="black" stroke-width="2" fill="none" />
<polyline points="182.0,264.0,180.5,268.5,184.5,270.0,189.0,270.0,193.5,269.5,200.0,266.5" stroke="black" stroke-width="2" fill="none" />
<polyline points="198.5,263.5,196.0,268.0,198.5,264.0,203.0,263.5,209.0,265.5,213.0,264.0,217.0,260.0" stroke="black" stroke-width="2" fill="none" />
<polyline points="217.5,260.0,212.5,264.0,215.5,266.5,219.5,265.5" stroke="black" stroke-width="2" fill="none" />
<polyline points="218.0,279.5,219.5,284.0,219.5,288.5,223.0,292.5" stroke="black" stroke-width="2" fill="none" />
<polyline points="237.0,260.0,241.0,258.5,245.0,257.5,249.0,256.5,252.5,256.0" stroke="black" stroke-width="2" fill="none" />
<polyline points="253.0,253.5,253.0,250.5,249.0,250.5,245.0,251.0,241.0,252.5,237.5,255.0" stroke="black" stroke-width="2" fill="none" />
<polyline points="247.0,251.0,238.0,255.0,236.0,262.5,235.5,266.5,233.5,270.5" stroke="black" stroke-width="2" fill="none" />
<polyline points="261.0,270.5,262.0,274.5,263.0,278.0,264.5,282.0,265.5,285.5,268.0,289.5,271.5,293.5,279.0,297.0" stroke="black" stroke-width="2" fill="none" />
<polyline points="292.5,299.5,296.5,299.0,300.5,297.5,305.0,295.5,303.0,297.0" stroke="black" stroke-width="2" fill="none" />
<polyline points="305.0,300.5,308.5,294.5,312.5,291.0,311.0,292.5,306.5,296.5,304.0,300.5,299.0,303.5,298.0,308.5,301.5,312.5" stroke="black" stroke-width="2" fill="none" />
<polyline points="298.0,310.0,302.0,313.5,306.5,314.5,311.0,316.0,315.0,317.0,319.5,317.5,323.5,318.5" stroke="black" stroke-width="2" fill="none" />
<polyline points="333.5,318.0,337.5,316.0" stroke="black" stroke-width="2" fill="none" />
<polyline points="338.0,312.0,334.0,313.0,336.5,312.0" stroke="black" stroke-width="2" fill="none" />
<polyline points="346.0,305.5,344.0,301.5" stroke="black" stroke-width="2" fill="none" />
<polyline points="340.5,278.5,344.5,280.0,349.0,281.0,353.0,278.0,355.0,275.5,352.0,279.0,358.0,279.5" stroke="black" stroke-width="2" fill="none" />
<polyline points="361.5,279.5,358.5,275.5" stroke="black" stroke-width="2" fill="none" />
<polyline points="361.5,276.5,357.5,274.0,352.0,273.0,352.0,277.0,352.0,273.5" stroke="black" stroke-width="2" fill="none" />
<polyline points="356.0,271.5,361.5,275.5" stroke="black" stroke-width="2" fill="none" />
<polyline points="367.5,281.5,371.5,283.5,375.5,281.5,379.5,281.0,383.5,280.0,384.0,280.0,373.0,284.0" stroke="black" stroke-width="2" fill="none" />
<polyline points="371.5,289.0,375.5,288.0,379.5,287.5,383.0,286.5" stroke="black" stroke-width="2" fill="none" />
<polyline points="386.0,286.0,389.0,285.0,388.0,289.0,386.5,293.0,384.5,297.0,381.5,301.0,377.5,305.0,380.0,302.5,383.5,297.5,387.5,288.5" stroke="black" stroke-width="2" fill="none" />
<polyline points="392.5,291.0,388.5,299.0,384.5,304.5,380.5,309.0,376.0,311.5,372.5,313.0,368.5,314.0,364.5,323.5,360.5,332.5,356.5,343.5,352.5,352.5,348.5,361.5,344.0,368.5,339.5,375.0" stroke="black" stroke-width="2" fill="none" />
<polyline points="333.5,378.5,331.5,381.0,328.0,382.0,324.0,382.5" stroke="black" stroke-width="2" fill="none" />
<polyline points="329.5,378.0,332.5,374.0" stroke="black" stroke-width="2" fill="none" />
<polyline points="344.5,368.0,344.5,372.5,345.0,376.5,346.0,380.5,345.5,385.0,345.0,389.5,346.0,393.5,346.0,397.5,345.5,401.5" stroke="black" stroke-width="2" fill="none" />
<polyline points="353.0,403.5,356.5,408.5,360.5,411.5,364.0,415.5,367.5,419.5" stroke="black" stroke-width="2" fill="none" />
<polyline points="371.0,425.0,375.0,419.0,379.0,417.5,383.0,418.0,387.5,422.0" stroke="black" stroke-width="2" fill="none" />
<polyline points="381.5,417.5,386.5,422.0,387.5,426.0,388.0,430.5,389.0,434.5,389.5,438.0,389.5,442.0,390.0,446.0,390.5,450.0,391.0,454.0,392.0,458.0,393.5,462.0,396.0,466.0,397.5,472.5,399.0,476.5,400.5,480.5,402.0,484.5,404.5,488.5,406.5,492.5,408.0,496.5" stroke="black" stroke-width="2" fill="none" />
<polyline points="406.0,495.0,402.0,485.5,398.0,476.5" stroke="black" stroke-width="2" fill="none" />
<polyline points="384.0,479.0,385.0,474.5,384.5,470.0,383.5,468.0" stroke="black" stroke-width="2" fill="none" />
<polyline points="414.0,463.5,418.5,465.5" stroke="black" stroke-width="2" fill="none" />
<polyline points="415.5,463.5,419.0,467.5,425.5,472.0" stroke="black" stroke-width="2" fill="none" />
<polyline points="420.0,459.0,424.5,451.5,428.5,447.5,432.5,445.5,436.5,445.0,440.5,444.5,445.0,445.0,449.5,445.5,454.0,445.0,458.0,443.0,462.0,440.5,466.0,439.5,469.5,438.0" stroke="black" stroke-width="2" fill="none" />
<polyline points="473.5,437.5,469.5,435.5,465.5,434.0,461.5,432.0,457.0,430.5,453.0,428.5,449.0,428.5" stroke="black" stroke-width="2" fill="none" />
<polyline points="449.0,427.0,449.0,431.0,449.5,435.0" stroke="black" stroke-width="2" fill="none" />
<polyline points="452.0,427.5,460.5,431.5,470.0,435.5,476.5,439.5,477.5,443.0,478.0,447.0,478.0,451.0,478.5,455.0,478.5,459.0,478.5,463.0,478.5,466.5,478.5,470.5,477.5,475.0" stroke="black" stroke-width="2" fill="none" />
<polyline points="464.0,507.5,464.5,511.0,463.5,515.0,461.5,517.5,462.5,516.0" stroke="black" stroke-width="2" fill="none" />
<polyline points="458.5,522.0,455.0,523.5,451.0,520.0" stroke="black" stroke-width="2" fill="none" />
<polyline points="446.5,519.5,450.5,515.5,454.5,515.5" stroke="black" stroke-width="2" fill="none" />
<polyline points="451.0,514.0,447.5,518.5,454.0,523.5,460.0,522.0" stroke="black" stroke-width="2" fill="none" />
<polyline points="457.5,527.5,453.5,526.0,450.0,525.0,446.0,523.5,442.0,519.0" stroke="black" stroke-width="2" fill="none" />
<polyline points="441.5,519.0,443.0,523.0,453.0,527.0" stroke="black" stroke-width="2" fill="none" />
<polyline points="466.5,524.0,462.0,528.0,455.0,531.5,448.0,535.5,442.5,539.0,448.0,543.0" stroke="black" stroke-width="2" fill="none" />
<polyline points="443.0,538.0,446.5,540.5,450.5,543.0,454.5,545.0,458.0,545.0,461.5,545.5,465.0,545.0,469.0,547.0,472.5,548.0,476.5,549.5,480.5,552.5,485.0,555.0,489.0,558.0,493.5,560.0,498.0,560.5,502.5,560.5,506.5,561.5,511.0,562.0" stroke="black" stroke-width="2" fill="none" />
<polyline points="509.5,561.5,512.0,565.5,513.0,570.0" stroke="black" stroke-width="2" fill="none" />
<polyline points="497.0,559.5,489.0,555.5,483.5,551.5,478.0,547.5" stroke="black" stroke-width="2" fill="none" />
<polyline points="479.5,520.0,484.0,518.5,488.0,518.5,492.0,518.0,496.5,516.5,500.0,514.0,504.5,513.5,508.5,514.5,512.5,512.0" stroke="black" stroke-width="2" fill="none" />
<polyline points="484.0,517.0,482.5,520.5" stroke="black" stroke-width="2" fill="none" />
<polyline points="477.0,523.0,473.0,522.5,469.5,522.5,465.5,522.5,461.5,526.5,457.5,528.5,454.0,530.0,450.5,532.5,446.5,535.0,443.0,537.0" stroke="black" stroke-width="2" fill="none" />
<polyline points="440.0,544.0,436.0,544.5,432.0,546.0,428.0,546.5" stroke="black" stroke-width="2" fill="none" />
<polyline points="427.5,546.0,427.5,550.0,428.5,554.0,429.5,558.5,431.0,562.0,431.5,566.0,433.0,570.0,435.0,574.0,436.0,578.0,437.0,582.0" stroke="black" stroke-width="2" fill="none" />
<polyline points="438.5,575.0,443.0,574.5" stroke="black" stroke-width="2" fill="none" />
<polyline points="438.5,579.5,434.5,569.0" stroke="black" stroke-width="2" fill="none" />
<polyline points="440.5,558.0,444.5,558.0,448.5,561.5,452.5,561.5,456.5,563.5,460.0,568.0" stroke="black" stroke-width="2" fill="none" />
<polyline points="457.5,566.0,450.5,562.0" stroke="black" stroke-width="2" fill="none" />
<polyline points="443.0,589.5,447.0,593.5,448.5,596.0,449.5,600.0,452.0,604.0,451.5,608.0,453.0,612.0,455.5,615.5,458.5,619.0,460.5,623.5,462.0,627.5,463.0,631.5,465.0,635.5,465.5,639.5,466.0,643.5,466.5,647.5,468.0,650.5,472.5,651.0,476.0,651.0,479.5,651.0,483.5,651.5,487.5,651.5,492.0,651.5,496.0,650.5,499.5,649.0,503.5,648.5,507.5,646.0,511.0,644.5,505.0,646.5" stroke="black" stroke-width="2" fill="none" />
<polyline points="460.5,604.0,456.5,604.0,452.5,603.0" stroke="black" stroke-width="2" fill="none" />
<polyline points="451.0,605.5,455.0,613.5,459.5,619.5,463.5,630.0" stroke="black" stroke-width="2" fill="none" />
<polyline points="443.5,628.0,439.5,635.5,435.5,642.5,431.5,647.0,427.5,652.0,423.5,654.5,419.0,654.5,415.0,653.5,411.0,652.5,407.0,651.0,403.0,649.5,399.0,646.0,395.0,642.5,391.0,638.5" stroke="black" stroke-width="2" fill="none" />
<polyline points="392.0,637.5,395.5,641.5,399.5,645.5,406.5,649.5,409.0,653.0,409.0,656.5,411.0,658.5,412.5,657.0,416.0,658.0,420.0,658.0,424.0,659.5,428.0,656.0,434.0,654.0" stroke="black" stroke-width="2" fill="none" />
<polyline points="432.5,656.5,431.5,656.0,437.0,653.5,437.5,649.5" stroke="black" stroke-width="2" fill="none" />
<polyline points="443.5,670.0,439.5,672.0,435.5,676.0,431.5,677.5,427.5,678.0,436.5,675.5,443.0,671.5,442.5,669.5,438.5,670.0,434.5,670.0,430.5,671.5,426.5,670.5" stroke="black" stroke-width="2" fill="none" />
<polyline points="422.5,665.5,429.0,670.5,426.0,672.0,426.0,675.5,425.0,679.5" stroke="black" stroke-width="2" fill="none" />
<polyline points="419.5,671.0,415.5,669.5,410.5,668.0,406.5,666.5,402.5,665.5,398.5,663.5,394.0,660.5,390.0,658.0,386.0,655.5" stroke="black" stroke-width="2" fill="none" />
<polyline points="387.0,654.5,389.0,658.5,392.5,662.5,396.5,666.5,402.0,671.0,410.5,675.0" stroke="black" stroke-width="2" fill="none" />
<polyline points="410.0,675.5,406.0,674.5,402.0,671.5,398.0,669.0,394.5,666.0,391.5,659.5,387.5,656.5" stroke="black" stroke-width="2" fill="none" />
<polyline points="388.0,655.0,391.0,659.0,398.0,663.0" stroke="black" stroke-width="2" fill="none" />
<polyline points="407.0,659.0,403.0,653.0,399.0,650.0,395.0,646.5" stroke="black" stroke-width="2" fill="none" />
<polyline points="395.5,650.0,400.5,654.0,404.5,657.5,406.0,661.5,405.5,661.5,409.5,663.0,413.5,663.0,417.5,663.0,421.5,663.5" stroke="black" stroke-width="2" fill="none" />
<polyline points="417.0,669.5,419.0,673.5" stroke="black" stroke-width="2" fill="none" />
<polyline points="401.5,658.0,397.5,656.0,394.0,652.0,390.0,648.0" stroke="black" stroke-width="2" fill="none" />
<polyline points="390.0,647.0,394.0,645.0,394.0,648.5,402.0,650.5,407.0,654.5" stroke="black" stroke-width="2" fill="none" />
<polyline points="425.5,655.5,421.0,655.5,417.0,655.5,413.0,655.5,407.5,654.0,403.5,651.0,399.5,649.0,395.5,645.5,392.0,641.5,388.0,641.5" stroke="black" stroke-width="2" fill="none" />
<polyline points="387.5,642.0,388.0,646.0,390.0,650.0,394.5,653.5,398.0,656.5,403.5,661.5,405.0,666.5,413.0,670.5,414.0,674.5,417.0,677.5" stroke="black" stroke-width="2" fill="none" />
<polyline points="383.0,624.5,378.5,621.5,374.0,618.5,370.0,614.5,366.0,610.0,362.0,605.0,358.0,598.5,354.0,591.0,350.0,584.0,346.0,576.0,342.0,572.5,338.0,569.0,334.5,566.0,330.5,563.5,327.0,559.5,323.0,552.5" stroke="black" stroke-width="2" fill="none" />
<polyline points="322.5,548.0,326.5,541.0,330.5,540.5,334.5,542.0,338.5,544.5,342.0,547.0,346.5,549.5,350.5,553.0" stroke="black" stroke-width="2" fill="none" />
<polyline points="349.5,548.5,345.5,546.0,341.5,543.0,337.0,540.5,333.0,538.5,329.0,537.0,325.0,531.5" stroke="black" stroke-width="2" fill="none" />
<polyline points="330.0,540.0,338.0,544.0,344.0,547.5,349.5,551.5,353.5,556.0" stroke="black" stroke-width="2" fill="none" />
<polyline points="361.5,546.0,365.0,549.5,367.5,553.5,370.0,557.5,373.5,562.0" stroke="black" stroke-width="2" fill="none" />
<polyline points="378.0,563.0,374.0,558.5,370.5,554.5,366.0,548.5,362.0,544.5" stroke="black" stroke-width="2" fill="none" />
<polyline points="373.0,519.0,377.0,521.5,380.5,526.0,384.5,529.5,389.0,534.5,393.0,538.0,397.0,541.5" stroke="black" stroke-width="2" fill="none" />
<polyline points="397.5,542.0,392.5,538.0,388.0,534.0,385.5,530.0,382.0,526.0,378.0,522.5,374.0,518.5" stroke="black" stroke-width="2" fill="none" />
<polyline points="360.0,515.5,356.0,513.0,351.5,510.5,348.0,507.0,344.0,504.0,339.5,498.5" stroke="black" stroke-width="2" fill="none" />
<polyline points="335.5,497.0,339.5,490.0,343.5,485.5,340.5,489.0,338.0,493.0,336.5,497.0,335.5,503.5,340.5,508.0" stroke="black" stroke-width="2" fill="none" />
<polyline points="339.5,493.5,343.5,488.5,348.5,486.5,345.0,491.0,344.5,492.0,348.5,487.5" stroke="black" stroke-width="2" fill="none" />
<polyline points="346.0,487.5,342.0,491.5,339.0,495.5,340.0,499.5,343.0,503.0,348.0,506.5,354.0,510.5,359.5,514.5" stroke="black" stroke-width="2" fill="none" />
<polyline points="340.5,506.5,336.0,503.5,332.5,499.0,333.5,495.0,334.0,491.0,333.0,492.0" stroke="black" stroke-width="2" fill="none" />
<polyline points="324.0,488.5,319.5,483.5,315.5,479.5,311.0,474.5,307.0,470.0,303.0,465.5,299.0,461.0,295.0,455.5" stroke="black" stroke-width="2" fill="none" />
<polyline points="295.0,450.5,299.0,445.0,303.0,443.0,307.5,443.5,311.5,445.5,316.0,449.0,320.0,452.5,323.5,456.0,327.5,460.0,331.5,464.0,336.0,467.5,340.0,471.0,344.0,474.0,348.0,477.5,352.0,481.0,356.0,486.5,360.0,490.5,364.0,494.5,368.0,492.5" stroke="black" stroke-width="2" fill="none" />
<polyline points="340.0,509.5,336.0,509.0,332.5,508.5,328.5,509.0,325.0,509.0,320.5,513.5" stroke="black" stroke-width="2" fill="none" />
<polyline points="320.0,517.5,324.0,523.5,328.5,522.0" stroke="black" stroke-width="2" fill="none" />
<polyline points="325.0,508.0,320.0,512.0,319.5,516.5,322.0,521.0,325.5,525.0,326.0,529.5,327.0,533.5,330.0,537.5,338.0,542.0,345.0,546.0,350.5,550.5" stroke="black" stroke-width="2" fill="none" />
<polyline points="328.0,541.5,324.5,545.5,322.5,549.5,323.0,553.0,324.5,557.0,327.0,561.0,330.5,564.5,337.0,569.0,341.5,573.0,346.0,576.5,348.5,580.5,350.5,584.5,352.5,588.5,355.5,592.5,357.5,596.5,359.5,600.5,362.0,604.5,365.0,608.5,369.0,612.5,373.0,616.5,378.0,620.5,384.0,624.5" stroke="black" stroke-width="2" fill="none" />
<polyline points="437.0,649.0,437.5,653.0,441.0,648.0,439.0,648.0,442.5,644.0,442.0,640.0,446.5,636.0,444.5,636.0,446.5,632.0,449.5,627.0,448.0,623.0,448.5,617.5,449.0,611.5,448.5,607.5" stroke="black" stroke-width="2" fill="none" />
<polyline points="450.0,600.0,453.5,601.5,457.5,599.0,461.5,600.5" stroke="black" stroke-width="2" fill="none" />
<polyline points="458.5,600.0,461.5,604.0" stroke="black" stroke-width="2" fill="none" />
<polyline points="460.0,595.0,461.0,590.5,459.0,592.5" stroke="black" stroke-width="2" fill="none" />
<polyline points="461.5,592.0,462.5,596.0,463.5,600.0" stroke="black" stroke-width="2" fill="none" />
<polyline points="443.0,590.5,444.5,594.5,445.5,598.5,446.0,602.5,446.5,606.5,446.0,610.5,445.5,614.5,445.5,618.5,444.5,622.0,443.0,626.0,441.0,630.0,438.5,634.0,435.5,638.0,433.5,642.0,430.0,646.0,427.5,650.0,428.0,653.5,428.0,656.5,424.5,660.5,423.5,666.5,424.0,670.5,424.0,674.5,424.0,678.5,424.5,682.5" stroke="black" stroke-width="2" fill="none" />
<polyline points="269.5,668.0,268.5,672.0,267.5,676.0,266.5,679.5" stroke="black" stroke-width="2" fill="none" />
<polyline points="274.0,626.0,274.5,622.5,276.0,619.0,277.0,615.0,276.0,618.0" stroke="black" stroke-width="2" fill="none" />
<polyline points="278.0,614.5,277.0,619.0,276.0,623.0,274.5,627.5" stroke="black" stroke-width="2" fill="none" />
<polyline points="360.0,492.5,355.5,489.0,352.0,485.0,348.5,481.0,343.0,477.5,339.0,473.5,334.5,469.0,330.0,465.0,326.5,461.0,322.5,457.0,318.0,453.0,313.0,449.0,307.5,445.0" stroke="black" stroke-width="2" fill="none" />
<polyline points="300.0,445.0,295.5,449.0,294.5,453.0,294.5,457.0,297.0,460.5,301.0,464.0,303.5,468.0,307.0,472.0,311.0,475.5,314.5,479.5,318.5,483.0,322.0,487.0,325.0,491.5" stroke="black" stroke-width="2" fill="none" />
<polyline points="306.0,409.5,302.0,409.5,298.5,409.0,294.5,409.5,290.5,407.5" stroke="black" stroke-width="2" fill="none" />
<polyline points="332.5,395.5,336.5,397.5,340.5,400.0" stroke="black" stroke-width="2" fill="none" />
<polyline points="341.5,401.5,335.5,397.5" stroke="black" stroke-width="2" fill="none" />
<polyline points="337.0,389.0,333.0,395.5,329.0,399.5,325.5,404.0,321.5,406.5,317.5,410.0,319.0,407.5,325.5,404.0,329.0,400.5,333.0,397.0,335.5,393.0,338.0,389.5,339.5,385.5,340.0,381.5,340.0,377.5,341.5,373.5,344.0,369.5,346.5,365.0,349.0,360.5,351.0,356.5,352.5,352.5,354.5,348.5,356.0,344.5,358.0,340.5,359.0,336.5,361.0,332.5,362.0,328.5,364.0,324.5,366.0,320.5,367.5,316.0,372.5,312.0,380.0,307.5,385.0,303.5,388.5,299.5,391.5,295.5,393.0,291.5,394.5,287.5,395.0,283.0,396.5,279.0,393.0,275.0,391.5,271.5,389.0,267.5,385.0,263.5,377.5,259.0,374.0,254.0,372.5,250.0,373.5,246.5,376.5,243.0,376.0,239.0,375.0,235.0,376.5,231.0,379.5,227.5,381.5,225.0,377.5,231.5,373.0,234.0" stroke="black" stroke-width="2" fill="none" />
<polyline points="364.0,247.5,366.0,252.0" stroke="black" stroke-width="2" fill="none" />
<polyline points="366.5,259.5,370.0,263.5,372.0,266.0,370.5,269.5,368.5,274.0,367.0,278.0,366.5,283.5,366.5,287.5,366.5,291.5,367.0,295.5,368.0,299.0,368.0,303.0,368.0,307.5,368.5,310.0,372.5,308.5,376.5,305.5,381.0,302.5,385.5,297.0,390.0,288.5" stroke="black" stroke-width="2" fill="none" />
<polyline points="390.5,297.5,390.5,301.5,391.0,305.5,391.0,309.0,391.5,312.5,391.5,316.0,392.0,320.0,392.0,324.0,392.0,327.5,392.5,331.5,392.5,335.5,392.5,339.5,392.5,344.0,392.5,348.5,392.5,352.5,393.0,357.0,393.5,361.0,393.5,365.0,394.5,369.0,394.5,372.5,395.0,377.0,394.5,381.0,394.5,384.5,394.0,388.5,394.5,392.5,394.5,396.0,394.5,400.0,395.0,404.0,395.0,408.0,395.0,412.5,395.5,416.5,395.5,420.5,397.0,424.0" stroke="black" stroke-width="2" fill="none" />
<polyline points="408.5,429.5,408.5,433.5,409.5,437.5,410.5,441.5" stroke="black" stroke-width="2" fill="none" />
<polyline points="409.0,430.0,413.0,429.5,417.0,429.5,421.0,429.0,425.5,426.0,429.5,427.5,433.5,428.5,437.5,428.5,442.0,427.5,446.0,425.5" stroke="black" stroke-width="2" fill="none" />
<polyline points="451.0,421.5,450.5,417.5,450.5,413.5,450.5,409.5,450.0,405.5,449.5,401.0,449.0,396.5,449.0,392.5,449.0,388.0,448.0,384.5,447.5,381.0,447.5,377.5,447.0,373.5,447.0,369.5,447.0,365.5,446.5,361.5,446.5,357.0,447.0,353.0,447.0,349.0,447.0,345.0,447.5,341.5,447.5,337.5,447.5,334.0,447.5,330.0,447.0,326.0,447.0,321.5,446.5,317.5,446.0,313.0,446.0,309.0,446.0,305.0,445.0,301.0,445.5,297.0,445.0,293.0,444.5,289.0,445.0,285.0,444.5,281.0,443.5,277.0,443.5,273.0,443.5,269.0,443.0,265.0,443.0,261.0,443.0,256.5,443.0,252.5,442.5,248.5,442.5,244.5,442.5,240.5,442.5,236.5,442.0,233.0,441.5,229.0,442.0,225.5,441.5,221.5,441.0,218.0,441.0,214.5,440.5,210.5,440.0,206.5,440.0,202.5,440.0,198.0,439.5,194.0,439.0,189.5,439.0,186.0,439.0,182.0,438.5,178.5,438.5,174.5,438.0,170.0,438.5,166.5,437.5,162.5,437.5,158.5,437.5,154.5,437.0,150.5,436.5,146.5,436.5,142.5,436.5,138.5,436.5,134.5,437.0,130.0,436.0,126.0,436.5,122.0,436.0,117.5,435.5,113.5,435.5,109.5,435.0,105.5,435.0,101.5,434.5,98.0,433.5,94.0,433.5,90.0,433.5,86.0,433.0,82.0,433.5,78.0,434.0,74.0,434.0,69.5,433.5,65.5,433.0,61.5,432.5,57.5,432.5,53.5,432.5,50.0,431.5,46.0,427.5,45.0,423.5,43.5,419.5,42.5,415.5,43.0,411.5,43.0,407.0,43.5,403.0,43.5,399.0,43.5,395.0,43.5,391.0,43.0,387.0,43.0,383.0,42.5,379.0,42.0,375.0,42.0,371.0,42.0,367.5,42.5,364.0,42.5,360.0,41.5,356.0,42.0,352.0,42.5,348.0,42.0,343.5,42.0,339.5,41.5,335.5,41.5,331.0,41.5,327.0,41.5,323.0,41.0,319.0,41.0,315.0,41.0,311.0,41.0,307.0,41.0,303.0,40.0,298.5,40.0,294.5,40.0,290.5,40.5,287.0,41.0,283.5,41.5,279.5,42.0,275.5,41.0" stroke="black" stroke-width="2" fill="none" />
<polyline points="305.5,60.0,305.5,63.5,306.0,68.0,306.5,72.5,307.0,76.5,307.0,80.5,307.5,84.0,308.0,88.0,308.5,92.0,309.0,95.5,309.0,99.5,309.0,103.5,309.5,108.0,309.5,112.0,309.0,116.0,309.0,120.0,309.0,123.5,309.0,128.0,309.5,132.0,309.5,136.0,310.0,140.5,311.5,141.5" stroke="black" stroke-width="2" fill="none" />
<polyline points="321.0,139.0,325.0,143.5,329.0,144.0,333.0,148.0" stroke="black" stroke-width="2" fill="none" />
<polyline points="340.0,146.0,344.5,150.0,349.5,153.5" stroke="black" stroke-width="2" fill="none" />
<polyline points="345.5,190.0,350.0,194.0,354.5,198.5,358.0,202.5,361.0,206.5,363.5,211.0,365.0,215.0,366.5,218.5,367.5,222.5,368.5,226.5,368.5,230.5,369.0,235.0,370.0,239.0,370.5,243.0,370.0,247.0,369.5,250.5" stroke="black" stroke-width="2" fill="none" />
<polyline points="365.0,260.0,369.0,259.0,373.5,260.0,377.5,262.0,381.0,264.0,385.0,267.0,389.0,272.0" stroke="black" stroke-width="2" fill="none" />
<polyline points="375.5,263.5,383.0,267.5,387.0,271.5,389.5,275.5,391.0,280.0,391.0,283.5,391.0,287.5,389.5,291.5,388.0,295.0,385.5,298.5,381.5,303.0,376.5,307.0" stroke="black" stroke-width="2" fill="none" />
<polyline points="365.5,276.5,361.5,273.5,357.5,271.0,353.5,270.0,349.5,270.0,345.0,270.0" stroke="black" stroke-width="2" fill="none" />
<polyline points="342.0,273.5,346.0,266.5,350.0,263.0,352.5,263.5,348.0,264.0,344.5,267.5,343.0,272.0,342.5,276.0" stroke="black" stroke-width="2" fill="none" />
<polyline points="340.5,263.0,336.5,261.5,332.5,260.5" stroke="black" stroke-width="2" fill="none" />
<polyline points="336.0,261.0,341.5,265.0" stroke="black" stroke-width="2" fill="none" />
<polyline points="336.0,264.5,338.5,268.5,338.0,272.0,338.0,276.0,339.0,279.5,340.5,283.5,345.0,288.0" stroke="black" stroke-width="2" fill="none" />
<polyline points="335.0,271.5,331.0,267.5" stroke="black" stroke-width="2" fill="none" />
<polyline points="326.5,266.5,324.5,267.5,328.5,266.0,333.0,267.5,336.5,272.0" stroke="black" stroke-width="2" fill="none" />
<polyline points="326.0,262.0,320.5,258.0,316.5,251.5,312.0,248.5,308.0,246.0,304.5,244.5,301.0,243.0,297.0,242.0,293.0,241.0,289.0,241.0,285.0,241.0,280.5,241.5,277.0,242.5,273.0,244.0,269.5,247.0,265.5,249.0,261.5,248.0,257.5,249.5" stroke="black" stroke-width="2" fill="none" />
<polyline points="257.5,249.5,256.5,253.5,259.0,255.0" stroke="black" stroke-width="2" fill="none" />
<polyline points="260.0,254.0,260.0,250.0" stroke="black" stroke-width="2" fill="none" />
<polyline points="266.5,258.5,270.5,251.0,274.0,247.0,278.0,245.0,281.5,244.0,285.5,243.0,289.0,243.0,293.0,243.5,297.0,243.5,301.0,244.5,305.0,246.0,309.0,248.0,312.5,250.5" stroke="black" stroke-width="2" fill="none" />
<polyline points="319.0,255.5,321.0,259.5,323.0,263.5,321.5,267.5,321.0,271.5,319.5,275.5,317.5,279.0,316.0,283.0,313.5,286.5,317.0,280.0" stroke="black" stroke-width="2" fill="none" />
<polyline points="307.0,286.5,306.0,284.5,303.0,280.5,308.0,278.5,306.5,280.0,302.5,279.5" stroke="black" stroke-width="2" fill="none" />
<polyline points="307.5,268.5,304.5,264.5,298.0,260.5,290.0,261.5" stroke="black" stroke-width="2" fill="none" />
<polyline points="292.0,262.0,289.5,266.5,290.0,269.5,294.5,269.0" stroke="black" stroke-width="2" fill="none" />
<polyline points="298.5,268.5,296.0,264.0" stroke="black" stroke-width="2" fill="none" />
<polyline points="297.0,256.5,293.0,255.5,289.0,255.0" stroke="black" stroke-width="2" fill="none" />
<polyline points="296.0,257.5,293.5,252.5,290.0,251.5,286.5,251.5,282.5,251.5,278.5,252.5,275.0,253.0,271.0,254.5" stroke="black" stroke-width="2" fill="none" />
<polyline points="273.5,259.5,270.0,260.5,273.5,259.0,277.5,258.5,281.5,259.0,285.5,258.5,290.0,259.5,294.0,260.5,298.5,262.0,302.0,264.0,306.0,269.0" stroke="black" stroke-width="2" fill="none" />
<polyline points="311.0,259.5,307.0,257.0" stroke="black" stroke-width="2" fill="none" />
<polyline points="307.5,257.0,311.0,261.0,312.5,265.0" stroke="black" stroke-width="2" fill="none" />
<polyline points="296.0,263.0,292.5,260.5,289.5,265.0,286.0,267.5,282.5,267.5,278.5,264.5,274.5,262.0" stroke="black" stroke-width="2" fill="none" />
<polyline points="277.0,262.0,279.0,265.5" stroke="black" stroke-width="2" fill="none" />
<polyline points="264.0,269.5,264.5,273.5,265.0,277.5,266.5,281.5,267.5,285.5,270.0,289.5,274.0,293.5" stroke="black" stroke-width="2" fill="none" />
<polyline points="266.5,276.5,270.5,286.5,274.0,291.5,277.5,295.5,281.0,297.0,285.0,298.0,288.5,297.5,292.5,297.0,296.0,295.5,300.0,294.0,304.0,290.5,303.5,291.0,297.0,294.5" stroke="black" stroke-width="2" fill="none" />
<polyline points="303.0,304.0,307.0,308.0,311.5,308.0,315.5,307.5,319.5,307.5,323.0,309.0" stroke="black" stroke-width="2" fill="none" />
<polyline points="319.0,308.0,323.5,312.0,324.0,316.5" stroke="black" stroke-width="2" fill="none" />
<polyline points="332.0,337.0,337.5,341.0,340.5,345.5,341.0,353.0,342.5,357.0" stroke="black" stroke-width="2" fill="none" />
<polyline points="342.5,355.0,338.5,350.0,334.5,349.0,331.0,348.5,327.0,348.0,323.0,347.5,319.5,347.5,315.5,346.5,311.5,345.5,307.5,345.0,303.5,344.0,299.5,343.5,295.5,345.0" stroke="black" stroke-width="2" fill="none" />
<polyline points="296.0,343.5,298.0,347.5,302.0,353.0,305.0,357.0,309.0,361.0,311.0,365.0,314.5,366.5,317.5,371.0" stroke="black" stroke-width="2" fill="none" />
<polyline points="319.5,368.0,317.5,366.0,313.5,366.0" stroke="black" stroke-width="2" fill="none" />
<polyline points="307.0,360.0,303.0,355.5,299.0,351.0" stroke="black" stroke-width="2" fill="none" />
<polyline points="294.5,348.5,297.0,352.5,300.5,356.5,304.0,360.5,306.5,364.5,309.0,368.5,312.5,372.5,316.0,377.0,320.5,378.0,324.5,379.5,329.0,380.0,332.5,378.0,336.5,378.5" stroke="black" stroke-width="2" fill="none" />
<polyline points="348.0,360.5,347.0,365.0,347.5,369.0,348.0,373.5,348.5,377.5,349.0,382.0,349.0,386.5,350.0,390.5,351.0,394.5,351.0,398.5,351.5,402.0,352.5,406.0,355.5,409.5,360.5,413.5,364.0,418.0" stroke="black" stroke-width="2" fill="none" />
<polyline points="374.0,422.5,374.5,426.5,375.0,431.0,376.5,435.5,378.0,436.5" stroke="black" stroke-width="2" fill="none" />
<polyline points="389.0,435.5,393.0,437.0" stroke="black" stroke-width="2" fill="none" />
<polyline points="376.5,417.5,372.0,421.5,370.0,426.0,369.5,430.0,369.0,434.0,369.5,437.5,370.0,441.5,371.0,445.0,370.5,449.0,370.5,453.0,370.5,457.0,370.5,461.0,370.5,465.0,370.5,469.0,371.0,473.0,371.5,477.0,371.0,481.0,371.0,485.5,368.5,489.5,365.0,493.5" stroke="black" stroke-width="2" fill="none" />
<polyline points="432.0,445.0,426.0,449.0,423.0,453.0,420.5,457.0,419.5,461.5,418.5,465.5,422.0,470.0,426.0,472.0,430.0,473.0,434.0,474.0,438.0,475.0,442.0,475.5,446.0,476.0,449.5,476.5,453.0,477.0,457.0,476.5,461.0,477.0,465.5,477.0,469.5,476.5,474.0,475.5" stroke="black" stroke-width="2" fill="none" />
<polyline points="454.5,442.5,462.5,438.5" stroke="black" stroke-width="2" fill="none" />
<polyline points="480.0,414.5,484.0,415.5,488.0,417.0,492.5,418.0,496.5,418.5,500.5,419.0,504.5,420.5,508.5,421.5,512.5,423.0,512.0,430.0,510.5,434.5,510.0,438.5,510.0,442.5,509.5,446.5,510.5,451.0,512.5,455.5,514.0,459.5" stroke="black" stroke-width="2" fill="none" />
<polyline points="506.5,421.0,494.5,417.0" stroke="black" stroke-width="2" fill="none" />
<polyline points="315.0,374.0,311.0,369.0,306.5,362.0,302.0,357.0,297.5,353.0,293.5,348.0" stroke="black" stroke-width="2" fill="none" />
<polyline points="292.5,346.0,292.5,350.0,292.0,354.0" stroke="black" stroke-width="2" fill="none" />
<polyline points="289.0,341.5,293.5,341.0,297.0,340.0,300.5,339.0,304.5,338.0,308.0,337.0,312.5,337.0,316.0,336.0,320.0,336.5,323.5,338.0,327.5,338.5,331.5,339.5,336.0,342.5,340.0,347.0" stroke="black" stroke-width="2" fill="none" />
<polyline points="302.0,305.5,298.0,306.0" stroke="black" stroke-width="2" fill="none" />
<polyline points="283.5,299.0,280.0,297.5,276.0,296.0,272.0,292.0,268.0,287.0,264.0,277.0" stroke="black" stroke-width="2" fill="none" />
<polyline points="282.0,245.5,286.0,245.0,290.0,245.5,294.0,247.5,298.0,249.0" stroke="black" stroke-width="2" fill="none" />
<polyline points="303.0,249.0,310.5,253.0,315.0,257.5,317.5,261.0,318.5,264.5,318.5,268.0,318.0,271.5,317.0,275.5" stroke="black" stroke-width="2" fill="none" />
<polyline points="316.0,279.5,312.0,286.5,307.0,293.5,303.0,294.5,299.0,297.5,299.0,297.5,308.0,293.5,312.0,287.5,314.5,283.5,316.5,279.0,318.0,275.0,319.5,271.0,319.5,267.0,320.0,263.0,318.5,259.0,315.5,255.0,311.0,251.0,303.0,247.0" stroke="black" stroke-width="2" fill="none" />
<polyline points="301.0,243.5,311.0,247.0,315.5,251.0,319.5,259.0,325.0,258.5,329.5,260.5,334.5,264.0,338.0,265.5,344.0,263.5,347.5,260.0,351.5,258.5,355.5,257.0,360.0,256.5,364.0,257.0,368.5,257.0,373.0,258.0,377.0,259.5,380.5,261.0,384.5,264.0,388.5,267.5,392.5,275.0" stroke="black" stroke-width="2" fill="none" />
<polyline points="355.0,257.5,347.0,261.5,343.5,265.0,341.0,269.5,340.0,274.0,339.0,280.5,343.0,287.0,347.0,291.0" stroke="black" stroke-width="2" fill="none" />
<polyline points="316.0,258.0,312.5,253.0,308.5,250.0,304.5,248.5,298.0,250.0,289.0,246.0" stroke="black" stroke-width="2" fill="none" />
<polyline points="279.5,243.5,272.0,247.5,268.0,251.5,266.0,255.5,264.5,260.0" stroke="black" stroke-width="2" fill="none" />
<polyline points="270.5,246.0,277.5,242.0" stroke="black" stroke-width="2" fill="none" />
<polyline points="278.5,232.0,269.0,235.5,264.0,239.0,260.0,243.0,262.0,240.5,266.0,236.5,270.0,235.0,274.5,232.0,278.5,230.5,283.0,232.0,287.0,233.5,291.0,233.0,294.5,233.5,298.5,235.0,302.0,235.5,306.0,237.0,310.0,240.0,314.0,241.0" stroke="black" stroke-width="2" fill="none" />
<polyline points="315.5,240.5,311.0,239.0,306.0,235.0" stroke="black" stroke-width="2" fill="none" />
<polyline points="352.5,243.5,344.5,247.5,346.5,247.0,351.0,245.0,355.0,244.5,359.0,246.0,363.5,246.5,367.0,248.0,372.5,247.5" stroke="black" stroke-width="2" fill="none" />
<polyline points="366.5,214.5,362.5,206.5,358.0,201.0,354.0,196.0,350.0,193.0,346.5,190.5,342.5,188.0,338.5,188.0,335.0,186.0,331.0,185.0,328.5,186.0,325.0,184.5,321.0,182.0,317.0,181.5" stroke="black" stroke-width="2" fill="none" />
<polyline points="320.0,183.5,326.0,184.0,334.5,188.0" stroke="black" stroke-width="2" fill="none" />
<polyline points="262.5,144.0,260.0,148.0,257.0,152.0,253.5,156.5" stroke="black" stroke-width="2" fill="none" />
<polyline points="238.5,123.5,234.0,120.0,229.5,119.0,225.5,123.5" stroke="black" stroke-width="2" fill="none" />
<polyline points="228.0,122.0,229.0,126.0,234.0,126.5" stroke="black" stroke-width="2" fill="none" />
<polyline points="231.5,120.0,232.0,124.5,228.0,129.5,227.0,135.0,231.0,132.0,235.0,132.5,239.5,135.5" stroke="black" stroke-width="2" fill="none" />
<polyline points="222.5,136.0,218.5,134.5,214.0,136.0" stroke="black" stroke-width="2" fill="none" />
<polyline points="211.5,130.0,215.5,124.0,219.5,122.5,223.0,124.0,220.5,127.5,220.0,131.5,211.5,136.5,213.5,134.0,217.0,131.0,221.0,133.5,225.0,133.5,229.0,131.5,233.5,130.5,238.0,131.0,243.0,134.0" stroke="black" stroke-width="2" fill="none" />
<polyline points="242.0,138.5,237.5,139.0,233.5,138.5,229.5,138.0,225.0,138.0,221.0,138.5,217.5,138.5,213.5,139.0,209.0,139.0,209.5,133.5,210.5,128.5,212.5,124.5,217.5,124.0,213.5,125.5" stroke="black" stroke-width="2" fill="none" />
<polyline points="216.5,126.5,217.0,130.5,223.0,134.5" stroke="black" stroke-width="2" fill="none" />
<polyline points="222.5,126.5,219.0,122.5" stroke="black" stroke-width="2" fill="none" />
<polyline points="226.0,126.5,226.5,122.5,229.0,118.5" stroke="black" stroke-width="2" fill="none" />
<polyline points="233.5,119.5,238.5,123.5,240.5,127.5,242.5,131.5,244.5,136.0" stroke="black" stroke-width="2" fill="none" />
<polyline points="233.0,168.5,229.0,171.5,225.0,175.0,221.5,181.0,218.0,183.0,214.5,187.0" stroke="black" stroke-width="2" fill="none" />
<polyline points="214.0,191.5,213.5,195.5" stroke="black" stroke-width="2" fill="none" />
<polyline points="208.5,193.5,206.5,196.0,202.5,199.0,204.0,200.0,201.0,199.0,208.5,196.0,206.5,193.0,208.0,189.5,211.5,186.0,210.5,188.0,206.5,193.0" stroke="black" stroke-width="2" fill="none" />
<polyline points="215.0,180.5,216.0,176.5,214.5,178.5" stroke="black" stroke-width="2" fill="none" />
<polyline points="190.5,198.0,186.0,199.5" stroke="black" stroke-width="2" fill="none" />
<polyline points="183.0,203.0,181.0,199.0,181.5,195.5,176.0,194.0" stroke="black" stroke-width="2" fill="none" />
<polyline points="170.5,188.0,173.0,192.0,173.5,196.5,174.0,200.5,172.5,204.5" stroke="black" stroke-width="2" fill="none" />
<polyline points="168.0,201.0,168.5,197.5,168.5,197.5" stroke="black" stroke-width="2" fill="none" />
<polyline points="165.5,189.0,169.5,188.0,177.5,195.0,178.5,199.5,176.5,203.0" stroke="black" stroke-width="2" fill="none" />
<polyline points="192.5,203.5,188.5,203.5,184.5,203.0,178.5,202.5,172.0,203.5,166.5,203.5,166.5,199.5,166.0,195.5,165.0,191.5,166.5,188.0" stroke="black" stroke-width="2" fill="none" />
<polyline points="158.0,206.5,154.0,207.0,150.5,205.0,146.0,207.5,142.0,208.5,137.5,207.5,133.5,209.0,130.0,209.5,126.0,210.0,122.5,205.5" stroke="black" stroke-width="2" fill="none" />
<polyline points="129.0,196.5,133.0,200.5" stroke="black" stroke-width="2" fill="none" />
<polyline points="132.0,196.5,133.0,194.0,132.0,190.0,132.0,190.0" stroke="black" stroke-width="2" fill="none" />
<polyline points="135.0,190.5,136.0,194.0,135.0,198.0,137.0,202.0" stroke="black" stroke-width="2" fill="none" />
<polyline points="130.0,194.0,126.0,193.0" stroke="black" stroke-width="2" fill="none" />
<polyline points="125.0,190.5,125.5,194.5,129.5,200.5,133.5,204.5" stroke="black" stroke-width="2" fill="none" />
<polyline points="125.5,201.0,123.0,196.5,122.5,192.5,123.5,188.0,123.5,187.0" stroke="black" stroke-width="2" fill="none" />
<polyline points="123.0,193.0,127.0,201.0" stroke="black" stroke-width="2" fill="none" />
<polyline points="123.5,183.5,119.0,178.5" stroke="black" stroke-width="2" fill="none" />
<polyline points="116.5,174.5,118.0,177.0,119.5,181.0,119.5,185.0,121.5,189.5,121.5,194.0,121.5,198.0,121.5,201.5,122.5,205.5" stroke="black" stroke-width="2" fill="none" />
<polyline points="104.0,207.0,103.0,203.5,102.5,200.0,102.5,195.5,102.0,191.5,101.5,187.5,101.5,183.5,103.5,179.0,102.0,175.0,97.0,171.0,94.0,169.5,94.0,167.5,90.0,168.5" stroke="black" stroke-width="2" fill="none" />
<polyline points="89.0,170.5,93.0,170.0,99.5,174.0" stroke="black" stroke-width="2" fill="none" />
<polyline points="91.5,178.5,87.5,179.5" stroke="black" stroke-width="2" fill="none" />
<polyline points="90.5,181.5,94.0,181.5" stroke="black" stroke-width="2" fill="none" />
<polyline points="90.0,184.5,88.5,188.5,88.0,192.0,88.5,196.0,89.0,199.5,89.5,203.5,89.5,208.5,92.5,206.0" stroke="black" stroke-width="2" fill="none" />
<polyline points="93.0,208.5,89.5,207.0" stroke="black" stroke-width="2" fill="none" />
<polyline points="97.0,204.5,96.5,200.5,96.0,196.5,96.0,192.5,95.5,188.5,94.0,184.5,91.5,183.5,87.5,186.0" stroke="black" stroke-width="2" fill="none" />
<polyline points="83.0,173.0,79.0,175.0" stroke="black" stroke-width="2" fill="none" />
<polyline points="84.0,164.0,88.0,163.5,92.0,163.0,96.0,164.0" stroke="black" stroke-width="2" fill="none" />
<polyline points="85.0,164.0,85.0,168.0,81.0,172.5,79.0,176.5,79.0,180.5,79.5,184.5,80.0,188.5,80.5,193.0,81.0,197.0,82.0,201.5,82.5,205.5,83.0,209.5,84.5,211.5,88.5,211.0,92.5,211.0,96.5,210.5,100.5,210.5,104.5,209.5,107.5,209.5,111.5,208.5,115.5,209.0,119.5,209.0" stroke="black" stroke-width="2" fill="none" />
<polyline points="105.5,206.5,105.0,202.5,104.5,198.5,104.5,194.0,104.5,190.0,104.0,186.0,103.0,182.5" stroke="black" stroke-width="2" fill="none" />
<polyline points="126.5,179.0,124.5,183.0,127.5,179.0,131.0,179.5,135.5,185.5" stroke="black" stroke-width="2" fill="none" />
<polyline points="130.0,180.0,132.0,184.0,136.0,187.5,136.0,191.5,137.0,195.5,138.0,200.0,138.5,204.0,137.5,207.5" stroke="black" stroke-width="2" fill="none" />
<polyline points="93.0,236.5,97.0,243.5" stroke="black" stroke-width="2" fill="none" />
<polyline points="90.5,229.5,86.5,226.5" stroke="black" stroke-width="2" fill="none" />
<polyline points="86.0,228.5,91.0,232.5,93.0,236.0,94.0,240.0,95.5,243.5,100.5,247.5,99.0,251.5,102.0,252.5,106.0,253.0,109.5,254.0,113.5,256.5" stroke="black" stroke-width="2" fill="none" />
<polyline points="110.5,255.0,116.0,259.0,118.0,263.0,118.5,266.5,118.0,270.5,122.0,268.5,126.0,268.5,130.0,267.5,133.5,267.5,137.5,267.0,141.5,267.0,145.5,270.0" stroke="black" stroke-width="2" fill="none" />
<polyline points="151.0,270.5,147.5,273.5,151.5,272.0,154.0,269.5,158.0,269.0,162.0,268.5,166.0,268.5" stroke="black" stroke-width="2" fill="none" />
<polyline points="155.5,272.5,159.5,272.5,163.0,271.5,167.0,271.5,171.0,271.0,175.0,270.5,179.0,270.0" stroke="black" stroke-width="2" fill="none" />
<polyline points="147.0,269.0,143.0,265.0" stroke="black" stroke-width="2" fill="none" />
<polyline points="112.0,270.0,108.0,270.5" stroke="black" stroke-width="2" fill="none" />
<polyline points="111.0,272.5,106.5,276.0,104.0,280.0,102.0,284.0" stroke="black" stroke-width="2" fill="none" />
<polyline points="116.5,272.0,113.0,272.5,109.5,274.5,106.0,279.5,102.5,285.5,98.5,287.0,94.5,286.0,90.0,285.5,86.0,284.0,81.5,282.5,77.0,280.5,72.5,278.5,68.0,276.5,64.0,275.0,59.5,274.0,55.5,271.5" stroke="black" stroke-width="2" fill="none" />
<polyline points="67.5,278.5,75.0,282.0,85.0,286.0" stroke="black" stroke-width="2" fill="none" />
<polyline points="72.0,292.5,76.5,296.0,82.0,300.0,87.0,304.5,93.0,308.5,98.0,312.5,102.5,316.0,105.5,320.0,100.0,324.0" stroke="black" stroke-width="2" fill="none" />
<polyline points="100.5,326.5,104.5,326.5,108.5,322.0" stroke="black" stroke-width="2" fill="none" />
<polyline points="107.5,327.0,111.5,327.0,115.5,321.5" stroke="black" stroke-width="2" fill="none" />
<polyline points="113.5,316.5,109.5,314.5" stroke="black" stroke-width="2" fill="none" />
<polyline points="107.0,311.5,103.0,313.0" stroke="black" stroke-width="2" fill="none" />
<polyline points="105.0,307.5,102.5,311.5,105.0,310.5,109.0,314.5" stroke="black" stroke-width="2" fill="none" />
<polyline points="104.5,321.0,101.0,324.5,97.0,326.5,93.0,329.0,89.0,329.5" stroke="black" stroke-width="2" fill="none" />
<polyline points="93.0,340.5,97.0,336.5,101.0,333.0" stroke="black" stroke-width="2" fill="none" />
<polyline points="105.0,328.5,104.5,332.5,101.0,334.0,96.5,338.0,94.0,341.5" stroke="black" stroke-width="2" fill="none" />
<polyline points="94.0,346.5,86.0,348.5" stroke="black" stroke-width="2" fill="none" />
<polyline points="84.0,342.5,80.0,340.0" stroke="black" stroke-width="2" fill="none" />
<polyline points="79.5,348.0,75.5,346.5,71.5,346.5,67.5,351.0,63.0,353.0,59.0,355.5,54.5,358.5,50.0,360.0,46.0,365.0" stroke="black" stroke-width="2" fill="none" />
<polyline points="51.5,359.0,48.0,363.0,46.5,367.0,45.5,371.0,46.0,375.0,48.5,375.5,52.5,375.0" stroke="black" stroke-width="2" fill="none" />
<polyline points="57.0,375.5,61.0,374.0,65.0,372.5,69.5,370.5,73.5,369.0,77.5,367.5,81.5,366.0,85.5,363.5,89.5,362.0,88.5,364.0,83.0,365.0,74.5,369.0" stroke="black" stroke-width="2" fill="none" />
<polyline points="88.0,359.5,92.0,358.5,96.0,358.5,99.5,358.5,103.5,357.5" stroke="black" stroke-width="2" fill="none" />
<polyline points="108.0,348.0,112.0,351.0" stroke="black" stroke-width="2" fill="none" />
<polyline points="108.0,345.5,104.0,346.5" stroke="black" stroke-width="2" fill="none" />
<polyline points="107.5,340.5,106.0,336.5,108.5,330.5,105.5,327.0,108.5,323.0,103.5,317.5,99.5,313.5,95.0,311.0,91.0,308.0,87.0,305.0,83.0,301.5,79.5,299.0,75.5,296.0,72.0,293.5,68.0,291.5" stroke="black" stroke-width="2" fill="none" />
<polyline points="66.0,293.5,73.0,297.5" stroke="black" stroke-width="2" fill="none" />
<polyline points="67.5,288.0,67.5,292.0,70.5,292.5,72.5,296.5,73.5,300.5,75.0,305.0,76.0,309.0,76.5,313.0,77.5,317.0,79.0,321.0,80.5,324.5,81.5,329.0,82.5,333.0,83.5,337.5,83.0,341.5" stroke="black" stroke-width="2" fill="none" />
<polyline points="71.0,346.5,67.5,350.5,60.0,354.0" stroke="black" stroke-width="2" fill="none" />
<polyline points="43.0,377.5,39.5,378.0,35.5,379.0,32.0,380.0,28.0,381.5,24.0,384.5,20.0,388.0,16.0,391.5,12.0,395.0,8.0,400.5,4.0,405.0,6.0,403.5,9.0,400.0,12.0,396.0,16.5,392.0,21.5,388.5,26.0,384.5,34.0,381.0" stroke="black" stroke-width="2" fill="none" />
<polyline points="121.5,354.5,130.5,358.0" stroke="black" stroke-width="2" fill="none" />
<polyline points="145.5,361.5,156.0,366.0,165.0,370.0,173.5,374.0,182.5,378.5,191.0,383.0,199.0,387.0,206.5,391.0,215.5,395.0,224.5,399.5,235.0,403.5" stroke="black" stroke-width="2" fill="none" />
<polyline points="230.0,387.5,226.0,383.5,221.5,379.5,217.5,374.0" stroke="black" stroke-width="2" fill="none" />
<polyline points="217.0,373.5,219.0,377.5,223.0,381.5,227.0,385.5,230.5,390.0" stroke="black" stroke-width="2" fill="none" />
<polyline points="228.5,389.5,224.0,385.0,220.0,381.0,216.5,375.5" stroke="black" stroke-width="2" fill="none" />
<polyline points="219.5,372.0,222.0,376.5,225.5,380.5,229.5,384.5" stroke="black" stroke-width="2" fill="none" />
<polyline points="250.0,390.0,251.0,394.0,251.0,398.0,249.5,404.5" stroke="black" stroke-width="2" fill="none" />
<polyline points="206.0,385.0,202.0,381.0,197.5,378.5,193.5,376.0" stroke="black" stroke-width="2" fill="none" />
<polyline points="193.5,376.5,199.0,380.5,204.5,384.5" stroke="black" stroke-width="2" fill="none" />
<polyline points="127.0,312.0,124.5,308.0,123.5,308.5,119.5,309.5" stroke="black" stroke-width="2" fill="none" />
<polyline points="120.0,309.5,119.5,313.5,118.0,317.5" stroke="black" stroke-width="2" fill="none" />
<polyline points="112.0,306.5,110.5,310.5,107.5,314.0,112.0,318.0,113.5,321.5,110.5,325.0,110.5,330.5,110.5,334.0,111.0,338.0,110.5,342.0,104.0,346.0,110.5,350.0,111.5,354.0,113.5,355.5,117.0,354.0,120.0,351.5,124.0,354.0,128.5,356.5,132.5,358.0,136.5,358.5,140.5,360.0,144.5,361.0,148.5,362.0,152.5,363.0,156.0,364.5,160.0,366.5,164.0,367.5,168.0,369.5,172.0,371.5,176.0,374.0,180.0,375.5,184.5,377.5,188.5,379.5,193.0,381.5,197.0,384.0,201.0,386.0,205.0,388.5,209.0,390.5,213.0,393.0,217.5,394.5,221.5,396.5,225.5,398.0,229.5,400.0,233.0,401.5,236.5,403.0,240.5,403.5,244.0,405.0,247.5,405.5" stroke="black" stroke-width="2" fill="none" />
<polyline points="96.0,342.0,94.0,345.5,90.0,348.0,86.0,347.5,83.5,349.0,82.5,345.0,80.5,341.5,79.0,336.5,77.5,332.5,77.0,328.0,76.0,324.0,74.5,320.0,73.0,316.0,71.5,312.0,70.0,308.5,69.0,304.5,68.5,300.5,66.5,296.0,64.0,292.0,64.0,288.0,63.5,284.0" stroke="black" stroke-width="2" fill="none" />
<polyline points="66.5,282.5,71.0,286.0,74.0,290.0,79.5,294.0,84.5,298.0,89.5,302.5,94.5,306.5,99.5,311.0,106.5,315.0,110.0,320.0,114.0,321.0" stroke="black" stroke-width="2" fill="none" />
<polyline points="50.5,217.0,54.5,216.0,58.5,215.5,62.0,215.5,65.5,215.5,69.5,214.5,73.5,214.5,78.0,214.5,82.0,214.5,86.5,213.5,91.0,213.5,94.5,213.0,98.5,213.5,102.0,213.0,106.0,213.5,110.0,214.0,114.5,214.5,118.5,214.5,123.0,215.0,127.0,214.5,131.0,214.5,135.0,214.5,139.0,214.5,143.0,213.5,147.5,213.5,152.0,213.5,156.0,212.5,160.0,212.0,164.0,211.5,168.5,210.5,172.5,210.5,176.0,210.0,180.0,210.5,184.0,210.0,187.5,210.0,191.5,210.0,195.0,209.5,198.5,210.5,202.5,207.0,206.5,204.0,210.5,199.5" stroke="black" stroke-width="2" fill="none" />
<polyline points="255.5,222.0,254.5,226.0,251.5,230.0,246.5,234.5,243.0,238.5,240.5,242.5,239.0,246.5,238.0,249.5,237.0,248.0,241.0,239.5,245.5,234.5,249.5,231.5,253.5,226.0" stroke="black" stroke-width="2" fill="none" />
<polyline points="208.5,137.5,204.5,138.0,200.5,138.0,196.5,138.5,192.5,137.5" stroke="black" stroke-width="2" fill="none" />
<polyline points="187.5,138.5,186.5,134.0,192.5,130.0,192.0,126.0,192.5,121.5,192.0,119.0,188.0,119.0,184.0,119.0,180.0,122.5" stroke="black" stroke-width="2" fill="none" />
<polyline points="182.0,123.5,183.5,119.5" stroke="black" stroke-width="2" fill="none" />
<polyline points="178.0,126.0,176.0,121.5,173.0,117.5" stroke="black" stroke-width="2" fill="none" />
<polyline points="166.5,119.5,168.5,123.5,171.5,128.0,174.5,128.5,178.0,132.5,181.0,136.5" stroke="black" stroke-width="2" fill="none" />
<polyline points="175.5,137.0,171.5,137.0,167.5,137.0" stroke="black" stroke-width="2" fill="none" />
<polyline points="164.0,139.5,168.0,140.0,172.0,140.0,176.0,140.0,180.5,139.5,184.5,139.0" stroke="black" stroke-width="2" fill="none" />
<polyline points="189.0,131.0,185.0,133.5,180.5,136.0,176.5,131.5,172.0,128.5,168.5,131.0,165.5,120.0" stroke="black" stroke-width="2" fill="none" />
<polyline points="166.0,118.0,161.5,122.0,160.5,123.0,164.5,120.0,169.0,117.5,173.0,117.5,177.0,122.5,181.5,123.5" stroke="black" stroke-width="2" fill="none" />
<polyline points="157.5,140.0,155.5,144.5,155.0,148.5,155.0,152.5,155.5,156.0,155.5,160.0,155.5,164.5,155.5,168.5,156.0,172.5,156.0,176.0,156.5,180.0,157.0,184.5,157.0,188.5,158.0,193.0,158.5,196.5,159.5,200.5,159.5,204.5,159.5,209.0" stroke="black" stroke-width="2" fill="none" />
<polyline points="153.0,142.5,157.0,140.0,161.0,140.5,165.5,135.5,163.5,138.0,164.0,144.0,168.0,143.5,172.5,143.5,176.5,142.5,181.0,142.0,185.0,142.0,189.0,142.0,192.5,142.0,197.0,142.0,201.0,142.0,204.5,141.5,209.0,142.0,212.5,142.0,216.5,141.5,220.0,141.5,224.0,141.5,228.5,141.5,232.0,142.0,236.0,141.5,239.5,142.0,243.5,142.0,247.5,142.5,250.0,144.0,250.5,148.0,251.5,151.5,251.5,155.5" stroke="black" stroke-width="2" fill="none" />
<polyline points="316.0,137.5,316.0,134.0,315.5,130.0,315.0,126.0,315.5,121.5,315.5,117.5,315.0,113.5,315.5,109.5,315.0,105.5,315.0,101.5,314.0,97.5,314.0,94.0" stroke="black" stroke-width="2" fill="none" />
<polyline points="315.5,79.0,316.0,83.0,316.0,87.0,316.5,91.0,316.5,95.0,317.0,99.0,317.0,103.0,318.5,107.0,319.0,111.0,319.0,115.0,319.5,119.0,320.0,123.0,320.0,127.5,320.5,131.5,321.0,135.5,322.0,140.0,328.0,144.0,332.5,147.5,339.0,145.5,343.0,148.5,346.5,151.0,350.5,157.0" stroke="black" stroke-width="2" fill="none" />
<polyline points="382.5,112.5,382.5,116.5,383.0,120.5,383.0,124.5,384.0,128.5,383.5,132.5,384.0,136.0,384.0,140.0,384.0,144.0,384.5,148.5,385.0,152.5,385.0,156.0,384.5,160.0,384.0,163.5,384.5,167.0,384.0,171.5,384.5,175.0,385.0,179.5,385.5,184.0,385.5,188.0,386.5,192.0,386.5,196.0,386.5,199.5,387.5,203.5,387.5,207.0,387.5,211.0,388.0,215.5,388.0,219.5,388.5,223.5,388.5,228.0,389.0,232.0,389.0,236.0,389.0,240.0,389.5,244.0,389.0,248.5,389.0,252.5,389.5,256.5,389.0,260.5,389.0,264.5" stroke="black" stroke-width="2" fill="none" />
<polyline points="383.0,190.0,381.0,185.5,381.0,181.0,381.0,177.5,381.0,173.5,381.0,169.0,380.5,165.5,380.0,161.0,381.0,157.0,380.5,153.0,381.0,149.0,381.0,145.0,381.5,140.5,381.0,136.5,381.5,133.0,380.5,129.0,380.0,125.5,380.0,122.0,380.0,118.0,379.0,113.5,379.5,109.5,379.5,105.5,379.5,101.0" stroke="black" stroke-width="2" fill="none" />
<polyline points="416.0,85.5,415.5,89.5,415.5,93.5,415.0,97.5,415.0,102.0,416.0,106.0,415.5,110.0,415.5,114.5,415.5,118.0,415.5,122.0,416.0,126.0,416.5,130.0,416.5,134.0,416.5,138.0,417.0,142.0,417.0,145.5,417.0,150.5,416.5,155.0,417.0,159.5,417.5,163.5,417.5,167.0,417.5,171.5,417.5,176.0,417.5,179.5,417.5,183.5,417.0,187.5,417.0,191.0,417.5,194.5,417.5,198.5,418.0,202.0,418.0,206.0,419.0,210.0" stroke="black" stroke-width="2" fill="none" />
<polyline points="293.0,137.0,293.0,133.0,292.5,129.5,292.0,125.5,291.0,121.5,290.0,117.5,289.5,113.5,289.5,109.5,289.5,105.5,289.0,101.0,288.5,96.5,288.0,92.5" stroke="black" stroke-width="2" fill="none" />
<polyline points="284.5,82.0,285.0,86.0,285.5,90.0,285.0,94.0,285.5,98.0,285.5,102.5,286.0,106.5,286.5,110.5,286.5,114.5,286.5,119.0,286.5,123.0,287.0,127.0,287.5,131.5,287.5,135.5,287.0,139.5" stroke="black" stroke-width="2" fill="none" />
<polyline points="305.5,141.0,305.5,137.5,305.5,133.5,306.0,129.5,306.0,125.0,306.0,121.0,306.5,117.0,306.5,113.5,307.0,109.0,307.0,105.0,306.0,101.0,305.5,97.0,305.0,93.0,304.5,89.0,304.5,85.0,304.0,81.5,303.0,78.0,303.0,73.5" stroke="black" stroke-width="2" fill="none" />
<polyline points="423.5,44.5,424.0,48.5,423.5,52.5,423.5,56.5,423.0,60.5,422.5,64.0,422.0,68.0,422.0,72.0,422.0,76.0,422.0,80.0,422.5,84.5,423.0,88.0,423.5,92.0,424.0,96.0,424.5,100.0,424.5,104.0,425.5,108.0,425.5,112.0,425.5,116.0,426.0,120.0,426.0,124.0,426.5,128.0,426.5,132.0,426.5,135.5,426.0,140.0,426.0,144.0,426.0,148.0,426.5,152.0,426.5,156.0,427.0,160.0,427.5,163.5,427.5,167.5,427.5,172.0,427.5,176.0,427.5,179.5,428.0,183.0,428.5,187.5,429.5,191.0,430.0,195.0,430.5,199.0,430.0,203.0,431.0,207.0,431.5,211.0,432.0,215.0,431.5,219.0,431.5,223.0,432.0,227.0,433.0,231.5,433.0,235.5,433.0,239.5,433.5,243.5,433.5,247.5,434.0,251.5,434.0,255.0,434.0,259.0,434.0,263.0,434.5,266.5,434.5,270.5,435.0,274.5,435.5,279.0,435.5,283.0,436.5,287.0,437.0,291.0,438.0,295.0,438.0,299.5,438.5,303.5,439.0,308.0,439.5,312.0,440.0,316.5,440.5,320.5,441.0,324.5,441.5,328.5,442.0,332.5,441.5,336.5,441.5,340.5,442.0,344.5,441.5,349.0,441.5,353.0,441.5,357.0,442.0,361.5,442.0,365.0,442.5,369.5,443.0,373.0,444.0,377.0,444.0,381.0,445.0,385.0,445.0,389.0,445.5,393.0,445.5,397.0,446.0,401.5,446.0,405.0,447.0,409.0,447.0,412.5,447.5,416.5,448.0,420.0,446.5,424.0" stroke="black" stroke-width="2" fill="none" />
<polyline points="64.0,209.0,60.0,209.0,56.0,210.0,52.0,206.5" stroke="black" stroke-width="2" fill="none" />
<polyline points="54.0,206.5,56.5,210.5,60.0,211.5,64.0,211.5,69.5,212.0,74.0,211.5,78.0,211.5,82.0,212.0" stroke="black" stroke-width="2" fill="none" />
<polyline points="54.0,210.5,50.0,210.5,46.0,212.5" stroke="black" stroke-width="2" fill="none" />
<polyline points="44.5,215.0,44.5,218.5,45.0,222.5,44.5,226.0,45.0,229.5,45.0,234.0,45.5,237.5,46.5,242.0,47.0,246.5,47.5,250.5,48.5,254.5,49.0,258.5,49.0,262.0,49.5,266.0,50.5,269.5,51.0,273.5,53.5,277.0,57.5,280.5,61.5,280.5,66.0,281.5,70.0,285.0,74.0,289.5,78.0,292.5,82.0,295.5,85.5,299.0,89.5,302.5,93.5,305.5,97.0,308.5,101.0,311.5,105.0,308.0,109.0,307.0" stroke="black" stroke-width="2" fill="none" />
<polyline points="61.0,275.0,55.0,271.0,54.5,267.0,55.0,263.0,54.5,259.5,54.0,255.5,54.0,251.5,53.5,247.5,53.0,243.5,53.0,240.0,53.0,236.0,52.0,232.0,51.0,228.0,51.0,224.0,50.0,220.0,50.0,215.5" stroke="black" stroke-width="2" fill="none" />
<polyline points="48.5,210.5,47.0,215.0,47.0,219.0,47.0,223.0,47.5,227.0,47.0,231.0,47.5,235.5,48.5,239.0,49.0,243.5,49.5,247.5,49.5,251.0,50.0,255.5,50.5,260.0,51.5,264.0,52.5,268.0,53.5,272.0,53.5,278.0,54.5,279.0" stroke="black" stroke-width="2" fill="none" />
</svg>